<?xml version="1.0" standalone="no"?>
<!DOCTYPE svg PUBLIC "-//W3C//DTD SVG 1.1//EN" "http://www.w3.org/Graphics/SVG/1.1/DTD/svg11.dtd" >
<svg xmlns="http://www.w3.org/2000/svg" xmlns:xlink="http://www.w3.org/1999/xlink" version="1.1">
<metadata>
Created by FontForge 20150824 at Thu Jul 21 20:24:25 2016
 By Everything Fonts
Copyright (c) 2015 by Groen. All rights reserved.
</metadata>
<defs>
<font id="SVNMaphylla" horiz-adv-x="327" >
  <font-face 
    font-family="SVNMaphylla"
    font-weight="400"
    font-stretch="normal"
    units-per-em="1000"
    panose-1="0 0 0 0 0 0 0 0 0 0"
    ascent="750"
    descent="-250"
    x-height="389"
    cap-height="700"
    bbox="-1534.69 -946.383 1842.87 1268.22"
    underline-thickness="50"
    underline-position="-150"
    unicode-range="U+0020-FB02"
  />
<missing-glyph horiz-adv-x="103" 
 />
    <glyph glyph-name="b_r" unicode="br" horiz-adv-x="607" 
d="M433 160q-8 -27 -11.5 -53t-2 -51.5t14 -40.5t34.5 -15q43 1 87.5 63t65.5 114q1 3 -1 5t-5 2t-4 -3q-20 -44 -54.5 -93t-53.5 -54q-26 -7 -27.5 24t13.5 80l75 219q0 6 -31 22t-66.5 32.5t-41.5 20.5q8 90 -21 97q-17 5 -31 -23q-20 -40 7 -73q9 -12 24 -20
q-3 -95 -51.5 -158t-115.5 -44q23 66 18 105t-21 55t-36 13q-22 -4 -37.5 -27.5t-18.5 -52.5t16 -59.5t60 -44.5q-21 -70 -68 -123.5t-73 -51.5q-13 1 -22.5 12.5t-13.5 32.5t-2.5 49t10.5 64.5t24 76.5q252 325 309 510q29 97 -9 109q-37 11 -110 -68q-122 -134 -216 -391
q-4 -10 -7 -19q-95 -268 -45 -365q26 -51 83 -33q92 29 154 191q42 -5 75.5 9.5t52.5 38t33 56.5t19 58t8 50q7 -3 25.5 -12t32 -16.5t23.5 -15.5q-65 -191 -68 -202zM84 293l13 41q0 3 2 5h-1q94 302 200 453q53 75 76 64q24 -11 -15 -111q-70 -178 -275 -452zM224 215
q-28 9 -44.5 26.5t-18.5 37.5t3 39t16.5 32t24.5 15q14 2 23.5 -12.5t9.5 -51t-14 -86.5z" />
    <glyph glyph-name="o_r" unicode="or" horiz-adv-x="609" 
d="M435 160q3 11 68 202q-10 8 -23.5 15.5t-32 16.5t-25.5 12q-5 -34 -17 -70.5t-33.5 -75t-57.5 -58.5t-81 -11q-53 -106 -95.5 -157.5t-86.5 -47.5q-64 5 -70 85q-6 82 47 175q57 100 135 121l25 4q13 69 50 90q31 17 46 -16q19 -40 -2 -128q-10 -42 -42 -107
q49 -14 91.5 23t62 90t12.5 90q-47 26 -37 75q7 31 26 40q23 10 31 -29q5 -25 1 -67q4 -3 20 -11t35.5 -17t39 -18.5t32 -17t12.5 -11.5l-75 -219q-30 -106 6 -105q4 0 8 1q19 5 53.5 54t54.5 93q1 3 4 3t5 -2t1 -5q-21 -52 -65.5 -114t-87.5 -63q-22 0 -34.5 15t-14 40.5
t2 51.5t11.5 53zM185 353q-40 -4 -91 -103q-55 -106 -62 -190q-5 -65 32 -63q60 4 157 199q-27 13 -35.5 59.5t-0.5 97.5zM239 296q-2 18 -4 28t-8 19t-16 10q-13 -117 18 -138q38 79 46 124q16 77 -6 106q-16 20 -35 -11q-13 -23 -21 -65q34 -12 37 -72q0 -6 -5 -6
q-6 0 -6 5z" />
    <glyph glyph-name="v_r" unicode="vr" horiz-adv-x="591" 
d="M417 160q3 11 68 202q-10 8 -23.5 15.5t-32 16.5t-25.5 12q0 -1 -2.5 -12.5t-5 -23.5t-8.5 -31.5t-13.5 -36t-19 -36t-25.5 -32.5t-33.5 -25.5t-42 -14.5t-51.5 0q-12 -35 -35 -77.5t-60 -80t-70 -36.5q-30 1 -39 52.5t0.5 127.5t18.5 127.5t18 86.5q0 3 16 -2.5
t31.5 -13.5t14.5 -11q0 -2 -6 -26.5t-11.5 -51t-12.5 -62.5t-11.5 -68t-7 -61t1 -47t12.5 -21q29 -10 75.5 64t50.5 106q-54 19 -67.5 75t5.5 104t49 52q49 6 57.5 -57t-25.5 -163q42 -7 77 11t56 51t33 69.5t14 70.5q-47 26 -37 75q7 31 26 40q23 10 31 -29q5 -25 1 -67
q4 -3 20 -11t35.5 -17t39 -18.5t32 -17t12.5 -11.5l-75 -219q-30 -106 6 -105q4 0 8 1q19 5 53.5 54t54.5 93q1 3 4 3t5 -2t1 -5q-21 -52 -65.5 -114t-87.5 -63q-22 0 -34.5 15t-14 40.5t2 51.5t11.5 53zM195 215q24 80 22 140t-34 57q-13 -1 -25.5 -19t-18 -44t-4.5 -53
t16.5 -50t43.5 -31z" />
    <glyph glyph-name="w_r" unicode="wr" horiz-adv-x="749" 
d="M575 160q3 11 68 202q-10 8 -23.5 15.5t-32 16.5t-25.5 12q0 -24 -7.5 -54t-24.5 -62.5t-41 -57.5t-61 -36.5t-81 -1.5q-10 -28 -25.5 -58t-37 -62t-49 -52t-54.5 -20q-75 2 -47 227q-31 -102 -58 -165t-52 -62q-30 1 -39.5 50.5t0.5 127.5t17.5 121t17.5 86q0 3 16 -2
t31.5 -13.5t14.5 -11.5q-73 -330 -38 -325q6 1 15.5 21t22 55.5t23 69t24 76.5t20.5 63q2 14 5 28t5 25t3 14q1 2 7.5 0.5t16 -5t18.5 -7.5t15 -8t6 -6t-4.5 -18t-9 -33.5t-10.5 -43t-10 -49.5t-8 -50.5t-4.5 -48.5t1.5 -41t9 -30.5t18 -14.5q35 -8 77 61t49 107
q-54 19 -67.5 75t5.5 104t49 52q49 6 57.5 -57t-25.5 -163q77 -14 128.5 35.5t65.5 166.5q-47 26 -37 75q7 31 26 40q23 10 31 -29q5 -25 1 -67q4 -3 20 -11t35.5 -17t39 -18.5t32 -17t12.5 -11.5l-75 -219q-30 -106 6 -105q4 0 8 1q19 5 53.5 54t54.5 93q1 3 4 3t5 -2t1 -5
q-21 -52 -65.5 -114t-87.5 -63q-22 0 -34.5 15t-14 40.5t2 51.5t11.5 53zM339 215q24 80 22 140t-34 57q-13 -1 -25.5 -19t-18 -44t-4.5 -53t16.5 -50t43.5 -31z" />
    <glyph glyph-name="b_s" unicode="bs" horiz-adv-x="605" 
d="M73 260q252 325 309 510q29 97 -9 109q-37 11 -110 -68q-122 -134 -216 -391q-4 -10 -7 -19q-95 -268 -45 -365q26 -51 83 -33q92 29 154 191q39 -7 75 7q-54 -83 -22.5 -142t125.5 -59q70 0 124 54.5t88 129.5q2 5 -2 8q-7 2 -9 -3q-46 -107 -128 -144q34 36 44.5 84
t-0.5 98.5t-29.5 93t-43.5 84.5q46 72 27 108q-12 24 -36 13q-32 -14 -31 -68q1 -32 15 -69q-58 -115 -102.5 -151.5t-89.5 -26.5q23 66 18 105t-21 55t-36 13q-22 -4 -37.5 -27.5t-18.5 -52.5t16 -59.5t60 -44.5q-21 -70 -68 -123.5t-73 -51.5q-13 1 -22.5 12.5t-13.5 32.5
t-2.5 49t10.5 64.5t24 76.5zM84 293l13 41q0 3 2 5h-1q94 302 200 453q53 75 76 64q24 -11 -15 -111q-70 -178 -275 -452zM327 211q51 55 98 135q18 30 11 28q15 -34 21.5 -90.5t3 -112.5t-26.5 -98t-62 -44q-23 -1 -43.5 14.5t-31 40t-4 59.5t33.5 68zM224 215
q-28 9 -44.5 26.5t-18.5 37.5t3 39t16.5 32t24.5 15q14 2 23.5 -12.5t9.5 -51t-14 -86.5z" />
    <glyph glyph-name="o_s" unicode="os" horiz-adv-x="607" 
d="M233 191q-53 -106 -95.5 -157.5t-86.5 -47.5q-64 5 -70 85q-6 82 47 175q57 100 135 121l25 4q13 69 50 90q31 17 46 -16q19 -40 -2 -128q-10 -42 -42 -107q81 -40 191 179q-30 79 -2 121q17 25 39 17q27 -10 18 -54q-6 -30 -30 -68q25 -42 43.5 -84.5t29.5 -93
t0.5 -98.5t-44.5 -84q82 37 128 144q2 5 9 3q4 -3 2 -8q-34 -75 -88 -129.5t-124 -54.5q-94 0 -125.5 59t22.5 141q-39 -18 -76 -9zM185 353q-40 -4 -91 -103q-55 -106 -62 -190q-5 -65 32 -63q60 4 157 199q-27 13 -35.5 59.5t-0.5 97.5zM331 213q-36 -44 -37 -89t23.5 -71
t56.5 -24q52 3 74 71.5t16.5 147.5t-26.5 126q-2 -4 -16 -28.5t-21.5 -37t-21 -33t-25.5 -36t-23 -26.5zM239 296q-2 18 -4 28t-8 19t-16 10q-13 -117 18 -138q38 79 46 124q16 77 -6 106q-16 20 -35 -11q-13 -23 -21 -65q34 -12 37 -72q0 -6 -5 -6q-6 0 -6 5z" />
    <glyph glyph-name="v_s" unicode="vs" horiz-adv-x="589" 
d="M203 194q-12 -35 -35 -77.5t-60 -80t-70 -36.5q-30 1 -39 52.5t0.5 127.5t18.5 127.5t18 86.5q0 3 16 -2.5t31.5 -13.5t14.5 -11q0 -2 -6 -26.5t-11.5 -51t-12.5 -62.5t-11.5 -68t-7 -61t1 -47t12.5 -21q29 -10 75.5 64t50.5 106q-54 19 -67.5 75t5.5 104t49 52
q49 6 57.5 -57t-25.5 -163q62 -10 110 37t95 141q-30 79 -2 121q17 25 39 17q27 -10 18 -54q-6 -30 -30 -68q25 -42 43.5 -84.5t29.5 -93t0.5 -98.5t-44.5 -84q82 37 128 144q2 5 9 3q4 -3 2 -8q-34 -75 -88 -129.5t-124 -54.5q-98 0 -127.5 62t31.5 149q-45 -27 -95 -17z
M323 224q-33 -35 -43 -72t0 -63.5t31 -43.5t45 -16q52 3 74 71.5t16.5 147.5t-26.5 126q-11 -28 -42.5 -79.5t-54.5 -70.5zM195 215q24 80 22 140t-34 57q-13 -1 -25.5 -19t-18 -44t-4.5 -53t16.5 -50t43.5 -31z" />
    <glyph glyph-name="w_s" unicode="ws" horiz-adv-x="726" 
d="M352 195q-10 -28 -25.5 -58t-37 -62t-49 -52t-54.5 -20q-75 2 -47 227q-31 -102 -58 -165t-52 -62q-30 1 -39.5 50.5t0.5 127.5t17.5 121t17.5 86q0 3 16 -2t31.5 -13.5t14.5 -11.5q-73 -330 -38 -325q6 1 15.5 21t22 55.5t23 69t24 76.5t20.5 63q2 14 5 28t5 25t3 14
q1 2 7.5 0.5t16 -5t18.5 -7.5t15 -8t6 -6t-4.5 -18t-9 -33.5t-10.5 -43t-10 -49.5t-8 -50.5t-4.5 -48.5t1.5 -41t9 -30.5t18 -14.5q35 -8 77 61t49 107q-54 19 -67.5 75t5.5 104t49 52q49 6 57.5 -57t-25.5 -163q51 -10 91 23t102 154q-30 79 -2 121q17 25 39 17
q27 -10 18 -54q-6 -30 -30 -68q25 -42 43.5 -84.5t29.5 -93t0.5 -98.5t-44.5 -84q82 37 128 144q2 5 9 3q4 -3 2 -8q-34 -75 -88 -129.5t-124 -54.5q-95 0 -126.5 59.5t24.5 143.5q-35 -15 -77 -8zM451 214q-37 -44 -38 -89.5t23.5 -71.5t56.5 -24q52 3 74 71.5t16.5 147.5
t-26.5 126q-13 -33 -47 -85.5t-59 -74.5zM344 216q24 80 22 140t-34 57q-13 -1 -25.5 -19t-18 -44t-4.5 -53t16.5 -50t43.5 -31z" />
    <glyph glyph-name="b_x" unicode="bx" horiz-adv-x="654" 
d="M398 387q-2 -7 -4 -28q5 -56 -48 -114t-109 -34q23 66 18 105t-21 55t-36 13q-22 -4 -37.5 -27.5t-18.5 -52.5t16 -59.5t60 -44.5q-21 -70 -68 -123.5t-73 -51.5q-13 1 -22.5 12.5t-13.5 32.5t-2.5 49t10.5 64.5t24 76.5q252 325 309 510q29 97 -9 109q-37 11 -110 -68
q-122 -134 -216 -391q-4 -10 -7 -19q-95 -268 -45 -365q26 -51 83 -33q92 29 154 191q101 -30 160 88q4 -54 22 -136l-94 -134q-4 -5 5 -7q5 -1 7 2l86 123q13 -58 37 -92t61 -33q43 1 87.5 63t65.5 114q2 5 -4 7q-5 2 -7 -3q-14 -39 -50.5 -91t-57.5 -56q-61 -11 -81 165
l125 180q0 1 -2 2.5t-5 2t-4 -0.5l-116 -167q-13 136 -13 140q1 2 -19 13t-31 14q-9 5 -9 4t3 -4v-1zM84 293l13 41q0 3 2 5h-1q94 302 200 453q53 75 76 64q24 -11 -15 -111q-70 -178 -275 -452zM224 215q-28 9 -44.5 26.5t-18.5 37.5t3 39t16.5 32t24.5 15
q14 2 23.5 -12.5t9.5 -51t-14 -86.5z" />
    <glyph glyph-name="o_x" unicode="ox" horiz-adv-x="656" 
d="M400 387v1q-3 3 -3 4t9 -4q11 -3 31 -14t19 -13q0 -4 13 -140l116 167q1 1 4 0.5t5 -2t2 -2.5l-125 -180q20 -176 81 -165q21 4 57.5 56t50.5 91q2 5 7 3q6 -2 4 -7q-21 -52 -65.5 -114t-87.5 -63q-37 -1 -61 33t-37 92l-86 -123q-3 -4 -11 -1q-4 3 -1 6l94 134
q-20 91 -22 140q-18 -40 -44 -64.5t-50 -30t-41 -5t-26 4.5q-53 -106 -95.5 -157.5t-86.5 -47.5q-64 5 -70 85q-6 82 47 175q57 100 135 121l25 4q13 69 50 90q31 17 46 -16q19 -40 -2 -128q-10 -42 -42 -107q52 -20 100.5 23t55.5 126q2 21 4 28zM185 353q-40 -4 -91 -103
q-55 -106 -62 -190q-5 -65 32 -63q60 4 157 199q-27 13 -35.5 59.5t-0.5 97.5zM239 296q-2 18 -4 28t-8 19t-16 10q-13 -117 18 -138q38 79 46 124q16 77 -6 106q-16 20 -35 -11q-13 -23 -21 -65q34 -12 37 -72q0 -6 -5 -6q-6 0 -6 5z" />
    <glyph glyph-name="v_x" unicode="vx" horiz-adv-x="638" 
d="M382 387v1q-3 3 -3 4t9 -4q11 -3 31 -14t19 -13q0 -4 13 -140l116 167q1 1 4 0.5t5 -2t2 -2.5l-125 -180q20 -176 81 -165q21 4 57.5 56t50.5 91q2 5 7 3q6 -2 4 -7q-21 -52 -65.5 -114t-87.5 -63q-37 -1 -61 33t-37 92l-86 -123q-3 -4 -11 -1q-4 3 -1 6l94 134
q-22 106 -22 158q-1 -2 -8.5 -14t-13.5 -21t-18.5 -24.5t-24 -23.5t-29.5 -18.5t-36 -10.5t-43 2q-12 -35 -35 -77.5t-60 -80t-70 -36.5q-30 1 -39 52.5t0.5 127.5t18.5 127.5t18 86.5q0 3 16 -2.5t31.5 -13.5t14.5 -11q0 -2 -6 -26.5t-11.5 -51t-12.5 -62.5t-11.5 -68
t-7 -61t1 -47t12.5 -21q29 -10 75.5 64t50.5 106q-54 19 -67.5 75t5.5 104t49 52q49 6 57.5 -57t-25.5 -163q47 -26 105 29.5t69 146.5zM195 215q24 80 22 140t-34 57q-13 -1 -25.5 -19t-18 -44t-4.5 -53t16.5 -50t43.5 -31z" />
    <glyph glyph-name="w_x" unicode="wx" horiz-adv-x="777" 
d="M521 387v1q-3 3 -3 4t9 -4q11 -3 31 -14t19 -13q0 -4 13 -140l116 167q1 1 4 0.5t5 -2t2 -2.5l-125 -180q20 -176 81 -165q21 4 57.5 56t50.5 91q2 5 7 3q6 -2 4 -7q-21 -52 -65.5 -114t-87.5 -63q-37 -1 -61 33t-37 92l-86 -123q-3 -4 -11 -1q-4 3 -1 6l94 134
q-22 106 -22 158q-1 -2 -3 -7q-9 -23 -17.5 -37.5t-28 -37t-50 -30.5t-70.5 0q-10 -28 -25.5 -58t-37 -62t-49 -52t-54.5 -20q-75 2 -47 227q-31 -102 -58 -165t-52 -62q-30 1 -39.5 50.5t0.5 127.5t17.5 121t17.5 86q0 3 16 -2t31.5 -13.5t14.5 -11.5q-73 -330 -38 -325
q6 1 15.5 21t22 55.5t23 69t24 76.5t20.5 63q2 14 5 28t5 25t3 14q1 2 7.5 0.5t16 -5t18.5 -7.5t15 -8t6 -6t-4.5 -18t-9 -33.5t-10.5 -43t-10 -49.5t-8 -50.5t-4.5 -48.5t1.5 -41t9 -30.5t18 -14.5q35 -8 77 61t49 107q-54 19 -67.5 75t5.5 104t49 52q49 6 57.5 -57
t-25.5 -163q37 -8 66.5 2t49 34.5t31.5 52t19 61.5q2 21 4 28zM338 213q24 80 22 140t-34 57q-13 -1 -25.5 -19t-18 -44t-4.5 -53t16.5 -50t43.5 -31z" />
    <glyph glyph-name="b_z" unicode="bz" horiz-adv-x="706" 
d="M232 194q22 -10 49.5 -3t52 23.5t46.5 58t33 101.5q29 -37 57.5 -41t54.5 12q50 22 53 -18q3 -37 -30 -79q-9 -10 -18 -18q-32 -26 -67 -50.5t-80 -54t-66 -43.5q-5 -3 -1 -14q1 -4 2 -2l43 28q41 21 64 21t32 -24t8.5 -52.5t-7.5 -64.5q-87 -50 -153 -115t-99.5 -126.5
t-50 -121t-13.5 -103t20 -67.5q63 -91 162 32q87 106 153 301q30 89 42 160q4 27 6 58v1l22 12q70 42 102 73q45 43 71 100q2 5 -3 7q-5 3 -7 -3q-30 -58 -62.5 -88t-93.5 -66l-29 -17q-3 64 -30.5 99t-86.5 17l9 6q167 117 200 148q27 27 27.5 61t-24.5 46t-72 -9
q-3 -1 -13.5 -6.5t-14.5 -7.5t-13 -6t-14.5 -4.5t-13 -1t-14.5 1t-14 5.5q-10 5 -19 13.5t-13 13.5t-7.5 6t-6 -5.5t-6.5 -23.5q-7 -32 -20 -61.5t-34 -56.5t-47.5 -36t-60.5 1q23 66 18 105t-21 55t-36 13q-22 -4 -37.5 -27.5t-18.5 -52.5t16 -59.5t60 -44.5
q-21 -70 -68 -123.5t-73 -51.5q-13 1 -22.5 12.5t-13.5 32.5t-2.5 49t10.5 64.5t24 76.5q252 325 309 510q29 97 -9 109q-37 11 -110 -68q-122 -134 -216 -391q-4 -10 -7 -19q-95 -268 -45 -365q26 -51 83 -33q92 29 154 191zM450 -61q-110 -372 -209 -473q-45 -46 -68 -14
q-11 16 -12.5 49t6.5 76.5t30.5 94.5t55.5 100.5t85 97t115 81.5zM84 293l13 41q0 3 2 5h-1q94 302 200 453q53 75 76 64q24 -11 -15 -111q-70 -178 -275 -452zM224 215q-28 9 -44.5 26.5t-18.5 37.5t3 39t16.5 32t24.5 15q14 2 23.5 -12.5t9.5 -51t-14 -86.5z" />
    <glyph glyph-name="o_z" unicode="oz" horiz-adv-x="708" 
d="M233 191q-53 -106 -95.5 -157.5t-86.5 -47.5q-64 5 -70 85q-6 82 47 175q57 100 135 121l25 4q13 69 50 90q31 17 46 -16q19 -40 -2 -128q-10 -42 -42 -107q101 -32 161 154q7 20 11 25t7 1.5t12.5 -14t21.5 -16.5q7 -4 14 -5.5t14.5 -1t13 1t14.5 4.5t13 6t14.5 7.5
t13.5 6.5q47 21 72 9t24.5 -46t-27.5 -61q-33 -31 -200 -148l-9 -6q59 18 86.5 -17t30.5 -99l29 17q61 36 93.5 66t62.5 88q2 6 7 3q5 -2 3 -7q-26 -57 -71 -100q-32 -31 -102 -73l-22 -12v-1q-2 -31 -6 -58q-25 -149 -106 -316q-87 -178 -164 -209q-50 -20 -87 32
q-17 24 -20 67.5t13.5 103t50 121t99.5 126.5t153 115q7 36 7.5 64.5t-8.5 52.5t-32 24t-64 -21l-43 -28q-1 -2 -2 2q-4 11 1 14q21 14 66 43.5t80 54t67 50.5q37 30 47 77q9 44 -22 45q-12 1 -30 -7q-26 -16 -54.5 -12t-57.5 41q-30 -110 -77.5 -156t-104.5 -27zM452 -61
l3 12q-63 -34 -115 -81.5t-85 -97t-55.5 -100.5t-30.5 -94.5t-6.5 -76.5t12.5 -49q25 -35 75 21q96 109 202 466zM185 353q-40 -4 -91 -103q-55 -106 -62 -190q-5 -65 32 -63q60 4 157 199q-27 13 -35.5 59.5t-0.5 97.5zM239 296q-2 18 -4 28t-8 19t-16 10q-13 -117 18 -138
q38 79 46 124q16 77 -6 106q-16 20 -35 -11q-13 -23 -21 -65q34 -12 37 -72q0 -6 -5 -6q-6 0 -6 5z" />
    <glyph glyph-name="v_z" unicode="vz" horiz-adv-x="690" 
d="M203 194q-12 -35 -35 -77.5t-60 -80t-70 -36.5q-30 1 -39 52.5t0.5 127.5t18.5 127.5t18 86.5q0 3 16 -2.5t31.5 -13.5t14.5 -11q0 -2 -6 -26.5t-11.5 -51t-12.5 -62.5t-11.5 -68t-7 -61t1 -47t12.5 -21q29 -10 75.5 64t50.5 106q-54 19 -67.5 75t5.5 104t49 52
q49 6 57.5 -57t-25.5 -163q59 -17 110 25.5t65 127.5q3 17 5 23.5t6 5.5t8 -6t13.5 -13.5t19.5 -13.5q7 -4 14 -5.5t14.5 -1t13 1t14.5 4.5t13 6t14.5 7.5t13.5 6.5q47 21 72 9t24.5 -46t-27.5 -61q-33 -31 -200 -148l-9 -6q59 18 86.5 -17t30.5 -99l29 17q61 36 93.5 66
t62.5 88q2 6 7 3q5 -2 3 -7q-26 -57 -71 -100q-32 -31 -102 -73l-22 -12v-1q-2 -31 -6 -58q-25 -149 -106 -316q-87 -178 -164 -209q-50 -20 -87 32q-17 24 -20 67.5t13.5 103t50 121t99.5 126.5t153 115q7 36 7.5 64.5t-8.5 52.5t-32 24t-64 -21l-43 -28q-1 -2 -2 2
q-4 11 1 14q21 14 66 43.5t80 54t67 50.5q37 30 47 77q9 44 -22 45q-12 1 -30 -7q-26 -16 -54.5 -12t-57.5 41q-11 -52 -29.5 -90t-39.5 -56t-44.5 -29t-43.5 -9t-37 4zM434 -61l3 12q-63 -34 -115 -81.5t-85 -97t-55.5 -100.5t-30.5 -94.5t-6.5 -76.5t12.5 -49
q25 -35 75 21q96 109 202 466zM195 215q24 80 22 140t-34 57q-13 -1 -25.5 -19t-18 -44t-4.5 -53t16.5 -50t43.5 -31z" />
    <glyph glyph-name="w_z" unicode="wz" horiz-adv-x="831" 
d="M347 194q-10 -28 -25.5 -58t-37 -62t-49 -52t-54.5 -20q-75 2 -47 227q-31 -102 -58 -165t-52 -62q-30 1 -39.5 50.5t0.5 127.5t17.5 121t17.5 86q0 3 16 -2t31.5 -13.5t14.5 -11.5q-73 -330 -38 -325q6 1 15.5 21t22 55.5t23 69t24 76.5t20.5 63q2 14 5 28t5 25t3 14
q1 2 7.5 0.5t16 -5t18.5 -7.5t15 -8t6 -6t-4.5 -18t-9 -33.5t-10.5 -43t-10 -49.5t-8 -50.5t-4.5 -48.5t1.5 -41t9 -30.5t18 -14.5q35 -8 77 61t49 107q-54 19 -67.5 75t5.5 104t49 52q49 6 57.5 -57t-25.5 -163q125 -27 172 153q5 20 9 25t7.5 1.5t13.5 -14t22 -16.5
q7 -4 14 -5.5t14.5 -1t13 1t14.5 4.5t13 6t14.5 7.5t13.5 6.5q47 21 72 9t24.5 -46t-27.5 -61q-33 -31 -200 -148l-9 -6q59 18 86.5 -17t30.5 -99l29 17q61 36 93.5 66t62.5 88q2 6 7 3q5 -2 3 -7q-26 -57 -71 -100q-32 -31 -102 -73l-22 -12v-1q-2 -31 -6 -58
q-25 -149 -106 -316q-87 -178 -164 -209q-50 -20 -87 32q-17 24 -20 67.5t13.5 103t50 121t99.5 126.5t153 115q7 36 7.5 64.5t-8.5 52.5t-32 24t-64 -21l-43 -28q-1 -2 -2 2q-4 11 1 14q21 14 66 43.5t80 54t67 50.5q37 30 47 77q9 44 -22 45q-12 1 -30 -7
q-26 -16 -54.5 -12t-57.5 41q-1 -4 -4 -13q-10 -31 -16 -48.5t-21.5 -46t-33.5 -43t-48 -24t-68 -5.5zM575 -61l3 12q-63 -34 -115 -81.5t-85 -97t-55.5 -100.5t-30.5 -94.5t-6.5 -76.5t12.5 -49q25 -35 75 21q96 109 202 466zM339 215q24 80 22 140t-34 57
q-13 -1 -25.5 -19t-18 -44t-4.5 -53t16.5 -50t43.5 -31z" />
    <glyph glyph-name="T_h" unicode="Th" horiz-adv-x="964" 
d="M584 577q-26 6 -64 17t-66.5 19.5t-64.5 17t-66 13t-63.5 4.5t-62.5 -6q-97 -20 -129 -99q-27 -68 8 -130q37 -68 117 -69q34 -1 71 12q5 3 7 -3q2 -5 -3 -7q-65 -26 -125 -7.5t-93 82.5q-44 83 -7.5 163t129.5 97q56 11 127 -4.5t163 -48t130 -42.5q30 28 61.5 42.5
t47 13.5t24.5 -1q4 -1 3 -5q0 -1 -2 -1q-23 3 -48.5 -15t-42.5 -43q54 -11 102 -18q72 159 138.5 247t122.5 69q49 -17 55 -86q7 -81 -48 -154q-73 -94 -207 -99q-13 -18 -69.5 -178t-74.5 -215q138 244 203 238q39 -3 40.5 -46.5t-35.5 -151.5q-38 -110 -38 -133
q1 -27 35 -18q19 5 56 57.5t51 90.5q1 4 8 2q5 -2 3 -7q-12 -29 -31.5 -64.5t-55 -74t-66.5 -38.5q-36 1 -50 21.5t-8 63.5t34 109q58 139 23 153q-15 6 -61.5 -60t-89 -143t-61.5 -119q-3 -9 -7 -24q-2 -5 -34.5 9t-30.5 18q113 338 193 519q-24 4 -104 21
q-27 -45 -56 -130t-51.5 -171t-56 -179t-70 -163t-93.5 -114t-127 -41q-109 4 -153 85q-18 34 -19.5 69t10 63.5t33.5 51t48.5 33.5t57 9t57.5 -20q46 -31 50.5 -81.5t-46.5 -90.5q-7 -4 -10 3q-2 3 2 5q48 28 43.5 77t-46.5 76q-35 23 -73 14t-61.5 -40.5t-32.5 -74.5
t13 -89q33 -73 127 -79q59 -3 108.5 61t86 167t68 211t70 211t77.5 148zM800 547q128 3 193 104q44 69 35 137q-7 52 -42 55q-5 0 -11 -1q-51 -9 -175 -295z" />
    <glyph glyph-name=".notdef" horiz-adv-x="103" 
 />
    <glyph glyph-name=".null" horiz-adv-x="0" 
 />
    <glyph glyph-name="nonmarkingreturn" horiz-adv-x="333" 
 />
    <glyph glyph-name="space" unicode=" " horiz-adv-x="123" 
 />
    <glyph glyph-name="exclam" unicode="!" horiz-adv-x="256" 
d="M315 688l-207 -549q-2 -4 -6.5 -3.5t-9.5 4t-5 5.5l148 588q3 6 42.5 -17.5t37.5 -27.5zM110 62q1 -1 -6.5 -13t-16.5 -25.5t-10 -16.5q-14 -30 -29 -14q-16 17 -9 53q6 32 20 33.5t51 -17.5z" />
    <glyph glyph-name="quotedbl" unicode="&#x22;" horiz-adv-x="348" 
d="M179 576q1 0 -14.5 -36t-33 -74.5t-18.5 -40.5q-10 -21 -13 12q-4 58 8 121v2q6 32 20 33.5t51 -17.5zM278 576q1 0 -14.5 -36t-33 -74.5t-18.5 -40.5q-10 -21 -13 12q-4 58 8 121v2q6 32 20 33.5t51 -17.5z" />
    <glyph glyph-name="numbersign" unicode="#" horiz-adv-x="491" 
d="M86 139l-45 1q-8 -1 0 45q3 17 6 16l60 -1l84 237l-61 1q-8 -1 0 45q3 17 6 16l77 -1l73 207q2 4 16 -3t26 -17.5t11 -12.5l-62 -174l114 -1l74 208q2 4 16 -3t26 -17.5t11 -12.5l-62 -176h75q4 -3 2 -16.5t-7.5 -29t-8.5 -15.5h-83l-83 -237h91q4 -3 2 -16.5t-7.5 -29
t-8.5 -15.5h-99l-68 -193q-1 -4 -15.5 1.5t-28 14t-12.5 10.5l59 168l-113 1l-69 -195q-1 -4 -15.5 1.5t-28 14t-12.5 10.5zM256 437l-84 -237l114 -1l84 237z" />
    <glyph glyph-name="dollar" unicode="$" horiz-adv-x="595" 
d="M240 -71l-35 -121q0 -3 -11 1.5t-22 10.5t-11 7l34 117q-50 21 -91 74q-38 51 -52.5 101.5t-5 89t32 67t57.5 40.5t72 5q20 -4 19 -14q-1 -9 -12 -7q-40 3 -72.5 -23.5t-47 -67t-10 -89.5t31.5 -88q40 -53 86 -62l117 392q-1 0 -1 2l1 1q-37 46 -61 90.5t-34 82.5t-11 74
t9 64t25.5 52.5t38.5 39t48.5 25t55 9.5t57.5 -8l46 155q1 3 11.5 -2t20.5 -13t10 -10l-45 -148q41 -23 79 -68q64 -90 61 -161.5t-52.5 -113t-113.5 -28.5q-20 4 -19 14q1 9 13 7q40 -3 72 23.5t47 67t10.5 90t-32.5 87.5q-32 42 -71 58l-121 -406q97 -134 93.5 -231
t-68.5 -149.5t-149 -36.5zM329 396l108 365q-59 -2 -104 -57.5t-50.5 -136t46.5 -171.5zM353 311l-101 -341q53 11 91.5 63t44.5 124t-35 154z" />
    <glyph glyph-name="ampersand" unicode="&#x26;" horiz-adv-x="781" 
d="M719 94q8 5 7.5 9t-5 7t-7.5 2q-21 -11 -50 -18q52 63 75.5 127t19.5 115t-32 89.5t-72.5 54.5t-108.5 4.5t-134 -54.5q11 58 29 119q4 2 11.5 6t11.5 6q76 46 141 107.5t76 126.5q5 32 -9.5 52t-42.5 13q-53 -11 -102 -84.5t-80 -153.5q-15 -40 -20 -57q-24 -14 -42 -22
q-239 -116 -332 -284q-71 -129 -30 -237q35 -93 139 -122q98 -27 226 15q71 -27 144 -26t136 21t137 58q28 12 14 20q-7 4 -11 1q-42 -28 -99.5 -47t-127 -24t-134.5 16q103 37 195 134q42 8 77 26zM611 64q-50 -48 -91 -75t-96 -42q-99 43 -134.5 129.5t-6 173.5t105.5 140
q-15 -137 37 -224q61 -107 185 -102zM392 417q-69 -46 -113 -112.5t-54.5 -134.5t22.5 -133.5t109 -107.5q-143 -31 -213 52q-62 74 -36 196q31 143 165 261q64 56 146 98q-18 -56 -26 -119zM632 86q-93 -13 -158 49t-71 181q-1 37 5 88q55 33 108.5 38t92.5 -13.5
t65.5 -55.5t33 -82.5t-12.5 -100.5t-63 -104zM450 578z" />
    <glyph glyph-name="quotesingle" unicode="'" horiz-adv-x="257" 
d="M179 576q1 0 -14.5 -36t-33 -74.5t-18.5 -40.5q-10 -21 -13 12q-4 58 8 121v2q6 32 20 33.5t51 -17.5z" />
    <glyph glyph-name="parenleft" unicode="(" horiz-adv-x="228" 
d="M3 340q16 53 40.5 109.5t57 113t72 99t82 68t90.5 21t93 -44.5q12 -12 3 -17t-17 1q-37 24 -73 20.5t-67.5 -20.5t-61.5 -51t-54 -72t-45 -84t-36 -85.5t-26 -77.5q-20 -71 -30.5 -140t-10 -142.5t32 -122.5t92.5 -56q4 0 8.5 -3t6.5 -6.5t-1 -7t-12 -4.5
q-66 -4 -108.5 27t-59.5 83.5t-17.5 122t10.5 136.5t31 133z" />
    <glyph glyph-name="parenright" unicode=")" horiz-adv-x="368" 
d="M370 354q-16 -53 -40.5 -109.5t-57 -113t-72 -99t-82 -68t-90.5 -21t-93 44.5q-12 12 -3 17t17 -1q37 -24 73 -20.5t67.5 20.5t61.5 51t54 72t45 84t36 85.5t26 77.5q20 71 30.5 140t10 142.5t-32 122.5t-92.5 56q-4 0 -8.5 3t-6.5 6.5t1 7t12 4.5q66 4 108.5 -27
t59.5 -83.5t17.5 -122t-10.5 -136.5t-31 -133z" />
    <glyph glyph-name="asterisk" unicode="*" horiz-adv-x="509" 
d="M261 461l-30 -119q-2 -3 -12.5 -2.5t-22.5 3.5t-11 5l29 112l-99 -63q-2 -1 -4.5 3t-4 10.5t-2 13.5t-0.5 12.5t1 6.5l108 67l-81 79q-2 1 8 10t21 17t12 7l66 -66l27 99q2 6 23.5 -1t20.5 -12l-24 -86l103 64q2 2 7 -6q11 -24 9 -35l-115 -72l80 -78q2 -3 -9 -11
t-23 -14.5t-13 -4.5z" />
    <glyph glyph-name="plus" unicode="+" horiz-adv-x="526" 
d="M236 314l48 172q1 8 41 -11q16 -8 16 -11l-42 -150l161 -1q4 -3 2 -16.5t-7.5 -29t-8.5 -15.5l-163 1l-47 -170q-2 -4 -16 2.5t-27 15.5t-12 12l39 141l-161 1q-8 -1 0 45q3 17 6 16z" />
    <glyph glyph-name="comma" unicode="," horiz-adv-x="155" 
d="M100 79q1 -1 -12 -28t-27.5 -56.5t-15.5 -32.5q-9 -18 -8 -3q0 8 2.5 35t3.5 40q1 6 -7 15.5t-7 13.5q6 32 20 33.5t51 -17.5z" />
    <glyph glyph-name="hyphen" unicode="-" horiz-adv-x="561" 
d="M446 252l-387 3q-8 -1 0 45q3 17 6 16l395 -3q4 -3 2 -16.5t-7.5 -29t-8.5 -15.5z" />
    <glyph glyph-name="period" unicode="." horiz-adv-x="153" 
d="M122 62q1 -1 -6.5 -13t-16.5 -25.5t-10 -16.5q-14 -30 -29 -14q-16 17 -9 53q6 32 20 33.5t51 -17.5z" />
    <glyph glyph-name="slash" unicode="/" horiz-adv-x="286" 
d="M339 672l-257 -728q-1 -4 -15.5 1.5t-28 14t-12.5 10.5l260 735q2 4 16 -3t26 -17.5t11 -12.5z" />
    <glyph glyph-name="zero" unicode="0" horiz-adv-x="398" 
d="M286 574q-39 1 -80 -54.5t-69 -135t-45.5 -160t-14.5 -138.5t29 -61q77 -11 153 109q72 112 94 249q23 139 -29 179q-17 11 -38 12zM286 600q72 0 87 -100q16 -109 -36 -253q-56 -151 -144 -212q-43 -29 -87 -29q-68 0 -86 97q-20 107 28 249q51 154 142 216q46 32 96 32
z" />
    <glyph glyph-name="one" unicode="1" horiz-adv-x="209" 
d="M32 10q-10 -3 -35.5 -5.5t-31.5 4.5q35 88 104 274.5t88 235.5l-85 -42l-7 20q88 45 120 92l69 11q-15 -42 -102.5 -268.5t-119.5 -321.5z" />
    <glyph glyph-name="two" unicode="2" horiz-adv-x="384" 
d="M108 423q-2 116 77 160q61 35 129 9q65 -25 81 -86q25 -99 -105 -223q-20 -18 -43 -37q-34 -28 -76 -57t-61 -42.5t-38 -38.5t-30 -59q19 17 56.5 18t75 -6.5t72.5 -12.5t55.5 3t17.5 36q1 7 6 4q1 -1 1 -3v-11.5v-15t-1.5 -15t-4.5 -15.5t-9 -13t-14.5 -11t-22 -5.5
t-30 0t-39.5 8t-51 16.5q-36 14 -64 14t-39.5 -7t-24.5 -19.5t-15 -13.5t-1 6l5 15q3 9 4 14q9 31 20 55t32.5 50.5t32.5 38.5t47 47t50 49q131 131 120 228q-6 54 -52 71q-48 17 -88 -19q-51 -46 -41 -144q0 1 -2 2t-5 1.5t-6.5 1.5l-7 2t-6 1.5t-4 1.5t-1.5 2z" />
    <glyph glyph-name="three" unicode="3" horiz-adv-x="332" 
d="M90 445q0 32 10.5 65t42 61.5t78.5 29.5q55 1 90 -31t40.5 -75.5t-24 -89.5t-91.5 -69q68 -22 72 -105t-57 -157.5t-155 -75.5q-63 0 -92.5 33t-26.5 77t27 86q3 3 9 -4q1 -2 0 -3q-39 -71 -18.5 -122.5t99.5 -50.5q58 1 110 78q51 75 49 144q-3 72 -69 75q-14 0 -29 -2
q-13 -11 10 38q112 35 130 114q13 56 -24 99q-24 26 -52 27q-53 1 -85.5 -39t-33.5 -101q-5 -5 -10 -2z" />
    <glyph glyph-name="four" unicode="4" horiz-adv-x="297" 
d="M290 598q0 1 35.5 1t36.5 -1q-2 -4 -59 -76.5t-122 -158.5t-87 -122q122 39 137 45q5 14 22.5 56.5t24.5 62.5q1 2 13.5 3t24.5 2t11 1q-1 -4 -28.5 -92.5t-58 -186t-40.5 -126.5q0 -1 -15.5 -2.5t-28.5 -1.5t-14 2l82 256q-67 -24 -224 -63q12 15 45 63t96 136t149 202z
" />
    <glyph glyph-name="five" unicode="5" horiz-adv-x="383" 
d="M458 549q-6 0 -56 -2t-82 -1.5t-59 5.5q-5 -17 -27.5 -78.5t-33.5 -92.5q96 55 150 -12q44 -57 34 -157q-12 -109 -81 -168q-51 -44 -122 -42q-37 1 -62.5 22.5t-36 52t-11 65t10.5 64.5q0 3 7 -3q4 -3 3 -5q-9 -28 -9.5 -56.5t7.5 -55t31.5 -44.5t59.5 -22q62 -6 102 85
q39 87 30 181q-7 90 -57 99q-31 5 -75 -28q-4 -3 -16 -13q-47 -36 -46 -26q5 14 31.5 77t42.5 109t18 72q2 17 6.5 20t22.5 -2q34 -10 128 -5t119 13q-2 -11 -11 -31.5t-18 -20.5z" />
    <glyph glyph-name="six" unicode="6" horiz-adv-x="384" 
d="M330 432q32 96 -7 126q-32 25 -85 -15q-78 -57 -117 -196q-6 -19 -10 -40q18 30 48.5 46t57.5 12q80 -11 87.5 -104t-50.5 -179.5t-136 -82.5q-45 2 -71 48t-27 113t15 144q48 198 154 269q68 46 124 17q50 -25 48 -91q-1 -36 -20 -76q0 -1 -3 1.5t-6 5.5zM118 11
q37 -7 76 76q43 91 47 183q4 77 -30 80q-51 5 -104 -66q-15 -95 -15 -181.5t26 -91.5z" />
    <glyph glyph-name="seven" unicode="7" horiz-adv-x="209" 
d="M64 10q-10 -3 -35.5 -5.5t-31.5 4.5q18 61 50.5 124.5t67.5 115t68.5 102.5t60 105.5t36.5 104.5l-225 -32l32 71q15 0 70 -3t109.5 -3t98.5 6q-16 -67 -64.5 -155t-97.5 -158t-91 -148t-48 -129z" />
    <glyph glyph-name="eight" unicode="8" horiz-adv-x="340" 
d="M191 329q-28 40 -34.5 89.5t6.5 90.5t46 68t79 24q52 -3 71.5 -44.5t9 -94.5t-37 -103.5t-57.5 -72.5q29 -61 31 -122.5t-31 -109.5t-89 -54q-98 -10 -124 66q-22 67 20 152q40 79 110 111zM197 315q-86 -44 -114 -137q-24 -78 9 -130q29 -45 86 -34q41 8 52.5 72
t-0.5 132.5t-33 96.5zM296 584q-22 2 -40.5 -15.5t-27.5 -48t-10.5 -66.5t10 -76t34.5 -73q52 33 77 99.5t13 121t-56 58.5z" />
    <glyph glyph-name="nine" unicode="9" horiz-adv-x="401" 
d="M53 163q-32 -96 7 -126q32 -25 85 15q78 57 117 196q6 19 10 40q-18 -30 -48.5 -46t-57.5 -12q-80 11 -87.5 104t50.5 179.5t136 82.5q45 -2 71 -48t27 -113t-15 -144q-48 -198 -154 -269q-68 -46 -124 -17q-50 25 -48 91q1 36 20 76q0 1 3 -1.5t5 -4.5zM265 584
q-37 7 -76 -76q-43 -91 -47 -183q-4 -77 30 -80q51 -5 104 66q15 95 15 181.5t-26 91.5z" />
    <glyph glyph-name="colon" unicode=":" horiz-adv-x="185" 
d="M122 62q1 -1 -6.5 -13t-16.5 -25.5t-10 -16.5q-14 -30 -29 -14q-16 17 -9 53q6 32 20 33.5t51 -17.5zM238 415q1 -1 -6.5 -13t-16.5 -25.5t-10 -16.5q-14 -30 -29 -14q-16 17 -9 53q6 32 20 33.5t51 -17.5z" />
    <glyph glyph-name="semicolon" unicode=";" horiz-adv-x="171" 
d="M238 415q1 -1 -6.5 -13t-16.5 -25.5t-10 -16.5q-14 -30 -29 -14q-16 17 -9 53q6 32 20 33.5t51 -17.5zM100 79q1 -1 -12 -28t-27.5 -56.5t-15.5 -32.5q-9 -18 -8 -3q0 8 2.5 35t3.5 40q1 6 -7 15.5t-7 13.5q6 32 20 33.5t51 -17.5z" />
    <glyph glyph-name="less" unicode="&#x3c;" horiz-adv-x="384" 
d="M96 300l233 -365q0 -3 -15 -13t-30.5 -17t-16.5 -3l-246 390q-12 8 5 17l459 390q5 6 26 -11.5t18 -21.5z" />
    <glyph glyph-name="equal" unicode="=" horiz-adv-x="593" 
d="M446 252l-387 3q-8 -1 0 45q3 17 6 16l395 -3q4 -3 2 -16.5t-7.5 -29t-8.5 -15.5zM535 388l-387 3q-8 -1 0 45q3 17 6 16l395 -3q4 -3 2 -16.5t-7.5 -29t-8.5 -15.5z" />
    <glyph glyph-name="greater" unicode="&#x3e;" horiz-adv-x="345" 
d="M-192 -65l423 365l-242 366q0 2 14.5 12.5t30 17.5t16.5 3l255 -390q11 -9 -4 -17l-450 -390q-3 -4 -14.5 3t-21 17.5t-7.5 12.5z" />
    <glyph glyph-name="question" unicode="?" horiz-adv-x="389" 
d="M111 118l-61 27q2 60 25 114.5t58 95t70.5 73.5t70.5 66t50 56q55 76 31 157.5t-89 101.5t-133 -29q-43 -43 -44 -101.5t34.5 -96t88.5 -27.5q49 10 71 52t-10 86q-3 5 3 8q5 2 8 -3q31 -56 6.5 -101t-78.5 -55q-44 -8 -82 14.5t-56.5 60t-13 85t41.5 83.5q45 45 98 59
t98.5 1.5t81 -45.5t51 -77t3 -98.5t-57.5 -103.5q-26 -29 -68.5 -63t-73 -59.5t-61 -63t-46.5 -91.5t-16 -126zM85 62q-37 19 -51 17.5t-20 -33.5q-7 -36 9 -53q15 -16 29 14q1 3 10 16.5t16.5 25.5t6.5 13z" />
    <glyph glyph-name="at" unicode="@" horiz-adv-x="590" 
d="M371 356q-2 28 -10 36q-33 36 -84 -42q-47 -73 -63 -157q-14 -67 14 -68q46 -4 106 111q7 28 21 65t15 41q1 2 5.5 1t11.5 -4t13 -6.5t10.5 -7t3.5 -4.5l-35 -102q-12 -39 -11 -64.5t21 -20.5q53 16 92 85.5t52 149.5t-3 153.5t-62 97.5q-80 41 -194.5 -56.5
t-173.5 -263.5q-76 -213 -4 -320q47 -71 136 -67q88 5 153 79q30 34 48 77q15 11 23 7t1 -21q-50 -108 -151 -150q-99 -40 -184 3q-96 49 -110 179q-13 108 38 252q38 108 103 191.5t149 121.5t174 -8q47 -25 68 -89t12 -139.5t-33 -146.5t-68 -117t-93 -44q-22 -1 -31 27
t-3 67l-2 -1q-11 -18 -19 -30t-23.5 -29t-34.5 -25.5t-40 -8.5q-27 0 -39.5 22t-10 57.5t18.5 77.5q21 58 58.5 101.5t76.5 51.5q33 6 50.5 -11t16.5 -51q0 -5 -4 -5q-5 0 -5 5z" />
    <glyph glyph-name="A" unicode="A" horiz-adv-x="1021" 
d="M204 -123q34 16 40.5 54t-17 72t-65.5 39q-70 9 -109 -54.5t-14.5 -136.5t108.5 -88q90 -15 207 39q180 85 325 290q-52 7 -78.5 10t-71 3t-71 -9t-55.5 -30.5t-47 -56.5q-2 -6 -7 -4q-5 4 -4 8q17 34 39.5 57.5t53 35.5t56.5 18t67 4.5t65.5 -4t69.5 -8.5q26 36 55 86
q33 55 85 153q4 85 26.5 170t55 136.5t63.5 39.5q35 -13 -78 -239q-9 -48 -12 -143.5t3 -203.5q56 16 81 71q1 3 4.5 3.5t5 -2t0.5 -5.5q-27 -70 -90 -91q8 -135 32.5 -221.5t67.5 -84.5q74 3 163 189q1 2 3 3t4 0q5 -2 3 -7q-93 -203 -174 -204q-40 -1 -70.5 25.5t-48 74
t-27 99t-14.5 114.5q-49 -2 -141 11q-155 -220 -348 -305q-113 -48 -202 -34q-102 16 -133 98.5t16.5 152t137.5 55.5q48 -7 73.5 -46.5t17 -82.5t-46.5 -61q-5 -2 -7 3t3 7zM832 106q-7 121 3 224q-19 -35 -45.5 -82.5t-28.5 -51.5q-30 -51 -51 -81q74 -10 122 -9zM903 488
q44 90 61 141q18 54 10 54q-9 -2 -31 -52q-19 -44 -40 -143z" />
    <glyph glyph-name="B" unicode="B" horiz-adv-x="853" 
d="M342 352q-32 -130 -141 -161q-118 -32 -172 43q-47 66 -20 173q31 121 136 202q68 53 155 75q81 21 161 12q89 -9 152 -43t90.5 -82t30 -101.5t-26.5 -106t-83 -92.5q66 -23 104 -70t42 -102.5t-13.5 -110.5t-63 -100t-106.5 -65q-48 -19 -100 -16t-92.5 16t-92.5 40
q-40 -110 -119 -123q-58 -10 -103 33q-43 41 -28 88q1 1 1 2q14 39 54 49t84 3q30 -6 59 -18l235 690q1 0 18.5 3t34.5 6l17 3l-249 -725q75 -39 135.5 -46t140.5 23q69 30 105.5 119t17 177t-93.5 114q-81 -61 -130 -50q-27 7 -25 31q2 26 39 38q43 15 110 -3q32 25 50 64
t19 81.5t-12 87.5t-43 81t-74 62t-105.5 31.5t-136.5 -11.5q-159 -39 -230 -167q-54 -98 -32 -194q18 -82 80 -104q29 -11 64 -4q114 22 146 150q2 6 7 4q6 0 4 -6zM246 -113q-30 14 -60 18.5t-59 -7t-41 -43.5q-17 -46 12 -75q30 -29 72 -5q46 27 76 112zM596 267
q-81 21 -117 -9q-19 -16 -7 -28q8 -6 22 -7.5t41.5 10t60.5 34.5z" />
    <glyph glyph-name="C" unicode="C" horiz-adv-x="685" 
d="M296 684q-140 -17 -215 -114q-58 -75 -45 -149q13 -69 82 -87q29 -8 66 -5q98 215 262 315q108 66 192 54q59 -9 64 -53q5 -36 -33 -84q-55 -70 -185 -143.5t-240 -100.5q-24 -51 -44.5 -138.5t-28.5 -181.5t23 -160t103 -64q90 3 163.5 70t128.5 163q3 5 8 3q5 -3 2 -8
q-138 -239 -300 -249q-72 -5 -117 32.5t-59.5 99t-11.5 138t20.5 150t43.5 134.5q-121 -7 -160 69q-34 65 10 150q48 94 159 141q52 22 111 29q4 0 6 -5q0 -6 -5 -6zM254 338q110 29 232 96.5t174 133.5q50 64 17 93q-33 28 -113 -2q-119 -44 -223 -180q-49 -64 -87 -141z
" />
    <glyph glyph-name="D" unicode="D" horiz-adv-x="889" 
d="M342 350q-16 -69 -58.5 -110t-99.5 -52q-66 -14 -113 10q-60 31 -69 115q-10 82 31 162t116 137q97 73 215 84q249 23 365 -144q90 -128 75 -321q-14 -172 -101 -296q-90 -130 -213 -128h-2q-80 3 -186 57q-25 -67 -65.5 -99t-77.5 -28t-67.5 27.5t-39.5 58.5
q-9 33 11.5 60.5t67.5 35.5t120 -21l240 682q2 0 5.5 1t12.5 2.5t17 3t16.5 2.5t13.5 1l4 1l-253 -717q90 -44 158 -41q107 4 182 134q76 130 80 306q4 193 -86 308q-98 125 -280 103q-157 -20 -245 -118q-45 -50 -66.5 -114t-10.5 -131q11 -65 51.5 -95t94.5 -21
q51 8 92 47t55 104q2 7 8 1q3 -3 2 -7zM246 -113q-62 29 -98.5 18.5t-52 -35t-13.5 -53.5q2 -36 34 -49q44 -17 86 36q25 31 44 83z" />
    <glyph glyph-name="E" unicode="E" horiz-adv-x="665" 
d="M296 677q-85 -11 -151 -53t-95 -118q-16 -46 -12.5 -81t26 -59t56 -35.5t77 -9t88.5 18.5q-32 90 29.5 182t162.5 143q100 43 158 24t43 -90.5t-106 -138.5q-105 -77 -262 -129q9 -25 28 -42q108 25 143 -8q18 -18 0 -35q-26 -25 -83 -5q-10 3 -20 8q-22 9 -40 22
q-56 -20 -97 -85t-62 -151q-14 -49 -11 -92t14.5 -80.5t37.5 -61t57.5 -33t74.5 3.5t89 48q92 71 148 180q3 5 8 3q6 -2 2 -8q-63 -120 -152 -189q-52 -40 -103 -55.5t-91 -6.5t-74 34t-52 65.5t-25 89t8 104.5q20 84 78 153.5t133 94.5q-21 21 -28 38h-1q-52 -21 -111 -24
t-107.5 15.5t-66.5 64t12 122.5q32 79 107.5 128.5t168.5 58.5q6 0 6 -5q1 -6 -5 -6zM305 347q147 48 251 122q78 55 90 118q10 49 -27 62q-41 14 -114 -30q-34 -21 -68 -48.5t-69 -64.5t-53 -79t-10 -80zM354 277h1q29 -17 54.5 -24t39 -4.5t19.5 9.5q10 13 -13 23
q-34 14 -101 -4z" />
    <glyph glyph-name="F" unicode="F" horiz-adv-x="636" 
d="M194 219q23 36 50 58.5t50.5 32t55 9t53 -5t54.5 -13.5q58 195 128 274q-26 6 -64 17t-66.5 19.5t-65 17t-66.5 13t-63.5 4.5t-62.5 -6q-97 -20 -129 -99q-27 -68 8 -130q37 -68 117 -69q34 -1 71 12q5 3 7 -3q2 -5 -3 -7q-65 -26 -125 -7.5t-93 82.5q-44 83 -7.5 163
t129.5 97q56 11 127 -4.5t163 -48t130 -42.5q115 125 230 116q68 -5 100 -52q29 -43 -1 -78q-48 -55 -204 -27q-41 7 -89 21q-55 -90 -108 -279q44 -14 88 -0.5t74 64.5q2 3 4.5 3t4.5 -3t1 -6q-23 -45 -53.5 -67t-61.5 -22.5t-66 6.5q-7 -24 -20 -71t-22 -81t-26 -82
t-33.5 -82t-42 -70t-53.5 -58.5t-67 -36.5t-84 -13q-96 3 -142 85q-18 34 -19.5 69t10 63.5t33.5 51t48.5 33.5t57 9t57.5 -20q46 -31 50.5 -81.5t-46.5 -90.5q-7 -4 -10 3q-2 3 2 5q48 28 43.5 77t-46.5 76q-35 23 -73 14t-61.5 -40.5t-32.5 -74.5t13 -89q35 -78 119 -78
q44 -1 82.5 27.5t64 70.5t49 102t36.5 110t28.5 107t23.5 81q-32 10 -52 14.5t-49.5 6t-51.5 -5.5t-47 -25.5t-46 -50.5q-3 -5 -8 -3q-5 3 -2 8zM634 573q197 -54 258 -4q33 27 8 66q-14 22 -42.5 34.5t-64.5 12t-79 -28t-80 -80.5z" />
    <glyph glyph-name="G" unicode="G" horiz-adv-x="738" 
d="M647 370l68 15q-9 -27 -68.5 -191.5t-92.5 -264.5q-35 -106 -80.5 -183t-94 -117.5t-91.5 -59.5t-86 -21q-88 -4 -138.5 36t-60.5 102q-7 42 8.5 81.5t45 62t67 30t74.5 -13.5q51 -28 59 -82.5t-46 -96.5q-5 -4 -10 2q-2 4 2 7q50 28 43.5 80.5t-53.5 77.5
q-46 19 -83.5 2.5t-59.5 -59.5t-17 -91q7 -57 48 -93.5t119 -32.5q71 3 151.5 97.5t138.5 271.5q32 94 48 140q-55 -60 -114.5 -98t-110.5 -48.5t-90 8.5t-57 64t-6.5 126t56.5 187q-121 -7 -160 69q-34 65 10 150q49 94 160 141q52 22 110 29q6 0 6 -5q0 -6 -5 -6
q-140 -17 -215 -114q-58 -75 -44 -149q12 -69 82 -88q29 -7 65 -4q98 215 262 315q108 66 192 54q59 -9 64 -53q5 -36 -33 -84q-55 -70 -184.5 -143.5t-239.5 -100.5q-48 -99 -64.5 -176t-4.5 -119.5t44.5 -61t77.5 -8.5t100.5 46t107.5 95q65 185 100 275zM295 340
q110 29 232 96.5t174 133.5q50 64 17 93q-33 28 -113 -2q-119 -44 -223 -180q-49 -64 -87 -141z" />
    <glyph glyph-name="H" unicode="H" horiz-adv-x="1051" 
d="M557 359q-58 -86 -125 -93q-58 -6 -86.5 36t-11.5 101q13 46 48 81.5t79 58.5t88.5 43.5t86 47.5t63.5 59l69 12q-16 -48 -88.5 -233t-103.5 -270q33 -2 123 -13t132 -9q44 153 109 315.5t88 197.5l69 12q-36 -75 -95 -223t-102 -288q45 19 66 66q2 5 7.5 3t3.5 -7
q-26 -67 -85 -89q-25 -82 -39 -149t-18.5 -123t9 -86t45.5 -29q76 3 163 190q4 4 8 2q5 -2 3 -7q-93 -195 -174 -204q-50 -5 -76.5 24t-29.5 87t7.5 126.5t33.5 154.5q-45 -2 -137.5 10.5t-118.5 14.5q-8 -22 -11 -32q-37 -107 -83.5 -184t-95 -117.5t-91.5 -59.5t-86 -21
q-60 -3 -105 16.5t-66 52t-27.5 70t4.5 73t35 57.5q70 64 142 35q51 -21 68 -72q20 -61 -31 -105q-5 -4 -11 -8q-5 -4 -9 3q-2 3 1 5q51 26 43 81q-6 48 -48 74q-59 36 -123 -18q-4 -3 -7 -6q-23 -21 -31.5 -63t1.5 -84.5t52.5 -73t110.5 -26.5q70 3 150.5 98t139.5 272
q3 11 11 33q-108 -8 -154 -95q-2 -6 -7 -3q-6 2 -3 7q50 102 172 114q23 65 162 423q-30 -20 -84 -42t-93 -38t-76.5 -54.5t-51.5 -95.5q-10 -43 8 -72.5t63 -33.5q53 -5 110 76q2 4 7 2q6 -2 3 -7z" />
    <glyph glyph-name="I" unicode="I" horiz-adv-x="659" 
d="M557 354q-58 -85 -125 -92q-58 -6 -86.5 36t-11.5 100q13 47 48 82.5t79 58.5t88.5 43.5t86 47.5t63.5 59l69 11q-15 -43 -97 -253t-114 -305q-19 -56 -42.5 -106.5t-59 -104t-76 -91.5t-95.5 -60.5t-115 -19.5q-64 4 -105 35t-56 77q-11 41 -5.5 77.5t28 64t50.5 43.5
t62.5 15t64.5 -22q45 -31 49 -81.5t-47 -90.5q-4 -4 -9 2q-3 4 1 7q47 27 44 75t-44 76q-33 23 -70 17t-61.5 -34.5t-36 -69t4.5 -86.5q13 -38 45.5 -64t83.5 -30q49 -4 95 21.5t79.5 65t64.5 94.5t49.5 99t33.5 90q34 105 181 478q-30 -20 -84 -41.5t-93 -37.5t-76.5 -54.5
t-51.5 -95.5q-10 -43 8 -72.5t63 -33.5q54 -5 109 75q3 5 8 3t3 -8z" />
    <glyph glyph-name="J" unicode="J" horiz-adv-x="747" 
d="M779 688l70 11q-15 -42 -137 -360t-154 -413q-19 -56 -42 -106t-58.5 -103.5t-75 -91t-94 -61t-114.5 -21.5q-70 3 -112 37t-56 85q-15 55 8 105.5t70.5 73t98.5 3.5q37 -14 58.5 -47t14.5 -71.5t-45 -65.5q-7 -4 -10 3q-2 3 2 5q35 18 42 52.5t-12 66t-52 43.5
q-65 24 -111.5 -30.5t-36.5 -125.5q8 -49 41.5 -83.5t95.5 -38.5q60 -4 114.5 33t94.5 101t66 120.5t45 115.5q50 148 258 681q-36 -28 -99.5 -62t-114.5 -59t-100 -62.5t-70 -78.5q-26 -49 -10 -90t68 -49q53 -9 109 70q2 5 7 3t3 -8q-58 -85 -125 -92q-69 -7 -95 51
t15 127q24 42 87.5 86t127.5 76.5t131 78.5t97 91z" />
    <glyph glyph-name="K" unicode="K" horiz-adv-x="987" 
d="M557 358q-58 -85 -125 -92q-58 -6 -86.5 36t-11.5 101q13 46 48 81.5t79 58.5t88.5 43.5t86 47.5t63.5 59l69 12q-16 -47 -88 -231t-103 -270q15 -27 27 -66l3 -7q47 5 92.5 43t82.5 94.5t73.5 123t72 132t72 119.5t80 87.5t89.5 32.5l1 -4q-30 -4 -61.5 -39t-61.5 -88
t-62.5 -117t-71.5 -129.5t-81.5 -121.5t-99.5 -97.5t-119 -53.5q22 -59 39 -98.5t45.5 -90.5t64 -81t76.5 -36q53 -8 93.5 24t57.5 100q0 5 6 5q5 -2 5 -7q-12 -72 -58 -122t-106 -51q-23 0 -44.5 7.5t-40 24t-33.5 33t-29.5 44.5t-24.5 48t-22 53t-18.5 51t-17 51.5
t-13.5 43.5q-24 -2 -47 3q-20 -54 -44 -101.5t-59.5 -97t-75 -83t-92 -53.5t-110.5 -16q-63 4 -102.5 35.5t-54.5 77.5q-11 40 -5.5 77t28 64t50.5 43t62.5 15t64.5 -22q45 -31 49 -81.5t-47 -89.5q-6 -4 -9 3q-2 3 1 5q47 27 44 75t-44 76q-33 23 -70 17t-61 -34.5t-36 -69
t4 -86.5q29 -85 127 -94q49 -4 94.5 20.5t79 63t64.5 92t49 97.5t34 91q-13 8 -29 28q-16 22 -16.5 47t12.5 40.5t33 21t44 -12.5q20 54 140 361q-30 -20 -84 -42t-93 -38t-76.5 -54.5t-51.5 -95.5q-10 -43 8 -72.5t63 -33.5q53 -5 110 75q2 5 7 3t3 -8zM491 151
q19 54 32 91q-24 21 -44.5 12t-23 -33t11.5 -47q11 -15 24 -23zM568 177q-10 -27 -11 -31q-1 -3 -3 -8.5t-3 -7.5q16 -3 36 -1q0 3 -2 5q-13 36 -17 43z" />
    <glyph glyph-name="L" unicode="L" horiz-adv-x="604" 
d="M496 703q-164 -27 -234 -128q-52 -75 -27 -148q25 -69 106 -87q55 -12 126 6q73 239 198 325q79 53 141 26q51 -21 53 -77q4 -80 -92 -160q-86 -70 -234 -120q-11 -36 -39 -141.5t-52.5 -173t-57.5 -118.5q11 -6 53.5 -29.5t56 -29t44 -18t54.5 -15t51 -0.5
q64 5 97.5 38.5t53.5 98.5q2 6 7 4q6 -2 4 -7q-45 -143 -150 -160q-69 -11 -136.5 10.5t-163.5 71.5q-82 -106 -196 -108q-82 -2 -130 47t-18 108q9 16 24 32q22 24 61 34.5t102.5 -1t133.5 -50.5q31 50 51.5 112t41 150t34.5 134q-136 -34 -214 30q-61 51 -51 131
q11 93 110 157q77 49 190 67q5 2 7 -4q0 -5 -5 -7zM538 361q138 46 215.5 109t89.5 120q12 54 -26 78q-44 27 -106 -15q-107 -73 -173 -292zM300 -104q-61 36 -114 50.5t-86 10t-54 -22.5q-49 -43 -26 -90q21 -43 79 -51q88 -13 172 70q15 15 29 33z" />
    <glyph glyph-name="M" unicode="M" horiz-adv-x="1164" 
d="M202 -123q60 38 38 103q-15 44 -54 58t-78.5 -3t-58.5 -56q-12 -25 -15 -57.5t5.5 -66t40 -60t82.5 -33.5q97 -12 206 48q236 133 418 562q-13 191 32 290q21 48 40 40q25 -11 13 -93q-9 -66 -41 -154q1 -40 5.5 -85t11.5 -100t10 -84q21 33 62.5 89t54.5 75
q56 210 136 309q41 50 57 35q21 -17 -22 -106q-32 -67 -94 -152q-14 -46 -30.5 -142t-28.5 -214t7.5 -205.5t76.5 -90.5q22 -1 48 20.5t49 56.5t38 62.5t27 53.5q3 5 8 3q5 -3 3 -8q-38 -75 -56 -105q-57 -94 -113 -100q-62 -5 -97.5 44t-43 121t-3 157t15 145t19.5 93
q-15 -21 -33.5 -45t-27 -36t-22 -32t-29.5 -46q12 -153 -31 -216q-23 -32 -42 -17q-26 19 -10 85q10 44 39 96q-2 32 -12.5 115t-12.5 122q-71 -178 -184.5 -334.5t-245.5 -225.5q-94 -50 -195 -44q-100 6 -141.5 78t-8.5 152q21 51 72.5 72.5t101 1.5t64.5 -76
q21 -77 -45 -109q-5 -3 -8 2q-1 1 -0.5 3.5t2.5 3.5zM818 101q-48 -89 -36 -140q5 -22 17 -14q7 5 13 23q14 43 6 131zM826 477q45 140 37 192q-3 19 -12 1q-6 -13 -12 -42q-12 -55 -13 -151zM1063 474q89 136 92 177q1 15 -15 -4q-5 -6 -10 -14q-38 -58 -67 -159z" />
    <glyph glyph-name="N" unicode="N" horiz-adv-x="1114" 
d="M202 -131q44 31 39.5 79.5t-37.5 69.5q-36 25 -80.5 13t-72.5 -57q-19 -31 -20.5 -74.5t15.5 -72.5q23 -41 73.5 -58.5t105 -12.5t101.5 26q162 73 295.5 234.5t209.5 354.5q-13 120 -5 193.5t24.5 105.5t36.5 30q20 -1 31.5 -31t5.5 -86t-35 -116q0 -113 53 -401
q20 69 45 137.5t66 153.5t85.5 151.5t105.5 120t125 71.5q5 2 7 -4q0 -7 -4 -8q-62 -18 -122 -73.5t-105 -125.5t-85.5 -156.5t-66 -158.5t-44.5 -139q51 -192 14 -265q-18 -36 -44 -21q-31 18 -33 80q-1 47 20 102q-54 212 -71 399q-69 -174 -208.5 -333t-298.5 -228
q-57 -24 -116 -29.5t-110.5 13.5t-77.5 61q-23 38 -24 86t27 92q23 33 58.5 47.5t69 10.5t59.5 -22q39 -28 41.5 -82.5t-45.5 -85.5q-4 -4 -9 0q-3 3 1 9zM882 496q18 47 24 87.5t2.5 60.5t-10.5 22q-4 1 -8 -5t-7 -19t-4.5 -32.5t-1 -49t4.5 -64.5zM914 -85
q-12 -43 -13 -76.5t4 -47.5t12 -19q9 -5 12 12q6 35 -15 131z" />
    <glyph glyph-name="O" unicode="O" horiz-adv-x="812" 
d="M309 676q-130 -15 -210 -126q-67 -95 -62 -201q5 -105 83 -145q53 -28 131 -17q13 48 39.5 111.5t68 137.5t88 134.5t104 98t112.5 31.5q32 -3 48 -25t15 -50t-7 -56q41 -23 54 -95q13 -79 -11 -193.5t-73 -223.5t-125.5 -195.5t-157.5 -107.5q-48 -14 -82.5 -4.5
t-56.5 29.5t-34.5 55t-16 70.5t-1.5 76.5q5 90 30 184q-131 -17 -199 71q-59 77 -42 186q18 120 118 194q77 58 186 71q6 2 6 -5q2 -6 -5 -6zM310 179q-9 -35 -17 -76.5t-14 -93.5t-3 -97.5t14.5 -82.5t40.5 -53t73 -5q79 21 153.5 105t122 189.5t71 217.5t10.5 189
q-10 64 -45 86q-43 -138 -150 -233t-256 -146zM317 203q51 13 107 42.5t112 74t102 108.5t68 135q-35 14 -80 -6.5t-84 -60.5q-74 -76 -125 -199q-2 -5 -7 -3q-6 2 -3 7q57 139 141 217q40 37 83.5 53t77.5 3q24 97 -44 107q-44 6 -102.5 -52t-108 -142t-87.5 -162.5
t-50 -121.5z" />
    <glyph glyph-name="P" unicode="P" horiz-adv-x="928" 
d="M474 356q-11 -58 -46.5 -99t-78.5 -57.5t-88 -13t-76 27.5q-68 53 -48 186q21 130 134.5 213t257.5 89q79 3 154.5 -19t134 -65.5t87.5 -113.5t13 -154q-22 -116 -105 -200.5t-186 -100.5q-55 -9 -99 4q-27 -63 -60 -115t-77.5 -98t-102 -70t-122.5 -19q-102 7 -145 85
q-18 34 -19.5 69t10 63.5t33.5 51t48.5 33.5t57 9t57.5 -20q46 -31 50.5 -81.5t-46.5 -90.5q-7 -4 -10 3q-2 3 2 5q48 28 43.5 77t-46.5 76q-35 23 -73 14t-61.5 -40.5t-32.5 -74.5t13 -89q31 -70 118 -78q43 -4 84 15.5t72.5 51.5t62 79.5t50 87t38.5 86.5q-10 9 -17 18
q-19 29 -17 53t20 41q27 23 66 21l143 374l69 11q-16 -48 -73 -191.5t-84 -217.5q32 -30 29 -90q0 -5 -6 -5q-5 2 -5 7q1 43 -24 70q-3 -7 -8 -20.5t-7 -20.5q-18 -51 -23 -63q43 -6 94 13t97 55.5t81.5 95t44.5 124.5q14 94 -27 172.5t-120 121t-175 38.5q-126 -5 -227 -80
t-130 -187q-27 -102 29.5 -167t139.5 -40t121 143q2 6 7 4q6 -2 4 -7zM491 132l26 67q-31 2 -50 -17q-13 -13 -15 -32.5t12 -41.5q8 -10 12 -14q10 24 15 38z" />
    <glyph glyph-name="Q" unicode="Q" horiz-adv-x="768" 
d="M309 795q-130 -15 -210 -126q-67 -95 -62 -201q5 -105 83 -145q53 -28 131 -17q13 48 39.5 111.5t68 137.5t88 134.5t104 98t112.5 31.5q32 -3 48 -25t15 -50t-7 -56q41 -23 54 -95q13 -79 -11 -193.5t-73 -223.5t-125.5 -195.5t-157.5 -107.5q-48 -14 -82.5 -4.5
t-56.5 29.5t-34.5 55t-16 70.5t-1.5 76.5q5 90 30 184q-131 -17 -199 71q-59 77 -42 186q18 120 118 194q77 58 186 71q6 2 6 -5q2 -6 -5 -6zM72 -229q36 65 85.5 87.5t101 11.5t107.5 -35t110.5 -45t103 -25.5t90.5 30t69 114.5q1 4 7 4q6 -2 4 -7q-28 -95 -71.5 -141
t-93 -47.5t-104.5 17t-111.5 44.5t-107.5 43t-99 5.5t-81 -61.5q-2 -6 -8 -2q-4 2 -2 7zM317 322q51 13 107 42.5t112 74t102 108.5t68 135q-35 14 -80 -6.5t-84 -60.5q-75 -77 -125 -199q-2 -5 -7 -3q-6 2 -3 7q57 139 141 217q40 37 83.5 53t77.5 3q24 97 -44 107
q-44 6 -102.5 -52t-108 -142t-87.5 -162.5t-50 -121.5zM310 298q-9 -35 -17 -76.5t-14 -93.5t-3 -97.5t14.5 -82.5t40.5 -53t73 -5q79 21 153.5 105t122 190t71 218t10.5 189q-10 63 -45 85q-43 -138 -150 -233t-256 -146z" />
    <glyph glyph-name="R" unicode="R" horiz-adv-x="1015" 
d="M630 128l2 -6q48 8 93 34t80 67t50.5 100.5t2.5 126.5q-23 116 -108.5 180.5t-210.5 59.5q-126 -5 -227 -80t-130 -187q-16 -61 1 -112.5t54.5 -74.5t81.5 -24.5t87.5 37t66.5 110.5q0 6 6 4q5 -2 5 -7q-11 -58 -47 -99t-79 -57.5t-88 -13t-76 27.5q-69 54 -47 186
q20 130 134 213t258 89q88 4 170 -22.5t143.5 -84t76.5 -134.5q17 -84 -17 -162t-102.5 -129.5t-153.5 -64.5q-3 -1 -8.5 -1.5t-8.5 -0.5q22 -59 39 -98.5t45.5 -90.5t64 -81t76.5 -36q53 -8 93.5 24t57.5 100q0 5 6 5q5 -2 5 -7q-13 -72 -59 -122t-106 -50q-26 0 -50 11
t-42 26t-37 44t-30.5 50t-26.5 59.5t-21.5 57t-19 58.5t-15.5 49q-33 -1 -68 8q-20 -55 -43.5 -104t-59 -99.5t-75.5 -86t-94 -56.5t-113 -17q-104 8 -145 86q-22 40 -20 82t21.5 72t50 51.5t66.5 21t69 -20.5q46 -31 50.5 -82t-46.5 -91q-7 -4 -10 3q-2 3 2 5
q48 28 43.5 77.5t-46.5 76.5q-35 22 -73 13t-61.5 -40t-32.5 -74t13 -89q32 -71 118 -79q48 -5 94.5 21.5t79.5 64.5t65.5 96t50.5 98.5t36 88.5l5 14q-1 2 -3.5 4.5t-4.5 5t-4 5.5q-19 30 -16 57.5t25 43t49 3.5l125 325l69 12q-16 -48 -69.5 -183t-76.5 -198
q23 -35 40 -89zM493 164q2 -4 8 -10l33 88q-20 10 -36 -2.5t-17 -34t12 -41.5zM613 119q0 1 -0.5 2.5t-1.5 2.5q-15 42 -31 68q-4 -9 -7.5 -20t-8 -23.5t-6.5 -19.5q-2 -4 -2 -6q24 -6 57 -4z" />
    <glyph glyph-name="S" unicode="S" horiz-adv-x="738" 
d="M264 696q-96 -27 -128 -110q-28 -76 11 -145q42 -77 137 -83q100 -7 226 75q-13 50 -9.5 94.5t20 74t40 53.5t50.5 34t51.5 14.5t42.5 -5.5q22 -16 26.5 -44.5t-48 -89t-155.5 -132.5q9 -31 32 -80.5t40.5 -92t30 -95.5t3 -114t-43.5 -125q-31 -57 -86 -98.5t-120 -58
t-131 -14t-124.5 32.5t-94.5 83q-44 70 -30.5 144t72.5 122q47 37 113 41.5t114 -31t41 -101.5q-5 -45 -44 -78q-4 -3 -8 1q-3 4 1 8q30 25 37 57q14 60 -23 96t-95 32.5t-102 -43.5q-56 -53 -67 -132.5t38 -139.5q51 -58 119 -72.5t131 9t118 73t85 114.5q13 27 22 53
t12.5 53.5t6 47.5t-1.5 50t-5.5 45.5t-10.5 50t-12.5 47.5t-15.5 53t-16 52q-170 -116 -298 -74q-81 27 -111 104q-32 80 11 155q45 75 147 100q6 2 6 -4q2 -5 -4 -7zM524 444q166 116 175 183q5 29 -24 36q-23 6 -54 -6t-59 -39.5t-40.5 -71t2.5 -102.5z" />
    <glyph glyph-name="T" unicode="T" horiz-adv-x="593" 
d="M584 577q-26 6 -64 17t-66.5 19.5t-64.5 17t-66 13t-63.5 4.5t-62.5 -6q-97 -20 -129 -99q-27 -68 8 -130q37 -68 117 -69q34 -1 71 12q5 3 7 -3q2 -5 -3 -7q-65 -26 -125 -7.5t-93 82.5q-44 83 -7.5 163t129.5 97q56 11 127 -4.5t163 -48t130 -42.5q58 64 119.5 93
t106 24t76 -26t39.5 -50q10 -35 -16.5 -59.5t-96.5 -30.5t-192 29q-27 -45 -56 -130t-51.5 -171t-56 -179t-70 -163t-93.5 -114t-127 -41q-109 4 -153 85q-18 34 -19.5 69t10 63.5t33.5 51t48.5 33.5t57 9t57.5 -20q46 -31 50.5 -81.5t-46.5 -90.5q-7 -4 -10 3q-2 3 2 5
q48 28 43.5 77t-46.5 76q-35 23 -73 14t-61.5 -40.5t-32.5 -74.5t13 -89q33 -73 127 -79q59 -3 108.5 61t86 167t68 211t70 211t77.5 148zM634 576q60 -16 108.5 -22.5t79.5 -4t51.5 11.5t29 21.5t7.5 27.5q-1 20 -18 39t-46 28t-62.5 6.5t-74 -30t-75.5 -77.5z" />
    <glyph glyph-name="U" unicode="U" horiz-adv-x="996" 
d="M687 -21q-83 -154 -188 -197q-47 -19 -84 -22.5t-59.5 9.5t-38.5 33.5t-20.5 53.5t-6.5 64.5t4.5 73t11.5 72t15 68t15 55l11 38.5q3 10 13 39q79 232 70 333q-11 123 -137 97q-49 -10 -104 -63t-91.5 -123t-47.5 -144t29 -126q16 -22 53 -30t77.5 1t77 47.5t48.5 100.5
q1 5 6 3q3 -3 3 -6q-20 -104 -107 -152t-164 -6.5t-72 158.5q5 105 91 211t176 134q41 11 80 9.5t73.5 -24t52.5 -61.5q10 -22 14 -47t1.5 -55.5t-5.5 -55t-13.5 -63t-17 -59.5t-21 -65.5t-19.5 -61.5q-48 -158 -59 -231q-31 -202 80 -193q28 2 65 18q110 48 196 214
q8 48 28 123q37 133 95.5 297t108.5 243l69 12q-111 -227 -205 -538q-25 -82 -39 -149t-18.5 -122.5t9 -86t45.5 -29.5q76 3 163 190q3 5 8 2q5 -2 3 -7q-93 -195 -174 -204q-70 -8 -93 52t-8 170z" />
    <glyph glyph-name="V" unicode="V" horiz-adv-x="705" 
d="M1205 903q-70 -9 -138 -47.5t-126 -100.5t-108 -129.5t-97 -151.5t-79.5 -148t-68 -138t-51.5 -104q-43 -314 -120 -333q-10 -3 -12 12q-8 52 69 216q9 57 13 139t-2 183.5t-23.5 186.5t-57.5 142.5t-98 56.5q-51 -1 -103.5 -42t-87.5 -103.5t-54 -128.5t-5 -124.5
t63 -83.5q15 -8 37.5 -10t50 5t53 23t48.5 48.5t34 76.5q2 9 8 2l1 -6q-11 -44 -33 -78.5t-48 -53t-54.5 -30.5t-52 -12t-41.5 3q-108 29 -121 139q-11 102 59 216q70 112 171 153q40 15 79 17q67 2 116 -41t74 -110.5t36.5 -150.5t10 -156.5t-10.5 -132.5q11 21 37.5 77
t52 111t65 128.5t79 137t91 128.5t103.5 112t115 78t126 35q5 0 5 -5q0 -6 -5 -6zM476 -46q-58 -127 -57 -174q0 -17 10 1q25 45 47 173z" />
    <glyph glyph-name="W" unicode="W" horiz-adv-x="914" 
d="M1419 924q-192 -31 -444 -435q-156 -249 -232 -456q13 -225 -29 -285q-20 -27 -39 0q-25 37 -11 114q9 50 36 98q-4 77 -3.5 206.5t3.5 199.5q-26 -51 -84.5 -157t-80.5 -148q-23 -222 -79 -302q-27 -38 -42 -17q-21 27 5 113q18 59 55 124q11 74 12.5 184t-10 232.5
t-55.5 208t-115 84.5q-51 -1 -103.5 -42t-87.5 -103.5t-54 -129t-5 -125t63 -83.5q15 -8 37.5 -10t50 5t53 23t48.5 48.5t34 77.5q2 8 8 1q1 -3 1 -6q-11 -44 -33 -78.5t-48 -53t-54.5 -30.5t-52 -12t-41.5 3q-108 29 -121 139q-11 103 59 216q70 111 170 152q40 17 80 18
q59 2 104.5 -34.5t70.5 -98.5t41 -142t16.5 -165t-4.5 -167q21 39 78.5 143.5t83.5 154.5q-11 179 45 280q30 54 58 51q28 -2 23 -57q-6 -78 -77 -203q-13 -269 -9 -403q103 265 282 524q220 326 396 354q4 1 6 -5q0 -4 -5 -6zM751 488q57 111 63 171q3 27 -7 25
q-18 -4 -36 -73q-15 -53 -20 -123zM476 -45q-54 -98 -55 -156q0 -16 6 -16q2 -1 6 4q25 33 43 168zM702 -59q-37 -86 -28 -146q3 -17 9 -17q4 -1 7 7q16 34 12 156z" />
    <glyph glyph-name="X" unicode="X" horiz-adv-x="1113" 
d="M721 695q16 -90 81 -411q2 3 34 65q53 106 106 200.5t76 141.5q6 11 18 17q6 3 6 -2q-1 -4 -6 -13q-23 -39 -74.5 -132.5t-58.5 -107.5l-68 -132q-10 -18 -30 -55q1 -5 3 -13.5t3 -13.5t1 -8q16 -89 34.5 -164t42 -144.5t51 -109t55.5 -38.5q76 3 163 190q2 6 7 3
q6 -2 3 -7q-93 -202 -174 -204q-44 -1 -81.5 28.5t-64 83t-45 110t-32.5 123.5q-6 25 -16 75q-175 -298 -410 -401q-114 -49 -202 -34q-102 16 -133 98.5t16.5 152t137.5 55.5q48 -8 73.5 -47.5t17 -82.5t-46.5 -61q-5 -2 -7 4q-2 5 3 7q34 16 40.5 54t-17 72t-65.5 39
q-70 8 -109 -55.5t-14.5 -136.5t108.5 -87q92 -16 207 39q221 103 397 401v1q-13 63 -44 226t-47 240q0 4 15 13.5t30.5 16.5t15.5 4z" />
    <glyph glyph-name="Y" unicode="Y" horiz-adv-x="896" 
d="M924 691l69 12q-15 -45 -137 -362.5t-154 -411.5q-25 -73 -57.5 -135.5t-80.5 -124t-114 -95t-142 -27.5q-65 5 -105 38.5t-52 82.5q-15 55 8 106t70.5 73.5t98.5 3.5q37 -14 58 -47t14.5 -72t-45.5 -66q-7 -4 -10 3q-2 3 2 5q53 30 42 86.5t-63 76.5q-66 24 -112.5 -31
t-35.5 -126q7 -48 39 -81.5t92 -39.5q50 -5 96.5 20t80.5 64t65 94.5t49.5 99.5t33.5 91q32 95 63 179q-101 -155 -202 -204q-72 -34 -119 -37.5t-64 25.5t-23.5 60t6.5 88.5t20.5 86t23.5 76.5q3 9 5 14.5t3 10.5q3 10 13 39q79 232 70 333q-11 123 -137 97
q-49 -10 -104 -63t-91.5 -123t-47.5 -144t29 -126q16 -22 53 -30t77.5 1t77 47.5t48.5 100.5q1 5 6 3q3 -3 3 -6q-20 -104 -107 -152t-164 -6.5t-72 158.5q5 105 91 211t176 134q41 11 80 9.5t73.5 -24t52.5 -61.5q10 -22 14 -47t1.5 -55.5t-5.5 -55t-13.5 -63t-17 -59.5
t-21 -65.5t-19.5 -61.5q-3 -11 -15 -44q-58 -163 -50 -222q12 -88 147 -19q117 60 229 248q36 95 105 268.5t95 241.5z" />
    <glyph glyph-name="Z" unicode="Z" horiz-adv-x="783" 
d="M247 340q-76 -26 -132 -7.5t-90 72.5q-21 33 -23.5 75t10 79.5t41.5 67.5t68 40q57 11 97 9.5t87.5 -15t82 -28.5t80 -30.5t82.5 -21.5q121 128 229 127q62 -1 85 -41q23 -38 -13 -73q-59 -60 -225 -41q-10 1 -21 3q-142 -231 -188 -310q205 173 253 46q35 -92 -19 -296
q-35 -134 -79 -208q-160 -270 -372 -233q-59 10 -99 75t-24 126q14 50 53 80.5t87.5 29t85.5 -40.5q32 -33 31.5 -75.5t-34.5 -70.5l-12 -10q-6 -4 -8 1q-3 4 1 8l12 9q42 33 26.5 83.5t-62 67t-97.5 -15.5q-45 -37 -51 -96.5t27 -108t88 -54.5q117 -13 233 152
q100 139 148 324q46 172 9 242q-42 81 -178 -33q-23 -20 -49 -45q-3 -3 -4 -3q-53 -3 -63 2q18 27 101 176.5t119 189.5q-49 8 -117.5 30t-125.5 33.5t-116 4.5q-48 -6 -88 -44.5t-52 -85t6 -89.5q60 -114 195 -69q8 5 8 -3q0 -4 -3 -5zM615 566q85 -13 139 -1.5t78.5 31.5
t24.5 44q0 30 -34 39q-61 16 -153 -60q-27 -23 -55 -53z" />
    <glyph glyph-name="bracketleft" unicode="[" horiz-adv-x="279" 
d="M236 -131h-220q-5 -1 6 38t73.5 230t190.5 568q0 1 3 1q1 1 2 1h215q4 -2 2 -11.5t-7.5 -19.5t-8.5 -10h-155l-251 -756h164q4 -2 2 -11.5t-7.5 -19.5t-8.5 -10z" />
    <glyph glyph-name="backslash" unicode="\" horiz-adv-x="366" 
d="M251 -54l-161 718q-1 4 23.5 17.5t27.5 7.5l166 -717q0 -2 -13.5 -10.5t-27.5 -14t-15 -1.5z" />
    <glyph glyph-name="bracketright" unicode="]" horiz-adv-x="254" 
d="M179 706h220q5 1 -6 -38t-73.5 -230t-190.5 -568q0 -1 -3 -1q-1 -1 -2 -1h-215q-4 2 -2 11.5t7.5 19.5t8.5 10h155l251 756h-164q-4 2 -2 11.5t7.5 19.5t8.5 10z" />
    <glyph glyph-name="asciicircum" unicode="^" horiz-adv-x="701" 
d="M388 565l-348 -251q-3 -1 -15 10.5t-21 25t-4 15.5l398 302q12 13 18 0l216 -324q4 -2 -7 -15.5t-24.5 -25t-15.5 -10.5z" />
    <glyph glyph-name="underscore" unicode="_" horiz-adv-x="649" 
d="M579 -200l-532 3q-8 -1 0 45q3 17 6 16l540 -3q4 -3 2 -16.5t-7.5 -29t-8.5 -15.5z" />
    <glyph glyph-name="grave" unicode="`" horiz-adv-x="308" 
d="M141 598q2 -1 44 -54t45 -55q18 -19 -24 4q-48 27 -108 68q-31 20 -15 33t58 4z" />
    <glyph glyph-name="a" unicode="a" horiz-adv-x="370" 
d="M242 311q-2 34 -12 45q-39 43 -100 -45q-56 -81 -81 -186q-22 -98 15 -102q56 -4 132 139q9 34 26.5 80.5t18.5 51.5q1 4 15 -2t27.5 -14t12.5 -10l-44 -128q-31 -109 7 -106q3 0 6 1q20 6 57.5 57.5t50.5 89.5q2 6 7 4q6 -2 4 -7q-21 -52 -65.5 -114t-87.5 -63
q-27 -1 -38.5 33.5t-3.5 83.5l-3 -1q-14 -23 -24 -37t-29 -35.5t-42.5 -32.5t-50.5 -11q-50 0 -59.5 59t20.5 137q26 72 73 126.5t96 63.5q41 7 62.5 -13.5t20.5 -63.5q0 -6 -5 -6q-6 0 -6 6z" />
    <glyph glyph-name="b" unicode="b" horiz-adv-x="325" 
d="M73 260q252 325 309 510q29 97 -9 109q-37 11 -110 -68q-122 -134 -216 -391q-4 -10 -7 -19q-95 -268 -45 -365q26 -51 83 -33q92 29 154 191q57 -10 103 21.5t65 84.5q3 7 -5 6q-5 0 -7 -4q-23 -56 -70 -78.5t-81 -12.5q23 66 18 105t-21 55t-36 13q-22 -4 -37.5 -27.5
t-18.5 -52.5t16 -59.5t60 -44.5q-21 -70 -68 -123.5t-73 -51.5q-13 1 -22.5 12.5t-13.5 32.5t-2.5 49t10.5 64.5t24 76.5zM84 293q2 8 7 22.5t6 18.5q0 3 2 5h-1q94 302 200 453q53 75 76 64q24 -11 -15 -111q-70 -178 -275 -452zM224 215q-28 9 -44.5 26.5t-18.5 37.5t3 39
t16.5 32t24.5 15q14 2 23.5 -12.5t9.5 -51t-14 -86.5z" />
    <glyph glyph-name="c" unicode="c" horiz-adv-x="294" 
d="M236 304q16 37 -9 53q-29 18 -74 -22q-51 -46 -91 -147q-27 -73 -18 -118.5t49 -49.5q36 -4 70.5 12t61 43.5t45 56t31.5 56.5q2 6 8 2q4 -1 2 -7q-83 -182 -215 -185q-72 -1 -101.5 62t0.5 141q50 138 142 178q58 26 97 -1q36 -24 18 -68q-3 -7 -7 -13q-4 -4 -8 -1
q-5 4 -1 8z" />
    <glyph glyph-name="d" unicode="d" horiz-adv-x="379" 
d="M300 301l-2 -2q-30 -68 -41 -182q-9 -97 14 -91q19 5 55.5 57.5t53.5 93.5q3 5 8 3t3 -7q-11 -28 -31.5 -64.5t-56.5 -76t-66 -40.5q-62 -3 -45 127h-2q-16 -26 -27.5 -42.5t-30.5 -36.5t-41 -30t-48 -10q-50 0 -60 59.5t21 136.5q26 72 73 126.5t96 63.5q57 10 76 -33
q24 104 58.5 197.5t69 158.5t69 112.5t61.5 69t44 17.5q16 -3 19 -27.5t-10.5 -74t-43 -118t-85.5 -169.5t-131 -218zM306 333q99 157 160 284t76 186t-1 63q-9 2 -25.5 -16.5t-40 -62t-50 -104t-58.5 -152.5t-61 -198zM198 159q25 114 44 175q-2 13 -9 20q-39 43 -100 -45
q-56 -80 -81 -185q-21 -98 15 -103q60 -5 131 138z" />
    <glyph glyph-name="e" unicode="e" horiz-adv-x="302" 
d="M41 109q-5 -58 33 -79.5t95 8.5q84 43 140 161q1 4 8 2q4 -1 2 -8q-48 -111 -138 -164q-45 -27 -84.5 -30.5t-63 13.5t-39.5 46.5t-14 67.5t14 77q19 51 45 90.5t52.5 60.5t53 31.5t48.5 9t37 -12.5q34 -28 20 -69.5t-54 -84.5t-84 -75.5t-71 -43.5zM221 361
q-13 13 -39 0.5t-60 -58t-61 -113.5q-16 -43 -18 -68l1 1q24 10 61.5 39t72.5 66t50 73t-7 60z" />
    <glyph glyph-name="f" unicode="f" horiz-adv-x="171" 
d="M50 41q-6 30 -1 44q4 8 16.5 10t28 4t38.5 24t45 64q3 7 7 3q5 -2 3 -7q-25 -55 -55 -78.5t-69 -28.5l-1 -2q28 -147 17.5 -265.5t-46.5 -203.5t-73.5 -132.5t-64.5 -52.5q-21 -4 -36 6t-22.5 51t1 111.5t42 201t92.5 306.5q4 12 67 193.5t120 346t68 193.5q8 3 29.5 -9
t25.5 -20q-60 -167 -184 -541t-163 -513q-79 -290 -32 -296q16 -2 41 27t51.5 82.5t46 128t23.5 163.5t-15 190z" />
    <glyph glyph-name="g" unicode="g" horiz-adv-x="374" 
d="M222 30q61 36 93.5 66.5t62.5 88.5q2 5 7 3t3 -8q-14 -33 -31.5 -58t-43.5 -46.5t-44 -33.5t-54 -34q-67 -208 -68 -211q-98 -291 -208 -365q-64 -43 -104 5q-3 3 -5 6q-17 24 -20 68t13.5 104t50.5 122t100.5 127t154.5 114q3 9 17 46t24 65q-58 -86 -127 -85
q-50 0 -59.5 59t21.5 137q26 72 73 126.5t96 63.5q41 7 62.5 -13.5t20.5 -63.5q0 -6 -5 -6q-6 0 -6 6q-2 34 -12 45q-39 43 -100 -45q-56 -81 -81 -186q-22 -98 15 -102q53 -4 125 127q25 68 52 144q7 3 29 -7.5t26 -18.5q-27 -80 -78 -240zM122 -46q-63 -34 -115.5 -81.5
t-85 -97t-55.5 -100.5t-31 -94.5t-6.5 -76.5t12.5 -49q25 -35 74 20q99 110 207 479z" />
    <glyph glyph-name="h" unicode="h" horiz-adv-x="371" 
d="M61 143q138 244 203 238q39 -3 40.5 -46.5t-35.5 -151.5q-38 -110 -38 -133q1 -27 35 -18q19 5 56 57.5t51 90.5q1 4 8 2q5 -2 3 -7q-12 -29 -31.5 -64.5t-55 -74t-66.5 -38.5q-36 1 -50 21.5t-8 63.5t34 109q58 139 23 153q-15 6 -61.5 -60t-89 -143t-61.5 -119
q-3 -9 -7 -24q-2 -5 -34.5 9t-30.5 18q95 277 135 379q191 489 309 474q8 -1 15 -4q17 -7 19 -35t-15.5 -81t-53 -123t-101 -170t-153.5 -213q-2 -6 -18.5 -50t-21.5 -60zM113 296l-4 -10q56 74 102.5 143.5t79 124.5t57 103t38 83t19.5 60.5t4 38.5t-10 15q-18 5 -41.5 -18
t-48.5 -67t-48.5 -94t-48 -112.5t-42 -109t-35 -96t-22.5 -61.5z" />
    <glyph glyph-name="i" unicode="i" horiz-adv-x="169" 
d="M-5 162q8 32 40.5 124t34.5 100q1 3 15.5 -2.5t28 -14t12.5 -10.5l-75 -219q-7 -26 -10.5 -45t-3 -34.5t7.5 -22t20 -3.5q19 6 55 57t52 90q2 6 7 4q6 -2 4 -7q-21 -52 -65.5 -114t-87.5 -63q-22 -1 -34.5 14.5t-14 40.5t2 51.5t11.5 53.5zM179 544q1 0 -12 -27.5
t-27.5 -57t-15.5 -32.5q-13 -26 -18 13q-6 46 2 88q6 32 20 33.5t51 -17.5z" />
    <glyph glyph-name="j" unicode="j" horiz-adv-x="175" 
d="M26 35q60 35 93 65.5t63 88.5q2 6 7 3q5 -2 3 -7q-26 -56 -70 -100q-36 -34 -103 -73q-12 -36 -36 -111.5t-32 -99.5q-97 -289 -206 -364q-65 -43 -106 4l-5 7q-17 24 -20 68t13.5 103.5t51 121.5t101 127t154.5 115q5 14 144 413q7 3 31 -7.5t28 -18.5
q-64 -189 -111 -335zM-74 -42q-63 -34 -115.5 -81.5t-85 -96.5t-55.5 -100.5t-31 -95t-6.5 -76.5t12.5 -49q25 -36 75 21q98 111 206 478zM187 556q1 -1 -12 -28t-27.5 -56.5t-15.5 -32.5q-13 -27 -18 13q-6 46 2 88q6 32 20 33.5t51 -17.5z" />
    <glyph glyph-name="k" unicode="k" horiz-adv-x="374" 
d="M66 149q138 244 203 238q26 -2 32 -31q9 -46 -42 -92q-36 -32 -94 -53q-43 -16 -18 -72q22 -50 70 -79q52 -31 82 0q21 22 43.5 59t35.5 66q2 5 8 3q5 -2 3 -7q-12 -29 -31.5 -64.5t-55 -74t-66.5 -38.5q-65 1 -109.5 58.5t-1.5 141.5q17 8 50 41t54 66.5t6 39.5
t-61.5 -60t-89 -143t-61.5 -119q-3 -9 -7 -24q-2 -5 -34.5 9t-30.5 18q95 277 135 379q191 489 309 474q8 -1 15 -4q17 -7 19 -35t-15.5 -81t-53 -123t-101 -170t-153.5 -213q-2 -6 -18.5 -50t-21.5 -60zM118 302l-4 -10q56 74 102.5 143.5t79 124.5t57 103t38 83t19.5 60.5
t4 38.5t-10 15q-18 5 -41.5 -18t-48.5 -67t-48.5 -94t-48 -112.5t-42 -109t-35 -96t-22.5 -61.5z" />
    <glyph glyph-name="l" unicode="l" horiz-adv-x="214" 
d="M365 848q17 -5 19.5 -31.5t-14 -78t-51 -120.5t-99.5 -167.5t-151 -210.5q-26 -90 -25 -144.5t30 -60.5q37 -8 81.5 46t61.5 101q2 5 8 3q5 -2 3 -7q-10 -25 -22 -47.5t-36 -58t-58 -55t-73 -16.5q-49 4 -57 85t24 187q19 67 57 161.5t88.5 197t109 166.5t104.5 50z
M78 270q77 103 136.5 197t90.5 156t50.5 113t16 69t-13.5 23q-38 0 -101 -113.5t-113 -243t-66 -201.5z" />
    <glyph glyph-name="m" unicode="m" horiz-adv-x="574" 
d="M287 226q-6 -24 -32 -100q54 107 112 184t101 74q39 -3 40 -46.5t-35 -151.5q-39 -111 -38 -134q1 -26 34 -17q20 5 57.5 57t50.5 90q2 5 7 3q6 -2 4 -7q-8 -19 -22 -45t-35 -57.5t-47 -53t-49 -21.5q-104 1 -25 194q58 139 24 153q-23 8 -100 -118.5t-116 -208.5
q-2 -5 -4 -11.5t-2 -7.5q-2 -7 -51 20q-15 9 -15 11l77 223q3 12 8.5 27.5t9 25.5t6 19.5t0.5 14.5t-9 6q-30 3 -117.5 -147.5t-103.5 -195.5q-1 -2 -1 -4q-2 -5 -34.5 9t-30.5 18l122 356q1 4 18 -2t32.5 -14t14.5 -10l-55 -160q-10 -34 -30 -89q35 68 67.5 123t75 103.5
t72.5 47.5q22 0 32 -14.5t8 -42t-7 -48.5t-14 -53z" />
    <glyph glyph-name="n" unicode="n" horiz-adv-x="354" 
d="M131 356l-55 -160q-2 -4 -8 -24.5t-7 -24.5q130 241 203 234q39 -3 40.5 -46.5t-35.5 -151.5q-38 -110 -38 -133q1 -27 35 -18q20 5 57 57t50 90q2 5 8 3q5 -2 3 -7q-12 -29 -31.5 -64.5t-55 -74t-66.5 -38.5q-36 1 -50 21.5t-8 63.5t34 109q58 139 23 153
q-22 9 -102.5 -120t-111.5 -202l-8 -24q-1 -3 -17 2.5t-31 14t-14 10.5l122 356q1 4 17 -2t31.5 -14t14.5 -10z" />
    <glyph glyph-name="o" unicode="o" 
d="M251 209q-53 -104 -104.5 -165.5t-95.5 -57.5q-64 5 -70 85q-6 82 47 175q57 100 135 121l25 4q9 46 30 72t42 23q27 -4 33.5 -44t-4.5 -94t-33 -107q36 -8 73 9.5t59 71.5q3 7 10 4q4 -2 2 -6q-19 -51 -58.5 -77t-90.5 -14zM185 353q-40 -4 -91 -103q-55 -106 -62 -190
q-5 -65 32 -63q37 3 88 71.5t89 144.5q-29 15 -46 55t-10 85zM239 296q-2 18 -4 28t-8 19t-16 10q-6 -51 4.5 -84.5t29.5 -42.5q23 49 32.5 103t3.5 89t-26 33q-27 -4 -42 -82q34 -12 37 -72q0 -6 -5 -6q-6 0 -6 5z" />
    <glyph glyph-name="p" unicode="p" horiz-adv-x="366" 
d="M42 33q15 -18 35 -12.5t38.5 24.5t38.5 51q-33 25 -48.5 64.5t-10.5 82.5q6 58 44 101.5t94 42.5q50 0 59.5 -59t-20.5 -137q-22 -59 -54 -102q106 -22 153 97q2 5 7 3q6 -2 3 -7q-21 -56 -59.5 -88t-93.5 -26q-16 2 -23 4q-51 -61 -103 -70q-72 -13 -82 57l-1 -1
q-24 -66 -65.5 -182.5t-66 -184t-25.5 -73.5q-1 -4 -15.5 1.5t-28 14t-12.5 10.5l260 735q2 4 16 -3t26 -17.5t11 -12.5q-11 -26 -25 -66t-32.5 -97t-31.5 -93q0 -43 12 -57zM165 115q53 96 65 185q9 69 -22 67q-26 -2 -48.5 -31.5t-33 -68.5t-1.5 -82t40 -70z" />
    <glyph glyph-name="q" unicode="q" horiz-adv-x="359" 
d="M196 13q58 34 99 74t68 98q3 4 7 3q5 -2 3 -8q-24 -59 -71 -109t-103 -80l-5 -4q-6 -343 -102 -497q-50 -80 -101 -75q-17 2 -31 15q-17 16 -20 49t9.5 84t27 97.5t43.5 115.5t47 111t50 111.5t41 90.5q-57 -90 -129 -89q-50 0 -60 59t21 137q26 72 73 126.5t96 63.5
q41 7 62.5 -13.5t20.5 -63.5q0 -6 -5 -6q-6 0 -6 6q-2 34 -12 45q-39 43 -100 -45q-56 -81 -81 -186q-22 -98 15 -102q53 -4 125 127q14 40 50 139q7 3 28.5 -9t26.5 -20q-16 -43 -32.5 -89t-32.5 -92t-22 -64zM179 -30q-9 -22 -23.5 -55.5t-29 -66t-31.5 -71t-32 -73.5
t-29 -70t-23.5 -64.5t-15.5 -53.5t-5.5 -39.5t7.5 -20.5q31 -21 69.5 37.5t70.5 188t42 288.5z" />
    <glyph glyph-name="r" unicode="r" horiz-adv-x="282" 
d="M108 160q3 11 68 202q-10 8 -23.5 15.5t-32 16.5t-25.5 12q-41 -150 -88 -243q-2 -6 -7 -3q-5 2 -3 7q64 149 82 246q-47 26 -37 75q7 31 26 40q23 10 31 -29q5 -25 1 -67q4 -3 20 -11t35.5 -17t39 -18.5t32 -17t12.5 -11.5l-75 -219q-30 -106 6 -105q4 0 8 1
q19 5 53.5 54t54.5 93q1 3 4 3t5 -2t1 -5q-21 -52 -65.5 -114t-87.5 -63q-22 0 -34.5 15t-14 40.5t2 51.5t11.5 53z" />
    <glyph glyph-name="s" unicode="s" horiz-adv-x="280" 
d="M-10 156l114 233q-30 79 -2 121q17 25 39 17q27 -10 18 -54q-6 -30 -30 -68q25 -42 43.5 -84.5t29.5 -93t0.5 -98.5t-44.5 -84q82 37 128 144q2 5 9 3q4 -3 2 -8q-34 -75 -88 -129.5t-124 -54.5q-67 0 -104.5 31.5t-32 85.5t56.5 114q4 5 8 1q5 -4 1 -8q-33 -35 -43 -72
t0 -63.5t31 -43.5t45 -16q52 3 74 71.5t16.5 147.5t-26.5 126l-111 -224q-4 -4 -8 -2q-4 1 -2 8z" />
    <glyph glyph-name="t" unicode="t" horiz-adv-x="190" 
d="M148 641l85 18q-3 -6 -22.5 -61.5t-46.5 -129.5t-42 -114q78 -16 90 34q2 5 6.5 3.5t3.5 -6.5q-14 -37 -37 -45.5t-69 -4.5q-86 -233 -59 -288q8 -17 28 -12q19 5 56 56.5t52 90.5q2 5 8 3q5 -2 3 -7q-12 -29 -32 -64.5t-55.5 -73.5t-66.5 -39q-34 -1 -50.5 25t-14.5 73
t16 107.5t40 133.5q-61 10 -73 2q-3 -2 -5 -5q-2 -5 -7 -3t-3 6q12 20 33.5 23t60.5 -3q12 31 35.5 99t42.5 121t23 61z" />
    <glyph glyph-name="u" unicode="u" horiz-adv-x="372" 
d="M139 365q-9 -20 -72 -187q-14 -41 -20.5 -75.5t-2 -57t21.5 -23.5q55 -4 132 139q8 33 43 125t36 99q1 4 15.5 -2t28 -14t12.5 -10l-79 -219q-30 -108 6 -106q3 0 7 1q20 5 56 56.5t52 90.5q2 5 7 3q6 -2 4 -7q-7 -18 -21.5 -44.5t-35 -57.5t-47 -52.5t-49.5 -22.5
q-27 -1 -38.5 33.5t-3.5 83.5h-3q-19 -31 -33 -51t-46 -43t-67 -23q-50 0 -59.5 59.5t20.5 137.5q59 161 76 191q1 4 16.5 -1t30 -12.5t13.5 -10.5z" />
    <glyph glyph-name="v" unicode="v" horiz-adv-x="309" 
d="M203 194q-12 -35 -35 -77.5t-60 -80t-70 -36.5q-30 1 -39 52.5t0.5 127.5t18.5 127.5t18 86.5q0 3 16 -2.5t31.5 -13.5t14.5 -11q0 -2 -6 -26.5t-11.5 -51t-12.5 -62.5t-11.5 -68t-7 -61t1 -47t12.5 -21q29 -10 75.5 64t50.5 106q-54 19 -67.5 75t5.5 104t49 52
q49 6 57.5 -57t-25.5 -163q34 -10 81 12.5t70 78.5q3 7 10 4q4 -2 2 -6q-19 -53 -65 -84.5t-103 -21.5zM195 215q24 80 22 140t-34 57q-13 -1 -25.5 -19t-18 -44t-4.5 -53t16.5 -50t43.5 -31z" />
    <glyph glyph-name="w" unicode="w" horiz-adv-x="467" 
d="M347 194q-10 -28 -25.5 -58t-37 -62t-49 -52t-54.5 -20q-75 2 -47 227q-31 -102 -58 -165t-52 -62q-30 1 -39.5 50.5t0.5 127.5t17.5 121t17.5 86q0 3 16 -2t31.5 -13.5t14.5 -11.5q-73 -330 -38 -325q6 1 15.5 21t22 55.5t23 69t24 76.5t20.5 63q2 14 5 28t5 25t3 14
q1 2 7.5 0.5t16 -5t18.5 -7.5t15 -8t6 -6t-4.5 -18t-9 -33.5t-10.5 -43t-10 -49.5t-8 -50.5t-4.5 -48.5t1.5 -41t9 -30.5t18 -14.5q35 -8 77 61t49 107q-54 19 -67.5 75t5.5 104t49 52q49 6 57.5 -57t-25.5 -163q34 -10 81 12.5t70 78.5q3 7 10 4q4 -2 2 -6
q-19 -53 -65 -84.5t-103 -21.5zM339 215q24 80 22 140t-34 57q-13 -1 -25.5 -19t-18 -44t-4.5 -53t16.5 -50t43.5 -31z" />
    <glyph glyph-name="x" unicode="x" horiz-adv-x="329" 
d="M73 387v1q-3 3 -3 4t9 -4q11 -3 31 -14t19 -13q0 -4 13 -140l116 167q1 1 4 0.5t5 -2t2 -2.5l-125 -180q20 -176 81 -165q21 4 57.5 56t50.5 91q2 5 7 3q6 -2 4 -7q-21 -52 -65.5 -114t-87.5 -63q-37 -1 -61 33t-37 92l-86 -123q-3 -4 -11 -1q-4 3 -1 6l94 134
q-22 106 -22 158q-25 -70 -58 -135q-2 -6 -7 -3q-5 2 -3 7q4 10 15.5 35.5t17 38.5t13.5 34t13.5 39.5t10.5 38.5q2 21 4 28z" />
    <glyph glyph-name="y" unicode="y" horiz-adv-x="376" 
d="M224 30q61 36 94.5 66.5t62.5 88.5q2 5 8 3q4 -3 2 -8q-14 -32 -31 -56.5t-41.5 -45.5t-44.5 -34.5t-57 -35.5q-10 -33 -25.5 -80.5t-25.5 -80t-17 -51.5q-98 -290 -208 -364q-64 -43 -104 5q-3 3 -5 6q-17 24 -20 68t13.5 103.5t50.5 121.5t100.5 127t154.5 115
q4 12 18 48.5t23 61.5q-59 -85 -127 -85q-50 1 -59.5 60t21.5 137q49 139 74 191q0 4 15.5 -0.5t30.5 -12t14 -11.5q-2 -5 -62 -165q-17 -45 -26 -84t-5 -66t22 -28q30 -1 61.5 34.5t63.5 93.5q43 118 84 240q7 3 29 -8t27 -19q-58 -169 -111 -335zM124 -46
q-63 -34 -115.5 -82t-85 -97t-55.5 -100.5t-31 -95t-6.5 -76.5t12.5 -49q25 -35 75 21q98 111 206 479z" />
    <glyph glyph-name="z" unicode="z" horiz-adv-x="381" 
d="M-4 164q67 166 78 200q7 20 11 25t7 1.5t12.5 -14t21.5 -16.5q7 -4 14 -5.5t14.5 -1t13 1t14.5 4.5t13 6t14.5 7.5t13.5 6.5q47 21 72 9t24.5 -46t-27.5 -61q-33 -31 -200 -148l-9 -6q59 18 86.5 -17t30.5 -99l29 17q61 36 93.5 66t62.5 88q2 6 7 3q5 -2 3 -7
q-26 -57 -71 -100q-32 -31 -102 -73l-22 -12v-1q-2 -31 -6 -58q-25 -149 -106 -316q-87 -178 -164 -209q-50 -20 -87 32q-17 24 -20 67.5t13.5 103t50 121t99.5 126.5t153 115q7 36 7.5 64.5t-8.5 52.5t-32 24t-64 -21q-7 -4 -21.5 -13.5t-21.5 -14.5q-1 -2 -2 2q-4 11 1 14
q21 14 66 43.5t80 54t67 50.5q37 30 47 77q9 44 -22 45q-12 1 -30 -7q-26 -16 -54.5 -12t-57.5 41q-35 -106 -82 -214q-3 -4 -8 -2q-4 1 -2 6zM125 -61l3 12q-63 -34 -115 -81.5t-85 -97t-55.5 -100.5t-30.5 -94.5t-6.5 -76.5t12.5 -49q25 -35 75 21q96 109 202 466z" />
    <glyph glyph-name="braceleft" unicode="{" horiz-adv-x="211" 
d="M-100 378q4 10 14 10.5t23 -2.5t29.5 -5t36.5 8.5t41 33t45.5 73t48.5 124.5q33 101 125.5 128.5t174.5 -42.5q12 -12 3 -17t-17 1q-68 39 -135.5 12t-98.5 -103q-27 -66 -55 -114t-50 -70.5t-43.5 -37t-36.5 -14.5t-28.5 -1t-19.5 2.5t-10 -4.5q-2 -5 10.5 -11.5
t30.5 -19.5t32.5 -45.5t16.5 -90t-17 -153.5q-14 -69 22.5 -121t102.5 -60q4 0 8.5 -3t6.5 -6.5t-1 -7t-12 -4.5q-98 -6 -156.5 58.5t-28.5 149.5q25 71 31 126.5t-3.5 85.5t-25 52.5t-32 32t-26 18.5t-6.5 17z" />
    <glyph glyph-name="bar" unicode="|" horiz-adv-x="240" 
d="M274 841l-205 -1012q-1 -4 -15.5 1.5t-28 14t-12.5 10.5l208 1019q2 4 16 -3t26 -17.5t11 -12.5z" />
    <glyph glyph-name="braceright" unicode="}" horiz-adv-x="445" 
d="M381 253q-4 -10 -14 -10.5t-23 2.5t-29.5 5t-36.5 -8.5t-41 -33t-45.5 -73t-48.5 -124.5q-33 -101 -125.5 -128.5t-174.5 42.5q-12 12 -3 17t17 -1q68 -39 135.5 -12t98.5 103q27 66 55 114t50 70.5t43.5 37t36.5 14.5t28.5 1t19.5 -2.5t10 4.5q2 5 -10.5 11.5
t-30.5 19.5t-32.5 45.5t-16.5 90t17 153.5q14 69 -22.5 121t-102.5 60q-4 0 -8.5 3t-6.5 6.5t1 7t12 4.5q98 6 156.5 -58.5t28.5 -149.5q-25 -71 -31 -126.5t3.5 -85.5t25 -52.5t32 -32t26 -18.5t6.5 -17z" />
    <glyph glyph-name="asciitilde" unicode="~" horiz-adv-x="605" 
d="M537 285q-29 -63 -65.5 -93t-73 -29t-75.5 14t-76.5 29.5t-71 24.5t-64 -7t-51.5 -60q-11 -9 -25 1q-5 6 -2 10q33 66 73 97t77 31t75 -13.5t73 -31.5t65.5 -27.5t56 3t41.5 54.5q16 10 40 0q3 -2 3 -3z" />
    <glyph glyph-name="exclamdown" unicode="&#xa1;" horiz-adv-x="256" 
d="M-2 -126l207 549q2 4 6.5 3.5t9.5 -4t5 -5.5l-148 -588q-3 -6 -42.5 17.5t-37.5 27.5zM203 500q-1 1 6.5 13t16.5 25.5t10 16.5q14 30 29 14q16 -17 9 -53q-6 -32 -20 -33.5t-51 17.5z" />
    <glyph glyph-name="sterling" unicode="&#xa3;" horiz-adv-x="701" 
d="M652 176l-166 1q-58 -201 -102 -270q11 -6 53.5 -29.5t56 -29t44 -18t54.5 -15t51 -0.5q64 5 97.5 38.5t53.5 98.5q2 6 7 4q6 -2 4 -7q-45 -143 -150 -160q-69 -11 -136.5 10.5t-163.5 71.5q-82 -106 -196 -108q-82 -2 -130 47t-18 108q9 16 24 32q22 24 61 34.5
t102.5 -1t133.5 -50.5q47 75 89 245l-156 1q-8 -1 0 45q4 15 6 16l165 -2q15 60 31 108q74 243 202 327q79 52 140 23q50 -23 50 -81q1 -82 -101 -162q-51 -39 -122 -72q0 12 -1 18q93 43 145.5 94t62.5 97q12 55 -25 78q-43 27 -106 -19q-103 -74 -174 -288
q-5 -16 -34 -123l162 -1q4 -3 2 -16.5t-7.5 -29t-8.5 -15.5zM300 -104q-61 36 -114 50.5t-86 10t-54 -22.5q-49 -43 -26 -90q21 -43 79 -51q88 -13 172 70q15 15 29 33z" />
    <glyph glyph-name="yen" unicode="&#xa5;" horiz-adv-x="1121" 
d="M470 -36l-157 1q-8 -1 0 45q4 15 6 16l160 -1q7 68 8.5 148t-6.5 173.5t-26 167.5t-56.5 124t-92.5 49q-51 -1 -103.5 -42t-87.5 -103.5t-54 -128.5t-5 -124.5t63 -83.5q15 -8 37.5 -10t50 5t53 23t48.5 48.5t34 76.5q2 9 8 2l1 -6q-11 -44 -33 -78.5t-48 -53
t-54.5 -30.5t-52 -12t-41.5 3q-108 29 -121 139q-11 102 59 216q70 112 171 153q40 15 79 17q67 2 116 -41t74 -110.5t36.5 -150.5t10 -156.5t-10.5 -132.5q155 316 371 583q33 41 61 71.5t69 68.5t84 60t84 24q5 0 5 -5q0 -6 -5 -6q-139 -9 -351 -301q-197 -265 -317 -518
q-3 -13 -13 -60l190 -1q4 -3 2 -16.5t-7.5 -29t-8.5 -15.5l-190 2q-1 -6 -7.5 -34t-9.5 -42l132 -1q4 -3 2 -16.5t-7.5 -29t-8.5 -15.5l-134 1q-41 -159 -65 -213q-4 -9 -28 -20q-25 -11 -24 7q0 5 3 13q46 126 72 214l-211 1q-8 -1 0 45q3 17 6 16l222 -1q9 35 18 75z" />
    <glyph glyph-name="brokenbar" unicode="&#xa6;" horiz-adv-x="139" 
d="M180 672l-71 -372q-1 -4 -15.5 1.5t-28 14t-12.5 10.5l74 379q2 4 16 -3t26 -17.5t11 -12.5zM89 191l-71 -372q-1 -4 -15.5 1.5t-28 14t-12.5 10.5l74 379q2 4 16 -3t26 -17.5t11 -12.5z" />
    <glyph glyph-name="section" unicode="&#xa7;" horiz-adv-x="437" 
d="M-155 50q31 51 95 71.5t121 -4t67 -90.5q5 -45 -24 -86q-2 -4 -8 -1q-4 2 -1 8q22 31 22 64q-1 62 -45.5 87.5t-100.5 8t-88 -66.5q-63 -99 -22 -196q31 -73 102 -103q90 -38 174 23q52 38 90 110q36 74 8 158.5t-95 123.5q-65 39 -88.5 101.5t2.5 122.5q-56 70 -52 154
t59 152q73 89 201 90q112 0 193 -64q88 -69 72 -167q-8 -52 -48 -105q-36 -48 -99 -68.5t-118 2.5t-65 89q-6 43 24 86q2 3 8 1q3 -4 1 -8q-23 -31 -22 -64q1 -62 45.5 -87.5t100.5 -8t88 66.5q37 64 36.5 129t-40 107t-90 61t-115 -9t-113.5 -102q-56 -94 -33.5 -176.5
t98.5 -125.5q64 -38 87.5 -102t-2.5 -123q35 -41 45 -93t-2 -101.5t-40 -97.5q-58 -103 -178 -115q-104 -10 -193 50q-91 63 -96 161q-4 67 39 137zM167 179q53 -23 82 -50q13 50 -13.5 105.5t-77.5 76.5q-47 18 -84 50q-12 -51 15 -106t78 -76z" />
    <glyph glyph-name="dieresis" unicode="&#xa8;" horiz-adv-x="311" 
d="M152 579q1 -1 -6.5 -13t-16.5 -25.5t-10 -16.5q-14 -30 -29 -14q-16 17 -9 53q6 32 20 33.5t51 -17.5zM255 579q1 -1 -6.5 -13t-16.5 -25.5t-10 -16.5q-14 -30 -29 -14q-16 17 -9 53q6 32 20 33.5t51 -17.5z" />
    <glyph glyph-name="logicalnot" unicode="&#xac;" horiz-adv-x="596" 
d="M453 398l-394 3q-8 -1 0 45q3 17 6 16l464 -3q7 -1 -6 -47.5t-53 -160.5q0 -2 -16 -3t-31.5 1t-14.5 6z" />
    <glyph glyph-name="degree" unicode="&#xb0;" horiz-adv-x="216" 
d="M145 600q-19 0 -36.5 -23t-28.5 -56t-16.5 -66.5t-1.5 -57.5t16 -26q45 -6 80 62q35 65 27 122q-6 45 -40 45zM145 613q43 0 50 -60q6 -66 -31 -130q-36 -60 -86 -61q-41 0 -49 58q-10 65 25 129t91 64z" />
    <glyph glyph-name="plusminus" unicode="&#xb1;" horiz-adv-x="555" 
d="M236 314l48 172q1 8 41 -11q16 -8 16 -11l-42 -150l161 -1q4 -3 2 -16.5t-7.5 -29t-8.5 -15.5l-163 1l-47 -170q-2 -4 -16 2.5t-27 15.5t-12 12l39 141l-161 1q-8 -1 0 45q3 17 6 16zM410 -13l-387 3q-8 -1 0 45q3 17 6 16l395 -3q4 -3 2 -16.5t-7.5 -29t-8.5 -15.5z" />
    <glyph glyph-name="acute" unicode="&#xb4;" horiz-adv-x="319" 
d="M179 587q49 11 61 -7q8 -14 -18 -30q-105 -72 -133 -80q-9 -3 1 8q3 2 45 55t44 54z" />
    <glyph glyph-name="paragraph" unicode="&#xb6;" horiz-adv-x="413" 
d="M104 430q-90 -2 -120.5 65.5t12 136t129.5 68.5h337q4 -3 2 -16.5t-7.5 -29t-8.5 -15.5h-95l-126 -810q-1 -4 -15.5 1.5t-28 14t-12.5 10.5l124 785l-99 1l-127 -812q-1 -4 -15.5 1.5t-28 14t-12.5 10.5z" />
    <glyph glyph-name="periodcentered" unicode="&#xb7;" horiz-adv-x="200" 
d="M143 341l-52 -55q-31 -35 -47 -28q-6 3 -6 16l27 69q4 9 60 3q18 -3 18 -5z" />
    <glyph glyph-name="cedilla" unicode="&#xb8;" horiz-adv-x="242" 
d="M75 -140q-11 -26 8 -44q21 -21 50 11q18 21 33 58q9 25 -3.5 40t-33 21t-37.5 19.5t-14 34.5q2 16 28 19t27 -12q0 -3 -1 -7q-7 -23 6 -37.5t32 -21.5t30.5 -23t2.5 -40q-30 -81 -81 -87q-34 -4 -52 24q-15 24 0 49q2 2 5 1q1 -1 1 -2.5t-1 -2.5z" />
    <glyph glyph-name="questiondown" unicode="&#xbf;" horiz-adv-x="389" 
d="M294 537l61 -27q-2 -60 -25 -114.5t-58 -95t-70.5 -73.5t-70.5 -66t-50 -56q-55 -76 -31 -157.5t89 -101.5t133 29q43 43 44 101.5t-34.5 96t-88.5 27.5q-49 -10 -71 -52t10 -86q3 -5 -3 -8q-5 -2 -8 3q-31 56 -6.5 101t78.5 55q44 8 82 -14.5t56.5 -60t13 -85
t-41.5 -83.5q-45 -45 -98 -59t-98.5 -1.5t-81 45.5t-51 77t-3 98.5t57.5 103.5q26 29 68.5 63t73 59.5t61 63t46.5 91.5t16 126zM320 593q-1 1 6.5 13t16.5 25.5t10 16.5q14 30 29 14q16 -17 9 -53q-6 -32 -20 -33.5t-51 17.5z" />
    <glyph glyph-name="Agrave" unicode="&#xc0;" horiz-adv-x="1021" 
d="M204 -123q34 16 40.5 54t-17 72t-65.5 39q-70 9 -109 -54.5t-14.5 -136.5t108.5 -88q90 -15 207 39q180 85 325 290q-52 7 -78.5 10t-71 3t-71 -9t-55.5 -30.5t-47 -56.5q-2 -6 -7 -4q-5 4 -4 8q17 34 39.5 57.5t53 35.5t56.5 18t67 4.5t65.5 -4t69.5 -8.5q26 36 55 86
q33 55 85 153q4 85 26.5 170t55 136.5t63.5 39.5q35 -13 -78 -239q-9 -48 -12 -143.5t3 -203.5q56 16 81 71q1 3 4.5 3.5t5 -2t0.5 -5.5q-27 -70 -90 -91q8 -135 32.5 -221.5t67.5 -84.5q74 3 163 189q1 2 3 3t4 0q5 -2 3 -7q-93 -203 -174 -204q-40 -1 -70.5 25.5t-48 74
t-27 99t-14.5 114.5q-49 -2 -141 11q-155 -220 -348 -305q-113 -48 -202 -34q-102 16 -133 98.5t16.5 152t137.5 55.5q48 -7 73.5 -46.5t17 -82.5t-46.5 -61q-5 -2 -7 3t3 7zM832 106q-7 121 3 224q-19 -35 -45.5 -82.5t-28.5 -51.5q-30 -51 -51 -81q74 -10 122 -9zM903 488
q44 90 61 141q18 54 10 54q-9 -2 -31 -52q-19 -44 -40 -143zM939 891q2 0 14.5 -31t25 -63t14.5 -34q9 -18 -13 1q-6 4 -85 81q-4 3 -6 5q-24 23 -6 37q17 14 56 4z" />
    <glyph glyph-name="Aacute" unicode="&#xc1;" horiz-adv-x="1021" 
d="M204 -123q-5 -2 -3 -7t7 -3q38 18 46.5 61t-17 82.5t-73.5 46.5q-90 14 -137.5 -55.5t-16.5 -152t133 -98.5q89 -14 202 34q193 85 348 305q92 -13 141 -11q5 -63 14.5 -114.5t27 -99t48 -74t70.5 -25.5q81 1 174 204q2 5 -3 7q-5 5 -7 -3q-89 -186 -163 -189
q-43 -2 -67.5 84.5t-32.5 221.5q63 21 90 91q1 3 -0.5 5.5t-5 2t-4.5 -3.5q-25 -55 -81 -71q-6 108 -3 203.5t12 143.5q113 226 78 239q-31 12 -63.5 -39.5t-55 -136.5t-26.5 -170q-52 -98 -85 -153q-29 -50 -55 -86q-45 6 -69.5 8.5t-65.5 4t-67 -4.5t-56.5 -18t-53 -35.5
t-39.5 -57.5q-1 -4 4 -8q5 -2 7 4q18 35 47 56.5t55.5 30.5t71 9t71 -3t78.5 -10q-145 -205 -325 -290q-117 -54 -207 -39q-84 15 -108.5 88t14.5 136.5t109 54.5q42 -5 65.5 -39t17 -72t-40.5 -54zM832 106q-48 -1 -122 9q21 30 51 81q2 4 28.5 51.5t45.5 82.5
q-10 -103 -3 -224zM903 488q21 99 40 143q23 51 31 52q8 0 -9 -52q-1 -1 -1 -2q-17 -51 -61 -141zM1012 880q50 12 65 -8q12 -14 -13 -32q-119 -90 -132 -86q-3 1 3 9q3 2 39 59t38 58z" />
    <glyph glyph-name="Acircumflex" unicode="&#xc2;" horiz-adv-x="1021" 
d="M204 -123q34 16 40.5 54t-17 72t-65.5 39q-70 9 -109 -54.5t-14.5 -136.5t108.5 -88q90 -15 207 39q180 85 325 290q-52 7 -78.5 10t-71 3t-71 -9t-55.5 -30.5t-47 -56.5q-2 -6 -7 -4q-5 4 -4 8q17 34 39.5 57.5t53 35.5t56.5 18t67 4.5t65.5 -4t69.5 -8.5q26 36 55 86
q33 55 85 153q4 85 26.5 170t55 136.5t63.5 39.5q35 -13 -78 -239q-9 -48 -12 -143.5t3 -203.5q56 16 81 71q1 3 4.5 3.5t5 -2t0.5 -5.5q-27 -70 -90 -91q8 -135 32.5 -221.5t67.5 -84.5q74 3 163 189q1 2 3 3t4 0q5 -2 3 -7q-93 -203 -174 -204q-40 -1 -70.5 25.5t-48 74
t-27 99t-14.5 114.5q-49 -2 -141 11q-155 -220 -348 -305q-113 -48 -202 -34q-102 16 -133 98.5t16.5 152t137.5 55.5q48 -7 73.5 -46.5t17 -82.5t-46.5 -61q-5 -2 -7 3t3 7zM832 106q-7 121 3 224q-19 -35 -45.5 -82.5t-28.5 -51.5q-30 -51 -51 -81q74 -10 122 -9zM903 488
q44 90 61 141q18 54 10 54q-9 -2 -31 -52q-19 -44 -40 -143zM986 885q21 10 53 2q1 0 12 -30t21.5 -61.5t12.5 -33.5q9 -20 -13 -1q-26 22 -72 73q-85 -64 -122 -82q-15 -6 -1 8q4 3 57 64z" />
    <glyph glyph-name="Atilde" unicode="&#xc3;" horiz-adv-x="1021" 
d="M204 -123q-5 -2 -3 -7t7 -3q38 18 46.5 61t-17 82.5t-73.5 46.5q-90 14 -137.5 -55.5t-16.5 -152t133 -98.5q89 -14 202 34q193 85 348 305q92 -13 141 -11q5 -63 14.5 -114.5t27 -99t48 -74t70.5 -25.5q81 1 174 204q2 5 -3 7q-5 5 -7 -3q-89 -186 -163 -189
q-43 -2 -67.5 84.5t-32.5 221.5q63 21 90 91q1 3 -0.5 5.5t-5 2t-4.5 -3.5q-25 -55 -81 -71q-6 108 -3 203.5t12 143.5q113 226 78 239q-31 12 -63.5 -39.5t-55 -136.5t-26.5 -170q-52 -98 -85 -153q-29 -50 -55 -86q-45 6 -69.5 8.5t-65.5 4t-67 -4.5t-56.5 -18t-53 -35.5
t-39.5 -57.5q-1 -4 4 -8q5 -2 7 4q18 35 47 56.5t55.5 30.5t71 9t71 -3t78.5 -10q-145 -205 -325 -290q-117 -54 -207 -39q-84 15 -108.5 88t14.5 136.5t109 54.5q42 -5 65.5 -39t17 -72t-40.5 -54zM832 106q-48 -1 -122 9q21 30 51 81q2 4 28.5 51.5t45.5 82.5
q-10 -103 -3 -224zM903 488q21 99 40 143q23 51 31 52q8 0 -9 -52q-1 -1 -1 -2q-17 -51 -61 -141zM1102 843q-16 -45 -37 -63.5t-41 -13t-42.5 15.5t-41 20.5t-36.5 3.5t-29 -37q-5 -6 -10 0q-2 4 0 6q16 37 35 55t37.5 18.5t37 -5.5t36 -15t32.5 -14t27.5 2t19.5 29
q9 5 12 -2z" />
    <glyph glyph-name="Adieresis" unicode="&#xc4;" horiz-adv-x="1021" 
d="M204 -123q34 16 40.5 54t-17 72t-65.5 39q-70 9 -109 -54.5t-14.5 -136.5t108.5 -88q90 -15 207 39q180 85 325 290q-52 7 -78.5 10t-71 3t-71 -9t-55.5 -30.5t-47 -56.5q-2 -6 -7 -4q-5 4 -4 8q17 34 39.5 57.5t53 35.5t56.5 18t67 4.5t65.5 -4t69.5 -8.5q26 36 55 86
q33 55 85 153q4 85 26.5 170t55 136.5t63.5 39.5q35 -13 -78 -239q-9 -48 -12 -143.5t3 -203.5q56 16 81 71q1 3 4.5 3.5t5 -2t0.5 -5.5q-27 -70 -90 -91q8 -135 32.5 -221.5t67.5 -84.5q74 3 163 189q1 2 3 3t4 0q5 -2 3 -7q-93 -203 -174 -204q-40 -1 -70.5 25.5t-48 74
t-27 99t-14.5 114.5q-49 -2 -141 11q-155 -220 -348 -305q-113 -48 -202 -34q-102 16 -133 98.5t16.5 152t137.5 55.5q48 -7 73.5 -46.5t17 -82.5t-46.5 -61q-5 -2 -7 3t3 7zM832 106q-7 121 3 224q-19 -35 -45.5 -82.5t-28.5 -51.5q-30 -51 -51 -81q74 -10 122 -9zM903 488
q44 90 61 141q18 54 10 54q-9 -2 -31 -52q-19 -44 -40 -143zM953 824q1 -1 -6.5 -13t-16.5 -25.5t-10 -16.5q-14 -30 -29 -14q-16 17 -9 53q6 32 20 33.5t51 -17.5zM1056 824q1 -1 -6.5 -13t-16.5 -25.5t-10 -16.5q-14 -30 -29 -14q-16 17 -9 53q6 32 20 33.5t51 -17.5z" />
    <glyph glyph-name="Aring" unicode="&#xc5;" horiz-adv-x="1021" 
d="M1031 907q31 0 34.5 -46.5t-19.5 -100.5t-57 -72q5 -45 -86 -226q-9 -48 -12 -143.5t3 -203.5q56 16 81 71q1 3 4.5 3.5t5 -2t0.5 -5.5q-27 -70 -90 -91q8 -135 32.5 -221.5t67.5 -84.5q74 3 163 189q1 2 3 3t4 0q5 -2 3 -7q-93 -203 -174 -204q-40 -1 -70.5 25.5t-48 74
t-27 99t-14.5 114.5q-49 -2 -141 11q-155 -220 -348 -305q-113 -48 -202 -34q-102 16 -133 98.5t16.5 152t137.5 55.5q48 -7 73.5 -46.5t17 -82.5t-46.5 -61q-5 -2 -7 3t3 7q34 16 40.5 54t-17 72t-65.5 39q-70 9 -109 -54.5t-14.5 -136.5t108.5 -88q90 -15 207 39
q180 85 325 290q-52 7 -78.5 10t-71 3t-71 -9t-55.5 -30.5t-47 -56.5q-2 -6 -7 -4q-5 4 -4 8q17 34 39.5 57.5t53 35.5t56.5 18t67 4.5t65.5 -4t69.5 -8.5q26 36 55 86q33 55 85 153q5 102 36 202t69 133q-16 16 -13.5 52t13.5 73t36 64.5t54 27.5zM1031 897
q-32 1 -59.5 -80.5t-17.5 -117.5q14 6 27 2q4 -1 6 -7q28 16 50.5 67.5t21.5 90t-28 45.5zM832 106q-7 121 3 224q-19 -35 -45.5 -82.5t-28.5 -51.5q-30 -51 -51 -81q74 -10 122 -9zM903 488q44 90 61 141t11 53h-2q-10 -7 -30 -51q-19 -44 -40 -143z" />
    <glyph glyph-name="Ccedilla" unicode="&#xc7;" horiz-adv-x="685" 
d="M236 -385q-11 -26 8 -44q21 -21 50 11q18 20 33 58q9 25 -3.5 40t-33 21t-37.5 19.5t-14 34.5v2q-65 15 -97.5 78t-32 146.5t18 168.5t47.5 156q-121 -7 -160 69q-34 65 10 150q48 94 159 141q52 22 111 29q4 0 6 -5q0 -6 -5 -6q-140 -17 -215 -114q-58 -75 -45 -149
q13 -69 82 -87q29 -8 66 -5q98 215 262 315q108 66 192 54q59 -9 64 -53q5 -36 -33 -84q-55 -70 -185 -143.5t-240 -100.5q-18 -37 -35.5 -98.5t-28.5 -135t-9.5 -139.5t27 -113.5t74.5 -55.5q7 0 10 -1q5 -1 15 -1q90 3 163.5 70t128.5 163q3 5 8 3q5 -3 2 -8
q-138 -239 -300 -249h-7q-6 -21 7.5 -35.5t32 -21t30 -22.5t2.5 -40q-30 -81 -81 -87q-34 -4 -52 24q-15 24 0 49q2 2 5 1q2 -2 0 -5zM254 338q110 29 232 96.5t174 133.5q50 64 17 93q-33 28 -113 -2q-119 -44 -223 -180q-49 -64 -87 -141z" />
    <glyph glyph-name="Egrave" unicode="&#xc8;" horiz-adv-x="665" 
d="M296 677q-85 -11 -151 -53t-95 -118q-16 -46 -12.5 -81t26 -59t56 -35.5t77 -9t88.5 18.5q-32 90 29.5 182t162.5 143q100 43 158 24t43 -90.5t-106 -138.5q-105 -77 -262 -129q9 -25 28 -42q108 25 143 -8q18 -18 0 -35q-26 -25 -83 -5q-10 3 -20 8q-22 9 -40 22
q-56 -20 -97 -85t-62 -151q-14 -49 -11 -92t14.5 -80.5t37.5 -61t57.5 -33t74.5 3.5t89 48q92 71 148 180q3 5 8 3q6 -2 2 -8q-63 -120 -152 -189q-52 -40 -103 -55.5t-91 -6.5t-74 34t-52 65.5t-25 89t8 104.5q20 84 78 153.5t133 94.5q-21 21 -28 38h-1q-52 -21 -111 -24
t-107.5 15.5t-66.5 64t12 122.5q32 79 107.5 128.5t168.5 58.5q6 0 6 -5q1 -6 -5 -6zM305 347q147 48 251 122q78 55 90 118q10 49 -27 62q-41 14 -114 -30q-34 -21 -68 -48.5t-69 -64.5t-53 -79t-10 -80zM354 277h1q29 -17 54.5 -24t39 -4.5t19.5 9.5q10 13 -13 23
q-34 14 -101 -4zM547 879q2 0 14.5 -31t25 -63t14.5 -34q9 -18 -13 1q-6 4 -85 81q-4 3 -6 5q-24 23 -6 37q17 14 56 4z" />
    <glyph glyph-name="Eacute" unicode="&#xc9;" horiz-adv-x="665" 
d="M296 677q6 0 5 6q0 5 -6 5q-93 -9 -168.5 -58.5t-107.5 -128.5q-30 -77 -12 -122.5t66.5 -64t107.5 -15.5t111 24h1q7 -17 28 -38q-75 -25 -133 -94.5t-78 -153.5q-15 -56 -8 -104.5t25 -89t52 -65.5t74 -34t91 6.5t103 55.5q89 69 152 189q4 6 -2 8q-5 2 -8 -3
q-56 -109 -148 -180q-46 -35 -89 -48t-74.5 -3.5t-57.5 33t-37.5 61t-14.5 80.5t11 92q21 86 62 151t97 85q18 -13 40 -22q61 -29 96 -8q24 14 12 34q-20 32 -102 22q-21 -2 -46 -8q-19 17 -28 42q157 52 262 129q91 67 106 138.5t-43 90.5t-158 -24q-101 -51 -162.5 -143
t-29.5 -182q-57 -20 -109.5 -18.5t-87 24t-47.5 63t9 97.5q29 76 95 118t151 53zM305 347q-8 38 10 80t53 79t69 64.5t68 48.5q88 54 127 23q30 -25 6 -80q-23 -51 -82 -93q-104 -74 -251 -122zM354 277q83 23 111 -2q9 -8 3 -17q-6 -7 -19.5 -9.5t-39 4.5t-54.5 24h-1z
M611 878q50 12 65 -8q12 -14 -13 -32q-119 -90 -132 -86q-3 1 3 9q3 2 39 59t38 58z" />
    <glyph glyph-name="Ecircumflex" unicode="&#xca;" horiz-adv-x="665" 
d="M296 677q-85 -11 -151 -53t-95 -118q-16 -46 -12.5 -81t26 -59t56 -35.5t77 -9t88.5 18.5q-32 90 29.5 182t162.5 143q100 43 158 24t43 -90.5t-106 -138.5q-105 -77 -262 -129q9 -25 28 -42q108 25 143 -8q18 -18 0 -35q-26 -25 -83 -5q-10 3 -20 8q-22 9 -40 22
q-56 -20 -97 -85t-62 -151q-14 -49 -11 -92t14.5 -80.5t37.5 -61t57.5 -33t74.5 3.5t89 48q92 71 148 180q3 5 8 3q6 -2 2 -8q-63 -120 -152 -189q-52 -40 -103 -55.5t-91 -6.5t-74 34t-52 65.5t-25 89t8 104.5q20 84 78 153.5t133 94.5q-21 21 -28 38h-1q-52 -21 -111 -24
t-107.5 15.5t-66.5 64t12 122.5q32 79 107.5 128.5t168.5 58.5q6 0 6 -5q1 -6 -5 -6zM305 347q147 48 251 122q78 55 90 118q10 49 -27 62q-41 14 -114 -30q-34 -21 -68 -48.5t-69 -64.5t-53 -79t-10 -80zM354 277h1q29 -17 54.5 -24t39 -4.5t19.5 9.5q10 13 -13 23
q-34 14 -101 -4zM579 874q21 10 53 2q1 0 12 -30t21.5 -61.5t12.5 -33.5q9 -20 -13 -1q-26 21 -72 73q-85 -64 -122 -82q-15 -6 -1 8q4 3 56 64z" />
    <glyph glyph-name="Edieresis" unicode="&#xcb;" horiz-adv-x="665" 
d="M296 677q-85 -11 -151 -53t-95 -118q-16 -46 -12.5 -81t26 -59t56 -35.5t77 -9t88.5 18.5q-32 90 29.5 182t162.5 143q100 43 158 24t43 -90.5t-106 -138.5q-105 -77 -262 -129q9 -25 28 -42q108 25 143 -8q18 -18 0 -35q-26 -25 -83 -5q-10 3 -20 8q-22 9 -40 22
q-56 -20 -97 -85t-62 -151q-14 -49 -11 -92t14.5 -80.5t37.5 -61t57.5 -33t74.5 3.5t89 48q92 71 148 180q3 5 8 3q6 -2 2 -8q-63 -120 -152 -189q-52 -40 -103 -55.5t-91 -6.5t-74 34t-52 65.5t-25 89t8 104.5q20 84 78 153.5t133 94.5q-21 21 -28 38h-1q-52 -21 -111 -24
t-107.5 15.5t-66.5 64t12 122.5q32 79 107.5 128.5t168.5 58.5q6 0 6 -5q1 -6 -5 -6zM305 347q147 48 251 122q78 55 90 118q10 49 -27 62q-41 14 -114 -30q-34 -21 -68 -48.5t-69 -64.5t-53 -79t-10 -80zM354 277h1q29 -17 54.5 -24t39 -4.5t19.5 9.5q10 13 -13 23
q-34 14 -101 -4zM463 828q1 -1 -6.5 -13t-16.5 -25.5t-10 -16.5q-14 -30 -29 -14q-16 17 -9 53q6 32 20 33.5t51 -17.5zM566 828q1 -1 -6.5 -13t-16.5 -25.5t-10 -16.5q-14 -30 -29 -14q-16 17 -9 53q6 32 20 33.5t51 -17.5z" />
    <glyph glyph-name="Igrave" unicode="&#xcc;" horiz-adv-x="659" 
d="M557 354q-58 -85 -125 -92q-58 -6 -86.5 36t-11.5 100q13 47 48 82.5t79 58.5t88.5 43.5t86 47.5t63.5 59l69 11q-15 -43 -97 -253t-114 -305q-19 -56 -42.5 -106.5t-59 -104t-76 -91.5t-95.5 -60.5t-115 -19.5q-64 4 -105 35t-56 77q-11 41 -5.5 77.5t28 64t50.5 43.5
t62.5 15t64.5 -22q45 -31 49 -81.5t-47 -90.5q-4 -4 -9 2q-3 4 1 7q47 27 44 75t-44 76q-33 23 -70 17t-61.5 -34.5t-36 -69t4.5 -86.5q13 -38 45.5 -64t83.5 -30q49 -4 95 21.5t79.5 65t64.5 94.5t49.5 99t33.5 90q34 105 181 478q-30 -20 -84 -41.5t-93 -37.5t-76.5 -54.5
t-51.5 -95.5q-10 -43 8 -72.5t63 -33.5q54 -5 109 75q3 5 8 3t3 -8zM716 879q2 0 14.5 -31t25 -63t14.5 -34q9 -18 -13 1q-6 4 -85 81q-4 3 -6 5q-24 23 -6 37q17 14 56 4z" />
    <glyph glyph-name="Iacute" unicode="&#xcd;" horiz-adv-x="659" 
d="M557 354q2 6 -3 8t-8 -3q-55 -80 -109 -75q-45 4 -63 33.5t-8 72.5q14 57 51.5 95.5t76.5 54.5t93 37.5t84 41.5q-147 -373 -181 -478q-15 -46 -33.5 -90t-49.5 -99t-64.5 -94.5t-79.5 -65t-95 -21.5q-51 4 -83.5 30t-45.5 64q-14 43 -4.5 86.5t36 69t61.5 34.5t70 -17
q41 -28 44 -76t-44 -75q-5 -3 1 -8q4 -4 7 -1q51 40 47 90.5t-49 81.5q-37 26 -80.5 21.5t-74 -33t-46.5 -71.5t1 -95q15 -46 56 -77t105 -35q60 -3 115 19.5t95.5 60.5t76 91.5t59 104t42.5 106.5q32 95 114 305t97 253l-69 -11q-22 -32 -63.5 -59t-86 -47.5t-88.5 -43.5
t-79 -58.5t-48 -82.5q-17 -58 11.5 -100t86.5 -36q67 7 125 92zM783 878q50 12 65 -8q12 -14 -13 -32q-119 -90 -132 -86q-3 1 3 9q3 2 39 59t38 58z" />
    <glyph glyph-name="Icircumflex" unicode="&#xce;" horiz-adv-x="659" 
d="M557 354q-58 -85 -125 -92q-58 -6 -86.5 36t-11.5 100q13 47 48 82.5t79 58.5t88.5 43.5t86 47.5t63.5 59l69 11q-15 -43 -97 -253t-114 -305q-19 -56 -42.5 -106.5t-59 -104t-76 -91.5t-95.5 -60.5t-115 -19.5q-64 4 -105 35t-56 77q-11 41 -5.5 77.5t28 64t50.5 43.5
t62.5 15t64.5 -22q45 -31 49 -81.5t-47 -90.5q-4 -4 -9 2q-3 4 1 7q47 27 44 75t-44 76q-33 23 -70 17t-61.5 -34.5t-36 -69t4.5 -86.5q13 -38 45.5 -64t83.5 -30q49 -4 95 21.5t79.5 65t64.5 94.5t49.5 99t33.5 90q34 105 181 478q-30 -20 -84 -41.5t-93 -37.5t-76.5 -54.5
t-51.5 -95.5q-10 -43 8 -72.5t63 -33.5q54 -5 109 75q3 5 8 3t3 -8zM556 776q-49 -11 -61 7q-8 14 18 30q86 61 127 78l2 -2q1 -2 3 -4q-3 -2 -45 -55t-44 -54zM734 776q-2 1 -44 54t-45 55l4 6q33 -13 128 -78q31 -20 15 -33t-58 -4zM645 893q4 1 4 -2q-2 2 -4 2
q-5 1 -5 -2q4 2 5 2z" />
    <glyph glyph-name="Idieresis" unicode="&#xcf;" horiz-adv-x="659" 
d="M557 354q-58 -85 -125 -92q-58 -6 -86.5 36t-11.5 100q13 47 48 82.5t79 58.5t88.5 43.5t86 47.5t63.5 59l69 11q-15 -43 -97 -253t-114 -305q-19 -56 -42.5 -106.5t-59 -104t-76 -91.5t-95.5 -60.5t-115 -19.5q-64 4 -105 35t-56 77q-11 41 -5.5 77.5t28 64t50.5 43.5
t62.5 15t64.5 -22q45 -31 49 -81.5t-47 -90.5q-4 -4 -9 2q-3 4 1 7q47 27 44 75t-44 76q-33 23 -70 17t-61.5 -34.5t-36 -69t4.5 -86.5q13 -38 45.5 -64t83.5 -30q49 -4 95 21.5t79.5 65t64.5 94.5t49.5 99t33.5 90q34 105 181 478q-30 -20 -84 -41.5t-93 -37.5t-76.5 -54.5
t-51.5 -95.5q-10 -43 8 -72.5t63 -33.5q54 -5 109 75q3 5 8 3t3 -8zM665 845q1 -1 -6.5 -13t-16.5 -25.5t-10 -16.5q-14 -30 -29 -14q-16 17 -9 53q6 32 20 33.5t51 -17.5zM768 845q1 -1 -6.5 -13t-16.5 -25.5t-10 -16.5q-14 -30 -29 -14q-16 17 -9 53q6 32 20 33.5
t51 -17.5z" />
    <glyph glyph-name="Eth" unicode="&#xd0;" horiz-adv-x="889" 
d="M316 84l-128 1q-8 -1 0 45q3 17 6 16l144 -1l153 435q2 0 5.5 1t12.5 2.5t17 3t16.5 2.5t13.5 1l4 1l-158 -447l187 -1q4 -3 2 -16.5t-7.5 -29t-8.5 -15.5l-194 1l-74 -209q90 -44 158 -41q107 4 182 134q76 130 80 306q4 193 -86 308q-98 125 -280 103
q-157 -20 -245 -118q-45 -50 -66.5 -114t-10.5 -131q11 -65 51.5 -95t94.5 -21q51 8 92 47t55 104q2 7 8 1q3 -3 2 -7q-16 -69 -58.5 -110t-99.5 -52q-66 -14 -113 10q-60 31 -69 115q-10 82 31 162t116 137q97 73 215 84q249 23 365 -144q90 -128 75 -321
q-14 -172 -101 -296q-90 -130 -213 -128h-2q-80 3 -186 57q-25 -67 -65.5 -99t-77.5 -28t-67.5 27.5t-39.5 58.5q-9 33 11.5 60.5t67.5 35.5t120 -21zM246 -113q-62 29 -98.5 18.5t-52 -35t-13.5 -53.5q2 -36 34 -49q44 -17 86 36q25 31 44 83z" />
    <glyph glyph-name="Ntilde" unicode="&#xd1;" horiz-adv-x="1114" 
d="M202 -131q-4 -6 -1 -9q5 -4 9 0q48 31 45.5 85.5t-41.5 82.5q-26 18 -59.5 22t-69 -10.5t-58.5 -47.5q-28 -44 -27 -92t24 -86q26 -42 77.5 -61t110.5 -13.5t116 29.5q159 69 298.5 228t208.5 333q17 -187 71 -399q-37 -97 -8 -157q17 -36 42 -27q34 12 37 95
q3 77 -28 193q19 67 44.5 139t66 158.5t85.5 156.5t105 125.5t122 73.5q4 1 4 8q-2 6 -7 4q-64 -18 -125 -71.5t-105.5 -120t-85.5 -151.5t-66 -153.5t-45 -137.5q-53 288 -53 401q29 60 35 116t-5.5 86t-31.5 31q-20 2 -36.5 -30t-24.5 -105.5t5 -193.5
q-76 -193 -209.5 -354.5t-295.5 -234.5q-47 -21 -101.5 -26t-105 12.5t-73.5 58.5q-17 29 -15.5 72.5t20.5 74.5q28 45 72.5 57t80.5 -13q33 -21 37.5 -69.5t-39.5 -79.5zM882 496q-4 35 -4.5 64.5t1 49t4.5 32.5t7 19t8 5q7 -2 10.5 -22t-2.5 -60.5t-24 -87.5zM914 -85
q29 -130 9 -143q-3 -2 -6 0q-7 5 -12 19t-4 47.5t13 76.5zM1236 828q-21 -45 -48 -63t-53.5 -12t-55 16.5t-53 21t-47.5 2.5t-38 -40q-7 -6 -16 2q-4 3 -1 5q28 55 63.5 71t67.5 3.5t61.5 -28t54.5 -13.5t38 37q12 6 27 -2z" />
    <glyph glyph-name="Ograve" unicode="&#xd2;" horiz-adv-x="812" 
d="M309 676q-130 -15 -210 -126q-67 -95 -62 -201q5 -105 83 -145q53 -28 131 -17q13 48 39.5 111.5t68 137.5t88 134.5t104 98t112.5 31.5q32 -3 48 -25t15 -50t-7 -56q41 -23 54 -95q13 -79 -11 -193.5t-73 -223.5t-125.5 -195.5t-157.5 -107.5q-48 -14 -82.5 -4.5
t-56.5 29.5t-34.5 55t-16 70.5t-1.5 76.5q5 90 30 184q-131 -17 -199 71q-59 77 -42 186q18 120 118 194q77 58 186 71q6 2 6 -5q2 -6 -5 -6zM310 179q-9 -35 -17 -76.5t-14 -93.5t-3 -97.5t14.5 -82.5t40.5 -53t73 -5q79 21 153.5 105t122 189.5t71 217.5t10.5 189
q-10 64 -45 86q-43 -138 -150 -233t-256 -146zM317 203q51 13 107 42.5t112 74t102 108.5t68 135q-35 14 -80 -6.5t-84 -60.5q-74 -76 -125 -199q-2 -5 -7 -3q-6 2 -3 7q57 139 141 217q40 37 83.5 53t77.5 3q24 97 -44 107q-44 6 -102.5 -52t-108 -142t-87.5 -162.5
t-50 -121.5zM641 888q2 0 14.5 -31t25 -63t14.5 -34q9 -18 -13 1q-6 4 -85 81q-4 3 -6 5q-24 23 -6 37q17 14 56 4z" />
    <glyph glyph-name="Oacute" unicode="&#xd3;" horiz-adv-x="812" 
d="M309 676q7 0 5 6q0 7 -6 5q-171 -20 -255 -142q-67 -96 -50 -206q16 -103 96 -150q62 -35 146 -24q-25 -94 -30 -184q-2 -41 1.5 -76.5t16 -70.5t34.5 -55t56.5 -29.5t82.5 4.5q81 21 157.5 107.5t125.5 195.5t73 223.5t11 193.5q-13 72 -54 95q6 28 7 56t-15 50t-48 25
q-55 6 -112.5 -31.5t-104 -98t-88 -134.5t-68 -137.5t-39.5 -111.5q-135 -20 -189 72q-45 78 -13 188q34 114 127 179q60 42 133 50zM310 179q149 51 256 146t150 233q35 -22 45 -86q13 -77 -10.5 -189t-71 -217.5t-122 -189.5t-153.5 -105q-44 -11 -73 5t-40.5 53
t-14.5 82.5t3 97.5t14 93.5t17 76.5zM317 203q12 43 50 121.5t87.5 162.5t108 142t102.5 52q68 -10 44 -107q-34 13 -77.5 -3t-83.5 -53q-84 -78 -141 -217q-3 -5 3 -7q5 -2 7 3q51 123 125 199q39 40 84 60.5t80 6.5q-22 -71 -68 -135t-102 -108.5t-112 -74t-107 -42.5z
M673 878q50 12 65 -8q12 -14 -13 -32q-119 -90 -132 -86q-3 1 3 9q3 2 39 59t38 58z" />
    <glyph glyph-name="Ocircumflex" unicode="&#xd4;" horiz-adv-x="812" 
d="M309 676q-130 -15 -210 -126q-67 -95 -62 -201q5 -105 83 -145q53 -28 131 -17q13 48 39.5 111.5t68 137.5t88 134.5t104 98t112.5 31.5q32 -3 48 -25t15 -50t-7 -56q41 -23 54 -95q13 -79 -11 -193.5t-73 -223.5t-125.5 -195.5t-157.5 -107.5q-48 -14 -82.5 -4.5
t-56.5 29.5t-34.5 55t-16 70.5t-1.5 76.5q5 90 30 184q-131 -17 -199 71q-59 77 -42 186q18 120 118 194q77 58 186 71q6 2 6 -5q2 -6 -5 -6zM310 179q-9 -35 -17 -76.5t-14 -93.5t-3 -97.5t14.5 -82.5t40.5 -53t73 -5q79 21 153.5 105t122 189.5t71 217.5t10.5 189
q-10 64 -45 86q-43 -138 -150 -233t-256 -146zM317 203q51 13 107 42.5t112 74t102 108.5t68 135q-35 14 -80 -6.5t-84 -60.5q-74 -76 -125 -199q-2 -5 -7 -3q-6 2 -3 7q57 139 141 217q40 37 83.5 53t77.5 3q24 97 -44 107q-44 6 -102.5 -52t-108 -142t-87.5 -162.5
t-50 -121.5zM650 887q21 10 53 2q1 0 12 -30t21.5 -61.5t12.5 -33.5q9 -20 -13 -1q-26 21 -72 73q-85 -64 -122 -82q-15 -6 -1 8q4 3 57 64z" />
    <glyph glyph-name="Otilde" unicode="&#xd5;" horiz-adv-x="812" 
d="M309 676q7 0 5 6q0 7 -6 5q-171 -20 -255 -142q-67 -96 -50 -206q16 -103 96 -150q62 -35 146 -24q-25 -94 -30 -184q-2 -41 1.5 -76.5t16 -70.5t34.5 -55t56.5 -29.5t82.5 4.5q81 21 157.5 107.5t125.5 195.5t73 223.5t11 193.5q-13 72 -54 95q6 28 7 56t-15 50t-48 25
q-55 6 -112.5 -31.5t-104 -98t-88 -134.5t-68 -137.5t-39.5 -111.5q-135 -20 -189 72q-45 78 -13 188q34 114 127 179q60 42 133 50zM310 179q149 51 256 146t150 233q35 -22 45 -86q13 -77 -10.5 -189t-71 -217.5t-122 -189.5t-153.5 -105q-44 -11 -73 5t-40.5 53
t-14.5 82.5t3 97.5t14 93.5t17 76.5zM317 203q12 43 50 121.5t87.5 162.5t108 142t102.5 52q68 -10 44 -107q-34 13 -77.5 -3t-83.5 -53q-84 -78 -141 -217q-3 -5 3 -7q5 -2 7 3q51 123 125 199q39 40 84 60.5t80 6.5q-22 -71 -68 -135t-102 -108.5t-112 -74t-107 -42.5z
M801 843q-16 -45 -37 -63.5t-41 -13t-42.5 15.5t-41 20.5t-36.5 3.5t-29 -37q-5 -6 -10 0q-2 4 0 6q16 37 35 55t37.5 18.5t37 -5.5t36 -15t32.5 -14t27.5 2t19.5 29q9 5 12 -2z" />
    <glyph glyph-name="Odieresis" unicode="&#xd6;" horiz-adv-x="812" 
d="M309 676q-130 -15 -210 -126q-67 -95 -62 -201q5 -105 83 -145q53 -28 131 -17q13 48 39.5 111.5t68 137.5t88 134.5t104 98t112.5 31.5q32 -3 48 -25t15 -50t-7 -56q41 -23 54 -95q13 -79 -11 -193.5t-73 -223.5t-125.5 -195.5t-157.5 -107.5q-48 -14 -82.5 -4.5
t-56.5 29.5t-34.5 55t-16 70.5t-1.5 76.5q5 90 30 184q-131 -17 -199 71q-59 77 -42 186q18 120 118 194q77 58 186 71q6 2 6 -5q2 -6 -5 -6zM310 179q-9 -35 -17 -76.5t-14 -93.5t-3 -97.5t14.5 -82.5t40.5 -53t73 -5q79 21 153.5 105t122 189.5t71 217.5t10.5 189
q-10 64 -45 86q-43 -138 -150 -233t-256 -146zM317 203q51 13 107 42.5t112 74t102 108.5t68 135q-35 14 -80 -6.5t-84 -60.5q-74 -76 -125 -199q-2 -5 -7 -3q-6 2 -3 7q57 139 141 217q40 37 83.5 53t77.5 3q24 97 -44 107q-44 6 -102.5 -52t-108 -142t-87.5 -162.5
t-50 -121.5zM641 854q1 -1 -6.5 -13t-16.5 -25.5t-10 -16.5q-14 -30 -29 -14q-16 17 -9 53q6 32 20 33.5t51 -17.5zM744 854q1 -1 -6.5 -13t-16.5 -25.5t-10 -16.5q-14 -30 -29 -14q-16 17 -9 53q6 32 20 33.5t51 -17.5z" />
    <glyph glyph-name="multiply" unicode="&#xd7;" horiz-adv-x="433" 
d="M192 286l-74 148q-1 2 4.5 6t14.5 8.5t18 8.5t15.5 6t6.5 0l64 -130l126 121q4 3 12 -9t13.5 -25.5t3.5 -15.5l-129 -123l73 -147q2 -6 -28.5 -16t-32.5 -6l-62 122l-126 -121q-2 -3 -11.5 7.5t-17.5 23t-6 14.5z" />
    <glyph glyph-name="Ugrave" unicode="&#xd9;" horiz-adv-x="996" 
d="M687 -21q-83 -154 -188 -197q-47 -19 -84 -22.5t-59.5 9.5t-38.5 33.5t-20.5 53.5t-6.5 64.5t4.5 73t11.5 72t15 68t15 55l11 38.5q3 10 13 39q79 232 70 333q-11 123 -137 97q-49 -10 -104 -63t-91.5 -123t-47.5 -144t29 -126q16 -22 53 -30t77.5 1t77 47.5t48.5 100.5
q1 5 6 3q3 -3 3 -6q-20 -104 -107 -152t-164 -6.5t-72 158.5q5 105 91 211t176 134q41 11 80 9.5t73.5 -24t52.5 -61.5q10 -22 14 -47t1.5 -55.5t-5.5 -55t-13.5 -63t-17 -59.5t-21 -65.5t-19.5 -61.5q-48 -158 -59 -231q-31 -202 80 -193q28 2 65 18q110 48 196 214
q8 48 28 123q37 133 95.5 297t108.5 243l69 12q-111 -227 -205 -538q-25 -82 -39 -149t-18.5 -122.5t9 -86t45.5 -29.5q76 3 163 190q3 5 8 2q5 -2 3 -7q-93 -195 -174 -204q-70 -8 -93 52t-8 170zM674 888q2 0 14.5 -31t25 -63t14.5 -34q9 -18 -13 1q-6 4 -85 81q-4 3 -6 5
q-24 23 -6 37q17 14 56 4z" />
    <glyph glyph-name="Uacute" unicode="&#xda;" horiz-adv-x="996" 
d="M687 -21q-15 -110 8 -170t93 -52q81 9 174 204q2 5 -3 7q-5 3 -8 -2q-87 -187 -163 -190q-32 -1 -45.5 29.5t-9 86t18.5 122.5t39 149q94 311 205 538l-69 -12q-50 -79 -108.5 -243t-95.5 -297q-20 -75 -28 -123q-86 -166 -196 -214q-155 -67 -152 105q2 94 64 295l2 6
q5 17 19.5 61.5t21 65.5t17 59.5t13.5 63t5.5 55t-1.5 55.5t-14 47q-18 39 -52.5 61.5t-73.5 24t-80 -9.5q-90 -28 -176 -134t-91 -211q-5 -117 72 -158.5t164 6.5t107 152q1 6 -5 7q-3 -2 -4 -4q-12 -62 -48.5 -100.5t-77 -47.5t-77.5 -1t-53 30q-40 52 -29 126t47.5 144
t91.5 123t104 63q223 47 84 -378q-6 -19 -17 -52q-10 -29 -13 -39l-11 -38.5t-15 -55t-15 -68t-11.5 -72t-4.5 -73t6.5 -64.5t20.5 -53.5t38.5 -33.5t59.5 -9.5t84 22.5q105 43 188 197zM740 878q50 12 65 -8q12 -14 -13 -32q-119 -90 -132 -86q-3 1 3 9q3 2 39 59t38 58z
" />
    <glyph glyph-name="Ucircumflex" unicode="&#xdb;" horiz-adv-x="996" 
d="M687 -21q-83 -154 -188 -197q-47 -19 -84 -22.5t-59.5 9.5t-38.5 33.5t-20.5 53.5t-6.5 64.5t4.5 73t11.5 72t15 68t15 55l11 38.5q3 10 13 39q79 232 70 333q-11 123 -137 97q-49 -10 -104 -63t-91.5 -123t-47.5 -144t29 -126q16 -22 53 -30t77.5 1t77 47.5t48.5 100.5
q1 5 6 3q3 -3 3 -6q-20 -104 -107 -152t-164 -6.5t-72 158.5q5 105 91 211t176 134q41 11 80 9.5t73.5 -24t52.5 -61.5q10 -22 14 -47t1.5 -55.5t-5.5 -55t-13.5 -63t-17 -59.5t-21 -65.5t-19.5 -61.5q-48 -158 -59 -231q-31 -202 80 -193q28 2 65 18q110 48 196 214
q8 48 28 123q37 133 95.5 297t108.5 243l69 12q-111 -227 -205 -538q-25 -82 -39 -149t-18.5 -122.5t9 -86t45.5 -29.5q76 3 163 190q3 5 8 2q5 -2 3 -7q-93 -195 -174 -204q-70 -8 -93 52t-8 170zM634 785q-49 -11 -61 7q-8 14 18 30q86 61 127 78l2 -2q1 -2 3 -4
q-3 -2 -45 -55t-44 -54zM812 785q-2 1 -44 54t-45 55l4 6q33 -13 128 -78q31 -20 15 -33t-58 -4zM723 902q4 1 4 -2q-2 2 -4 2q-5 1 -5 -2q4 2 5 2z" />
    <glyph glyph-name="Udieresis" unicode="&#xdc;" horiz-adv-x="996" 
d="M687 -21q-83 -154 -188 -197q-47 -19 -84 -22.5t-59.5 9.5t-38.5 33.5t-20.5 53.5t-6.5 64.5t4.5 73t11.5 72t15 68t15 55l11 38.5q3 10 13 39q79 232 70 333q-11 123 -137 97q-49 -10 -104 -63t-91.5 -123t-47.5 -144t29 -126q16 -22 53 -30t77.5 1t77 47.5t48.5 100.5
q1 5 6 3q3 -3 3 -6q-20 -104 -107 -152t-164 -6.5t-72 158.5q5 105 91 211t176 134q41 11 80 9.5t73.5 -24t52.5 -61.5q10 -22 14 -47t1.5 -55.5t-5.5 -55t-13.5 -63t-17 -59.5t-21 -65.5t-19.5 -61.5q-48 -158 -59 -231q-31 -202 80 -193q28 2 65 18q110 48 196 214
q8 48 28 123q37 133 95.5 297t108.5 243l69 12q-111 -227 -205 -538q-25 -82 -39 -149t-18.5 -122.5t9 -86t45.5 -29.5q76 3 163 190q3 5 8 2q5 -2 3 -7q-93 -195 -174 -204q-70 -8 -93 52t-8 170zM707 856q1 -1 -6.5 -13t-16.5 -25.5t-10 -16.5q-14 -30 -29 -14
q-16 17 -9 53q6 32 20 33.5t51 -17.5zM810 856q1 -1 -6.5 -13t-16.5 -25.5t-10 -16.5q-14 -30 -29 -14q-16 17 -9 53q6 32 20 33.5t51 -17.5z" />
    <glyph glyph-name="Yacute" unicode="&#xdd;" horiz-adv-x="1121" 
d="M924 691q-26 -68 -95 -241.5t-105 -268.5q-112 -188 -229 -248q-150 -77 -148 41q1 58 54 209q9 24 12 35q5 17 19.5 61.5t21 65.5t17 59.5t13.5 63t5.5 55t-1.5 55.5t-14 47q-18 39 -52.5 61.5t-73.5 24t-80 -9.5q-90 -28 -176 -134t-91 -211q-5 -117 72 -158.5t164 6.5
t107 152q1 6 -5 7q-3 -2 -4 -4q-12 -62 -48.5 -100.5t-77 -47.5t-77.5 -1t-53 30q-40 52 -29 126t47.5 144t91.5 123t104 63q223 47 84 -378q-6 -19 -17 -52q-10 -29 -13 -39q-37 -122 -38 -125q-64 -245 72 -235q46 3 114 36q101 49 202 204q-31 -84 -63 -179
q-15 -47 -33.5 -91t-49.5 -99.5t-65 -94.5t-80.5 -64t-96.5 -20q-60 6 -92 39.5t-39 81.5q-11 71 35.5 126t112.5 31q52 -20 63 -76.5t-42 -86.5q-5 -2 -1 -6.5t9 -1.5q39 27 45.5 66t-14.5 72t-58 47q-51 19 -98.5 -3.5t-70.5 -73.5t-8 -106q12 -49 52 -82.5t105 -38.5
q76 -6 142 27.5t114 95t80.5 124t57.5 135.5q32 94 154 411.5t137 362.5zM740 878q50 12 65 -8q12 -14 -13 -32q-119 -90 -132 -86q-3 1 3 9q3 2 39 59t38 58z" />
    <glyph glyph-name="germandbls" unicode="&#xdf;" horiz-adv-x="437" 
d="M209 29q66 3 87 55.5t1.5 120.5t-62.5 125q-28 49 -31.5 90t17 76t43.5 59t62 58.5t58 55.5q37 42 16 60q-23 18 -79 -12q-95 -51 -167 -191l-26 -54q-26 -61 -53.5 -135.5t-47.5 -135.5t-44 -141t-36 -122.5t-31 -111.5t-22 -80q-79 -290 -32 -296q14 -2 36 20.5
t45.5 67.5t43.5 102.5t30.5 135.5t5.5 158h17q6 -109 -13.5 -208.5t-52 -162t-65 -101t-55.5 -42.5q-21 -4 -36 6t-22.5 51t1 111.5t42 201t92.5 306.5q5 16 26 76t55.5 159t59.5 171q61 177 187 245q83 44 150 23q50 -15 52 -56q1 -38 -47 -81q-26 -23 -60.5 -52
t-48.5 -40.5t-30 -30.5t-18 -29.5t0 -30t12.5 -39.5t30.5 -52q38 -44 58.5 -105.5t20 -118t-34 -96t-97.5 -39.5q-67 0 -104.5 31.5t-32 85.5t56.5 114q4 5 8 1q5 -4 1 -8q-33 -35 -43 -72t0 -63.5t31 -43.5t45 -16z" />
    <glyph glyph-name="agrave" unicode="&#xe0;" horiz-adv-x="370" 
d="M242 311q-2 34 -12 45q-39 43 -100 -45q-56 -81 -81 -186q-22 -98 15 -102q56 -4 132 139q9 34 26.5 80.5t18.5 51.5q1 4 15 -2t27.5 -14t12.5 -10l-44 -128q-31 -109 7 -106q3 0 6 1q20 6 57.5 57.5t50.5 89.5q2 6 7 4q6 -2 4 -7q-21 -52 -65.5 -114t-87.5 -63
q-27 -1 -38.5 33.5t-3.5 83.5l-3 -1q-14 -23 -24 -37t-29 -35.5t-42.5 -32.5t-50.5 -11q-50 0 -59.5 59t20.5 137q26 72 73 126.5t96 63.5q41 7 62.5 -13.5t20.5 -63.5q0 -6 -5 -6q-6 0 -6 6zM206 564q2 0 14.5 -31t25 -63t14.5 -34q9 -18 -13 0q-16 14 -64 61
q-20 20 -27 26q-24 23 -6 37q17 14 56 4z" />
    <glyph glyph-name="aacute" unicode="&#xe1;" horiz-adv-x="370" 
d="M242 311q-2 34 -12 45q-39 43 -100 -45q-56 -81 -81 -186q-22 -98 15 -102q56 -4 132 139q9 34 26.5 80.5t18.5 51.5q1 4 15 -2t27.5 -14t12.5 -10l-44 -128q-31 -109 7 -106q3 0 6 1q20 6 57.5 57.5t50.5 89.5q2 6 7 4q6 -2 4 -7q-21 -52 -65.5 -114t-87.5 -63
q-27 -1 -38.5 33.5t-3.5 83.5l-3 -1q-14 -23 -24 -37t-29 -35.5t-42.5 -32.5t-50.5 -11q-50 0 -59.5 59t20.5 137q26 72 73 126.5t96 63.5q41 7 62.5 -13.5t20.5 -63.5q0 -6 -5 -6q-6 0 -6 6zM271 552q50 12 65 -8q12 -14 -13 -32q-119 -90 -132 -86q-3 1 3 9q3 2 39 59
t38 58z" />
    <glyph glyph-name="acircumflex" unicode="&#xe2;" horiz-adv-x="370" 
d="M242 311q-2 34 -12 45q-39 43 -100 -45q-56 -81 -81 -186q-22 -98 15 -102q56 -4 132 139q9 34 26.5 80.5t18.5 51.5q1 4 15 -2t27.5 -14t12.5 -10l-44 -128q-31 -109 7 -106q3 0 6 1q20 6 57.5 57.5t50.5 89.5q2 6 7 4q6 -2 4 -7q-21 -52 -65.5 -114t-87.5 -63
q-27 -1 -38.5 33.5t-3.5 83.5l-3 -1q-14 -23 -24 -37t-29 -35.5t-42.5 -32.5t-50.5 -11q-50 0 -59.5 59t20.5 137q26 72 73 126.5t96 63.5q41 7 62.5 -13.5t20.5 -63.5q0 -6 -5 -6q-6 0 -6 6zM224 554q21 10 53 2q1 0 12 -30t21.5 -61.5t12.5 -33.5q9 -20 -13 -1
q-26 22 -72 73q-85 -64 -122 -82q-15 -6 -1 8q4 3 57 64z" />
    <glyph glyph-name="atilde" unicode="&#xe3;" horiz-adv-x="370" 
d="M242 311q0 -6 6 -6q5 0 5 6q1 43 -20.5 63.5t-62.5 13.5q-49 -9 -96 -63.5t-73 -126.5q-30 -78 -20.5 -137t59.5 -59q27 0 50.5 11t42.5 32.5t29 35.5t24 37l3 1q-8 -49 3.5 -83.5t38.5 -33.5q43 1 87.5 63t65.5 114q2 5 -4 7q-5 2 -7 -4q-13 -38 -50.5 -89.5
t-57.5 -57.5q-32 -8 -26 46q3 23 13 59l44 128q1 2 -12.5 10t-27.5 14t-15 2q-1 -5 -18.5 -51.5t-26.5 -80.5q-76 -143 -132 -139q-38 2 -16 98q24 103 79 186q61 90 100 52l3 -3q10 -11 12 -45zM377 517q-16 -45 -37 -63.5t-41 -13t-42.5 15.5t-41 20.5t-36.5 3.5t-29 -37
q-5 -6 -10 0q-2 4 0 6q16 37 35 55t37.5 18.5t37 -5.5t36 -15t32.5 -14t27.5 2t19.5 29q9 5 12 -2z" />
    <glyph glyph-name="adieresis" unicode="&#xe4;" horiz-adv-x="370" 
d="M242 311q-2 34 -12 45q-39 43 -100 -45q-56 -81 -81 -186q-22 -98 15 -102q56 -4 132 139q9 34 26.5 80.5t18.5 51.5q1 4 15 -2t27.5 -14t12.5 -10l-44 -128q-31 -109 7 -106q3 0 6 1q20 6 57.5 57.5t50.5 89.5q2 6 7 4q6 -2 4 -7q-21 -52 -65.5 -114t-87.5 -63
q-27 -1 -38.5 33.5t-3.5 83.5l-3 -1q-14 -23 -24 -37t-29 -35.5t-42.5 -32.5t-50.5 -11q-50 0 -59.5 59t20.5 137q26 72 73 126.5t96 63.5q41 7 62.5 -13.5t20.5 -63.5q0 -6 -5 -6q-6 0 -6 6zM172 579q1 -1 -6.5 -13t-16.5 -25.5t-10 -16.5q-14 -30 -29 -14q-16 17 -9 53
q6 32 20 33.5t51 -17.5zM275 579q1 -1 -6.5 -13t-16.5 -25.5t-10 -16.5q-14 -30 -29 -14q-16 17 -9 53q6 32 20 33.5t51 -17.5z" />
    <glyph glyph-name="aring" unicode="&#xe5;" horiz-adv-x="370" 
d="M242 311q-2 34 -12 45q-39 43 -100 -45q-56 -81 -81 -186q-22 -98 15 -102q56 -4 132 139q9 34 26.5 80.5t18.5 51.5q1 4 15 -2t27.5 -14t12.5 -10l-44 -128q-31 -109 7 -106q3 0 6 1q20 6 57.5 57.5t50.5 89.5q2 6 7 4q6 -2 4 -7q-21 -52 -65.5 -114t-87.5 -63
q-27 -1 -38.5 33.5t-3.5 83.5l-3 -1q-14 -23 -24 -37t-29 -35.5t-42.5 -32.5t-50.5 -11q-50 0 -59.5 59t20.5 137q26 72 73 126.5t96 63.5q41 7 62.5 -13.5t20.5 -63.5q0 -6 -5 -6q-6 0 -6 6zM217 707q-15 0 -30.5 -21t-26 -51t-17 -60.5t-5.5 -53t11 -23.5q36 -5 69 61
q33 67 26 117q-4 31 -27 31zM217 717q36 0 35 -61q-2 -66 -40 -122q-29 -42 -63 -43q-34 0 -35 59q0 68 36 123q30 44 67 44z" />
    <glyph glyph-name="ccedilla" unicode="&#xe7;" horiz-adv-x="294" 
d="M90 -140q-11 -26 8 -44q21 -21 50 11q18 21 33 58q9 24 -3 39.5t-32.5 21.5t-37.5 19t-15 33q-70 0 -98.5 63t0.5 140q50 138 142 178q58 26 97 -1q36 -24 18 -68q-3 -7 -7 -13q-4 -4 -8 -1q-5 4 -1 8q16 37 -9 53q-29 18 -74 -22q-51 -46 -91 -147q-27 -73 -18 -118.5
t49 -49.5q36 -4 70.5 12t61 43.5t45 56t31.5 56.5q2 6 8 2q4 -1 2 -7q-64 -142 -163 -176q0 -5 -1 -7q-7 -23 6 -37.5t32 -21.5t30.5 -23t2.5 -40q-30 -81 -81 -87q-34 -4 -52 24q-15 24 0 49q2 2 5 1q2 -3 0 -5z" />
    <glyph glyph-name="egrave" unicode="&#xe8;" horiz-adv-x="302" 
d="M221 361q-13 13 -39 0.5t-60 -58t-61 -113.5q-16 -43 -18 -68l1 1q24 10 61.5 39t72.5 66t50 73t-7 60zM41 109q-5 -58 33 -79.5t95 8.5q84 43 140 161q1 4 8 2q4 -1 2 -8q-48 -111 -138 -164q-45 -27 -84.5 -30.5t-63 13.5t-39.5 46.5t-14 67.5t14 77q19 51 45 90.5
t52.5 60.5t53 31.5t48.5 9t37 -12.5q34 -28 20 -69.5t-54 -84.5t-84 -75.5t-71 -43.5zM163 576q2 0 14.5 -31t25 -63t14.5 -34q9 -18 -13 1q-6 4 -85 81q-4 3 -6 5q-24 23 -6 37q17 14 56 4z" />
    <glyph glyph-name="eacute" unicode="&#xe9;" horiz-adv-x="302" 
d="M221 361q-13 13 -39 0.5t-60 -58t-61 -113.5q-16 -43 -18 -68l1 1q24 10 61.5 39t72.5 66t50 73t-7 60zM41 109q-5 -58 33 -79.5t95 8.5q84 43 140 161q1 4 8 2q4 -1 2 -8q-48 -111 -138 -164q-45 -27 -84.5 -30.5t-63 13.5t-39.5 46.5t-14 67.5t14 77q19 51 45 90.5
t52.5 60.5t53 31.5t48.5 9t37 -12.5q34 -28 20 -69.5t-54 -84.5t-84 -75.5t-71 -43.5zM231 564q50 12 65 -8q12 -14 -13 -32q-119 -90 -132 -86q-3 1 3 9q3 2 39 59t38 58z" />
    <glyph glyph-name="ecircumflex" unicode="&#xea;" horiz-adv-x="302" 
d="M221 361q-13 13 -39 0.5t-60 -58t-61 -113.5q-16 -43 -18 -68l1 1q24 10 61.5 39t72.5 66t50 73t-7 60zM41 109q-5 -58 33 -79.5t95 8.5q84 43 140 161q1 4 8 2q4 -1 2 -8q-48 -111 -138 -164q-45 -27 -84.5 -30.5t-63 13.5t-39.5 46.5t-14 67.5t14 77q19 51 45 90.5
t52.5 60.5t53 31.5t48.5 9t37 -12.5q34 -28 20 -69.5t-54 -84.5t-84 -75.5t-71 -43.5zM193 560q21 10 53 2q1 0 12 -30t21.5 -61.5t12.5 -33.5q9 -20 -13 -1q-26 22 -72 73q-85 -64 -122 -82q-15 -6 -1 8q4 3 56 64z" />
    <glyph glyph-name="edieresis" unicode="&#xeb;" horiz-adv-x="302" 
d="M221 361q-13 13 -39 0.5t-60 -58t-61 -113.5q-16 -43 -18 -68l1 1q24 10 61.5 39t72.5 66t50 73t-7 60zM41 109q-5 -58 33 -79.5t95 8.5q84 43 140 161q1 4 8 2q4 -1 2 -8q-48 -111 -138 -164q-45 -27 -84.5 -30.5t-63 13.5t-39.5 46.5t-14 67.5t14 77q19 51 45 90.5
t52.5 60.5t53 31.5t48.5 9t37 -12.5q34 -28 20 -69.5t-54 -84.5t-84 -75.5t-71 -43.5zM138 579q1 -1 -6.5 -13t-16.5 -25.5t-10 -16.5q-14 -30 -29 -14q-16 17 -9 53q6 32 20 33.5t51 -17.5zM241 579q1 -1 -6.5 -13t-16.5 -25.5t-10 -16.5q-14 -30 -29 -14q-16 17 -9 53
q6 32 20 33.5t51 -17.5z" />
    <glyph glyph-name="igrave" unicode="&#xec;" horiz-adv-x="169" 
d="M87 597q2 0 14.5 -31t25 -63t14.5 -34q9 -18 -13 1q-6 4 -85 81q-4 3 -6 5q-24 23 -6 37q17 14 56 4zM-5 162q8 32 40.5 124t34.5 100q1 3 15.5 -2.5t28 -14t12.5 -10.5l-75 -219q-7 -26 -10.5 -45t-3 -34.5t7.5 -22t20 -3.5q19 6 55 57t52 90q2 6 7 4q6 -2 4 -7
q-21 -52 -65.5 -114t-87.5 -63q-22 -1 -34.5 14.5t-14 40.5t2 51.5t11.5 53.5z" />
    <glyph glyph-name="iacute" unicode="&#xed;" horiz-adv-x="169" 
d="M159 586q50 12 65 -8q12 -14 -13 -32q-119 -90 -132 -86q-3 1 3 9q3 2 39 59t38 58zM-5 162q8 32 40.5 124t34.5 100q1 3 15.5 -2.5t28 -14t12.5 -10.5l-75 -219q-7 -26 -10.5 -45t-3 -34.5t7.5 -22t20 -3.5q19 6 55 57t52 90q2 6 7 4q6 -2 4 -7q-21 -52 -65.5 -114
t-87.5 -63q-22 -1 -34.5 14.5t-14 40.5t2 51.5t11.5 53.5z" />
    <glyph glyph-name="icircumflex" unicode="&#xee;" horiz-adv-x="169" 
d="M-5 162q3 13 35 109q-11 -4 -13 49q-1 37 5 62q3 14 11 21.5t18 8t21.5 -2.5t22 -8.5t19 -10.5t13.5 -9t5 -5l-81 -236q-7 -26 -10.5 -45t-3 -34.5t7.5 -22t20 -3.5q19 6 55 57t52 90q2 6 7 4q6 -2 4 -7q-21 -52 -65.5 -114t-87.5 -63q-22 -1 -34.5 14.5t-14 40.5t2 51.5
t11.5 53.5zM-4 501q-49 -11 -61 7q-8 14 18 30q86 61 127 78l2 -2q1 -2 3 -4q-3 -2 -45 -55t-44 -54zM174 501q-2 1 -44 54t-45 55q1 1 2 3q2 2 2 3q33 -13 128 -78q31 -20 15 -33t-58 -4zM85 618q4 1 4 -2q-2 2 -4 2q-5 1 -5 -2q4 2 5 2z" />
    <glyph glyph-name="idieresis" unicode="&#xef;" horiz-adv-x="169" 
d="M-5 162q3 13 35 109q-11 -4 -13 49q-1 37 5 62q3 14 11 21.5t18 8t21.5 -2.5t22 -8.5t19 -10.5t13.5 -9t5 -5l-81 -236q-7 -26 -10.5 -45t-3 -34.5t7.5 -22t20 -3.5q19 6 55 57t52 90q2 6 7 4q6 -2 4 -7q-21 -52 -65.5 -114t-87.5 -63q-22 -1 -34.5 14.5t-14 40.5t2 51.5
t11.5 53.5zM72 579q1 -1 -6.5 -13t-16.5 -25.5t-10 -16.5q-14 -30 -29 -14q-16 17 -9 53q6 32 20 33.5t51 -17.5zM175 579q1 -1 -6.5 -13t-16.5 -25.5t-10 -16.5q-14 -30 -29 -14q-16 17 -9 53q6 32 20 33.5t51 -17.5z" />
    <glyph glyph-name="ntilde" unicode="&#xf1;" horiz-adv-x="375" 
d="M81 196l55 160q1 2 -14.5 10t-31.5 14t-17 2l-122 -356q-1 -2 14 -10.5t31 -14t17 -2.5l8 24q31 73 111.5 202t102.5 120q35 -14 -23 -153q-28 -66 -34 -109t8 -63.5t50 -21.5q31 0 66.5 38.5t55 74t31.5 64.5q2 5 -3 7q-6 2 -8 -3q-13 -38 -50 -90t-57 -57
q-35 -9 -35 20q0 23 38 131q37 108 35.5 151.5t-40.5 46.5q-73 7 -203 -234q1 4 7 24.5t8 24.5zM345 611q-21 -45 -48 -63t-53.5 -12t-55 16.5t-53 21t-47.5 2.5t-38 -40q-7 -6 -16 2q-4 3 -1 5q28 55 63.5 71t67.5 3.5t61.5 -28t54.5 -13.5t38 37q12 6 27 -2z" />
    <glyph glyph-name="ograve" unicode="&#xf2;" 
d="M251 209q-53 -104 -104.5 -165.5t-95.5 -57.5q-64 5 -70 85q-6 82 47 175q57 100 135 121l25 4q9 46 30 72t42 23q27 -4 33.5 -44t-4.5 -94t-33 -107q36 -8 73 9.5t59 71.5q3 7 10 4q4 -2 2 -6q-19 -51 -58.5 -77t-90.5 -14zM185 353q-40 -4 -91 -103q-55 -106 -62 -190
q-5 -65 32 -63q37 3 88 71.5t89 144.5q-29 15 -46 55t-10 85zM239 296q-2 18 -4 28t-8 19t-16 10q-6 -51 4.5 -84.5t29.5 -42.5q23 49 32.5 103t3.5 89t-26 33q-27 -4 -42 -82q34 -12 37 -72q0 -6 -5 -6q-6 0 -6 5zM208 641q2 0 14.5 -31t25 -63t14.5 -34q9 -18 -13 0
q-16 14 -64 61q-20 20 -27 26q-24 23 -6 37q17 14 56 4z" />
    <glyph glyph-name="oacute" unicode="&#xf3;" 
d="M251 209q51 -12 90.5 14t58.5 77q3 7 -5 6q-5 0 -7 -4q-22 -54 -59 -71.5t-73 -9.5q22 53 33 107t4.5 94t-33.5 44q-21 3 -42 -23t-30 -72q-82 -5 -147 -104q-58 -88 -61 -177q-2 -88 58 -102q6 -1 13 -2q44 -4 95.5 57.5t104.5 165.5zM185 353q-7 -45 10 -85t46 -55
q-38 -76 -89 -144.5t-88 -71.5q-46 -2 -27 94q18 99 74 190q42 68 74 72zM239 296q0 -5 6 -5q5 0 5 6q-3 60 -37 72q15 78 42 82q20 2 26 -33t-3.5 -89t-32.5 -103q-19 9 -29.5 42.5t-4.5 84.5q14 -2 19.5 -16t8.5 -41zM259 628q50 12 65 -8q12 -14 -13 -32
q-119 -90 -132 -86q-3 1 3 9q3 2 39 59t38 58z" />
    <glyph glyph-name="ocircumflex" unicode="&#xf4;" 
d="M251 209q-53 -104 -104.5 -165.5t-95.5 -57.5q-64 5 -70 85q-6 82 47 175q57 100 135 121l25 4q9 46 30 72t42 23q27 -4 33.5 -44t-4.5 -94t-33 -107q36 -8 73 9.5t59 71.5q3 7 10 4q4 -2 2 -6q-19 -51 -58.5 -77t-90.5 -14zM185 353q-40 -4 -91 -103q-55 -106 -62 -190
q-5 -65 32 -63q37 3 88 71.5t89 144.5q-29 15 -46 55t-10 85zM239 296q-2 18 -4 28t-8 19t-16 10q-6 -51 4.5 -84.5t29.5 -42.5q23 49 32.5 103t3.5 89t-26 33q-27 -4 -42 -82q34 -12 37 -72q0 -6 -5 -6q-6 0 -6 5zM232 618q21 10 53 2q1 0 12 -30t21.5 -61.5t12.5 -33.5
q9 -20 -13 -1q-26 21 -72 73q-85 -64 -122 -82q-15 -6 -1 8q4 3 57 64z" />
    <glyph glyph-name="otilde" unicode="&#xf5;" 
d="M251 209q51 -12 90.5 14t58.5 77q3 7 -5 6q-5 0 -7 -4q-22 -54 -59 -71.5t-73 -9.5q22 53 33 107t4.5 94t-33.5 44q-21 3 -42 -23t-30 -72q-82 -5 -147 -104q-58 -88 -61 -177q-2 -88 58 -102q6 -1 13 -2q44 -4 95.5 57.5t104.5 165.5zM185 353q-7 -45 10 -85t46 -55
q-38 -76 -89 -144.5t-88 -71.5q-46 -2 -27 94q18 99 74 190q42 68 74 72zM239 296q0 -5 6 -5q5 0 5 6q-3 60 -37 72q15 78 42 82q20 2 26 -33t-3.5 -89t-32.5 -103q-19 9 -29.5 42.5t-4.5 84.5q14 -2 19.5 -16t8.5 -41zM363 594q-16 -45 -37 -63.5t-41 -13t-42.5 15.5
t-41 20.5t-36.5 3.5t-29 -37q-5 -6 -10 0q-2 4 0 6q16 37 35 55t37.5 18.5t37 -5.5t36 -15t32.5 -14t27.5 2t19.5 29q9 5 12 -2z" />
    <glyph glyph-name="odieresis" unicode="&#xf6;" 
d="M251 209q-53 -104 -104.5 -165.5t-95.5 -57.5q-64 5 -70 85q-6 82 47 175q57 100 135 121l25 4q9 46 30 72t42 23q27 -4 33.5 -44t-4.5 -94t-33 -107q36 -8 73 9.5t59 71.5q3 7 10 4q4 -2 2 -6q-19 -51 -58.5 -77t-90.5 -14zM185 353q-40 -4 -91 -103q-55 -106 -62 -190
q-5 -65 32 -63q37 3 88 71.5t89 144.5q-29 15 -46 55t-10 85zM239 296q-2 18 -4 28t-8 19t-16 10q-6 -51 4.5 -84.5t29.5 -42.5q23 49 32.5 103t3.5 89t-26 33q-27 -4 -42 -82q34 -12 37 -72q0 -6 -5 -6q-6 0 -6 5zM151 579q1 -1 -6.5 -13t-16.5 -25.5t-10 -16.5
q-14 -30 -29 -14q-16 17 -9 53q6 32 20 33.5t51 -17.5zM254 579q1 -1 -6.5 -13t-16.5 -25.5t-10 -16.5q-14 -30 -29 -14q-16 17 -9 53q6 32 20 33.5t51 -17.5z" />
    <glyph glyph-name="divide" unicode="&#xf7;" horiz-adv-x="305" 
d="M145 62q1 -1 -6.5 -13t-16.5 -25.5t-10 -16.5q-14 -30 -29 -14q-16 17 -9 53q6 32 20 33.5t51 -17.5zM282 466q1 -1 -6.5 -13t-16.5 -25.5t-10 -16.5q-14 -30 -29 -14q-16 17 -9 53q6 32 20 33.5t51 -17.5zM313 208l-321 3q-8 -1 0 45q3 17 6 16l329 -3q4 -3 2 -16.5
t-7.5 -29t-8.5 -15.5z" />
    <glyph glyph-name="ugrave" unicode="&#xf9;" horiz-adv-x="372" 
d="M139 365q-9 -20 -72 -187q-14 -41 -20.5 -75.5t-2 -57t21.5 -23.5q55 -4 132 139q8 33 43 125t36 99q1 4 15.5 -2t28 -14t12.5 -10l-79 -219q-30 -108 6 -106q3 0 7 1q20 5 56 56.5t52 90.5q2 5 7 3q6 -2 4 -7q-7 -18 -21.5 -44.5t-35 -57.5t-47 -52.5t-49.5 -22.5
q-27 -1 -38.5 33.5t-3.5 83.5h-3q-19 -31 -33 -51t-46 -43t-67 -23q-50 0 -59.5 59.5t20.5 137.5q59 161 76 191q1 4 16.5 -1t30 -12.5t13.5 -10.5zM185 578q2 0 14.5 -31t25 -63t14.5 -34q9 -18 -13 0q-16 14 -64 61q-20 20 -27 26q-24 23 -6 37q17 14 56 4z" />
    <glyph glyph-name="uacute" unicode="&#xfa;" horiz-adv-x="372" 
d="M139 365q-9 -20 -72 -187q-14 -41 -20.5 -75.5t-2 -57t21.5 -23.5q55 -4 132 139q8 33 43 125t36 99q1 4 15.5 -2t28 -14t12.5 -10l-79 -219q-30 -108 6 -106q3 0 7 1q20 5 56 56.5t52 90.5q2 5 7 3q6 -2 4 -7q-7 -18 -21.5 -44.5t-35 -57.5t-47 -52.5t-49.5 -22.5
q-27 -1 -38.5 33.5t-3.5 83.5h-3q-19 -31 -33 -51t-46 -43t-67 -23q-50 0 -59.5 59.5t20.5 137.5q59 161 76 191q1 4 16.5 -1t30 -12.5t13.5 -10.5zM256 569q50 12 65 -8q12 -14 -13 -32q-119 -90 -132 -86q-3 1 3 9q3 2 39 59t38 58z" />
    <glyph glyph-name="ucircumflex" unicode="&#xfb;" horiz-adv-x="372" 
d="M139 365q-9 -20 -72 -187q-14 -41 -20.5 -75.5t-2 -57t21.5 -23.5q55 -4 132 139q8 33 43 125t36 99q1 4 15.5 -2t28 -14t12.5 -10l-79 -219q-30 -108 6 -106q3 0 7 1q20 5 56 56.5t52 90.5q2 5 7 3q6 -2 4 -7q-7 -18 -21.5 -44.5t-35 -57.5t-47 -52.5t-49.5 -22.5
q-27 -1 -38.5 33.5t-3.5 83.5h-3q-19 -31 -33 -51t-46 -43t-67 -23q-50 0 -59.5 59.5t20.5 137.5q59 161 76 191q1 4 16.5 -1t30 -12.5t13.5 -10.5zM97 501q-49 -11 -61 7q-8 14 18 30q86 61 127 78l1 -2l4 -4q-3 -2 -45 -55t-44 -54zM275 501q-2 1 -44 54t-45 55q1 1 2 3
q2 2 2 3q33 -13 128 -78q31 -20 15 -33q-17 -13 -58 -4zM186 618q4 1 4 -2q-2 2 -4 2q-5 1 -5 -2q4 2 5 2z" />
    <glyph glyph-name="udieresis" unicode="&#xfc;" horiz-adv-x="372" 
d="M139 365q-9 -20 -72 -187q-14 -41 -20.5 -75.5t-2 -57t21.5 -23.5q55 -4 132 139q8 33 43 125t36 99q1 4 15.5 -2t28 -14t12.5 -10l-79 -219q-30 -108 6 -106q3 0 7 1q20 5 56 56.5t52 90.5q2 5 7 3q6 -2 4 -7q-7 -18 -21.5 -44.5t-35 -57.5t-47 -52.5t-49.5 -22.5
q-27 -1 -38.5 33.5t-3.5 83.5h-3q-19 -31 -33 -51t-46 -43t-67 -23q-50 0 -59.5 59.5t20.5 137.5q59 161 76 191q1 4 16.5 -1t30 -12.5t13.5 -10.5zM173 579q1 -1 -6.5 -13t-16.5 -25.5t-10 -16.5q-14 -30 -29 -14q-16 17 -9 53q6 32 20 33.5t51 -17.5zM276 579
q1 -1 -6.5 -13t-16.5 -25.5t-10 -16.5q-14 -30 -29 -14q-16 17 -9 53q6 32 20 33.5t51 -17.5z" />
    <glyph glyph-name="yacute" unicode="&#xfd;" horiz-adv-x="376" 
d="M224 30q61 36 94.5 66.5t62.5 88.5q2 5 8 3q4 -3 2 -8q-14 -32 -31 -56.5t-41.5 -45.5t-44.5 -34.5t-57 -35.5q-10 -33 -25.5 -80.5t-25.5 -80t-17 -51.5q-98 -290 -208 -364q-64 -43 -104 5q-3 3 -5 6q-17 24 -20 68t13.5 103.5t50.5 121.5t100.5 127t154.5 115
q4 12 18 48.5t23 61.5q-59 -85 -127 -85q-50 1 -59.5 60t21.5 137q49 139 74 191q0 4 15.5 -0.5t30.5 -12t14 -11.5q-2 -5 -62 -165q-17 -45 -26 -84t-5 -66t22 -28q30 -1 61.5 34.5t63.5 93.5q43 118 84 240q7 3 29 -8t27 -19q-58 -169 -111 -335zM124 -46
q-63 -34 -115.5 -82t-85 -97t-55.5 -100.5t-31 -95t-6.5 -76.5t12.5 -49q25 -35 75 21q98 111 206 479zM256 569q50 12 65 -8q12 -14 -13 -32q-119 -90 -132 -86q-3 1 3 9q3 2 39 59t38 58z" />
    <glyph glyph-name="thorn" unicode="&#xfe;" horiz-adv-x="144" 
d="M-112 260q252 325 309 510q29 97 -9 109q-37 11 -110 -68q-122 -134 -216 -391q-4 -10 -7 -19l-22 -66l-1 -1l-171 -608q-1 -2 12.5 -10.5t28 -14t15.5 -1.5l94 334q26 -47 82 -31q92 29 154 191q57 -10 103 21.5t65 84.5q3 7 -5 6q-5 0 -7 -4q-23 -56 -70 -78.5
t-81 -12.5q23 66 18 105t-21 55t-36 13q-22 -4 -37.5 -27.5t-18.5 -52.5t16 -59.5t60 -44.5q-21 -70 -68 -123.5t-73 -51.5q-13 1 -22.5 12.5t-13.5 32.5t-2.5 49t10.5 64.5t24 76.5zM-101 293l13 41q0 3 2 5h-1q94 302 200 453q53 75 76 64q24 -11 -15 -111
q-70 -178 -275 -452zM39 215q-28 9 -44.5 26.5t-18.5 37.5t3 39t16.5 32t24.5 15q14 2 23.5 -12.5t9.5 -51t-14 -86.5z" />
    <glyph glyph-name="ydieresis" unicode="&#xff;" horiz-adv-x="376" 
d="M224 30q61 36 94.5 66.5t62.5 88.5q2 5 8 3q4 -3 2 -8q-14 -32 -31 -56.5t-41.5 -45.5t-44.5 -34.5t-57 -35.5q-10 -33 -25.5 -80.5t-25.5 -80t-17 -51.5q-98 -290 -208 -364q-64 -43 -104 5q-3 3 -5 6q-17 24 -20 68t13.5 103.5t50.5 121.5t100.5 127t154.5 115
q4 12 18 48.5t23 61.5q-59 -85 -127 -85q-50 1 -59.5 60t21.5 137q49 139 74 191q0 4 15.5 -0.5t30.5 -12t14 -11.5q-2 -5 -62 -165q-17 -45 -26 -84t-5 -66t22 -28q30 -1 61.5 34.5t63.5 93.5q43 118 84 240q7 3 29 -8t27 -19q-58 -169 -111 -335zM124 -46
q-63 -34 -115.5 -82t-85 -97t-55.5 -100.5t-31 -95t-6.5 -76.5t12.5 -49q25 -35 75 21q98 111 206 479zM175 579q1 -1 -6.5 -13t-16.5 -25.5t-10 -16.5q-14 -30 -29 -14q-16 17 -9 53q6 32 20 33.5t51 -17.5zM278 579q1 -1 -6.5 -13t-16.5 -25.5t-10 -16.5q-14 -30 -29 -14
q-16 17 -9 53q6 32 20 33.5t51 -17.5z" />
    <glyph glyph-name="Abreve" unicode="&#x102;" horiz-adv-x="1021" 
d="M1009 801q38 -1 63 12.5t54 46.5l-4 -14t-11.5 -24.5t-22 -30t-36 -24.5t-52.5 -15q-40 -4 -63.5 17.5t-20 50t31.5 44.5q-11 -26 6.5 -44t54.5 -19zM204 -123q34 16 40.5 54t-17 72t-65.5 39q-70 9 -109 -54.5t-14.5 -136.5t108.5 -88q90 -15 207 39q180 85 325 290
q-52 7 -78.5 10t-71 3t-71 -9t-55.5 -30.5t-47 -56.5q-2 -6 -7 -4q-5 4 -4 8q17 34 39.5 57.5t53 35.5t56.5 18t67 4.5t65.5 -4t69.5 -8.5q26 36 55 86q33 55 85 153q4 85 26.5 170t55 136.5t63.5 39.5q35 -13 -78 -239q-9 -48 -12 -143.5t3 -203.5q56 16 81 71q1 3 4.5 3.5
t5 -2t0.5 -5.5q-27 -70 -90 -91q8 -135 32.5 -221.5t67.5 -84.5q74 3 163 189q1 2 3 3t4 0q5 -2 3 -7q-93 -203 -174 -204q-40 -1 -70.5 25.5t-48 74t-27 99t-14.5 114.5q-49 -2 -141 11q-155 -220 -348 -305q-113 -48 -202 -34q-102 16 -133 98.5t16.5 152t137.5 55.5
q48 -7 73.5 -46.5t17 -82.5t-46.5 -61q-5 -2 -7 3t3 7zM832 106q-7 121 3 224q-19 -35 -45.5 -82.5t-28.5 -51.5q-30 -51 -51 -81q74 -10 122 -9zM903 488q44 90 61 141q18 54 10 54q-9 -2 -31 -52q-19 -44 -40 -143z" />
    <glyph glyph-name="abreve" unicode="&#x103;" horiz-adv-x="370" 
d="M258 489q38 -1 63 12.5t54 46.5l-4 -14t-11.5 -24.5t-22 -30t-36 -24.5t-52.5 -15q-40 -4 -63.5 17.5t-20 50t31.5 44.5q-11 -26 6.5 -44t54.5 -19zM242 311q-2 34 -12 45q-39 43 -100 -45q-56 -81 -81 -186q-22 -98 15 -102q56 -4 132 139q9 34 26.5 80.5t18.5 51.5
q1 4 15 -2t27.5 -14t12.5 -10l-44 -128q-31 -109 7 -106q3 0 6 1q20 6 57.5 57.5t50.5 89.5q2 6 7 4q6 -2 4 -7q-21 -52 -65.5 -114t-87.5 -63q-27 -1 -38.5 33.5t-3.5 83.5l-3 -1q-14 -23 -24 -37t-29 -35.5t-42.5 -32.5t-50.5 -11q-50 0 -59.5 59t20.5 137q26 72 73 126.5
t96 63.5q41 7 62.5 -13.5t20.5 -63.5q0 -6 -5 -6q-6 0 -6 6z" />
    <glyph glyph-name="Dcroat" unicode="&#x110;" horiz-adv-x="889" 
d="M342 350q-16 -69 -58.5 -110t-99.5 -52q-66 -14 -113 10q-60 31 -69 115q-10 82 31 162t116 137q97 73 215 84q249 23 365 -144q90 -128 75 -321q-14 -172 -101 -296q-90 -130 -213 -128h-2q-80 3 -186 57q-25 -67 -65.5 -99t-77.5 -28t-67.5 27.5t-39.5 58.5
q-9 33 11.5 60.5t67.5 35.5t120 -21l95 271l-115 1q-5 -1 0 10q3 6 5 7l116 -1l139 394q2 0 5.5 1t12.5 2.5t17 3t16.5 2.5t13.5 1l4 1l-143 -405h144q8 -1 -4 -12q-5 -5 -8 -5h-138l-104 -295q90 -44 158 -41q107 4 182 134q76 130 80 306q4 193 -86 308q-98 125 -280 103
q-157 -20 -245 -118q-45 -50 -66.5 -114t-10.5 -131q11 -65 51.5 -95t94.5 -21q51 8 92 47t55 104q2 7 8 1q3 -3 2 -7zM246 -113q-62 29 -98.5 18.5t-52 -35t-13.5 -53.5q2 -36 34 -49q44 -17 86 36q25 31 44 83z" />
    <glyph glyph-name="dcroat" unicode="&#x111;" horiz-adv-x="379" 
d="M300 301l-2 -2q-30 -68 -41 -182q-9 -97 14 -91q19 5 55.5 57.5t53.5 93.5q3 5 8 3t3 -7q-11 -28 -31.5 -64.5t-56.5 -76t-66 -40.5q-62 -3 -45 127h-2q-16 -26 -27.5 -42.5t-30.5 -36.5t-41 -30t-48 -10q-50 0 -60 59.5t21 136.5q26 72 73 126.5t96 63.5q57 10 76 -33
q18 75 39 142l-109 1q-5 -1 0 10q3 6 5 7l110 -1q31 94 70 173.5t74 127.5t65 73.5t48 21.5q12 -3 16.5 -19.5t-1 -49t-21 -77.5t-46 -109.5t-72.5 -140.5h82q8 -1 -4 -12q-5 -5 -8 -5h-79q-55 -97 -118 -194zM198 159q25 114 44 175q-2 13 -9 20q-39 43 -100 -45
q-56 -80 -81 -185q-21 -98 15 -103q60 -5 131 138zM541 866q-12 3 -37.5 -33t-64.5 -121t-78 -200h51q35 65 62.5 122.5t43 98t23.5 70.5t7.5 45.5t-7.5 17.5zM306 333q49 77 96 162h-47q-30 -92 -49 -162z" />
    <glyph glyph-name="Itilde" unicode="&#x128;" horiz-adv-x="659" 
d="M842 843q-16 -45 -37 -63.5t-41 -13t-42.5 15.5t-41 20.5t-36.5 3.5t-29 -37q-5 -6 -10 0q-2 4 0 6q16 37 35 55t37.5 18.5t37 -5.5t36 -15t32.5 -14t27.5 2t19.5 29q9 5 12 -2zM557 354q-58 -85 -125 -92q-58 -6 -86.5 36t-11.5 100q13 47 48 82.5t79 58.5t88.5 43.5
t86 47.5t63.5 59l69 11q-15 -43 -97 -253t-114 -305q-19 -56 -42.5 -106.5t-59 -104t-76 -91.5t-95.5 -60.5t-115 -19.5q-64 4 -105 35t-56 77q-11 41 -5.5 77.5t28 64t50.5 43.5t62.5 15t64.5 -22q45 -31 49 -81.5t-47 -90.5q-4 -4 -9 2q-3 4 1 7q47 27 44 75t-44 76
q-33 23 -70 17t-61.5 -34.5t-36 -69t4.5 -86.5q13 -38 45.5 -64t83.5 -30q49 -4 95 21.5t79.5 65t64.5 94.5t49.5 99t33.5 90q34 105 181 478q-30 -20 -84 -41.5t-93 -37.5t-76.5 -54.5t-51.5 -95.5q-10 -43 8 -72.5t63 -33.5q54 -5 109 75q3 5 8 3t3 -8z" />
    <glyph glyph-name="itilde" unicode="&#x129;" horiz-adv-x="169" 
d="M-5 162q8 32 40.5 124t34.5 100q1 3 15.5 -2.5t28 -14t12.5 -10.5l-75 -219q-7 -26 -10.5 -45t-3 -34.5t7.5 -22t20 -3.5q19 6 55 57t52 90q2 6 7 4q6 -2 4 -7q-21 -52 -65.5 -114t-87.5 -63q-22 -1 -34.5 14.5t-14 40.5t2 51.5t11.5 53.5zM233 517q-16 -45 -37 -63.5
t-41 -13t-42.5 15.5t-41 20.5t-36.5 3.5t-29 -37q-5 -6 -10 0q-2 4 0 6q16 37 35 55t37.5 18.5t37 -5.5t36 -15t32.5 -14t27.5 2t19.5 29q9 5 12 -2z" />
    <glyph glyph-name="dotlessi" unicode="&#x131;" horiz-adv-x="169" 
d="M-5 162q3 13 35 109q-11 -4 -13 49q-1 37 5 62q3 14 11 21.5t18 8t21.5 -2.5t22 -8.5t19 -10.5t13.5 -9t5 -5l-81 -236q-7 -26 -10.5 -45t-3 -34.5t7.5 -22t20 -3.5q19 6 55 57t52 90q2 6 7 4q6 -2 4 -7q-21 -52 -65.5 -114t-87.5 -63q-22 -1 -34.5 14.5t-14 40.5t2 51.5
t11.5 53.5z" />
    <glyph glyph-name="Lslash" unicode="&#x141;" horiz-adv-x="604" 
d="M496 703q-164 -27 -234 -128q-52 -75 -27 -148q25 -69 106 -87q55 -12 126 6q73 239 198 325q79 53 141 26q51 -21 53 -77q4 -80 -92 -160q-86 -70 -234 -120q-2 -7 -27 -92l111 55q3 1 5.5 -5t5 -14.5t4 -18t1.5 -16t-2 -7.5l-146 -72q-48 -181 -101 -263
q11 -6 53.5 -29.5t56 -29t44 -18t54.5 -15t51 -0.5q64 5 97.5 38.5t53.5 98.5q2 6 7 4q6 -2 4 -7q-45 -143 -150 -160q-69 -11 -136.5 10.5t-163.5 71.5q-82 -106 -196 -108q-82 -2 -130 47t-18 108q9 16 24 32q22 24 61 34.5t102.5 -1t133.5 -50.5q43 69 77 199l-124 -61
q-3 -2 -8 8q-15 32 -15 49l165 81q26 100 32 120q-136 -34 -214 30q-61 51 -51 131q11 93 110 157q77 49 190 67q5 2 7 -4q0 -5 -5 -7zM538 361q138 46 215.5 109t89.5 120q12 54 -26 78q-44 27 -106 -15q-107 -73 -173 -292zM300 -104q-61 36 -114 50.5t-86 10t-54 -22.5
q-49 -43 -26 -90q21 -43 79 -51q88 -13 172 70q15 15 29 33z" />
    <glyph glyph-name="lslash" unicode="&#x142;" horiz-adv-x="214" 
d="M156 641q-31 -53 -75.5 -160t-74.5 -208q-14 -48 -20 -90l-137 -73q-6 -1 12 -39q9 -18 12 -17l108 57q2 -106 58 -110q39 -3 73 16.5t58 55t36 58t22 47.5q2 5 -3 7q-6 2 -8 -3q-17 -47 -61.5 -101t-81.5 -46q-42 7 -26 112l167 89q1 1 1 7.5t-2 15.5t-4.5 17.5
t-5.5 14.5t-6 5l-133 -71q2 10 4 15q252 326 304 507q27 91 -11 101t-108 -68q-50 -55 -98 -139zM178 559q83 192 151 253q37 34 41 1q9 -56 -80 -219q-79 -145 -212 -324q39 129 100 289z" />
    <glyph glyph-name="OE" unicode="&#x152;" horiz-adv-x="1141" 
d="M312 676q-130 -15 -210 -126q-67 -95 -62 -201q5 -105 83 -145q53 -28 131 -17q13 48 39.5 111.5t68 137.5t88 134.5t104 98t112.5 31.5q32 -3 48 -25t15 -50t-7 -56q36 -21 50 -80q25 54 74.5 100.5t106.5 75.5q100 43 158 24t43 -90.5t-106 -138.5q-105 -77 -262 -129
q9 -25 28 -42q108 25 143 -8q18 -18 0 -35q-26 -25 -83 -5q-10 3 -20 8q-22 9 -40 22q-56 -20 -97 -85t-62 -151q-14 -49 -11 -92t14.5 -80.5t37.5 -61t57.5 -33t74.5 3.5t89 48q92 71 148 180q3 5 8 3q6 -2 2 -8q-63 -120 -152 -189q-57 -43 -112 -57.5t-98 -1t-75 46
t-48 80.5q-41 -40 -92.5 -75t-88.5 -45q-48 -14 -82.5 -4.5t-56.5 29.5t-34.5 55t-16 70.5t-1.5 76.5q5 90 30 184q-131 -17 -199 71q-59 77 -42 186q18 120 118 194q77 58 186 71q6 2 6 -5q2 -6 -5 -6zM768 323l-7 17q-24 64 6 138h-4q-11 59 -44 80q-43 -138 -150 -233
t-256 -146q-9 -35 -17 -76.5t-14 -93.5t-3 -97.5t14.5 -82.5t40.5 -53t73 -5q36 9 88.5 45t90.5 74q-19 70 0 147q20 84 78 153.5t133 94.5q-21 21 -28 38h-1zM320 203q51 13 107 42.5t112 74t102 108.5t68 135q-35 14 -80 -6.5t-84 -60.5q-74 -76 -125 -199q-2 -5 -7 -3
q-6 2 -3 7q57 139 141 217q40 37 83.5 53t77.5 3q24 97 -44 107q-44 6 -102.5 -52t-108 -142t-87.5 -162.5t-50 -121.5zM781 347q147 48 251 122q78 55 90 118q10 49 -27 62q-41 14 -114 -30q-34 -21 -68 -48.5t-69 -64.5t-53 -79t-10 -80zM830 277h1q29 -17 54.5 -24
t39 -4.5t19.5 9.5q10 13 -13 23q-33 14 -101 -4z" />
    <glyph glyph-name="oe" unicode="&#x153;" horiz-adv-x="532" 
d="M271 109q-5 -58 33 -79.5t95 8.5q84 43 140 161q1 4 8 2q4 -1 2 -8q-48 -111 -138 -164q-65 -38 -110.5 -30t-69 45t-21.5 90q-42 -76 -78 -113.5t-74 -34.5q-64 5 -70 85q-6 82 47 175q57 100 135 121l25 4q13 68 49 89q31 19 47 -14q18 -39 -1 -124q30 35 64 54
t60 18.5t46 -12.5q34 -28 20 -69.5t-54 -84.5t-84 -75.5t-71 -43.5zM192 353q-40 -4 -91 -103q-55 -106 -62 -190q-5 -65 32 -63q56 3 143 172q2 10 8 30q-23 16 -30.5 64t0.5 90zM451 361q-13 13 -39 0.5t-60 -58t-61 -113.5q-16 -43 -18 -68l1 1q24 10 61.5 39t72.5 66
t50 73t-7 60zM246 296q-2 18 -4 28t-8 19t-16 10q-13 -107 12 -134q20 48 42 80q6 19 10 40q16 77 -6 106q-16 20 -35 -11q-13 -23 -21 -65q34 -12 37 -72q0 -6 -5 -6q-6 0 -6 5z" />
    <glyph glyph-name="Scaron" unicode="&#x160;" horiz-adv-x="738" 
d="M264 696q-96 -27 -128 -110q-28 -76 11 -145q42 -77 137 -83q100 -7 226 75q-13 50 -9.5 94.5t20 74t40 53.5t50.5 34t51.5 14.5t42.5 -5.5q22 -16 26.5 -44.5t-48 -89t-155.5 -132.5q9 -31 32 -80.5t40.5 -92t30 -95.5t3 -114t-43.5 -125q-31 -57 -86 -98.5t-120 -58
t-131 -14t-124.5 32.5t-94.5 83q-44 70 -30.5 144t72.5 122q47 37 113 41.5t114 -31t41 -101.5q-5 -45 -44 -78q-4 -3 -8 1q-3 4 1 8q30 25 37 57q14 60 -23 96t-95 32.5t-102 -43.5q-56 -53 -67 -132.5t38 -139.5q51 -58 119 -72.5t131 9t118 73t85 114.5q13 27 22 53
t12.5 53.5t6 47.5t-1.5 50t-5.5 45.5t-10.5 50t-12.5 47.5t-15.5 53t-16 52q-170 -116 -298 -74q-81 27 -111 104q-32 80 11 155q45 75 147 100q6 2 6 -4q2 -5 -4 -7zM524 444q166 116 175 183q5 29 -24 36q-23 6 -54 -6t-59 -39.5t-40.5 -71t2.5 -102.5zM280 951
q2 -1 44 -54t45 -55q-2 -2 -3 -4l-2 -2q-41 17 -127 78q-31 20 -15 33t58 4zM458 951q49 11 61 -7q8 -14 -18 -30q-95 -65 -128 -78q0 1 -2 3q-1 2 -2 3q3 2 45 55t44 54zM369 834q-5 -1 -5 2q4 -2 5 -2zM369 834q2 0 4 2q1 -2 0 -3t-4 1z" />
    <glyph glyph-name="scaron" unicode="&#x161;" horiz-adv-x="280" 
d="M-10 156l114 233q-30 79 -2 121q17 25 39 17q27 -10 18 -54q-6 -30 -30 -68q25 -42 43.5 -84.5t29.5 -93t0.5 -98.5t-44.5 -84q82 37 128 144q2 5 9 3q4 -3 2 -8q-34 -75 -88 -129.5t-124 -54.5q-67 0 -104.5 31.5t-32 85.5t56.5 114q4 5 8 1q5 -4 1 -8q-33 -35 -43 -72
t0 -63.5t31 -43.5t45 -16q52 3 74 71.5t16.5 147.5t-26.5 126l-111 -224q-4 -4 -8 -2q-4 1 -2 8zM51 666q2 -1 44 -54t45 -55l-4 -4l-1 -2q-41 17 -127 78q-31 20 -15 33t58 4zM229 666q49 11 61 -7q8 -14 -18 -30q-95 -65 -128 -78l-4 6q3 2 45 55t44 54zM140 549
q-5 -1 -5 2q4 -2 5 -2zM140 549q2 0 4 2q2 -2 0.5 -2.5t-4.5 0.5z" />
    <glyph glyph-name="Utilde" unicode="&#x168;" horiz-adv-x="996" 
d="M830 843q-16 -45 -37 -63.5t-41 -13t-42.5 15.5t-41 20.5t-36.5 3.5t-29 -37q-5 -6 -10 0q-2 4 0 6q16 37 35 55t37.5 18.5t37 -5.5t36 -15t32.5 -14t27.5 2t19.5 29q9 5 12 -2zM687 -21q-83 -154 -188 -197q-47 -19 -84 -22.5t-59.5 9.5t-38.5 33.5t-20.5 53.5
t-6.5 64.5t4.5 73t11.5 72t15 68t15 55l11 38.5q3 10 13 39q79 232 70 333q-11 123 -137 97q-49 -10 -104 -63t-91.5 -123t-47.5 -144t29 -126q16 -22 53 -30t77.5 1t77 47.5t48.5 100.5q1 5 6 3q3 -3 3 -6q-20 -104 -107 -152t-164 -6.5t-72 158.5q5 105 91 211t176 134
q41 11 80 9.5t73.5 -24t52.5 -61.5q10 -22 14 -47t1.5 -55.5t-5.5 -55t-13.5 -63t-17 -59.5t-21 -65.5t-19.5 -61.5q-48 -158 -59 -231q-31 -202 80 -193q28 2 65 18q110 48 196 214q8 48 28 123q37 133 95.5 297t108.5 243l69 12q-111 -227 -205 -538q-25 -82 -39 -149
t-18.5 -122.5t9 -86t45.5 -29.5q76 3 163 190q3 5 8 2q5 -2 3 -7q-93 -195 -174 -204q-70 -8 -93 52t-8 170z" />
    <glyph glyph-name="utilde" unicode="&#x169;" horiz-adv-x="372" 
d="M344 517q-16 -45 -37 -63.5t-41 -13t-42.5 15.5t-41 20.5t-36.5 3.5t-29 -37q-5 -6 -10 0q-2 4 0 6q16 37 35 55t37.5 18.5t37 -5.5t36 -15t32.5 -14t27.5 2t19.5 29q9 5 12 -2zM139 365q-9 -20 -72 -187q-14 -41 -20.5 -75.5t-2 -57t21.5 -23.5q55 -4 132 139
q8 33 43 125t36 99q1 4 15.5 -2t28 -14t12.5 -10l-79 -219q-30 -108 6 -106q3 0 7 1q20 5 56 56.5t52 90.5q2 5 7 3q6 -2 4 -7q-7 -18 -21.5 -44.5t-35 -57.5t-47 -52.5t-49.5 -22.5q-27 -1 -38.5 33.5t-3.5 83.5h-3q-19 -31 -33 -51t-46 -43t-67 -23q-50 0 -59.5 59.5
t20.5 137.5q59 161 76 191q1 4 16.5 -1t30 -12.5t13.5 -10.5z" />
    <glyph glyph-name="Ydieresis" unicode="&#x178;" horiz-adv-x="1121" 
d="M924 691l69 12q-15 -45 -137 -362.5t-154 -411.5q-25 -73 -57.5 -135.5t-80.5 -124t-114 -95t-142 -27.5q-65 5 -105 38.5t-52 82.5q-15 55 8 106t70.5 73.5t98.5 3.5q37 -14 58 -47t14.5 -72t-45.5 -66q-7 -4 -10 3q-2 3 2 5q53 30 42 86.5t-63 76.5q-66 24 -112.5 -31
t-35.5 -126q7 -48 39 -81.5t92 -39.5q50 -5 96.5 20t80.5 64t65 94.5t49.5 99.5t33.5 91q32 95 63 179q-101 -155 -202 -204q-72 -34 -119 -37.5t-64 25.5t-23.5 60t6.5 88.5t20.5 86t23.5 76.5q3 9 5 14.5t3 10.5q3 10 13 39q79 232 70 333q-11 123 -137 97
q-49 -10 -104 -63t-91.5 -123t-47.5 -144t29 -126q16 -22 53 -30t77.5 1t77 47.5t48.5 100.5q1 5 6 3q3 -3 3 -6q-20 -104 -107 -152t-164 -6.5t-72 158.5q5 105 91 211t176 134q41 11 80 9.5t73.5 -24t52.5 -61.5q10 -22 14 -47t1.5 -55.5t-5.5 -55t-13.5 -63t-17 -59.5
t-21 -65.5t-19.5 -61.5q-3 -11 -15 -44q-58 -163 -50 -222q12 -88 147 -19q117 60 229 248q36 95 105 268.5t95 241.5zM695 834q1 -1 -6.5 -13t-16.5 -25.5t-10 -16.5q-14 -30 -29 -14q-16 17 -9 53q6 32 20 33.5t51 -17.5zM798 834q1 -1 -6.5 -13t-16.5 -25.5t-10 -16.5
q-14 -30 -29 -14q-16 17 -9 53q6 32 20 33.5t51 -17.5z" />
    <glyph glyph-name="Zcaron" unicode="&#x17d;" horiz-adv-x="783" 
d="M247 340q-76 -26 -132 -7.5t-90 72.5q-21 33 -23.5 75t10 79.5t41.5 67.5t68 40q57 11 97 9.5t87.5 -15t82 -28.5t80 -30.5t82.5 -21.5q121 128 229 127q62 -1 85 -41q23 -38 -13 -73q-59 -60 -225 -41q-10 1 -21 3q-142 -231 -188 -310q205 173 253 46q35 -92 -19 -296
q-35 -134 -79 -208q-160 -270 -372 -233q-59 10 -99 75t-24 126q14 50 53 80.5t87.5 29t85.5 -40.5q32 -33 31.5 -75.5t-34.5 -70.5l-12 -10q-6 -4 -8 1q-3 4 1 8l12 9q42 33 26.5 83.5t-62 67t-97.5 -15.5q-45 -37 -51 -96.5t27 -108t88 -54.5q117 -13 233 152
q100 139 148 324q46 172 9 242q-42 81 -178 -33q-23 -20 -49 -45q-3 -3 -4 -3q-53 -3 -63 2q18 27 101 176.5t119 189.5q-49 8 -117.5 30t-125.5 33.5t-116 4.5q-48 -6 -88 -44.5t-52 -85t6 -89.5q60 -114 195 -69q8 5 8 -3q0 -4 -3 -5zM615 566q85 -13 139 -1.5t78.5 31.5
t24.5 44q0 30 -34 39q-61 16 -153 -60q-27 -23 -55 -53zM445 928q2 -1 44 -54t45 -55l-4 -4l-1 -2q-41 17 -127 78q-31 20 -15 33q17 13 58 4zM623 928q49 11 61 -7q8 -14 -18 -30q-95 -65 -128 -78l-4 6q3 2 45 55t44 54zM534 811q-5 -1 -5 2q4 -2 5 -2zM534 811q2 0 4 2
q2 -2 0.5 -2.5t-4.5 0.5z" />
    <glyph glyph-name="zcaron" unicode="&#x17e;" horiz-adv-x="381" 
d="M-4 164q67 166 78 200q7 20 11 25t7 1.5t12.5 -14t21.5 -16.5q7 -4 14 -5.5t14.5 -1t13 1t14.5 4.5t13 6t14.5 7.5t13.5 6.5q47 21 72 9t24.5 -46t-27.5 -61q-33 -31 -200 -148l-9 -6q59 18 86.5 -17t30.5 -99l29 17q61 36 93.5 66t62.5 88q2 6 7 3q5 -2 3 -7
q-26 -57 -71 -100q-32 -31 -102 -73l-22 -12v-1q-2 -31 -6 -58q-25 -149 -106 -316q-87 -178 -164 -209q-50 -20 -87 32q-17 24 -20 67.5t13.5 103t50 121t99.5 126.5t153 115q7 36 7.5 64.5t-8.5 52.5t-32 24t-64 -21q-7 -4 -21.5 -13.5t-21.5 -14.5q-1 -2 -2 2q-4 11 1 14
q21 14 66 43.5t80 54t67 50.5q37 30 47 77q9 44 -22 45q-12 1 -30 -7q-26 -16 -54.5 -12t-57.5 41q-35 -106 -82 -214q-3 -4 -8 -2q-4 1 -2 6zM125 -61l3 12q-63 -34 -115 -81.5t-85 -97t-55.5 -100.5t-30.5 -94.5t-6.5 -76.5t12.5 -49q25 -35 75 21q96 109 202 466z
M102 666q2 -1 44 -54t45 -55q-2 -2 -3 -4l-2 -2q-41 17 -127 78q-31 20 -15 33t58 4zM280 666q49 11 61 -7q8 -14 -18 -30q-95 -65 -128 -78l-4 6q3 2 45 55t44 54zM191 549q-5 -1 -5 2q4 -2 5 -2zM191 549q2 0 4 2q1 -2 0 -2.5t-4 0.5z" />
    <glyph glyph-name="Ohorn" unicode="&#x1a0;" horiz-adv-x="812" 
d="M309 676q-130 -15 -210 -126q-67 -95 -62 -201q5 -105 83 -145q53 -28 131 -17q13 48 39.5 111.5t68 137.5t88 134.5t104 98t112.5 31.5q32 -3 48 -25t15 -50t-7 -56q18 -10 34 -35q26 -6 49 11.5t26 36.5q-25 -7 -42.5 6.5t-15.5 38.5q0 18 15.5 30t34.5 9q37 -5 35 -51
q-2 -37 -31 -66.5t-65 -27.5q7 -15 14 -47q13 -79 -11 -193.5t-73 -223.5t-125.5 -195.5t-157.5 -107.5q-48 -14 -82.5 -4.5t-56.5 29.5t-34.5 55t-16 70.5t-1.5 76.5q5 90 30 184q-131 -17 -199 71q-59 77 -42 186q18 120 118 194q77 58 186 71q6 2 6 -5q2 -6 -5 -6z
M310 179q-9 -35 -17 -76.5t-14 -93.5t-3 -97.5t14.5 -82.5t40.5 -53t73 -5q79 21 153.5 105t122 189.5t71 217.5t10.5 189q-10 64 -45 86q-43 -138 -150 -233t-256 -146zM317 203q51 13 107 42.5t112 74t102 108.5t68 135q-35 14 -80 -6.5t-84 -60.5q-74 -76 -125 -199
q-2 -5 -7 -3q-6 2 -3 7q57 139 141 217q40 37 83.5 53t77.5 3q24 97 -44 107q-44 6 -102.5 -52t-108 -142t-87.5 -162.5t-50 -121.5z" />
    <glyph glyph-name="ohorn" unicode="&#x1a1;" 
d="M295 366v2q-6 -70 -39 -147q36 -8 73 9.5t59 71.5q3 7 10 4q4 -2 2 -6q-19 -51 -58.5 -77t-90.5 -14q-53 -104 -104.5 -165.5t-95.5 -57.5q-64 5 -70 85q-6 82 47 175q57 100 135 121l25 4q9 46 30 72t42 23q40 -6 35 -88q20 0 37.5 13.5t19.5 27.5q-21 -7 -34.5 3
t-13.5 30q0 15 12.5 25.5t26.5 8.5q31 -3 31 -40q0 -30 -24.5 -55t-54.5 -25zM185 353q-40 -4 -91 -103q-55 -106 -62 -190q-5 -65 32 -63q37 3 88 71.5t89 144.5q-29 15 -46 55t-10 85zM239 296q-2 18 -4 28t-8 19t-16 10q-6 -51 4.5 -84.5t29.5 -42.5q23 49 32.5 103
t3.5 89t-26 33q-27 -4 -42 -82q34 -12 37 -72q0 -6 -5 -6q-6 0 -6 5z" />
    <glyph glyph-name="Uhorn" unicode="&#x1af;" horiz-adv-x="996" 
d="M687 -21q-83 -154 -188 -197q-47 -19 -84 -22.5t-59.5 9.5t-38.5 33.5t-20.5 53.5t-6.5 64.5t4.5 73t11.5 72t15 68t15 55l11 38.5q3 10 13 39q79 232 70 333q-11 123 -137 97q-49 -10 -104 -63t-91.5 -123t-47.5 -144t29 -126q16 -22 53 -30t77.5 1t77 47.5t48.5 100.5
q1 5 6 3q3 -3 3 -6q-20 -104 -107 -152t-164 -6.5t-72 158.5q5 105 91 211t176 134q41 11 80 9.5t73.5 -24t52.5 -61.5q10 -22 14 -47t1.5 -55.5t-5.5 -55t-13.5 -63t-17 -59.5t-21 -65.5t-19.5 -61.5q-48 -158 -59 -231q-31 -202 80 -193q28 2 65 18q110 48 196 214
q8 48 28 123q37 133 95.5 297t108.5 243l27 -2q24 1 40 11q25 16 29 31q-26 -4 -41 10.5t-10 39.5q2 18 19 28t35 5q37 -10 29 -55q-4 -27 -24.5 -49.5t-46.5 -30.5q-106 -223 -193 -514q-25 -82 -39 -149t-18.5 -122.5t9 -86t45.5 -29.5q76 3 163 190q3 5 8 2q5 -2 3 -7
q-93 -195 -174 -204q-70 -8 -93 52t-8 170z" />
    <glyph glyph-name="uhorn" unicode="&#x1b0;" horiz-adv-x="372" 
d="M139 365q-9 -20 -72 -187q-14 -41 -20.5 -75.5t-2 -57t21.5 -23.5q55 -4 132 139q8 33 43 125t36 99q1 5 23 -5.5t31 -17.5q14 3 25 12t14 19q-22 -3 -34 9t-8 32q2 14 16 22.5t28 4.5q30 -8 24 -45q-5 -25 -24 -44.5t-43 -22.5l-75 -209q-30 -108 6 -106q3 0 7 1
q20 5 56 56.5t52 90.5q2 5 7 3q6 -2 4 -7q-7 -18 -21.5 -44.5t-35 -57.5t-47 -52.5t-49.5 -22.5q-27 -1 -38.5 33.5t-3.5 83.5h-3q-19 -31 -33 -51t-46 -43t-67 -23q-50 0 -59.5 59.5t20.5 137.5q59 161 76 191q1 4 16.5 -1t30 -12.5t13.5 -10.5z" />
    <glyph glyph-name="circumflex" unicode="&#x2c6;" horiz-adv-x="428" 
d="M134 501q-49 -11 -61 7q-8 14 18 30q86 61 127 78l2 -2q1 -2 3 -4q-3 -2 -45 -55t-44 -54zM312 501q-2 1 -44 54t-45 55q1 1 2 3q2 2 2 3q33 -13 128 -78q31 -20 15 -33q-17 -13 -58 -4zM223 618q4 1 4 -2q-2 2 -4 2q-5 1 -5 -2q4 2 5 2z" />
    <glyph glyph-name="caron" unicode="&#x2c7;" horiz-adv-x="433" 
d="M134 666q2 -1 44 -54t45 -55q-2 -2 -3 -4l-2 -2q-41 17 -127 78q-31 20 -15 33t58 4zM312 666q49 11 61 -7q8 -14 -18 -30q-95 -65 -128 -78l-4 6q3 2 45 55t44 54zM223 549q-5 -1 -5 2q4 -2 5 -2zM223 549q2 0 4 2q1 -2 0 -2.5t-4 0.5z" />
    <glyph glyph-name="breve" unicode="&#x2d8;" horiz-adv-x="336" 
d="M122 586h78q60 4 71 37q8 21 -12 31q-4 2 -10 3q-2 0 -3 2t4 4q33 2 35 -25q3 -32 -36 -60q-40 -28 -102 -28q-80 0 -86 44q-4 31 27 55q21 15 43 14q3 -2 2 -4q-3 -3 -5 -2q-21 -3 -38.5 -19t-11.5 -32.5t44 -19.5z" />
    <glyph glyph-name="dotaccent" unicode="&#x2d9;" horiz-adv-x="277" 
d="M229 593q1 -1 -6.5 -13t-16.5 -25.5t-10 -16.5q-14 -30 -29 -14q-16 17 -9 53q6 32 20 33.5t51 -17.5z" />
    <glyph glyph-name="ring" unicode="&#x2da;" horiz-adv-x="261" 
d="M180 707q-15 0 -30.5 -21t-26 -51t-17 -60.5t-5.5 -53t11 -23.5q36 -5 69 61q33 67 26 117q-4 31 -27 31zM180 717q36 0 35 -61q-2 -66 -40 -122q-29 -42 -63 -43q-34 0 -35 59q0 68 36 123q30 44 67 44z" />
    <glyph glyph-name="ogonek" unicode="&#x2db;" horiz-adv-x="323" 
d="M225 -36q-4 -2 -4 2q-1 2 3 4q34 2 46 -30q14 -35 -16 -61q-34 -30 -106 -20q-35 5 -55 32.5t-20.5 57t2.5 51.5q6 22 40 19q25 -2 26 -15q0 -2 -1 -4q-2 -5 -10.5 -22t-11 -23.5t-5 -19.5t2 -19t15 -12.5t29.5 -8.5q88 -10 100 26q6 21 -16 36q-9 6 -19 7z" />
    <glyph glyph-name="tilde" unicode="&#x2dc;" horiz-adv-x="433" 
d="M368 611q-21 -45 -48 -63t-53.5 -12t-55 16.5t-53 21t-47.5 2.5t-38 -40q-7 -6 -16 2q-4 3 -1 5q28 55 63.5 71t67.5 3.5t61.5 -28t54.5 -13.5t38 37q12 6 27 -2z" />
    <glyph glyph-name="hungarumlaut" unicode="&#x2dd;" horiz-adv-x="413" 
d="M179 666q49 11 61 -7q8 -14 -18 -30q-105 -72 -133 -80q-9 -3 1 8q3 2 45 55t44 54zM316 666q49 11 61 -7q8 -14 -18 -30q-105 -72 -133 -80q-9 -3 1 8q3 2 45 55t44 54z" />
    <glyph glyph-name="uni1EA0" unicode="&#x1ea0;" horiz-adv-x="1021" 
d="M687 -332q1 0 -6 -10.5l-15 -22.5t-9 -15q-12 -26 -25 -12q-14 15 -8 47q5 28 17.5 29t45.5 -16zM204 -123q34 16 40.5 54t-17 72t-65.5 39q-70 9 -109 -54.5t-14.5 -136.5t108.5 -88q90 -15 207 39q180 85 325 290q-52 7 -78.5 10t-71 3t-71 -9t-55.5 -30.5t-47 -56.5
q-2 -6 -7 -4q-5 4 -4 8q17 34 39.5 57.5t53 35.5t56.5 18t67 4.5t65.5 -4t69.5 -8.5q26 36 55 86q33 55 85 153q4 85 26.5 170t55 136.5t63.5 39.5q35 -13 -78 -239q-9 -48 -12 -143.5t3 -203.5q56 16 81 71q1 3 4.5 3.5t5 -2t0.5 -5.5q-27 -70 -90 -91q8 -135 32.5 -221.5
t67.5 -84.5q74 3 163 189q1 2 3 3t4 0q5 -2 3 -7q-93 -203 -174 -204q-40 -1 -70.5 25.5t-48 74t-27 99t-14.5 114.5q-49 -2 -141 11q-155 -220 -348 -305q-113 -48 -202 -34q-102 16 -133 98.5t16.5 152t137.5 55.5q48 -7 73.5 -46.5t17 -82.5t-46.5 -61q-5 -2 -7 3t3 7z
M832 106q-7 121 3 224q-19 -35 -45.5 -82.5t-28.5 -51.5q-30 -51 -51 -81q74 -10 122 -9zM903 488q44 90 61 141q18 54 10 54q-9 -2 -31 -52q-19 -44 -40 -143z" />
    <glyph glyph-name="uni1EA1" unicode="&#x1ea1;" horiz-adv-x="370" 
d="M107 -68q1 0 -6 -10.5l-15 -22.5t-9 -15q-12 -26 -25 -12q-14 15 -8 47q5 28 17.5 29t45.5 -16zM242 311q-2 34 -12 45q-39 43 -100 -45q-56 -81 -81 -186q-22 -98 15 -102q56 -4 132 139q9 34 26.5 80.5t18.5 51.5q1 4 15 -2t27.5 -14t12.5 -10l-44 -128
q-31 -109 7 -106q3 0 6 1q20 6 57.5 57.5t50.5 89.5q2 6 7 4q6 -2 4 -7q-21 -52 -65.5 -114t-87.5 -63q-27 -1 -38.5 33.5t-3.5 83.5l-3 -1q-14 -23 -24 -37t-29 -35.5t-42.5 -32.5t-50.5 -11q-50 0 -59.5 59t20.5 137q26 72 73 126.5t96 63.5q41 7 62.5 -13.5t20.5 -63.5
q0 -6 -5 -6q-6 0 -6 6z" />
    <glyph glyph-name="uni1EA2" unicode="&#x1ea2;" horiz-adv-x="1021" 
d="M983 750h-11q0 2 1 10t2 14t3.5 14.5t7 15.5t11.5 12q5 4 14.5 9t15 9t9.5 10q11 15 12 33.5t-15 25.5q-14 5 -38 -5q-15 -8 -20 -22t-2 -24.5t-2 -21.5q-16 8 -11.5 38t27.5 41q29 18 64 9q26 -6 34.5 -29t-5.5 -51q-5 -10 -17 -19t-30.5 -19.5t-28.5 -18.5q-5 -4 -8 -9
t-6.5 -11.5t-6.5 -10.5zM204 -123q34 16 40.5 54t-17 72t-65.5 39q-70 9 -109 -54.5t-14.5 -136.5t108.5 -88q90 -15 207 39q180 85 325 290q-52 7 -78.5 10t-71 3t-71 -9t-55.5 -30.5t-47 -56.5q-2 -6 -7 -4q-5 4 -4 8q17 34 39.5 57.5t53 35.5t56.5 18t67 4.5t65.5 -4
t69.5 -8.5q26 36 55 86q33 55 85 153q4 85 26.5 170t55 136.5t63.5 39.5q35 -13 -78 -239q-9 -48 -12 -143.5t3 -203.5q56 16 81 71q1 3 4.5 3.5t5 -2t0.5 -5.5q-27 -70 -90 -91q8 -135 32.5 -221.5t67.5 -84.5q74 3 163 189q1 2 3 3t4 0q5 -2 3 -7q-93 -203 -174 -204
q-40 -1 -70.5 25.5t-48 74t-27 99t-14.5 114.5q-49 -2 -141 11q-155 -220 -348 -305q-113 -48 -202 -34q-102 16 -133 98.5t16.5 152t137.5 55.5q48 -7 73.5 -46.5t17 -82.5t-46.5 -61q-5 -2 -7 3t3 7zM832 106q-7 121 3 224q-19 -35 -45.5 -82.5t-28.5 -51.5
q-30 -51 -51 -81q74 -10 122 -9zM903 488q44 90 61 141q18 54 10 54q-9 -2 -31 -52q-19 -44 -40 -143z" />
    <glyph glyph-name="uni1EA3" unicode="&#x1ea3;" horiz-adv-x="370" 
d="M231 428h-11q0 2 1 10t2 14t3.5 14.5t7 15.5t11.5 12q5 4 14.5 9t15 9t9.5 10q11 15 12 33.5t-15 25.5q-14 5 -38 -5q-15 -8 -20 -22t-2 -24.5t-2 -21.5q-16 8 -11.5 38t27.5 41q29 18 64 9q26 -6 34.5 -29t-5.5 -51q-5 -10 -17 -19t-30.5 -19.5t-28.5 -18.5q-5 -4 -8 -9
t-6.5 -11.5t-6.5 -10.5zM242 311q-2 34 -12 45q-39 43 -100 -45q-56 -81 -81 -186q-22 -98 15 -102q56 -4 132 139q9 34 26.5 80.5t18.5 51.5q1 4 15 -2t27.5 -14t12.5 -10l-44 -128q-31 -109 7 -106q3 0 6 1q20 6 57.5 57.5t50.5 89.5q2 6 7 4q6 -2 4 -7
q-21 -52 -65.5 -114t-87.5 -63q-27 -1 -38.5 33.5t-3.5 83.5l-3 -1q-14 -23 -24 -37t-29 -35.5t-42.5 -32.5t-50.5 -11q-50 0 -59.5 59t20.5 137q26 72 73 126.5t96 63.5q41 7 62.5 -13.5t20.5 -63.5q0 -6 -5 -6q-6 0 -6 6z" />
    <glyph glyph-name="uni1EA4" unicode="&#x1ea4;" horiz-adv-x="1021" 
d="M204 -123q34 16 40.5 54t-17 72t-65.5 39q-70 9 -109 -54.5t-14.5 -136.5t108.5 -88q90 -15 207 39q180 85 325 290q-52 7 -78.5 10t-71 3t-71 -9t-55.5 -30.5t-47 -56.5q-2 -6 -7 -4q-5 4 -4 8q17 34 39.5 57.5t53 35.5t56.5 18t67 4.5t65.5 -4t69.5 -8.5q26 36 55 86
q33 55 85 153q4 85 26.5 170t55 136.5t63.5 39.5q35 -13 -78 -239q-9 -48 -12 -143.5t3 -203.5q56 16 81 71q1 3 4.5 3.5t5 -2t0.5 -5.5q-27 -70 -90 -91q8 -135 32.5 -221.5t67.5 -84.5q74 3 163 189q1 2 3 3t4 0q5 -2 3 -7q-93 -203 -174 -204q-40 -1 -70.5 25.5t-48 74
t-27 99t-14.5 114.5q-49 -2 -141 11q-155 -220 -348 -305q-113 -48 -202 -34q-102 16 -133 98.5t16.5 152t137.5 55.5q48 -7 73.5 -46.5t17 -82.5t-46.5 -61q-5 -2 -7 3t3 7zM832 106q-7 121 3 224q-19 -35 -45.5 -82.5t-28.5 -51.5q-30 -51 -51 -81q74 -10 122 -9zM903 488
q44 90 61 141q18 54 10 54q-9 -2 -31 -52q-19 -44 -40 -143zM986 885q21 10 53 2q1 0 12 -30t21.5 -61.5t12.5 -33.5q9 -20 -13 -1q-26 22 -72 73q-85 -64 -122 -82q-15 -6 -1 8q4 3 57 64zM1160 981q50 12 65 -8q12 -14 -13 -32q-119 -90 -132 -86q-3 1 3 9q3 2 39 59
t38 58z" />
    <glyph glyph-name="uni1EA5" unicode="&#x1ea5;" horiz-adv-x="370" 
d="M242 311q-2 34 -12 45q-39 43 -100 -45q-56 -81 -81 -186q-22 -98 15 -102q56 -4 132 139q9 34 26.5 80.5t18.5 51.5q1 4 15 -2t27.5 -14t12.5 -10l-44 -128q-31 -109 7 -106q3 0 6 1q20 6 57.5 57.5t50.5 89.5q2 6 7 4q6 -2 4 -7q-21 -52 -65.5 -114t-87.5 -63
q-27 -1 -38.5 33.5t-3.5 83.5l-3 -1q-14 -23 -24 -37t-29 -35.5t-42.5 -32.5t-50.5 -11q-50 0 -59.5 59t20.5 137q26 72 73 126.5t96 63.5q41 7 62.5 -13.5t20.5 -63.5q0 -6 -5 -6q-6 0 -6 6zM224 554q21 10 53 2q1 0 12 -30t21.5 -61.5t12.5 -33.5q9 -20 -13 -1
q-26 22 -72 73q-85 -64 -122 -82q-15 -6 -1 8q4 3 57 64zM398 650q50 12 65 -8q12 -14 -13 -32q-119 -90 -132 -86q-3 1 3 9q3 2 39 59t38 58z" />
    <glyph glyph-name="uni1EA6" unicode="&#x1ea6;" horiz-adv-x="1021" 
d="M204 -123q34 16 40.5 54t-17 72t-65.5 39q-70 9 -109 -54.5t-14.5 -136.5t108.5 -88q90 -15 207 39q180 85 325 290q-52 7 -78.5 10t-71 3t-71 -9t-55.5 -30.5t-47 -56.5q-2 -6 -7 -4q-5 4 -4 8q17 34 39.5 57.5t53 35.5t56.5 18t67 4.5t65.5 -4t69.5 -8.5q26 36 55 86
q33 55 85 153q4 85 26.5 170t55 136.5t63.5 39.5q35 -13 -78 -239q-9 -48 -12 -143.5t3 -203.5q56 16 81 71q1 3 4.5 3.5t5 -2t0.5 -5.5q-27 -70 -90 -91q8 -135 32.5 -221.5t67.5 -84.5q74 3 163 189q1 2 3 3t4 0q5 -2 3 -7q-93 -203 -174 -204q-40 -1 -70.5 25.5t-48 74
t-27 99t-14.5 114.5q-49 -2 -141 11q-155 -220 -348 -305q-113 -48 -202 -34q-102 16 -133 98.5t16.5 152t137.5 55.5q48 -7 73.5 -46.5t17 -82.5t-46.5 -61q-5 -2 -7 3t3 7zM832 106q-7 121 3 224q-19 -35 -45.5 -82.5t-28.5 -51.5q-30 -51 -51 -81q74 -10 122 -9zM903 488
q44 90 61 141q18 54 10 54q-9 -2 -31 -52q-19 -44 -40 -143zM986 885q21 10 53 2q1 0 12 -30t21.5 -61.5t12.5 -33.5q9 -20 -13 -1q-26 22 -72 73q-85 -64 -122 -82q-15 -6 -1 8q4 3 57 64zM1076 991q2 0 14.5 -31t25 -63t14.5 -34q9 -18 -13 1q-6 4 -85 81q-4 3 -6 5
q-24 23 -6 37q17 14 56 4z" />
    <glyph glyph-name="uni1EA7" unicode="&#x1ea7;" horiz-adv-x="370" 
d="M242 311q-2 34 -12 45q-39 43 -100 -45q-56 -81 -81 -186q-22 -98 15 -102q56 -4 132 139q9 34 26.5 80.5t18.5 51.5q1 4 15 -2t27.5 -14t12.5 -10l-44 -128q-31 -109 7 -106q3 0 6 1q20 6 57.5 57.5t50.5 89.5q2 6 7 4q6 -2 4 -7q-21 -52 -65.5 -114t-87.5 -63
q-27 -1 -38.5 33.5t-3.5 83.5l-3 -1q-14 -23 -24 -37t-29 -35.5t-42.5 -32.5t-50.5 -11q-50 0 -59.5 59t20.5 137q26 72 73 126.5t96 63.5q41 7 62.5 -13.5t20.5 -63.5q0 -6 -5 -6q-6 0 -6 6zM224 554q21 10 53 2q1 0 12 -30t21.5 -61.5t12.5 -33.5q9 -20 -13 -1
q-26 22 -72 73q-85 -64 -122 -82q-15 -6 -1 8q4 3 57 64zM314 660q2 0 14.5 -31t25 -63t14.5 -34q9 -18 -13 1q-6 4 -85 81q-4 3 -6 5q-24 23 -6 37q17 14 56 4z" />
    <glyph glyph-name="uni1EA8" unicode="&#x1ea8;" horiz-adv-x="1021" 
d="M204 -123q34 16 40.5 54t-17 72t-65.5 39q-70 9 -109 -54.5t-14.5 -136.5t108.5 -88q90 -15 207 39q180 85 325 290q-52 7 -78.5 10t-71 3t-71 -9t-55.5 -30.5t-47 -56.5q-2 -6 -7 -4q-5 4 -4 8q17 34 39.5 57.5t53 35.5t56.5 18t67 4.5t65.5 -4t69.5 -8.5q26 36 55 86
q33 55 85 153q4 85 26.5 170t55 136.5t63.5 39.5q35 -13 -78 -239q-9 -48 -12 -143.5t3 -203.5q56 16 81 71q1 3 4.5 3.5t5 -2t0.5 -5.5q-27 -70 -90 -91q8 -135 32.5 -221.5t67.5 -84.5q74 3 163 189q1 2 3 3t4 0q5 -2 3 -7q-93 -203 -174 -204q-40 -1 -70.5 25.5t-48 74
t-27 99t-14.5 114.5q-49 -2 -141 11q-155 -220 -348 -305q-113 -48 -202 -34q-102 16 -133 98.5t16.5 152t137.5 55.5q48 -7 73.5 -46.5t17 -82.5t-46.5 -61q-5 -2 -7 3t3 7zM832 106q-7 121 3 224q-19 -35 -45.5 -82.5t-28.5 -51.5q-30 -51 -51 -81q74 -10 122 -9zM903 488
q44 90 61 141q18 54 10 54q-9 -2 -31 -52q-19 -44 -40 -143zM986 885q21 10 53 2q1 0 12 -30t21.5 -61.5t12.5 -33.5q9 -20 -13 -1q-26 22 -72 73q-85 -64 -122 -82q-15 -6 -1 8q4 3 57 64zM1092 855h-11q0 2 1 10t2 14t3.5 14.5t7 15.5t11.5 12q5 4 14.5 9t15 9t9.5 10
q11 15 12 33.5t-15 25.5q-14 5 -38 -5q-15 -8 -20 -22t-2 -24.5t-2 -21.5q-16 8 -11.5 38t27.5 41q29 18 64 9q26 -6 34.5 -29t-5.5 -51q-5 -10 -17 -19t-30.5 -19.5t-28.5 -18.5q-5 -4 -8 -9t-6.5 -11.5t-6.5 -10.5z" />
    <glyph glyph-name="uni1EA9" unicode="&#x1ea9;" horiz-adv-x="370" 
d="M242 311q-2 34 -12 45q-39 43 -100 -45q-56 -81 -81 -186q-22 -98 15 -102q56 -4 132 139q9 34 26.5 80.5t18.5 51.5q1 4 15 -2t27.5 -14t12.5 -10l-44 -128q-31 -109 7 -106q3 0 6 1q20 6 57.5 57.5t50.5 89.5q2 6 7 4q6 -2 4 -7q-21 -52 -65.5 -114t-87.5 -63
q-27 -1 -38.5 33.5t-3.5 83.5l-3 -1q-14 -23 -24 -37t-29 -35.5t-42.5 -32.5t-50.5 -11q-50 0 -59.5 59t20.5 137q26 72 73 126.5t96 63.5q41 7 62.5 -13.5t20.5 -63.5q0 -6 -5 -6q-6 0 -6 6zM224 554q21 10 53 2q1 0 12 -30t21.5 -61.5t12.5 -33.5q9 -20 -13 -1
q-26 22 -72 73q-85 -64 -122 -82q-15 -6 -1 8q4 3 57 64zM330 524h-11q0 2 1 10t2 14t3.5 14.5t7 15.5t11.5 12q5 4 14.5 9t15 9t9.5 10q11 15 12 33.5t-15 25.5q-14 5 -38 -5q-15 -8 -20 -22t-2 -24.5t-2 -21.5q-16 8 -11.5 38t27.5 41q29 18 64 9q26 -6 34.5 -29t-5.5 -51
q-5 -10 -17 -19t-30.5 -19.5t-28.5 -18.5q-5 -4 -8 -9t-6.5 -11.5t-6.5 -10.5z" />
    <glyph glyph-name="uni1EAA" unicode="&#x1eaa;" horiz-adv-x="1021" 
d="M204 -123q34 16 40.5 54t-17 72t-65.5 39q-70 9 -109 -54.5t-14.5 -136.5t108.5 -88q90 -15 207 39q180 85 325 290q-52 7 -78.5 10t-71 3t-71 -9t-55.5 -30.5t-47 -56.5q-2 -6 -7 -4q-5 4 -4 8q17 34 39.5 57.5t53 35.5t56.5 18t67 4.5t65.5 -4t69.5 -8.5q26 36 55 86
q33 55 85 153q4 85 26.5 170t55 136.5t63.5 39.5q35 -13 -78 -239q-9 -48 -12 -143.5t3 -203.5q56 16 81 71q1 3 4.5 3.5t5 -2t0.5 -5.5q-27 -70 -90 -91q8 -135 32.5 -221.5t67.5 -84.5q74 3 163 189q1 2 3 3t4 0q5 -2 3 -7q-93 -203 -174 -204q-40 -1 -70.5 25.5t-48 74
t-27 99t-14.5 114.5q-49 -2 -141 11q-155 -220 -348 -305q-113 -48 -202 -34q-102 16 -133 98.5t16.5 152t137.5 55.5q48 -7 73.5 -46.5t17 -82.5t-46.5 -61q-5 -2 -7 3t3 7zM832 106q-7 121 3 224q-19 -35 -45.5 -82.5t-28.5 -51.5q-30 -51 -51 -81q74 -10 122 -9zM903 488
q44 90 61 141q18 54 10 54q-9 -2 -31 -52q-19 -44 -40 -143zM986 885q21 10 53 2q1 0 12 -30t21.5 -61.5t12.5 -33.5q9 -20 -13 -1q-26 22 -72 73q-85 -64 -122 -82q-15 -6 -1 8q4 3 57 64zM1147 1005q-16 -45 -37 -63.5t-41 -13t-42.5 15.5t-41 20.5t-36.5 3.5t-29 -37
q-5 -6 -10 0q-2 4 0 6q16 37 35 55t37.5 18.5t37 -5.5t36 -15t32.5 -14t27.5 2t19.5 29q9 5 12 -2z" />
    <glyph glyph-name="uni1EAB" unicode="&#x1eab;" horiz-adv-x="370" 
d="M242 311q-2 34 -12 45q-39 43 -100 -45q-56 -81 -81 -186q-22 -98 15 -102q56 -4 132 139q9 34 26.5 80.5t18.5 51.5q1 4 15 -2t27.5 -14t12.5 -10l-44 -128q-31 -109 7 -106q3 0 6 1q20 6 57.5 57.5t50.5 89.5q2 6 7 4q6 -2 4 -7q-21 -52 -65.5 -114t-87.5 -63
q-27 -1 -38.5 33.5t-3.5 83.5l-3 -1q-14 -23 -24 -37t-29 -35.5t-42.5 -32.5t-50.5 -11q-50 0 -59.5 59t20.5 137q26 72 73 126.5t96 63.5q41 7 62.5 -13.5t20.5 -63.5q0 -6 -5 -6q-6 0 -6 6zM224 554q21 10 53 2q1 0 12 -30t21.5 -61.5t12.5 -33.5q9 -20 -13 -1
q-26 22 -72 73q-85 -64 -122 -82q-15 -6 -1 8q4 3 57 64zM385 674q-16 -45 -37 -63.5t-41 -13t-42.5 15.5t-41 20.5t-36.5 3.5t-29 -37q-5 -6 -10 0q-2 4 0 6q16 37 35 55t37.5 18.5t37 -5.5t36 -15t32.5 -14t27.5 2t19.5 29q9 5 12 -2z" />
    <glyph glyph-name="uni1EAC" unicode="&#x1eac;" horiz-adv-x="1021" 
d="M204 -123q34 16 40.5 54t-17 72t-65.5 39q-70 9 -109 -54.5t-14.5 -136.5t108.5 -88q90 -15 207 39q180 85 325 290q-52 7 -78.5 10t-71 3t-71 -9t-55.5 -30.5t-47 -56.5q-2 -6 -7 -4q-5 4 -4 8q17 34 39.5 57.5t53 35.5t56.5 18t67 4.5t65.5 -4t69.5 -8.5q26 36 55 86
q33 55 85 153q4 85 26.5 170t55 136.5t63.5 39.5q35 -13 -78 -239q-9 -48 -12 -143.5t3 -203.5q56 16 81 71q1 3 4.5 3.5t5 -2t0.5 -5.5q-27 -70 -90 -91q8 -135 32.5 -221.5t67.5 -84.5q74 3 163 189q1 2 3 3t4 0q5 -2 3 -7q-93 -203 -174 -204q-40 -1 -70.5 25.5t-48 74
t-27 99t-14.5 114.5q-49 -2 -141 11q-155 -220 -348 -305q-113 -48 -202 -34q-102 16 -133 98.5t16.5 152t137.5 55.5q48 -7 73.5 -46.5t17 -82.5t-46.5 -61q-5 -2 -7 3t3 7zM832 106q-7 121 3 224q-19 -35 -45.5 -82.5t-28.5 -51.5q-30 -51 -51 -81q74 -10 122 -9zM903 488
q44 90 61 141q18 54 10 54q-9 -2 -31 -52q-19 -44 -40 -143zM986 885q21 10 53 2q1 0 12 -30t21.5 -61.5t12.5 -33.5q9 -20 -13 -1q-26 22 -72 73q-85 -64 -122 -82q-15 -6 -1 8q4 3 57 64zM687 -332q1 0 -6 -10.5l-15 -22.5t-9 -15q-12 -26 -25 -12q-14 15 -8 47
q5 28 17.5 29t45.5 -16z" />
    <glyph glyph-name="uni1EAD" unicode="&#x1ead;" horiz-adv-x="370" 
d="M242 311q-2 34 -12 45q-39 43 -100 -45q-56 -81 -81 -186q-22 -98 15 -102q56 -4 132 139q9 34 26.5 80.5t18.5 51.5q1 4 15 -2t27.5 -14t12.5 -10l-44 -128q-31 -109 7 -106q3 0 6 1q20 6 57.5 57.5t50.5 89.5q2 6 7 4q6 -2 4 -7q-21 -52 -65.5 -114t-87.5 -63
q-27 -1 -38.5 33.5t-3.5 83.5l-3 -1q-14 -23 -24 -37t-29 -35.5t-42.5 -32.5t-50.5 -11q-50 0 -59.5 59t20.5 137q26 72 73 126.5t96 63.5q41 7 62.5 -13.5t20.5 -63.5q0 -6 -5 -6q-6 0 -6 6zM224 554q21 10 53 2q1 0 12 -30t21.5 -61.5t12.5 -33.5q9 -20 -13 -1
q-26 22 -72 73q-85 -64 -122 -82q-15 -6 -1 8q4 3 57 64zM107 -68q1 0 -6 -10.5l-15 -22.5t-9 -15q-12 -26 -25 -12q-14 15 -8 47q5 28 17.5 29t45.5 -16z" />
    <glyph glyph-name="uni1EAE" unicode="&#x1eae;" horiz-adv-x="1021" 
d="M1009 801q38 -1 63 12.5t54 46.5l-4 -14t-11.5 -24.5t-22 -30t-36 -24.5t-52.5 -15q-40 -4 -63.5 17.5t-20 50t31.5 44.5q-11 -26 6.5 -44t54.5 -19zM204 -123q34 16 40.5 54t-17 72t-65.5 39q-70 9 -109 -54.5t-14.5 -136.5t108.5 -88q90 -15 207 39q180 85 325 290
q-52 7 -78.5 10t-71 3t-71 -9t-55.5 -30.5t-47 -56.5q-2 -6 -7 -4q-5 4 -4 8q17 34 39.5 57.5t53 35.5t56.5 18t67 4.5t65.5 -4t69.5 -8.5q26 36 55 86q33 55 85 153q4 85 26.5 170t55 136.5t63.5 39.5q35 -13 -78 -239q-9 -48 -12 -143.5t3 -203.5q56 16 81 71q1 3 4.5 3.5
t5 -2t0.5 -5.5q-27 -70 -90 -91q8 -135 32.5 -221.5t67.5 -84.5q74 3 163 189q1 2 3 3t4 0q5 -2 3 -7q-93 -203 -174 -204q-40 -1 -70.5 25.5t-48 74t-27 99t-14.5 114.5q-49 -2 -141 11q-155 -220 -348 -305q-113 -48 -202 -34q-102 16 -133 98.5t16.5 152t137.5 55.5
q48 -7 73.5 -46.5t17 -82.5t-46.5 -61q-5 -2 -7 3t3 7zM832 106q-7 121 3 224q-19 -35 -45.5 -82.5t-28.5 -51.5q-30 -51 -51 -81q74 -10 122 -9zM903 488q44 90 61 141q18 54 10 54q-9 -2 -31 -52q-19 -44 -40 -143zM1085 989q50 12 65 -8q12 -14 -13 -32
q-119 -90 -132 -86q-3 1 3 9q3 2 39 59t38 58z" />
    <glyph glyph-name="uni1EAF" unicode="&#x1eaf;" horiz-adv-x="370" 
d="M258 489q38 -1 63 12.5t54 46.5l-4 -14t-11.5 -24.5t-22 -30t-36 -24.5t-52.5 -15q-40 -4 -63.5 17.5t-20 50t31.5 44.5q-11 -26 6.5 -44t54.5 -19zM242 311q-2 34 -12 45q-39 43 -100 -45q-56 -81 -81 -186q-22 -98 15 -102q56 -4 132 139q9 34 26.5 80.5t18.5 51.5
q1 4 15 -2t27.5 -14t12.5 -10l-44 -128q-31 -109 7 -106q3 0 6 1q20 6 57.5 57.5t50.5 89.5q2 6 7 4q6 -2 4 -7q-21 -52 -65.5 -114t-87.5 -63q-27 -1 -38.5 33.5t-3.5 83.5l-3 -1q-14 -23 -24 -37t-29 -35.5t-42.5 -32.5t-50.5 -11q-50 0 -59.5 59t20.5 137q26 72 73 126.5
t96 63.5q41 7 62.5 -13.5t20.5 -63.5q0 -6 -5 -6q-6 0 -6 6zM334 677q50 12 65 -8q12 -14 -13 -32q-119 -90 -132 -86q-3 1 3 9q3 2 39 59t38 58z" />
    <glyph glyph-name="uni1EB0" unicode="&#x1eb0;" horiz-adv-x="1021" 
d="M1009 801q38 -1 63 12.5t54 46.5l-4 -14t-11.5 -24.5t-22 -30t-36 -24.5t-52.5 -15q-40 -4 -63.5 17.5t-20 50t31.5 44.5q-11 -26 6.5 -44t54.5 -19zM204 -123q34 16 40.5 54t-17 72t-65.5 39q-70 9 -109 -54.5t-14.5 -136.5t108.5 -88q90 -15 207 39q180 85 325 290
q-52 7 -78.5 10t-71 3t-71 -9t-55.5 -30.5t-47 -56.5q-2 -6 -7 -4q-5 4 -4 8q17 34 39.5 57.5t53 35.5t56.5 18t67 4.5t65.5 -4t69.5 -8.5q26 36 55 86q33 55 85 153q4 85 26.5 170t55 136.5t63.5 39.5q35 -13 -78 -239q-9 -48 -12 -143.5t3 -203.5q56 16 81 71q1 3 4.5 3.5
t5 -2t0.5 -5.5q-27 -70 -90 -91q8 -135 32.5 -221.5t67.5 -84.5q74 3 163 189q1 2 3 3t4 0q5 -2 3 -7q-93 -203 -174 -204q-40 -1 -70.5 25.5t-48 74t-27 99t-14.5 114.5q-49 -2 -141 11q-155 -220 -348 -305q-113 -48 -202 -34q-102 16 -133 98.5t16.5 152t137.5 55.5
q48 -7 73.5 -46.5t17 -82.5t-46.5 -61q-5 -2 -7 3t3 7zM832 106q-7 121 3 224q-19 -35 -45.5 -82.5t-28.5 -51.5q-30 -51 -51 -81q74 -10 122 -9zM903 488q44 90 61 141q18 54 10 54q-9 -2 -31 -52q-19 -44 -40 -143zM997 995q2 0 14.5 -31t25 -63t14.5 -34q9 -18 -13 1
q-6 4 -85 81q-4 3 -6 5q-24 23 -6 37q17 14 56 4z" />
    <glyph glyph-name="uni1EB1" unicode="&#x1eb1;" horiz-adv-x="370" 
d="M258 489q38 -1 63 12.5t54 46.5l-4 -14t-11.5 -24.5t-22 -30t-36 -24.5t-52.5 -15q-40 -4 -63.5 17.5t-20 50t31.5 44.5q-11 -26 6.5 -44t54.5 -19zM242 311q-2 34 -12 45q-39 43 -100 -45q-56 -81 -81 -186q-22 -98 15 -102q56 -4 132 139q9 34 26.5 80.5t18.5 51.5
q1 4 15 -2t27.5 -14t12.5 -10l-44 -128q-31 -109 7 -106q3 0 6 1q20 6 57.5 57.5t50.5 89.5q2 6 7 4q6 -2 4 -7q-21 -52 -65.5 -114t-87.5 -63q-27 -1 -38.5 33.5t-3.5 83.5l-3 -1q-14 -23 -24 -37t-29 -35.5t-42.5 -32.5t-50.5 -11q-50 0 -59.5 59t20.5 137q26 72 73 126.5
t96 63.5q41 7 62.5 -13.5t20.5 -63.5q0 -6 -5 -6q-6 0 -6 6zM246 683q2 0 14.5 -31t25 -63t14.5 -34q9 -18 -13 0q-16 14 -64 61q-20 20 -27 26q-24 23 -6 37q17 14 56 4z" />
    <glyph glyph-name="uni1EB2" unicode="&#x1eb2;" horiz-adv-x="1021" 
d="M1009 801q38 -1 63 12.5t54 46.5l-4 -14t-11.5 -24.5t-22 -30t-36 -24.5t-52.5 -15q-40 -4 -63.5 17.5t-20 50t31.5 44.5q-11 -26 6.5 -44t54.5 -19zM204 -123q34 16 40.5 54t-17 72t-65.5 39q-70 9 -109 -54.5t-14.5 -136.5t108.5 -88q90 -15 207 39q180 85 325 290
q-52 7 -78.5 10t-71 3t-71 -9t-55.5 -30.5t-47 -56.5q-2 -6 -7 -4q-5 4 -4 8q17 34 39.5 57.5t53 35.5t56.5 18t67 4.5t65.5 -4t69.5 -8.5q26 36 55 86q33 55 85 153q4 85 26.5 170t55 136.5t63.5 39.5q35 -13 -78 -239q-9 -48 -12 -143.5t3 -203.5q56 16 81 71q1 3 4.5 3.5
t5 -2t0.5 -5.5q-27 -70 -90 -91q8 -135 32.5 -221.5t67.5 -84.5q74 3 163 189q1 2 3 3t4 0q5 -2 3 -7q-93 -203 -174 -204q-40 -1 -70.5 25.5t-48 74t-27 99t-14.5 114.5q-49 -2 -141 11q-155 -220 -348 -305q-113 -48 -202 -34q-102 16 -133 98.5t16.5 152t137.5 55.5
q48 -7 73.5 -46.5t17 -82.5t-46.5 -61q-5 -2 -7 3t3 7zM832 106q-7 121 3 224q-19 -35 -45.5 -82.5t-28.5 -51.5q-30 -51 -51 -81q74 -10 122 -9zM903 488q44 90 61 141q18 54 10 54q-9 -2 -31 -52q-19 -44 -40 -143zM1026 854h-11q0 2 1 10t2 14t3.5 14.5t7 15.5t11.5 12
q5 4 14.5 9t15 9t9.5 10q11 15 12 33.5t-15 25.5q-14 5 -38 -5q-15 -8 -20 -22t-2 -24.5t-2 -21.5q-16 8 -11.5 38t27.5 41q29 18 64 9q26 -6 34.5 -29t-5.5 -51q-5 -10 -17 -19t-30.5 -19.5t-28.5 -18.5q-5 -4 -8 -9t-6.5 -11.5t-6.5 -10.5z" />
    <glyph glyph-name="uni1EB3" unicode="&#x1eb3;" horiz-adv-x="370" 
d="M258 489q38 -1 63 12.5t54 46.5l-4 -14t-11.5 -24.5t-22 -30t-36 -24.5t-52.5 -15q-40 -4 -63.5 17.5t-20 50t31.5 44.5q-11 -26 6.5 -44t54.5 -19zM242 311q-2 34 -12 45q-39 43 -100 -45q-56 -81 -81 -186q-22 -98 15 -102q56 -4 132 139q9 34 26.5 80.5t18.5 51.5
q1 4 15 -2t27.5 -14t12.5 -10l-44 -128q-31 -109 7 -106q3 0 6 1q20 6 57.5 57.5t50.5 89.5q2 6 7 4q6 -2 4 -7q-21 -52 -65.5 -114t-87.5 -63q-27 -1 -38.5 33.5t-3.5 83.5l-3 -1q-14 -23 -24 -37t-29 -35.5t-42.5 -32.5t-50.5 -11q-50 0 -59.5 59t20.5 137q26 72 73 126.5
t96 63.5q41 7 62.5 -13.5t20.5 -63.5q0 -6 -5 -6q-6 0 -6 6zM275 542h-11q0 2 1 10t2 14t3.5 14.5t7 15.5t11.5 12q5 4 14.5 9t15 9t9.5 10q11 15 12 33.5t-15 25.5q-14 5 -38 -5q-15 -8 -20 -22t-2 -24.5t-2 -21.5q-16 8 -11.5 38t27.5 41q29 18 64 9q26 -6 34.5 -29
t-5.5 -51q-5 -10 -17 -19t-30.5 -19.5t-28.5 -18.5q-5 -4 -8 -9t-6.5 -11.5t-6.5 -10.5z" />
    <glyph glyph-name="uni1EB4" unicode="&#x1eb4;" horiz-adv-x="1021" 
d="M1009 801q38 -1 63 12.5t54 46.5l-4 -14t-11.5 -24.5t-22 -30t-36 -24.5t-52.5 -15q-40 -4 -63.5 17.5t-20 50t31.5 44.5q-11 -26 6.5 -44t54.5 -19zM204 -123q34 16 40.5 54t-17 72t-65.5 39q-70 9 -109 -54.5t-14.5 -136.5t108.5 -88q90 -15 207 39q180 85 325 290
q-52 7 -78.5 10t-71 3t-71 -9t-55.5 -30.5t-47 -56.5q-2 -6 -7 -4q-5 4 -4 8q17 34 39.5 57.5t53 35.5t56.5 18t67 4.5t65.5 -4t69.5 -8.5q26 36 55 86q33 55 85 153q4 85 26.5 170t55 136.5t63.5 39.5q35 -13 -78 -239q-9 -48 -12 -143.5t3 -203.5q56 16 81 71q1 3 4.5 3.5
t5 -2t0.5 -5.5q-27 -70 -90 -91q8 -135 32.5 -221.5t67.5 -84.5q74 3 163 189q1 2 3 3t4 0q5 -2 3 -7q-93 -203 -174 -204q-40 -1 -70.5 25.5t-48 74t-27 99t-14.5 114.5q-49 -2 -141 11q-155 -220 -348 -305q-113 -48 -202 -34q-102 16 -133 98.5t16.5 152t137.5 55.5
q48 -7 73.5 -46.5t17 -82.5t-46.5 -61q-5 -2 -7 3t3 7zM832 106q-7 121 3 224q-19 -35 -45.5 -82.5t-28.5 -51.5q-30 -51 -51 -81q74 -10 122 -9zM903 488q44 90 61 141q18 54 10 54q-9 -2 -31 -52q-19 -44 -40 -143zM1171 963q-16 -45 -37 -63.5t-41 -13t-42.5 15.5
t-41 20.5t-36.5 3.5t-29 -37q-5 -6 -10 0q-2 4 0 6q16 37 35 55t37.5 18.5t37 -5.5t36 -15t32.5 -14t27.5 2t19.5 29q9 5 12 -2z" />
    <glyph glyph-name="uni1EB5" unicode="&#x1eb5;" horiz-adv-x="370" 
d="M258 489q38 -1 63 12.5t54 46.5l-4 -14t-11.5 -24.5t-22 -30t-36 -24.5t-52.5 -15q-40 -4 -63.5 17.5t-20 50t31.5 44.5q-11 -26 6.5 -44t54.5 -19zM242 311q-2 34 -12 45q-39 43 -100 -45q-56 -81 -81 -186q-22 -98 15 -102q56 -4 132 139q9 34 26.5 80.5t18.5 51.5
q1 4 15 -2t27.5 -14t12.5 -10l-44 -128q-31 -109 7 -106q3 0 6 1q20 6 57.5 57.5t50.5 89.5q2 6 7 4q6 -2 4 -7q-21 -52 -65.5 -114t-87.5 -63q-27 -1 -38.5 33.5t-3.5 83.5l-3 -1q-14 -23 -24 -37t-29 -35.5t-42.5 -32.5t-50.5 -11q-50 0 -59.5 59t20.5 137q26 72 73 126.5
t96 63.5q41 7 62.5 -13.5t20.5 -63.5q0 -6 -5 -6q-6 0 -6 6zM420 651q-16 -45 -37 -63.5t-41 -13t-42.5 15.5t-41 20.5t-36.5 3.5t-29 -37q-5 -6 -10 0q-2 4 0 6q16 37 35 55t37.5 18.5t37 -5.5t36 -15t32.5 -14t27.5 2t19.5 29q9 5 12 -2z" />
    <glyph glyph-name="uni1EB6" unicode="&#x1eb6;" horiz-adv-x="1021" 
d="M1009 801q38 -1 63 12.5t54 46.5l-4 -14t-11.5 -24.5t-22 -30t-36 -24.5t-52.5 -15q-40 -4 -63.5 17.5t-20 50t31.5 44.5q-11 -26 6.5 -44t54.5 -19zM204 -123q34 16 40.5 54t-17 72t-65.5 39q-70 9 -109 -54.5t-14.5 -136.5t108.5 -88q90 -15 207 39q180 85 325 290
q-52 7 -78.5 10t-71 3t-71 -9t-55.5 -30.5t-47 -56.5q-2 -6 -7 -4q-5 4 -4 8q17 34 39.5 57.5t53 35.5t56.5 18t67 4.5t65.5 -4t69.5 -8.5q26 36 55 86q33 55 85 153q4 85 26.5 170t55 136.5t63.5 39.5q35 -13 -78 -239q-9 -48 -12 -143.5t3 -203.5q56 16 81 71q1 3 4.5 3.5
t5 -2t0.5 -5.5q-27 -70 -90 -91q8 -135 32.5 -221.5t67.5 -84.5q74 3 163 189q1 2 3 3t4 0q5 -2 3 -7q-93 -203 -174 -204q-40 -1 -70.5 25.5t-48 74t-27 99t-14.5 114.5q-49 -2 -141 11q-155 -220 -348 -305q-113 -48 -202 -34q-102 16 -133 98.5t16.5 152t137.5 55.5
q48 -7 73.5 -46.5t17 -82.5t-46.5 -61q-5 -2 -7 3t3 7zM832 106q-7 121 3 224q-19 -35 -45.5 -82.5t-28.5 -51.5q-30 -51 -51 -81q74 -10 122 -9zM903 488q44 90 61 141q18 54 10 54q-9 -2 -31 -52q-19 -44 -40 -143zM687 -332q1 0 -6 -10.5l-15 -22.5t-9 -15
q-12 -26 -25 -12q-14 15 -8 47q5 28 17.5 29t45.5 -16z" />
    <glyph glyph-name="uni1EB7" unicode="&#x1eb7;" horiz-adv-x="370" 
d="M258 489q38 -1 63 12.5t54 46.5l-4 -14t-11.5 -24.5t-22 -30t-36 -24.5t-52.5 -15q-40 -4 -63.5 17.5t-20 50t31.5 44.5q-11 -26 6.5 -44t54.5 -19zM242 311q-2 34 -12 45q-39 43 -100 -45q-56 -81 -81 -186q-22 -98 15 -102q56 -4 132 139q9 34 26.5 80.5t18.5 51.5
q1 4 15 -2t27.5 -14t12.5 -10l-44 -128q-31 -109 7 -106q3 0 6 1q20 6 57.5 57.5t50.5 89.5q2 6 7 4q6 -2 4 -7q-21 -52 -65.5 -114t-87.5 -63q-27 -1 -38.5 33.5t-3.5 83.5l-3 -1q-14 -23 -24 -37t-29 -35.5t-42.5 -32.5t-50.5 -11q-50 0 -59.5 59t20.5 137q26 72 73 126.5
t96 63.5q41 7 62.5 -13.5t20.5 -63.5q0 -6 -5 -6q-6 0 -6 6zM107 -68q1 0 -6 -10.5l-15 -22.5t-9 -15q-12 -26 -25 -12q-14 15 -8 47q5 28 17.5 29t45.5 -16z" />
    <glyph glyph-name="uni1EB8" unicode="&#x1eb8;" horiz-adv-x="665" 
d="M271 -332q1 0 -6 -10.5l-15 -22.5t-9 -15q-12 -26 -25 -12q-14 15 -8 47q5 28 17.5 29t45.5 -16zM296 677q-85 -11 -151 -53t-95 -118q-16 -46 -12.5 -81t26 -59t56 -35.5t77 -9t88.5 18.5q-32 90 29.5 182t162.5 143q100 43 158 24t43 -90.5t-106 -138.5
q-105 -77 -262 -129q9 -25 28 -42q108 25 143 -8q18 -18 0 -35q-26 -25 -83 -5q-10 3 -20 8q-22 9 -40 22q-56 -20 -97 -85t-62 -151q-14 -49 -11 -92t14.5 -80.5t37.5 -61t57.5 -33t74.5 3.5t89 48q92 71 148 180q3 5 8 3q6 -2 2 -8q-63 -120 -152 -189q-52 -40 -103 -55.5
t-91 -6.5t-74 34t-52 65.5t-25 89t8 104.5q20 84 78 153.5t133 94.5q-21 21 -28 38h-1q-52 -21 -111 -24t-107.5 15.5t-66.5 64t12 122.5q32 79 107.5 128.5t168.5 58.5q6 0 6 -5q1 -6 -5 -6zM305 347q147 48 251 122q78 55 90 118q10 49 -27 62q-41 14 -114 -30
q-34 -21 -68 -48.5t-69 -64.5t-53 -79t-10 -80zM354 277h1q29 -17 54.5 -24t39 -4.5t19.5 9.5q10 13 -13 23q-34 14 -101 -4z" />
    <glyph glyph-name="uni1EB9" unicode="&#x1eb9;" horiz-adv-x="302" 
d="M107 -68q1 0 -6 -10.5l-15 -22.5t-9 -15q-12 -26 -25 -12q-14 15 -8 47q5 28 17.5 29t45.5 -16zM41 109q-5 -58 33 -79.5t95 8.5q84 43 140 161q1 4 8 2q4 -1 2 -8q-48 -111 -138 -164q-45 -27 -84.5 -30.5t-63 13.5t-39.5 46.5t-14 67.5t14 77q19 51 45 90.5t52.5 60.5
t53 31.5t48.5 9t37 -12.5q34 -28 20 -69.5t-54 -84.5t-84 -75.5t-71 -43.5zM221 361q-13 13 -39 0.5t-60 -58t-61 -113.5q-16 -43 -18 -68l1 1q24 10 61.5 39t72.5 66t50 73t-7 60z" />
    <glyph glyph-name="uni1EBA" unicode="&#x1eba;" horiz-adv-x="665" 
d="M587 750h-11q0 2 1 10t2 14t3.5 14.5t7 15.5t11.5 12q5 4 14.5 9t15 9t9.5 10q11 15 12 33.5t-15 25.5q-14 5 -38 -5q-15 -8 -20 -22t-2 -24.5t-2 -21.5q-16 8 -11.5 38t27.5 41q29 18 64 9q26 -6 34.5 -29t-5.5 -51q-5 -10 -17 -19t-30.5 -19.5t-28.5 -18.5q-5 -4 -8 -9
t-6.5 -11.5t-6.5 -10.5zM296 677q-85 -11 -151 -53t-95 -118q-16 -46 -12.5 -81t26 -59t56 -35.5t77 -9t88.5 18.5q-32 90 29.5 182t162.5 143q100 43 158 24t43 -90.5t-106 -138.5q-105 -77 -262 -129q9 -25 28 -42q108 25 143 -8q18 -18 0 -35q-26 -25 -83 -5q-10 3 -20 8
q-22 9 -40 22q-56 -20 -97 -85t-62 -151q-14 -49 -11 -92t14.5 -80.5t37.5 -61t57.5 -33t74.5 3.5t89 48q92 71 148 180q3 5 8 3q6 -2 2 -8q-63 -120 -152 -189q-52 -40 -103 -55.5t-91 -6.5t-74 34t-52 65.5t-25 89t8 104.5q20 84 78 153.5t133 94.5q-21 21 -28 38h-1
q-52 -21 -111 -24t-107.5 15.5t-66.5 64t12 122.5q32 79 107.5 128.5t168.5 58.5q6 0 6 -5q1 -6 -5 -6zM305 347q147 48 251 122q78 55 90 118q10 49 -27 62q-41 14 -114 -30q-34 -21 -68 -48.5t-69 -64.5t-53 -79t-10 -80zM354 277h1q29 -17 54.5 -24t39 -4.5t19.5 9.5
q10 13 -13 23q-34 14 -101 -4z" />
    <glyph glyph-name="uni1EBB" unicode="&#x1ebb;" horiz-adv-x="302" 
d="M187 428h-11q0 2 1 10t2 14t3.5 14.5t7 15.5t11.5 12q5 4 14.5 9t15 9t9.5 10q11 15 12 33.5t-15 25.5q-14 5 -38 -5q-15 -8 -20 -22t-2 -24.5t-2 -21.5q-16 8 -11.5 38t27.5 41q29 18 64 9q26 -6 34.5 -29t-5.5 -51q-5 -10 -17 -19t-30.5 -19.5t-28.5 -18.5q-5 -4 -8 -9
t-6.5 -11.5t-6.5 -10.5zM41 109q-5 -58 33 -79.5t95 8.5q84 43 140 161q1 4 8 2q4 -1 2 -8q-48 -111 -138 -164q-45 -27 -84.5 -30.5t-63 13.5t-39.5 46.5t-14 67.5t14 77q19 51 45 90.5t52.5 60.5t53 31.5t48.5 9t37 -12.5q34 -28 20 -69.5t-54 -84.5t-84 -75.5t-71 -43.5z
M221 361q-13 13 -39 0.5t-60 -58t-61 -113.5q-16 -43 -18 -68l1 1q24 10 61.5 39t72.5 66t50 73t-7 60z" />
    <glyph glyph-name="uni1EBC" unicode="&#x1ebc;" horiz-adv-x="665" 
d="M701 843q-16 -45 -37 -63.5t-41 -13t-42.5 15.5t-41 20.5t-36.5 3.5t-29 -37q-5 -6 -10 0q-2 4 0 6q16 37 35 55t37.5 18.5t37 -5.5t36 -15t32.5 -14t27.5 2t19.5 29q9 5 12 -2zM296 677q-85 -11 -151 -53t-95 -118q-16 -46 -12.5 -81t26 -59t56 -35.5t77 -9t88.5 18.5
q-32 90 29.5 182t162.5 143q100 43 158 24t43 -90.5t-106 -138.5q-105 -77 -262 -129q9 -25 28 -42q108 25 143 -8q18 -18 0 -35q-26 -25 -83 -5q-10 3 -20 8q-22 9 -40 22q-56 -20 -97 -85t-62 -151q-14 -49 -11 -92t14.5 -80.5t37.5 -61t57.5 -33t74.5 3.5t89 48
q92 71 148 180q3 5 8 3q6 -2 2 -8q-63 -120 -152 -189q-52 -40 -103 -55.5t-91 -6.5t-74 34t-52 65.5t-25 89t8 104.5q20 84 78 153.5t133 94.5q-21 21 -28 38h-1q-52 -21 -111 -24t-107.5 15.5t-66.5 64t12 122.5q32 79 107.5 128.5t168.5 58.5q6 0 6 -5q1 -6 -5 -6z
M305 347q147 48 251 122q78 55 90 118q10 49 -27 62q-41 14 -114 -30q-34 -21 -68 -48.5t-69 -64.5t-53 -79t-10 -80zM354 277h1q29 -17 54.5 -24t39 -4.5t19.5 9.5q10 13 -13 23q-34 14 -101 -4z" />
    <glyph glyph-name="uni1EBD" unicode="&#x1ebd;" horiz-adv-x="302" 
d="M312 517q-16 -45 -37 -63.5t-41 -13t-42.5 15.5t-41 20.5t-36.5 3.5t-29 -37q-5 -6 -10 0q-2 4 0 6q16 37 35 55t37.5 18.5t37 -5.5t36 -15t32.5 -14t27.5 2t19.5 29q9 5 12 -2zM41 109q-5 -58 33 -79.5t95 8.5q84 43 140 161q1 4 8 2q4 -1 2 -8q-48 -111 -138 -164
q-45 -27 -84.5 -30.5t-63 13.5t-39.5 46.5t-14 67.5t14 77q19 51 45 90.5t52.5 60.5t53 31.5t48.5 9t37 -12.5q34 -28 20 -69.5t-54 -84.5t-84 -75.5t-71 -43.5zM221 361q-13 13 -39 0.5t-60 -58t-61 -113.5q-16 -43 -18 -68l1 1q24 10 61.5 39t72.5 66t50 73t-7 60z" />
    <glyph glyph-name="uni1EBE" unicode="&#x1ebe;" horiz-adv-x="665" 
d="M296 677q-85 -11 -151 -53t-95 -118q-16 -46 -12.5 -81t26 -59t56 -35.5t77 -9t88.5 18.5q-32 90 29.5 182t162.5 143q100 43 158 24t43 -90.5t-106 -138.5q-105 -77 -262 -129q9 -25 28 -42q108 25 143 -8q18 -18 0 -35q-26 -25 -83 -5q-10 3 -20 8q-22 9 -40 22
q-56 -20 -97 -85t-62 -151q-14 -49 -11 -92t14.5 -80.5t37.5 -61t57.5 -33t74.5 3.5t89 48q92 71 148 180q3 5 8 3q6 -2 2 -8q-63 -120 -152 -189q-52 -40 -103 -55.5t-91 -6.5t-74 34t-52 65.5t-25 89t8 104.5q20 84 78 153.5t133 94.5q-21 21 -28 38h-1q-52 -21 -111 -24
t-107.5 15.5t-66.5 64t12 122.5q32 79 107.5 128.5t168.5 58.5q6 0 6 -5q1 -6 -5 -6zM305 347q147 48 251 122q78 55 90 118q10 49 -27 62q-41 14 -114 -30q-34 -21 -68 -48.5t-69 -64.5t-53 -79t-10 -80zM354 277h1q29 -17 54.5 -24t39 -4.5t19.5 9.5q10 13 -13 23
q-34 14 -101 -4zM579 874q21 10 53 2q1 0 12 -30t21.5 -61.5t12.5 -33.5q9 -20 -13 -1q-26 21 -72 73q-85 -64 -122 -82q-15 -6 -1 8q4 3 56 64zM753 970q50 12 65 -8q12 -14 -13 -32q-119 -90 -132 -86q-3 1 3 9q3 2 39 59t38 58z" />
    <glyph glyph-name="uni1EBF" unicode="&#x1ebf;" horiz-adv-x="302" 
d="M221 361q-13 13 -39 0.5t-60 -58t-61 -113.5q-16 -43 -18 -68l1 1q24 10 61.5 39t72.5 66t50 73t-7 60zM41 109q-5 -58 33 -79.5t95 8.5q84 43 140 161q1 4 8 2q4 -1 2 -8q-48 -111 -138 -164q-45 -27 -84.5 -30.5t-63 13.5t-39.5 46.5t-14 67.5t14 77q19 51 45 90.5
t52.5 60.5t53 31.5t48.5 9t37 -12.5q34 -28 20 -69.5t-54 -84.5t-84 -75.5t-71 -43.5zM193 560q21 10 53 2q1 0 12 -30t21.5 -61.5t12.5 -33.5q9 -20 -13 -1q-26 22 -72 73q-85 -64 -122 -82q-15 -6 -1 8q4 3 56 64zM367 656q50 12 65 -8q12 -14 -13 -32q-119 -90 -132 -86
q-3 1 3 9q3 2 39 59t38 58z" />
    <glyph glyph-name="uni1EC0" unicode="&#x1ec0;" horiz-adv-x="665" 
d="M296 677q-85 -11 -151 -53t-95 -118q-16 -46 -12.5 -81t26 -59t56 -35.5t77 -9t88.5 18.5q-32 90 29.5 182t162.5 143q100 43 158 24t43 -90.5t-106 -138.5q-105 -77 -262 -129q9 -25 28 -42q108 25 143 -8q18 -18 0 -35q-26 -25 -83 -5q-10 3 -20 8q-22 9 -40 22
q-56 -20 -97 -85t-62 -151q-14 -49 -11 -92t14.5 -80.5t37.5 -61t57.5 -33t74.5 3.5t89 48q92 71 148 180q3 5 8 3q6 -2 2 -8q-63 -120 -152 -189q-52 -40 -103 -55.5t-91 -6.5t-74 34t-52 65.5t-25 89t8 104.5q20 84 78 153.5t133 94.5q-21 21 -28 38h-1q-52 -21 -111 -24
t-107.5 15.5t-66.5 64t12 122.5q32 79 107.5 128.5t168.5 58.5q6 0 6 -5q1 -6 -5 -6zM305 347q147 48 251 122q78 55 90 118q10 49 -27 62q-41 14 -114 -30q-34 -21 -68 -48.5t-69 -64.5t-53 -79t-10 -80zM354 277h1q29 -17 54.5 -24t39 -4.5t19.5 9.5q10 13 -13 23
q-34 14 -101 -4zM579 874q21 10 53 2q1 0 12 -30t21.5 -61.5t12.5 -33.5q9 -20 -13 -1q-26 21 -72 73q-85 -64 -122 -82q-15 -6 -1 8q4 3 56 64zM669 980q2 0 14.5 -31t25 -63t14.5 -34q9 -18 -13 1q-6 4 -85 81q-4 3 -6 5q-24 23 -6 37q17 14 56 4z" />
    <glyph glyph-name="uni1EC1" unicode="&#x1ec1;" horiz-adv-x="302" 
d="M221 361q-13 13 -39 0.5t-60 -58t-61 -113.5q-16 -43 -18 -68l1 1q24 10 61.5 39t72.5 66t50 73t-7 60zM41 109q-5 -58 33 -79.5t95 8.5q84 43 140 161q1 4 8 2q4 -1 2 -8q-48 -111 -138 -164q-45 -27 -84.5 -30.5t-63 13.5t-39.5 46.5t-14 67.5t14 77q19 51 45 90.5
t52.5 60.5t53 31.5t48.5 9t37 -12.5q34 -28 20 -69.5t-54 -84.5t-84 -75.5t-71 -43.5zM193 560q21 10 53 2q1 0 12 -30t21.5 -61.5t12.5 -33.5q9 -20 -13 -1q-26 22 -72 73q-85 -64 -122 -82q-15 -6 -1 8q4 3 56 64zM283 666q2 0 14.5 -31t25 -63t14.5 -34q9 -18 -13 0
q-16 14 -64 61q-20 20 -27 26q-24 23 -6 37q17 14 56 4z" />
    <glyph glyph-name="uni1EC2" unicode="&#x1ec2;" horiz-adv-x="665" 
d="M296 677q-85 -11 -151 -53t-95 -118q-16 -46 -12.5 -81t26 -59t56 -35.5t77 -9t88.5 18.5q-32 90 29.5 182t162.5 143q100 43 158 24t43 -90.5t-106 -138.5q-105 -77 -262 -129q9 -25 28 -42q108 25 143 -8q18 -18 0 -35q-26 -25 -83 -5q-10 3 -20 8q-22 9 -40 22
q-56 -20 -97 -85t-62 -151q-14 -49 -11 -92t14.5 -80.5t37.5 -61t57.5 -33t74.5 3.5t89 48q92 71 148 180q3 5 8 3q6 -2 2 -8q-63 -120 -152 -189q-52 -40 -103 -55.5t-91 -6.5t-74 34t-52 65.5t-25 89t8 104.5q20 84 78 153.5t133 94.5q-21 21 -28 38h-1q-52 -21 -111 -24
t-107.5 15.5t-66.5 64t12 122.5q32 79 107.5 128.5t168.5 58.5q6 0 6 -5q1 -6 -5 -6zM305 347q147 48 251 122q78 55 90 118q10 49 -27 62q-41 14 -114 -30q-34 -21 -68 -48.5t-69 -64.5t-53 -79t-10 -80zM354 277h1q29 -17 54.5 -24t39 -4.5t19.5 9.5q10 13 -13 23
q-34 14 -101 -4zM579 874q21 10 53 2q1 0 12 -30t21.5 -61.5t12.5 -33.5q9 -20 -13 -1q-26 21 -72 73q-85 -64 -122 -82q-15 -6 -1 8q4 3 56 64zM685 844h-11q0 2 1 10t2 14t3.5 14.5t7 15.5t11.5 12q5 4 14.5 9t15 9t9.5 10q11 15 12 33.5t-15 25.5q-14 5 -38 -5
q-15 -8 -20 -22t-2 -24.5t-2 -21.5q-16 8 -11.5 38t27.5 41q29 18 64 9q26 -6 34.5 -29t-5.5 -51q-5 -10 -17 -19t-30.5 -19.5t-28.5 -18.5q-5 -4 -8 -9t-6.5 -11.5t-6.5 -10.5z" />
    <glyph glyph-name="uni1EC3" unicode="&#x1ec3;" horiz-adv-x="302" 
d="M221 361q-13 13 -39 0.5t-60 -58t-61 -113.5q-16 -43 -18 -68l1 1q24 10 61.5 39t72.5 66t50 73t-7 60zM41 109q-5 -58 33 -79.5t95 8.5q84 43 140 161q1 4 8 2q4 -1 2 -8q-48 -111 -138 -164q-45 -27 -84.5 -30.5t-63 13.5t-39.5 46.5t-14 67.5t14 77q19 51 45 90.5
t52.5 60.5t53 31.5t48.5 9t37 -12.5q34 -28 20 -69.5t-54 -84.5t-84 -75.5t-71 -43.5zM193 560q21 10 53 2q1 0 12 -30t21.5 -61.5t12.5 -33.5q9 -20 -13 -1q-26 22 -72 73q-85 -64 -122 -82q-15 -6 -1 8q4 3 56 64zM299 530h-11q0 2 1 10t2 14t3.5 14.5t7 15.5t11.5 12
q5 4 14.5 9t15 9t9.5 10q11 15 12 33.5t-15 25.5q-14 5 -38 -5q-15 -8 -20 -22t-2 -24.5t-2 -21.5q-16 8 -11.5 38t27.5 41q29 18 64 9q26 -6 34.5 -29t-5.5 -51q-5 -10 -17 -19t-30.5 -19.5t-28.5 -18.5q-5 -4 -8 -9t-6.5 -11.5t-6.5 -10.5z" />
    <glyph glyph-name="uni1EC4" unicode="&#x1ec4;" horiz-adv-x="665" 
d="M296 677q-85 -11 -151 -53t-95 -118q-16 -46 -12.5 -81t26 -59t56 -35.5t77 -9t88.5 18.5q-32 90 29.5 182t162.5 143q100 43 158 24t43 -90.5t-106 -138.5q-105 -77 -262 -129q9 -25 28 -42q108 25 143 -8q18 -18 0 -35q-26 -25 -83 -5q-10 3 -20 8q-22 9 -40 22
q-56 -20 -97 -85t-62 -151q-14 -49 -11 -92t14.5 -80.5t37.5 -61t57.5 -33t74.5 3.5t89 48q92 71 148 180q3 5 8 3q6 -2 2 -8q-63 -120 -152 -189q-52 -40 -103 -55.5t-91 -6.5t-74 34t-52 65.5t-25 89t8 104.5q20 84 78 153.5t133 94.5q-21 21 -28 38h-1q-52 -21 -111 -24
t-107.5 15.5t-66.5 64t12 122.5q32 79 107.5 128.5t168.5 58.5q6 0 6 -5q1 -6 -5 -6zM305 347q147 48 251 122q78 55 90 118q10 49 -27 62q-41 14 -114 -30q-34 -21 -68 -48.5t-69 -64.5t-53 -79t-10 -80zM354 277h1q29 -17 54.5 -24t39 -4.5t19.5 9.5q10 13 -13 23
q-34 14 -101 -4zM579 874q21 10 53 2q1 0 12 -30t21.5 -61.5t12.5 -33.5q9 -20 -13 -1q-26 21 -72 73q-85 -64 -122 -82q-15 -6 -1 8q4 3 56 64zM740 994q-16 -45 -37 -63.5t-41 -13t-42.5 15.5t-41 20.5t-36.5 3.5t-29 -37q-5 -6 -10 0q-2 4 0 6q16 37 35 55t37.5 18.5
t37 -5.5t36 -15t32.5 -14t27.5 2t19.5 29q9 5 12 -2z" />
    <glyph glyph-name="uni1EC5" unicode="&#x1ec5;" horiz-adv-x="302" 
d="M221 361q-13 13 -39 0.5t-60 -58t-61 -113.5q-16 -43 -18 -68l1 1q24 10 61.5 39t72.5 66t50 73t-7 60zM41 109q-5 -58 33 -79.5t95 8.5q84 43 140 161q1 4 8 2q4 -1 2 -8q-48 -111 -138 -164q-45 -27 -84.5 -30.5t-63 13.5t-39.5 46.5t-14 67.5t14 77q19 51 45 90.5
t52.5 60.5t53 31.5t48.5 9t37 -12.5q34 -28 20 -69.5t-54 -84.5t-84 -75.5t-71 -43.5zM193 560q21 10 53 2q1 0 12 -30t21.5 -61.5t12.5 -33.5q9 -20 -13 -1q-26 22 -72 73q-85 -64 -122 -82q-15 -6 -1 8q4 3 56 64zM354 680q-16 -45 -37 -63.5t-41 -13t-42.5 15.5t-41 20.5
t-36.5 3.5t-29 -37q-5 -6 -10 0q-2 4 0 6q16 37 35 55t37.5 18.5t37 -5.5t36 -15t32.5 -14t27.5 2t19.5 29q9 5 12 -2z" />
    <glyph glyph-name="uni1EC6" unicode="&#x1ec6;" horiz-adv-x="665" 
d="M296 677q-85 -11 -151 -53t-95 -118q-16 -46 -12.5 -81t26 -59t56 -35.5t77 -9t88.5 18.5q-32 90 29.5 182t162.5 143q100 43 158 24t43 -90.5t-106 -138.5q-105 -77 -262 -129q9 -25 28 -42q108 25 143 -8q18 -18 0 -35q-26 -25 -83 -5q-10 3 -20 8q-22 9 -40 22
q-56 -20 -97 -85t-62 -151q-14 -49 -11 -92t14.5 -80.5t37.5 -61t57.5 -33t74.5 3.5t89 48q92 71 148 180q3 5 8 3q6 -2 2 -8q-63 -120 -152 -189q-52 -40 -103 -55.5t-91 -6.5t-74 34t-52 65.5t-25 89t8 104.5q20 84 78 153.5t133 94.5q-21 21 -28 38h-1q-52 -21 -111 -24
t-107.5 15.5t-66.5 64t12 122.5q32 79 107.5 128.5t168.5 58.5q6 0 6 -5q1 -6 -5 -6zM305 347q147 48 251 122q78 55 90 118q10 49 -27 62q-41 14 -114 -30q-34 -21 -68 -48.5t-69 -64.5t-53 -79t-10 -80zM354 277h1q29 -17 54.5 -24t39 -4.5t19.5 9.5q10 13 -13 23
q-34 14 -101 -4zM579 874q21 10 53 2q1 0 12 -30t21.5 -61.5t12.5 -33.5q9 -20 -13 -1q-26 21 -72 73q-85 -64 -122 -82q-15 -6 -1 8q4 3 56 64zM271 -332q1 0 -6 -10.5l-15 -22.5t-9 -15q-12 -26 -25 -12q-14 15 -8 47q5 28 17.5 29t45.5 -16z" />
    <glyph glyph-name="uni1EC7" unicode="&#x1ec7;" horiz-adv-x="302" 
d="M221 361q-13 13 -39 0.5t-60 -58t-61 -113.5q-16 -43 -18 -68l1 1q24 10 61.5 39t72.5 66t50 73t-7 60zM41 109q-5 -58 33 -79.5t95 8.5q84 43 140 161q1 4 8 2q4 -1 2 -8q-48 -111 -138 -164q-45 -27 -84.5 -30.5t-63 13.5t-39.5 46.5t-14 67.5t14 77q19 51 45 90.5
t52.5 60.5t53 31.5t48.5 9t37 -12.5q34 -28 20 -69.5t-54 -84.5t-84 -75.5t-71 -43.5zM193 560q21 10 53 2q1 0 12 -30t21.5 -61.5t12.5 -33.5q9 -20 -13 -1q-26 22 -72 73q-85 -64 -122 -82q-15 -6 -1 8q4 3 56 64zM107 -68q1 0 -6 -10.5l-15 -22.5t-9 -15q-12 -26 -25 -12
q-14 15 -8 47q5 28 17.5 29t45.5 -16z" />
    <glyph glyph-name="uni1EC8" unicode="&#x1ec8;" horiz-adv-x="659" 
d="M754 750h-11q0 2 1 10t2 14t3.5 14.5t7 15.5t11.5 12q5 4 14.5 9t15 9t9.5 10q11 15 12 33.5t-15 25.5q-14 5 -38 -5q-15 -8 -20 -22t-2 -24.5t-2 -21.5q-16 8 -11.5 38t27.5 41q29 18 64 9q26 -6 34.5 -29t-5.5 -51q-5 -10 -17 -19t-30.5 -19.5t-28.5 -18.5q-5 -4 -8 -9
t-6.5 -11.5t-6.5 -10.5zM557 354q-58 -85 -125 -92q-58 -6 -86.5 36t-11.5 100q13 47 48 82.5t79 58.5t88.5 43.5t86 47.5t63.5 59l69 11q-15 -43 -97 -253t-114 -305q-19 -56 -42.5 -106.5t-59 -104t-76 -91.5t-95.5 -60.5t-115 -19.5q-64 4 -105 35t-56 77
q-11 41 -5.5 77.5t28 64t50.5 43.5t62.5 15t64.5 -22q45 -31 49 -81.5t-47 -90.5q-4 -4 -9 2q-3 4 1 7q47 27 44 75t-44 76q-33 23 -70 17t-61.5 -34.5t-36 -69t4.5 -86.5q13 -38 45.5 -64t83.5 -30q49 -4 95 21.5t79.5 65t64.5 94.5t49.5 99t33.5 90q34 105 181 478
q-30 -20 -84 -41.5t-93 -37.5t-76.5 -54.5t-51.5 -95.5q-10 -43 8 -72.5t63 -33.5q54 -5 109 75q3 5 8 3t3 -8z" />
    <glyph glyph-name="uni1EC9" unicode="&#x1ec9;" horiz-adv-x="169" 
d="M-5 162q8 32 40.5 124t34.5 100q1 3 15.5 -2.5t28 -14t12.5 -10.5l-75 -219q-7 -26 -10.5 -45t-3 -34.5t7.5 -22t20 -3.5q19 6 55 57t52 90q2 6 7 4q6 -2 4 -7q-21 -52 -65.5 -114t-87.5 -63q-22 -1 -34.5 14.5t-14 40.5t2 51.5t11.5 53.5zM117 428h-11q0 2 1 10t2 14
t3.5 14.5t7 15.5t11.5 12q5 4 14.5 9t15 9t9.5 10q11 15 12 33.5t-15 25.5q-14 5 -38 -5q-15 -8 -20 -22t-2 -24.5t-2 -21.5q-16 8 -11.5 38t27.5 41q29 18 64 9q26 -6 34.5 -29t-5.5 -51q-5 -10 -17 -19t-30.5 -19.5t-28.5 -18.5q-5 -4 -8 -9t-6.5 -11.5t-6.5 -10.5z" />
    <glyph glyph-name="uni1ECA" unicode="&#x1eca;" horiz-adv-x="659" 
d="M153 -331q1 0 -5.5 -10.5t-14.5 -22t-9 -14.5q-12 -26 -25 -11t-7 45q5 26 16 28t39 -12zM557 354q-58 -85 -125 -92q-58 -6 -86.5 36t-11.5 100q13 47 48 82.5t79 58.5t88.5 43.5t86 47.5t63.5 59l69 11q-15 -43 -97 -253t-114 -305q-19 -56 -42.5 -106.5t-59 -104
t-76 -91.5t-95.5 -60.5t-115 -19.5q-64 4 -105 35t-56 77q-11 41 -5.5 77.5t28 64t50.5 43.5t62.5 15t64.5 -22q45 -31 49 -81.5t-47 -90.5q-4 -4 -9 2q-3 4 1 7q47 27 44 75t-44 76q-33 23 -70 17t-61.5 -34.5t-36 -69t4.5 -86.5q13 -38 45.5 -64t83.5 -30q49 -4 95 21.5
t79.5 65t64.5 94.5t49.5 99t33.5 90q34 105 181 478q-30 -20 -84 -41.5t-93 -37.5t-76.5 -54.5t-51.5 -95.5q-10 -43 8 -72.5t63 -33.5q54 -5 109 75q3 5 8 3t3 -8z" />
    <glyph glyph-name="uni1ECB" unicode="&#x1ecb;" horiz-adv-x="169" 
d="M37 -82q1 0 -6 -10.5l-15 -22.5t-9 -15q-12 -26 -25 -12q-14 15 -8 47q5 28 17.5 29t45.5 -16zM-5 162q8 32 40.5 124t34.5 100q1 3 15.5 -2.5t28 -14t12.5 -10.5l-75 -219q-7 -26 -10.5 -45t-3 -34.5t7.5 -22t20 -3.5q19 6 55 57t52 90q2 6 7 4q6 -2 4 -7
q-21 -52 -65.5 -114t-87.5 -63q-22 -1 -34.5 14.5t-14 40.5t2 51.5t11.5 53.5zM179 544q1 0 -12 -27.5t-27.5 -57t-15.5 -32.5q-13 -26 -18 13q-6 46 2 88q6 32 20 33.5t51 -17.5z" />
    <glyph glyph-name="uni1ECC" unicode="&#x1ecc;" horiz-adv-x="812" 
d="M356 -331q1 0 -5.5 -10.5t-14.5 -22t-9 -14.5q-12 -26 -25 -11t-7 45q5 26 16 28t39 -12zM309 676q-130 -15 -210 -126q-67 -95 -62 -201q5 -105 83 -145q53 -28 131 -17q13 48 39.5 111.5t68 137.5t88 134.5t104 98t112.5 31.5q32 -3 48 -25t15 -50t-7 -56
q41 -23 54 -95q13 -79 -11 -193.5t-73 -223.5t-125.5 -195.5t-157.5 -107.5q-48 -14 -82.5 -4.5t-56.5 29.5t-34.5 55t-16 70.5t-1.5 76.5q5 90 30 184q-131 -17 -199 71q-59 77 -42 186q18 120 118 194q77 58 186 71q6 2 6 -5q2 -6 -5 -6zM310 179q-9 -35 -17 -76.5
t-14 -93.5t-3 -97.5t14.5 -82.5t40.5 -53t73 -5q79 21 153.5 105t122 189.5t71 217.5t10.5 189q-10 64 -45 86q-43 -138 -150 -233t-256 -146zM317 203q51 13 107 42.5t112 74t102 108.5t68 135q-35 14 -80 -6.5t-84 -60.5q-74 -76 -125 -199q-2 -5 -7 -3q-6 2 -3 7
q57 139 141 217q40 37 83.5 53t77.5 3q24 97 -44 107q-44 6 -102.5 -52t-108 -142t-87.5 -162.5t-50 -121.5z" />
    <glyph glyph-name="uni1ECD" unicode="&#x1ecd;" 
d="M65 -82q1 0 -6 -10.5l-15 -22.5t-9 -15q-12 -26 -25 -12q-14 15 -8 47q5 28 17.5 29t45.5 -16zM251 209q-53 -104 -104.5 -165.5t-95.5 -57.5q-64 5 -70 85q-6 82 47 175q57 100 135 121l25 4q9 46 30 72t42 23q27 -4 33.5 -44t-4.5 -94t-33 -107q36 -8 73 9.5t59 71.5
q3 7 10 4q4 -2 2 -6q-19 -51 -58.5 -77t-90.5 -14zM185 353q-40 -4 -91 -103q-55 -106 -62 -190q-5 -65 32 -63q37 3 88 71.5t89 144.5q-29 15 -46 55t-10 85zM239 296q-2 18 -4 28t-8 19t-16 10q-6 -51 4.5 -84.5t29.5 -42.5q23 49 32.5 103t3.5 89t-26 33q-27 -4 -42 -82
q34 -12 37 -72q0 -6 -5 -6q-6 0 -6 5z" />
    <glyph glyph-name="uni1ECE" unicode="&#x1ece;" horiz-adv-x="812" 
d="M680 750h-11q0 2 1 10t2 14t3.5 14.5t7 15.5t11.5 12q5 4 14.5 9t15 9t9.5 10q11 15 12 33.5t-15 25.5q-14 5 -38 -5q-15 -8 -20 -22t-2 -24.5t-2 -21.5q-16 8 -11.5 38t27.5 41q29 18 64 9q26 -6 34.5 -29t-5.5 -51q-5 -10 -17 -19t-30.5 -19.5t-28.5 -18.5q-5 -4 -8 -9
t-6.5 -11.5t-6.5 -10.5zM309 676q-130 -15 -210 -126q-67 -95 -62 -201q5 -105 83 -145q53 -28 131 -17q13 48 39.5 111.5t68 137.5t88 134.5t104 98t112.5 31.5q32 -3 48 -25t15 -50t-7 -56q41 -23 54 -95q13 -79 -11 -193.5t-73 -223.5t-125.5 -195.5t-157.5 -107.5
q-48 -14 -82.5 -4.5t-56.5 29.5t-34.5 55t-16 70.5t-1.5 76.5q5 90 30 184q-131 -17 -199 71q-59 77 -42 186q18 120 118 194q77 58 186 71q6 2 6 -5q2 -6 -5 -6zM310 179q-9 -35 -17 -76.5t-14 -93.5t-3 -97.5t14.5 -82.5t40.5 -53t73 -5q79 21 153.5 105t122 189.5
t71 217.5t10.5 189q-10 64 -45 86q-43 -138 -150 -233t-256 -146zM317 203q51 13 107 42.5t112 74t102 108.5t68 135q-35 14 -80 -6.5t-84 -60.5q-74 -76 -125 -199q-2 -5 -7 -3q-6 2 -3 7q57 139 141 217q40 37 83.5 53t77.5 3q24 97 -44 107q-44 6 -102.5 -52t-108 -142
t-87.5 -162.5t-50 -121.5z" />
    <glyph glyph-name="uni1ECF" unicode="&#x1ecf;" 
d="M250 509h-11q0 2 1 10t2 14t3.5 14.5t7 15.5t11.5 12q5 4 14.5 9t15 9t9.5 10q11 15 12 33.5t-15 25.5q-14 5 -38 -5q-15 -8 -20 -22t-2 -24.5t-2 -21.5q-16 8 -11.5 38t27.5 41q29 18 64 9q26 -6 34.5 -29t-5.5 -51q-5 -10 -17 -19t-30.5 -19.5t-28.5 -18.5q-5 -4 -8 -9
t-6.5 -11.5t-6.5 -10.5zM251 209q-53 -104 -104.5 -165.5t-95.5 -57.5q-64 5 -70 85q-6 82 47 175q57 100 135 121l25 4q9 46 30 72t42 23q27 -4 33.5 -44t-4.5 -94t-33 -107q36 -8 73 9.5t59 71.5q3 7 10 4q4 -2 2 -6q-19 -51 -58.5 -77t-90.5 -14zM185 353
q-40 -4 -91 -103q-55 -106 -62 -190q-5 -65 32 -63q37 3 88 71.5t89 144.5q-29 15 -46 55t-10 85zM239 296q-2 18 -4 28t-8 19t-16 10q-6 -51 4.5 -84.5t29.5 -42.5q23 49 32.5 103t3.5 89t-26 33q-27 -4 -42 -82q34 -12 37 -72q0 -6 -5 -6q-6 0 -6 5z" />
    <glyph glyph-name="uni1ED0" unicode="&#x1ed0;" horiz-adv-x="812" 
d="M309 676q-130 -15 -210 -126q-67 -95 -62 -201q5 -105 83 -145q53 -28 131 -17q13 48 39.5 111.5t68 137.5t88 134.5t104 98t112.5 31.5q32 -3 48 -25t15 -50t-7 -56q41 -23 54 -95q13 -79 -11 -193.5t-73 -223.5t-125.5 -195.5t-157.5 -107.5q-48 -14 -82.5 -4.5
t-56.5 29.5t-34.5 55t-16 70.5t-1.5 76.5q5 90 30 184q-131 -17 -199 71q-59 77 -42 186q18 120 118 194q77 58 186 71q6 2 6 -5q2 -6 -5 -6zM310 179q-9 -35 -17 -76.5t-14 -93.5t-3 -97.5t14.5 -82.5t40.5 -53t73 -5q79 21 153.5 105t122 189.5t71 217.5t10.5 189
q-10 64 -45 86q-43 -138 -150 -233t-256 -146zM317 203q51 13 107 42.5t112 74t102 108.5t68 135q-35 14 -80 -6.5t-84 -60.5q-74 -76 -125 -199q-2 -5 -7 -3q-6 2 -3 7q57 139 141 217q40 37 83.5 53t77.5 3q24 97 -44 107q-44 6 -102.5 -52t-108 -142t-87.5 -162.5
t-50 -121.5zM650 887q21 10 53 2q1 0 12 -30t21.5 -61.5t12.5 -33.5q9 -20 -13 -1q-26 21 -72 73q-85 -64 -122 -82q-15 -6 -1 8q4 3 57 64zM824 983q50 12 65 -8q12 -14 -13 -32q-119 -90 -132 -86q-3 1 3 9q3 2 39 59t38 58z" />
    <glyph glyph-name="uni1ED1" unicode="&#x1ed1;" 
d="M251 209q-53 -104 -104.5 -165.5t-95.5 -57.5q-64 5 -70 85q-6 82 47 175q57 100 135 121l25 4q9 46 30 72t42 23q27 -4 33.5 -44t-4.5 -94t-33 -107q36 -8 73 9.5t59 71.5q3 7 10 4q4 -2 2 -6q-19 -51 -58.5 -77t-90.5 -14zM185 353q-40 -4 -91 -103q-55 -106 -62 -190
q-5 -65 32 -63q37 3 88 71.5t89 144.5q-29 15 -46 55t-10 85zM239 296q-2 18 -4 28t-8 19t-16 10q-6 -51 4.5 -84.5t29.5 -42.5q23 49 32.5 103t3.5 89t-26 33q-27 -4 -42 -82q34 -12 37 -72q0 -6 -5 -6q-6 0 -6 5zM232 618q21 10 53 2q1 0 12 -30t21.5 -61.5t12.5 -33.5
q9 -20 -13 -1q-26 21 -72 73q-85 -64 -122 -82q-15 -6 -1 8q4 3 57 64zM406 714q50 12 65 -8q12 -14 -13 -32q-119 -90 -132 -86q-3 1 3 9q3 2 39 59t38 58z" />
    <glyph glyph-name="uni1ED2" unicode="&#x1ed2;" horiz-adv-x="812" 
d="M309 676q-130 -15 -210 -126q-67 -95 -62 -201q5 -105 83 -145q53 -28 131 -17q13 48 39.5 111.5t68 137.5t88 134.5t104 98t112.5 31.5q32 -3 48 -25t15 -50t-7 -56q41 -23 54 -95q13 -79 -11 -193.5t-73 -223.5t-125.5 -195.5t-157.5 -107.5q-48 -14 -82.5 -4.5
t-56.5 29.5t-34.5 55t-16 70.5t-1.5 76.5q5 90 30 184q-131 -17 -199 71q-59 77 -42 186q18 120 118 194q77 58 186 71q6 2 6 -5q2 -6 -5 -6zM310 179q-9 -35 -17 -76.5t-14 -93.5t-3 -97.5t14.5 -82.5t40.5 -53t73 -5q79 21 153.5 105t122 189.5t71 217.5t10.5 189
q-10 64 -45 86q-43 -138 -150 -233t-256 -146zM317 203q51 13 107 42.5t112 74t102 108.5t68 135q-35 14 -80 -6.5t-84 -60.5q-74 -76 -125 -199q-2 -5 -7 -3q-6 2 -3 7q57 139 141 217q40 37 83.5 53t77.5 3q24 97 -44 107q-44 6 -102.5 -52t-108 -142t-87.5 -162.5
t-50 -121.5zM650 887q21 10 53 2q1 0 12 -30t21.5 -61.5t12.5 -33.5q9 -20 -13 -1q-26 21 -72 73q-85 -64 -122 -82q-15 -6 -1 8q4 3 57 64zM740 993q2 0 14.5 -31t25 -63t14.5 -34q9 -18 -13 1q-6 4 -85 81q-4 3 -6 5q-24 23 -6 37q17 14 56 4z" />
    <glyph glyph-name="uni1ED3" unicode="&#x1ed3;" 
d="M251 209q-53 -104 -104.5 -165.5t-95.5 -57.5q-64 5 -70 85q-6 82 47 175q57 100 135 121l25 4q9 46 30 72t42 23q27 -4 33.5 -44t-4.5 -94t-33 -107q36 -8 73 9.5t59 71.5q3 7 10 4q4 -2 2 -6q-19 -51 -58.5 -77t-90.5 -14zM185 353q-40 -4 -91 -103q-55 -106 -62 -190
q-5 -65 32 -63q37 3 88 71.5t89 144.5q-29 15 -46 55t-10 85zM239 296q-2 18 -4 28t-8 19t-16 10q-6 -51 4.5 -84.5t29.5 -42.5q23 49 32.5 103t3.5 89t-26 33q-27 -4 -42 -82q34 -12 37 -72q0 -6 -5 -6q-6 0 -6 5zM232 618q21 10 53 2q1 0 12 -30t21.5 -61.5t12.5 -33.5
q9 -20 -13 -1q-26 21 -72 73q-85 -64 -122 -82q-15 -6 -1 8q4 3 57 64zM322 724q2 0 14.5 -31t25 -63t14.5 -34q9 -18 -13 1q-6 4 -85 81q-4 3 -6 5q-24 23 -6 37q17 14 56 4z" />
    <glyph glyph-name="uni1ED4" unicode="&#x1ed4;" horiz-adv-x="812" 
d="M756 857h-11q0 2 1 10t2 14t3.5 14.5t7 15.5t11.5 12q5 4 14.5 9t15 9t9.5 10q11 15 12 33.5t-15 25.5q-14 5 -38 -5q-15 -8 -20 -22t-2 -24.5t-2 -21.5q-16 8 -11.5 38t27.5 41q29 18 64 9q26 -6 34.5 -29t-5.5 -51q-5 -10 -17 -19t-30.5 -19.5t-28.5 -18.5q-5 -4 -8 -9
t-6.5 -11.5t-6.5 -10.5zM309 676q-130 -15 -210 -126q-67 -95 -62 -201q5 -105 83 -145q53 -28 131 -17q13 48 39.5 111.5t68 137.5t88 134.5t104 98t112.5 31.5q32 -3 48 -25t15 -50t-7 -56q41 -23 54 -95q13 -79 -11 -193.5t-73 -223.5t-125.5 -195.5t-157.5 -107.5
q-48 -14 -82.5 -4.5t-56.5 29.5t-34.5 55t-16 70.5t-1.5 76.5q5 90 30 184q-131 -17 -199 71q-59 77 -42 186q18 120 118 194q77 58 186 71q6 2 6 -5q2 -6 -5 -6zM310 179q-9 -35 -17 -76.5t-14 -93.5t-3 -97.5t14.5 -82.5t40.5 -53t73 -5q79 21 153.5 105t122 189.5
t71 217.5t10.5 189q-10 64 -45 86q-43 -138 -150 -233t-256 -146zM317 203q51 13 107 42.5t112 74t102 108.5t68 135q-35 14 -80 -6.5t-84 -60.5q-74 -76 -125 -199q-2 -5 -7 -3q-6 2 -3 7q57 139 141 217q40 37 83.5 53t77.5 3q24 97 -44 107q-44 6 -102.5 -52t-108 -142
t-87.5 -162.5t-50 -121.5zM650 887q21 10 53 2q1 0 12 -30t21.5 -61.5t12.5 -33.5q9 -20 -13 -1q-26 21 -72 73q-85 -64 -122 -82q-15 -6 -1 8q4 3 57 64z" />
    <glyph glyph-name="uni1ED5" unicode="&#x1ed5;" 
d="M338 588h-11q0 2 1 10t2 14t3.5 14.5t7 15.5t11.5 12q5 4 14.5 9t15 9t9.5 10q11 15 12 33.5t-15 25.5q-14 5 -38 -5q-15 -8 -20 -22t-2 -24.5t-2 -21.5q-16 8 -11.5 38t27.5 41q29 18 64 9q26 -6 34.5 -29t-5.5 -51q-5 -10 -17 -19t-30.5 -19.5t-28.5 -18.5q-5 -4 -8 -9
t-6.5 -11.5t-6.5 -10.5zM251 209q-53 -104 -104.5 -165.5t-95.5 -57.5q-64 5 -70 85q-6 82 47 175q57 100 135 121l25 4q9 46 30 72t42 23q27 -4 33.5 -44t-4.5 -94t-33 -107q36 -8 73 9.5t59 71.5q3 7 10 4q4 -2 2 -6q-19 -51 -58.5 -77t-90.5 -14zM185 353
q-40 -4 -91 -103q-55 -106 -62 -190q-5 -65 32 -63q37 3 88 71.5t89 144.5q-29 15 -46 55t-10 85zM239 296q-2 18 -4 28t-8 19t-16 10q-6 -51 4.5 -84.5t29.5 -42.5q23 49 32.5 103t3.5 89t-26 33q-27 -4 -42 -82q34 -12 37 -72q0 -6 -5 -6q-6 0 -6 5zM232 618q21 10 53 2
q1 0 12 -30t21.5 -61.5t12.5 -33.5q9 -20 -13 -1q-26 21 -72 73q-85 -64 -122 -82q-15 -6 -1 8q4 3 57 64z" />
    <glyph glyph-name="uni1ED6" unicode="&#x1ed6;" horiz-adv-x="812" 
d="M309 676q-130 -15 -210 -126q-67 -95 -62 -201q5 -105 83 -145q53 -28 131 -17q13 48 39.5 111.5t68 137.5t88 134.5t104 98t112.5 31.5q32 -3 48 -25t15 -50t-7 -56q41 -23 54 -95q13 -79 -11 -193.5t-73 -223.5t-125.5 -195.5t-157.5 -107.5q-48 -14 -82.5 -4.5
t-56.5 29.5t-34.5 55t-16 70.5t-1.5 76.5q5 90 30 184q-131 -17 -199 71q-59 77 -42 186q18 120 118 194q77 58 186 71q6 2 6 -5q2 -6 -5 -6zM310 179q-9 -35 -17 -76.5t-14 -93.5t-3 -97.5t14.5 -82.5t40.5 -53t73 -5q79 21 153.5 105t122 189.5t71 217.5t10.5 189
q-10 64 -45 86q-43 -138 -150 -233t-256 -146zM317 203q51 13 107 42.5t112 74t102 108.5t68 135q-35 14 -80 -6.5t-84 -60.5q-74 -76 -125 -199q-2 -5 -7 -3q-6 2 -3 7q57 139 141 217q40 37 83.5 53t77.5 3q24 97 -44 107q-44 6 -102.5 -52t-108 -142t-87.5 -162.5
t-50 -121.5zM650 887q21 10 53 2q1 0 12 -30t21.5 -61.5t12.5 -33.5q9 -20 -13 -1q-26 21 -72 73q-85 -64 -122 -82q-15 -6 -1 8q4 3 57 64zM811 1007q-16 -45 -37 -63.5t-41 -13t-42.5 15.5t-41 20.5t-36.5 3.5t-29 -37q-5 -6 -10 0q-2 4 0 6q16 37 35 55t37.5 18.5
t37 -5.5t36 -15t32.5 -14t27.5 2t19.5 29q9 5 12 -2z" />
    <glyph glyph-name="uni1ED7" unicode="&#x1ed7;" 
d="M251 209q-53 -104 -104.5 -165.5t-95.5 -57.5q-64 5 -70 85q-6 82 47 175q57 100 135 121l25 4q9 46 30 72t42 23q27 -4 33.5 -44t-4.5 -94t-33 -107q36 -8 73 9.5t59 71.5q3 7 10 4q4 -2 2 -6q-19 -51 -58.5 -77t-90.5 -14zM185 353q-40 -4 -91 -103q-55 -106 -62 -190
q-5 -65 32 -63q37 3 88 71.5t89 144.5q-29 15 -46 55t-10 85zM239 296q-2 18 -4 28t-8 19t-16 10q-6 -51 4.5 -84.5t29.5 -42.5q23 49 32.5 103t3.5 89t-26 33q-27 -4 -42 -82q34 -12 37 -72q0 -6 -5 -6q-6 0 -6 5zM232 618q21 10 53 2q1 0 12 -30t21.5 -61.5t12.5 -33.5
q9 -20 -13 -1q-26 21 -72 73q-85 -64 -122 -82q-15 -6 -1 8q4 3 57 64zM393 738q-16 -45 -37 -63.5t-41 -13t-42.5 15.5t-41 20.5t-36.5 3.5t-29 -37q-5 -6 -10 0q-2 4 0 6q16 37 35 55t37.5 18.5t37 -5.5t36 -15t32.5 -14t27.5 2t19.5 29q9 5 12 -2z" />
    <glyph glyph-name="uni1ED8" unicode="&#x1ed8;" horiz-adv-x="812" 
d="M309 676q-130 -15 -210 -126q-67 -95 -62 -201q5 -105 83 -145q53 -28 131 -17q13 48 39.5 111.5t68 137.5t88 134.5t104 98t112.5 31.5q32 -3 48 -25t15 -50t-7 -56q41 -23 54 -95q13 -79 -11 -193.5t-73 -223.5t-125.5 -195.5t-157.5 -107.5q-48 -14 -82.5 -4.5
t-56.5 29.5t-34.5 55t-16 70.5t-1.5 76.5q5 90 30 184q-131 -17 -199 71q-59 77 -42 186q18 120 118 194q77 58 186 71q6 2 6 -5q2 -6 -5 -6zM310 179q-9 -35 -17 -76.5t-14 -93.5t-3 -97.5t14.5 -82.5t40.5 -53t73 -5q79 21 153.5 105t122 189.5t71 217.5t10.5 189
q-10 64 -45 86q-43 -138 -150 -233t-256 -146zM317 203q51 13 107 42.5t112 74t102 108.5t68 135q-35 14 -80 -6.5t-84 -60.5q-74 -76 -125 -199q-2 -5 -7 -3q-6 2 -3 7q57 139 141 217q40 37 83.5 53t77.5 3q24 97 -44 107q-44 6 -102.5 -52t-108 -142t-87.5 -162.5
t-50 -121.5zM650 887q21 10 53 2q1 0 12 -30t21.5 -61.5t12.5 -33.5q9 -20 -13 -1q-26 21 -72 73q-85 -64 -122 -82q-15 -6 -1 8q4 3 57 64zM356 -331q1 0 -5.5 -10.5t-14.5 -22t-9 -14.5q-12 -26 -25 -11t-7 45q5 26 16 28t39 -12z" />
    <glyph glyph-name="uni1ED9" unicode="&#x1ed9;" 
d="M251 209q-53 -104 -104.5 -165.5t-95.5 -57.5q-64 5 -70 85q-6 82 47 175q57 100 135 121l25 4q9 46 30 72t42 23q27 -4 33.5 -44t-4.5 -94t-33 -107q36 -8 73 9.5t59 71.5q3 7 10 4q4 -2 2 -6q-19 -51 -58.5 -77t-90.5 -14zM185 353q-40 -4 -91 -103q-55 -106 -62 -190
q-5 -65 32 -63q37 3 88 71.5t89 144.5q-29 15 -46 55t-10 85zM239 296q-2 18 -4 28t-8 19t-16 10q-6 -51 4.5 -84.5t29.5 -42.5q23 49 32.5 103t3.5 89t-26 33q-27 -4 -42 -82q34 -12 37 -72q0 -6 -5 -6q-6 0 -6 5zM232 618q21 10 53 2q1 0 12 -30t21.5 -61.5t12.5 -33.5
q9 -20 -13 -1q-26 21 -72 73q-85 -64 -122 -82q-15 -6 -1 8q4 3 57 64zM65 -82q1 0 -6 -10.5l-15 -22.5t-9 -15q-12 -26 -25 -12q-14 15 -8 47q5 28 17.5 29t45.5 -16z" />
    <glyph glyph-name="uni1EDA" unicode="&#x1eda;" horiz-adv-x="812" 
d="M309 676q-130 -15 -210 -126q-67 -95 -62 -201q5 -105 83 -145q53 -28 131 -17q13 48 39.5 111.5t68 137.5t88 134.5t104 98t112.5 31.5q32 -3 48 -25t15 -50t-7 -56q18 -10 34 -35q26 -6 49 11.5t26 36.5q-25 -7 -42.5 6.5t-15.5 38.5q0 18 15.5 30t34.5 9q37 -5 35 -51
q-2 -37 -31 -66.5t-65 -27.5q7 -15 14 -47q13 -79 -11 -193.5t-73 -223.5t-125.5 -195.5t-157.5 -107.5q-48 -14 -82.5 -4.5t-56.5 29.5t-34.5 55t-16 70.5t-1.5 76.5q5 90 30 184q-131 -17 -199 71q-59 77 -42 186q18 120 118 194q77 58 186 71q6 2 6 -5q2 -6 -5 -6z
M310 179q-9 -35 -17 -76.5t-14 -93.5t-3 -97.5t14.5 -82.5t40.5 -53t73 -5q79 21 153.5 105t122 189.5t71 217.5t10.5 189q-10 64 -45 86q-43 -138 -150 -233t-256 -146zM317 203q51 13 107 42.5t112 74t102 108.5t68 135q-35 14 -80 -6.5t-84 -60.5q-74 -76 -125 -199
q-2 -5 -7 -3q-6 2 -3 7q57 139 141 217q40 37 83.5 53t77.5 3q24 97 -44 107q-44 6 -102.5 -52t-108 -142t-87.5 -162.5t-50 -121.5zM673 878q50 12 65 -8q12 -14 -13 -32q-119 -90 -132 -86q-3 1 3 9q3 2 39 59t38 58z" />
    <glyph glyph-name="uni1EDB" unicode="&#x1edb;" 
d="M295 366v2q-6 -70 -39 -147q36 -8 73 9.5t59 71.5q3 7 10 4q4 -2 2 -6q-19 -51 -58.5 -77t-90.5 -14q-53 -104 -104.5 -165.5t-95.5 -57.5q-64 5 -70 85q-6 82 47 175q57 100 135 121l25 4q9 46 30 72t42 23q40 -6 35 -88q20 0 37.5 13.5t19.5 27.5q-21 -7 -34.5 3
t-13.5 30q0 15 12.5 25.5t26.5 8.5q31 -3 31 -40q0 -30 -24.5 -55t-54.5 -25zM185 353q-40 -4 -91 -103q-55 -106 -62 -190q-5 -65 32 -63q37 3 88 71.5t89 144.5q-29 15 -46 55t-10 85zM239 296q-2 18 -4 28t-8 19t-16 10q-6 -51 4.5 -84.5t29.5 -42.5q23 49 32.5 103
t3.5 89t-26 33q-27 -4 -42 -82q34 -12 37 -72q0 -6 -5 -6q-6 0 -6 5zM259 628q50 12 65 -8q12 -14 -13 -32q-119 -90 -132 -86q-3 1 3 9q3 2 39 59t38 58z" />
    <glyph glyph-name="uni1EDC" unicode="&#x1edc;" horiz-adv-x="812" 
d="M309 676q-130 -15 -210 -126q-67 -95 -62 -201q5 -105 83 -145q53 -28 131 -17q13 48 39.5 111.5t68 137.5t88 134.5t104 98t112.5 31.5q32 -3 48 -25t15 -50t-7 -56q18 -10 34 -35q26 -6 49 11.5t26 36.5q-25 -7 -42.5 6.5t-15.5 38.5q0 18 15.5 30t34.5 9q37 -5 35 -51
q-2 -37 -31 -66.5t-65 -27.5q7 -15 14 -47q13 -79 -11 -193.5t-73 -223.5t-125.5 -195.5t-157.5 -107.5q-48 -14 -82.5 -4.5t-56.5 29.5t-34.5 55t-16 70.5t-1.5 76.5q5 90 30 184q-131 -17 -199 71q-59 77 -42 186q18 120 118 194q77 58 186 71q6 2 6 -5q2 -6 -5 -6z
M310 179q-9 -35 -17 -76.5t-14 -93.5t-3 -97.5t14.5 -82.5t40.5 -53t73 -5q79 21 153.5 105t122 189.5t71 217.5t10.5 189q-10 64 -45 86q-43 -138 -150 -233t-256 -146zM317 203q51 13 107 42.5t112 74t102 108.5t68 135q-35 14 -80 -6.5t-84 -60.5q-74 -76 -125 -199
q-2 -5 -7 -3q-6 2 -3 7q57 139 141 217q40 37 83.5 53t77.5 3q24 97 -44 107q-44 6 -102.5 -52t-108 -142t-87.5 -162.5t-50 -121.5zM641 888q2 0 14.5 -31t25 -63t14.5 -34q9 -18 -13 1q-6 4 -85 81q-4 3 -6 5q-24 23 -6 37q17 14 56 4z" />
    <glyph glyph-name="uni1EDD" unicode="&#x1edd;" 
d="M295 366v2q-6 -70 -39 -147q36 -8 73 9.5t59 71.5q3 7 10 4q4 -2 2 -6q-19 -51 -58.5 -77t-90.5 -14q-53 -104 -104.5 -165.5t-95.5 -57.5q-64 5 -70 85q-6 82 47 175q57 100 135 121l25 4q9 46 30 72t42 23q40 -6 35 -88q20 0 37.5 13.5t19.5 27.5q-21 -7 -34.5 3
t-13.5 30q0 15 12.5 25.5t26.5 8.5q31 -3 31 -40q0 -30 -24.5 -55t-54.5 -25zM185 353q-40 -4 -91 -103q-55 -106 -62 -190q-5 -65 32 -63q37 3 88 71.5t89 144.5q-29 15 -46 55t-10 85zM239 296q-2 18 -4 28t-8 19t-16 10q-6 -51 4.5 -84.5t29.5 -42.5q23 49 32.5 103
t3.5 89t-26 33q-27 -4 -42 -82q34 -12 37 -72q0 -6 -5 -6q-6 0 -6 5zM208 641q2 0 14.5 -31t25 -63t14.5 -34q9 -18 -13 0q-16 14 -64 61q-20 20 -27 26q-24 23 -6 37q17 14 56 4z" />
    <glyph glyph-name="uni1EDE" unicode="&#x1ede;" horiz-adv-x="812" 
d="M680 750h-11q0 2 1 10t2 14t3.5 14.5t7 15.5t11.5 12q5 4 14.5 9t15 9t9.5 10q11 15 12 33.5t-15 25.5q-14 5 -38 -5q-15 -8 -20 -22t-2 -24.5t-2 -21.5q-16 8 -11.5 38t27.5 41q29 18 64 9q26 -6 34.5 -29t-5.5 -51q-5 -10 -17 -19t-30.5 -19.5t-28.5 -18.5q-5 -4 -8 -9
t-6.5 -11.5t-6.5 -10.5zM309 676q-130 -15 -210 -126q-67 -95 -62 -201q5 -105 83 -145q53 -28 131 -17q13 48 39.5 111.5t68 137.5t88 134.5t104 98t112.5 31.5q32 -3 48 -25t15 -50t-7 -56q18 -10 34 -35q26 -6 49 11.5t26 36.5q-25 -7 -42.5 6.5t-15.5 38.5q0 18 15.5 30
t34.5 9q37 -5 35 -51q-2 -37 -31 -66.5t-65 -27.5q7 -15 14 -47q13 -79 -11 -193.5t-73 -223.5t-125.5 -195.5t-157.5 -107.5q-48 -14 -82.5 -4.5t-56.5 29.5t-34.5 55t-16 70.5t-1.5 76.5q5 90 30 184q-131 -17 -199 71q-59 77 -42 186q18 120 118 194q77 58 186 71
q6 2 6 -5q2 -6 -5 -6zM310 179q-9 -35 -17 -76.5t-14 -93.5t-3 -97.5t14.5 -82.5t40.5 -53t73 -5q79 21 153.5 105t122 189.5t71 217.5t10.5 189q-10 64 -45 86q-43 -138 -150 -233t-256 -146zM317 203q51 13 107 42.5t112 74t102 108.5t68 135q-35 14 -80 -6.5t-84 -60.5
q-74 -76 -125 -199q-2 -5 -7 -3q-6 2 -3 7q57 139 141 217q40 37 83.5 53t77.5 3q24 97 -44 107q-44 6 -102.5 -52t-108 -142t-87.5 -162.5t-50 -121.5z" />
    <glyph glyph-name="uni1EDF" unicode="&#x1edf;" 
d="M250 509h-11q0 2 1 10t2 14t3.5 14.5t7 15.5t11.5 12q5 4 14.5 9t15 9t9.5 10q11 15 12 33.5t-15 25.5q-14 5 -38 -5q-15 -8 -20 -22t-2 -24.5t-2 -21.5q-16 8 -11.5 38t27.5 41q29 18 64 9q26 -6 34.5 -29t-5.5 -51q-5 -10 -17 -19t-30.5 -19.5t-28.5 -18.5q-5 -4 -8 -9
t-6.5 -11.5t-6.5 -10.5zM295 366v2q-6 -70 -39 -147q36 -8 73 9.5t59 71.5q3 7 10 4q4 -2 2 -6q-19 -51 -58.5 -77t-90.5 -14q-53 -104 -104.5 -165.5t-95.5 -57.5q-64 5 -70 85q-6 82 47 175q57 100 135 121l25 4q9 46 30 72t42 23q40 -6 35 -88q20 0 37.5 13.5t19.5 27.5
q-21 -7 -34.5 3t-13.5 30q0 15 12.5 25.5t26.5 8.5q31 -3 31 -40q0 -30 -24.5 -55t-54.5 -25zM185 353q-40 -4 -91 -103q-55 -106 -62 -190q-5 -65 32 -63q37 3 88 71.5t89 144.5q-29 15 -46 55t-10 85zM239 296q-2 18 -4 28t-8 19t-16 10q-6 -51 4.5 -84.5t29.5 -42.5
q23 49 32.5 103t3.5 89t-26 33q-27 -4 -42 -82q34 -12 37 -72q0 -6 -5 -6q-6 0 -6 5z" />
    <glyph glyph-name="uni1EE0" unicode="&#x1ee0;" horiz-adv-x="812" 
d="M309 676q-130 -15 -210 -126q-67 -95 -62 -201q5 -105 83 -145q53 -28 131 -17q13 48 39.5 111.5t68 137.5t88 134.5t104 98t112.5 31.5q32 -3 48 -25t15 -50t-7 -56q18 -10 34 -35q26 -6 49 11.5t26 36.5q-25 -7 -42.5 6.5t-15.5 38.5q0 18 15.5 30t34.5 9q37 -5 35 -51
q-2 -37 -31 -66.5t-65 -27.5q7 -15 14 -47q13 -79 -11 -193.5t-73 -223.5t-125.5 -195.5t-157.5 -107.5q-48 -14 -82.5 -4.5t-56.5 29.5t-34.5 55t-16 70.5t-1.5 76.5q5 90 30 184q-131 -17 -199 71q-59 77 -42 186q18 120 118 194q77 58 186 71q6 2 6 -5q2 -6 -5 -6z
M310 179q-9 -35 -17 -76.5t-14 -93.5t-3 -97.5t14.5 -82.5t40.5 -53t73 -5q79 21 153.5 105t122 189.5t71 217.5t10.5 189q-10 64 -45 86q-43 -138 -150 -233t-256 -146zM317 203q51 13 107 42.5t112 74t102 108.5t68 135q-35 14 -80 -6.5t-84 -60.5q-74 -76 -125 -199
q-2 -5 -7 -3q-6 2 -3 7q57 139 141 217q40 37 83.5 53t77.5 3q24 97 -44 107q-44 6 -102.5 -52t-108 -142t-87.5 -162.5t-50 -121.5zM801 843q-16 -45 -37 -63.5t-41 -13t-42.5 15.5t-41 20.5t-36.5 3.5t-29 -37q-5 -6 -10 0q-2 4 0 6q16 37 35 55t37.5 18.5t37 -5.5t36 -15
t32.5 -14t27.5 2t19.5 29q9 5 12 -2z" />
    <glyph glyph-name="uni1EE1" unicode="&#x1ee1;" 
d="M295 366v2q-6 -70 -39 -147q36 -8 73 9.5t59 71.5q3 7 10 4q4 -2 2 -6q-19 -51 -58.5 -77t-90.5 -14q-53 -104 -104.5 -165.5t-95.5 -57.5q-64 5 -70 85q-6 82 47 175q57 100 135 121l25 4q9 46 30 72t42 23q40 -6 35 -88q20 0 37.5 13.5t19.5 27.5q-21 -7 -34.5 3
t-13.5 30q0 15 12.5 25.5t26.5 8.5q31 -3 31 -40q0 -30 -24.5 -55t-54.5 -25zM185 353q-40 -4 -91 -103q-55 -106 -62 -190q-5 -65 32 -63q37 3 88 71.5t89 144.5q-29 15 -46 55t-10 85zM239 296q-2 18 -4 28t-8 19t-16 10q-6 -51 4.5 -84.5t29.5 -42.5q23 49 32.5 103
t3.5 89t-26 33q-27 -4 -42 -82q34 -12 37 -72q0 -6 -5 -6q-6 0 -6 5zM363 594q-16 -45 -37 -63.5t-41 -13t-42.5 15.5t-41 20.5t-36.5 3.5t-29 -37q-5 -6 -10 0q-2 4 0 6q16 37 35 55t37.5 18.5t37 -5.5t36 -15t32.5 -14t27.5 2t19.5 29q9 5 12 -2z" />
    <glyph glyph-name="uni1EE2" unicode="&#x1ee2;" horiz-adv-x="812" 
d="M356 -331q1 0 -5.5 -10.5t-14.5 -22t-9 -14.5q-12 -26 -25 -11t-7 45q5 26 16 28t39 -12zM309 676q-130 -15 -210 -126q-67 -95 -62 -201q5 -105 83 -145q53 -28 131 -17q13 48 39.5 111.5t68 137.5t88 134.5t104 98t112.5 31.5q32 -3 48 -25t15 -50t-7 -56
q18 -10 34 -35q26 -6 49 11.5t26 36.5q-25 -7 -42.5 6.5t-15.5 38.5q0 18 15.5 30t34.5 9q37 -5 35 -51q-2 -37 -31 -66.5t-65 -27.5q7 -15 14 -47q13 -79 -11 -193.5t-73 -223.5t-125.5 -195.5t-157.5 -107.5q-48 -14 -82.5 -4.5t-56.5 29.5t-34.5 55t-16 70.5t-1.5 76.5
q5 90 30 184q-131 -17 -199 71q-59 77 -42 186q18 120 118 194q77 58 186 71q6 2 6 -5q2 -6 -5 -6zM310 179q-9 -35 -17 -76.5t-14 -93.5t-3 -97.5t14.5 -82.5t40.5 -53t73 -5q79 21 153.5 105t122 189.5t71 217.5t10.5 189q-10 64 -45 86q-43 -138 -150 -233t-256 -146z
M317 203q51 13 107 42.5t112 74t102 108.5t68 135q-35 14 -80 -6.5t-84 -60.5q-74 -76 -125 -199q-2 -5 -7 -3q-6 2 -3 7q57 139 141 217q40 37 83.5 53t77.5 3q24 97 -44 107q-44 6 -102.5 -52t-108 -142t-87.5 -162.5t-50 -121.5z" />
    <glyph glyph-name="uni1EE3" unicode="&#x1ee3;" 
d="M65 -82q1 0 -6 -10.5l-15 -22.5t-9 -15q-12 -26 -25 -12q-14 15 -8 47q5 28 17.5 29t45.5 -16zM295 366v2q-6 -70 -39 -147q36 -8 73 9.5t59 71.5q3 7 10 4q4 -2 2 -6q-19 -51 -58.5 -77t-90.5 -14q-53 -104 -104.5 -165.5t-95.5 -57.5q-64 5 -70 85q-6 82 47 175
q57 100 135 121l25 4q9 46 30 72t42 23q40 -6 35 -88q20 0 37.5 13.5t19.5 27.5q-21 -7 -34.5 3t-13.5 30q0 15 12.5 25.5t26.5 8.5q31 -3 31 -40q0 -30 -24.5 -55t-54.5 -25zM185 353q-40 -4 -91 -103q-55 -106 -62 -190q-5 -65 32 -63q37 3 88 71.5t89 144.5
q-29 15 -46 55t-10 85zM239 296q-2 18 -4 28t-8 19t-16 10q-6 -51 4.5 -84.5t29.5 -42.5q23 49 32.5 103t3.5 89t-26 33q-27 -4 -42 -82q34 -12 37 -72q0 -6 -5 -6q-6 0 -6 5z" />
    <glyph glyph-name="uni1EE4" unicode="&#x1ee4;" horiz-adv-x="996" 
d="M458 -331q1 0 -5.5 -10.5t-14.5 -22t-9 -14.5q-12 -26 -25 -11t-7 45q5 26 16 28t39 -12zM687 -21q-83 -154 -188 -197q-47 -19 -84 -22.5t-59.5 9.5t-38.5 33.5t-20.5 53.5t-6.5 64.5t4.5 73t11.5 72t15 68t15 55l11 38.5q3 10 13 39q79 232 70 333q-11 123 -137 97
q-49 -10 -104 -63t-91.5 -123t-47.5 -144t29 -126q16 -22 53 -30t77.5 1t77 47.5t48.5 100.5q1 5 6 3q3 -3 3 -6q-20 -104 -107 -152t-164 -6.5t-72 158.5q5 105 91 211t176 134q41 11 80 9.5t73.5 -24t52.5 -61.5q10 -22 14 -47t1.5 -55.5t-5.5 -55t-13.5 -63t-17 -59.5
t-21 -65.5t-19.5 -61.5q-48 -158 -59 -231q-31 -202 80 -193q28 2 65 18q110 48 196 214q8 48 28 123q37 133 95.5 297t108.5 243l69 12q-111 -227 -205 -538q-25 -82 -39 -149t-18.5 -122.5t9 -86t45.5 -29.5q76 3 163 190q3 5 8 2q5 -2 3 -7q-93 -195 -174 -204
q-70 -8 -93 52t-8 170z" />
    <glyph glyph-name="uni1EE5" unicode="&#x1ee5;" horiz-adv-x="372" 
d="M101 -66q1 0 -6 -10.5l-15 -22.5t-9 -15q-12 -26 -25 -12q-14 15 -8 47q5 28 17.5 29t45.5 -16zM139 365q-9 -20 -72 -187q-14 -41 -20.5 -75.5t-2 -57t21.5 -23.5q55 -4 132 139q8 33 43 125t36 99q1 4 15.5 -2t28 -14t12.5 -10l-79 -219q-30 -108 6 -106q3 0 7 1
q20 5 56 56.5t52 90.5q2 5 7 3q6 -2 4 -7q-7 -18 -21.5 -44.5t-35 -57.5t-47 -52.5t-49.5 -22.5q-27 -1 -38.5 33.5t-3.5 83.5h-3q-19 -31 -33 -51t-46 -43t-67 -23q-50 0 -59.5 59.5t20.5 137.5q59 161 76 191q1 4 16.5 -1t30 -12.5t13.5 -10.5z" />
    <glyph glyph-name="uni1EE6" unicode="&#x1ee6;" horiz-adv-x="996" 
d="M717 750h-11q0 2 1 10t2 14t3.5 14.5t7 15.5t11.5 12q5 4 14.5 9t15 9t9.5 10q11 15 12 33.5t-15 25.5q-14 5 -38 -5q-15 -8 -20 -22t-2 -24.5t-2 -21.5q-16 8 -11.5 38t27.5 41q29 18 64 9q26 -6 34.5 -29t-5.5 -51q-5 -10 -17 -19t-30.5 -19.5t-28.5 -18.5q-5 -4 -8 -9
t-6.5 -11.5t-6.5 -10.5zM687 -21q-83 -154 -188 -197q-47 -19 -84 -22.5t-59.5 9.5t-38.5 33.5t-20.5 53.5t-6.5 64.5t4.5 73t11.5 72t15 68t15 55l11 38.5q3 10 13 39q79 232 70 333q-11 123 -137 97q-49 -10 -104 -63t-91.5 -123t-47.5 -144t29 -126q16 -22 53 -30t77.5 1
t77 47.5t48.5 100.5q1 5 6 3q3 -3 3 -6q-20 -104 -107 -152t-164 -6.5t-72 158.5q5 105 91 211t176 134q41 11 80 9.5t73.5 -24t52.5 -61.5q10 -22 14 -47t1.5 -55.5t-5.5 -55t-13.5 -63t-17 -59.5t-21 -65.5t-19.5 -61.5q-48 -158 -59 -231q-31 -202 80 -193q28 2 65 18
q110 48 196 214q8 48 28 123q37 133 95.5 297t108.5 243l69 12q-111 -227 -205 -538q-25 -82 -39 -149t-18.5 -122.5t9 -86t45.5 -29.5q76 3 163 190q3 5 8 2q5 -2 3 -7q-93 -195 -174 -204q-70 -8 -93 52t-8 170z" />
    <glyph glyph-name="uni1EE7" unicode="&#x1ee7;" horiz-adv-x="372" 
d="M221 428h-11q0 2 1 10t2 14t3.5 14.5t7 15.5t11.5 12q5 4 14.5 9t15 9t9.5 10q11 15 12 33.5t-15 25.5q-14 5 -38 -5q-15 -8 -20 -22t-2 -24.5t-2 -21.5q-16 8 -11.5 38t27.5 41q29 18 64 9q26 -6 34.5 -29t-5.5 -51q-5 -10 -17 -19t-30.5 -19.5t-28.5 -18.5q-5 -4 -8 -9
t-6.5 -11.5t-6.5 -10.5zM139 365q-9 -20 -72 -187q-14 -41 -20.5 -75.5t-2 -57t21.5 -23.5q55 -4 132 139q8 33 43 125t36 99q1 4 15.5 -2t28 -14t12.5 -10l-79 -219q-30 -108 6 -106q3 0 7 1q20 5 56 56.5t52 90.5q2 5 7 3q6 -2 4 -7q-7 -18 -21.5 -44.5t-35 -57.5
t-47 -52.5t-49.5 -22.5q-27 -1 -38.5 33.5t-3.5 83.5h-3q-19 -31 -33 -51t-46 -43t-67 -23q-50 0 -59.5 59.5t20.5 137.5q59 161 76 191q1 4 16.5 -1t30 -12.5t13.5 -10.5z" />
    </font>
</defs>
</svg>
