<?xml version="1.0" standalone="no"?>
<!DOCTYPE svg PUBLIC "-//W3C//DTD SVG 1.1//EN" "http://www.w3.org/Graphics/SVG/1.1/DTD/svg11.dtd" >
<svg xmlns="http://www.w3.org/2000/svg" xmlns:xlink="http://www.w3.org/1999/xlink" version="1.1">
<metadata>
Created by FontForge 20161003 at Fri Apr 19 07:22:22 2019
 By www-data
Copyright (c) 2005-2008 by Darden Studio. All rights reserved.
</metadata>
<defs>
<font id="JubilatRegular" horiz-adv-x="706" >
  <font-face 
    font-family="JubilatRegular"
    font-weight="400"
    font-stretch="normal"
    units-per-em="1000"
    panose-1="0 0 0 0 0 0 0 0 0 0"
    ascent="750"
    descent="-250"
    x-height="485"
    cap-height="664"
    bbox="-48 -235 1243 961"
    underline-thickness="50"
    underline-position="-150"
    unicode-range="U+0020-FB04"
  />
<missing-glyph horiz-adv-x="500" 
 />
    <glyph glyph-name="f_f" unicode="ff" horiz-adv-x="561" 
d="M15 427v58h70v51q0 78 32.5 112t103.5 34q46 0 80 -17v-57q-19 11 -50 11q-41 0 -57.5 -20t-16.5 -75v-39h171v51q0 78 31.5 112t102.5 34q44 0 78 -17v-57q-19 11 -50 11q-41 0 -56.5 -20t-13.5 -75v-39h101v-58h-100v-346q0 -23 15 -23h62v-58h-236v58h52q14 0 14 23
v346h-170v-346q0 -14 3.5 -18.5t11.5 -4.5h60v-58h-235v58h52q8 0 11.5 4.5t3.5 18.5v346h-70z" />
    <glyph glyph-name="fi" unicode="fi" horiz-adv-x="547" 
d="M15 427v58h70v51q0 78 31.5 112t103.5 34q43 0 77 -17v-57q-19 11 -51 11q-40 0 -55 -20t-14 -75v-39h171q64 0 111 9v-413q0 -23 14 -23h53v-58h-233v58h56q15 0 15 23v306q0 23 -4.5 31.5t-17.5 8.5h-164v-346q0 -14 3.5 -18.5t11.5 -4.5h63v-58h-238v58h52
q8 0 11.5 4.5t3.5 18.5v346h-70zM410 549q-27 0 -44.5 18t-17.5 45t17.5 45.5t44.5 18.5t45 -18.5t18 -45.5q0 -26 -18 -44.5t-45 -18.5z" />
    <glyph glyph-name="fl" unicode="fl" horiz-adv-x="548" 
d="M283 623q-65 0 -86.5 -21t-21.5 -90l1 -27h102v-58h-100v-346q0 -14 3.5 -18.5t11.5 -4.5h63v-58h-238v58h52q8 0 11.5 4.5t3.5 18.5v346h-70v58h70v38q0 94 37 126.5t136 32.5q31 0 106 -7h95v-594q0 -23 14 -23h52v-58h-232v58h57q14 0 14 23v510q0 17 -4.5 24.5
t-17.5 7.5h-59z" />
    <glyph glyph-name="f_f_i" unicode="ffi" horiz-adv-x="811" 
d="M15 427v58h70v51q0 78 32.5 112t103.5 34q46 0 80 -17v-57q-19 11 -50 11q-41 0 -57.5 -20t-16.5 -75v-39h171v51q0 78 31.5 112t102.5 34q44 0 78 -17v-57q-19 11 -50 11q-41 0 -56.5 -20t-13.5 -75v-39h171q64 0 111 9v-413q0 -23 14 -23h54v-58h-234v58h57q14 0 14 23
v306q0 23 -4.5 31.5t-17.5 8.5h-164v-346q0 -23 15 -23h62v-58h-236v58h52q14 0 14 23v346h-170v-346q0 -14 3.5 -18.5t11.5 -4.5h60v-58h-235v58h52q8 0 11.5 4.5t3.5 18.5v346h-70zM673 549q-27 0 -44.5 18t-17.5 45t17.5 45.5t44.5 18.5t45 -18.5t18 -45.5t-18 -45
t-45 -18z" />
    <glyph glyph-name="f_f_l" unicode="ffl" horiz-adv-x="811" 
d="M547 621q-66 0 -87 -20t-21 -90v-26h102v-58h-100v-346q0 -23 15 -23h62v-58h-236v58h52q14 0 14 23v346h-170v-346q0 -14 3.5 -18.5t11.5 -4.5h60v-58h-235v58h52q8 0 11.5 4.5t3.5 18.5v346h-70v58h70v51q0 78 32.5 112t103.5 34q46 0 80 -17v-57q-19 11 -50 11
q-41 0 -57.5 -20t-16.5 -75v-39h171v38q0 94 37.5 126.5t135.5 32.5q33 0 106 -7h95v-594q0 -23 14 -23h52v-58h-232v58h57q14 0 14 23v509q0 17 -4.5 24t-17.5 7h-58z" />
    <glyph glyph-name=".notdef" horiz-adv-x="500" 
 />
    <glyph glyph-name=".null" horiz-adv-x="0" 
 />
    <glyph glyph-name="nonmarkingreturn" horiz-adv-x="333" 
 />
    <glyph glyph-name="space" unicode=" " horiz-adv-x="233" 
 />
    <glyph glyph-name="exclam" unicode="!" horiz-adv-x="211" 
d="M92 188q-3 24 -12 87.5t-14.5 114t-5.5 91.5v183h97v-183q0 -41 -5.5 -91.5t-14.5 -114t-12 -87.5h-33zM105 -12q-28 0 -45.5 18t-17.5 45q0 28 18 45.5t45 17.5t45 -17.5t18 -45.5q0 -27 -18 -45t-45 -18z" />
    <glyph glyph-name="quotedbl" unicode="&#x22;" horiz-adv-x="342" 
d="M241 399q-32 146 -32 205v60h87v-60q0 -64 -31 -205h-24zM78 399q-32 146 -32 205v60h87v-60q0 -64 -31 -205h-24z" />
    <glyph glyph-name="numbersign" unicode="#" horiz-adv-x="598" 
d="M84 418v72h131l65 174h57l-65 -174h170l65 174h57l-65 -174h79v-72h-105l-64 -172h105v-72h-132l-64 -174h-57l64 174h-170l-64 -174h-57l64 174h-78v72h105l64 172h-105zM246 418l-64 -172h170l64 172h-170z" />
    <glyph glyph-name="dollar" unicode="$" horiz-adv-x="530" 
d="M200 -59v83q-82 14 -130 54.5t-48 97.5q0 38 18.5 59t50.5 21q24 0 39 -14.5t15 -36.5q0 -24 -15.5 -39.5t-43.5 -16.5q27 -50 114 -68v235q-74 18 -117 52.5t-43 103.5q0 68 43.5 113.5t116.5 61.5v71h39v-65q22 2 35 2q5 0 15.5 -0.5t15.5 -0.5v64h40v-69
q72 -13 114 -51t42 -91q0 -35 -18 -55.5t-49 -20.5q-23 0 -38 14t-15 36q0 50 55 55q-24 37 -91 54v-218q164 -43 164 -165q0 -74 -44 -120.5t-120 -61.5v-84h-40v79q-11 -1 -33 -1t-33 1v-79h-39zM251 306q-2 0 -6 1t-6 1v-232q10 -1 30 -1q24 0 36 1v219zM284 385l21 -4
v216q-24 2 -34 2q-12 0 -32 -2v-205zM430 186q0 42 -22 65t-63 35v-202q85 24 85 102zM116 490q0 -68 84 -89v188q-40 -11 -62 -37t-22 -62z" />
    <glyph glyph-name="percent" unicode="%" horiz-adv-x="701" 
d="M180 408q87 0 87 101v16q0 101 -84 101q-87 0 -87 -101v-16q0 -101 84 -101zM180 358q-71 0 -115 44t-44 115q0 70 45 114.5t118 44.5q70 0 114 -44.5t44 -114.5t-45 -114.5t-117 -44.5zM518 -12q-71 0 -115 44.5t-44 115.5q0 69 45.5 113.5t117.5 44.5q70 0 114 -44
t44 -114t-45 -115t-117 -45zM519 38q41 0 63.5 26t22.5 75v17q0 100 -84 100q-87 0 -87 -100v-17q0 -101 85 -101zM63 0l260 345l239 319h72l-242 -320l-256 -344h-73z" />
    <glyph glyph-name="ampersand" unicode="&#x26;" horiz-adv-x="759" 
d="M255 -12q-105 0 -163.5 54t-58.5 141q0 149 185 204q-48 75 -48 136q0 68 48.5 111.5t130.5 43.5q71 0 114.5 -39.5t43.5 -102.5q0 -65 -44 -104t-130 -60l35 -45l83 -116q1 -2 32 -45q54 67 86 162h-86v59h239v-59h-81q-56 -132 -123 -208q49 -59 92 -59q30 0 41.5 13.5
t11.5 44.5v36h60v-42q0 -66 -30 -95.5t-94 -29.5q-39 0 -72 17t-72 59q-96 -76 -200 -76zM268 53q78 0 150 55q-22 26 -51 68l-71 100q-46 63 -53 73q-124 -50 -124 -157q0 -62 41.5 -100.5t107.5 -38.5zM258 532q0 -51 46 -119q68 18 101.5 45t33.5 77q0 39 -23.5 63.5
t-63.5 24.5q-42 0 -68 -25.5t-26 -65.5z" />
    <glyph glyph-name="quotesingle" unicode="'" horiz-adv-x="180" 
d="M78 399q-32 146 -32 205v60h87v-60q0 -64 -31 -205h-24z" />
    <glyph glyph-name="parenleft" unicode="(" horiz-adv-x="361" 
d="M326 -172q-145 17 -220.5 127.5t-75.5 288.5v9q0 176 75.5 285t220.5 126h13v-57l-8 -2q-95 -17 -147.5 -103t-52.5 -242v-22q0 -158 53 -246.5t147 -104.5l8 -2v-57h-13z" />
    <glyph glyph-name="parenright" unicode=")" horiz-adv-x="353" 
d="M14 -172v57l8 2q95 17 147.5 105t52.5 246v22q0 310 -200 345l-8 2v57h13q146 -17 221 -125.5t75 -285.5v-9q0 -178 -75 -288.5t-221 -127.5h-13z" />
    <glyph glyph-name="asterisk" unicode="*" horiz-adv-x="354" 
d="M198 467l9 -124h-58l9 125l-106 -71l-28 51l112 56l-111 53l29 52l104 -70l-9 125h58l-9 -125l102 70l29 -52l-112 -53l113 -56l-29 -51z" />
    <glyph glyph-name="plus" unicode="+" horiz-adv-x="469" 
d="M40 211v68h160v161h69v-161h160v-68h-160v-161h-69v161h-160z" />
    <glyph glyph-name="comma" unicode="," horiz-adv-x="197" 
d="M117 10q0 4 -1 7q-15 -12 -36 -12q-24 0 -38.5 14t-14.5 38q0 26 18 42.5t47 16.5q35 0 60.5 -28t25.5 -71q0 -54 -33 -88t-87 -34q-16 0 -36 5v51q12 -4 29 -4q31 0 48.5 16t17.5 47z" />
    <glyph glyph-name="hyphen" unicode="-" horiz-adv-x="267" 
d="M20 209v71h234v-71h-234z" />
    <glyph glyph-name="period" unicode="." horiz-adv-x="197" 
d="M98 -12q-28 0 -45.5 18t-17.5 46t17.5 46t45.5 18t46 -18t18 -46t-18 -46t-46 -18z" />
    <glyph glyph-name="slash" unicode="/" horiz-adv-x="360" 
d="M10 0l270 664h70l-270 -664h-70z" />
    <glyph glyph-name="zero" unicode="0" horiz-adv-x="614" 
d="M304 -12q-132 0 -204 89.5t-72 254.5q0 163 75 253.5t209 90.5q130 0 201.5 -90.5t71.5 -253.5t-74 -253.5t-207 -90.5zM305 53q180 0 180 255v49q0 255 -174 255q-181 0 -181 -255v-49q0 -255 175 -255z" />
    <glyph glyph-name="one" unicode="1" horiz-adv-x="419" 
d="M59 458h-22v75h29q68 0 96 31.5t42 103.5h74v-586q0 -24 15 -24h100v-58h-333v58h109q14 0 14 24v434q-46 -58 -124 -58z" />
    <glyph glyph-name="two" unicode="2" horiz-adv-x="555" 
d="M265 614q-121 0 -164 -85q35 -1 53.5 -19t18.5 -46t-18.5 -45.5t-47.5 -17.5q-32 0 -52.5 24t-20.5 65q0 81 68.5 133.5t170.5 52.5q116 0 183 -55.5t67 -149.5q0 -52 -20 -89.5t-53 -60t-74 -39.5t-84.5 -33.5t-82.5 -36t-70.5 -53t-45.5 -79.5h322q17 0 24 5.5t9 20.5
l9 89h59v-195h-488l4 50q5 58 30 102.5t59.5 72.5t75 50.5t80.5 41t72.5 38.5t52.5 49t20 67q0 67 -42 105t-115 38z" />
    <glyph glyph-name="three" unicode="3" horiz-adv-x="549" 
d="M160 181q0 -26 -19 -44t-48 -18q15 -33 58.5 -51t106.5 -18q163 0 163 134v5q0 61 -38 91t-120 30q-9 0 -22 -1t-22.5 -1.5t-10.5 -0.5v71q14 -4 57 -4q67 0 107 31t40 82v5q0 60 -37.5 91t-108.5 31q-133 0 -159 -71q29 -1 46.5 -18.5t17.5 -42.5q0 -24 -16.5 -40.5
t-43.5 -16.5q-34 0 -54 22.5t-20 62.5q0 77 65 121.5t164 44.5q245 0 245 -176q0 -55 -37 -93t-103 -51q152 -35 152 -170q0 -93 -69.5 -145.5t-196.5 -52.5q-110 0 -171.5 41.5t-61.5 119.5q0 41 21 65.5t56 24.5q25 0 42 -16.5t17 -41.5z" />
    <glyph glyph-name="four" unicode="4" horiz-adv-x="562" 
d="M13 191v57l317 416h121l-373 -412h264v119q20 0 43 17t36 34l13 17v-187h106v-61h-106v-108q0 -25 16 -25h62v-58h-249v58h61q9 0 12.5 5t3.5 20v108h-327z" />
    <glyph glyph-name="five" unicode="5" horiz-adv-x="545" 
d="M160 193q0 -27 -17 -43.5t-49 -17.5q34 -82 164 -82q80 0 123 45.5t43 127.5v8q0 75 -39 114.5t-112 39.5q-68 0 -106.5 -28.5t-49.5 -72.5l-63 1l38 379h421q-12 -47 -39 -64.5t-82 -17.5h-241l-28 -203q59 69 173 69q106 0 165.5 -56.5t59.5 -159.5q0 -114 -69 -179
t-193 -65q-102 0 -165.5 48.5t-63.5 121.5q0 40 20 64t53 24q25 0 41 -15t16 -38z" />
    <glyph glyph-name="six" unicode="6" horiz-adv-x="580" 
d="M414 505q0 21 15.5 37.5t39.5 20.5q-37 47 -133 47q-107 0 -157.5 -64t-50.5 -199q0 -26 5 -71q13 67 66 105t131 38q105 0 165 -56t60 -154q0 -102 -66.5 -161.5t-182.5 -59.5q-132 0 -203 90t-71 255q0 164 77 253.5t221 89.5q99 0 157 -39.5t58 -107.5
q0 -38 -19.5 -59t-55.5 -21q-25 0 -40.5 16t-15.5 40zM303 51q73 0 115 40t42 109v9q0 69 -40.5 108t-112.5 39q-71 0 -114 -41.5t-43 -107.5v-9q0 -66 42 -106.5t111 -40.5z" />
    <glyph glyph-name="seven" unicode="7" horiz-adv-x="522" 
d="M120 0l3 22q9 83 35 151.5t63.5 118t72 84.5t78 73.5t64.5 63.5q-27 -21 -72 -21q-48 0 -93.5 19t-98 49.5t-88.5 43.5v-154h-63v214h66q50 0 93 -11.5t73 -28.5t56 -34t52.5 -29t52.5 -12q13 0 20 2l-8 113h81l-1 -63q-1 -48 -19.5 -91.5t-46 -77t-64 -77.5t-72 -88.5
t-71.5 -114.5t-60 -152h-53z" />
    <glyph glyph-name="eight" unicode="8" horiz-adv-x="561" 
d="M278 -12q-123 0 -188 45.5t-65 131.5q0 57 40.5 98.5t114.5 62.5q-139 45 -139 165q0 86 64 135.5t176 49.5q234 0 234 -169q0 -111 -139 -150q162 -50 162 -177q0 -89 -70 -140.5t-190 -51.5zM442 170q0 61 -50 91t-146 49q-133 -40 -133 -140q0 -56 44 -88t121 -32
q75 0 119.5 32.5t44.5 87.5zM134 502q0 -56 44.5 -83.5t130.5 -45.5q120 34 120 130q0 112 -146 112q-70 0 -109.5 -29.5t-39.5 -83.5z" />
    <glyph glyph-name="nine" unicode="9" horiz-adv-x="586" 
d="M168 155q2 -21 -13.5 -37.5t-40.5 -19.5q38 -46 142 -46q102 0 151.5 63t49.5 193q0 23 -5 71q-12 -65 -64 -104.5t-130 -39.5q-107 0 -167.5 57.5t-60.5 156.5q0 103 67.5 165t183.5 62q132 0 202 -89.5t70 -255.5q0 -164 -77 -253.5t-221 -89.5q-99 0 -157.5 39.5
t-60.5 105.5q1 38 20.5 59t53.5 21q27 0 43 -16.5t14 -41.5zM278 298q71 0 114.5 42.5t43.5 109.5v12q0 67 -42 109t-111 42q-74 0 -115.5 -41t-41.5 -111v-12q0 -70 40 -110.5t112 -40.5z" />
    <glyph glyph-name="colon" unicode=":" horiz-adv-x="197" 
d="M98 310q-28 0 -45.5 18t-17.5 46t17.5 45.5t45.5 17.5t46 -17.5t18 -45.5t-18 -46t-46 -18zM98 -12q-28 0 -45.5 18t-17.5 46t17.5 46t45.5 18t46 -18t18 -46t-18 -46t-46 -18z" />
    <glyph glyph-name="semicolon" unicode=";" horiz-adv-x="197" 
d="M117 10q0 4 -1 7q-15 -12 -36 -12q-24 0 -38.5 14t-14.5 38q0 26 18 42.5t47 16.5q35 0 60.5 -28t25.5 -71q0 -54 -33 -88t-87 -34q-16 0 -36 5v51q12 -4 29 -4q31 0 48.5 16t17.5 47zM98 310q-28 0 -45.5 18t-17.5 46t17.5 45.5t45.5 17.5t46 -17.5t18 -45.5t-18 -46
t-46 -18z" />
    <glyph glyph-name="less" unicode="&#x3c;" horiz-adv-x="468" 
d="M422 36l-377 188v42l377 188v-76l-273 -133l273 -133v-76z" />
    <glyph glyph-name="equal" unicode="=" horiz-adv-x="469" 
d="M30 301v65h409v-65h-409zM30 124v65h409v-65h-409z" />
    <glyph glyph-name="greater" unicode="&#x3e;" horiz-adv-x="468" 
d="M48 36v76l272 133l-272 133v76l376 -188v-42z" />
    <glyph glyph-name="question" unicode="?" horiz-adv-x="487" 
d="M154 462q0 -25 -18 -42t-44 -17q-33 1 -53 23t-20 63q0 84 60.5 135.5t163.5 51.5q104 0 165 -50t61 -131q0 -49 -20.5 -84t-51.5 -56t-63 -40t-60.5 -51t-38.5 -75h-41l1 9q2 40 16 73t33 52.5t41 39t40.5 35.5t31 40t12.5 53q0 57 -37 89t-103 32q-113 0 -145 -87
q32 -1 51 -19t19 -44zM221 -12q-27 0 -44.5 18t-17.5 45t17.5 45t44.5 18t45.5 -18t18.5 -45t-18.5 -45t-45.5 -18z" />
    <glyph glyph-name="at" unicode="@" horiz-adv-x="752" 
d="M366 -16q-149 0 -243.5 80t-94.5 227q0 171 104 279.5t274 108.5q140 0 231.5 -71t91.5 -207q0 -104 -56.5 -172t-140.5 -68q-44 0 -71 18t-31 50q-45 -65 -113 -65q-52 0 -84.5 34t-32.5 88q0 84 50 145t122 61q39 0 65 -20t34 -54l19 67h20q23 0 45 9l-47 -179
q-14 -57 -13 -67q0 -45 53 -45q59 0 98 58t39 138q0 116 -79.5 178t-198.5 62q-151 0 -242.5 -96.5t-91.5 -247.5q0 -128 81 -199.5t211 -71.5q141 0 233 91l30 -30q-101 -101 -262 -101zM338 208q47 0 80 50.5t33 113.5q0 34 -19 54.5t-50 20.5q-49 0 -82.5 -48t-33.5 -113
q0 -35 20 -56.5t52 -21.5z" />
    <glyph glyph-name="A" unicode="A" horiz-adv-x="728" 
d="M532 82l-57 148h-253l-55 -148q-8 -24 14 -24h62v-58h-232v58h60q12 0 18 5t12 21l226 584h83l225 -584q10 -26 28 -26h54v-58h-259v58h60q23 0 14 24zM349 570l-107 -283h214z" />
    <glyph glyph-name="B" unicode="B" horiz-adv-x="589" 
d="M565 179q0 -92 -64.5 -135.5t-201.5 -43.5h-280v58h60q16 0 16 25v499q0 24 -16 24h-60v58h273q127 0 184.5 -40t57.5 -128q0 -120 -127 -150q158 -25 158 -167zM191 313v-255h111q86 0 123.5 29.5t37.5 95.5q0 69 -37.5 99.5t-119.5 30.5h-115zM191 366h86
q82 0 119.5 28t37.5 91q0 65 -33.5 93t-110.5 28h-99v-240z" />
    <glyph glyph-name="C" unicode="C" horiz-adv-x="658" 
d="M344 -12q-144 0 -230 91.5t-86 251.5q0 157 85.5 251t221.5 94q76 0 129 -34t76 -95l18 117h59v-243h-79q-36 189 -193 189q-101 0 -158.5 -69.5t-57.5 -196.5v-24q0 -127 58 -196.5t159 -69.5q87 0 143 45.5t67 137.5l68 -9q-10 -107 -83.5 -173.5t-196.5 -66.5z" />
    <glyph glyph-name="D" unicode="D" horiz-adv-x="660" 
d="M19 0v58h60q16 0 16 25v499q0 14 -3.5 19t-12.5 5h-60v58h266q173 0 260 -85.5t87 -248.5q0 -159 -90 -244.5t-265 -85.5h-258zM191 58h93q129 0 186 63t57 193v34q0 133 -54.5 195.5t-181.5 62.5h-100v-548z" />
    <glyph glyph-name="E" unicode="E" horiz-adv-x="582" 
d="M19 0v58h60q9 0 12.5 5t3.5 19v500q0 14 -3.5 19t-12.5 5h-60v58h505v-152h-64l-8 68q-3 15 -12.5 20.5t-32.5 5.5h-216v-241h138q14 0 19.5 5.5t5.5 19.5v45h57v-198h-57v44q0 27 -25 27h-138v-250h236q24 0 33 4.5t12 21.5l8 68h64v-152h-525z" />
    <glyph glyph-name="F" unicode="F" horiz-adv-x="559" 
d="M350 219v45q0 14 -5.5 20t-19.5 6h-134v-208q0 -15 3.5 -19.5t12.5 -4.5h63v-58h-251v58h60q9 0 12.5 5t3.5 19v500q0 14 -3.5 19t-12.5 5h-60v58h503v-152h-64l-7 68q-4 17 -12.5 21.5t-32.5 4.5h-215v-258h134q14 0 19.5 5.5t5.5 19.5v44h57v-198h-57z" />
    <glyph glyph-name="G" unicode="G" horiz-adv-x="655" 
d="M573 0l-27 115q-53 -127 -225 -127q-138 0 -216.5 91t-78.5 252q0 158 84.5 251.5t219.5 93.5q78 0 134 -33.5t79 -94.5l18 116h58v-242h-79q-34 188 -200 188q-99 0 -156 -69.5t-57 -196.5v-24q0 -130 54.5 -198t156.5 -68q81 0 131.5 46.5t50.5 131.5v21h-166v58h265
v-311h-46z" />
    <glyph glyph-name="H" unicode="H" horiz-adv-x="707" 
d="M19 0v58h60q16 0 16 25v499q0 14 -3.5 19t-12.5 5h-60v58h248v-58h-60q-9 0 -12.5 -4.5t-3.5 -19.5v-215h325v215q0 15 -3 19.5t-12 4.5h-61v58h248v-58h-60q-9 0 -12 -4.5t-3 -19.5v-499q0 -25 15 -25h60v-58h-248v58h61q15 0 15 25v225h-325v-225q0 -15 3.5 -20
t12.5 -5h60v-58h-248z" />
    <glyph glyph-name="I" unicode="I" horiz-adv-x="289" 
d="M21 0v58h60q15 0 15 25v499q0 15 -3 19.5t-12 4.5h-60v58h247v-58h-60q-9 0 -12 -4.5t-3 -19.5v-499q0 -25 15 -25h60v-58h-247z" />
    <glyph glyph-name="J" unicode="J" horiz-adv-x="413" 
d="M140 -12q-65 0 -121 29v67q44 -29 104 -29q54 0 78 27t24 88v412q0 24 -14 24h-67v58h252v-58h-59q-16 0 -16 -24v-411q0 -96 -43.5 -139.5t-137.5 -43.5z" />
    <glyph glyph-name="K" unicode="K" horiz-adv-x="676" 
d="M19 0v58h60q16 0 16 25v499q0 14 -3.5 19t-12.5 5h-60v58h249v-58h-60q-9 0 -12.5 -5t-3.5 -19v-300l271 298q5 5 6.5 11.5t-2.5 10.5t-11 4h-66v58h252v-58h-47q-21 1 -42 -21l-170 -183l198 -320q9 -14 16 -19t20 -5h45v-58h-267v58h65q9 0 11 6t-2 13l-158 256
l-119 -132v-118q0 -25 16 -25h60v-58h-249z" />
    <glyph glyph-name="L" unicode="L" horiz-adv-x="536" 
d="M19 0v58h60q16 0 16 25v499q0 14 -3.5 19t-12.5 5h-60v58h251v-58h-63q-9 0 -12.5 -4.5t-3.5 -19.5v-524h190q24 0 33.5 5t11.5 21l13 107h64v-191h-484z" />
    <glyph glyph-name="M" unicode="M" horiz-adv-x="849" 
d="M19 0v58h63q16 0 16 25v499q0 14 -3.5 19t-12.5 5h-63v58h216l187 -506l198 506h210v-58h-60q-9 0 -12.5 -5t-3.5 -19v-499q0 -25 16 -25h60v-58h-248v58h62q15 0 15 25v512l-228 -596h-59l-212 587v-503q0 -25 15 -25h63v-58h-219z" />
    <glyph glyph-name="N" unicode="N" horiz-adv-x="736" 
d="M21 664h182l376 -504v422q0 15 -3 19.5t-12 4.5h-63v58h220v-58h-63q-9 0 -12.5 -4.5t-3.5 -19.5v-584h-64l-416 556v-472q0 -14 3.5 -19t12.5 -5h63v-58h-220v58h63q9 0 12.5 5t3.5 19v500q0 14 -3.5 19t-12.5 5h-63v58z" />
    <glyph glyph-name="O" unicode="O" 
d="M353 -12q-149 0 -238 94t-89 249q0 154 92.5 249.5t238.5 95.5q147 0 236 -94.5t89 -250.5q0 -154 -91.5 -248.5t-237.5 -94.5zM354 54q107 0 168 67t61 193v34q0 126 -61 194t-166 68q-107 0 -168 -68t-61 -194v-34q0 -126 60.5 -193t166.5 -67z" />
    <glyph glyph-name="P" unicode="P" horiz-adv-x="565" 
d="M19 0v58h60q16 0 16 25v499q0 14 -3.5 19t-12.5 5h-60v58h272q249 0 249 -192q0 -101 -60.5 -148.5t-190.5 -47.5h-98v-193q0 -15 3.5 -20t12.5 -5h63v-58h-251zM191 606v-273h100q77 0 112 32.5t35 105.5q0 71 -34.5 103t-111.5 32h-101z" />
    <glyph glyph-name="Q" unicode="Q" 
d="M465 -164q-72 7 -108 37t-49 89l-7 30q-127 16 -201 107.5t-74 231.5q0 154 92.5 249.5t238.5 95.5q147 0 236 -94.5t89 -250.5q0 -138 -74 -229t-196 -109l5 -34q7 -38 26.5 -51.5t59.5 -13.5h77v-58h-115zM354 54q107 0 168 67t61 193v34q0 126 -61 194t-166 68
q-107 0 -168 -68t-61 -194v-34q0 -126 60.5 -193t166.5 -67z" />
    <glyph glyph-name="R" unicode="R" horiz-adv-x="619" 
d="M551 486q0 -138 -148 -166q63 -19 92 -64.5t35 -119.5q3 -47 15.5 -62.5t43.5 -15.5h22v-58h-74q-58 0 -84 37t-32 109q-4 79 -33.5 115t-104.5 36h-93v-214q0 -25 15 -25h60v-58h-246v58h60q16 0 16 25v499q0 24 -16 24h-60v58h303q117 0 173 -43.5t56 -134.5zM190 606
v-256h97q84 0 122 31t38 100q0 66 -35 95.5t-112 29.5h-110z" />
    <glyph glyph-name="S" unicode="S" horiz-adv-x="548" 
d="M268 -12q-129 0 -230 56v155h78v-120q65 -28 156 -28q66 0 105 29.5t39 82.5q0 55 -39.5 80t-133.5 46q-100 22 -151.5 64t-51.5 123q0 92 65.5 146t177.5 54q110 0 206 -47v-160h-77v122q-58 22 -129 22t-110.5 -30t-39.5 -84q0 -51 36.5 -75.5t123.5 -44.5
q106 -24 162 -64.5t56 -124.5q0 -91 -65 -146.5t-178 -55.5z" />
    <glyph glyph-name="T" unicode="T" horiz-adv-x="638" 
d="M190 0v58h63q16 0 16 25v525h-126q-24 0 -34 -5.5t-11 -21.5l-4 -78h-64v161h575v-161h-65l-3 78q-1 17 -11 22t-35 5h-129v-525q0 -25 16 -25h63v-58h-251z" />
    <glyph glyph-name="U" unicode="U" horiz-adv-x="690" 
d="M345 -12q-139 0 -198 56t-59 188v350q0 15 -3.5 19.5t-12.5 4.5h-55v58h243v-58h-60q-9 0 -12.5 -5t-3.5 -19v-347q0 -101 38.5 -140.5t138.5 -39.5q90 0 131 42.5t41 133.5v351q0 15 -3.5 19.5t-12.5 4.5h-64v58h221v-58h-59q-16 -1 -16 -24v-356q0 -238 -254 -238z" />
    <glyph glyph-name="V" unicode="V" horiz-adv-x="730" 
d="M217 606q-24 0 -15 -24l183 -462l176 462q8 24 -14 24h-69v58h243v-58h-63q-22 0 -31 -26l-230 -582h-65l-231 582q-9 26 -27 26h-58v58h261v-58h-60z" />
    <glyph glyph-name="W" unicode="W" horiz-adv-x="1023" 
d="M269 -2l-173 582q-9 26 -27 26h-53v58h249v-58h-58q-22 0 -14 -24l130 -435l149 440q5 19 -10 19h-69v58h266v-58h-71q-17 0 -11 -19l152 -440l127 435q6 24 -13 24h-67v58h231v-58h-56q-23 0 -29 -26l-175 -582h-66l-173 512l-173 -512h-66z" />
    <glyph glyph-name="X" unicode="X" horiz-adv-x="685" 
d="M12 0v58h57q23 0 42 27l183 248l-182 248q-21 25 -35 25h-51v58h264v-58h-55q-10 0 -13 -7.5t4 -16.5l132 -189l136 186q7 12 4.5 19.5t-13.5 7.5h-68v58h247v-58h-58q-21 0 -40 -27l-173 -234l194 -262q19 -25 36 -25h49v-58h-264v58h56q10 0 13.5 7t-3.5 17l-144 203
l-147 -200q-8 -11 -4.5 -19t15.5 -8h67v-58h-249z" />
    <glyph glyph-name="Y" unicode="Y" horiz-adv-x="661" 
d="M208 0v58h63q16 0 16 25v213l-187 289q-15 21 -28 21h-54v58h263v-58h-61q-10 0 -12.5 -7.5t3.5 -17.5l139 -219l140 223q4 7 1 14t-9 7h-69v58h236v-58h-57q-18 0 -32 -21l-180 -280v-222q0 -15 3.5 -20t12.5 -5h63v-58h-251z" />
    <glyph glyph-name="Z" unicode="Z" horiz-adv-x="593" 
d="M28 0v54l419 552h-285q-22 0 -31 -5t-11 -20l-13 -112h-58v195h511v-54l-419 -552h299q24 0 34 5.5t11 20.5l13 111h58v-195h-528z" />
    <glyph glyph-name="bracketleft" unicode="[" horiz-adv-x="306" 
d="M47 -172v836h242v-59h-123q-16 0 -21.5 -8t-5.5 -32v-638q0 -24 5.5 -32t21.5 -8h123v-59h-242z" />
    <glyph glyph-name="backslash" unicode="\" horiz-adv-x="360" 
d="M280 0l-270 664h70l270 -664h-70z" />
    <glyph glyph-name="bracketright" unicode="]" horiz-adv-x="306" 
d="M17 -172v59h123q16 0 21.5 8t5.5 32v638q0 24 -5.5 32t-21.5 8h-123v59h242v-836h-242z" />
    <glyph glyph-name="asciicircum" unicode="^" horiz-adv-x="499" 
d="M182 505h-51l85 135h68l85 -135h-52l-67 89z" />
    <glyph glyph-name="underscore" unicode="_" horiz-adv-x="284" 
d="M0 -73v58h284v-58h-284z" />
    <glyph glyph-name="grave" unicode="`" horiz-adv-x="499" 
d="M277 526l-140 108v30h87l99 -138h-46z" />
    <glyph glyph-name="a" unicode="a" horiz-adv-x="537" 
d="M243 438q-69 0 -101 -26q26 -16 26 -51q0 -26 -17 -42t-43 -16q-29 0 -46.5 18t-17.5 49q0 61 61 94t152 33q105 0 152.5 -39.5t47.5 -127.5v-249q0 -23 14 -23h55v-58h-142q-13 34 -20 95q-20 -48 -70.5 -77.5t-112.5 -29.5q-67 0 -108 36t-41 92q0 83 79.5 124
t250.5 62v27q0 57 -28.5 83t-90.5 26zM214 51q67 0 107.5 45t40.5 117v40q-125 -14 -181.5 -40.5t-56.5 -81.5q0 -36 25 -58t65 -22z" />
    <glyph glyph-name="b" unicode="b" horiz-adv-x="594" 
d="M346 -12q-69 0 -118.5 32.5t-73.5 90.5q-4 -18 -11.5 -45.5t-12 -44.5t-4.5 -21h-57q6 42 6 166v413q0 27 -14 27h-58v58h54q68 0 113 9v-291q51 115 180 115q100 0 159.5 -69t59.5 -185t-61 -185.5t-162 -69.5zM320 53q69 0 110 48t41 135v13q0 87 -41 135t-110 48
q-67 0 -108.5 -48.5t-41.5 -134.5v-13q0 -85 41.5 -134t108.5 -49z" />
    <glyph glyph-name="c" unicode="c" horiz-adv-x="509" 
d="M364 303q0 25 14.5 41.5t39.5 20.5q-25 73 -133 73q-77 0 -121 -49t-44 -137v-12q0 -90 41.5 -140t118.5 -50q123 0 156 113l57 -24q-21 -70 -74.5 -110.5t-141.5 -40.5q-119 0 -186.5 68.5t-67.5 187.5q0 115 70 184t188 69q98 0 157 -46t59 -122q0 -37 -20.5 -60.5
t-52.5 -23.5q-26 0 -43 16.5t-17 41.5z" />
    <glyph glyph-name="d" unicode="d" horiz-adv-x="602" 
d="M247 -12q-101 0 -162 69.5t-61 185.5q0 114 61.5 184t161.5 70q127 0 176 -109v191q0 27 -14 27h-58v58h56q66 0 111 9v-592q0 -23 15 -23h55v-58h-154q-4 32 -7 102q-48 -114 -180 -114zM274 53q67 0 108 48.5t41 134.5v13q0 85 -41 134t-108 49q-69 0 -110 -48
t-41 -135v-13q0 -87 41 -135t110 -48z" />
    <glyph glyph-name="e" unicode="e" horiz-adv-x="521" 
d="M498 226h-378q2 -80 44 -128.5t119 -48.5q117 0 153 113l58 -24q-19 -68 -74 -109t-144 -41q-119 0 -186 70.5t-67 184.5q0 112 68.5 183t177.5 71q107 0 168 -66t61 -181v-24zM269 438q-67 0 -105.5 -41t-43.5 -118h283q-3 159 -134 159z" />
    <glyph glyph-name="f" unicode="f" horiz-adv-x="293" 
d="M15 427v58h70v51q0 78 32 112t103 34q49 0 77 -17v-58q-21 12 -52 12q-39 0 -54 -20t-14 -75v-39h97v-58h-96v-346q0 -14 3.5 -18.5t11.5 -4.5h63v-58h-238v58h52q8 0 11.5 4.5t3.5 18.5v346h-70z" />
    <glyph glyph-name="g" unicode="g" horiz-adv-x="540" 
d="M251 -207q-128 0 -187.5 25.5t-59.5 78.5q0 76 124 103q-97 15 -97 91q0 32 22 56.5t62 36.5q-74 46 -74 138q0 77 61 126t155 49q95 0 155 -49q17 99 89 99q26 0 42.5 -15.5t16.5 -38.5t-13.5 -37.5t-34.5 -14.5q-35 0 -44 33q-20 -17 -31 -53q33 -42 33 -99
q0 -79 -59 -125t-158 -46q-59 0 -101 16q-48 -10 -48 -45q0 -22 16.5 -32t54.5 -10q14 0 101 0.5t99 0.5q154 0 154 -127q0 -78 -73 -119.5t-205 -41.5zM351 -11h-173q-45 -10 -71 -32t-26 -52q0 -35 41.5 -50.5t131.5 -15.5q201 0 201 89q0 33 -24 47t-80 14zM253 201
q58 0 89.5 30.5t31.5 85.5v9q0 57 -31 88t-87 31t-88 -31.5t-32 -87.5v-9q0 -55 31 -85.5t86 -30.5z" />
    <glyph glyph-name="h" unicode="h" horiz-adv-x="582" 
d="M177 673v-288q50 112 170 112q154 0 154 -171v-245q0 -14 3.5 -18.5t11.5 -4.5h56v-58h-232v58h51q8 0 11.5 4.5t3.5 18.5v241q0 56 -22.5 82t-71.5 26q-62 0 -98.5 -52t-36.5 -146v-151q0 -23 14 -23h54v-58h-234v58h56q8 0 11.5 4.5t3.5 18.5v498q0 27 -15 27h-58v58
h57q64 0 111 9z" />
    <glyph glyph-name="i" unicode="i" horiz-adv-x="272" 
d="M135 554q-28 0 -46 19t-18 46t18 45.5t46 18.5q27 0 45.5 -18.5t18.5 -45.5t-18.5 -46t-45.5 -19zM18 0v58h57q14 0 14 23v306q0 23 -4.5 31.5t-17.5 8.5h-49v58h54q65 0 112 9v-413q0 -23 14 -23h55v-58h-235z" />
    <glyph glyph-name="j" unicode="j" horiz-adv-x="245" 
d="M129 554q-28 0 -45.5 18.5t-17.5 46.5q0 27 17.5 45.5t45.5 18.5q27 0 45.5 -18.5t18.5 -45.5t-18.5 -46t-45.5 -19zM-18 -164v57q12 -5 31 -5q40 0 54.5 18t14.5 69l1 412q0 23 -4.5 31.5t-17.5 8.5h-48v58h54q65 0 112 9v-511q0 -88 -32 -123t-110 -35q-37 0 -55 11z
" />
    <glyph glyph-name="k" unicode="k" horiz-adv-x="554" 
d="M11 0v58h56q8 0 11.5 4.5t3.5 18.5v498q0 27 -15 27h-58v58h57q64 0 111 9v-451l187 186q6 4 4 11.5t-14 7.5h-55v58h231v-58h-44q-21 0 -39 -16l-112 -108l145 -227q11 -18 27 -18h40v-58h-226v58h46q19 0 8 19l-106 166l-92 -92v-70q0 -23 14 -23h54v-58h-234z" />
    <glyph glyph-name="l" unicode="l" horiz-adv-x="273" 
d="M18 0v58h57q14 0 14 23v498q0 27 -14 27h-59v58h56q65 0 112 9v-592q0 -23 14 -23h55v-58h-235z" />
    <glyph glyph-name="m" unicode="m" horiz-adv-x="869" 
d="M17 0v58h56q8 0 11.5 4.5t3.5 18.5v319q0 27 -15 27h-56v58h53q66 0 111 9v-97q46 100 149 100q119 0 143 -115q41 115 156 115q80 0 118.5 -45.5t38.5 -140.5v-230q0 -14 3.5 -18.5t11.5 -4.5h56v-58h-231v58h51q14 0 14 23v224q0 65 -22.5 94.5t-72.5 29.5
q-54 0 -82.5 -43t-28.5 -124v-181q0 -23 14 -23h57v-58h-231v58h50q15 0 15 23v236q0 112 -95 112q-55 0 -83.5 -43t-28.5 -124v-181q0 -14 3.5 -18.5t11.5 -4.5h53v-58h-234z" />
    <glyph glyph-name="n" unicode="n" horiz-adv-x="590" 
d="M182 494v-113q49 116 171 116q154 0 154 -173v-243q0 -14 3.5 -18.5t11.5 -4.5h56v-58h-232v58h52q14 0 14 23v240q0 57 -22.5 83t-71.5 26q-63 0 -99 -51t-36 -146v-152q0 -14 3.5 -18.5t11.5 -4.5h53v-58h-234v58h56q8 0 11.5 4.5t3.5 18.5v319q0 27 -15 27h-56v58h54
q64 0 111 9z" />
    <glyph glyph-name="o" unicode="o" horiz-adv-x="545" 
d="M271 -12q-111 0 -179.5 70.5t-68.5 184.5q0 113 70 183.5t182 70.5q110 0 178 -70.5t68 -183.5t-69 -184t-181 -71zM272 49q74 0 114 49t40 140v9q0 92 -39.5 140.5t-113.5 48.5t-114 -49t-40 -140v-9q0 -92 39.5 -140.5t113.5 -48.5z" />
    <glyph glyph-name="p" unicode="p" horiz-adv-x="601" 
d="M11 -172v58h56q8 0 11.5 4.5t3.5 18.5v491q0 27 -15 27h-58v58h55q66 0 111 9v-116q50 119 181 119q100 0 159.5 -69t59.5 -185q0 -115 -60.5 -185t-161.5 -70q-125 0 -176 112v-191q0 -23 14 -23h57v-58h-237zM326 55q70 0 110.5 47t40.5 134v13q0 87 -40.5 134.5
t-110.5 47.5q-67 0 -108 -48t-41 -134v-13q0 -85 41 -133t108 -48z" />
    <glyph glyph-name="q" unicode="q" horiz-adv-x="594" 
d="M352 -172v58h57q14 0 14 23v190q-25 -53 -70.5 -82t-105.5 -29q-101 0 -161.5 69.5t-60.5 185.5q0 115 61 184.5t161 69.5q62 0 108 -29.5t70 -83.5v101h31q41 0 62 9v-585q0 -23 15 -23h56v-58h-237zM274 55q68 0 108.5 47.5t40.5 133.5v13q0 85 -41 133.5t-108 48.5
q-70 0 -110.5 -47.5t-40.5 -134.5v-13q0 -87 40.5 -134t110.5 -47z" />
    <glyph glyph-name="r" unicode="r" horiz-adv-x="437" 
d="M183 494v-113q35 116 134 116q51 0 79.5 -29t28.5 -76q0 -38 -20 -61t-52 -23q-22 0 -37.5 15.5t-15.5 36.5q0 18 11.5 33t30.5 19q-11 22 -44 22q-56 0 -84.5 -51t-28.5 -139v-163q0 -23 14 -23h61v-58h-241v58h56q8 0 11.5 4.5t3.5 18.5v319q0 27 -15 27h-58v58h54
q65 0 112 9z" />
    <glyph glyph-name="s" unicode="s" horiz-adv-x="441" 
d="M30 31v126h74v-94q41 -19 108 -19q113 0 113 79q0 39 -30.5 55.5t-95.5 29.5q-37 7 -62.5 15t-52.5 23.5t-40.5 41t-13.5 60.5q0 68 52 108.5t144 40.5q96 0 172 -41v-125h-74v89q-35 21 -96 21q-52 0 -81 -20t-29 -56q0 -27 19 -43.5t36.5 -21.5t61.5 -13q6 -1 9 -2
q80 -15 124.5 -46t44.5 -98q0 -70 -53 -111.5t-147 -41.5q-97 0 -183 43z" />
    <glyph glyph-name="t" unicode="t" horiz-adv-x="309" 
d="M215 -11q-72 0 -103.5 32t-31.5 106v300h-73v52l48 3q21 3 31.5 12t12.5 30l9 88h67v-127h107v-58h-110v-299q0 -41 16 -58.5t52 -17.5q22 0 51 9v-60q-36 -12 -76 -12z" />
    <glyph glyph-name="u" unicode="u" horiz-adv-x="578" 
d="M510 0q-64 0 -111 -9v105q-49 -108 -167 -108q-155 0 -155 168v248q0 23 -14 23h-57v58h167v-326q0 -57 23.5 -81t70.5 -24q61 0 96 48t35 129v173q0 23 -14 23h-60v58h169v-400q0 -27 15 -27h58v-58h-56z" />
    <glyph glyph-name="v" unicode="v" horiz-adv-x="561" 
d="M171 402q17 -50 127 -302l125 301q5 11 -0.5 18.5t-15.5 7.5h-55v58h208v-58h-45q-20 0 -29 -23l-174 -410h-61l-176 410q-8 23 -23 23h-48v58h233v-58h-49q-26 0 -17 -25z" />
    <glyph glyph-name="w" unicode="w" horiz-adv-x="814" 
d="M210 -6l-140 410q-8 23 -23 23h-44v58h224v-58h-44q-25 0 -16 -25l95 -288q7 20 33.5 92t48 132.5t22.5 63.5q4 12 -1 18.5t-15 6.5h-34v58h216v-58h-36q-26 0 -16 -25q1 -3 23.5 -63t50.5 -134t35 -94q7 21 30 93t42.5 132.5t20.5 64.5q6 26 -16 26h-47v58h192v-58h-42
q-9 0 -13.5 -4.5t-9.5 -18.5l-139 -410h-66l-131 361l-134 -361h-66z" />
    <glyph glyph-name="x" unicode="x" horiz-adv-x="553" 
d="M12 0v58h43q11 0 29 21l139 166l-130 161q-16 21 -28 21h-40v58h233v-58h-47q-7 0 -10 -4.5t3 -15.5l89 -116l94 116q6 8 3.5 14t-10.5 6h-44v58h198v-58h-48q-2 0 -4 -0.5t-3.5 -1t-3 -1.5l-3 -2t-3.5 -3t-3 -3.5t-3.5 -4.5t-4.5 -5l-129 -153l142 -172q18 -23 28 -23
h39v-58h-231v58h45q8 0 11.5 5t-3.5 16l-101 129l-105 -129q-6 -7 -3 -14t10 -7h45v-58h-194z" />
    <glyph glyph-name="y" unicode="y" horiz-adv-x="558" 
d="M121 -123q41 0 69.5 30t60.5 107v4l-182 386q-7 15 -11 19t-12 4h-42v58h224v-58h-44q-11 0 -15.5 -7t0.5 -18l134 -283l121 282q10 26 -17 26h-47v58h195v-58h-44q-17 0 -26 -23l-171 -402q-43 -101 -83 -142.5t-110 -41.5q-50 0 -82 25t-32 67q0 33 17.5 52.5
t46.5 19.5q42 0 51.5 -34.5t-24.5 -67.5q9 -3 23 -3z" />
    <glyph glyph-name="z" unicode="z" horiz-adv-x="479" 
d="M22 0v50l323 382h-196q-24 0 -33 -4.5t-11 -20.5l-9 -87h-59v165h417v-50l-323 -382h206q24 0 33 5t11 20l9 88h59v-166h-427z" />
    <glyph glyph-name="braceleft" unicode="{" horiz-adv-x="352" 
d="M194 381q0 -112 -81 -135q43 -13 62 -46t19 -89v-94q0 -70 26 -98t87 -31l24 -2v-58l-49 1q-95 5 -139 49t-44 135v101q0 54 -18.5 78t-60.5 24h-14v60h14q42 0 60.5 24t18.5 78v89q0 93 44 141t139 54l49 2v-58l-24 -2q-61 -5 -87 -36.5t-26 -101.5v-85z" />
    <glyph glyph-name="bar" unicode="|" horiz-adv-x="183" 
d="M48 -172v836h87v-836h-87z" />
    <glyph glyph-name="braceright" unicode="}" horiz-adv-x="352" 
d="M158 381v85q0 70 -26.5 101t-87.5 36l-24 2v59l50 -2q94 -6 138.5 -54t44.5 -141v-89q0 -54 18 -78t60 -24h15v-60h-15q-42 0 -60 -24t-18 -78v-101q0 -91 -44 -135t-139 -49l-50 -1v59l24 1q62 3 88 31t26 98v94q0 56 18.5 89t60.5 46q-42 12 -60.5 45t-18.5 90z" />
    <glyph glyph-name="asciitilde" unicode="~" horiz-adv-x="475" 
d="M90 181l4 28q7 79 71 79q32 0 73.5 -28t56.5 -28q24 0 27 29l4 22h48l-3 -29q-9 -81 -71 -81q-32 0 -73.5 28.5t-56.5 28.5q-24 0 -28 -29l-3 -20h-49z" />
    <glyph glyph-name="exclamdown" unicode="&#xa1;" horiz-adv-x="211" 
d="M106 550q-27 0 -45 17.5t-18 45.5q0 27 18 45t45 18t45 -18t18 -45q0 -28 -18 -45.5t-45 -17.5zM54 0v183q0 41 5.5 91.5t14.5 114t12 87.5h33q3 -24 12 -87.5t14.5 -114t5.5 -91.5v-183h-97z" />
    <glyph glyph-name="cent" unicode="&#xa2;" horiz-adv-x="517" 
d="M257 -81v92q-109 7 -171.5 74.5t-62.5 179.5q0 108 64 175.5t170 74.5v92h43v-92q93 -4 146 -49t53 -118q0 -39 -21 -62.5t-55 -23.5q-26 0 -43.5 16.5t-17.5 41.5q0 27 16.5 45t44.5 20q-24 68 -123 72v-384q106 7 138 113l58 -24q-42 -141 -196 -151v-92h-43zM120 261
q0 -81 36 -129.5t101 -57.5v382q-64 -9 -100.5 -57t-36.5 -126v-12z" />
    <glyph glyph-name="sterling" unicode="&#xa3;" horiz-adv-x="562" 
d="M27 253v52h94q-58 91 -58 161q0 98 66.5 154t183.5 56q103 0 162.5 -50.5t59.5 -139.5q0 -41 -18.5 -65t-48.5 -25q-27 -1 -45 14.5t-18 40.5q0 24 17 42.5t47 19.5q-12 44 -49.5 72.5t-100.5 28.5q-73 0 -115 -40t-42 -110q0 -55 47 -159h180v-52h-158q22 -61 22 -104
q0 -3 -0.5 -9t-0.5 -8q8 -4 33 -17t36 -18t30 -13t35 -11t31 -3q38 0 53 14.5t15 52.5v31h60v-56q0 -63 -27.5 -93.5t-86.5 -30.5q-36 0 -75 14.5t-60.5 28t-60.5 40.5q-19 -38 -53.5 -60.5t-76.5 -22.5q-45 0 -71 24.5t-26 63.5q0 40 30 67t77 27q35 0 79 -14q-6 42 -40 97
h-127zM108 26q29 0 52 20.5t31 52.5q-43 25 -78 25q-30 0 -47 -14.5t-17 -35.5q0 -48 59 -48z" />
    <glyph glyph-name="currency" unicode="&#xa4;" horiz-adv-x="652" 
d="M21 354v46h63q16 129 89.5 202.5t185.5 73.5q123 0 183 -103l14 91h58v-192h-78q-44 134 -165 134q-79 0 -126.5 -52.5t-57.5 -153.5h267v-46h-269v-12v-24q0 -29 1 -42h228v-46h-223q29 -172 186 -172q66 0 112.5 39t61.5 111l70 -26q-18 -91 -82.5 -142.5t-169.5 -51.5
q-114 0 -187 62.5t-94 179.5h-67v46h61q-2 34 -2 53v25h-59z" />
    <glyph glyph-name="yen" unicode="&#xa5;" horiz-adv-x="637" 
d="M70 310v46h185l-148 229q-14 21 -28 21h-53v58h250v-58h-56q-23 0 -11 -21l122 -198l124 198q11 21 -14 21h-56v58h225v-58h-49q-19 0 -32 -21l-151 -229h185v-46h-197v-91h197v-46h-197v-90q0 -15 3.5 -20t12.5 -5h64v-58h-259v58h65q16 0 16 25v90h-198v46h198v91h-198
z" />
    <glyph glyph-name="section" unicode="&#xa7;" horiz-adv-x="590" 
d="M307 620q-47 0 -75.5 -25.5t-28.5 -62.5q0 -45 37.5 -67.5t121.5 -44.5q44 -12 73.5 -24t62.5 -32.5t50 -50.5t17 -70q0 -59 -40.5 -99t-117.5 -50q62 -39 62 -112q0 -64 -51.5 -108.5t-131.5 -44.5q-83 1 -132.5 36.5t-49.5 97.5q0 32 17.5 50.5t46.5 18.5q20 0 34 -15
t14 -34q0 -16 -10.5 -29.5t-27.5 -18.5q16 -54 107 -54q48 0 76 25t28 63q0 24 -10.5 41t-35.5 30.5t-47.5 21t-65.5 19.5q-44 12 -73.5 24t-62.5 32t-50 50.5t-17 69.5q0 60 40 100t117 49q-62 39 -62 112q0 65 52.5 109.5t133.5 44.5t127.5 -36t46.5 -99q0 -32 -17.5 -50
t-46.5 -18q-20 0 -33.5 14.5t-13.5 33.5q0 17 11.5 32t30.5 19q-17 52 -106 52zM485 221q0 26 -12 45.5t-38.5 34.5t-51.5 24t-67 21q-38 10 -66 21q-67 4 -105 -20.5t-38 -67.5q0 -26 12 -45.5t38.5 -34t50.5 -23.5t67 -22q27 -7 63 -20q68 -6 107.5 18.5t39.5 68.5z" />
    <glyph glyph-name="dieresis" unicode="&#xa8;" horiz-adv-x="500" 
d="M334 542q-22 0 -36 14t-14 37t13.5 37t36.5 14t37 -14t14 -37t-14.5 -37t-36.5 -14zM165 542q-22 0 -36 14t-14 37t13.5 37t36.5 14t37 -14t14 -37t-14 -37t-37 -14z" />
    <glyph glyph-name="copyright" unicode="&#xa9;" horiz-adv-x="736" 
d="M368 -12q-154 0 -249 94.5t-95 248.5t95 249.5t249 95.5q153 0 248.5 -95.5t95.5 -249.5t-95 -248.5t-249 -94.5zM368 29q134 0 217.5 83.5t83.5 218.5t-84 219.5t-217 84.5q-134 0 -217.5 -84t-83.5 -220q0 -135 83.5 -218.5t217.5 -83.5zM369 138q-81 0 -130.5 51.5
t-49.5 141.5q0 85 49 138.5t126 53.5q76 0 107 -63q0 -1 3.5 13.5t6.5 28.5l3 15h38v-137h-51q-21 95 -98 95q-55 0 -86 -36.5t-31 -104.5v-6q0 -69 33 -105.5t87 -36.5q87 0 106 84l47 -17q-28 -115 -160 -115z" />
    <glyph glyph-name="ordfeminine" unicode="&#xaa;" horiz-adv-x="392" 
d="M177 632q-44 0 -64 -22q12 -9 12 -27q0 -17 -10.5 -27.5t-26.5 -10.5q-20 0 -32.5 11.5t-12.5 30.5q0 42 39.5 65.5t109.5 23.5q74 0 106 -30t32 -95v-161q0 -16 11 -16h34v-46h-104q-7 17 -15 60q-15 -30 -45.5 -49.5t-72.5 -19.5q-48 0 -77 25t-29 66q0 31 14 52.5
t45.5 36.5t68 24t95.5 19v19q0 71 -78 71zM165 367q43 0 66.5 29t23.5 80v29q-86 -14 -119 -31.5t-33 -54.5q0 -23 17 -37.5t45 -14.5z" />
    <glyph glyph-name="guillemotleft" unicode="&#xab;" horiz-adv-x="373" 
d="M344 104l-165 122v38l165 122v-77l-90 -64l90 -65v-76zM174 117l-152 109v38l152 109v-72l-80 -56l80 -57v-71z" />
    <glyph glyph-name="registered" unicode="&#xae;" horiz-adv-x="736" 
d="M368 -12q-154 0 -249 94.5t-95 248.5t95 249.5t249 95.5q153 0 248.5 -95.5t95.5 -249.5t-95 -248.5t-249 -94.5zM368 29q134 0 217.5 83.5t83.5 218.5t-84 219.5t-217 84.5q-134 0 -217.5 -84t-83.5 -220q0 -135 83.5 -218.5t217.5 -83.5zM516 418q0 -73 -82 -91
q38 -11 55 -35t19 -66q2 -24 7 -32t20 -8h8v-38h-38q-33 0 -47.5 21t-16.5 63q-3 40 -23 59.5t-68 19.5h-39v-115q0 -10 5 -10h37v-38h-147v38h36q5 0 5 10v275q0 10 -5 10h-36v38h178q132 0 132 -101zM311 481v-135h53q48 0 68.5 17t20.5 52q0 33 -18 49.5t-60 16.5h-64z
" />
    <glyph glyph-name="macron" unicode="&#xaf;" horiz-adv-x="500" 
d="M104 558v58h289v-58h-289z" />
    <glyph glyph-name="degree" unicode="&#xb0;" horiz-adv-x="374" 
d="M185 358q-71 0 -113.5 44t-42.5 115q0 70 44 114.5t116 44.5q70 0 112.5 -44t42.5 -115q0 -70 -43.5 -114.5t-115.5 -44.5zM185 407q42 0 65 28t23 80v4q0 52 -22.5 79.5t-62.5 27.5q-41 0 -64.5 -27.5t-23.5 -79.5v-4q0 -52 22.5 -80t62.5 -28z" />
    <glyph glyph-name="acute" unicode="&#xb4;" horiz-adv-x="500" 
d="M176 526l99 138h87l1 -30l-141 -108h-46z" />
    <glyph glyph-name="paragraph" unicode="&#xb6;" horiz-adv-x="616" 
d="M333 0v290h-36q-137 0 -204 44.5t-67 137.5q0 192 273 192h297v-58h-53q-9 0 -12.5 -4.5t-3.5 -19.5v-582h-57v606h-80v-606h-57zM129 474q0 -70 37.5 -98.5t131.5 -28.5h35v259h-35q-93 0 -131 -30t-38 -102z" />
    <glyph glyph-name="periodcentered" unicode="&#xb7;" horiz-adv-x="197" 
d="M98 179q-28 0 -45.5 18t-17.5 46t17.5 45.5t45.5 17.5t46 -17.5t18 -45.5t-18 -46t-46 -18z" />
    <glyph glyph-name="cedilla" unicode="&#xb8;" horiz-adv-x="500" 
d="M262 -186q-54 0 -110 27l6 37q56 -22 98 -22q57 0 57 30q0 28 -44 28q-24 0 -39 -9l-4 5v94h52v-52q4 1 15 1q41 0 64 -17.5t23 -48.5q0 -34 -31 -53.5t-87 -19.5z" />
    <glyph glyph-name="ordmasculine" unicode="&#xba;" horiz-adv-x="409" 
d="M203 319q-79 0 -128.5 49t-49.5 130q0 80 50 129t130 49t130 -49t50 -129q0 -81 -50.5 -130t-131.5 -49zM204 368q50 0 77 32t27 94v7q0 62 -27 94.5t-77 32.5q-49 0 -76.5 -32.5t-27.5 -94.5v-7q0 -61 27.5 -93.5t76.5 -32.5z" />
    <glyph glyph-name="guillemotright" unicode="&#xbb;" horiz-adv-x="373" 
d="M199 117v71l80 57l-80 56v72l152 -109v-38zM29 104v76l89 65l-89 64v77l164 -122v-38z" />
    <glyph glyph-name="questiondown" unicode="&#xbf;" horiz-adv-x="487" 
d="M333 202q0 -26 18.5 -44t50.5 -19q-33 -87 -144 -87q-66 0 -103 32t-37 89q0 34 17 61t42 47t50 42t44 58.5t21 84.5l1 9h-41q-10 -43 -38.5 -75t-60.5 -51t-63 -40t-51.5 -56t-20.5 -84q0 -81 61 -131t164 -50t164 51.5t61 135.5q0 40 -20.5 62.5t-52.5 23.5
q-26 0 -44 -17t-18 -42zM266 550q-28 0 -46 17.5t-18 45.5q0 27 18 45t46 18q27 0 44.5 -18t17.5 -45t-18 -45t-44 -18z" />
    <glyph glyph-name="Agrave" unicode="&#xc0;" horiz-adv-x="728" 
d="M532 82l-57 148h-253l-55 -148q-8 -24 14 -24h62v-58h-232v58h60q12 0 18 5t12 21l226 584h83l225 -584q10 -26 28 -26h54v-58h-259v58h60q23 0 14 24zM349 570l-107 -283h214zM340 705l-140 108v30h87l99 -138h-46z" />
    <glyph glyph-name="Aacute" unicode="&#xc1;" horiz-adv-x="728" 
d="M532 82l-57 148h-253l-55 -148q-8 -24 14 -24h62v-58h-232v58h60q12 0 18 5t12 21l226 584h83l225 -584q10 -26 28 -26h54v-58h-259v58h60q23 0 14 24zM349 570l-107 -283h214zM346 705l99 138h87l1 -30l-141 -108h-46z" />
    <glyph glyph-name="Acircumflex" unicode="&#xc2;" horiz-adv-x="728" 
d="M532 82l-57 148h-253l-55 -148q-8 -24 14 -24h62v-58h-232v58h60q12 0 18 5t12 21l226 584h83l225 -584q10 -26 28 -26h54v-58h-259v58h60q23 0 14 24zM349 570l-107 -283h214zM298 697h-51l85 135h68l85 -135h-52l-67 89z" />
    <glyph glyph-name="Atilde" unicode="&#xc3;" horiz-adv-x="728" 
d="M532 82l-57 148h-253l-55 -148q-8 -24 14 -24h62v-58h-232v58h60q12 0 18 5t12 21l226 584h83l225 -584q10 -26 28 -26h54v-58h-259v58h60q23 0 14 24zM349 570l-107 -283h214zM224 711l4 28q7 79 71 79q32 0 73.5 -28t56.5 -28q24 0 27 29l4 22h48l-3 -29
q-9 -81 -71 -81q-32 0 -73.5 28.5t-56.5 28.5q-24 0 -28 -29l-3 -20h-49z" />
    <glyph glyph-name="Adieresis" unicode="&#xc4;" horiz-adv-x="728" 
d="M532 82l-57 148h-253l-55 -148q-8 -24 14 -24h62v-58h-232v58h60q12 0 18 5t12 21l226 584h83l225 -584q10 -26 28 -26h54v-58h-259v58h60q23 0 14 24zM349 570l-107 -283h214zM450 714q-22 0 -36 14t-14 37t13.5 37t36.5 14t37 -14t14 -37t-14.5 -37t-36.5 -14zM281 714
q-22 0 -36 14t-14 37t13.5 37t36.5 14t37 -14t14 -37t-14 -37t-37 -14z" />
    <glyph glyph-name="Aring" unicode="&#xc5;" horiz-adv-x="728" 
d="M464 721q0 -52 -46 -76l217 -561q10 -26 28 -26h54v-58h-259v58h60q23 0 14 24l-57 148h-253l-55 -148q-8 -24 14 -24h62v-58h-232v58h60q12 0 18 5t12 21l216 559q-48 22 -48 78q0 39 26.5 64t70.5 25t71 -25t27 -64zM349 570l-107 -283h214zM366 673q21 0 35 14t14 34
t-14 34.5t-35 14.5t-34.5 -14t-13.5 -35q0 -20 13.5 -34t34.5 -14z" />
    <glyph glyph-name="AE" unicode="&#xc6;" horiz-adv-x="937" 
d="M700 237v44q0 27 -25 27h-109v-250h229q22 0 29.5 4.5t14.5 21.5l8 68h52v-152h-505v58h60q9 0 12.5 4.5t3.5 19.5v153h-202l-86 -153q-13 -24 9 -24h51v-58h-224v58h48q25 0 39 26l282 494q6 13 2 20.5t-13 7.5h-69v58h577v-152h-52l-9 68q-6 16 -14 21t-30 5h-213v-241
h109q14 0 19.5 5.5t5.5 19.5v44h57v-197h-57zM297 290h173v308z" />
    <glyph glyph-name="Ccedilla" unicode="&#xc7;" horiz-adv-x="658" 
d="M352 -186q-54 0 -110 27l6 37q56 -22 98 -22q57 0 57 30q0 28 -44 28q-24 0 -39 -9l-4 5v79q-132 9 -210 99.5t-78 242.5q0 157 85.5 251t221.5 94q76 0 129 -34t76 -95l18 117h59v-243h-79q-36 189 -193 189q-101 0 -158.5 -69.5t-57.5 -196.5v-24q0 -127 58 -196.5
t159 -69.5q87 0 143 45.5t67 137.5l68 -9q-10 -102 -76.5 -167t-179.5 -72v-37q4 1 15 1q41 0 64 -17.5t23 -48.5q0 -34 -31 -53.5t-87 -19.5z" />
    <glyph glyph-name="Egrave" unicode="&#xc8;" horiz-adv-x="582" 
d="M19 0v58h60q9 0 12.5 5t3.5 19v500q0 14 -3.5 19t-12.5 5h-60v58h505v-152h-64l-8 68q-3 15 -12.5 20.5t-32.5 5.5h-216v-241h138q14 0 19.5 5.5t5.5 19.5v45h57v-198h-57v44q0 27 -25 27h-138v-250h236q24 0 33 4.5t12 21.5l8 68h64v-152h-525zM295 705l-140 108v30h87
l99 -138h-46z" />
    <glyph glyph-name="Eacute" unicode="&#xc9;" horiz-adv-x="582" 
d="M240 705l99 138h87l1 -30l-141 -108h-46zM19 0v58h60q9 0 12.5 5t3.5 19v500q0 14 -3.5 19t-12.5 5h-60v58h505v-152h-64l-8 68q-3 15 -12.5 20.5t-32.5 5.5h-216v-241h138q14 0 19.5 5.5t5.5 19.5v45h57v-198h-57v44q0 27 -25 27h-138v-250h236q24 0 33 4.5t12 21.5
l8 68h64v-152h-525z" />
    <glyph glyph-name="Ecircumflex" unicode="&#xca;" horiz-adv-x="582" 
d="M227 704h-51l85 135h68l85 -135h-52l-67 89zM19 0v58h60q9 0 12.5 5t3.5 19v500q0 14 -3.5 19t-12.5 5h-60v58h505v-152h-64l-8 68q-3 15 -12.5 20.5t-32.5 5.5h-216v-241h138q14 0 19.5 5.5t5.5 19.5v45h57v-198h-57v44q0 27 -25 27h-138v-250h236q24 0 33 4.5t12 21.5
l8 68h64v-152h-525z" />
    <glyph glyph-name="Edieresis" unicode="&#xcb;" horiz-adv-x="582" 
d="M375 721q-22 0 -36 14t-14 37t13.5 37t36.5 14t37 -14t14 -37q0 -22 -14 -36.5t-37 -14.5zM206 721q-22 0 -36 14t-14 37t13.5 37t36.5 14t37 -14t14 -37q0 -22 -14.5 -36.5t-36.5 -14.5zM19 0v58h60q9 0 12.5 5t3.5 19v500q0 14 -3.5 19t-12.5 5h-60v58h505v-152h-64
l-8 68q-3 15 -12.5 20.5t-32.5 5.5h-216v-241h138q14 0 19.5 5.5t5.5 19.5v45h57v-198h-57v44q0 27 -25 27h-138v-250h236q24 0 33 4.5t12 21.5l8 68h64v-152h-525z" />
    <glyph glyph-name="Igrave" unicode="&#xcc;" horiz-adv-x="289" 
d="M21 0v58h60q15 0 15 25v499q0 15 -3 19.5t-12 4.5h-60v58h247v-58h-60q-9 0 -12 -4.5t-3 -19.5v-499q0 -25 15 -25h60v-58h-247zM146 705l-140 108v30h87l99 -138h-46z" />
    <glyph glyph-name="Iacute" unicode="&#xcd;" horiz-adv-x="289" 
d="M21 0v58h60q15 0 15 25v499q0 15 -3 19.5t-12 4.5h-60v58h247v-58h-60q-9 0 -12 -4.5t-3 -19.5v-499q0 -25 15 -25h60v-58h-247zM103 705l99 138h87l1 -30l-141 -108h-46z" />
    <glyph glyph-name="Icircumflex" unicode="&#xce;" horiz-adv-x="289" 
d="M21 0v58h60q15 0 15 25v499q0 15 -3 19.5t-12 4.5h-60v58h247v-58h-60q-9 0 -12 -4.5t-3 -19.5v-499q0 -25 15 -25h60v-58h-247zM80 704h-51l85 135h68l85 -135h-52l-67 89z" />
    <glyph glyph-name="Idieresis" unicode="&#xcf;" horiz-adv-x="289" 
d="M21 0v58h60q15 0 15 25v499q0 15 -3 19.5t-12 4.5h-60v58h247v-58h-60q-9 0 -12 -4.5t-3 -19.5v-499q0 -25 15 -25h60v-58h-247zM233 721q-22 0 -36 14t-14 37t13.5 37t36.5 14t37 -14t14 -37q0 -22 -14 -36.5t-37 -14.5zM64 721q-22 0 -36 14t-14 37t13.5 37t36.5 14
t37 -14t14 -37q0 -22 -14.5 -36.5t-36.5 -14.5z" />
    <glyph glyph-name="Eth" unicode="&#xd0;" horiz-adv-x="659" 
d="M19 306v62h76v214q0 14 -3.5 19t-12.5 5h-60v58h266q173 0 260 -85.5t87 -248.5q0 -159 -90 -244.5t-265 -85.5h-258v58h60q16 0 16 25v223h-76zM191 58h93q129 0 185.5 63t56.5 193v34q0 133 -54.5 195.5t-180.5 62.5h-100v-238h158v-62h-158v-248z" />
    <glyph glyph-name="Ntilde" unicode="&#xd1;" horiz-adv-x="736" 
d="M21 664h182l376 -504v422q0 15 -3 19.5t-12 4.5h-63v58h220v-58h-63q-9 0 -12.5 -4.5t-3.5 -19.5v-584h-64l-416 556v-472q0 -14 3.5 -19t12.5 -5h63v-58h-220v58h63q9 0 12.5 5t3.5 19v500q0 14 -3.5 19t-12.5 5h-63v58zM233 704l4 28q7 79 71 79q32 0 73.5 -28
t56.5 -28q24 0 27 29l4 22h48l-3 -29q-9 -81 -71 -81q-32 0 -73.5 28.5t-56.5 28.5q-24 0 -28 -29l-3 -20h-49z" />
    <glyph glyph-name="Ograve" unicode="&#xd2;" 
d="M353 -12q-149 0 -238 94t-89 249q0 154 92.5 249.5t238.5 95.5q147 0 236 -94.5t89 -250.5q0 -154 -91.5 -248.5t-237.5 -94.5zM354 54q107 0 168 67t61 193v34q0 126 -61 194t-166 68q-107 0 -168 -68t-61 -194v-34q0 -126 60.5 -193t166.5 -67zM357 705l-140 108v30h87
l99 -138h-46z" />
    <glyph glyph-name="Oacute" unicode="&#xd3;" 
d="M309 705l99 138h87l1 -30l-141 -108h-46zM353 -12q-149 0 -238 94t-89 249q0 154 92.5 249.5t238.5 95.5q147 0 236 -94.5t89 -250.5q0 -154 -91.5 -248.5t-237.5 -94.5zM354 54q107 0 168 67t61 193v34q0 126 -61 194t-166 68q-107 0 -168 -68t-61 -194v-34
q0 -126 60.5 -193t166.5 -67z" />
    <glyph glyph-name="Ocircumflex" unicode="&#xd4;" 
d="M288 704h-51l85 135h68l85 -135h-52l-67 89zM353 -12q-149 0 -238 94t-89 249q0 154 92.5 249.5t238.5 95.5q147 0 236 -94.5t89 -250.5q0 -154 -91.5 -248.5t-237.5 -94.5zM354 54q107 0 168 67t61 193v34q0 126 -61 194t-166 68q-107 0 -168 -68t-61 -194v-34
q0 -126 60.5 -193t166.5 -67z" />
    <glyph glyph-name="Otilde" unicode="&#xd5;" 
d="M353 -12q-149 0 -238 94t-89 249q0 154 92.5 249.5t238.5 95.5q147 0 236 -94.5t89 -250.5q0 -154 -91.5 -248.5t-237.5 -94.5zM354 54q107 0 168 67t61 193v34q0 126 -61 194t-166 68q-107 0 -168 -68t-61 -194v-34q0 -126 60.5 -193t166.5 -67zM208 711l4 28
q7 79 71 79q32 0 73.5 -28t56.5 -28q24 0 27 29l4 22h48l-3 -29q-9 -81 -71 -81q-32 0 -73.5 28.5t-56.5 28.5q-24 0 -28 -29l-3 -20h-49z" />
    <glyph glyph-name="Odieresis" unicode="&#xd6;" 
d="M441 717q-22 0 -36 14t-14 37t13.5 37t36.5 14t37 -14t14 -37q0 -22 -14 -36.5t-37 -14.5zM272 717q-22 0 -36 14t-14 37t13.5 37t36.5 14t37 -14t14 -37q0 -22 -14.5 -36.5t-36.5 -14.5zM353 -12q-149 0 -238 94t-89 249q0 154 92.5 249.5t238.5 95.5q147 0 236 -94.5
t89 -250.5q0 -154 -91.5 -248.5t-237.5 -94.5zM354 54q107 0 168 67t61 193v34q0 126 -61 194t-166 68q-107 0 -168 -68t-61 -194v-34q0 -126 60.5 -193t166.5 -67z" />
    <glyph glyph-name="multiply" unicode="&#xd7;" horiz-adv-x="469" 
d="M234 199l-145 -150l-50 51l151 145l-151 146l49 51l146 -151l146 150l50 -51l-151 -145l151 -146l-49 -51z" />
    <glyph glyph-name="Oslash" unicode="&#xd8;" 
d="M21 0l86 94q-78 92 -78 237q0 155 92 250t239 95q124 0 211 -73l56 61h65l-87 -95q79 -95 79 -238q0 -155 -91 -249t-238 -94q-129 0 -214 73l-56 -61h-64zM356 54q106 0 167 70t61 197v20q0 98 -37 164l-353 -386q59 -65 162 -65zM130 321q0 -96 36 -162l352 386
q-60 65 -159 65q-105 0 -167 -71t-62 -198v-20z" />
    <glyph glyph-name="Ugrave" unicode="&#xd9;" horiz-adv-x="690" 
d="M345 -12q-139 0 -198 56t-59 188v350q0 15 -3.5 19.5t-12.5 4.5h-55v58h243v-58h-60q-9 0 -12.5 -5t-3.5 -19v-347q0 -101 38.5 -140.5t138.5 -39.5q90 0 131 42.5t41 133.5v351q0 15 -3.5 19.5t-12.5 4.5h-64v58h221v-58h-59q-16 -1 -16 -24v-356q0 -238 -254 -238z
M346 705l-140 108v30h87l99 -138h-46z" />
    <glyph glyph-name="Uacute" unicode="&#xda;" horiz-adv-x="690" 
d="M345 -12q-139 0 -198 56t-59 188v350q0 15 -3.5 19.5t-12.5 4.5h-55v58h243v-58h-60q-9 0 -12.5 -5t-3.5 -19v-347q0 -101 38.5 -140.5t138.5 -39.5q90 0 131 42.5t41 133.5v351q0 15 -3.5 19.5t-12.5 4.5h-64v58h221v-58h-59q-16 -1 -16 -24v-356q0 -238 -254 -238z
M306 705l99 138h87l1 -30l-141 -108h-46z" />
    <glyph glyph-name="Ucircumflex" unicode="&#xdb;" horiz-adv-x="690" 
d="M345 -12q-139 0 -198 56t-59 188v350q0 15 -3.5 19.5t-12.5 4.5h-55v58h243v-58h-60q-9 0 -12.5 -5t-3.5 -19v-347q0 -101 38.5 -140.5t138.5 -39.5q90 0 131 42.5t41 133.5v351q0 15 -3.5 19.5t-12.5 4.5h-64v58h221v-58h-59q-16 -1 -16 -24v-356q0 -238 -254 -238z
M291 704h-51l85 135h68l85 -135h-52l-67 89z" />
    <glyph glyph-name="Udieresis" unicode="&#xdc;" horiz-adv-x="690" 
d="M345 -12q-139 0 -198 56t-59 188v350q0 15 -3.5 19.5t-12.5 4.5h-55v58h243v-58h-60q-9 0 -12.5 -5t-3.5 -19v-347q0 -101 38.5 -140.5t138.5 -39.5q90 0 131 42.5t41 133.5v351q0 15 -3.5 19.5t-12.5 4.5h-64v58h221v-58h-59q-16 -1 -16 -24v-356q0 -238 -254 -238z
M443 714q-22 0 -36 14t-14 37t13.5 37t36.5 14t37 -14t14 -37t-14 -37t-37 -14zM274 714q-22 0 -36 14t-14 37t13.5 37t36.5 14t37 -14t14 -37t-14.5 -37t-36.5 -14z" />
    <glyph glyph-name="Yacute" unicode="&#xdd;" horiz-adv-x="661" 
d="M208 0v58h63q16 0 16 25v213l-187 289q-15 21 -28 21h-54v58h263v-58h-61q-10 0 -12.5 -7.5t3.5 -17.5l139 -219l140 223q4 7 1 14t-9 7h-69v58h236v-58h-57q-18 0 -32 -21l-180 -280v-222q0 -15 3.5 -20t12.5 -5h63v-58h-251zM288 705l99 138h87l1 -30l-141 -108h-46z
" />
    <glyph glyph-name="Thorn" unicode="&#xde;" horiz-adv-x="564" 
d="M191 582v-61h81q139 0 202 -43.5t63 -139.5q0 -98 -62 -141.5t-204 -43.5h-80v-70q0 -15 3.5 -20t12.5 -5h63v-58h-251v58h60q16 0 16 25v499q0 14 -3.5 19t-12.5 5h-60v58h248v-58h-60q-9 0 -12.5 -4.5t-3.5 -19.5zM191 467v-261h59q103 0 146 30.5t43 101.5
q0 70 -43 99.5t-146 29.5h-59z" />
    <glyph glyph-name="germandbls" unicode="&#xdf;" horiz-adv-x="541" 
d="M15 427v58h70q0 198 199 198q89 0 137.5 -40.5t48.5 -114.5q0 -96 -95 -129q144 -38 144 -194q0 -103 -51.5 -159t-142.5 -56q-57 0 -90 13v62q26 -12 66 -12q120 0 120 153q0 159 -150 159h-22v55h19q59 0 88 27t29 75t-26.5 74.5t-75.5 26.5q-105 0 -105 -124v-499
h-160v58h52q15 0 15 23v346h-70z" />
    <glyph glyph-name="agrave" unicode="&#xe0;" horiz-adv-x="537" 
d="M243 438q-69 0 -101 -26q26 -16 26 -51q0 -26 -17 -42t-43 -16q-29 0 -46.5 18t-17.5 49q0 61 61 94t152 33q105 0 152.5 -39.5t47.5 -127.5v-249q0 -23 14 -23h55v-58h-142q-13 34 -20 95q-20 -48 -70.5 -77.5t-112.5 -29.5q-67 0 -108 36t-41 92q0 83 79.5 124
t250.5 62v27q0 57 -28.5 83t-90.5 26zM214 51q67 0 107.5 45t40.5 117v40q-125 -14 -181.5 -40.5t-56.5 -81.5q0 -36 25 -58t65 -22zM254 526l-140 108v30h87l99 -138h-46z" />
    <glyph glyph-name="aacute" unicode="&#xe1;" horiz-adv-x="537" 
d="M243 438q-69 0 -101 -26q26 -16 26 -51q0 -26 -17 -42t-43 -16q-29 0 -46.5 18t-17.5 49q0 61 61 94t152 33q105 0 152.5 -39.5t47.5 -127.5v-249q0 -23 14 -23h55v-58h-142q-13 34 -20 95q-20 -48 -70.5 -77.5t-112.5 -29.5q-67 0 -108 36t-41 92q0 83 79.5 124
t250.5 62v27q0 57 -28.5 83t-90.5 26zM214 51q67 0 107.5 45t40.5 117v40q-125 -14 -181.5 -40.5t-56.5 -81.5q0 -36 25 -58t65 -22zM204 526l99 138h87l1 -30l-141 -108h-46z" />
    <glyph glyph-name="acircumflex" unicode="&#xe2;" horiz-adv-x="537" 
d="M243 438q-69 0 -101 -26q26 -16 26 -51q0 -26 -17 -42t-43 -16q-29 0 -46.5 18t-17.5 49q0 61 61 94t152 33q105 0 152.5 -39.5t47.5 -127.5v-249q0 -23 14 -23h55v-58h-142q-13 34 -20 95q-20 -48 -70.5 -77.5t-112.5 -29.5q-67 0 -108 36t-41 92q0 83 79.5 124
t250.5 62v27q0 57 -28.5 83t-90.5 26zM214 51q67 0 107.5 45t40.5 117v40q-125 -14 -181.5 -40.5t-56.5 -81.5q0 -36 25 -58t65 -22zM185 525h-51l85 135h68l85 -135h-52l-67 89z" />
    <glyph glyph-name="atilde" unicode="&#xe3;" horiz-adv-x="537" 
d="M243 438q-69 0 -101 -26q26 -16 26 -51q0 -26 -17 -42t-43 -16q-29 0 -46.5 18t-17.5 49q0 61 61 94t152 33q105 0 152.5 -39.5t47.5 -127.5v-249q0 -23 14 -23h55v-58h-142q-13 34 -20 95q-20 -48 -70.5 -77.5t-112.5 -29.5q-67 0 -108 36t-41 92q0 83 79.5 124
t250.5 62v27q0 57 -28.5 83t-90.5 26zM214 51q67 0 107.5 45t40.5 117v40q-125 -14 -181.5 -40.5t-56.5 -81.5q0 -36 25 -58t65 -22zM99 539l4 28q7 79 71 79q32 0 73.5 -28t56.5 -28q24 0 27 29l4 22h48l-3 -29q-9 -81 -71 -81q-32 0 -73.5 28.5t-56.5 28.5q-24 0 -28 -29
l-3 -20h-49z" />
    <glyph glyph-name="adieresis" unicode="&#xe4;" horiz-adv-x="537" 
d="M243 438q-69 0 -101 -26q26 -16 26 -51q0 -26 -17 -42t-43 -16q-29 0 -46.5 18t-17.5 49q0 61 61 94t152 33q105 0 152.5 -39.5t47.5 -127.5v-249q0 -23 14 -23h55v-58h-142q-13 34 -20 95q-20 -48 -70.5 -77.5t-112.5 -29.5q-67 0 -108 36t-41 92q0 83 79.5 124
t250.5 62v27q0 57 -28.5 83t-90.5 26zM214 51q67 0 107.5 45t40.5 117v40q-125 -14 -181.5 -40.5t-56.5 -81.5q0 -36 25 -58t65 -22zM337 542q-22 0 -36 14t-14 37t13.5 37t36.5 14t37 -14t14 -37t-14 -37t-37 -14zM168 542q-22 0 -36 14t-14 37t13.5 37t36.5 14t37 -14
t14 -37t-14.5 -37t-36.5 -14z" />
    <glyph glyph-name="aring" unicode="&#xe5;" horiz-adv-x="537" 
d="M243 438q-69 0 -101 -26q26 -16 26 -51q0 -26 -17 -42t-43 -16q-29 0 -46.5 18t-17.5 49q0 61 61 94t152 33q105 0 152.5 -39.5t47.5 -127.5v-249q0 -23 14 -23h55v-58h-142q-13 34 -20 95q-20 -48 -70.5 -77.5t-112.5 -29.5q-67 0 -108 36t-41 92q0 83 79.5 124
t250.5 62v27q0 57 -28.5 83t-90.5 26zM214 51q67 0 107.5 45t40.5 117v40q-125 -14 -181.5 -40.5t-56.5 -81.5q0 -36 25 -58t65 -22zM256 535q-44 0 -70.5 24.5t-26.5 63.5q0 38 26.5 63t70.5 25t71 -25t27 -63q0 -39 -27 -63.5t-71 -24.5zM256 575q21 0 35 14t14 34t-14 34
t-35 14t-34.5 -14t-13.5 -34t13.5 -34t34.5 -14z" />
    <glyph glyph-name="ae" unicode="&#xe6;" horiz-adv-x="843" 
d="M820 227h-377q1 -81 43.5 -129t119.5 -48q119 0 152 111l58 -23q-19 -68 -74.5 -109t-148.5 -41q-153 0 -208 120q-26 -58 -78.5 -89t-119.5 -31q-70 0 -112.5 36t-42.5 92q0 86 79 127t250 46v2l-7 5v35q0 55 -26.5 81t-86.5 26q-58 0 -107 -27q29 -15 29 -49
q0 -24 -16.5 -38.5t-40.5 -14.5q-28 0 -45 16.5t-17 45.5q0 58 61 92t151 34q123 0 154 -83q62 83 182 83q108 0 168 -65.5t60 -179.5v-25zM593 439q-67 0 -105.5 -40.5t-44.5 -117.5h282q-3 158 -132 158zM360 202l-3 33q-125 0 -179 -24.5t-54 -79.5q0 -35 24.5 -57.5
t63.5 -22.5q65 0 103.5 39t44.5 112z" />
    <glyph glyph-name="ccedilla" unicode="&#xe7;" horiz-adv-x="509" 
d="M270 -186q-54 0 -110 27l6 37q56 -22 98 -22q57 0 57 30q0 28 -44 28q-24 0 -39 -9l-4 5v81q-100 12 -155.5 79t-55.5 174q0 115 70 184t188 69q98 0 157 -46t59 -122q0 -37 -20.5 -60.5t-52.5 -23.5q-26 0 -43 16.5t-17 41.5t14.5 41.5t39.5 20.5q-25 73 -133 73
q-77 0 -121 -49t-44 -137v-12q0 -90 41.5 -140t118.5 -50q123 0 156 113l57 -24q-44 -147 -207 -151v-36q4 1 15 1q41 0 64 -17.5t23 -48.5q0 -34 -31 -53.5t-87 -19.5z" />
    <glyph glyph-name="egrave" unicode="&#xe8;" horiz-adv-x="521" 
d="M498 226h-378q2 -80 44 -128.5t119 -48.5q117 0 153 113l58 -24q-19 -68 -74 -109t-144 -41q-119 0 -186 70.5t-67 184.5q0 112 68.5 183t177.5 71q107 0 168 -66t61 -181v-24zM269 438q-67 0 -105.5 -41t-43.5 -118h283q-3 159 -134 159zM270 526l-140 108v30h87
l99 -138h-46z" />
    <glyph glyph-name="eacute" unicode="&#xe9;" horiz-adv-x="521" 
d="M498 226h-378q2 -80 44 -128.5t119 -48.5q117 0 153 113l58 -24q-19 -68 -74 -109t-144 -41q-119 0 -186 70.5t-67 184.5q0 112 68.5 183t177.5 71q107 0 168 -66t61 -181v-24zM269 438q-67 0 -105.5 -41t-43.5 -118h283q-3 159 -134 159zM213 526l99 138h87l1 -30
l-141 -108h-46z" />
    <glyph glyph-name="ecircumflex" unicode="&#xea;" horiz-adv-x="521" 
d="M498 226h-378q2 -80 44 -128.5t119 -48.5q117 0 153 113l58 -24q-19 -68 -74 -109t-144 -41q-119 0 -186 70.5t-67 184.5q0 112 68.5 183t177.5 71q107 0 168 -66t61 -181v-24zM269 438q-67 0 -105.5 -41t-43.5 -118h283q-3 159 -134 159zM197 525h-51l85 135h68l85 -135
h-52l-67 89z" />
    <glyph glyph-name="edieresis" unicode="&#xeb;" horiz-adv-x="521" 
d="M498 226h-378q2 -80 44 -128.5t119 -48.5q117 0 153 113l58 -24q-19 -68 -74 -109t-144 -41q-119 0 -186 70.5t-67 184.5q0 112 68.5 183t177.5 71q107 0 168 -66t61 -181v-24zM269 438q-67 0 -105.5 -41t-43.5 -118h283q-3 159 -134 159zM177 542q-22 0 -36 14t-14 37
t13.5 37t36.5 14t37 -14t14 -37t-14 -37t-37 -14zM346 542q-22 0 -36 14t-14 37t13.5 37t36.5 14t37 -14t14 -37t-14.5 -37t-36.5 -14z" />
    <glyph glyph-name="igrave" unicode="&#xec;" horiz-adv-x="271" 
d="M18 0v58h57q14 0 14 23v306q0 23 -4.5 31.5t-17.5 8.5h-49v58h54q65 0 112 9v-413q0 -23 14 -23h53v-58h-233zM133 526l-140 108v30h87l99 -138h-46z" />
    <glyph glyph-name="iacute" unicode="&#xed;" horiz-adv-x="271" 
d="M52 526l99 138h87l1 -30l-141 -108h-46zM18 0v58h57q14 0 14 23v306q0 23 -4.5 31.5t-17.5 8.5h-49v58h54q65 0 112 9v-413q0 -23 14 -23h53v-58h-233z" />
    <glyph glyph-name="icircumflex" unicode="&#xee;" horiz-adv-x="271" 
d="M64 525h-51l85 135h68l85 -135h-52l-67 89zM18 0v58h57q14 0 14 23v306q0 23 -4.5 31.5t-17.5 8.5h-49v58h54q65 0 112 9v-413q0 -23 14 -23h53v-58h-233z" />
    <glyph glyph-name="idieresis" unicode="&#xef;" horiz-adv-x="271" 
d="M213 542q-22 0 -36 14t-14 37t13.5 37t36.5 14t37 -14t14 -37t-14 -37t-37 -14zM44 542q-22 0 -36 14t-14 37t13.5 37t36.5 14t37 -14t14 -37t-14.5 -37t-36.5 -14zM18 0v58h57q14 0 14 23v306q0 23 -4.5 31.5t-17.5 8.5h-49v58h54q65 0 112 9v-413q0 -23 14 -23h53v-58
h-233z" />
    <glyph glyph-name="eth" unicode="&#xf0;" horiz-adv-x="548" 
d="M151 542l-13 45l85 34q-44 16 -109 29l42 65q94 -15 167 -54l112 45l13 -44l-76 -31q152 -110 152 -335q0 -139 -66 -223.5t-188 -84.5q-115 0 -180 69.5t-65 181.5q0 113 62.5 182t166.5 69q115 0 168 -86q-24 130 -139 191zM272 50q72 0 111.5 48t39.5 136v11
q0 90 -39.5 136.5t-109.5 46.5q-71 0 -112.5 -47.5t-41.5 -134.5v-12q0 -90 39 -137t113 -47z" />
    <glyph glyph-name="ntilde" unicode="&#xf1;" horiz-adv-x="590" 
d="M182 494v-113q49 116 171 116q154 0 154 -173v-243q0 -14 3.5 -18.5t11.5 -4.5h56v-58h-232v58h52q14 0 14 23v240q0 57 -22.5 83t-71.5 26q-63 0 -99 -51t-36 -146v-152q0 -14 3.5 -18.5t11.5 -4.5h53v-58h-234v58h56q8 0 11.5 4.5t3.5 18.5v319q0 27 -15 27h-56v58h54
q64 0 111 9zM145 539l4 28q7 79 71 79q32 0 73.5 -28t56.5 -28q24 0 27 29l4 22h48l-3 -29q-9 -81 -71 -81q-32 0 -73.5 28.5t-56.5 28.5q-24 0 -28 -29l-3 -20h-49z" />
    <glyph glyph-name="ograve" unicode="&#xf2;" horiz-adv-x="545" 
d="M271 -12q-111 0 -179.5 70.5t-68.5 184.5q0 113 70 183.5t182 70.5q110 0 178 -70.5t68 -183.5t-69 -184t-181 -71zM272 49q74 0 114 49t40 140v9q0 92 -39.5 140.5t-113.5 48.5t-114 -49t-40 -140v-9q0 -92 39.5 -140.5t113.5 -48.5zM260 526l-140 108v30h87l99 -138
h-46z" />
    <glyph glyph-name="oacute" unicode="&#xf3;" horiz-adv-x="545" 
d="M232 526l99 138h87l1 -30l-141 -108h-46zM271 -12q-111 0 -179.5 70.5t-68.5 184.5q0 113 70 183.5t182 70.5q110 0 178 -70.5t68 -183.5t-69 -184t-181 -71zM272 49q74 0 114 49t40 140v9q0 92 -39.5 140.5t-113.5 48.5t-114 -49t-40 -140v-9q0 -92 39.5 -140.5
t113.5 -48.5z" />
    <glyph glyph-name="ocircumflex" unicode="&#xf4;" horiz-adv-x="545" 
d="M271 -12q-111 0 -179.5 70.5t-68.5 184.5q0 113 70 183.5t182 70.5q110 0 178 -70.5t68 -183.5t-69 -184t-181 -71zM272 49q74 0 114 49t40 140v9q0 92 -39.5 140.5t-113.5 48.5t-114 -49t-40 -140v-9q0 -92 39.5 -140.5t113.5 -48.5zM204 525h-51l85 135h68l85 -135h-52
l-67 89z" />
    <glyph glyph-name="otilde" unicode="&#xf5;" horiz-adv-x="545" 
d="M271 -12q-111 0 -179.5 70.5t-68.5 184.5q0 113 70 183.5t182 70.5q110 0 178 -70.5t68 -183.5t-69 -184t-181 -71zM272 49q74 0 114 49t40 140v9q0 92 -39.5 140.5t-113.5 48.5t-114 -49t-40 -140v-9q0 -92 39.5 -140.5t113.5 -48.5zM131 539l4 28q7 79 71 79
q32 0 73.5 -28t56.5 -28q24 0 27 29l4 22h48l-3 -29q-9 -81 -71 -81q-32 0 -73.5 28.5t-56.5 28.5q-24 0 -28 -29l-3 -20h-49z" />
    <glyph glyph-name="odieresis" unicode="&#xf6;" horiz-adv-x="545" 
d="M357 542q-22 0 -36 14t-14 37t13.5 37t36.5 14t37 -14t14 -37t-14 -37t-37 -14zM188 542q-22 0 -36 14t-14 37t13.5 37t36.5 14t37 -14t14 -37t-14.5 -37t-36.5 -14zM271 -12q-111 0 -179.5 70.5t-68.5 184.5q0 113 70 183.5t182 70.5q110 0 178 -70.5t68 -183.5
t-69 -184t-181 -71zM272 49q74 0 114 49t40 140v9q0 92 -39.5 140.5t-113.5 48.5t-114 -49t-40 -140v-9q0 -92 39.5 -140.5t113.5 -48.5z" />
    <glyph glyph-name="divide" unicode="&#xf7;" horiz-adv-x="469" 
d="M234 343q-24 0 -38.5 14.5t-14.5 38.5q0 23 14.5 38t38.5 15q23 0 38 -15t15 -38q0 -24 -15 -38.5t-38 -14.5zM40 214v62h389v-62h-389zM234 41q-24 0 -38.5 14.5t-14.5 37.5q0 24 14.5 38.5t38.5 14.5q23 0 38 -14.5t15 -38.5q0 -23 -15 -37.5t-38 -14.5z" />
    <glyph glyph-name="oslash" unicode="&#xf8;" horiz-adv-x="545" 
d="M24 0l59 67q-59 68 -59 176q0 114 69 184t182 70q86 0 148 -45l33 38h65l-62 -70q62 -70 62 -177q0 -113 -69 -184t-181 -71q-89 0 -152 46l-30 -34h-65zM272 47q75 0 114.5 50t39.5 141v9q0 70 -25 118l-237 -276q38 -42 108 -42zM119 238q0 -71 22 -115
q212 245 238 274q-39 41 -106 41q-75 0 -114.5 -49.5t-39.5 -141.5v-9z" />
    <glyph glyph-name="ugrave" unicode="&#xf9;" horiz-adv-x="578" 
d="M510 0q-64 0 -111 -9v105q-49 -108 -167 -108q-155 0 -155 168v248q0 23 -14 23h-57v58h167v-326q0 -57 23.5 -81t70.5 -24q61 0 96 48t35 129v173q0 23 -14 23h-60v58h169v-400q0 -27 15 -27h58v-58h-56zM271 526l-140 108v30h87l99 -138h-46z" />
    <glyph glyph-name="uacute" unicode="&#xfa;" horiz-adv-x="578" 
d="M510 0q-64 0 -111 -9v105q-49 -108 -167 -108q-155 0 -155 168v248q0 23 -14 23h-57v58h167v-326q0 -57 23.5 -81t70.5 -24q61 0 96 48t35 129v173q0 23 -14 23h-60v58h169v-400q0 -27 15 -27h58v-58h-56zM232 526l99 138h87l1 -30l-141 -108h-46z" />
    <glyph glyph-name="ucircumflex" unicode="&#xfb;" horiz-adv-x="578" 
d="M510 0q-64 0 -111 -9v105q-49 -108 -167 -108q-155 0 -155 168v248q0 23 -14 23h-57v58h167v-326q0 -57 23.5 -81t70.5 -24q61 0 96 48t35 129v173q0 23 -14 23h-60v58h169v-400q0 -27 15 -27h58v-58h-56zM212 525h-51l85 135h68l85 -135h-52l-67 89z" />
    <glyph glyph-name="udieresis" unicode="&#xfc;" horiz-adv-x="578" 
d="M510 0q-64 0 -111 -9v105q-49 -108 -167 -108q-155 0 -155 168v248q0 23 -14 23h-57v58h167v-326q0 -57 23.5 -81t70.5 -24q61 0 96 48t35 129v173q0 23 -14 23h-60v58h169v-400q0 -27 15 -27h58v-58h-56zM190 542q-22 0 -36 14t-14 37t13.5 37t36.5 14t37 -14t14 -37
t-14.5 -37t-36.5 -14zM359 542q-22 0 -36 14t-14 37t13.5 37t36.5 14t37 -14t14 -37t-14 -37t-37 -14z" />
    <glyph glyph-name="yacute" unicode="&#xfd;" horiz-adv-x="558" 
d="M121 -123q-14 0 -23 3q34 33 24.5 67.5t-51.5 34.5q-29 0 -46.5 -19.5t-17.5 -52.5q0 -42 32 -67t82 -25q70 0 110 41.5t83 142.5l171 402q9 23 26 23h44v58h-195v-58h47q27 0 17 -26l-121 -282l-134 283q-5 11 -0.5 18t15.5 7h44v58h-224v-58h42q8 0 12 -4t11 -19
l182 -386v-4q-32 -77 -60.5 -107t-69.5 -30zM234 526l99 138h87l1 -30l-141 -108h-46z" />
    <glyph glyph-name="thorn" unicode="&#xfe;" horiz-adv-x="601" 
d="M11 -172v55h56q8 0 11.5 4.5t3.5 18.5v676q0 27 -15 27h-58v55h57q64 0 111 9v-292q50 116 180 116q100 0 159 -69t59 -185t-60.5 -185.5t-161.5 -69.5q-125 0 -176 111v-193q0 -23 14 -23h55v-55h-235zM327 52q69 0 109.5 49t40.5 135v13q0 86 -40.5 134.5t-109.5 48.5
q-67 0 -108.5 -48.5t-41.5 -134.5v-13q0 -85 41.5 -134.5t108.5 -49.5z" />
    <glyph glyph-name="ydieresis" unicode="&#xff;" horiz-adv-x="558" 
d="M121 -123q-14 0 -23 3q34 33 24.5 67.5t-51.5 34.5q-29 0 -46.5 -19.5t-17.5 -52.5q0 -42 32 -67t82 -25q70 0 110 41.5t83 142.5l171 402q9 23 26 23h44v58h-195v-58h47q27 0 17 -26l-121 -282l-134 283q-5 11 -0.5 18t15.5 7h44v58h-224v-58h42q8 0 12 -4t11 -19
l182 -386v-4q-32 -77 -60.5 -107t-69.5 -30zM202 542q-22 0 -36 14t-14 37t13.5 37t36.5 14t37 -14t14 -37t-14.5 -37t-36.5 -14zM371 542q-22 0 -36 14t-14 37t13.5 37t36.5 14t37 -14t14 -37t-14 -37t-37 -14z" />
    <glyph glyph-name="Amacron" unicode="&#x100;" horiz-adv-x="728" 
d="M532 82l-57 148h-253l-55 -148q-8 -24 14 -24h62v-58h-232v58h60q12 0 18 5t12 21l226 584h83l225 -584q10 -26 28 -26h54v-58h-259v58h60q23 0 14 24zM349 570l-107 -283h214zM219 737v58h289v-58h-289z" />
    <glyph glyph-name="amacron" unicode="&#x101;" horiz-adv-x="537" 
d="M243 438q-69 0 -101 -26q26 -16 26 -51q0 -26 -17 -42t-43 -16q-29 0 -46.5 18t-17.5 49q0 61 61 94t152 33q105 0 152.5 -39.5t47.5 -127.5v-249q0 -23 14 -23h55v-58h-142q-13 34 -20 95q-20 -48 -70.5 -77.5t-112.5 -29.5q-67 0 -108 36t-41 92q0 83 79.5 124
t250.5 62v27q0 57 -28.5 83t-90.5 26zM214 51q67 0 107.5 45t40.5 117v40q-125 -14 -181.5 -40.5t-56.5 -81.5q0 -36 25 -58t65 -22zM122 558v58h289v-58h-289z" />
    <glyph glyph-name="Abreve" unicode="&#x102;" horiz-adv-x="728" 
d="M532 82l-57 148h-253l-55 -148q-8 -24 14 -24h62v-58h-232v58h60q12 0 18 5t12 21l226 584h83l225 -584q10 -26 28 -26h54v-58h-259v58h60q23 0 14 24zM349 570l-107 -283h214zM363 711q-62 0 -96 35t-34 98h52q0 -86 78 -86q77 0 77 86h52q0 -64 -33.5 -98.5
t-95.5 -34.5z" />
    <glyph glyph-name="abreve" unicode="&#x103;" horiz-adv-x="537" 
d="M243 438q-69 0 -101 -26q26 -16 26 -51q0 -26 -17 -42t-43 -16q-29 0 -46.5 18t-17.5 49q0 61 61 94t152 33q105 0 152.5 -39.5t47.5 -127.5v-249q0 -23 14 -23h55v-58h-142q-13 34 -20 95q-20 -48 -70.5 -77.5t-112.5 -29.5q-67 0 -108 36t-41 92q0 83 79.5 124
t250.5 62v27q0 57 -28.5 83t-90.5 26zM214 51q67 0 107.5 45t40.5 117v40q-125 -14 -181.5 -40.5t-56.5 -81.5q0 -36 25 -58t65 -22zM267 532q-62 0 -96 35t-34 98h52q0 -86 78 -86q77 0 77 86h52q0 -64 -33.5 -98.5t-95.5 -34.5z" />
    <glyph glyph-name="Aogonek" unicode="&#x104;" horiz-adv-x="728" 
d="M717 58v-58q-79 -22 -79 -80q0 -19 12 -30t32 -11q19 0 39 10v-50q-26 -11 -56 -11q-43 0 -68.5 20t-25.5 54q0 61 76 98h-189v58h60q23 0 14 24l-57 148h-253l-55 -148q-8 -24 14 -24h62v-58h-232v58h60q12 0 18 5t12 21l226 584h83l225 -584q10 -26 28 -26h54zM349 570
l-107 -283h214z" />
    <glyph glyph-name="aogonek" unicode="&#x105;" horiz-adv-x="537" 
d="M456 0h-72q-13 34 -20 95q-20 -48 -70.5 -77.5t-112.5 -29.5q-67 0 -108 36t-41 92q0 83 79.5 124t250.5 62v27q0 57 -28.5 83t-90.5 26q-69 0 -101 -26q26 -16 26 -51q0 -26 -17 -42t-43 -16q-29 0 -46.5 18t-17.5 49q0 61 61 94t152 33q105 0 152.5 -39.5t47.5 -127.5
v-249q0 -23 14 -23h55v-58q-39 -10 -58.5 -32t-19.5 -48q0 -18 11.5 -29.5t32.5 -11.5q19 0 39 10v-50q-29 -11 -55 -11q-39 0 -67 18.5t-28 55.5q0 60 75 98zM214 51q67 0 107.5 45t40.5 117v40q-125 -14 -181.5 -40.5t-56.5 -81.5q0 -36 25 -58t65 -22z" />
    <glyph glyph-name="Cacute" unicode="&#x106;" horiz-adv-x="658" 
d="M276 705l99 138h87l1 -30l-141 -108h-46zM344 -12q-144 0 -230 91.5t-86 251.5q0 157 85.5 251t221.5 94q76 0 129 -34t76 -95l18 117h59v-243h-79q-36 189 -193 189q-101 0 -158.5 -69.5t-57.5 -196.5v-24q0 -127 58 -196.5t159 -69.5q87 0 143 45.5t67 137.5l68 -9
q-10 -107 -83.5 -173.5t-196.5 -66.5z" />
    <glyph glyph-name="cacute" unicode="&#x107;" horiz-adv-x="509" 
d="M364 303q0 25 14.5 41.5t39.5 20.5q-25 73 -133 73q-77 0 -121 -49t-44 -137v-12q0 -90 41.5 -140t118.5 -50q123 0 156 113l57 -24q-21 -70 -74.5 -110.5t-141.5 -40.5q-119 0 -186.5 68.5t-67.5 187.5q0 115 70 184t188 69q98 0 157 -46t59 -122q0 -37 -20.5 -60.5
t-52.5 -23.5q-26 0 -43 16.5t-17 41.5zM197 526l99 138h87l1 -30l-141 -108h-46z" />
    <glyph glyph-name="Ccircumflex" unicode="&#x108;" horiz-adv-x="658" 
d="M279 704h-51l85 135h68l85 -135h-52l-67 89zM344 -12q-144 0 -230 91.5t-86 251.5q0 157 85.5 251t221.5 94q76 0 129 -34t76 -95l18 117h59v-243h-79q-36 189 -193 189q-101 0 -158.5 -69.5t-57.5 -196.5v-24q0 -127 58 -196.5t159 -69.5q87 0 143 45.5t67 137.5l68 -9
q-10 -107 -83.5 -173.5t-196.5 -66.5z" />
    <glyph glyph-name="ccircumflex" unicode="&#x109;" horiz-adv-x="509" 
d="M364 303q0 25 14.5 41.5t39.5 20.5q-25 73 -133 73q-77 0 -121 -49t-44 -137v-12q0 -90 41.5 -140t118.5 -50q123 0 156 113l57 -24q-21 -70 -74.5 -110.5t-141.5 -40.5q-119 0 -186.5 68.5t-67.5 187.5q0 115 70 184t188 69q98 0 157 -46t59 -122q0 -37 -20.5 -60.5
t-52.5 -23.5q-26 0 -43 16.5t-17 41.5zM207 525h-51l85 135h68l85 -135h-52l-67 89z" />
    <glyph glyph-name="Cdotaccent" unicode="&#x10a;" horiz-adv-x="658" 
d="M344 -12q-144 0 -230 91.5t-86 251.5q0 157 85.5 251t221.5 94q76 0 129 -34t76 -95l18 117h59v-243h-79q-36 189 -193 189q-101 0 -158.5 -69.5t-57.5 -196.5v-24q0 -127 58 -196.5t159 -69.5q87 0 143 45.5t67 137.5l68 -9q-10 -107 -83.5 -173.5t-196.5 -66.5z
M354 728q-22 0 -36 13.5t-14 35.5t13.5 35t36.5 13t37 -13t14 -35t-14 -35.5t-37 -13.5z" />
    <glyph glyph-name="cdotaccent" unicode="&#x10b;" horiz-adv-x="509" 
d="M364 303q0 25 14.5 41.5t39.5 20.5q-25 73 -133 73q-77 0 -121 -49t-44 -137v-12q0 -90 41.5 -140t118.5 -50q123 0 156 113l57 -24q-21 -70 -74.5 -110.5t-141.5 -40.5q-119 0 -186.5 68.5t-67.5 187.5q0 115 70 184t188 69q98 0 157 -46t59 -122q0 -37 -20.5 -60.5
t-52.5 -23.5q-26 0 -43 16.5t-17 41.5zM279 549q-22 0 -36 13.5t-14 35.5t13.5 35t36.5 13t37 -13t14 -35t-14 -35.5t-37 -13.5z" />
    <glyph glyph-name="Ccaron" unicode="&#x10c;" horiz-adv-x="658" 
d="M344 -12q-144 0 -230 91.5t-86 251.5q0 157 85.5 251t221.5 94q76 0 129 -34t76 -95l18 117h59v-243h-79q-36 189 -193 189q-101 0 -158.5 -69.5t-57.5 -196.5v-24q0 -127 58 -196.5t159 -69.5q87 0 143 45.5t67 137.5l68 -9q-10 -107 -83.5 -173.5t-196.5 -66.5z
M225 839h50l70 -88l69 88h51l-86 -135h-68z" />
    <glyph glyph-name="ccaron" unicode="&#x10d;" horiz-adv-x="509" 
d="M364 303q0 25 14.5 41.5t39.5 20.5q-25 73 -133 73q-77 0 -121 -49t-44 -137v-12q0 -90 41.5 -140t118.5 -50q123 0 156 113l57 -24q-21 -70 -74.5 -110.5t-141.5 -40.5q-119 0 -186.5 68.5t-67.5 187.5q0 115 70 184t188 69q98 0 157 -46t59 -122q0 -37 -20.5 -60.5
t-52.5 -23.5q-26 0 -43 16.5t-17 41.5zM155 660h50l70 -88l69 88h51l-86 -135h-68z" />
    <glyph glyph-name="Dcaron" unicode="&#x10e;" horiz-adv-x="660" 
d="M19 0v58h60q16 0 16 25v499q0 14 -3.5 19t-12.5 5h-60v58h266q173 0 260 -85.5t87 -248.5q0 -159 -90 -244.5t-265 -85.5h-258zM191 58h93q129 0 186 63t57 193v34q0 133 -54.5 195.5t-181.5 62.5h-100v-548zM168 839h50l70 -88l69 88h51l-86 -135h-68z" />
    <glyph glyph-name="dcaron" unicode="&#x10f;" horiz-adv-x="798" 
d="M247 -12q-101 0 -162 69.5t-61 185.5q0 114 61.5 184t161.5 70q127 0 176 -109v191q0 27 -14 27h-58v58h56q66 0 111 9v-592q0 -23 15 -23h55v-58h-154q-4 32 -7 102q-48 -114 -180 -114zM274 53q67 0 108 48.5t41 134.5v13q0 85 -41 134t-108 49q-69 0 -110 -48
t-41 -135v-13q0 -87 41 -135t110 -48zM699 570q0 4 -1 6q-16 -12 -36 -12q-24 0 -38.5 14t-14.5 39q0 26 18 42t47 16q36 0 61 -27.5t25 -70.5q0 -54 -33 -88t-87 -34q-16 0 -36 5v50q12 -4 29 -4q31 0 48.5 16.5t17.5 47.5z" />
    <glyph glyph-name="Emacron" unicode="&#x112;" horiz-adv-x="582" 
d="M19 0v58h60q9 0 12.5 5t3.5 19v500q0 14 -3.5 19t-12.5 5h-60v58h505v-152h-64l-8 68q-3 15 -12.5 20.5t-32.5 5.5h-216v-241h138q14 0 19.5 5.5t5.5 19.5v45h57v-198h-57v44q0 27 -25 27h-138v-250h236q24 0 33 4.5t12 21.5l8 68h64v-152h-525zM146 737v58h289v-58h-289
z" />
    <glyph glyph-name="emacron" unicode="&#x113;" horiz-adv-x="521" 
d="M498 226h-378q2 -80 44 -128.5t119 -48.5q117 0 153 113l58 -24q-19 -68 -74 -109t-144 -41q-119 0 -186 70.5t-67 184.5q0 112 68.5 183t177.5 71q107 0 168 -66t61 -181v-24zM269 438q-67 0 -105.5 -41t-43.5 -118h283q-3 159 -134 159zM124 558v58h289v-58h-289z" />
    <glyph glyph-name="Ebreve" unicode="&#x114;" horiz-adv-x="582" 
d="M19 0v58h60q9 0 12.5 5t3.5 19v500q0 14 -3.5 19t-12.5 5h-60v58h505v-152h-64l-8 68q-3 15 -12.5 20.5t-32.5 5.5h-216v-241h138q14 0 19.5 5.5t5.5 19.5v45h57v-198h-57v44q0 27 -25 27h-138v-250h236q24 0 33 4.5t12 21.5l8 68h64v-152h-525zM293 711q-62 0 -96 35
t-34 98h52q0 -86 78 -86q77 0 77 86h52q0 -64 -33.5 -98.5t-95.5 -34.5z" />
    <glyph glyph-name="ebreve" unicode="&#x115;" horiz-adv-x="521" 
d="M498 226h-378q2 -80 44 -128.5t119 -48.5q117 0 153 113l58 -24q-19 -68 -74 -109t-144 -41q-119 0 -186 70.5t-67 184.5q0 112 68.5 183t177.5 71q107 0 168 -66t61 -181v-24zM269 438q-67 0 -105.5 -41t-43.5 -118h283q-3 159 -134 159zM273 532q-62 0 -96 35t-34 98
h52q0 -86 78 -86q77 0 77 86h52q0 -64 -33.5 -98.5t-95.5 -34.5z" />
    <glyph glyph-name="Edotaccent" unicode="&#x116;" horiz-adv-x="582" 
d="M19 0v58h60q9 0 12.5 5t3.5 19v500q0 14 -3.5 19t-12.5 5h-60v58h505v-152h-64l-8 68q-3 15 -12.5 20.5t-32.5 5.5h-216v-241h138q14 0 19.5 5.5t5.5 19.5v45h57v-198h-57v44q0 27 -25 27h-138v-250h236q24 0 33 4.5t12 21.5l8 68h64v-152h-525zM293 728q-22 0 -36 13.5
t-14 35.5t13.5 35t36.5 13t37 -13t14 -35t-14 -35.5t-37 -13.5z" />
    <glyph glyph-name="edotaccent" unicode="&#x117;" horiz-adv-x="521" 
d="M498 226h-378q2 -80 44 -128.5t119 -48.5q117 0 153 113l58 -24q-19 -68 -74 -109t-144 -41q-119 0 -186 70.5t-67 184.5q0 112 68.5 183t177.5 71q107 0 168 -66t61 -181v-24zM269 438q-67 0 -105.5 -41t-43.5 -118h283q-3 159 -134 159zM272 549q-22 0 -36 13.5
t-14 35.5t13.5 35t36.5 13t37 -13t14 -35t-14 -35.5t-37 -13.5z" />
    <glyph glyph-name="Eogonek" unicode="&#x118;" horiz-adv-x="582" 
d="M19 0v58h60q9 0 12.5 5t3.5 19v500q0 14 -3.5 19t-12.5 5h-60v58h505v-152h-64l-8 68q-3 15 -12.5 20.5t-32.5 5.5h-216v-241h138q14 0 19.5 5.5t5.5 19.5v45h57v-198h-57v44q0 27 -25 27h-138v-250h236q24 0 33 4.5t12 21.5l8 68h64v-152q-42 -11 -63.5 -33t-21.5 -47
q0 -41 43 -41q19 0 39 10v-50q-29 -11 -57 -11q-43 0 -67.5 20t-24.5 54q0 59 78 98h-451z" />
    <glyph glyph-name="eogonek" unicode="&#x119;" horiz-adv-x="521" 
d="M436 162l58 -24q-23 -79 -89 -118q-73 -43 -73 -94q0 -19 12 -30.5t32 -11.5q16 0 38 11l1 -50q-29 -11 -58 -11q-43 0 -67 19.5t-24 53.5q0 43 45 83q-20 -2 -35 -2q-119 0 -186 70.5t-67 184.5q0 112 68.5 183t177.5 71q107 0 168 -66t61 -181v-24h-378
q2 -80 44 -128.5t119 -48.5q117 0 153 113zM269 438q-67 0 -105.5 -41t-43.5 -118h283q-3 159 -134 159z" />
    <glyph glyph-name="Ecaron" unicode="&#x11a;" horiz-adv-x="582" 
d="M19 0v58h60q9 0 12.5 5t3.5 19v500q0 14 -3.5 19t-12.5 5h-60v58h505v-152h-64l-8 68q-3 15 -12.5 20.5t-32.5 5.5h-216v-241h138q14 0 19.5 5.5t5.5 19.5v45h57v-198h-57v44q0 27 -25 27h-138v-250h236q24 0 33 4.5t12 21.5l8 68h64v-152h-525zM173 839h50l70 -88l69 88
h51l-86 -135h-68z" />
    <glyph glyph-name="ecaron" unicode="&#x11b;" horiz-adv-x="521" 
d="M498 226h-378q2 -80 44 -128.5t119 -48.5q117 0 153 113l58 -24q-19 -68 -74 -109t-144 -41q-119 0 -186 70.5t-67 184.5q0 112 68.5 183t177.5 71q107 0 168 -66t61 -181v-24zM269 438q-67 0 -105.5 -41t-43.5 -118h283q-3 159 -134 159zM150 660h50l70 -88l69 88h51
l-86 -135h-68z" />
    <glyph glyph-name="Gcircumflex" unicode="&#x11c;" horiz-adv-x="655" 
d="M266 704h-51l85 135h68l85 -135h-52l-67 89zM573 0l-27 115q-53 -127 -225 -127q-138 0 -216.5 91t-78.5 252q0 158 84.5 251.5t219.5 93.5q78 0 134 -33.5t79 -94.5l18 116h58v-242h-79q-34 188 -200 188q-99 0 -156 -69.5t-57 -196.5v-24q0 -130 54.5 -198t156.5 -68
q81 0 131.5 46.5t50.5 131.5v21h-166v58h265v-311h-46z" />
    <glyph glyph-name="gcircumflex" unicode="&#x11d;" horiz-adv-x="540" 
d="M251 -207q-128 0 -187.5 25.5t-59.5 78.5q0 76 124 103q-97 15 -97 91q0 32 22 56.5t62 36.5q-74 46 -74 138q0 77 61 126t155 49q95 0 155 -49q17 99 89 99q26 0 42.5 -15.5t16.5 -38.5t-13.5 -37.5t-34.5 -14.5q-35 0 -44 33q-20 -17 -31 -53q33 -42 33 -99
q0 -79 -59 -125t-158 -46q-59 0 -101 16q-48 -10 -48 -45q0 -22 16.5 -32t54.5 -10q14 0 101 0.5t99 0.5q154 0 154 -127q0 -78 -73 -119.5t-205 -41.5zM351 -11h-173q-45 -10 -71 -32t-26 -52q0 -35 41.5 -50.5t131.5 -15.5q201 0 201 89q0 33 -24 47t-80 14zM253 201
q58 0 89.5 30.5t31.5 85.5v9q0 57 -31 88t-87 31t-88 -31.5t-32 -87.5v-9q0 -55 31 -85.5t86 -30.5zM185 525h-51l85 135h68l85 -135h-52l-67 89z" />
    <glyph glyph-name="Gbreve" unicode="&#x11e;" horiz-adv-x="655" 
d="M573 0l-27 115q-53 -127 -225 -127q-138 0 -216.5 91t-78.5 252q0 158 84.5 251.5t219.5 93.5q78 0 134 -33.5t79 -94.5l18 116h58v-242h-79q-34 188 -200 188q-99 0 -156 -69.5t-57 -196.5v-24q0 -130 54.5 -198t156.5 -68q81 0 131.5 46.5t50.5 131.5v21h-166v58h265
v-311h-46zM336 711q-62 0 -96 35t-34 98h52q0 -86 78 -86q77 0 77 86h52q0 -64 -33.5 -98.5t-95.5 -34.5z" />
    <glyph glyph-name="gbreve" unicode="&#x11f;" horiz-adv-x="540" 
d="M251 -207q-128 0 -187.5 25.5t-59.5 78.5q0 76 124 103q-97 15 -97 91q0 32 22 56.5t62 36.5q-74 46 -74 138q0 77 61 126t155 49q95 0 155 -49q17 99 89 99q26 0 42.5 -15.5t16.5 -38.5t-13.5 -37.5t-34.5 -14.5q-35 0 -44 33q-20 -17 -31 -53q33 -42 33 -99
q0 -79 -59 -125t-158 -46q-59 0 -101 16q-48 -10 -48 -45q0 -22 16.5 -32t54.5 -10q14 0 101 0.5t99 0.5q154 0 154 -127q0 -78 -73 -119.5t-205 -41.5zM351 -11h-173q-45 -10 -71 -32t-26 -52q0 -35 41.5 -50.5t131.5 -15.5q201 0 201 89q0 33 -24 47t-80 14zM253 201
q58 0 89.5 30.5t31.5 85.5v9q0 57 -31 88t-87 31t-88 -31.5t-32 -87.5v-9q0 -55 31 -85.5t86 -30.5zM256 532q-62 0 -96 35t-34 98h52q0 -86 78 -86q77 0 77 86h52q0 -64 -33.5 -98.5t-95.5 -34.5z" />
    <glyph glyph-name="Gdotaccent" unicode="&#x120;" horiz-adv-x="655" 
d="M573 0l-27 115q-53 -127 -225 -127q-138 0 -216.5 91t-78.5 252q0 158 84.5 251.5t219.5 93.5q78 0 134 -33.5t79 -94.5l18 116h58v-242h-79q-34 188 -200 188q-99 0 -156 -69.5t-57 -196.5v-24q0 -130 54.5 -198t156.5 -68q81 0 131.5 46.5t50.5 131.5v21h-166v58h265
v-311h-46zM337 728q-22 0 -36 13.5t-14 35.5t13.5 35t36.5 13t37 -13t14 -35t-14 -35.5t-37 -13.5z" />
    <glyph glyph-name="gdotaccent" unicode="&#x121;" horiz-adv-x="540" 
d="M251 -207q-128 0 -187.5 25.5t-59.5 78.5q0 76 124 103q-97 15 -97 91q0 32 22 56.5t62 36.5q-74 46 -74 138q0 77 61 126t155 49q95 0 155 -49q17 99 89 99q26 0 42.5 -15.5t16.5 -38.5t-13.5 -37.5t-34.5 -14.5q-35 0 -44 33q-20 -17 -31 -53q33 -42 33 -99
q0 -79 -59 -125t-158 -46q-59 0 -101 16q-48 -10 -48 -45q0 -22 16.5 -32t54.5 -10q14 0 101 0.5t99 0.5q154 0 154 -127q0 -78 -73 -119.5t-205 -41.5zM351 -11h-173q-45 -10 -71 -32t-26 -52q0 -35 41.5 -50.5t131.5 -15.5q201 0 201 89q0 33 -24 47t-80 14zM253 201
q58 0 89.5 30.5t31.5 85.5v9q0 57 -31 88t-87 31t-88 -31.5t-32 -87.5v-9q0 -55 31 -85.5t86 -30.5zM252 549q-22 0 -36 13.5t-14 35.5t13.5 35t36.5 13t37 -13t14 -35t-14 -35.5t-37 -13.5z" />
    <glyph glyph-name="Gcommaaccent" unicode="&#x122;" horiz-adv-x="655" 
d="M358 -138q0 3 -1 5q-13 -10 -29 -10q-20 0 -32.5 12t-12.5 32q0 21 15 35t39 14q29 0 50 -23t21 -58q0 -47 -27.5 -75.5t-73.5 -28.5q-18 0 -30 5v41q20 -4 24 -4q26 0 41.5 14.5t15.5 40.5zM573 0l-27 115q-53 -127 -225 -127q-138 0 -216.5 91t-78.5 252
q0 158 84.5 251.5t219.5 93.5q78 0 134 -33.5t79 -94.5l18 116h58v-242h-79q-34 188 -200 188q-99 0 -156 -69.5t-57 -196.5v-24q0 -130 54.5 -198t156.5 -68q81 0 131.5 46.5t50.5 131.5v21h-166v58h265v-311h-46z" />
    <glyph glyph-name="gcommaaccent" unicode="&#x123;" horiz-adv-x="540" 
d="M251 -207q-128 0 -187.5 25.5t-59.5 78.5q0 76 124 103q-97 15 -97 91q0 32 22 56.5t62 36.5q-74 46 -74 138q0 77 61 126t155 49q95 0 155 -49q17 99 89 99q26 0 42.5 -15.5t16.5 -38.5t-13.5 -37.5t-34.5 -14.5q-35 0 -44 33q-20 -17 -31 -53q33 -42 33 -99
q0 -79 -59 -125t-158 -46q-59 0 -101 16q-48 -10 -48 -45q0 -22 16.5 -32t54.5 -10q14 0 101 0.5t99 0.5q154 0 154 -127q0 -78 -73 -119.5t-205 -41.5zM351 -11h-173q-45 -10 -71 -32t-26 -52q0 -35 41.5 -50.5t131.5 -15.5q201 0 201 89q0 33 -24 47t-80 14zM253 201
q58 0 89.5 30.5t31.5 85.5v9q0 57 -31 88t-87 31t-88 -31.5t-32 -87.5v-9q0 -55 31 -85.5t86 -30.5zM233 609v-5q13 10 30 10q20 0 32.5 -12t12.5 -32q0 -21 -15 -35t-39 -14q-29 0 -50 23t-21 58q0 47 27.5 75.5t73.5 28.5q18 0 30 -5v-41q-20 4 -24 4q-26 0 -41.5 -14.5
t-15.5 -40.5z" />
    <glyph glyph-name="Hcircumflex" unicode="&#x124;" horiz-adv-x="707" 
d="M19 0v58h60q16 0 16 25v499q0 14 -3.5 19t-12.5 5h-60v58h248v-58h-60q-9 0 -12.5 -4.5t-3.5 -19.5v-215h325v215q0 15 -3 19.5t-12 4.5h-61v58h248v-58h-60q-9 0 -12 -4.5t-3 -19.5v-499q0 -25 15 -25h60v-58h-248v58h61q15 0 15 25v225h-325v-225q0 -15 3.5 -20
t12.5 -5h60v-58h-248zM286 704h-51l85 135h68l85 -135h-52l-67 89z" />
    <glyph glyph-name="hcircumflex" unicode="&#x125;" horiz-adv-x="582" 
d="M177 673v-288q50 112 170 112q154 0 154 -171v-245q0 -14 3.5 -18.5t11.5 -4.5h56v-58h-232v58h51q8 0 11.5 4.5t3.5 18.5v241q0 56 -22.5 82t-71.5 26q-62 0 -98.5 -52t-36.5 -146v-151q0 -23 14 -23h54v-58h-234v58h56q8 0 11.5 4.5t3.5 18.5v498q0 27 -15 27h-58v58
h57q64 0 111 9zM38 704h-51l85 135h68l85 -135h-52l-67 89z" />
    <glyph glyph-name="Hbar" unicode="&#x126;" horiz-adv-x="701" 
d="M21 457v58h74v67q0 14 -3.5 19t-12.5 5h-60v58h248v-58h-60q-9 0 -12.5 -4.5t-3.5 -19.5v-67h319v67q0 15 -3 19.5t-12 4.5h-61v58h248v-58h-60q-9 0 -12 -4.5t-3 -19.5v-67h74v-58h-74v-374q0 -25 15 -25h60v-58h-248v58h61q15 0 15 25v225h-319v-225q0 -15 3.5 -20
t12.5 -5h60v-58h-248v58h60q16 0 16 25v374h-74zM191 457v-90h319v90h-319z" />
    <glyph glyph-name="hbar" unicode="&#x127;" horiz-adv-x="582" 
d="M12 535v58h70v71h13q48 0 82 9v-80h140v-58h-140v-150q50 112 170 112q154 0 154 -171v-245q0 -14 3.5 -18.5t11.5 -4.5h56v-58h-232v58h51q8 0 11.5 4.5t3.5 18.5v241q0 56 -22.5 82t-71.5 26q-62 0 -98.5 -52t-36.5 -146v-151q0 -23 14 -23h54v-58h-234v58h56
q8 0 11.5 4.5t3.5 18.5v454h-70z" />
    <glyph glyph-name="Imacron" unicode="&#x12a;" horiz-adv-x="289" 
d="M21 0v58h60q15 0 15 25v499q0 15 -3 19.5t-12 4.5h-60v58h247v-58h-60q-9 0 -12 -4.5t-3 -19.5v-499q0 -25 15 -25h60v-58h-247zM-1 737v58h289v-58h-289z" />
    <glyph glyph-name="imacron" unicode="&#x12b;" horiz-adv-x="271" 
d="M18 0v58h57q14 0 14 23v306q0 23 -4.5 31.5t-17.5 8.5h-49v58h54q65 0 112 9v-413q0 -23 14 -23h53v-58h-233zM-20 558v58h289v-58h-289z" />
    <glyph glyph-name="Ibreve" unicode="&#x12c;" horiz-adv-x="289" 
d="M21 0v58h60q15 0 15 25v499q0 15 -3 19.5t-12 4.5h-60v58h247v-58h-60q-9 0 -12 -4.5t-3 -19.5v-499q0 -25 15 -25h60v-58h-247zM144 711q-62 0 -96 35t-34 98h52q0 -86 78 -86q77 0 77 86h52q0 -64 -33.5 -98.5t-95.5 -34.5z" />
    <glyph glyph-name="ibreve" unicode="&#x12d;" horiz-adv-x="271" 
d="M18 0v58h57q14 0 14 23v306q0 23 -4.5 31.5t-17.5 8.5h-49v58h54q65 0 112 9v-413q0 -23 14 -23h53v-58h-233zM124 532q-62 0 -96 35t-34 98h52q0 -86 78 -86q77 0 77 86h52q0 -64 -33.5 -98.5t-95.5 -34.5z" />
    <glyph glyph-name="Iogonek" unicode="&#x12e;" horiz-adv-x="289" 
d="M21 0v58h60q15 0 15 25v499q0 15 -3 19.5t-12 4.5h-60v58h247v-58h-60q-9 0 -12 -4.5t-3 -19.5v-499q0 -25 15 -25h60v-58q-42 -8 -61.5 -31t-19.5 -49q0 -41 43 -41q19 0 39 10v-50q-29 -11 -58 -11q-42 0 -66.5 20t-24.5 54q0 62 75 98h-174z" />
    <glyph glyph-name="iogonek" unicode="&#x12f;" horiz-adv-x="272" 
d="M18 0v58h57q14 0 14 23v306q0 23 -4.5 31.5t-17.5 8.5h-49v58h54q65 0 112 9v-413q0 -23 14 -23h55v-58q-40 -4 -62 -29t-22 -51q0 -19 12 -30t32 -11q19 0 39 10v-50q-26 -11 -56 -11q-43 0 -68.5 20t-25.5 54q0 59 76 98h-160zM135 554q-28 0 -46 19t-18 46t18 45.5
t46 18.5q27 0 45.5 -18.5t18.5 -45.5t-18.5 -46t-45.5 -19z" />
    <glyph glyph-name="Idotaccent" unicode="&#x130;" horiz-adv-x="289" 
d="M21 0v58h60q15 0 15 25v499q0 15 -3 19.5t-12 4.5h-60v58h247v-58h-60q-9 0 -12 -4.5t-3 -19.5v-499q0 -25 15 -25h60v-58h-247zM144 728q-22 0 -36 13.5t-14 35.5t13.5 35t36.5 13t37 -13t14 -35t-14 -35.5t-37 -13.5z" />
    <glyph glyph-name="dotlessi" unicode="&#x131;" horiz-adv-x="271" 
d="M18 0v58h57q14 0 14 23v306q0 23 -4.5 31.5t-17.5 8.5h-49v58h54q65 0 112 9v-413q0 -23 14 -23h53v-58h-233z" />
    <glyph glyph-name="Jcircumflex" unicode="&#x134;" horiz-adv-x="413" 
d="M202 704h-51l85 135h68l85 -135h-52l-67 89zM140 -12q-65 0 -121 29v67q44 -29 104 -29q54 0 78 27t24 88v412q0 24 -14 24h-67v58h252v-58h-59q-16 0 -16 -24v-411q0 -96 -43.5 -139.5t-137.5 -43.5z" />
    <glyph glyph-name="jcircumflex" unicode="&#x135;" horiz-adv-x="245" 
d="M-3 -171v57q2 -1 18 -1q40 0 54 18t14 76v408q0 23 -4.5 31.5t-17.5 8.5h-48v58h54q65 0 112 9v-509q0 -91 -30 -125.5t-109 -34.5q-29 0 -43 4zM47 525h-51l85 135h68l85 -135h-52l-67 89z" />
    <glyph glyph-name="Kcommaaccent" unicode="&#x136;" horiz-adv-x="676" 
d="M19 0v58h60q16 0 16 25v499q0 14 -3.5 19t-12.5 5h-60v58h249v-58h-60q-9 0 -12.5 -5t-3.5 -19v-300l271 298q5 5 6.5 11.5t-2.5 10.5t-11 4h-66v58h252v-58h-47q-21 1 -42 -21l-170 -183l198 -320q9 -14 16 -19t20 -5h45v-58h-267v58h65q9 0 11 6t-2 13l-158 256
l-119 -132v-118q0 -25 16 -25h60v-58h-249zM358 -138q0 3 -1 5q-13 -10 -29 -10q-20 0 -32.5 12t-12.5 32q0 21 15 35t39 14q29 0 50 -23t21 -58q0 -47 -27.5 -75.5t-73.5 -28.5q-18 0 -30 5v41q20 -4 24 -4q26 0 41.5 14.5t15.5 40.5z" />
    <glyph glyph-name="kcommaaccent" unicode="&#x137;" horiz-adv-x="554" 
d="M11 0v58h56q8 0 11.5 4.5t3.5 18.5v498q0 27 -15 27h-58v58h57q64 0 111 9v-451l187 186q6 4 4 11.5t-14 7.5h-55v58h231v-58h-44q-21 0 -39 -16l-112 -108l145 -227q11 -18 27 -18h40v-58h-226v58h46q19 0 8 19l-106 166l-92 -92v-70q0 -23 14 -23h54v-58h-234z
M305 -138q0 3 -1 5q-13 -10 -29 -10q-20 0 -32.5 12t-12.5 32q0 21 15 35t39 14q29 0 50 -23t21 -58q0 -47 -27.5 -75.5t-73.5 -28.5q-18 0 -30 5v41q20 -4 24 -4q26 0 41.5 14.5t15.5 40.5z" />
    <glyph glyph-name="Lacute" unicode="&#x139;" horiz-adv-x="536" 
d="M95 705l99 138h87l1 -30l-141 -108h-46zM19 0v58h60q16 0 16 25v499q0 14 -3.5 19t-12.5 5h-60v58h251v-58h-63q-9 0 -12.5 -4.5t-3.5 -19.5v-524h190q24 0 33.5 5t11.5 21l13 107h64v-191h-484z" />
    <glyph glyph-name="lacute" unicode="&#x13a;" horiz-adv-x="273" 
d="M73 705l99 138h87l1 -30l-141 -108h-46zM18 0v58h57q14 0 14 23v498q0 27 -14 27h-59v58h56q65 0 112 9v-592q0 -23 14 -23h55v-58h-235z" />
    <glyph glyph-name="Lcommaaccent" unicode="&#x13b;" horiz-adv-x="536" 
d="M19 0v58h60q16 0 16 25v499q0 14 -3.5 19t-12.5 5h-60v58h251v-58h-63q-9 0 -12.5 -4.5t-3.5 -19.5v-524h190q24 0 33.5 5t11.5 21l13 107h64v-191h-484zM294 -138q0 3 -1 5q-13 -10 -29 -10q-20 0 -32.5 12t-12.5 32q0 21 15 35t39 14q29 0 50 -23t21 -58
q0 -47 -27.5 -75.5t-73.5 -28.5q-18 0 -30 5v41q20 -4 24 -4q26 0 41.5 14.5t15.5 40.5z" />
    <glyph glyph-name="lcommaaccent" unicode="&#x13c;" horiz-adv-x="273" 
d="M18 0v58h57q14 0 14 23v498q0 27 -14 27h-59v58h56q65 0 112 9v-592q0 -23 14 -23h55v-58h-235zM153 -138q0 3 -1 5q-13 -10 -29 -10q-20 0 -32.5 12t-12.5 32q0 21 15 35t39 14q29 0 50 -23t21 -58q0 -47 -27.5 -75.5t-73.5 -28.5q-18 0 -30 5v41q20 -4 24 -4
q26 0 41.5 14.5t15.5 40.5z" />
    <glyph glyph-name="Lcaron" unicode="&#x13d;" horiz-adv-x="657" 
d="M568 570q0 4 -1 6q-17 -12 -36 -12q-24 0 -38.5 14t-14.5 39q0 26 18 42t47 16q36 0 61 -27.5t25 -70.5q0 -54 -33 -88t-87 -34q-16 0 -36 5v50q12 -4 29 -4q31 0 48.5 16.5t17.5 47.5zM19 0v58h60q16 0 16 25v499q0 14 -3.5 19t-12.5 5h-60v58h251v-58h-63
q-9 0 -12.5 -4.5t-3.5 -19.5v-524h190q24 0 33.5 5t11.5 21l13 107h64v-191h-484z" />
    <glyph glyph-name="lcaron" unicode="&#x13e;" horiz-adv-x="470" 
d="M363 577q0 4 -1 6q-16 -12 -36 -12q-24 0 -38.5 14t-14.5 39q0 26 18 42t47 16q36 0 61 -27.5t25 -70.5q0 -54 -33 -88t-87 -34q-16 0 -36 5v50q12 -4 29 -4q31 0 48.5 16.5t17.5 47.5zM18 0v58h57q14 0 14 23v498q0 27 -14 27h-59v58h56q65 0 112 9v-592q0 -23 14 -23
h55v-58h-235z" />
    <glyph glyph-name="Ldot" unicode="&#x13f;" horiz-adv-x="600" 
d="M19 0v58h60q16 0 16 25v499q0 14 -3.5 19t-12.5 5h-60v58h251v-58h-63q-9 0 -12.5 -4.5t-3.5 -19.5v-524h190q24 0 33.5 5t11.5 21l13 107h64v-191h-484zM567 268q-28 0 -45.5 18t-17.5 46t17.5 45.5t45.5 17.5t46 -17.5t18 -45.5t-18 -46t-46 -18z" />
    <glyph glyph-name="ldot" unicode="&#x140;" horiz-adv-x="435" 
d="M18 0v58h57q14 0 14 23v498q0 27 -14 27h-59v58h56q65 0 112 9v-592q0 -23 14 -23h55v-58h-235zM355 179q-28 0 -45.5 18t-17.5 46t17.5 45.5t45.5 17.5t46 -17.5t18 -45.5t-18 -46t-46 -18z" />
    <glyph glyph-name="Lslash" unicode="&#x141;" horiz-adv-x="536" 
d="M10 179v57l85 35v311q0 14 -3.5 19t-12.5 5h-60v58h251v-58h-63q-9 0 -12.5 -4.5t-3.5 -19.5v-270l141 59v-57l-141 -59v-197h190q24 0 33.5 5t11.5 21l13 107h64v-191h-484v58h60q16 0 16 25v131z" />
    <glyph glyph-name="lslash" unicode="&#x142;" horiz-adv-x="273" 
d="M17 186v58l72 29v309q0 27 -14 27h-59v55h56q65 0 112 9v-362l69 28v-57l-69 -28v-176q0 -23 14 -23h52v-55h-232v55h57q14 0 14 23v137z" />
    <glyph glyph-name="Nacute" unicode="&#x143;" horiz-adv-x="736" 
d="M21 664h182l376 -504v422q0 15 -3 19.5t-12 4.5h-63v58h220v-58h-63q-9 0 -12.5 -4.5t-3.5 -19.5v-584h-64l-416 556v-472q0 -14 3.5 -19t12.5 -5h63v-58h-220v58h63q9 0 12.5 5t3.5 19v500q0 14 -3.5 19t-12.5 5h-63v58zM327 705l99 138h87l1 -30l-141 -108h-46z" />
    <glyph glyph-name="nacute" unicode="&#x144;" horiz-adv-x="590" 
d="M182 494v-113q49 116 171 116q154 0 154 -173v-243q0 -14 3.5 -18.5t11.5 -4.5h56v-58h-232v58h52q14 0 14 23v240q0 57 -22.5 83t-71.5 26q-63 0 -99 -51t-36 -146v-152q0 -14 3.5 -18.5t11.5 -4.5h53v-58h-234v58h56q8 0 11.5 4.5t3.5 18.5v319q0 27 -15 27h-56v58h54
q64 0 111 9zM237 526l99 138h87l1 -30l-141 -108h-46z" />
    <glyph glyph-name="Ncommaaccent" unicode="&#x145;" horiz-adv-x="736" 
d="M21 664h182l376 -504v422q0 15 -3 19.5t-12 4.5h-63v58h220v-58h-63q-9 0 -12.5 -4.5t-3.5 -19.5v-584h-64l-416 556v-472q0 -14 3.5 -19t12.5 -5h63v-58h-220v58h63q9 0 12.5 5t3.5 19v500q0 14 -3.5 19t-12.5 5h-63v58zM396 -138q0 3 -1 5q-13 -10 -29 -10
q-20 0 -32.5 12t-12.5 32q0 21 15 35t39 14q29 0 50 -23t21 -58q0 -47 -27.5 -75.5t-73.5 -28.5q-18 0 -30 5v41q20 -4 24 -4q26 0 41.5 14.5t15.5 40.5z" />
    <glyph glyph-name="ncommaaccent" unicode="&#x146;" horiz-adv-x="590" 
d="M182 494v-113q49 116 171 116q154 0 154 -173v-243q0 -14 3.5 -18.5t11.5 -4.5h56v-58h-232v58h52q14 0 14 23v240q0 57 -22.5 83t-71.5 26q-63 0 -99 -51t-36 -146v-152q0 -14 3.5 -18.5t11.5 -4.5h53v-58h-234v58h56q8 0 11.5 4.5t3.5 18.5v319q0 27 -15 27h-56v58h54
q64 0 111 9zM314 -138q0 3 -1 5q-13 -10 -29 -10q-20 0 -32.5 12t-12.5 32q0 21 15 35t39 14q29 0 50 -23t21 -58q0 -47 -27.5 -75.5t-73.5 -28.5q-18 0 -30 5v41q20 -4 24 -4q26 0 41.5 14.5t15.5 40.5z" />
    <glyph glyph-name="Ncaron" unicode="&#x147;" horiz-adv-x="736" 
d="M21 664h182l376 -504v422q0 15 -3 19.5t-12 4.5h-63v58h220v-58h-63q-9 0 -12.5 -4.5t-3.5 -19.5v-584h-64l-416 556v-472q0 -14 3.5 -19t12.5 -5h63v-58h-220v58h63q9 0 12.5 5t3.5 19v500q0 14 -3.5 19t-12.5 5h-63v58zM260 839h50l70 -88l69 88h51l-86 -135h-68z" />
    <glyph glyph-name="ncaron" unicode="&#x148;" horiz-adv-x="590" 
d="M182 494v-113q49 116 171 116q154 0 154 -173v-243q0 -14 3.5 -18.5t11.5 -4.5h56v-58h-232v58h52q14 0 14 23v240q0 57 -22.5 83t-71.5 26q-63 0 -99 -51t-36 -146v-152q0 -14 3.5 -18.5t11.5 -4.5h53v-58h-234v58h56q8 0 11.5 4.5t3.5 18.5v319q0 27 -15 27h-56v58h54
q64 0 111 9zM182 660h50l70 -88l69 88h51l-86 -135h-68z" />
    <glyph glyph-name="Omacron" unicode="&#x14c;" 
d="M210 737v58h289v-58h-289zM353 -12q-149 0 -238 94t-89 249q0 154 92.5 249.5t238.5 95.5q147 0 236 -94.5t89 -250.5q0 -154 -91.5 -248.5t-237.5 -94.5zM354 54q107 0 168 67t61 193v34q0 126 -61 194t-166 68q-107 0 -168 -68t-61 -194v-34q0 -126 60.5 -193
t166.5 -67z" />
    <glyph glyph-name="omacron" unicode="&#x14d;" horiz-adv-x="545" 
d="M128 558v58h289v-58h-289zM271 -12q-111 0 -179.5 70.5t-68.5 184.5q0 113 70 183.5t182 70.5q110 0 178 -70.5t68 -183.5t-69 -184t-181 -71zM272 49q74 0 114 49t40 140v9q0 92 -39.5 140.5t-113.5 48.5t-114 -49t-40 -140v-9q0 -92 39.5 -140.5t113.5 -48.5z" />
    <glyph glyph-name="Obreve" unicode="&#x14e;" 
d="M353 -12q-149 0 -238 94t-89 249q0 154 92.5 249.5t238.5 95.5q147 0 236 -94.5t89 -250.5q0 -154 -91.5 -248.5t-237.5 -94.5zM354 54q107 0 168 67t61 193v34q0 126 -61 194t-166 68q-107 0 -168 -68t-61 -194v-34q0 -126 60.5 -193t166.5 -67zM359 711q-62 0 -96 35
t-34 98h52q0 -86 78 -86q77 0 77 86h52q0 -64 -33.5 -98.5t-95.5 -34.5z" />
    <glyph glyph-name="obreve" unicode="&#x14f;" horiz-adv-x="545" 
d="M271 -12q-111 0 -179.5 70.5t-68.5 184.5q0 113 70 183.5t182 70.5q110 0 178 -70.5t68 -183.5t-69 -184t-181 -71zM272 49q74 0 114 49t40 140v9q0 92 -39.5 140.5t-113.5 48.5t-114 -49t-40 -140v-9q0 -92 39.5 -140.5t113.5 -48.5zM272 532q-62 0 -96 35t-34 98h52
q0 -86 78 -86q77 0 77 86h52q0 -64 -33.5 -98.5t-95.5 -34.5z" />
    <glyph glyph-name="Ohungarumlaut" unicode="&#x150;" 
d="M379 705l107 151h70l1 -31l-133 -120h-45zM226 705l107 151h77l-21 -39l-118 -112h-45zM353 -12q-149 0 -238 94t-89 249q0 154 92.5 249.5t238.5 95.5q147 0 236 -94.5t89 -250.5q0 -154 -91.5 -248.5t-237.5 -94.5zM354 54q107 0 168 67t61 193v34q0 126 -61 194
t-166 68q-107 0 -168 -68t-61 -194v-34q0 -126 60.5 -193t166.5 -67z" />
    <glyph glyph-name="ohungarumlaut" unicode="&#x151;" horiz-adv-x="545" 
d="M302 526l107 151h70l1 -31l-133 -120h-45zM149 526l107 151h77l-21 -39l-118 -112h-45zM271 -12q-111 0 -179.5 70.5t-68.5 184.5q0 113 70 183.5t182 70.5q110 0 178 -70.5t68 -183.5t-69 -184t-181 -71zM272 49q74 0 114 49t40 140v9q0 92 -39.5 140.5t-113.5 48.5
t-114 -49t-40 -140v-9q0 -92 39.5 -140.5t113.5 -48.5z" />
    <glyph glyph-name="OE" unicode="&#x152;" horiz-adv-x="941" 
d="M377 0q-171 0 -261 86.5t-90 248.5q0 155 93 242t268 87h500v-152h-52l-8 68q-7 16 -15 21t-30 5h-219v-241h115q14 0 19 5.5t5 19.5l1 44h57v-197h-57l-1 44q0 27 -24 27h-115v-250h235q23 0 30.5 4.5t13.5 21.5l8 68h53v-152h-526zM462 58v548h-78q-252 0 -252 -256
v-34q0 -131 59 -194.5t186 -63.5h85z" />
    <glyph glyph-name="oe" unicode="&#x153;" horiz-adv-x="928" 
d="M271 -12q-112 0 -179.5 69.5t-67.5 185.5q0 115 68.5 184.5t181.5 69.5q145 0 204 -116q57 116 202 116q106 0 165.5 -65.5t59.5 -179.5v-25h-377q1 -81 43.5 -129t118.5 -48q120 0 153 111l58 -23q-19 -68 -74.5 -109t-145.5 -41q-147 0 -203 116q-59 -116 -207 -116z
M274 48q75 0 115 49.5t40 140.5v9q0 92 -39.5 141t-114.5 49q-76 0 -116 -49t-40 -141v-9q0 -92 40 -141t115 -49zM679 439q-68 0 -106.5 -40.5t-44.5 -117.5h282q-3 158 -131 158z" />
    <glyph glyph-name="Racute" unicode="&#x154;" horiz-adv-x="619" 
d="M228 705l99 138h87l1 -30l-141 -108h-46zM551 486q0 -138 -148 -166q63 -19 92 -64.5t35 -119.5q3 -47 15.5 -62.5t43.5 -15.5h22v-58h-74q-58 0 -84 37t-32 109q-4 79 -33.5 115t-104.5 36h-93v-214q0 -25 15 -25h60v-58h-246v58h60q16 0 16 25v499q0 24 -16 24h-60v58
h303q117 0 173 -43.5t56 -134.5zM190 606v-256h97q84 0 122 31t38 100q0 66 -35 95.5t-112 29.5h-110z" />
    <glyph glyph-name="racute" unicode="&#x155;" horiz-adv-x="437" 
d="M123 526l99 138h87l1 -30l-141 -108h-46zM183 494v-113q35 116 134 116q51 0 79.5 -29t28.5 -76q0 -38 -20 -61t-52 -23q-22 0 -37.5 15.5t-15.5 36.5q0 18 11.5 33t30.5 19q-11 22 -44 22q-56 0 -84.5 -51t-28.5 -139v-163q0 -23 14 -23h61v-58h-241v58h56q8 0 11.5 4.5
t3.5 18.5v319q0 27 -15 27h-58v58h54q65 0 112 9z" />
    <glyph glyph-name="Rcommaaccent" unicode="&#x156;" horiz-adv-x="619" 
d="M551 486q0 -138 -148 -166q63 -19 92 -64.5t35 -119.5q3 -47 15.5 -62.5t43.5 -15.5h22v-58h-74q-58 0 -84 37t-32 109q-4 79 -33.5 115t-104.5 36h-93v-214q0 -25 15 -25h60v-58h-246v58h60q16 0 16 25v499q0 24 -16 24h-60v58h303q117 0 173 -43.5t56 -134.5zM190 606
v-256h97q84 0 122 31t38 100q0 66 -35 95.5t-112 29.5h-110zM358 -138q0 3 -1 5q-13 -10 -29 -10q-20 0 -32.5 12t-12.5 32q0 21 15 35t39 14q29 0 50 -23t21 -58q0 -47 -27.5 -75.5t-73.5 -28.5q-18 0 -30 5v41q20 -4 24 -4q26 0 41.5 14.5t15.5 40.5z" />
    <glyph glyph-name="rcommaaccent" unicode="&#x157;" horiz-adv-x="437" 
d="M183 494v-113q35 116 134 116q51 0 79.5 -29t28.5 -76q0 -38 -20 -61t-52 -23q-22 0 -37.5 15.5t-15.5 36.5q0 18 11.5 33t30.5 19q-11 22 -44 22q-56 0 -84.5 -51t-28.5 -139v-163q0 -23 14 -23h61v-58h-241v58h56q8 0 11.5 4.5t3.5 18.5v319q0 27 -15 27h-58v58h54
q65 0 112 9zM150 -138q0 3 -1 5q-13 -10 -29 -10q-20 0 -32.5 12t-12.5 32q0 21 15 35t39 14q29 0 50 -23t21 -58q0 -47 -27.5 -75.5t-73.5 -28.5q-18 0 -30 5v41q20 -4 24 -4q26 0 41.5 14.5t15.5 40.5z" />
    <glyph glyph-name="Rcaron" unicode="&#x158;" horiz-adv-x="619" 
d="M551 486q0 -138 -148 -166q63 -19 92 -64.5t35 -119.5q3 -47 15.5 -62.5t43.5 -15.5h22v-58h-74q-58 0 -84 37t-32 109q-4 79 -33.5 115t-104.5 36h-93v-214q0 -25 15 -25h60v-58h-246v58h60q16 0 16 25v499q0 24 -16 24h-60v58h303q117 0 173 -43.5t56 -134.5zM190 606
v-256h97q84 0 122 31t38 100q0 66 -35 95.5t-112 29.5h-110zM170 839h50l70 -88l69 88h51l-86 -135h-68z" />
    <glyph glyph-name="rcaron" unicode="&#x159;" horiz-adv-x="437" 
d="M183 494v-113q35 116 134 116q51 0 79.5 -29t28.5 -76q0 -38 -20 -61t-52 -23q-22 0 -37.5 15.5t-15.5 36.5q0 18 11.5 33t30.5 19q-11 22 -44 22q-56 0 -84.5 -51t-28.5 -139v-163q0 -23 14 -23h61v-58h-241v58h56q8 0 11.5 4.5t3.5 18.5v319q0 27 -15 27h-58v58h54
q65 0 112 9zM80 660h50l70 -88l69 88h51l-86 -135h-68z" />
    <glyph glyph-name="Sacute" unicode="&#x15a;" horiz-adv-x="548" 
d="M200 705l99 138h87l1 -30l-141 -108h-46zM268 -12q-129 0 -230 56v155h78v-120q65 -28 156 -28q66 0 105 29.5t39 82.5q0 55 -39.5 80t-133.5 46q-100 22 -151.5 64t-51.5 123q0 92 65.5 146t177.5 54q110 0 206 -47v-160h-77v122q-58 22 -129 22t-110.5 -30t-39.5 -84
q0 -51 36.5 -75.5t123.5 -44.5q106 -24 162 -64.5t56 -124.5q0 -91 -65 -146.5t-178 -55.5z" />
    <glyph glyph-name="sacute" unicode="&#x15b;" horiz-adv-x="441" 
d="M30 31v126h74v-94q41 -19 108 -19q113 0 113 79q0 39 -30.5 55.5t-95.5 29.5q-37 7 -62.5 15t-52.5 23.5t-40.5 41t-13.5 60.5q0 68 52 108.5t144 40.5q96 0 172 -41v-125h-74v89q-35 21 -96 21q-52 0 -81 -20t-29 -56q0 -27 19 -43.5t36.5 -21.5t61.5 -13q6 -1 9 -2
q80 -15 124.5 -46t44.5 -98q0 -70 -53 -111.5t-147 -41.5q-97 0 -183 43zM147 526l99 138h87l1 -30l-141 -108h-46z" />
    <glyph glyph-name="Scircumflex" unicode="&#x15c;" horiz-adv-x="548" 
d="M216 704h-51l85 135h68l85 -135h-52l-67 89zM268 -12q-129 0 -230 56v155h78v-120q65 -28 156 -28q66 0 105 29.5t39 82.5q0 55 -39.5 80t-133.5 46q-100 22 -151.5 64t-51.5 123q0 92 65.5 146t177.5 54q110 0 206 -47v-160h-77v122q-58 22 -129 22t-110.5 -30
t-39.5 -84q0 -51 36.5 -75.5t123.5 -44.5q106 -24 162 -64.5t56 -124.5q0 -91 -65 -146.5t-178 -55.5z" />
    <glyph glyph-name="scircumflex" unicode="&#x15d;" horiz-adv-x="441" 
d="M158 525h-51l85 135h68l85 -135h-52l-67 89zM30 31v126h74v-94q41 -19 108 -19q113 0 113 79q0 39 -30.5 55.5t-95.5 29.5q-37 7 -62.5 15t-52.5 23.5t-40.5 41t-13.5 60.5q0 68 52 108.5t144 40.5q96 0 172 -41v-125h-74v89q-35 21 -96 21q-52 0 -81 -20t-29 -56
q0 -27 19 -43.5t36.5 -21.5t61.5 -13q6 -1 9 -2q80 -15 124.5 -46t44.5 -98q0 -70 -53 -111.5t-147 -41.5q-97 0 -183 43z" />
    <glyph glyph-name="Scedilla" unicode="&#x15e;" horiz-adv-x="548" 
d="M266 -186q-54 0 -110 27l6 37q56 -22 98 -22q57 0 57 30q0 28 -44 28q-24 0 -39 -9l-4 5v80q-110 8 -192 54v155h78v-120q65 -28 156 -28q66 0 105 29.5t39 82.5q0 55 -39.5 80t-133.5 46q-100 22 -151.5 64t-51.5 123q0 92 65.5 146t177.5 54q110 0 206 -47v-160h-77
v122q-58 22 -129 22t-110.5 -30t-39.5 -84q0 -51 36.5 -75.5t123.5 -44.5q106 -24 162 -64.5t56 -124.5q0 -89 -61.5 -143.5t-167.5 -58.5v-36q4 1 15 1q41 0 64 -17.5t23 -48.5q0 -34 -31 -53.5t-87 -19.5z" />
    <glyph glyph-name="scedilla" unicode="&#x15f;" horiz-adv-x="441" 
d="M206 -186q-54 0 -110 27l6 37q56 -22 98 -22q57 0 57 30q0 28 -44 28q-24 0 -39 -9l-4 5v81q-77 9 -140 40v126h74v-94q41 -19 108 -19q113 0 113 79q0 39 -30.5 55.5t-95.5 29.5q-37 7 -62.5 15t-52.5 23.5t-40.5 41t-13.5 60.5q0 68 52 108.5t144 40.5q96 0 172 -41
v-125h-74v89q-35 21 -96 21q-52 0 -81 -20t-29 -56q0 -27 19 -43.5t36.5 -21.5t61.5 -13q6 -1 9 -2q80 -15 124.5 -46t44.5 -98q0 -68 -50.5 -109.5t-140.5 -43.5v-36q4 1 15 1q41 0 64 -17.5t23 -48.5q0 -34 -31 -53.5t-87 -19.5z" />
    <glyph glyph-name="Scaron" unicode="&#x160;" horiz-adv-x="548" 
d="M268 -12q-129 0 -230 56v155h78v-120q65 -28 156 -28q66 0 105 29.5t39 82.5q0 55 -39.5 80t-133.5 46q-100 22 -151.5 64t-51.5 123q0 92 65.5 146t177.5 54q110 0 206 -47v-160h-77v122q-58 22 -129 22t-110.5 -30t-39.5 -84q0 -51 36.5 -75.5t123.5 -44.5
q106 -24 162 -64.5t56 -124.5q0 -91 -65 -146.5t-178 -55.5zM161 839h50l70 -88l69 88h51l-86 -135h-68z" />
    <glyph glyph-name="scaron" unicode="&#x161;" horiz-adv-x="441" 
d="M30 31v126h74v-94q41 -19 108 -19q113 0 113 79q0 39 -30.5 55.5t-95.5 29.5q-37 7 -62.5 15t-52.5 23.5t-40.5 41t-13.5 60.5q0 68 52 108.5t144 40.5q96 0 172 -41v-125h-74v89q-35 21 -96 21q-52 0 -81 -20t-29 -56q0 -27 19 -43.5t36.5 -21.5t61.5 -13q6 -1 9 -2
q80 -15 124.5 -46t44.5 -98q0 -70 -53 -111.5t-147 -41.5q-97 0 -183 43zM97 660h50l70 -88l69 88h51l-86 -135h-68z" />
    <glyph glyph-name="Tcommaaccent" unicode="&#x162;" horiz-adv-x="638" 
d="M190 0v58h63q16 0 16 25v525h-126q-24 0 -34 -5.5t-11 -21.5l-4 -78h-64v161h575v-161h-65l-3 78q-1 17 -11 22t-35 5h-129v-525q0 -25 16 -25h63v-58h-251zM333 -138q0 3 -1 5q-13 -10 -29 -10q-20 0 -32.5 12t-12.5 32q0 21 15 35t39 14q29 0 50 -23t21 -58
q0 -47 -27.5 -75.5t-73.5 -28.5q-18 0 -30 5v41q20 -4 24 -4q26 0 41.5 14.5t15.5 40.5z" />
    <glyph glyph-name="tcommaaccent" unicode="&#x163;" horiz-adv-x="309" 
d="M215 -11q-72 0 -103.5 32t-31.5 106v300h-73v52l48 3q21 3 31.5 12t12.5 30l9 88h67v-127h107v-58h-110v-299q0 -41 16 -58.5t52 -17.5q22 0 51 9v-60q-36 -12 -76 -12zM183 -138q0 3 -1 5q-13 -10 -29 -10q-20 0 -32.5 12t-12.5 32q0 21 15 35t39 14q29 0 50 -23t21 -58
q0 -47 -27.5 -75.5t-73.5 -28.5q-18 0 -30 5v41q20 -4 24 -4q26 0 41.5 14.5t15.5 40.5z" />
    <glyph glyph-name="Tcaron" unicode="&#x164;" horiz-adv-x="638" 
d="M190 0v58h63q16 0 16 25v525h-126q-24 0 -34 -5.5t-11 -21.5l-4 -78h-64v161h575v-161h-65l-3 78q-1 17 -11 22t-35 5h-129v-525q0 -25 16 -25h63v-58h-251zM199 839h50l70 -88l69 88h51l-86 -135h-68z" />
    <glyph glyph-name="tcaron" unicode="&#x165;" horiz-adv-x="395" 
d="M215 -11q-72 0 -103.5 32t-31.5 106v300h-73v52l48 3q21 3 31.5 12t12.5 30l9 88h67v-127h107v-58h-110v-299q0 -41 16 -58.5t52 -17.5q22 0 51 9v-60q-36 -12 -76 -12zM311 610q0 3 -1 5q-13 -10 -29 -10q-20 0 -32.5 12t-12.5 32q0 21 15 35t39 14q29 0 50 -23t21 -58
q0 -47 -27.5 -75.5t-73.5 -28.5q-18 0 -30 5v41q20 -4 24 -4q26 0 41.5 14.5t15.5 40.5z" />
    <glyph glyph-name="Umacron" unicode="&#x16a;" horiz-adv-x="690" 
d="M345 -12q-139 0 -198 56t-59 188v350q0 15 -3.5 19.5t-12.5 4.5h-55v58h243v-58h-60q-9 0 -12.5 -5t-3.5 -19v-347q0 -101 38.5 -140.5t138.5 -39.5q90 0 131 42.5t41 133.5v351q0 15 -3.5 19.5t-12.5 4.5h-64v58h221v-58h-59q-16 -1 -16 -24v-356q0 -238 -254 -238z
M209 737v58h289v-58h-289z" />
    <glyph glyph-name="umacron" unicode="&#x16b;" horiz-adv-x="578" 
d="M510 0q-64 0 -111 -9v105q-49 -108 -167 -108q-155 0 -155 168v248q0 23 -14 23h-57v58h167v-326q0 -57 23.5 -81t70.5 -24q61 0 96 48t35 129v173q0 23 -14 23h-60v58h169v-400q0 -27 15 -27h58v-58h-56zM125 558v58h289v-58h-289z" />
    <glyph glyph-name="Ubreve" unicode="&#x16c;" horiz-adv-x="690" 
d="M345 -12q-139 0 -198 56t-59 188v350q0 15 -3.5 19.5t-12.5 4.5h-55v58h243v-58h-60q-9 0 -12.5 -5t-3.5 -19v-347q0 -101 38.5 -140.5t138.5 -39.5q90 0 131 42.5t41 133.5v351q0 15 -3.5 19.5t-12.5 4.5h-64v58h221v-58h-59q-16 -1 -16 -24v-356q0 -238 -254 -238z
M358 711q-62 0 -96 35t-34 98h52q0 -86 78 -86q77 0 77 86h52q0 -64 -33.5 -98.5t-95.5 -34.5z" />
    <glyph glyph-name="ubreve" unicode="&#x16d;" horiz-adv-x="578" 
d="M510 0q-64 0 -111 -9v105q-49 -108 -167 -108q-155 0 -155 168v248q0 23 -14 23h-57v58h167v-326q0 -57 23.5 -81t70.5 -24q61 0 96 48t35 129v173q0 23 -14 23h-60v58h169v-400q0 -27 15 -27h58v-58h-56zM268 532q-62 0 -96 35t-34 98h52q0 -86 78 -86q77 0 77 86h52
q0 -64 -33.5 -98.5t-95.5 -34.5z" />
    <glyph glyph-name="Uring" unicode="&#x16e;" horiz-adv-x="690" 
d="M345 -12q-139 0 -198 56t-59 188v350q0 15 -3.5 19.5t-12.5 4.5h-55v58h243v-58h-60q-9 0 -12.5 -5t-3.5 -19v-347q0 -101 38.5 -140.5t138.5 -39.5q90 0 131 42.5t41 133.5v351q0 15 -3.5 19.5t-12.5 4.5h-64v58h221v-58h-59q-16 -1 -16 -24v-356q0 -238 -254 -238z
M354 714q-44 0 -70.5 24.5t-26.5 63.5q0 38 26.5 63t70.5 25t71 -25t27 -63q0 -39 -27 -63.5t-71 -24.5zM354 750q24 0 38 14.5t14 37.5t-14 37.5t-38 14.5t-38 -14.5t-14 -37.5t14 -37.5t38 -14.5z" />
    <glyph glyph-name="uring" unicode="&#x16f;" horiz-adv-x="578" 
d="M510 0q-64 0 -111 -9v105q-49 -108 -167 -108q-155 0 -155 168v248q0 23 -14 23h-57v58h167v-326q0 -57 23.5 -81t70.5 -24q61 0 96 48t35 129v173q0 23 -14 23h-60v58h169v-400q0 -27 15 -27h58v-58h-56zM265 535q-44 0 -70.5 24.5t-26.5 63.5q0 38 26.5 63t70.5 25
t71 -25t27 -63q0 -39 -27 -63.5t-71 -24.5zM265 571q24 0 38 14.5t14 37.5t-14 37.5t-38 14.5t-38 -14.5t-14 -37.5t14 -37.5t38 -14.5z" />
    <glyph glyph-name="Uhungarumlaut" unicode="&#x170;" horiz-adv-x="690" 
d="M345 -12q-139 0 -198 56t-59 188v350q0 15 -3.5 19.5t-12.5 4.5h-55v58h243v-58h-60q-9 0 -12.5 -5t-3.5 -19v-347q0 -101 38.5 -140.5t138.5 -39.5q90 0 131 42.5t41 133.5v351q0 15 -3.5 19.5t-12.5 4.5h-64v58h221v-58h-59q-16 -1 -16 -24v-356q0 -238 -254 -238z
M387 705l107 151h70l1 -31l-133 -120h-45zM234 705l107 151h77l-21 -39l-118 -112h-45z" />
    <glyph glyph-name="uhungarumlaut" unicode="&#x171;" horiz-adv-x="578" 
d="M510 0q-64 0 -111 -9v105q-49 -108 -167 -108q-155 0 -155 168v248q0 23 -14 23h-57v58h167v-326q0 -57 23.5 -81t70.5 -24q61 0 96 48t35 129v173q0 23 -14 23h-60v58h169v-400q0 -27 15 -27h58v-58h-56zM289 526l107 151h70l1 -31l-133 -120h-45zM136 526l107 151h77
l-21 -39l-118 -112h-45z" />
    <glyph glyph-name="Uogonek" unicode="&#x172;" horiz-adv-x="690" 
d="M345 -12q-140 0 -198.5 56t-58.5 186v352q0 15 -3.5 19.5t-12.5 4.5h-55v58h243v-58h-60q-9 0 -12.5 -5t-3.5 -19v-347q0 -100 38.5 -140t138.5 -40q91 0 131.5 42.5t40.5 133.5v351q0 15 -3.5 19.5t-12.5 4.5h-64v58h221v-58h-59q-16 -1 -16 -24v-356q0 -79 -26.5 -130
t-82.5 -80q-77 -41 -77 -95q0 -42 43 -42q19 0 39 10v-49q-29 -12 -57 -12q-43 0 -67.5 20t-24.5 54q0 55 50 89q-22 -3 -51 -3z" />
    <glyph glyph-name="uogonek" unicode="&#x173;" horiz-adv-x="578" 
d="M493 85q0 -27 15 -27h58v-58q-39 -4 -61.5 -29t-22.5 -51q0 -41 44 -41q19 0 39 10v-50q-29 -11 -56 -11q-44 0 -69 20t-25 54q0 60 76 98q-63 -2 -92 -9v105q-49 -108 -167 -108q-155 0 -155 168v248q0 23 -14 23h-57v58h167v-326q0 -57 23.5 -81t70.5 -24q61 0 96 48
t35 129v173q0 23 -14 23h-60v58h169v-400z" />
    <glyph glyph-name="Wcircumflex" unicode="&#x174;" horiz-adv-x="1023" 
d="M453 704h-51l85 135h68l85 -135h-52l-67 89zM269 -2l-173 582q-9 26 -27 26h-53v58h249v-58h-58q-22 0 -14 -24l130 -435l149 440q5 19 -10 19h-69v58h266v-58h-71q-17 0 -11 -19l152 -440l127 435q6 24 -13 24h-67v58h231v-58h-56q-23 0 -29 -26l-175 -582h-66l-173 512
l-173 -512h-66z" />
    <glyph glyph-name="wcircumflex" unicode="&#x175;" horiz-adv-x="814" 
d="M352 525h-51l85 135h68l85 -135h-52l-67 89zM210 -6l-140 410q-8 23 -23 23h-44v58h224v-58h-44q-25 0 -16 -25l95 -288q7 20 33.5 92t48 132.5t22.5 63.5q4 12 -1 18.5t-15 6.5h-34v58h216v-58h-36q-26 0 -16 -25q1 -3 23.5 -63t50.5 -134t35 -94q7 21 30 93t42.5 132.5
t20.5 64.5q6 26 -16 26h-47v58h192v-58h-42q-9 0 -13.5 -4.5t-9.5 -18.5l-139 -410h-66l-131 361l-134 -361h-66z" />
    <glyph glyph-name="Ycircumflex" unicode="&#x176;" horiz-adv-x="661" 
d="M208 0v58h63q16 0 16 25v213l-187 289q-15 21 -28 21h-54v58h263v-58h-61q-10 0 -12.5 -7.5t3.5 -17.5l139 -219l140 223q4 7 1 14t-9 7h-69v58h236v-58h-57q-18 0 -32 -21l-180 -280v-222q0 -15 3.5 -20t12.5 -5h63v-58h-251zM273 704h-51l85 135h68l85 -135h-52l-67 89
z" />
    <glyph glyph-name="ycircumflex" unicode="&#x177;" horiz-adv-x="558" 
d="M121 -123q41 0 69.5 30t60.5 107v4l-182 386q-7 15 -11 19t-12 4h-42v58h224v-58h-44q-11 0 -15.5 -7t0.5 -18l134 -283l121 282q10 26 -17 26h-47v58h195v-58h-44q-17 0 -26 -23l-171 -402q-43 -101 -83 -142.5t-110 -41.5q-50 0 -82 25t-32 67q0 33 17.5 52.5
t46.5 19.5q42 0 51.5 -34.5t-24.5 -67.5q9 -3 23 -3zM224 525h-51l85 135h68l85 -135h-52l-67 89z" />
    <glyph glyph-name="Ydieresis" unicode="&#x178;" horiz-adv-x="661" 
d="M208 0v58h63q16 0 16 25v213l-187 289q-15 21 -28 21h-54v58h263v-58h-61q-10 0 -12.5 -7.5t3.5 -17.5l139 -219l140 223q4 7 1 14t-9 7h-69v58h236v-58h-57q-18 0 -32 -21l-180 -280v-222q0 -15 3.5 -20t12.5 -5h63v-58h-251zM254 714q-22 0 -36 14t-14 37t13.5 37
t36.5 14t37 -14t14 -37t-14.5 -37t-36.5 -14zM423 714q-22 0 -36 14t-14 37t13.5 37t36.5 14t37 -14t14 -37t-14 -37t-37 -14z" />
    <glyph glyph-name="Zacute" unicode="&#x179;" horiz-adv-x="593" 
d="M228 705l99 138h87l1 -30l-141 -108h-46zM28 0v54l419 552h-285q-22 0 -31 -5t-11 -20l-13 -112h-58v195h511v-54l-419 -552h299q24 0 34 5.5t11 20.5l13 111h58v-195h-528z" />
    <glyph glyph-name="zacute" unicode="&#x17a;" horiz-adv-x="479" 
d="M176 526l99 138h87l1 -30l-141 -108h-46zM22 0v50l323 382h-196q-24 0 -33 -4.5t-11 -20.5l-9 -87h-59v165h417v-50l-323 -382h206q24 0 33 5t11 20l9 88h59v-166h-427z" />
    <glyph glyph-name="Zdotaccent" unicode="&#x17b;" horiz-adv-x="593" 
d="M28 0v54l419 552h-285q-22 0 -31 -5t-11 -20l-13 -112h-58v195h511v-54l-419 -552h299q24 0 34 5.5t11 20.5l13 111h58v-195h-528zM306 728q-22 0 -36 13.5t-14 35.5t13.5 35t36.5 13t37 -13t14 -35t-14 -35.5t-37 -13.5z" />
    <glyph glyph-name="zdotaccent" unicode="&#x17c;" horiz-adv-x="479" 
d="M22 0v50l323 382h-196q-24 0 -33 -4.5t-11 -20.5l-9 -87h-59v165h417v-50l-323 -382h206q24 0 33 5t11 20l9 88h59v-166h-427zM253 549q-22 0 -36 13.5t-14 35.5t13.5 35t36.5 13t37 -13t14 -35t-14 -35.5t-37 -13.5z" />
    <glyph glyph-name="Zcaron" unicode="&#x17d;" horiz-adv-x="593" 
d="M28 0v54l419 552h-285q-22 0 -31 -5t-11 -20l-13 -112h-58v195h511v-54l-419 -552h299q24 0 34 5.5t11 20.5l13 111h58v-195h-528zM177 839h50l70 -88l69 88h51l-86 -135h-68z" />
    <glyph glyph-name="zcaron" unicode="&#x17e;" horiz-adv-x="479" 
d="M22 0v50l323 382h-196q-24 0 -33 -4.5t-11 -20.5l-9 -87h-59v165h417v-50l-323 -382h206q24 0 33 5t11 20l9 88h59v-166h-427zM116 660h50l70 -88l69 88h51l-86 -135h-68z" />
    <glyph glyph-name="florin" unicode="&#x192;" horiz-adv-x="512" 
d="M106 374v58h128l33 122q18 68 56 98.5t102 26.5q54 -4 86 -27l-14 -53q-15 14 -45 18q-41 3 -64 -14.5t-35 -69.5l-27 -101h125v-58h-140l-68 -250q-20 -74 -58.5 -107t-107.5 -28q-47 5 -77 24l14 53q18 -14 45 -17q40 -2 60 15.5t34 69.5l65 240h-112z" />
    <glyph glyph-name="Aringacute" unicode="&#x1fa;" horiz-adv-x="728" 
d="M278 823l99 138h87l1 -30l-141 -108h-46zM464 721q0 -52 -46 -76l217 -561q10 -26 28 -26h54v-58h-259v58h60q23 0 14 24l-57 148h-253l-55 -148q-8 -24 14 -24h62v-58h-232v58h60q12 0 18 5t12 21l216 559q-48 22 -48 78q0 39 26.5 64t70.5 25t71 -25t27 -64zM349 570
l-107 -283h214zM366 673q21 0 35 14t14 34t-14 34.5t-35 14.5t-34.5 -14t-13.5 -35q0 -20 13.5 -34t34.5 -14z" />
    <glyph glyph-name="aringacute" unicode="&#x1fb;" horiz-adv-x="537" 
d="M161 722l99 138h87l1 -30l-141 -108h-46zM243 438q-69 0 -101 -26q26 -16 26 -51q0 -26 -17 -42t-43 -16q-29 0 -46.5 18t-17.5 49q0 61 61 94t152 33q105 0 152.5 -39.5t47.5 -127.5v-249q0 -23 14 -23h55v-58h-142q-13 34 -20 95q-20 -48 -70.5 -77.5t-112.5 -29.5
q-67 0 -108 36t-41 92q0 83 79.5 124t250.5 62v27q0 57 -28.5 83t-90.5 26zM214 51q67 0 107.5 45t40.5 117v40q-125 -14 -181.5 -40.5t-56.5 -81.5q0 -36 25 -58t65 -22zM256 535q-44 0 -70.5 24.5t-26.5 63.5q0 38 26.5 63t70.5 25t71 -25t27 -63q0 -39 -27 -63.5
t-71 -24.5zM256 575q21 0 35 14t14 34t-14 34t-35 14t-34.5 -14t-13.5 -34t13.5 -34t34.5 -14z" />
    <glyph glyph-name="AEacute" unicode="&#x1fc;" horiz-adv-x="937" 
d="M700 237v44q0 27 -25 27h-109v-250h229q22 0 29.5 4.5t14.5 21.5l8 68h52v-152h-505v58h60q9 0 12.5 4.5t3.5 19.5v153h-202l-86 -153q-13 -24 9 -24h51v-58h-224v58h48q25 0 39 26l282 494q6 13 2 20.5t-13 7.5h-69v58h577v-152h-52l-9 68q-6 16 -14 21t-30 5h-213v-241
h109q14 0 19.5 5.5t5.5 19.5v44h57v-197h-57zM297 290h173v308zM525 705l99 138h87l1 -30l-141 -108h-46z" />
    <glyph glyph-name="aeacute" unicode="&#x1fd;" horiz-adv-x="843" 
d="M820 227h-377q1 -81 43.5 -129t119.5 -48q119 0 152 111l58 -23q-19 -68 -74.5 -109t-148.5 -41q-153 0 -208 120q-26 -58 -78.5 -89t-119.5 -31q-70 0 -112.5 36t-42.5 92q0 86 79 127t250 46v2l-7 5v35q0 55 -26.5 81t-86.5 26q-58 0 -107 -27q29 -15 29 -49
q0 -24 -16.5 -38.5t-40.5 -14.5q-28 0 -45 16.5t-17 45.5q0 58 61 92t151 34q123 0 154 -83q62 83 182 83q108 0 168 -65.5t60 -179.5v-25zM593 439q-67 0 -105.5 -40.5t-44.5 -117.5h282q-3 158 -132 158zM360 202l-3 33q-125 0 -179 -24.5t-54 -79.5q0 -35 24.5 -57.5
t63.5 -22.5q65 0 103.5 39t44.5 112zM385 526l99 138h87l1 -30l-141 -108h-46z" />
    <glyph glyph-name="Oslashacute" unicode="&#x1fe;" 
d="M21 0l86 94q-78 92 -78 237q0 155 92 250t239 95q124 0 211 -73l56 61h65l-87 -95q79 -95 79 -238q0 -155 -91 -249t-238 -94q-129 0 -214 73l-56 -61h-64zM356 54q106 0 167 70t61 197v20q0 98 -37 164l-353 -386q59 -65 162 -65zM130 321q0 -96 36 -162l352 386
q-60 65 -159 65q-105 0 -167 -71t-62 -198v-20zM301 705l99 138h87l1 -30l-141 -108h-46z" />
    <glyph glyph-name="oslashacute" unicode="&#x1ff;" horiz-adv-x="545" 
d="M24 0l59 67q-59 68 -59 176q0 114 69 184t182 70q86 0 148 -45l33 38h65l-62 -70q62 -70 62 -177q0 -113 -69 -184t-181 -71q-89 0 -152 46l-30 -34h-65zM272 47q75 0 114.5 50t39.5 141v9q0 70 -25 118l-237 -276q38 -42 108 -42zM119 238q0 -71 22 -115
q212 245 238 274q-39 41 -106 41q-75 0 -114.5 -49.5t-39.5 -141.5v-9zM220 526l99 138h87l1 -30l-141 -108h-46z" />
    <glyph glyph-name="Scommaaccent" unicode="&#x218;" horiz-adv-x="548" 
d="M268 -12q-129 0 -230 56v155h78v-120q65 -28 156 -28q66 0 105 29.5t39 82.5q0 55 -39.5 80t-133.5 46q-100 22 -151.5 64t-51.5 123q0 92 65.5 146t177.5 54q110 0 206 -47v-160h-77v122q-58 22 -129 22t-110.5 -30t-39.5 -84q0 -51 36.5 -75.5t123.5 -44.5
q106 -24 162 -64.5t56 -124.5q0 -91 -65 -146.5t-178 -55.5zM287 -138q0 3 -1 5q-13 -10 -29 -10q-20 0 -32.5 12t-12.5 32q0 21 15 35t39 14q29 0 50 -23t21 -58q0 -47 -27.5 -75.5t-73.5 -28.5q-18 0 -30 5v41q20 -4 24 -4q26 0 41.5 14.5t15.5 40.5z" />
    <glyph glyph-name="scommaaccent" unicode="&#x219;" horiz-adv-x="441" 
d="M228 -138q0 3 -1 5q-13 -10 -29 -10q-20 0 -32.5 12t-12.5 32q0 21 15 35t39 14q29 0 50 -23t21 -58q0 -47 -27.5 -75.5t-73.5 -28.5q-18 0 -30 5v41q20 -4 24 -4q26 0 41.5 14.5t15.5 40.5zM30 31v126h74v-94q41 -19 108 -19q113 0 113 79q0 39 -30.5 55.5t-95.5 29.5
q-37 7 -62.5 15t-52.5 23.5t-40.5 41t-13.5 60.5q0 68 52 108.5t144 40.5q96 0 172 -41v-125h-74v89q-35 21 -96 21q-52 0 -81 -20t-29 -56q0 -27 19 -43.5t36.5 -21.5t61.5 -13q6 -1 9 -2q80 -15 124.5 -46t44.5 -98q0 -70 -53 -111.5t-147 -41.5q-97 0 -183 43z" />
    <glyph glyph-name="dotlessj" unicode="&#x237;" horiz-adv-x="245" 
d="M-3 -171v57q2 -1 18 -1q40 0 54 18t14 76v408q0 23 -4.5 31.5t-17.5 8.5h-48v58h54q65 0 112 9v-509q0 -91 -30 -125.5t-109 -34.5q-29 0 -43 4z" />
    <glyph glyph-name="circumflex" unicode="&#x2c6;" horiz-adv-x="500" 
d="M182 525h-51l85 135h68l85 -135h-52l-67 89z" />
    <glyph glyph-name="caron" unicode="&#x2c7;" horiz-adv-x="500" 
d="M130 660h50l70 -88l69 88h51l-86 -135h-68z" />
    <glyph glyph-name="breve" unicode="&#x2d8;" horiz-adv-x="500" 
d="M250 532q-62 0 -96 35t-34 98h52q0 -86 78 -86q77 0 77 86h52q0 -64 -33.5 -98.5t-95.5 -34.5z" />
    <glyph glyph-name="dotaccent" unicode="&#x2d9;" horiz-adv-x="500" 
d="M250 549q-22 0 -36 13.5t-14 35.5t13.5 35t36.5 13t37 -13t14 -35t-14 -35.5t-37 -13.5z" />
    <glyph glyph-name="ring" unicode="&#x2da;" horiz-adv-x="500" 
d="M250 535q-44 0 -70.5 24.5t-26.5 63.5q0 38 26.5 63t70.5 25t71 -25t27 -63q0 -39 -27 -63.5t-71 -24.5zM250 571q24 0 38 14.5t14 37.5t-14 37.5t-38 14.5t-38 -14.5t-14 -37.5t14 -37.5t38 -14.5z" />
    <glyph glyph-name="ogonek" unicode="&#x2db;" horiz-adv-x="500" 
d="M252 -172q-43 0 -68.5 20t-25.5 54q0 78 138 132l5 -27q-76 -35 -76 -87q0 -19 12 -30t32 -11q19 0 39 10v-50q-26 -11 -56 -11z" />
    <glyph glyph-name="tilde" unicode="&#x2dc;" horiz-adv-x="500" 
d="M108 539l4 28q7 79 71 79q32 0 73.5 -28t56.5 -28q24 0 27 29l4 22h48l-3 -29q-9 -81 -71 -81q-32 0 -73.5 28.5t-56.5 28.5q-24 0 -28 -29l-3 -20h-49z" />
    <glyph glyph-name="hungarumlaut" unicode="&#x2dd;" horiz-adv-x="500" 
d="M262 526l107 151h70l1 -31l-133 -120h-45zM109 526l107 151h77l-21 -39l-118 -112h-45z" />
    <glyph glyph-name="pi" unicode="&#x3c0;" horiz-adv-x="736" 
d="M368 -12q-154 0 -249 94.5t-95 248.5t95 249.5t249 95.5q153 0 248.5 -95.5t95.5 -249.5t-95 -248.5t-249 -94.5zM368 29q134 0 217.5 83.5t83.5 218.5t-84 219.5t-217 84.5q-134 0 -217.5 -84t-83.5 -220q0 -135 83.5 -218.5t217.5 -83.5zM228 143v38h36q5 0 5 10v276
q0 10 -5 10h-36v38h166q140 0 140 -108q0 -58 -34 -85t-106 -27h-60v-104q0 -10 5 -10h38v-38h-149zM334 476v-143h55q45 0 65 18t20 55q0 36 -20.5 53t-65.5 17h-54z" />
    <glyph glyph-name="Wgrave" unicode="&#x1e80;" horiz-adv-x="1023" 
d="M269 -2l-173 582q-9 26 -27 26h-53v58h249v-58h-58q-22 0 -14 -24l130 -435l149 440q5 19 -10 19h-69v58h266v-58h-71q-17 0 -11 -19l152 -440l127 435q6 24 -13 24h-67v58h231v-58h-56q-23 0 -29 -26l-175 -582h-66l-173 512l-173 -512h-66zM541 705l-140 108v30h87
l99 -138h-46z" />
    <glyph glyph-name="wgrave" unicode="&#x1e81;" horiz-adv-x="814" 
d="M210 -6l-140 410q-8 23 -23 23h-44v58h224v-58h-44q-25 0 -16 -25l95 -288q7 20 33.5 92t48 132.5t22.5 63.5q4 12 -1 18.5t-15 6.5h-34v58h216v-58h-36q-26 0 -16 -25q1 -3 23.5 -63t50.5 -134t35 -94q7 21 30 93t42.5 132.5t20.5 64.5q6 26 -16 26h-47v58h192v-58h-42
q-9 0 -13.5 -4.5t-9.5 -18.5l-139 -410h-66l-131 361l-134 -361h-66zM452 526l-140 108v30h87l99 -138h-46z" />
    <glyph glyph-name="Wacute" unicode="&#x1e82;" horiz-adv-x="1023" 
d="M461 705l99 138h87l1 -30l-141 -108h-46zM269 -2l-173 582q-9 26 -27 26h-53v58h249v-58h-58q-22 0 -14 -24l130 -435l149 440q5 19 -10 19h-69v58h266v-58h-71q-17 0 -11 -19l152 -440l127 435q6 24 -13 24h-67v58h231v-58h-56q-23 0 -29 -26l-175 -582h-66l-173 512
l-173 -512h-66z" />
    <glyph glyph-name="wacute" unicode="&#x1e83;" horiz-adv-x="814" 
d="M354 526l99 138h87l1 -30l-141 -108h-46zM210 -6l-140 410q-8 23 -23 23h-44v58h224v-58h-44q-25 0 -16 -25l95 -288q7 20 33.5 92t48 132.5t22.5 63.5q4 12 -1 18.5t-15 6.5h-34v58h216v-58h-36q-26 0 -16 -25q1 -3 23.5 -63t50.5 -134t35 -94q7 21 30 93t42.5 132.5
t20.5 64.5q6 26 -16 26h-47v58h192v-58h-42q-9 0 -13.5 -4.5t-9.5 -18.5l-139 -410h-66l-131 361l-134 -361h-66z" />
    <glyph glyph-name="Wdieresis" unicode="&#x1e84;" horiz-adv-x="1023" 
d="M608 721q-22 0 -36 14t-14 37t13.5 37t36.5 14t37 -14t14 -37q0 -22 -14.5 -36.5t-36.5 -14.5zM439 721q-22 0 -36 14t-14 37t13.5 37t36.5 14t37 -14t14 -37q0 -22 -14 -36.5t-37 -14.5zM269 -2l-173 582q-9 26 -27 26h-53v58h249v-58h-58q-22 0 -14 -24l130 -435
l149 440q5 19 -10 19h-69v58h266v-58h-71q-17 0 -11 -19l152 -440l127 435q6 24 -13 24h-67v58h231v-58h-56q-23 0 -29 -26l-175 -582h-66l-173 512l-173 -512h-66z" />
    <glyph glyph-name="wdieresis" unicode="&#x1e85;" horiz-adv-x="814" 
d="M506 542q-22 0 -36 14t-14 37t13.5 37t36.5 14t37 -14t14 -37t-14.5 -37t-36.5 -14zM337 542q-22 0 -36 14t-14 37t13.5 37t36.5 14t37 -14t14 -37t-14 -37t-37 -14zM210 -6l-140 410q-8 23 -23 23h-44v58h224v-58h-44q-25 0 -16 -25l95 -288q7 20 33.5 92t48 132.5
t22.5 63.5q4 12 -1 18.5t-15 6.5h-34v58h216v-58h-36q-26 0 -16 -25q1 -3 23.5 -63t50.5 -134t35 -94q7 21 30 93t42.5 132.5t20.5 64.5q6 26 -16 26h-47v58h192v-58h-42q-9 0 -13.5 -4.5t-9.5 -18.5l-139 -410h-66l-131 361l-134 -361h-66z" />
    <glyph glyph-name="thinspace" unicode="&#x2009;" horiz-adv-x="59" 
 />
    <glyph glyph-name="endash" unicode="&#x2013;" horiz-adv-x="376" 
d="M20 214v62h336v-62h-336z" />
    <glyph glyph-name="emdash" unicode="&#x2014;" horiz-adv-x="454" 
d="M20 214v62h414v-62h-414z" />
    <glyph glyph-name="quoteleft" unicode="&#x2018;" horiz-adv-x="197" 
d="M80 555v-6q15 12 36 12q24 0 39 -14.5t15 -38.5q0 -25 -18 -41.5t-47 -16.5q-36 0 -61 27.5t-25 70.5q0 54 33 88t87 34q23 0 36 -5v-50q-14 4 -29 4q-31 0 -48.5 -16.5t-17.5 -47.5z" />
    <glyph glyph-name="quoteright" unicode="&#x2019;" horiz-adv-x="197" 
d="M117 570q0 4 -1 6q-16 -12 -36 -12q-24 0 -38.5 14t-14.5 39q0 26 18 42t47 16q36 0 61 -27.5t25 -70.5q0 -54 -33 -88t-87 -34q-16 0 -36 5v50q12 -4 29 -4q31 0 48.5 16.5t17.5 47.5z" />
    <glyph glyph-name="quotesinglbase" unicode="&#x201a;" horiz-adv-x="197" 
d="M117 10q0 4 -1 7q-15 -12 -36 -12q-24 0 -38.5 14t-14.5 38q0 26 18 42.5t47 16.5q35 0 60.5 -28t25.5 -71q0 -54 -33 -88t-87 -34q-16 0 -36 5v50q12 -4 29 -4q31 0 48.5 16.5t17.5 47.5z" />
    <glyph glyph-name="quotedblleft" unicode="&#x201c;" horiz-adv-x="375" 
d="M80 554v-6q16 12 36 12q24 0 39 -14.5t15 -38.5q0 -26 -18 -42t-47 -16q-36 0 -61 27.5t-25 70.5q0 54 33 88t87 34q23 0 36 -5v-50q-14 4 -29 4q-31 0 -48.5 -16.5t-17.5 -47.5zM258 554v-6q16 12 36 12q24 0 39 -14.5t15 -38.5q0 -26 -18 -42t-47 -16q-36 0 -61 27.5
t-25 70.5q0 54 33 88t87 34q23 0 36 -5v-50q-14 4 -30 4q-30 0 -47.5 -16.5t-17.5 -47.5z" />
    <glyph glyph-name="quotedblright" unicode="&#x201d;" horiz-adv-x="375" 
d="M117 570q0 4 -1 6q-16 -12 -36 -12q-24 0 -38.5 14t-14.5 39q0 26 18 42t47 16q36 0 61 -27.5t25 -70.5q0 -54 -33 -88t-87 -34q-16 0 -36 5v50q12 -4 29 -4q31 0 48.5 16.5t17.5 47.5zM295 570q0 4 -1 6q-16 -12 -36 -12q-24 0 -38.5 14t-14.5 39q0 26 18 42t46 16
q36 0 61 -27.5t25 -70.5q0 -54 -33 -88t-87 -34q-15 0 -35 5v50q12 -4 29 -4q31 0 48.5 16.5t17.5 47.5z" />
    <glyph glyph-name="quotedblbase" unicode="&#x201e;" horiz-adv-x="375" 
d="M117 10q0 4 -1 7q-15 -12 -36 -12q-24 0 -38.5 14t-14.5 38q0 26 18 42.5t47 16.5q35 0 60.5 -28t25.5 -71q0 -54 -33 -88t-87 -34q-16 0 -36 5v50q12 -4 29 -4q31 0 48.5 16.5t17.5 47.5zM295 10q0 4 -1 7q-15 -12 -36 -12q-24 0 -38.5 14t-14.5 38q0 26 18 42.5
t46 16.5q35 0 60.5 -28t25.5 -71q0 -54 -33 -88t-87 -34q-15 0 -35 5v50q12 -4 29 -4q31 0 48.5 16.5t17.5 47.5z" />
    <glyph glyph-name="dagger" unicode="&#x2020;" horiz-adv-x="461" 
d="M205 -100q-4 10 -11 162.5t-7 183.5q0 55 21 168q-116 -20 -160 -20h-22v88h22q49 0 160 -21q-21 109 -21 159v44h87v-44q0 -55 -20 -159q111 21 159 21h22v-88h-22q-50 0 -159 21q20 -112 20 -169q0 -29 -7 -182t-10 -164h-52z" />
    <glyph glyph-name="daggerdbl" unicode="&#x2021;" horiz-adv-x="461" 
d="M187 -108v47q0 50 21 159q-104 -20 -160 -20h-22v87h22q54 0 158 -20q-19 91 -19 132q0 42 19 137q-113 -20 -158 -20h-22v88h22q43 0 160 -22q-21 109 -21 160v44h87v-44q0 -55 -20 -159q109 21 159 21h22v-88h-22q-49 0 -158 21q19 -87 19 -138q0 -46 -18 -132
q104 20 157 20h22v-87h-22q-54 0 -158 20q19 -110 19 -159v-47h-87z" />
    <glyph glyph-name="bullet" unicode="&#x2022;" horiz-adv-x="308" 
d="M153 126q-55 0 -88.5 33t-33.5 87q0 53 34.5 86.5t90.5 33.5q55 0 88 -33t33 -87t-33.5 -87t-90.5 -33z" />
    <glyph glyph-name="ellipsis" unicode="&#x2026;" horiz-adv-x="590" 
d="M491 -12q-26 0 -43 17t-17 43q0 27 17 44t43 17t43.5 -17t17.5 -44q0 -26 -17.5 -43t-43.5 -17zM294 -12q-26 0 -43 17t-17 43q0 27 17 44t43 17t43.5 -17t17.5 -44q0 -26 -17.5 -43t-43.5 -17zM98 -12q-26 0 -43 17t-17 43q0 27 17 44t43 17t43.5 -17t17.5 -44
q0 -26 -17.5 -43t-43.5 -17z" />
    <glyph glyph-name="perthousand" unicode="&#x2030;" horiz-adv-x="1052" 
d="M180 358q-71 0 -115 44t-44 115q0 70 45 114.5t118 44.5q70 0 114 -44.5t44 -114.5t-45 -114.5t-117 -44.5zM180 408q87 0 87 101v16q0 101 -84 101q-87 0 -87 -101v-16q0 -101 84 -101zM518 -12q-71 0 -115 44.5t-44 115.5q0 69 45.5 113.5t117.5 44.5q70 0 114 -44
t44 -114t-45 -115t-117 -45zM519 38q86 0 86 101v17q0 100 -84 100q-87 0 -87 -100v-17q0 -101 85 -101zM869 -12q-71 0 -115 44.5t-44 115.5q0 69 45.5 113.5t117.5 44.5q70 0 114 -44t44 -114t-45 -115t-117 -45zM870 38q86 0 86 101v17q0 100 -84 100q-87 0 -87 -100v-17
q0 -101 85 -101zM63 0l260 345l239 319h72l-242 -320l-256 -344h-73z" />
    <glyph glyph-name="guilsinglleft" unicode="&#x2039;" horiz-adv-x="215" 
d="M186 104l-164 122v38l164 122v-77l-89 -64l89 -65v-76z" />
    <glyph glyph-name="guilsinglright" unicode="&#x203a;" horiz-adv-x="215" 
d="M29 104v76l89 65l-89 64v77l164 -122v-38z" />
    <glyph glyph-name="fraction" unicode="&#x2044;" horiz-adv-x="534" 
d="M0 0l462 664h72l-461 -664h-73z" />
    <glyph glyph-name="zero.sups" unicode="&#x2070;" horiz-adv-x="364" 
d="M181 292q-79 0 -121 49t-42 141q0 89 44 139t123 50q77 0 119 -49t42 -140t-43 -140.5t-122 -49.5zM181 336q90 0 90 128v35q0 127 -87 127q-90 0 -90 -127v-35q0 -128 87 -128z" />
    <glyph glyph-name="four.sups" unicode="&#x2074;" horiz-adv-x="336" 
d="M10 399v40l175 225h91l-213 -223h131v58q14 0 31 10.5t27 21.5l11 11v-101h59v-42h-59v-47q0 -14 8 -14h33v-39h-153v39h33q8 0 8 14v47h-182z" />
    <glyph glyph-name="five.sups" unicode="&#x2075;" horiz-adv-x="322" 
d="M105 404q0 -34 -40 -37q25 -33 86 -33q40 0 62 22t22 63v6q0 37 -20.5 58t-57.5 21q-65 0 -77 -50l-50 1l23 209h250q-9 -32 -27.5 -43.5t-56.5 -11.5h-122l-12 -95q30 34 90 34q61 0 96.5 -32.5t35.5 -89.5q0 -63 -39.5 -99t-109.5 -36q-66 0 -103 26t-37 68q0 24 13 38
t35 14q17 0 28 -9t11 -24z" />
    <glyph glyph-name="six.sups" unicode="&#x2076;" horiz-adv-x="341" 
d="M230 578q0 22 26 32q-20 16 -59 16q-56 0 -81 -32.5t-25 -102.5q0 -16 1 -23q24 61 106 61q61 0 94.5 -30.5t33.5 -84.5q0 -56 -39 -89t-106 -33q-78 0 -120 49.5t-42 140.5t45.5 140t128.5 49q59 0 91.5 -21t32.5 -60q0 -49 -49 -49q-16 0 -27 11t-11 26zM178 335
q36 0 57 19.5t21 53.5v6q0 34 -20.5 53.5t-55.5 19.5q-36 0 -57.5 -20t-21.5 -53v-6q0 -33 21 -53t56 -20z" />
    <glyph glyph-name="seven.sups" unicode="&#x2077;" horiz-adv-x="312" 
d="M70 299l2 14q4 36 14.5 67t22 52t32 44t33 34.5t37 31.5t33.5 28q-16 -6 -36 -6q-21 0 -42.5 6.5t-35.5 14.5t-36 21t-33 19v-86h-47v125h49q44 0 79 -16.5t60 -33t46 -17.5l-4 67h57v-37q-1 -32 -14.5 -59.5t-35.5 -53t-46.5 -52.5t-51 -70t-45.5 -93h-38z" />
    <glyph glyph-name="eight.sups" unicode="&#x2078;" horiz-adv-x="332" 
d="M164 291q-73 0 -110.5 27t-37.5 73q0 58 81 83q-72 25 -72 91q0 48 37.5 76.5t104.5 28.5q138 0 138 -94q0 -57 -73 -78q86 -29 86 -97q0 -50 -41.5 -80t-112.5 -30zM247 392q0 30 -24.5 45.5t-74.5 25.5q-67 -20 -67 -70q0 -28 22.5 -44t60.5 -16t60.5 16t22.5 43z
M92 574q0 -28 23 -43t66 -23q62 18 62 66q0 56 -74 56q-36 0 -56.5 -14.5t-20.5 -41.5z" />
    <glyph glyph-name="nine.sups" unicode="&#x2079;" horiz-adv-x="348" 
d="M115 381q0 -20 -21 -31q25 -14 63 -14q52 0 76 31t24 98v23q-24 -59 -105 -59q-62 0 -96 31t-34 85q0 58 39 92t109 34q78 0 118 -49.5t40 -140.5q0 -90 -43.5 -139.5t-127.5 -49.5q-61 0 -94.5 21t-33.5 59q0 47 48 47q17 0 27.5 -11t10.5 -27zM169 470q35 0 56.5 21
t21.5 54v8q0 34 -20.5 54.5t-55.5 20.5q-37 0 -58 -20.5t-21 -54.5v-8q0 -34 20.5 -54.5t56.5 -20.5z" />
    <glyph glyph-name="plus.sups" unicode="&#x207a;" horiz-adv-x="364" 
d="M31 455v52h124v125h53v-125h125v-52h-125v-124h-53v124h-124z" />
    <glyph glyph-name="minus.sups" unicode="&#x207b;" horiz-adv-x="364" 
d="M31 454v55h302v-55h-302z" />
    <glyph glyph-name="zero.sinf" unicode="&#x2080;" horiz-adv-x="357" 
d="M181 -7q-79 0 -121 49t-42 141q0 89 44 139t123 50q77 0 119 -49t42 -140q0 -90 -43 -140t-122 -50zM181 38q90 0 90 128v34q0 128 -87 128q-90 0 -90 -128v-34q0 -128 87 -128z" />
    <glyph glyph-name="one.sinf" unicode="&#x2081;" horiz-adv-x="270" 
d="M55 244h-26v49h27q36 0 53.5 18.5t24.5 55.5h55v-312q0 -12 8 -12h69v-43h-229v43h75q7 0 7 12v209q-28 -20 -64 -20z" />
    <glyph glyph-name="two.sinf" unicode="&#x2082;" horiz-adv-x="323" 
d="M157 328q-60 0 -80 -40q31 -5 31 -35q0 -17 -12 -28t-31 -11q-46 0 -46 55q0 45 40 74t105 29q70 0 108 -30.5t38 -84.5q0 -38 -22 -63t-54.5 -37.5t-65.5 -23.5t-59.5 -30.5t-31.5 -49.5h162q18 0 19 14l4 46h44v-113h-287v30q1 43 23.5 74t54 47t63.5 30t54 33t22 45
q0 33 -21 51t-58 18z" />
    <glyph glyph-name="three.sinf" unicode="&#x2083;" horiz-adv-x="320" 
d="M102 98q0 -29 -31 -36q24 -27 80 -27q84 0 84 68v3q0 60 -83 60h-12.5t-13 -0.5t-6.5 -0.5v48q8 -3 34 -3q34 0 55 15.5t21 40.5v3q0 60 -75 60q-56 0 -77 -27q30 -6 30 -34q0 -15 -11.5 -25.5t-28.5 -10.5q-21 0 -33.5 13.5t-12.5 36.5q0 42 38 66t99 24q143 0 143 -97
q0 -61 -71 -78q78 -21 78 -94q0 -52 -41.5 -81t-114.5 -29q-64 0 -101 23t-37 66q0 24 13.5 38t35.5 14q16 0 27 -10t11 -26z" />
    <glyph glyph-name="four.sinf" unicode="&#x2084;" horiz-adv-x="330" 
d="M10 100v40l175 225h91l-213 -222h131v57q14 0 31 11t27 22l11 11v-101h59v-43h-59v-47q0 -13 8 -13h33v-40h-153v40h33q8 0 8 13v47h-182z" />
    <glyph glyph-name="five.sinf" unicode="&#x2085;" horiz-adv-x="316" 
d="M105 105q0 -15 -10.5 -25.5t-28.5 -11.5q23 -32 85 -32q41 0 62.5 22t21.5 63v5q0 38 -20.5 58.5t-57.5 20.5q-65 0 -77 -50l-50 1l23 209h250q-9 -32 -27.5 -43t-56.5 -11h-122l-12 -96q30 34 90 34q61 0 96.5 -32.5t35.5 -89.5q0 -63 -39.5 -98.5t-109.5 -35.5
q-67 0 -103.5 26t-36.5 68q0 24 13 37.5t35 13.5q18 0 28.5 -9t10.5 -24z" />
    <glyph glyph-name="six.sinf" unicode="&#x2086;" horiz-adv-x="335" 
d="M230 279q0 24 26 32q-20 16 -59 16q-56 0 -81 -32.5t-25 -102.5q0 -16 1 -23q24 61 106 61q61 0 94.5 -30t33.5 -84q0 -57 -39 -90t-106 -33q-78 0 -120 49.5t-42 140.5t45.5 140t128.5 49q59 0 91.5 -21t32.5 -59q0 -49 -49 -49q-16 0 -27 10.5t-11 25.5zM178 36
q36 0 57 19.5t21 53.5v6q0 34 -20.5 53.5t-55.5 19.5q-36 0 -57.5 -20t-21.5 -53v-6q0 -33 21 -53t56 -20z" />
    <glyph glyph-name="seven.sinf" unicode="&#x2087;" horiz-adv-x="306" 
d="M70 0l2 15q4 42 15.5 75.5t34 62.5t35.5 43t46 41.5l39 32.5q-17 -5 -34 -5q-27 0 -50.5 9t-55 28t-41.5 24v-86h-47v125h49q44 0 79 -16t60 -32.5t46 -17.5l-4 66h57v-37q-1 -32 -14.5 -59.5t-35.5 -53t-46.5 -52.5t-51 -70t-45.5 -93h-38z" />
    <glyph glyph-name="eight.sinf" unicode="&#x2088;" horiz-adv-x="326" 
d="M164 -7q-73 0 -110.5 26.5t-37.5 72.5q0 59 82 83q-73 25 -73 91q0 49 37.5 77.5t104.5 28.5q138 0 138 -95q0 -56 -72 -77q85 -29 85 -98q0 -49 -41.5 -79t-112.5 -30zM247 94q0 30 -25 45.5t-75 24.5q-66 -21 -66 -69q0 -28 22.5 -44.5t60.5 -16.5t60.5 16t22.5 44z
M92 275q0 -28 22 -42t67 -24q62 19 62 66q0 56 -74 56q-36 0 -56.5 -14.5t-20.5 -41.5z" />
    <glyph glyph-name="nine.sinf" unicode="&#x2089;" horiz-adv-x="341" 
d="M115 83q0 -21 -22 -31q24 -15 64 -15q52 0 76 31.5t24 97.5v23q-25 -59 -105 -59q-62 0 -96 31t-34 86q0 58 39 91.5t109 33.5q78 0 118 -49t40 -140t-43.5 -140.5t-127.5 -49.5q-61 0 -94.5 21t-33.5 59q0 22 12.5 35t35.5 13q17 0 27.5 -11t10.5 -27zM169 172
q36 0 57 21t21 54v8q0 33 -20.5 53.5t-55.5 20.5q-37 0 -58 -20t-21 -54v-8q0 -35 20.5 -55t56.5 -20z" />
    <glyph glyph-name="Euro" unicode="&#x20ac;" horiz-adv-x="652" 
d="M21 354v46h63q16 129 89.5 202.5t185.5 73.5q123 0 183 -103l14 91h58v-192h-78q-44 134 -165 134q-79 0 -126.5 -52.5t-57.5 -153.5h267v-46h-269v-12v-24q0 -29 1 -42h228v-46h-223q29 -172 186 -172q66 0 112.5 39t61.5 111l70 -26q-18 -91 -82.5 -142.5t-169.5 -51.5
q-114 0 -187 62.5t-94 179.5h-67v46h61q-2 34 -2 53v25h-59z" />
    <glyph glyph-name="trademark" unicode="&#x2122;" horiz-adv-x="765" 
d="M327 331v39h34q7 0 7 10v237q0 10 -6 10h-35v37h132l81 -226l84 226h128v-37h-33q-5 0 -5 -10v-237q0 -10 5 -10h33v-39h-138v39h34q5 0 5 10v236l-104 -285h-39l-100 285v-236q0 -10 6 -10h33v-39h-122zM87 331v39h36q5 0 5 10v248h-50q-19 0 -21 -11l-3 -52h-40v99h290
v-99h-39l-4 52q-2 11 -21 11h-51v-248q0 -10 4 -10h36v-39h-142z" />
    <glyph glyph-name="minus" unicode="&#x2212;" horiz-adv-x="469" 
d="M40 209v72h389v-72h-389z" />
    <glyph glyph-name="G.alt" 
d="M576 0l-30 117q-55 -129 -222 -129q-138 0 -218 91.5t-80 251.5q0 157 85.5 251t220.5 94q78 0 134.5 -33.5t78.5 -94.5l18 116h59v-242h-80q-34 188 -202 188q-99 0 -156 -70t-57 -196v-24q0 -131 54.5 -198.5t156.5 -67.5q81 0 131.5 47t50.5 131v21h-131v58h302v-58
h-69v-253h-46z" />
    <glyph glyph-name="Gbreve.alt" 
d="M576 0l-30 117q-55 -129 -222 -129q-138 0 -218 91.5t-80 251.5q0 157 85.5 251t220.5 94q78 0 134.5 -33.5t78.5 -94.5l18 116h59v-242h-80q-34 188 -202 188q-99 0 -156 -70t-57 -196v-24q0 -131 54.5 -198.5t156.5 -67.5q81 0 131.5 47t50.5 131v21h-131v58h302v-58
h-69v-253h-46zM342 711q-62 0 -96 35t-34 98h52q0 -86 78 -86q77 0 77 86h52q0 -64 -33.5 -98.5t-95.5 -34.5z" />
    <glyph glyph-name="Gcircumflex.alt" 
d="M274 703h-51l85 135h68l85 -135h-52l-67 89zM576 0l-30 117q-55 -129 -222 -129q-138 0 -218 91.5t-80 251.5q0 157 85.5 251t220.5 94q78 0 134.5 -33.5t78.5 -94.5l18 116h59v-242h-80q-34 188 -202 188q-99 0 -156 -70t-57 -196v-24q0 -131 54.5 -198.5t156.5 -67.5
q81 0 131.5 47t50.5 131v21h-131v58h302v-58h-69v-253h-46z" />
    <glyph glyph-name="commaaccent" horiz-adv-x="505" 
d="M270 -138q0 3 -1 5q-13 -10 -29 -10q-20 0 -32.5 12t-12.5 32q0 21 15 35t39 14q29 0 50 -23t21 -58q0 -47 -27.5 -75.5t-73.5 -28.5q-18 0 -30 5v41q20 -4 24 -4q26 0 41.5 14.5t15.5 40.5z" />
    <glyph glyph-name="Gcommaaccent.alt" 
d="M576 0l-30 117q-55 -129 -222 -129q-138 0 -218 91.5t-80 251.5q0 157 85.5 251t220.5 94q78 0 134.5 -33.5t78.5 -94.5l18 116h59v-242h-80q-34 188 -202 188q-99 0 -156 -70t-57 -196v-24q0 -131 54.5 -198.5t156.5 -67.5q81 0 131.5 47t50.5 131v21h-131v58h302v-58
h-69v-253h-46zM359 -138q0 3 -1 5q-13 -10 -29 -10q-20 0 -32.5 12t-12.5 32q0 21 15 35t39 14q29 0 50 -23t21 -58q0 -47 -27.5 -75.5t-73.5 -28.5q-18 0 -30 5v41q20 -4 24 -4q26 0 41.5 14.5t15.5 40.5z" />
    <glyph glyph-name="Gdotaccent.alt" 
d="M576 0l-30 117q-55 -129 -222 -129q-138 0 -218 91.5t-80 251.5q0 157 85.5 251t220.5 94q78 0 134.5 -33.5t78.5 -94.5l18 116h59v-242h-80q-34 188 -202 188q-99 0 -156 -70t-57 -196v-24q0 -131 54.5 -198.5t156.5 -67.5q81 0 131.5 47t50.5 131v21h-131v58h302v-58
h-69v-253h-46zM343 727q-22 0 -36 13.5t-14 35.5t13.5 35t36.5 13t37 -13t14 -35t-14 -35.5t-37 -13.5z" />
    <glyph glyph-name="J.alt" horiz-adv-x="552" 
d="M242 -12q-216 0 -216 200v51h97v-68q0 -117 118 -117q65 0 94 34.5t29 111.5v382q0 14 -3.5 19t-12.5 5h-65v58h253v-58h-60q-9 0 -12.5 -4.5t-3.5 -19.5v-368q0 -117 -53.5 -171.5t-164.5 -54.5z" />
    <glyph glyph-name="J.alt2" horiz-adv-x="544" 
d="M167 199q0 -28 -21.5 -44.5t-50.5 -6.5q6 -101 125 -101q66 0 97.5 33.5t31.5 108.5v393q0 14 -3.5 19t-12.5 5h-72v58h266v-58h-60q-9 0 -12.5 -5t-3.5 -19v-371q0 -223 -221 -223q-93 0 -148.5 44.5t-55.5 127.5q0 44 22 71t59 27q27 0 43.5 -16.5t16.5 -42.5z" />
    <glyph glyph-name="Jcircumflex.alt" horiz-adv-x="552" 
d="M340 704h-51l85 135h68l85 -135h-52l-67 89zM242 -12q-216 0 -216 200v51h97v-68q0 -117 118 -117q65 0 94 34.5t29 111.5v382q0 14 -3.5 19t-12.5 5h-65v58h253v-58h-60q-9 0 -12.5 -4.5t-3.5 -19.5v-368q0 -117 -53.5 -171.5t-164.5 -54.5z" />
    <glyph glyph-name="Jcircumflex.alt2" horiz-adv-x="544" 
d="M327 704h-51l85 135h68l85 -135h-52l-67 89zM167 199q0 -28 -21.5 -44.5t-50.5 -6.5q6 -101 125 -101q66 0 97.5 33.5t31.5 108.5v393q0 14 -3.5 19t-12.5 5h-72v58h266v-58h-60q-9 0 -12.5 -5t-3.5 -19v-371q0 -223 -221 -223q-93 0 -148.5 44.5t-55.5 127.5q0 44 22 71
t59 27q27 0 43.5 -16.5t16.5 -42.5z" />
    <glyph glyph-name="dot" horiz-adv-x="197" 
d="M98 179q-28 0 -45.5 18t-17.5 46t17.5 45.5t45.5 17.5t46 -17.5t18 -45.5t-18 -46t-46 -18z" />
    <glyph glyph-name="Q.alt" horiz-adv-x="715" 
d="M353 -11q-147 0 -237 94t-90 248t93 249.5t239 95.5q147 0 235.5 -94.5t88.5 -250.5q0 -144 -84 -238q30 -35 73 -35h38v-58h-73q-55 0 -97 42q-81 -53 -186 -53zM127 348v-27q0 -190 115 -246q-26 28 -26 68q0 56 41 89.5t102 33.5q64 0 107.5 -31t80.5 -83
q36 64 36 162v34q0 126 -61 194t-166 68q-106 0 -167.5 -68t-61.5 -194zM344 207q-36 0 -60.5 -19.5t-24.5 -55.5q0 -37 28.5 -57.5t82.5 -20.5q78 0 129 42q-23 31 -33.5 43.5t-31.5 32.5t-42.5 27.5t-47.5 7.5z" />
    <glyph glyph-name="R.alt" horiz-adv-x="653" 
d="M568 486q0 -146 -174 -172q54 -22 79 -66t30 -114q3 -44 14.5 -60.5t31.5 -16.5q32 0 32 34v70h60v-59q0 -114 -114 -114q-122 0 -134 152q-6 83 -34 121t-107 38h-61v-216q0 -15 3.5 -20t12.5 -5h58v-58h-246v58h60q16 0 16 25v499q0 24 -16 24h-60v58h322
q117 0 172 -43.5t55 -134.5zM191 606v-255h116q85 0 120.5 30t35.5 99q0 67 -33 96.5t-110 29.5h-129z" />
    <glyph glyph-name="R.alt2" horiz-adv-x="619" 
d="M571 483q0 -154 -170 -179l129 -246h78v-58h-160l-146 288h-111v-205q0 -15 3.5 -20t12.5 -5h59v-58h-247v58h60q16 0 16 25v499q0 24 -16 24h-60v58h324q228 0 228 -181zM191 606v-260h116q84 0 122.5 31.5t38.5 100.5q0 66 -35.5 97t-112.5 31h-129z" />
    <glyph glyph-name="Racute.alt" horiz-adv-x="653" 
d="M226 700l99 138h87l1 -30l-141 -108h-46zM568 486q0 -146 -174 -172q54 -22 79 -66t30 -114q3 -44 14.5 -60.5t31.5 -16.5q32 0 32 34v70h60v-59q0 -114 -114 -114q-122 0 -134 152q-6 83 -34 121t-107 38h-61v-216q0 -15 3.5 -20t12.5 -5h58v-58h-246v58h60q16 0 16 25
v499q0 24 -16 24h-60v58h322q117 0 172 -43.5t55 -134.5zM191 606v-255h116q85 0 120.5 30t35.5 99q0 67 -33 96.5t-110 29.5h-129z" />
    <glyph glyph-name="Racute.alt2" horiz-adv-x="619" 
d="M225 700l99 138h87l1 -30l-141 -108h-46zM571 483q0 -154 -170 -179l129 -246h78v-58h-160l-146 288h-111v-205q0 -15 3.5 -20t12.5 -5h59v-58h-247v58h60q16 0 16 25v499q0 24 -16 24h-60v58h324q228 0 228 -181zM191 606v-260h116q84 0 122.5 31.5t38.5 100.5
q0 66 -35.5 97t-112.5 31h-129z" />
    <glyph glyph-name="Rcaron.alt" horiz-adv-x="653" 
d="M568 486q0 -146 -174 -172q54 -22 79 -66t30 -114q3 -44 14.5 -60.5t31.5 -16.5q32 0 32 34v70h60v-59q0 -114 -114 -114q-122 0 -134 152q-6 83 -34 121t-107 38h-61v-216q0 -15 3.5 -20t12.5 -5h58v-58h-246v58h60q16 0 16 25v499q0 24 -16 24h-60v58h322
q117 0 172 -43.5t55 -134.5zM191 606v-255h116q85 0 120.5 30t35.5 99q0 67 -33 96.5t-110 29.5h-129zM166 838h50l70 -88l69 88h51l-86 -135h-68z" />
    <glyph glyph-name="Rcaron.alt2" horiz-adv-x="619" 
d="M571 483q0 -154 -170 -179l129 -246h78v-58h-160l-146 288h-111v-205q0 -15 3.5 -20t12.5 -5h59v-58h-247v58h60q16 0 16 25v499q0 24 -16 24h-60v58h324q228 0 228 -181zM191 606v-260h116q84 0 122.5 31.5t38.5 100.5q0 66 -35.5 97t-112.5 31h-129zM162 838h50l70 -88
l69 88h51l-86 -135h-68z" />
    <glyph glyph-name="Rcommaaccent.alt" horiz-adv-x="653" 
d="M568 486q0 -146 -174 -172q54 -22 79 -66t30 -114q3 -44 14.5 -60.5t31.5 -16.5q32 0 32 34v70h60v-59q0 -114 -114 -114q-122 0 -134 152q-6 83 -34 121t-107 38h-61v-216q0 -15 3.5 -20t12.5 -5h58v-58h-246v58h60q16 0 16 25v499q0 24 -16 24h-60v58h322
q117 0 172 -43.5t55 -134.5zM191 606v-255h116q85 0 120.5 30t35.5 99q0 67 -33 96.5t-110 29.5h-129zM362 -138q0 3 -1 5q-13 -10 -29 -10q-20 0 -32.5 12t-12.5 32q0 21 15 35t39 14q29 0 50 -23t21 -58q0 -47 -27.5 -75.5t-73.5 -28.5q-18 0 -30 5v41q20 -4 24 -4
q26 0 41.5 14.5t15.5 40.5z" />
    <glyph glyph-name="Rcommaaccent.alt2" horiz-adv-x="619" 
d="M356 -138q0 3 -1 5q-13 -10 -29 -10q-20 0 -32.5 12t-12.5 32q0 21 15 35t39 14q29 0 50 -23t21 -58q0 -47 -27.5 -75.5t-73.5 -28.5q-18 0 -30 5v41q20 -4 24 -4q26 0 41.5 14.5t15.5 40.5zM571 483q0 -154 -170 -179l129 -246h78v-58h-160l-146 288h-111v-205
q0 -15 3.5 -20t12.5 -5h59v-58h-247v58h60q16 0 16 25v499q0 24 -16 24h-60v58h324q228 0 228 -181zM191 606v-260h116q84 0 122.5 31.5t38.5 100.5q0 66 -35.5 97t-112.5 31h-129z" />
    <glyph glyph-name="a.alt" horiz-adv-x="602" 
d="M247 -12q-101 0 -161.5 69.5t-60.5 185.5q0 114 63 184t163 70q126 0 174 -108v96h31q41 0 62 9v-413q0 -23 15 -23h56v-58h-155q-4 34 -7 100q-50 -112 -180 -112zM274 55q68 0 108.5 47.5t40.5 133.5v13q0 86 -40.5 134t-106.5 48q-70 0 -111.5 -47.5t-41.5 -134.5v-13
q0 -87 40.5 -134t110.5 -47z" />
    <glyph glyph-name="a.alt2" horiz-adv-x="565" 
d="M243 438q-69 0 -101 -26q26 -16 26 -51q0 -26 -17 -42t-43 -16q-29 0 -46.5 18t-17.5 49q0 61 61 94t152 33q105 0 152.5 -39.5t47.5 -127.5v-221q0 -32 7 -44.5t26 -12.5q27 0 27 30v49h44v-53q0 -89 -98 -89q-93 0 -99 113q-20 -52 -69.5 -83t-111.5 -31q-69 0 -110 36
t-41 95q0 84 78 123t252 60v27q0 59 -28 84t-91 25zM214 51q67 0 107.5 44t40.5 118v40q-125 -13 -181.5 -40t-56.5 -82q0 -36 25 -58t65 -22z" />
    <glyph glyph-name="a.alt3" horiz-adv-x="606" 
d="M247 -12q-101 0 -161.5 69.5t-60.5 185.5q0 114 63 184t163 70q131 0 177 -116l4 104h157v-58h-57q-14 0 -14 -23v-323q0 -23 15 -23h56v-58h-155q-6 47 -8 98q-24 -52 -70 -81t-109 -29zM273 55q68 0 109 47.5t41 133.5v13q0 86 -40.5 134t-106.5 48q-70 0 -111.5 -47.5
t-41.5 -134.5v-13q0 -87 40 -134t110 -47z" />
    <glyph glyph-name="aacute.alt" horiz-adv-x="602" 
d="M220 526l99 138h87l1 -30l-141 -108h-46zM247 -12q-101 0 -161.5 69.5t-60.5 185.5q0 114 63 184t163 70q126 0 174 -108v96h31q41 0 62 9v-413q0 -23 15 -23h56v-58h-155q-4 34 -7 100q-50 -112 -180 -112zM274 55q68 0 108.5 47.5t40.5 133.5v13q0 86 -40.5 134
t-106.5 48q-70 0 -111.5 -47.5t-41.5 -134.5v-13q0 -87 40.5 -134t110.5 -47z" />
    <glyph glyph-name="aacute.alt2" horiz-adv-x="565" 
d="M191 526l99 138h87l1 -30l-141 -108h-46zM243 438q-69 0 -101 -26q26 -16 26 -51q0 -26 -17 -42t-43 -16q-29 0 -46.5 18t-17.5 49q0 61 61 94t152 33q105 0 152.5 -39.5t47.5 -127.5v-221q0 -32 7 -44.5t26 -12.5q27 0 27 30v49h44v-53q0 -89 -98 -89q-93 0 -99 113
q-20 -52 -69.5 -83t-111.5 -31q-69 0 -110 36t-41 95q0 84 78 123t252 60v27q0 59 -28 84t-91 25zM214 51q67 0 107.5 44t40.5 118v40q-125 -13 -181.5 -40t-56.5 -82q0 -36 25 -58t65 -22z" />
    <glyph glyph-name="aacute.alt3" horiz-adv-x="606" 
d="M223 526l99 138h87l1 -30l-141 -108h-46zM247 -12q-101 0 -161.5 69.5t-60.5 185.5q0 114 63 184t163 70q131 0 177 -116l4 104h157v-58h-57q-14 0 -14 -23v-323q0 -23 15 -23h56v-58h-155q-6 47 -8 98q-24 -52 -70 -81t-109 -29zM273 55q68 0 109 47.5t41 133.5v13
q0 86 -40.5 134t-106.5 48q-70 0 -111.5 -47.5t-41.5 -134.5v-13q0 -87 40 -134t110 -47z" />
    <glyph glyph-name="abreve.alt" horiz-adv-x="602" 
d="M247 -12q-101 0 -161.5 69.5t-60.5 185.5q0 114 63 184t163 70q126 0 174 -108v96h31q41 0 62 9v-413q0 -23 15 -23h56v-58h-155q-4 34 -7 100q-50 -112 -180 -112zM274 55q68 0 108.5 47.5t40.5 133.5v13q0 86 -40.5 134t-106.5 48q-70 0 -111.5 -47.5t-41.5 -134.5v-13
q0 -87 40.5 -134t110.5 -47zM289 532q-62 0 -96 35t-34 98h52q0 -86 78 -86q77 0 77 86h52q0 -64 -33.5 -98.5t-95.5 -34.5z" />
    <glyph glyph-name="abreve.alt2" horiz-adv-x="565" 
d="M243 438q-69 0 -101 -26q26 -16 26 -51q0 -26 -17 -42t-43 -16q-29 0 -46.5 18t-17.5 49q0 61 61 94t152 33q105 0 152.5 -39.5t47.5 -127.5v-221q0 -32 7 -44.5t26 -12.5q27 0 27 30v49h44v-53q0 -89 -98 -89q-93 0 -99 113q-20 -52 -69.5 -83t-111.5 -31q-69 0 -110 36
t-41 95q0 84 78 123t252 60v27q0 59 -28 84t-91 25zM214 51q67 0 107.5 44t40.5 118v40q-125 -13 -181.5 -40t-56.5 -82q0 -36 25 -58t65 -22zM261 532q-62 0 -96 35t-34 98h52q0 -86 78 -86q77 0 77 86h52q0 -64 -33.5 -98.5t-95.5 -34.5z" />
    <glyph glyph-name="abreve.alt3" horiz-adv-x="606" 
d="M247 -12q-101 0 -161.5 69.5t-60.5 185.5q0 114 63 184t163 70q131 0 177 -116l4 104h157v-58h-57q-14 0 -14 -23v-323q0 -23 15 -23h56v-58h-155q-6 47 -8 98q-24 -52 -70 -81t-109 -29zM273 55q68 0 109 47.5t41 133.5v13q0 86 -40.5 134t-106.5 48q-70 0 -111.5 -47.5
t-41.5 -134.5v-13q0 -87 40 -134t110 -47zM292 532q-62 0 -96 35t-34 98h52q0 -86 78 -86q77 0 77 86h52q0 -64 -33.5 -98.5t-95.5 -34.5z" />
    <glyph glyph-name="acircumflex.alt" horiz-adv-x="602" 
d="M247 -12q-101 0 -161.5 69.5t-60.5 185.5q0 114 63 184t163 70q126 0 174 -108v96h31q41 0 62 9v-413q0 -23 15 -23h56v-58h-155q-4 34 -7 100q-50 -112 -180 -112zM274 55q68 0 108.5 47.5t40.5 133.5v13q0 86 -40.5 134t-106.5 48q-70 0 -111.5 -47.5t-41.5 -134.5v-13
q0 -87 40.5 -134t110.5 -47zM218 525h-51l85 135h68l85 -135h-52l-67 89z" />
    <glyph glyph-name="acircumflex.alt2" horiz-adv-x="565" 
d="M243 438q-69 0 -101 -26q26 -16 26 -51q0 -26 -17 -42t-43 -16q-29 0 -46.5 18t-17.5 49q0 61 61 94t152 33q105 0 152.5 -39.5t47.5 -127.5v-221q0 -32 7 -44.5t26 -12.5q27 0 27 30v49h44v-53q0 -89 -98 -89q-93 0 -99 113q-20 -52 -69.5 -83t-111.5 -31q-69 0 -110 36
t-41 95q0 84 78 123t252 60v27q0 59 -28 84t-91 25zM214 51q67 0 107.5 44t40.5 118v40q-125 -13 -181.5 -40t-56.5 -82q0 -36 25 -58t65 -22zM200 525h-51l85 135h68l85 -135h-52l-67 89z" />
    <glyph glyph-name="acircumflex.alt3" horiz-adv-x="606" 
d="M247 -12q-101 0 -161.5 69.5t-60.5 185.5q0 114 63 184t163 70q131 0 177 -116l4 104h157v-58h-57q-14 0 -14 -23v-323q0 -23 15 -23h56v-58h-155q-6 47 -8 98q-24 -52 -70 -81t-109 -29zM273 55q68 0 109 47.5t41 133.5v13q0 86 -40.5 134t-106.5 48q-70 0 -111.5 -47.5
t-41.5 -134.5v-13q0 -87 40 -134t110 -47zM220 525h-51l85 135h68l85 -135h-52l-67 89z" />
    <glyph glyph-name="adieresis.alt" horiz-adv-x="602" 
d="M373 542q-22 0 -36 14t-14 37t13.5 37t36.5 14t37 -14t14 -37t-14 -37t-37 -14zM204 542q-22 0 -36 14t-14 37t13.5 37t36.5 14t37 -14t14 -37t-14.5 -37t-36.5 -14zM247 -12q-101 0 -161.5 69.5t-60.5 185.5q0 114 63 184t163 70q126 0 174 -108v96h31q41 0 62 9v-413
q0 -23 15 -23h56v-58h-155q-4 34 -7 100q-50 -112 -180 -112zM274 55q68 0 108.5 47.5t40.5 133.5v13q0 86 -40.5 134t-106.5 48q-70 0 -111.5 -47.5t-41.5 -134.5v-13q0 -87 40.5 -134t110.5 -47z" />
    <glyph glyph-name="adieresis.alt2" horiz-adv-x="565" 
d="M243 438q-69 0 -101 -26q26 -16 26 -51q0 -26 -17 -42t-43 -16q-29 0 -46.5 18t-17.5 49q0 61 61 94t152 33q105 0 152.5 -39.5t47.5 -127.5v-221q0 -32 7 -44.5t26 -12.5q27 0 27 30v49h44v-53q0 -89 -98 -89q-93 0 -99 113q-20 -52 -69.5 -83t-111.5 -31q-69 0 -110 36
t-41 95q0 84 78 123t252 60v27q0 59 -28 84t-91 25zM214 51q67 0 107.5 44t40.5 118v40q-125 -13 -181.5 -40t-56.5 -82q0 -36 25 -58t65 -22zM352 542q-22 0 -36 14t-14 37t13.5 37t36.5 14t37 -14t14 -37t-14.5 -37t-36.5 -14zM183 542q-22 0 -36 14t-14 37t13.5 37
t36.5 14t37 -14t14 -37t-14 -37t-37 -14z" />
    <glyph glyph-name="adieresis.alt3" horiz-adv-x="606" 
d="M247 -12q-101 0 -161.5 69.5t-60.5 185.5q0 114 63 184t163 70q131 0 177 -116l4 104h157v-58h-57q-14 0 -14 -23v-323q0 -23 15 -23h56v-58h-155q-6 47 -8 98q-24 -52 -70 -81t-109 -29zM273 55q68 0 109 47.5t41 133.5v13q0 86 -40.5 134t-106.5 48q-70 0 -111.5 -47.5
t-41.5 -134.5v-13q0 -87 40 -134t110 -47zM206 542q-22 0 -36 14t-14 37t13.5 37t36.5 14t37 -14t14 -37t-14.5 -37t-36.5 -14zM375 542q-22 0 -36 14t-14 37t13.5 37t36.5 14t37 -14t14 -37t-14 -37t-37 -14z" />
    <glyph glyph-name="agrave.alt" horiz-adv-x="602" 
d="M247 -12q-101 0 -161.5 69.5t-60.5 185.5q0 114 63 184t163 70q126 0 174 -108v96h31q41 0 62 9v-413q0 -23 15 -23h56v-58h-155q-4 34 -7 100q-50 -112 -180 -112zM274 55q68 0 108.5 47.5t40.5 133.5v13q0 86 -40.5 134t-106.5 48q-70 0 -111.5 -47.5t-41.5 -134.5v-13
q0 -87 40.5 -134t110.5 -47zM328 526l-140 108v30h87l99 -138h-46z" />
    <glyph glyph-name="agrave.alt2" horiz-adv-x="565" 
d="M243 438q-69 0 -101 -26q26 -16 26 -51q0 -26 -17 -42t-43 -16q-29 0 -46.5 18t-17.5 49q0 61 61 94t152 33q105 0 152.5 -39.5t47.5 -127.5v-221q0 -32 7 -44.5t26 -12.5q27 0 27 30v49h44v-53q0 -89 -98 -89q-93 0 -99 113q-20 -52 -69.5 -83t-111.5 -31q-69 0 -110 36
t-41 95q0 84 78 123t252 60v27q0 59 -28 84t-91 25zM214 51q67 0 107.5 44t40.5 118v40q-125 -13 -181.5 -40t-56.5 -82q0 -36 25 -58t65 -22zM302 526l-140 108v30h87l99 -138h-46z" />
    <glyph glyph-name="agrave.alt3" horiz-adv-x="606" 
d="M247 -12q-101 0 -161.5 69.5t-60.5 185.5q0 114 63 184t163 70q131 0 177 -116l4 104h157v-58h-57q-14 0 -14 -23v-323q0 -23 15 -23h56v-58h-155q-6 47 -8 98q-24 -52 -70 -81t-109 -29zM273 55q68 0 109 47.5t41 133.5v13q0 86 -40.5 134t-106.5 48q-70 0 -111.5 -47.5
t-41.5 -134.5v-13q0 -87 40 -134t110 -47zM330 526l-140 108v30h87l99 -138h-46z" />
    <glyph glyph-name="amacron.alt" horiz-adv-x="602" 
d="M247 -12q-101 0 -161.5 69.5t-60.5 185.5q0 114 63 184t163 70q126 0 174 -108v96h31q41 0 62 9v-413q0 -23 15 -23h56v-58h-155q-4 34 -7 100q-50 -112 -180 -112zM274 55q68 0 108.5 47.5t40.5 133.5v13q0 86 -40.5 134t-106.5 48q-70 0 -111.5 -47.5t-41.5 -134.5v-13
q0 -87 40.5 -134t110.5 -47zM146 558v58h289v-58h-289z" />
    <glyph glyph-name="amacron.alt2" horiz-adv-x="565" 
d="M243 438q-69 0 -101 -26q26 -16 26 -51q0 -26 -17 -42t-43 -16q-29 0 -46.5 18t-17.5 49q0 61 61 94t152 33q105 0 152.5 -39.5t47.5 -127.5v-221q0 -32 7 -44.5t26 -12.5q27 0 27 30v49h44v-53q0 -89 -98 -89q-93 0 -99 113q-20 -52 -69.5 -83t-111.5 -31q-69 0 -110 36
t-41 95q0 84 78 123t252 60v27q0 59 -28 84t-91 25zM214 51q67 0 107.5 44t40.5 118v40q-125 -13 -181.5 -40t-56.5 -82q0 -36 25 -58t65 -22zM118 558v58h289v-58h-289z" />
    <glyph glyph-name="amacron.alt3" horiz-adv-x="606" 
d="M247 -12q-101 0 -161.5 69.5t-60.5 185.5q0 114 63 184t163 70q131 0 177 -116l4 104h157v-58h-57q-14 0 -14 -23v-323q0 -23 15 -23h56v-58h-155q-6 47 -8 98q-24 -52 -70 -81t-109 -29zM273 55q68 0 109 47.5t41 133.5v13q0 86 -40.5 134t-106.5 48q-70 0 -111.5 -47.5
t-41.5 -134.5v-13q0 -87 40 -134t110 -47zM148 558v58h289v-58h-289z" />
    <glyph glyph-name="ampersand.alt" horiz-adv-x="737" 
d="M255 -12q-105 0 -163.5 54t-58.5 141q0 79 51 129.5t133 74.5q-47 75 -47 134q0 68 48.5 112.5t130.5 44.5q72 0 115 -39.5t43 -102.5q0 -65 -44 -104t-129 -60l34 -45l121 -156q39 55 69 157h-81v59h227v-59h-75q-48 -130 -107 -200l54 -69h115v-59h-189l-49 65
q-96 -77 -198 -77zM268 53q80 0 153 55l-125 168q-23 30 -53 73q-124 -52 -124 -157q0 -62 41.5 -100.5t107.5 -38.5zM258 531q0 -51 46 -119q68 19 101.5 46t33.5 77q0 39 -23.5 63.5t-63.5 24.5q-44 0 -69 -25.5t-25 -66.5z" />
    <glyph glyph-name="aogonek.alt" horiz-adv-x="602" 
d="M434 0q-4 34 -7 100q-50 -112 -180 -112q-101 0 -161.5 69.5t-60.5 185.5q0 114 63 184t163 70q126 0 174 -108v96h31q41 0 62 9v-413q0 -23 15 -23h56v-58q-42 -13 -62 -34.5t-20 -45.5q0 -41 43 -41q19 0 39 10v-50q-26 -11 -57 -11q-43 0 -67.5 20t-24.5 54
q0 59 77 98h-83zM274 55q68 0 108.5 47.5t40.5 133.5v13q0 86 -40.5 134t-106.5 48q-70 0 -111.5 -47.5t-41.5 -134.5v-13q0 -87 40.5 -134t110.5 -47z" />
    <glyph glyph-name="aogonek.alt2" horiz-adv-x="565" 
d="M183 -12q-69 0 -110 36t-41 95q0 84 78 123t252 60v27q0 59 -28 84t-91 25q-69 0 -101 -26q26 -16 26 -51q0 -26 -17 -42t-43 -16q-29 0 -46.5 18t-17.5 49q0 61 61 94t152 33q105 0 152.5 -39.5t47.5 -127.5v-221q0 -32 7 -44.5t26 -12.5q27 0 27 30v49h44v-53
q0 -54 -43 -78q-25 -12 -38 -35t-13 -45t13.5 -31.5t29.5 -9.5q19 0 39 10v-50q-26 -11 -56 -11q-41 -1 -67 18t-26 55q0 56 53 89q-82 6 -89 112q-20 -52 -69.5 -83t-111.5 -31zM214 51q67 0 107.5 44t40.5 118v40q-125 -13 -181.5 -40t-56.5 -82q0 -36 25 -58t65 -22z" />
    <glyph glyph-name="aogonek.alt3" horiz-adv-x="606" 
d="M247 -12q-101 0 -161.5 69.5t-60.5 185.5q0 114 63 184t163 70q131 0 177 -116l4 104h157v-58h-57q-14 0 -14 -23v-323q0 -23 15 -23h56v-58q-41 -6 -61.5 -30t-20.5 -50q0 -41 43 -41q19 0 39 10v-50q-26 -11 -57 -11q-43 0 -67.5 20t-24.5 54q0 59 77 98h-83
q-6 47 -8 98q-24 -52 -70 -81t-109 -29zM273 55q68 0 109 47.5t41 133.5v13q0 86 -40.5 134t-106.5 48q-70 0 -111.5 -47.5t-41.5 -134.5v-13q0 -87 40 -134t110 -47z" />
    <glyph glyph-name="aring.alt" horiz-adv-x="602" 
d="M247 -12q-101 0 -161.5 69.5t-60.5 185.5q0 114 63 184t163 70q126 0 174 -108v96h31q41 0 62 9v-413q0 -23 15 -23h56v-58h-155q-4 34 -7 100q-50 -112 -180 -112zM274 55q68 0 108.5 47.5t40.5 133.5v13q0 86 -40.5 134t-106.5 48q-70 0 -111.5 -47.5t-41.5 -134.5v-13
q0 -87 40.5 -134t110.5 -47zM292 535q-44 0 -71 24.5t-27 63.5q0 38 27 63t71 25t70.5 -25t26.5 -63q0 -39 -26.5 -63.5t-70.5 -24.5zM292 571q23 0 37.5 14.5t14.5 37.5t-14.5 37.5t-37.5 14.5q-24 0 -38 -14.5t-14 -37.5t14 -37.5t38 -14.5z" />
    <glyph glyph-name="aring.alt2" horiz-adv-x="565" 
d="M243 438q-69 0 -101 -26q26 -16 26 -51q0 -26 -17 -42t-43 -16q-29 0 -46.5 18t-17.5 49q0 61 61 94t152 33q105 0 152.5 -39.5t47.5 -127.5v-221q0 -32 7 -44.5t26 -12.5q27 0 27 30v49h44v-53q0 -89 -98 -89q-93 0 -99 113q-20 -52 -69.5 -83t-111.5 -31q-69 0 -110 36
t-41 95q0 84 78 123t252 60v27q0 59 -28 84t-91 25zM214 51q67 0 107.5 44t40.5 118v40q-125 -13 -181.5 -40t-56.5 -82q0 -36 25 -58t65 -22zM263 535q-44 0 -70.5 24.5t-26.5 63.5q0 38 26.5 63t70.5 25t71 -25t27 -63q0 -39 -27 -63.5t-71 -24.5zM263 571q24 0 38 14.5
t14 37.5t-14 37.5t-38 14.5t-38 -14.5t-14 -37.5t14 -37.5t38 -14.5z" />
    <glyph glyph-name="aring.alt3" horiz-adv-x="606" 
d="M247 -12q-101 0 -161.5 69.5t-60.5 185.5q0 114 63 184t163 70q131 0 177 -116l4 104h157v-58h-57q-14 0 -14 -23v-323q0 -23 15 -23h56v-58h-155q-6 47 -8 98q-24 -52 -70 -81t-109 -29zM273 55q68 0 109 47.5t41 133.5v13q0 86 -40.5 134t-106.5 48q-70 0 -111.5 -47.5
t-41.5 -134.5v-13q0 -87 40 -134t110 -47zM322 535q-44 0 -71 24.5t-27 63.5q0 38 27 63t71 25t70.5 -25t26.5 -63q0 -39 -26.5 -63.5t-70.5 -24.5zM322 575q21 0 34.5 14t13.5 34t-13.5 34t-34.5 14t-35 -14t-14 -34q0 -21 13.5 -34.5t35.5 -13.5z" />
    <glyph glyph-name="aringacute.alt" horiz-adv-x="602" 
d="M201 725l99 138h87l1 -30l-141 -108h-46zM291 535q-44 0 -70.5 24.5t-26.5 63.5q0 38 26.5 63t70.5 25t71 -25t27 -63q0 -39 -27 -63.5t-71 -24.5zM291 571q24 0 38 14.5t14 37.5t-14 37.5t-38 14.5t-38 -14.5t-14 -37.5t14 -37.5t38 -14.5zM247 -12q-101 0 -161.5 69.5
t-60.5 185.5q0 114 63 184t163 70q126 0 174 -108v96h31q41 0 62 9v-413q0 -23 15 -23h56v-58h-155q-4 34 -7 100q-50 -112 -180 -112zM274 55q68 0 108.5 47.5t40.5 133.5v13q0 86 -40.5 134t-106.5 48q-70 0 -111.5 -47.5t-41.5 -134.5v-13q0 -87 40.5 -134t110.5 -47z
" />
    <glyph glyph-name="aringacute.alt2" horiz-adv-x="565" 
d="M243 438q-69 0 -101 -26q26 -16 26 -51q0 -26 -17 -42t-43 -16q-29 0 -46.5 18t-17.5 49q0 61 61 94t152 33q105 0 152.5 -39.5t47.5 -127.5v-221q0 -32 7 -44.5t26 -12.5q27 0 27 30v49h44v-53q0 -89 -98 -89q-93 0 -99 113q-20 -52 -69.5 -83t-111.5 -31q-69 0 -110 36
t-41 95q0 84 78 123t252 60v27q0 59 -28 84t-91 25zM214 51q67 0 107.5 44t40.5 118v40q-125 -13 -181.5 -40t-56.5 -82q0 -36 25 -58t65 -22zM265 535q-44 0 -70.5 24.5t-26.5 63.5q0 38 26.5 63t70.5 25t71 -25t27 -63q0 -39 -27 -63.5t-71 -24.5zM191 722l99 138h87
l1 -30l-141 -108h-46zM265 571q24 0 38 14.5t14 37.5t-14 37.5t-38 14.5t-38 -14.5t-14 -37.5t14 -37.5t38 -14.5z" />
    <glyph glyph-name="aringacute.alt3" horiz-adv-x="606" 
d="M247 -12q-101 0 -161.5 69.5t-60.5 185.5q0 114 63 184t163 70q131 0 177 -116l4 104h157v-58h-57q-14 0 -14 -23v-323q0 -23 15 -23h56v-58h-155q-6 47 -8 98q-24 -52 -70 -81t-109 -29zM273 55q68 0 109 47.5t41 133.5v13q0 86 -40.5 134t-106.5 48q-70 0 -111.5 -47.5
t-41.5 -134.5v-13q0 -87 40 -134t110 -47zM322 535q-44 0 -71 24.5t-27 63.5q0 38 27 63t71 25t70.5 -25t26.5 -63q0 -39 -26.5 -63.5t-70.5 -24.5zM250 745l99 138h87l1 -30l-141 -108h-46zM322 575q21 0 34.5 14t13.5 34t-13.5 34t-34.5 14t-35 -14t-14 -34
q0 -21 13.5 -34.5t35.5 -13.5z" />
    <glyph glyph-name="arrow_east.orn" horiz-adv-x="1270" 
d="M28 327v4q70 42 205.5 157.5t191.5 192.5l26 -11l-201 -318h376l204 315h73l-202 -316h72l211 316h72l-210 -316h78l214 316h72l-213 -315l148 23v-86l-150 24l215 -314h-72l-214 314h-79l211 -314h-72l-211 314h-74l204 -314h-73l-204 313h-376l208 -317l-28 -11
q-54 76 -190 186.5t-212 156.5z" />
    <glyph glyph-name="arrow_west.orn" horiz-adv-x="1270" 
d="M1243 327q-59 -35 -213.5 -166.5t-188.5 -176.5l-27 11l207 317h-376l-204 -313h-73l204 314h-74l-210 -314h-72l210 314h-79l-213 -314h-74l216 314l-151 -24v86l149 -23l-214 315h74l213 -316h78l-209 316h72l210 -316h73l-203 316h73l204 -315h376l-201 318l27 11
q36 -47 187.5 -181.5t208.5 -168.5v-4z" />
    <glyph glyph-name="asciitilde.lnum" horiz-adv-x="475" 
d="M90 273l4 28q7 79 71 79q32 0 73.5 -28t56.5 -28q24 0 27 29l4 22h48l-3 -29q-9 -81 -71 -81q-32 0 -73.5 28.5t-56.5 28.5q-24 0 -28 -29l-3 -20h-49z" />
    <glyph glyph-name="asterisk.lnum" horiz-adv-x="354" 
d="M198 467l9 -124h-58l9 125l-106 -71l-28 51l112 56l-111 53l29 52l104 -70l-9 125h58l-9 -125l102 70l29 -52l-112 -53l113 -56l-29 -51z" />
    <glyph glyph-name="atilde.alt" horiz-adv-x="602" 
d="M247 -12q-101 0 -161.5 69.5t-60.5 185.5q0 114 63 184t163 70q126 0 174 -108v96h31q41 0 62 9v-413q0 -23 15 -23h56v-58h-155q-4 34 -7 100q-50 -112 -180 -112zM274 55q68 0 108.5 47.5t40.5 133.5v13q0 86 -40.5 134t-106.5 48q-70 0 -111.5 -47.5t-41.5 -134.5v-13
q0 -87 40.5 -134t110.5 -47zM139 539l4 28q7 79 71 79q32 0 73.5 -28t56.5 -28q24 0 27 29l4 22h48l-3 -29q-9 -81 -71 -81q-32 0 -73.5 28.5t-56.5 28.5q-24 0 -28 -29l-3 -20h-49z" />
    <glyph glyph-name="atilde.alt2" horiz-adv-x="565" 
d="M243 438q-69 0 -101 -26q26 -16 26 -51q0 -26 -17 -42t-43 -16q-29 0 -46.5 18t-17.5 49q0 61 61 94t152 33q105 0 152.5 -39.5t47.5 -127.5v-221q0 -32 7 -44.5t26 -12.5q27 0 27 30v49h44v-53q0 -89 -98 -89q-93 0 -99 113q-20 -52 -69.5 -83t-111.5 -31q-69 0 -110 36
t-41 95q0 84 78 123t252 60v27q0 59 -28 84t-91 25zM214 51q67 0 107.5 44t40.5 118v40q-125 -13 -181.5 -40t-56.5 -82q0 -36 25 -58t65 -22zM119 539l4 28q7 79 71 79q32 0 73.5 -28t56.5 -28q24 0 27 29l4 22h48l-3 -29q-9 -81 -71 -81q-32 0 -73.5 28.5t-56.5 28.5
q-24 0 -28 -29l-3 -20h-49z" />
    <glyph glyph-name="atilde.alt3" horiz-adv-x="606" 
d="M247 -12q-101 0 -161.5 69.5t-60.5 185.5q0 114 63 184t163 70q131 0 177 -116l4 104h157v-58h-57q-14 0 -14 -23v-323q0 -23 15 -23h56v-58h-155q-6 47 -8 98q-24 -52 -70 -81t-109 -29zM273 55q68 0 109 47.5t41 133.5v13q0 86 -40.5 134t-106.5 48q-70 0 -111.5 -47.5
t-41.5 -134.5v-13q0 -87 40 -134t110 -47zM141 539l4 28q7 79 71 79q32 0 73.5 -28t56.5 -28q24 0 27 29l4 22h48l-3 -29q-9 -81 -71 -81q-32 0 -73.5 28.5t-56.5 28.5q-24 0 -28 -29l-3 -20h-49z" />
    <glyph glyph-name="bar.lnum" horiz-adv-x="183" 
d="M48 -95v836h87v-836h-87z" />
    <glyph glyph-name="braceleft.lnum" horiz-adv-x="352" 
d="M194 458q0 -112 -81 -135q43 -13 62 -46t19 -89v-94q0 -70 26 -98t87 -31l24 -2v-58l-49 1q-95 5 -139 49t-44 135v101q0 54 -18.5 78t-60.5 24h-14v60h14q42 0 60.5 24t18.5 78v89q0 93 44 141t139 54l49 2v-58l-24 -2q-61 -5 -87 -36.5t-26 -101.5v-85z" />
    <glyph glyph-name="braceright.lnum" horiz-adv-x="352" 
d="M158 458v85q0 70 -26.5 101t-87.5 36l-24 2v59l50 -2q94 -6 138.5 -54t44.5 -141v-89q0 -54 18 -78t60 -24h15v-60h-15q-42 0 -60 -24t-18 -78v-101q0 -91 -44 -135t-139 -49l-50 -1v59l24 1q62 3 88 31t26 98v94q0 56 18.5 89t60.5 46q-42 12 -60.5 45t-18.5 90z" />
    <glyph glyph-name="bracketleft.lnum" horiz-adv-x="306" 
d="M47 -95v836h242v-59h-123q-16 0 -21.5 -8t-5.5 -32v-638q0 -24 5.5 -32t21.5 -8h123v-59h-242z" />
    <glyph glyph-name="bracketright.lnum" horiz-adv-x="306" 
d="M17 -95v59h123q16 0 21.5 8t5.5 32v638q0 24 -5.5 32t-21.5 8h-123v59h242v-836h-242z" />
    <glyph glyph-name="bullet.lnum" horiz-adv-x="308" 
d="M153 203q-55 0 -88.5 33t-33.5 87q0 53 34.5 86.5t90.5 33.5q55 0 88 -33t33 -87t-33.5 -87t-90.5 -33z" />
    <glyph glyph-name="c.alt" horiz-adv-x="520" 
d="M260 497q117 0 160 -96l20 91h50v-200h-77q-14 70 -46 105.5t-94 35.5q-70 0 -112.5 -50t-42.5 -135v-12q0 -82 45.5 -132.5t120.5 -50.5q122 0 156 117l60 -24q-44 -158 -222 -158q-118 0 -186.5 68.5t-68.5 186.5q0 114 67.5 184t169.5 70z" />
    <glyph glyph-name="cacute.alt" horiz-adv-x="520" 
d="M260 497q117 0 160 -96l20 91h50v-200h-77q-14 70 -46 105.5t-94 35.5q-70 0 -112.5 -50t-42.5 -135v-12q0 -82 45.5 -132.5t120.5 -50.5q122 0 156 117l60 -24q-44 -158 -222 -158q-118 0 -186.5 68.5t-68.5 186.5q0 114 67.5 184t169.5 70zM194 526l99 138h87l1 -30
l-141 -108h-46z" />
    <glyph glyph-name="ccaron.alt" horiz-adv-x="520" 
d="M260 497q117 0 160 -96l20 91h50v-200h-77q-14 70 -46 105.5t-94 35.5q-70 0 -112.5 -50t-42.5 -135v-12q0 -82 45.5 -132.5t120.5 -50.5q122 0 156 117l60 -24q-44 -158 -222 -158q-118 0 -186.5 68.5t-68.5 186.5q0 114 67.5 184t169.5 70zM147 660h50l70 -88l69 88h51
l-86 -135h-68z" />
    <glyph glyph-name="ccedilla.alt" horiz-adv-x="520" 
d="M278 -186q-54 0 -110 27l6 37q56 -22 98 -22q57 0 57 30q0 28 -44 28q-24 0 -39 -9l-4 5v80q-102 10 -160.5 77t-58.5 176q0 114 67.5 184t169.5 70q117 0 160 -96l20 91h50v-200h-77q-14 70 -46 105.5t-94 35.5q-70 0 -112.5 -50t-42.5 -135v-12q0 -82 45.5 -132.5
t120.5 -50.5q122 0 156 117l60 -24q-42 -150 -206 -157v-37q4 1 15 1q41 0 64 -17.5t23 -48.5q0 -34 -31 -53.5t-87 -19.5z" />
    <glyph glyph-name="ccircumflex.alt" horiz-adv-x="520" 
d="M204 525h-51l85 135h68l85 -135h-52l-67 89zM260 497q117 0 160 -96l20 91h50v-200h-77q-14 70 -46 105.5t-94 35.5q-70 0 -112.5 -50t-42.5 -135v-12q0 -82 45.5 -132.5t120.5 -50.5q122 0 156 117l60 -24q-44 -158 -222 -158q-118 0 -186.5 68.5t-68.5 186.5
q0 114 67.5 184t169.5 70z" />
    <glyph glyph-name="cdotaccent.alt" horiz-adv-x="520" 
d="M260 497q117 0 160 -96l20 91h50v-200h-77q-14 70 -46 105.5t-94 35.5q-70 0 -112.5 -50t-42.5 -135v-12q0 -82 45.5 -132.5t120.5 -50.5q122 0 156 117l60 -24q-44 -158 -222 -158q-118 0 -186.5 68.5t-68.5 186.5q0 114 67.5 184t169.5 70zM275 549q-22 0 -36 13.5
t-14 35.5t13.5 35t36.5 13t37 -13t14 -35t-14 -35.5t-37 -13.5z" />
    <glyph glyph-name="colon.lnum" horiz-adv-x="197" 
d="M98 418q-28 0 -45.5 18t-17.5 46t17.5 45.5t45.5 17.5t46 -17.5t18 -45.5t-18 -46t-46 -18zM98 96q-28 0 -45.5 18t-17.5 46t17.5 46t45.5 18t46 -18t18 -46t-18 -46t-46 -18z" />
    <glyph glyph-name="comma.lnum" horiz-adv-x="197" 
d="M117 10q0 4 -1 7q-15 -12 -36 -12q-24 0 -38.5 14t-14.5 38q0 26 18 42.5t47 16.5q35 0 60.5 -28t25.5 -71q0 -54 -33 -88t-87 -34q-16 0 -36 5v51q12 -4 29 -4q31 0 48.5 16t17.5 47z" />
    <glyph glyph-name="dbar" horiz-adv-x="602" 
d="M582 535h-64v-454q0 -23 15 -23h55v-58h-154q-4 32 -7 102q-48 -114 -180 -114q-101 0 -161.5 69.5t-60.5 185.5q0 115 61 184.5t161 69.5q127 0 176 -109v147h-142v59h142v70h13q50 0 82 9v-79h64v-59zM274 53q67 0 108 48.5t41 134.5v13q0 85 -41 134t-108 49
q-69 0 -110 -48t-41 -135v-13q0 -87 41 -135t110 -48z" />
    <glyph glyph-name="degree.lnum" horiz-adv-x="374" 
d="M185 358q-71 0 -113.5 44t-42.5 115q0 70 44 114.5t116 44.5q70 0 112.5 -44t42.5 -115q0 -70 -43.5 -114.5t-115.5 -44.5zM185 407q42 0 65 28t23 80v4q0 52 -22.5 79.5t-62.5 27.5q-41 0 -64.5 -27.5t-23.5 -79.5v-4q0 -52 22.5 -80t62.5 -28z" />
    <glyph glyph-name="divide.lnum" horiz-adv-x="469" 
d="M234 421q-24 0 -38.5 14.5t-14.5 38.5q0 23 14.5 38t38.5 15q23 0 38 -15t15 -38q0 -24 -15 -38.5t-38 -14.5zM40 292v62h389v-62h-389zM234 119q-24 0 -38.5 14.5t-14.5 37.5q0 24 14.5 38.5t38.5 14.5q23 0 38 -14.5t15 -38.5q0 -23 -15 -37.5t-38 -14.5z" />
    <glyph glyph-name="endash.lnum" horiz-adv-x="376" 
d="M20 292v62h336v-62h-336z" />
    <glyph glyph-name="equal.lnum" horiz-adv-x="469" 
d="M30 379v65h409v-65h-409zM30 202v65h409v-65h-409z" />
    <glyph glyph-name="f.alt" horiz-adv-x="294" 
d="M15 427v58h70v37q0 171 155 171q46 0 75.5 -21.5t29.5 -58.5q0 -29 -17 -47t-43 -18q-38 0 -50.5 33t19.5 64q-55 1 -73 -40t-5 -112v-11l98 3v-58h-96v-346q0 -14 3.5 -18.5t11.5 -4.5h63v-58h-238v58h52q8 0 11.5 4.5t3.5 18.5v346h-70z" />
    <glyph glyph-name="f_f.alt" horiz-adv-x="567" 
d="M15 427v58h70v4q-9 190 155 190q46 0 75.5 -21.5t29.5 -58.5q0 -30 -16.5 -47.5t-43.5 -17.5q-38 0 -50.5 33t19.5 64q-56 4 -73 -35.5t-6 -110.5h180v40q0 172 156 172q46 0 75 -21.5t29 -58.5q0 -30 -16.5 -47.5t-43.5 -17.5q-37 0 -50 32.5t19 63.5q-54 1 -72.5 -40.5
t-5.5 -111.5l1 -11h100v-58h-98v-346q0 -23 14 -23h63v-58h-238v58h53q14 0 14 23v346h-177v-346q0 -14 3.5 -18.5t11.5 -4.5h60v-58h-235v58h52q8 0 11.5 4.5t3.5 18.5v346h-70z" />
    <glyph glyph-name="f_f_i.alt" horiz-adv-x="814" 
d="M15 427v58h70v4q-8 189 149 189q47 0 75 -18.5t28 -56.5q0 -26 -15 -41.5t-40 -15.5q-32 0 -45 24t9 61q-51 1 -66.5 -38t-4.5 -108h179v20q0 99 48.5 146.5t150.5 47.5q59 0 90.5 -21t31.5 -57q0 -27 -16.5 -42t-45.5 -15q-32 0 -46 23.5t-1 55.5q-68 9 -93 -27
t-25 -120v-11h169q64 0 111 9v-413q0 -23 14 -23h54v-58h-233v58h56q15 0 15 23v306q0 23 -4.5 31.5t-17.5 8.5h-164v-346q0 -23 14 -23h63v-58h-238v58h53q14 0 14 23v346h-176v-346q0 -14 3.5 -18.5t11.5 -4.5h60v-58h-235v58h52q8 0 11.5 4.5t3.5 18.5v346h-70z" />
    <glyph glyph-name="f_f_l.alt" horiz-adv-x="814" 
d="M15 427v58h70v4q-8 189 149 189q47 0 75 -18.5t28 -56.5q0 -26 -15 -41.5t-40 -15.5q-32 0 -45 24t9 61q-51 1 -66.5 -38t-4.5 -108h179v20q-8 194 155 194q67 0 94 -35h25q53 0 100 9v-592q0 -23 14 -23h57v-58h-236v58h56q8 0 11.5 4.5t3.5 18.5v498q0 27 -15 27h-2
q-8 -44 -54 -44q-31 0 -44 26t8 64q-57 3 -76 -40.5t-6 -116.5l1 -10h105v-58h-103v-346q0 -23 14 -23h62v-58h-236v58h52q14 0 14 23v346h-176v-346q0 -14 3.5 -18.5t11.5 -4.5h60v-58h-235v58h52q8 0 11.5 4.5t3.5 18.5v346h-70z" />
    <glyph glyph-name="fi.alt" horiz-adv-x="548" 
d="M15 427v58h70v16q0 100 48.5 147t149.5 47q60 0 91.5 -20.5t31.5 -57.5q0 -27 -16.5 -45t-42.5 -18q-34 0 -49 26t-1 60q-68 9 -93.5 -27.5t-25.5 -120.5v-7h170q64 0 111 9v-413q0 -23 14 -23h53v-58h-233v58h57q14 0 14 23v306q0 23 -4.5 31.5t-17.5 8.5h-164v-346
q0 -14 3.5 -18.5t11.5 -4.5h63v-58h-238v58h52q8 0 11.5 4.5t3.5 18.5v346h-70z" />
    <glyph glyph-name="fl.alt" horiz-adv-x="548" 
d="M293 0v58h57q14 0 14 23v498v9q-14 -35 -55 -35q-36 0 -49.5 30.5t13.5 61.5q-61 5 -85 -37.5t-12 -120.5v-5l105 3v-58h-103v-346q0 -14 3.5 -18.5t11.5 -4.5h63v-58h-238v58h52q8 0 11.5 4.5t3.5 18.5v346h-70v58h70v31q0 177 169 177q61 0 93 -29h11q54 0 101 9v-592
q0 -23 14 -23h56v-58h-236z" />
    <glyph glyph-name="four.alt" horiz-adv-x="562" 
d="M264 0v58h61q16 0 16 25v108h-329v57l324 421h99v-417h106v-61h-106v-108q0 -25 15 -25h62v-58h-248zM342 573l-252 -321h252v321z" />
    <glyph glyph-name="g.alt" horiz-adv-x="569" 
d="M521 58q0 -121 -66 -177t-196 -56q-100 0 -192 44l28 65q76 -41 162 -41t128.5 35.5t42.5 117.5v72q-24 -49 -70 -76.5t-106 -27.5q-103 0 -165 65.5t-62 175.5q0 109 63.5 175.5t163.5 66.5q126 0 176 -107v95h30q40 0 63 9v-436zM279 76q67 0 107 48t40 127v6
q0 78 -40.5 126t-106.5 48q-71 0 -113.5 -45t-42.5 -127v-10q0 -82 42.5 -127.5t113.5 -45.5z" />
    <glyph glyph-name="g.alt2" horiz-adv-x="603" 
d="M521 58q0 -121 -66 -177t-196 -56q-100 0 -192 44l28 65q76 -41 162 -41t128.5 35.5t42.5 117.5v72q-24 -49 -70 -76.5t-106 -27.5q-103 0 -165 65.5t-62 175.5q0 109 63.5 175.5t163.5 66.5q128 0 178 -111l3 99h159v-58h-57q-14 0 -14 -23v-346zM279 76q67 0 107 48
t40 127v6q0 78 -40.5 126t-106.5 48q-71 0 -113.5 -45t-42.5 -127v-10q0 -82 42.5 -127.5t113.5 -45.5z" />
    <glyph glyph-name="gbreve.alt" horiz-adv-x="569" 
d="M521 58q0 -121 -66 -177t-196 -56q-100 0 -192 44l28 65q76 -41 162 -41t128.5 35.5t42.5 117.5v72q-24 -49 -70 -76.5t-106 -27.5q-103 0 -165 65.5t-62 175.5q0 109 63.5 175.5t163.5 66.5q126 0 176 -107v95h30q40 0 63 9v-436zM279 76q67 0 107 48t40 127v6
q0 78 -40.5 126t-106.5 48q-71 0 -113.5 -45t-42.5 -127v-10q0 -82 42.5 -127.5t113.5 -45.5zM286 532q-62 0 -96 35t-34 98h52q0 -86 78 -86q77 0 77 86h52q0 -64 -33.5 -98.5t-95.5 -34.5z" />
    <glyph glyph-name="gbreve.alt2" horiz-adv-x="603" 
d="M521 58q0 -121 -66 -177t-196 -56q-100 0 -192 44l28 65q76 -41 162 -41t128.5 35.5t42.5 117.5v72q-24 -49 -70 -76.5t-106 -27.5q-103 0 -165 65.5t-62 175.5q0 109 63.5 175.5t163.5 66.5q128 0 178 -111l3 99h159v-58h-57q-14 0 -14 -23v-346zM279 76q67 0 107 48
t40 127v6q0 78 -40.5 126t-106.5 48q-71 0 -113.5 -45t-42.5 -127v-10q0 -82 42.5 -127.5t113.5 -45.5zM302 532q-62 0 -96 35t-34 98h52q0 -86 78 -86q77 0 77 86h52q0 -64 -33.5 -98.5t-95.5 -34.5z" />
    <glyph glyph-name="gcircumflex.alt" horiz-adv-x="569" 
d="M521 58q0 -121 -66 -177t-196 -56q-100 0 -192 44l28 65q76 -41 162 -41t128.5 35.5t42.5 117.5v72q-24 -49 -70 -76.5t-106 -27.5q-103 0 -165 65.5t-62 175.5q0 109 63.5 175.5t163.5 66.5q126 0 176 -107v95h30q40 0 63 9v-436zM279 76q67 0 107 48t40 127v6
q0 78 -40.5 126t-106.5 48q-71 0 -113.5 -45t-42.5 -127v-10q0 -82 42.5 -127.5t113.5 -45.5zM217 525h-51l85 135h68l85 -135h-52l-67 89z" />
    <glyph glyph-name="gcircumflex.alt2" horiz-adv-x="603" 
d="M521 58q0 -121 -66 -177t-196 -56q-100 0 -192 44l28 65q76 -41 162 -41t128.5 35.5t42.5 117.5v72q-24 -49 -70 -76.5t-106 -27.5q-103 0 -165 65.5t-62 175.5q0 109 63.5 175.5t163.5 66.5q128 0 178 -111l3 99h159v-58h-57q-14 0 -14 -23v-346zM279 76q67 0 107 48
t40 127v6q0 78 -40.5 126t-106.5 48q-71 0 -113.5 -45t-42.5 -127v-10q0 -82 42.5 -127.5t113.5 -45.5zM236 525h-51l85 135h68l85 -135h-52l-67 89z" />
    <glyph glyph-name="gcommaaccent.alt" horiz-adv-x="569" 
d="M521 58q0 -121 -66 -177t-196 -56q-100 0 -192 44l28 65q76 -41 162 -41t128.5 35.5t42.5 117.5v72q-24 -49 -70 -76.5t-106 -27.5q-103 0 -165 65.5t-62 175.5q0 109 63.5 175.5t163.5 66.5q126 0 176 -107v95h30q40 0 63 9v-436zM279 76q67 0 107 48t40 127v6
q0 78 -40.5 126t-106.5 48q-71 0 -113.5 -45t-42.5 -127v-10q0 -82 42.5 -127.5t113.5 -45.5zM271 617v-5q13 10 30 10q20 0 32.5 -12t12.5 -32q0 -21 -15 -35t-39 -14q-29 0 -50 23t-21 58q0 47 27.5 75.5t73.5 28.5q18 0 30 -5v-41q-20 4 -24 4q-26 0 -41.5 -14.5
t-15.5 -40.5z" />
    <glyph glyph-name="gcommaaccent.alt2" horiz-adv-x="603" 
d="M521 58q0 -121 -66 -177t-196 -56q-100 0 -192 44l28 65q76 -41 162 -41t128.5 35.5t42.5 117.5v72q-24 -49 -70 -76.5t-106 -27.5q-103 0 -165 65.5t-62 175.5q0 109 63.5 175.5t163.5 66.5q128 0 178 -111l3 99h159v-58h-57q-14 0 -14 -23v-346zM279 76q67 0 107 48
t40 127v6q0 78 -40.5 126t-106.5 48q-71 0 -113.5 -45t-42.5 -127v-10q0 -82 42.5 -127.5t113.5 -45.5zM281 612v-5q13 10 30 10q20 0 32.5 -12t12.5 -32q0 -21 -15 -35t-39 -14q-29 0 -50 23t-21 58q0 47 27.5 75.5t73.5 28.5q18 0 30 -5v-41q-20 4 -24 4
q-26 0 -41.5 -14.5t-15.5 -40.5z" />
    <glyph glyph-name="gdotaccent.alt" horiz-adv-x="569" 
d="M521 58q0 -121 -66 -177t-196 -56q-100 0 -192 44l28 65q76 -41 162 -41t128.5 35.5t42.5 117.5v72q-24 -49 -70 -76.5t-106 -27.5q-103 0 -165 65.5t-62 175.5q0 109 63.5 175.5t163.5 66.5q126 0 176 -107v95h30q40 0 63 9v-436zM279 76q67 0 107 48t40 127v6
q0 78 -40.5 126t-106.5 48q-71 0 -113.5 -45t-42.5 -127v-10q0 -82 42.5 -127.5t113.5 -45.5zM284 549q-22 0 -36 13.5t-14 35.5t13.5 35t36.5 13t37 -13t14 -35t-14 -35.5t-37 -13.5z" />
    <glyph glyph-name="gdotaccent.alt2" horiz-adv-x="603" 
d="M521 58q0 -121 -66 -177t-196 -56q-100 0 -192 44l28 65q76 -41 162 -41t128.5 35.5t42.5 117.5v72q-24 -49 -70 -76.5t-106 -27.5q-103 0 -165 65.5t-62 175.5q0 109 63.5 175.5t163.5 66.5q128 0 178 -111l3 99h159v-58h-57q-14 0 -14 -23v-346zM279 76q67 0 107 48
t40 127v6q0 78 -40.5 126t-106.5 48q-71 0 -113.5 -45t-42.5 -127v-10q0 -82 42.5 -127.5t113.5 -45.5zM301 549q-22 0 -36 13.5t-14 35.5t13.5 35t36.5 13t37 -13t14 -35t-14 -35.5t-37 -13.5z" />
    <glyph glyph-name="greater.lnum" horiz-adv-x="468" 
d="M48 114v76l272 133l-272 133v76l376 -188v-42z" />
    <glyph glyph-name="guillemotleft.lnum" horiz-adv-x="373" 
d="M344 182l-165 122v38l165 122v-77l-90 -64l90 -65v-76zM174 195l-152 109v38l152 109v-72l-80 -56l80 -57v-71z" />
    <glyph glyph-name="guillemotright.lnum" horiz-adv-x="373" 
d="M199 195v71l80 57l-80 56v72l152 -109v-38zM29 182v76l89 65l-89 64v77l164 -122v-38z" />
    <glyph glyph-name="guilsinglleft.lnum" horiz-adv-x="215" 
d="M186 182l-164 122v38l164 122v-77l-89 -64l89 -65v-76z" />
    <glyph glyph-name="guilsinglright.lnum" horiz-adv-x="215" 
d="M29 182v76l89 65l-89 64v77l164 -122v-38z" />
    <glyph glyph-name="hyphen.lnum" horiz-adv-x="267" 
d="M20 288v71h234v-71h-234z" />
    <glyph glyph-name="less.lnum" horiz-adv-x="468" 
d="M422 114l-377 188v42l377 188v-76l-273 -133l273 -133v-76z" />
    <glyph glyph-name="minus.lnum" horiz-adv-x="469" 
d="M40 287v72h389v-72h-389z" />
    <glyph glyph-name="minus.sinf" horiz-adv-x="357" 
d="M30 155v55h297v-55h-297z" />
    <glyph glyph-name="multiply.lnum" horiz-adv-x="469" 
d="M234 277l-145 -150l-50 51l151 145l-151 146l49 51l146 -151l146 150l50 -51l-151 -145l151 -146l-49 -51z" />
    <glyph glyph-name="one.sups" horiz-adv-x="283" 
d="M55 543h-26v49h27q36 0 53.5 18.5t24.5 55.5h55v-312q0 -12 8 -12h69v-43h-229v43h75q7 0 7 12v209q-28 -20 -64 -20z" />
    <glyph glyph-name="parenleft.lnum" horiz-adv-x="361" 
d="M326 -95q-145 17 -220.5 127.5t-75.5 288.5v9q0 176 75.5 285t220.5 126h13v-57l-8 -2q-95 -17 -147.5 -103t-52.5 -242v-22q0 -158 53 -246.5t147 -104.5l8 -2v-57h-13z" />
    <glyph glyph-name="parenright.lnum" horiz-adv-x="353" 
d="M14 -95v57l8 2q95 17 147.5 105t52.5 246v22q0 310 -200 345l-8 2v57h13q146 -17 221 -125.5t75 -285.5v-9q0 -178 -75 -288.5t-221 -127.5h-13z" />
    <glyph glyph-name="period.lnum" horiz-adv-x="197" 
d="M98 -12q-28 0 -45.5 18t-17.5 46t17.5 46t45.5 18t46 -18t18 -46t-18 -46t-46 -18z" />
    <glyph glyph-name="periodcentered.lnum" horiz-adv-x="197" 
d="M98 260q-28 0 -45.5 18t-17.5 46t17.5 45.5t45.5 17.5t46 -17.5t18 -45.5t-18 -46t-46 -18z" />
    <glyph glyph-name="plus.lnum" horiz-adv-x="469" 
d="M40 289v68h160v161h69v-161h160v-68h-160v-161h-69v161h-160z" />
    <glyph glyph-name="plus.sinf" horiz-adv-x="357" 
d="M30 157v52h122v122h53v-122h122v-52h-122v-123h-53v123h-122z" />
    <glyph glyph-name="q.alt" horiz-adv-x="606" 
d="M352 -172v58h57q14 0 14 23v190q-25 -53 -70.5 -82t-105.5 -29q-101 0 -161.5 69.5t-60.5 185.5q0 115 61 184.5t161 69.5q62 0 108 -29.5t70 -83.5v101h164v-58h-57q-14 0 -14 -23v-495q0 -23 15 -23h56v-58h-237zM274 55q68 0 108.5 47.5t40.5 133.5v13q0 85 -41 133.5
t-108 48.5q-70 0 -110.5 -47.5t-40.5 -134.5v-13q0 -87 40.5 -134t110.5 -47z" />
    <glyph glyph-name="quotedbl.lnum" horiz-adv-x="342" 
d="M241 399q-32 146 -32 205v60h87v-60q0 -64 -31 -205h-24zM78 399q-32 146 -32 205v60h87v-60q0 -64 -31 -205h-24z" />
    <glyph glyph-name="quotesingle.lnum" horiz-adv-x="180" 
d="M78 399q-32 146 -32 205v60h87v-60q0 -64 -31 -205h-24z" />
    <glyph glyph-name="r.alt" horiz-adv-x="378" 
d="M180 494v-122q18 67 65 96t110 25v-93q-17 7 -45 7q-65 0 -96 -44.5t-31 -146.5v-135q0 -14 3.5 -18.5t11.5 -4.5h62v-58h-243v58h56q8 0 11.5 4.5t3.5 18.5v319q0 27 -15 27h-56v58h52q66 0 111 9z" />
    <glyph glyph-name="racute.alt" horiz-adv-x="378" 
d="M121 526l99 138h87l1 -30l-141 -108h-46zM180 494v-122q18 67 65 96t110 25v-93q-17 7 -45 7q-65 0 -96 -44.5t-31 -146.5v-135q0 -14 3.5 -18.5t11.5 -4.5h62v-58h-243v58h56q8 0 11.5 4.5t3.5 18.5v319q0 27 -15 27h-56v58h52q66 0 111 9z" />
    <glyph glyph-name="rcaron.alt" horiz-adv-x="378" 
d="M180 494v-122q18 67 65 96t110 25v-93q-17 7 -45 7q-65 0 -96 -44.5t-31 -146.5v-135q0 -14 3.5 -18.5t11.5 -4.5h62v-58h-243v58h56q8 0 11.5 4.5t3.5 18.5v319q0 27 -15 27h-56v58h52q66 0 111 9zM82 660h50l70 -88l69 88h51l-86 -135h-68z" />
    <glyph glyph-name="rcommaaccent.alt" horiz-adv-x="378" 
d="M180 494v-122q18 67 65 96t110 25v-93q-17 7 -45 7q-65 0 -96 -44.5t-31 -146.5v-135q0 -14 3.5 -18.5t11.5 -4.5h62v-58h-243v58h56q8 0 11.5 4.5t3.5 18.5v319q0 27 -15 27h-56v58h52q66 0 111 9zM161 -138q0 3 -1 5q-13 -10 -29 -10q-20 0 -32.5 12t-12.5 32
q0 21 15 35t39 14q29 0 50 -23t21 -58q0 -47 -27.5 -75.5t-73.5 -28.5q-18 0 -30 5v41q20 -4 24 -4q26 0 41.5 14.5t15.5 40.5z" />
    <glyph glyph-name="semicolon.lnum" horiz-adv-x="197" 
d="M117 10q0 4 -1 7q-15 -12 -36 -12q-24 0 -38.5 14t-14.5 38q0 26 18 42.5t47 16.5q35 0 60.5 -28t25.5 -71q0 -54 -33 -88t-87 -34q-16 0 -36 5v51q12 -4 29 -4q31 0 48.5 16t17.5 47zM98 310q-28 0 -45.5 18t-17.5 46t17.5 45.5t45.5 17.5t46 -17.5t18 -45.5t-18 -46
t-46 -18z" />
    <glyph glyph-name="seven.alt" horiz-adv-x="519" 
d="M108 0l314 584h-304q-19 0 -26 -5.5t-7 -19.5l-1 -90h-63v195h486v-48l-299 -616h-100z" />
    <glyph glyph-name="solidus" horiz-adv-x="617" 
d="M0 0l281 341l265 323h71l-268 -324l-278 -340h-71z" />
    <glyph glyph-name="t.alt" horiz-adv-x="312" 
d="M218 -11q-72 0 -103.5 32.5t-31.5 106.5v299h-73v58h73v111h95v-111h107v-58h-110v-300q0 -41 16 -58t52 -17q22 0 51 9v-60q-43 -12 -76 -12z" />
    <glyph glyph-name="tcaron.alt" horiz-adv-x="262" 
d="M160 -11q-72 0 -103.5 32.5t-31.5 106.5v299h-73v58h73v111h95v-111h107v-58h-110v-300q0 -41 16 -58t52 -17q22 0 51 9v-60q-43 -12 -76 -12z" />
    <glyph glyph-name="tcommaaccent.alt" horiz-adv-x="312" 
d="M218 -11q-72 0 -103.5 32.5t-31.5 106.5v299h-73v58h73v111h95v-111h107v-58h-110v-300q0 -41 16 -58t52 -17q22 0 51 9v-60q-43 -12 -76 -12zM181 -138q0 3 -1 5q-13 -10 -29 -10q-20 0 -32.5 12t-12.5 32q0 21 15 35t39 14q29 0 50 -23t21 -58q0 -47 -27.5 -75.5
t-73.5 -28.5q-18 0 -30 5v41q20 -4 24 -4q26 0 41.5 14.5t15.5 40.5z" />
    <glyph glyph-name="three.sups" horiz-adv-x="326" 
d="M102 397q0 -29 -31 -36q22 -27 80 -27q84 0 84 67v3q0 61 -83 61q-5 0 -12.5 -0.5t-13 -1t-6.5 -0.5v48q10 -2 34 -2q34 0 55 15.5t21 40.5v3q0 60 -75 60q-57 0 -78 -28q31 -6 31 -34q0 -14 -12 -25t-28 -11q-20 0 -33 14t-13 37q0 42 38 66t99 24q143 0 143 -97
q0 -29 -18.5 -50t-52.5 -29q78 -19 78 -94q0 -52 -41 -80.5t-115 -28.5q-64 0 -101 22.5t-37 65.5q0 24 13.5 38.5t35.5 14.5q16 0 27 -10t11 -26z" />
    <glyph glyph-name="two.alt" horiz-adv-x="558" 
d="M265 614q-121 0 -164 -85q35 -1 53.5 -19t18.5 -46t-18.5 -45.5t-47.5 -17.5q-32 0 -52.5 24t-20.5 65q0 81 68.5 133.5t170.5 52.5q116 0 183 -55.5t67 -150.5q0 -66 -35.5 -109.5t-89.5 -65.5t-109.5 -39t-104.5 -44.5t-67 -68.5q27 15 62 15q50 0 124.5 -40.5
t111.5 -40.5q30 0 43.5 14t13.5 47v61h56v-83q0 -67 -28.5 -97.5t-87.5 -30.5q-40 0 -76.5 19t-60 41.5t-55.5 41.5t-64 19q-28 0 -49 -12l15 -97h-90l4 58q4 58 28 102.5t58.5 70.5t75 46.5t80 37.5t72 36t52.5 49t20 71q0 67 -42 105t-115 38z" />
    <glyph glyph-name="two.sups" horiz-adv-x="329" 
d="M157 626q-60 0 -80 -39q31 -6 31 -36q0 -17 -12 -28t-31 -10q-46 0 -46 55q0 44 40.5 73t104.5 29q70 0 108 -30.5t38 -83.5q0 -39 -22 -64t-54.5 -37.5t-65.5 -23.5t-59.5 -30t-31.5 -49h162q18 0 19 14l4 45h44v-112h-287v29q1 43 23.5 74t54 47.5t63.5 30t54 33
t22 45.5q0 33 -21 50.5t-58 17.5z" />
    <glyph glyph-name="y.alt" horiz-adv-x="556" 
d="M99 -172v58h63q11 0 18 7.5t18 30.5l55 122l-184 358q-7 15 -11 19t-12 4h-42v58h218v-58h-40q-12 0 -16.5 -7t0.5 -18l133 -267l116 266q12 26 -15 26h-43v58h195v-58h-38q-16 0 -26 -23l-221 -493q-12 -25 15 -25h54v-58h-237z" />
    <glyph glyph-name="yacute.alt" horiz-adv-x="556" 
d="M99 -172v58h63q11 0 18 7.5t18 30.5l55 122l-184 358q-7 15 -11 19t-12 4h-42v58h218v-58h-40q-12 0 -16.5 -7t0.5 -18l133 -267l116 266q12 26 -15 26h-43v58h195v-58h-38q-16 0 -26 -23l-221 -493q-12 -25 15 -25h54v-58h-237zM238 526l99 138h87l1 -30l-141 -108h-46z
" />
    <glyph glyph-name="ycircumflex.alt" horiz-adv-x="556" 
d="M225 525h-51l85 135h68l85 -135h-52l-67 89zM99 -172v58h63q11 0 18 7.5t18 30.5l55 122l-184 358q-7 15 -11 19t-12 4h-42v58h218v-58h-40q-12 0 -16.5 -7t0.5 -18l133 -267l116 266q12 26 -15 26h-43v58h195v-58h-38q-16 0 -26 -23l-221 -493q-12 -25 15 -25h54v-58
h-237z" />
    <glyph glyph-name="ydieresis.alt" horiz-adv-x="556" 
d="M99 -172v58h63q11 0 18 7.5t18 30.5l55 122l-184 358q-7 15 -11 19t-12 4h-42v58h218v-58h-40q-12 0 -16.5 -7t0.5 -18l133 -267l116 266q12 26 -15 26h-43v58h195v-58h-38q-16 0 -26 -23l-221 -493q-12 -25 15 -25h54v-58h-237zM383 542q-22 0 -36 14t-14 37t13.5 37
t36.5 14t37 -14t14 -37t-14 -37t-37 -14zM214 542q-22 0 -36 14t-14 37t13.5 37t36.5 14t37 -14t14 -37t-14.5 -37t-36.5 -14z" />
    <glyph glyph-name="emdash.lnum" horiz-adv-x="454" 
d="M20 292v62h414v-62h-414z" />
    </font>
</defs>
</svg>
