<?xml version="1.0" standalone="no"?>
<!DOCTYPE svg PUBLIC "-//W3C//DTD SVG 1.1//EN" "http://www.w3.org/Graphics/SVG/1.1/DTD/svg11.dtd" >
<svg xmlns="http://www.w3.org/2000/svg" xmlns:xlink="http://www.w3.org/1999/xlink" version="1.1">
<metadata>
Created by FontForge 20161003 at Thu Apr 18 17:49:06 2019
 By www-data
Copyright (c) 2005-2008 by Darden Studio. All rights reserved.
</metadata>
<defs>
<font id="JubilMed" horiz-adv-x="734" >
  <font-face 
    font-family="JubilMed"
    font-weight="500"
    font-stretch="normal"
    units-per-em="1000"
    panose-1="2 0 6 3 6 0 0 2 0 4"
    ascent="800"
    descent="-200"
    x-height="487"
    cap-height="664"
    bbox="-30 -252 1330 967"
    underline-thickness="20"
    underline-position="-153"
    unicode-range="U+0020-FB04"
  />
<missing-glyph horiz-adv-x="500" 
 />
    <glyph glyph-name="f_f" unicode="ff" horiz-adv-x="603" 
d="M12 412v75h66v35q0 87 37 124t119 37q52 0 91 -18v-72q-14 8 -42 8q-42 0 -58 -20t-16 -78v-16h152v35q0 88 35.5 124.5t117.5 36.5q47 0 86 -18v-72q-14 8 -42 8q-41 0 -55.5 -20t-11.5 -78v-16h92v-75h-90v-311q0 -16 4.5 -21t13.5 -5h51v-75h-260v75h42q9 0 13 5t4 21
v311h-150v-311q0 -16 4 -21t13 -5h47v-75h-258v75h44q9 0 13 5t4 21v311h-66z" />
    <glyph glyph-name="fi" unicode="fi" horiz-adv-x="585" 
d="M12 412v75h66v35q0 88 35.5 124.5t118.5 36.5q49 0 85 -18v-72q-13 8 -42 8q-40 0 -53.5 -19.5t-12.5 -78.5v-16h183q71 0 117 10v-396q0 -26 16 -26h42v-75h-255v75h44q17 0 17 26v271q0 23 -4.5 31.5t-17.5 8.5h-140v-311q0 -16 4 -21t13 -5h52v-75h-263v75h44
q9 0 13 5t4 21v311h-66zM440 522q-37 0 -60.5 23.5t-23.5 58.5t23.5 58.5t60.5 23.5q36 0 60 -24t24 -58t-24 -58t-60 -24z" />
    <glyph glyph-name="fl" unicode="fl" horiz-adv-x="586" 
d="M300 606q-56 0 -75 -21.5t-19 -89.5v-8h95v-75h-90v-311q0 -16 4 -21t13 -5h52v-75h-263v75h44q9 0 13 5t4 21v311h-66v75h66v25q0 100 40 135.5t141 35.5q39 0 116 -11h134v-571q0 -16 4 -21t12 -5h40v-75h-252v75h44q9 0 13 5t4 21v467q0 20 -6 29t-24 9h-44z" />
    <glyph glyph-name="f_f_i" unicode="ffi" horiz-adv-x="869" 
d="M12 412v75h66v35q0 87 37 124t119 37q52 0 91 -18v-72q-14 8 -42 8q-42 0 -58 -20t-16 -78v-16h152v35q0 88 35.5 124.5t117.5 36.5q47 0 86 -18v-72q-14 8 -42 8q-41 0 -55.5 -20t-11.5 -78v-16h184q71 0 117 10v-396q0 -26 16 -26h42v-75h-255v75h45q16 0 16 26v271
q0 23 -4.5 31.5t-17.5 8.5h-141v-311q0 -16 4.5 -21t13.5 -5h51v-75h-260v75h42q9 0 13 5t4 21v311h-150v-311q0 -16 4 -21t13 -5h47v-75h-258v75h44q9 0 13 5t4 21v311h-66zM723 522q-37 0 -60.5 23.5t-23.5 58.5t23.5 58.5t60.5 23.5q36 0 60 -24t24 -58t-24 -58t-60 -24z
" />
    <glyph glyph-name="f_f_l" unicode="ffl" horiz-adv-x="869" 
d="M583 603q-57 0 -75.5 -21t-18.5 -89v-6h94v-75h-90v-311q0 -16 4.5 -21t13.5 -5h51v-75h-260v75h42q9 0 13 5t4 21v311h-150v-311q0 -16 4 -21t13 -5h47v-75h-258v75h44q9 0 13 5t4 21v311h-66v75h66v35q0 87 37 124t119 37q52 0 91 -18v-72q-14 8 -42 8q-42 0 -58 -20
t-16 -78v-16h152v25q0 100 40 135.5t141 35.5q40 0 115 -11h134v-571q0 -16 4 -21t13 -5h39v-75h-252v75h45q8 0 12 5t4 21v465q0 20 -6 28.5t-24 8.5h-43z" />
    <glyph glyph-name=".notdef" horiz-adv-x="500" 
 />
    <glyph glyph-name=".null" horiz-adv-x="0" 
 />
    <glyph glyph-name="nonmarkingreturn" horiz-adv-x="333" 
 />
    <glyph glyph-name="space" unicode=" " horiz-adv-x="235" 
 />
    <glyph glyph-name="exclam" unicode="!" horiz-adv-x="232" 
d="M96 197q-3 14 -18 84.5t-22.5 121.5t-7.5 92v169h140v-169q0 -41 -7.5 -92t-22.5 -121.5t-18 -84.5h-44zM115 -13q-35 0 -57.5 22t-22.5 56t22.5 56t57.5 22t58 -22t23 -56t-23 -56t-58 -22z" />
    <glyph glyph-name="quotedbl" unicode="&#x22;" horiz-adv-x="376" 
d="M263 388q-45 161 -45 209v67h121v-67q0 -37 -44 -209h-32zM82 388q-1 4 -11 42t-16 61.5t-12 55.5t-6 50v67h121v-67q0 -37 -44 -209h-32z" />
    <glyph glyph-name="numbersign" unicode="#" horiz-adv-x="594" 
d="M80 409v95h130l58 160h72l-58 -160h152l58 160h72l-58 -160h68v-95h-102l-55 -154h97v-95h-131l-57 -160h-72l57 160h-152l-57 -160h-72l57 160h-67v95h101l55 154h-96zM248 409l-55 -154h152l55 154h-152z" />
    <glyph glyph-name="dollar" unicode="$" horiz-adv-x="545" 
d="M206 -56v80q-89 12 -138.5 51t-49.5 97q0 44 22.5 68t61.5 24q31 0 50.5 -17.5t19.5 -45.5t-15 -46t-43 -22q31 -26 92 -36v203q-37 9 -64 19.5t-54 28.5t-41 47.5t-14 68.5q0 71 47 119.5t126 65.5v69h47v-62q10 1 31 1q4 0 10 -0.5t10 -0.5v62h47v-65
q81 -11 125.5 -48.5t44.5 -93.5q0 -42 -22.5 -66t-61.5 -24q-31 0 -50.5 17.5t-19.5 45.5q0 56 55 67q-26 19 -71 27v-191q176 -44 176 -169q0 -80 -46 -129t-130 -63v-82h-47v76h-25h-26v-76h-47zM304 281l-51 9v-198h21q20 0 30 1v188zM253 405q30 -4 45 -7q2 -1 6 -1v187
q-5 0 -13 0.5t-12 0.5q-18 0 -26 -1v-179zM418 186q0 35 -17 53.5t-50 29.5v-167q67 20 67 84zM139 492q0 -58 67 -77v159q-67 -23 -67 -82z" />
    <glyph glyph-name="percent" unicode="%" horiz-adv-x="725" 
d="M186 412q37 0 53.5 21t16.5 69v23q0 48 -16 69t-52 21q-37 0 -53.5 -21t-16.5 -69v-23q0 -49 15.5 -69.5t52.5 -20.5zM186 350q-76 0 -122.5 45.5t-46.5 118.5q0 72 47.5 117.5t125.5 45.5q75 0 121.5 -45.5t46.5 -117.5t-47.5 -118t-124.5 -46zM536 -13
q-76 0 -122.5 45.5t-46.5 118.5q0 72 48 117.5t125 45.5q75 0 121.5 -45.5t46.5 -117.5t-47.5 -118t-124.5 -46zM537 49q37 0 53.5 21.5t16.5 68.5v23q0 49 -15.5 69.5t-52.5 20.5q-38 0 -54.5 -21t-16.5 -69v-23q0 -48 16 -69t53 -21zM70 0l259 350l229 314h94l-233 -315
l-254 -349h-95z" />
    <glyph glyph-name="ampersand" unicode="&#x26;" horiz-adv-x="785" 
d="M261 -13q-115 0 -174.5 55.5t-59.5 145.5q0 78 49 128t130 73q-43 67 -43 125q0 73 53.5 120t147.5 47q78 0 124.5 -41.5t46.5 -107.5q0 -123 -167 -160l20 -25l97 -133q2 -4 7 -10.5t7 -10.5q54 63 82 129h-75v75h246v-75h-73q-59 -106 -133 -190q41 -47 80 -47
q28 0 37 12t9 41v33h80v-45q0 -73 -34.5 -106t-108.5 -33q-83 0 -153 70q-101 -70 -195 -70zM282 72q62 0 124 42q-17 21 -43 57l-79 108l-45 61q-93 -47 -93 -138q0 -59 37 -94.5t99 -35.5zM288 529q0 -48 42 -107q57 14 85.5 39.5t28.5 69.5q0 36 -20 58t-56 22
q-38 0 -59 -22.5t-21 -59.5z" />
    <glyph glyph-name="quotesingle" unicode="'" horiz-adv-x="196" 
d="M82 388q-1 4 -11 42t-16 61.5t-12 55.5t-6 50v67h121v-67q0 -37 -44 -209h-32z" />
    <glyph glyph-name="parenleft" unicode="(" horiz-adv-x="377" 
d="M350 -172q-107 8 -181 66t-108 146.5t-34 202.5v10q0 173 82 286t241 125h15v-74l-8 -1q-87 -13 -137.5 -95t-50.5 -231v-29q0 -151 51 -234.5t137 -96.5l8 -1v-74h-15z" />
    <glyph glyph-name="parenright" unicode=")" horiz-adv-x="377" 
d="M12 -172v74l8 1q87 12 137.5 96t50.5 235v29q0 150 -50.5 232t-137.5 94l-8 1v74h15q108 -8 181.5 -65.5t107 -145t33.5 -200.5v-10q0 -175 -81.5 -289t-240.5 -126h-15z" />
    <glyph glyph-name="asterisk" unicode="*" horiz-adv-x="368" 
d="M212 450l11 -121h-76l12 122l-102 -71l-37 65l110 52l-109 50l38 66l100 -70l-12 121h76l-11 -121l97 70l38 -66l-110 -50l111 -52l-37 -65z" />
    <glyph glyph-name="plus" unicode="+" horiz-adv-x="479" 
d="M37 200v90h155v157h95v-157h155v-90h-155v-157h-95v157h-155z" />
    <glyph glyph-name="comma" unicode="," horiz-adv-x="222" 
d="M56 -38q63 0 67 55q-12 -6 -31 -6q-30 0 -48.5 17t-18.5 47q0 31 22 51t57 20q42 0 71 -31t29 -80q0 -63 -37.5 -101t-100.5 -38q-23 0 -49 7v65q18 -6 39 -6z" />
    <glyph glyph-name="hyphen" unicode="-" horiz-adv-x="289" 
d="M20 197v95h254v-95h-254z" />
    <glyph glyph-name="period" unicode="." horiz-adv-x="222" 
d="M111 -13q-37 0 -59.5 22.5t-22.5 57.5t22.5 57t59.5 22q36 0 59 -22t23 -57t-23 -57.5t-59 -22.5z" />
    <glyph glyph-name="slash" unicode="/" horiz-adv-x="391" 
d="M10 0l278 664h93l-278 -664h-93z" />
    <glyph glyph-name="zero" unicode="0" horiz-adv-x="632" 
d="M314 -13q-139 0 -214 89.5t-75 255.5q0 164 78 254.5t219 90.5q136 0 210.5 -90t74.5 -255q0 -164 -77 -254.5t-216 -90.5zM316 71q76 0 112.5 54.5t36.5 169.5v75q0 116 -35 170t-110 54q-77 0 -113.5 -54.5t-36.5 -169.5v-75q0 -116 35 -170t111 -54z" />
    <glyph glyph-name="one" unicode="1" horiz-adv-x="438" 
d="M55 430h-15v100h27q66 0 92.5 28.5t45.5 108.5h105v-566q0 -26 17 -26h84v-75h-346v75h93q17 0 17 26v386q-49 -57 -120 -57z" />
    <glyph glyph-name="two" unicode="2" horiz-adv-x="574" 
d="M265 597q-83 0 -130 -49q38 -4 59.5 -26t21.5 -55q0 -37 -24 -60t-64 -23q-42 0 -69.5 30t-27.5 78q0 81 71 133t176 52q126 0 198.5 -56.5t72.5 -153.5q0 -58 -23.5 -99.5t-60 -62.5t-84.5 -41t-93.5 -36t-92 -47t-74.5 -73h285q22 0 30 6.5t11 24.5l13 71h78v-210h-518
l6 38q12 80 56 138t97 90t104 59.5t85.5 62t34.5 80.5q0 59 -37.5 94t-100.5 35z" />
    <glyph glyph-name="three" unicode="3" horiz-adv-x="563" 
d="M197 185q0 -31 -21.5 -53.5t-53.5 -25.5q40 -39 139 -39q135 0 135 118v6q0 55 -30.5 82t-99.5 27q-21 0 -56 -5v93q22 -5 59 -5q57 0 90 27t33 72v6q0 53 -33 80.5t-91 27.5q-104 0 -137 -40q31 -3 52 -24.5t21 -50.5q0 -31 -22 -51.5t-58 -20.5q-42 0 -67.5 26
t-25.5 73q0 80 68 124.5t168 44.5q137 0 201.5 -44t64.5 -133q0 -54 -38.5 -91.5t-106.5 -47.5q154 -39 154 -174q0 -94 -74 -147t-207 -53q-116 0 -179.5 40.5t-63.5 123.5q0 49 27.5 78t71.5 29q33 0 56.5 -21t23.5 -52z" />
    <glyph glyph-name="four" unicode="4" horiz-adv-x="587" 
d="M12 185v77l297 402h175l-391 -399h239v109q31 0 64 21t50 42l18 21v-193h102v-80h-102v-81q0 -17 4 -23t15 -6h53v-75h-276v75h50q11 0 15 6t4 23v81h-317z" />
    <glyph glyph-name="five" unicode="5" horiz-adv-x="554" 
d="M190 192q0 -31 -20 -50.5t-55 -23.5q38 -50 140 -50q69 0 104.5 40.5t35.5 115.5v11q0 70 -30 102t-94 32q-113 0 -133 -84h-87l35 379h442q-15 -63 -50.5 -86.5t-109.5 -23.5h-203l-25 -164q59 62 170 62q108 0 166 -55.5t58 -159.5q0 -118 -73 -184t-206 -66
q-102 0 -167.5 46.5t-65.5 121.5q0 47 25.5 76t67.5 29q34 0 54.5 -19t20.5 -49z" />
    <glyph glyph-name="six" unicode="6" horiz-adv-x="592" 
d="M391 503q0 21 15 40.5t39 27.5q-36 20 -98 20q-98 0 -140.5 -56t-42.5 -181q0 -26 3 -51q17 54 64 84.5t116 30.5q107 0 166 -55.5t59 -152.5q0 -104 -68.5 -163.5t-191.5 -59.5q-139 0 -212.5 90t-73.5 255t80 255t231 90q106 0 164 -38t58 -113q0 -46 -24 -70.5
t-70 -24.5q-33 0 -53.5 20t-20.5 52zM307 69q62 0 95.5 33.5t33.5 93.5v13q0 60 -33 93.5t-93 33.5t-95 -35t-35 -93v-13q0 -58 33.5 -92t93.5 -34z" />
    <glyph glyph-name="seven" unicode="7" horiz-adv-x="541" 
d="M109 0l5 29q8 60 23 111.5t39.5 94t45.5 73.5t57 65t57.5 52t62.5 50q3 3 5 4t4.5 3t4.5 4q-27 -6 -55 -6q-47 0 -96.5 16t-79.5 32.5t-77 46.5v-143h-85v232h93q60 0 112 -16t81 -35.5t62.5 -37.5t60.5 -21l-13 110h113l-2 -56q-3 -58 -24.5 -108.5t-59 -99t-79 -98.5
t-93.5 -130t-94 -172h-68z" />
    <glyph glyph-name="eight" unicode="8" horiz-adv-x="575" 
d="M284 -13q-263 0 -263 179q0 53 37.5 92.5t103.5 59.5q-128 45 -128 164q0 92 67 143.5t188 51.5q126 0 186 -42t60 -129q0 -105 -129 -142q150 -49 150 -176q0 -95 -71.5 -148t-200.5 -53zM420 172q0 54 -45.5 80.5t-132.5 44.5q-96 -40 -96 -123q0 -50 36 -78t101 -28
q64 0 100.5 27.5t36.5 76.5zM167 500q0 -50 40.5 -75t118.5 -42q88 34 88 116q0 100 -121 100q-126 0 -126 -99z" />
    <glyph glyph-name="nine" unicode="9" horiz-adv-x="602" 
d="M208 155q0 -22 -13.5 -40t-36.5 -26q41 -19 110 -19q88 0 128.5 54t40.5 172q0 24 -3 54q-15 -53 -60.5 -83.5t-114.5 -30.5q-110 0 -169.5 56.5t-59.5 155.5q0 105 69.5 167t192.5 62q139 0 211 -89.5t72 -255.5q0 -165 -79 -255t-228 -90q-110 0 -169 38t-59 110
q0 45 24.5 70t68.5 25q34 0 54.5 -21.5t20.5 -53.5zM292 318q60 0 95 36t35 94v18q0 58 -33.5 93.5t-93.5 35.5q-62 0 -95.5 -34.5t-33.5 -94.5v-18q0 -60 32.5 -95t93.5 -35z" />
    <glyph glyph-name="colon" unicode=":" horiz-adv-x="222" 
d="M111 293q-37 0 -59.5 22t-22.5 57t22.5 57t59.5 22q36 0 59 -22t23 -57t-23 -57t-59 -22zM111 -13q-37 0 -59.5 22.5t-22.5 57.5t22.5 57t59.5 22q36 0 59 -22t23 -57t-23 -57.5t-59 -22.5z" />
    <glyph glyph-name="semicolon" unicode=";" horiz-adv-x="222" 
d="M56 -38q63 0 67 55q-12 -6 -31 -6q-30 0 -48.5 17t-18.5 47q0 31 22 51t57 20q42 0 71 -31t29 -80q0 -63 -37.5 -101t-100.5 -38q-23 0 -49 7v65q18 -6 39 -6zM111 293q-37 0 -59.5 22t-22.5 57t22.5 57t59.5 22q36 0 59 -22t23 -57t-23 -57t-59 -22z" />
    <glyph glyph-name="less" unicode="&#x3c;" horiz-adv-x="478" 
d="M433 27l-389 191v54l389 191v-99l-246 -119l246 -119v-99z" />
    <glyph glyph-name="equal" unicode="=" horiz-adv-x="479" 
d="M30 295v85h419v-85h-419zM30 110v85h419v-85h-419z" />
    <glyph glyph-name="greater" unicode="&#x3e;" horiz-adv-x="478" 
d="M48 27v99l245 119l-245 119v99l388 -191v-54z" />
    <glyph glyph-name="question" unicode="?" horiz-adv-x="502" 
d="M198 458q0 -32 -24.5 -54.5t-58.5 -21.5q-42 1 -69 29t-27 76q0 87 63 138.5t171 51.5q112 0 176 -51t64 -134q0 -42 -14 -73.5t-36 -50t-50 -37t-54.5 -34t-52 -41.5t-39.5 -59h-50l1 11q4 44 21 79.5t38.5 57.5t42.5 42t35 45t14 54q0 51 -30.5 79t-89.5 28
q-82 0 -117 -56q39 -1 62.5 -23.5t23.5 -55.5zM232 -13q-35 0 -57.5 22t-22.5 56t22.5 56t57.5 22t58 -22t23 -56t-23 -56t-58 -22z" />
    <glyph glyph-name="at" unicode="@" horiz-adv-x="752" 
d="M370 -16q-149 0 -244.5 80t-95.5 226q0 171 104 280t274 109q139 0 231 -70t92 -205q0 -106 -59 -174t-150 -68q-45 0 -74 17.5t-33 48.5q-42 -61 -107 -61q-50 0 -80 32.5t-30 84.5q0 83 48.5 145t122.5 62q71 0 91 -67l17 60h31q32 0 55 8l-49 -186q-12 -46 -11 -54
q0 -38 45 -38q56 0 92 56.5t36 129.5q0 111 -76.5 171t-190.5 60q-145 0 -234.5 -94.5t-89.5 -240.5q0 -124 79 -194t205 -70q138 0 227 89l38 -36q-101 -101 -264 -101zM341 221q40 0 69 48.5t29 105.5q0 28 -15 45t-40 17q-41 0 -70.5 -46t-29.5 -106q0 -29 16 -46.5
t41 -17.5z" />
    <glyph glyph-name="A" unicode="A" 
d="M503 103l-46 117h-233l-43 -117q-5 -17 -1 -22.5t18 -5.5h51v-75h-239v75h49q15 0 21.5 5.5t13.5 23.5l219 563h121l216 -563q12 -29 33 -29h40v-75h-283v75h46q28 0 17 28zM344 544l-95 -252h187z" />
    <glyph glyph-name="B" unicode="B" horiz-adv-x="609" 
d="M588 182q0 -95 -67 -138.5t-214 -43.5h-291v75h50q19 0 19 29v457q0 28 -19 28h-50v75h292q136 0 194.5 -39t58.5 -128q0 -120 -133 -150q160 -24 160 -165zM222 307v-232h91q70 0 99.5 26t29.5 88q0 64 -29 91t-94 27h-97zM222 372h76q61 0 90.5 26t29.5 82
q0 61 -25.5 85t-88.5 24h-82v-217z" />
    <glyph glyph-name="C" unicode="C" horiz-adv-x="664" 
d="M349 -13q-151 0 -238 91t-87 253q0 157 85 251.5t224 94.5q141 0 186 -117l28 104h80v-247h-115q-14 90 -54.5 132t-109.5 42q-179 0 -179 -242v-34q0 -118 46.5 -180t136.5 -62q85 0 133 43.5t55 130.5l91 -10q-3 -105 -75 -177.5t-207 -72.5z" />
    <glyph glyph-name="D" unicode="D" horiz-adv-x="685" 
d="M16 0v75h50q11 0 15 6t4 23v457q0 17 -4 22.5t-15 5.5h-50v75h295q175 0 262 -85.5t87 -248.5q0 -159 -89.5 -244.5t-266.5 -85.5h-288zM222 75h94q109 0 150.5 54t41.5 178v47q0 128 -39.5 181.5t-147.5 53.5h-99v-514z" />
    <glyph glyph-name="E" unicode="E" horiz-adv-x="604" 
d="M16 0v75h50q11 0 15 5.5t4 22.5v458q0 17 -4 22.5t-15 5.5h-50v75h542v-166h-87l-12 60q-4 20 -16.5 25.5t-44.5 5.5h-176v-216h112q17 0 23 6.5t6 24.5v37h75v-213h-75v37q0 18 -6.5 26t-22.5 8h-112v-224h189q33 0 45 5t16 26l12 60h86v-166h-554z" />
    <glyph glyph-name="F" unicode="F" horiz-adv-x="581" 
d="M361 210v37q0 18 -6.5 26t-22.5 8h-110v-178q0 -17 4 -22.5t15 -5.5h55v-75h-280v75h50q11 0 15 5.5t4 22.5v458q0 17 -4 22.5t-15 5.5h-50v75h530v-166h-87l-11 60q-4 21 -16 26t-45 5h-165v-234h110q17 0 23 6.5t6 24.5v37h75v-213h-75z" />
    <glyph glyph-name="G" unicode="G" horiz-adv-x="673" 
d="M571 0l-38 110q-48 -123 -216 -123q-140 0 -216.5 90.5t-76.5 253.5q0 157 83 251.5t222 94.5q70 0 121.5 -30.5t72.5 -86.5l28 104h80v-247h-115q-27 174 -170 174q-177 0 -177 -242v-34q0 -123 42.5 -182.5t132.5 -59.5q67 0 106.5 39.5t39.5 106.5v27h-144v75h285
v-321h-60z" />
    <glyph glyph-name="H" unicode="H" horiz-adv-x="728" 
d="M16 0v75h50q11 0 15 6t4 23v457q0 17 -4 22.5t-15 5.5h-50v75h274v-75h-49q-11 0 -15 -5.5t-4 -22.5v-186h284v186q0 17 -4 22.5t-15 5.5h-49v75h274v-75h-50q-11 0 -15 -5.5t-4 -22.5v-457q0 -17 4 -23t15 -6h50v-75h-274v75h49q11 0 15 6t4 23v196h-284v-196
q0 -17 4 -23t15 -6h49v-75h-274z" />
    <glyph glyph-name="I" unicode="I" horiz-adv-x="313" 
d="M19 0v75h50q11 0 15 6t4 23v457q0 17 -4 22.5t-15 5.5h-50v75h275v-75h-50q-11 0 -15 -5.5t-4 -22.5v-457q0 -17 4 -23t15 -6h50v-75h-275z" />
    <glyph glyph-name="J" unicode="J" horiz-adv-x="413" 
d="M135 -13q-66 0 -118 26v85q38 -24 90 -24q46 0 66.5 22.5t20.5 74.5v390q0 17 -3.5 22.5t-12.5 5.5h-54v75h274v-75h-48q-11 0 -15 -5.5t-4 -22.5v-387q0 -100 -46.5 -143.5t-149.5 -43.5z" />
    <glyph glyph-name="K" unicode="K" horiz-adv-x="692" 
d="M16 0v75h50q11 0 15 6t4 23v457q0 17 -4 22.5t-15 5.5h-50v75h276v-75h-49q-11 0 -15 -5.5t-4 -22.5v-250l234 248q10 10 7.5 20.5t-14.5 9.5h-58v75h271v-75h-37q-21 2 -46 -23l-156 -158l187 -309q14 -24 36 -24h36v-75h-296v75h52q21 0 9 20l-129 217l-96 -104v-104
q0 -17 4 -23t15 -6h49v-75h-276z" />
    <glyph glyph-name="L" unicode="L" horiz-adv-x="546" 
d="M16 0v75h50q11 0 15 6t4 23v457q0 17 -4 22.5t-15 5.5h-50v75h280v-75h-55q-11 0 -15 -5.5t-4 -22.5v-486h130q33 0 45.5 6t16.5 25l19 104h88v-210h-505z" />
    <glyph glyph-name="M" unicode="M" horiz-adv-x="857" 
d="M16 0v75h55q11 0 15 6t4 23v457q0 17 -4 22.5t-15 5.5h-55v75h267l145 -442l157 442h256v-75h-50q-11 0 -15 -5.5t-4 -22.5v-457q0 -17 4 -23t15 -6h50v-75h-274v75h51q11 0 15 6t4 23v470l-204 -574h-78l-183 561v-457q0 -17 4 -23t15 -6h54v-75h-229z" />
    <glyph glyph-name="N" unicode="N" 
d="M19 664h212l334 -447v344q0 17 -4 22.5t-15 5.5h-54v75h229v-75h-55q-11 0 -15 -5.5t-4 -22.5v-562h-87l-385 513v-409q0 -17 4 -22.5t15 -5.5h55v-75h-230v75h55q11 0 15 5.5t4 22.5v458q0 17 -4 22.5t-15 5.5h-55v75z" />
    <glyph glyph-name="O" unicode="O" horiz-adv-x="714" 
d="M357 -13q-155 0 -244 93.5t-89 250.5q0 155 94 250.5t245 95.5q154 0 242 -94t88 -252q0 -155 -93 -249.5t-243 -94.5zM359 73q192 0 192 235v46q0 237 -190 237q-193 0 -193 -237v-46q0 -121 48 -178t143 -57z" />
    <glyph glyph-name="P" unicode="P" horiz-adv-x="591" 
d="M16 0v75h50q11 0 15 6t4 23v457q0 17 -4 22.5t-15 5.5h-50v75h288q136 0 200.5 -48t64.5 -148q0 -105 -63 -152t-203 -47h-81v-165q0 -17 4 -23t15 -6h55v-75h-280zM222 589v-247h84q63 0 89.5 28.5t26.5 96.5q0 67 -26.5 94.5t-89.5 27.5h-84z" />
    <glyph glyph-name="Q" unicode="Q" horiz-adv-x="714" 
d="M443 -172q-74 12 -110.5 44t-50.5 94l-7 29q-119 23 -185 112t-66 224q0 155 94 250.5t245 95.5q154 0 242 -94t88 -252q0 -133 -69.5 -222.5t-186.5 -113.5l4 -37q5 -34 20.5 -44.5t44.5 -10.5h70v-75h-133zM359 73q192 0 192 235v46q0 237 -190 237q-193 0 -193 -237
v-46q0 -121 48 -178t143 -57z" />
    <glyph glyph-name="R" unicode="R" horiz-adv-x="637" 
d="M577 483q0 -69 -36 -109.5t-114 -53.5q63 -19 93.5 -63.5t36.5 -116.5q3 -38 14 -51.5t38 -13.5h21v-75h-109q-108 0 -120 158q-4 69 -26 101t-80 32h-75v-187q0 -17 4 -23t15 -6h50v-75h-273v75h50q11 0 15 6t4 23v457q0 16 -4 22t-15 6h-50v75h330q119 0 175 -43.5
t56 -137.5zM220 589v-233h73q71 0 103 27.5t32 92.5q0 62 -28 87.5t-92 25.5h-88z" />
    <glyph glyph-name="S" unicode="S" horiz-adv-x="568" 
d="M273 -13q-135 0 -239 57v155h110v-112q54 -19 135 -19q53 0 86 23.5t33 69.5q0 49 -33.5 68.5t-127.5 41.5q-102 24 -152.5 67t-50.5 125q0 101 70 157.5t195 56.5q107 0 211 -43v-165h-108v115q-50 12 -102 12q-65 0 -100 -25t-35 -72q0 -45 31 -64.5t121 -40.5
q51 -12 84 -24t66.5 -33t50 -54.5t16.5 -79.5q0 -98 -69.5 -157t-191.5 -59z" />
    <glyph glyph-name="T" unicode="T" horiz-adv-x="647" 
d="M181 0v75h55q11 0 15 6t4 23v489h-75q-33 0 -47 -6.5t-15 -27.5l-5 -59h-87v164h595v-164h-87l-5 59q-1 21 -15 27.5t-48 6.5h-79v-489q0 -17 4 -23t15 -6h55v-75h-280z" />
    <glyph glyph-name="U" unicode="U" horiz-adv-x="698" 
d="M347 -13q-147 0 -207.5 55t-60.5 187v332q0 17 -4 22.5t-15 5.5h-45v75h270v-75h-50q-11 0 -15 -5.5t-4 -22.5v-328q0 -90 33.5 -124.5t123.5 -34.5q81 0 118 38.5t37 119.5v329q0 17 -4 22.5t-15 5.5h-56v75h232v-75h-51q-11 0 -15 -5.5t-4 -22.5v-337q0 -237 -268 -237
z" />
    <glyph glyph-name="V" unicode="V" horiz-adv-x="732" 
d="M258 589q-15 0 -18.5 -5.5t1.5 -22.5l157 -393l149 393q4 17 0 22.5t-18 5.5h-62v75h258v-75h-55q-16 0 -23 -6t-14 -23l-224 -561h-87l-226 561q-6 17 -12.5 23t-19.5 6h-46v75h287v-75h-47z" />
    <glyph glyph-name="W" unicode="W" horiz-adv-x="1047" 
d="M266 -1l-176 561q-6 17 -12.5 23t-18.5 6h-45v75h279v-75h-48q-13 0 -17 -5.5t1 -22.5l114 -360l127 364q8 24 -14 24h-57v75h290v-75h-56q-21 0 -13 -24l131 -366l111 362q4 17 0.5 22.5t-16.5 5.5h-58v75h245v-75h-50q-15 0 -22.5 -5.5t-12.5 -23.5l-179 -561h-87
l-164 467l-165 -467h-87z" />
    <glyph glyph-name="X" unicode="X" horiz-adv-x="692" 
d="M6 0v75h54q28 0 50 30l169 221l-180 234q-1 1 -4.5 5.5t-4.5 5.5t-4 4.5t-4.5 4.5t-4.5 3.5t-5.5 3t-6 1.5t-7.5 1h-41v75h298v-75h-43q-11 0 -14.5 -8.5t4.5 -19.5l108 -152l113 150q8 13 4.5 21.5t-15.5 8.5h-62v75h271v-75h-54q-28 0 -50 -30l-161 -211l189 -244
q1 -1 4.5 -5.5t4.5 -5.5t4 -4.5t4.5 -4.5t4.5 -3.5t5.5 -3t6 -1.5t7.5 -1h40v-75h-298v75h44q11 0 14.5 8.5t-4.5 19.5l-117 163l-121 -161q-9 -12 -5 -21t16 -9h62v-75h-271z" />
    <glyph glyph-name="Y" unicode="Y" horiz-adv-x="675" 
d="M203 0v75h55q11 0 15 6t4 23v179l-185 280q-18 26 -36 26h-41v75h294v-75h-47q-13 0 -15.5 -10.5t4.5 -20.5l119 -187l118 192q5 7 1 16.5t-13 9.5h-65v75h260v-75h-53q-23 0 -39 -26l-170 -264v-195q0 -17 4 -23t15 -6h55v-75h-280z" />
    <glyph glyph-name="Z" unicode="Z" horiz-adv-x="607" 
d="M24 0v70l397 520h-215q-32 0 -45 -6.5t-17 -25.5l-19 -104h-78v210h534v-70l-398 -519h232q32 0 45.5 6.5t16.5 24.5l19 104h78v-210h-550z" />
    <glyph glyph-name="bracketleft" unicode="[" horiz-adv-x="329" 
d="M47 -172v836h265v-75h-109q-16 0 -21.5 -8t-5.5 -32v-606q0 -24 5.5 -32t21.5 -8h109v-75h-265z" />
    <glyph glyph-name="backslash" unicode="\" horiz-adv-x="391" 
d="M288 0l-278 664h93l278 -664h-93z" />
    <glyph glyph-name="bracketright" unicode="]" horiz-adv-x="329" 
d="M17 -172v75h109q16 0 21.5 8t5.5 32v606q0 24 -5.5 32t-21.5 8h-109v75h265v-836h-265z" />
    <glyph glyph-name="asciicircum" unicode="^" horiz-adv-x="499" 
d="M184 500h-65l85 136h93l84 -136h-66l-65 77z" />
    <glyph glyph-name="underscore" unicode="_" horiz-adv-x="317" 
d="M0 -90v75h317v-75h-317z" />
    <glyph glyph-name="grave" unicode="`" horiz-adv-x="499" 
d="M275 525l-157 93v46h124l90 -139h-57z" />
    <glyph glyph-name="a" unicode="a" horiz-adv-x="552" 
d="M245 424q-38 0 -64 -8q19 -22 19 -54q0 -33 -22 -53t-56 -20q-39 0 -61 21t-22 59q0 68 63.5 99.5t166.5 31.5q114 0 164.5 -38t50.5 -127v-234q0 -26 16 -26h42v-75h-162q-20 33 -30 83q-19 -41 -69 -68.5t-109 -27.5q-67 0 -107 36.5t-40 91.5q0 85 78 125t246 65v28
q0 48 -25 69.5t-79 21.5zM226 70q56 0 89 38t34 100v38q-99 -14 -146 -37.5t-47 -70.5q0 -31 19 -49.5t51 -18.5z" />
    <glyph glyph-name="b" unicode="b" horiz-adv-x="605" 
d="M365 -13q-72 0 -121 33t-70 93l-37 -113h-76q5 33 5 166v393q0 18 -3.5 24t-13.5 6h-46v75h80q74 0 118 10v-279q48 105 170 105q98 0 155.5 -69.5t57.5 -186.5q0 -116 -59.5 -186.5t-159.5 -70.5zM322 72q57 0 89.5 42.5t32.5 121.5v15q0 79 -32.5 121.5t-89.5 42.5
q-56 0 -88.5 -42t-32.5 -122v-15q0 -79 33 -121.5t88 -42.5z" />
    <glyph glyph-name="c" unicode="c" horiz-adv-x="519" 
d="M334 300q0 30 17.5 51t47.5 27q-23 46 -104 46q-68 0 -103.5 -42.5t-35.5 -124.5v-16q0 -173 134 -173q103 0 138 95l75 -35q-52 -141 -218 -141q-128 0 -197 67.5t-69 190.5q0 119 71 187t197 68q104 0 164 -45t60 -121q0 -49 -27.5 -78.5t-70.5 -29.5q-34 0 -56.5 21
t-22.5 53z" />
    <glyph glyph-name="d" unicode="d" horiz-adv-x="608" 
d="M239 -13q-100 0 -159.5 70.5t-59.5 186.5q0 115 60 185.5t158 70.5q121 0 165 -98v157q0 18 -3.5 24t-13.5 6h-47v75h83q72 0 116 10v-573q0 -16 4 -21t13 -5h42v-75h-179q-3 19 -7 95q-45 -108 -172 -108zM282 72q56 0 88.5 42t32.5 122v15q0 79 -33 121.5t-88 42.5
q-57 0 -89.5 -42.5t-32.5 -121.5v-15q0 -79 32.5 -121.5t89.5 -42.5z" />
    <glyph glyph-name="e" unicode="e" horiz-adv-x="530" 
d="M511 218h-354q2 -70 37.5 -110.5t101.5 -40.5q95 0 132 94l76 -34q-22 -64 -76 -102t-143 -38q-129 0 -197.5 70.5t-68.5 186.5q0 114 70 185t183 71q115 0 177 -67.5t62 -189.5v-25zM272 423q-108 0 -117 -137h220q-1 74 -25 105.5t-78 31.5z" />
    <glyph glyph-name="f" unicode="f" horiz-adv-x="315" 
d="M12 412v75h66v35q0 88 35.5 124.5t118.5 36.5q56 0 85 -18v-73q-14 9 -42 9q-41 0 -55 -20t-11 -78v-16h89v-75h-87v-311q0 -16 4 -21t13 -5h52v-75h-263v75h44q9 0 13 5t4 21v311h-66z" />
    <glyph glyph-name="g" unicode="g" horiz-adv-x="568" 
d="M269 -206q-140 0 -202 25t-62 76q0 71 129 95q-105 18 -105 101q0 74 90 99q-76 43 -76 135q0 78 66 126.5t168 48.5q91 0 153 -39q17 108 99 108q31 0 50.5 -18t19.5 -46q0 -27 -16.5 -45t-41.5 -18q-41 0 -53 37q-18 -16 -26 -44q44 -46 44 -109q0 -80 -63.5 -125
t-171.5 -45q-66 0 -109 14q-31 -7 -31 -32q0 -20 14 -28t50 -8q23 0 108.5 1t104.5 1q154 0 154 -138q0 -83 -75 -127.5t-218 -44.5zM369 -23h-191q-67 -19 -67 -72q0 -29 39 -42t124 -13q186 0 186 75q0 30 -19.5 41t-71.5 11zM272 219q46 0 71 26t25 74v14q0 102 -93 102
q-96 0 -96 -103v-14q0 -48 24 -73.5t69 -25.5z" />
    <glyph glyph-name="h" unicode="h" horiz-adv-x="596" 
d="M206 674v-270q46 96 163 96q158 0 158 -180v-219q0 -16 4 -21t13 -5h44v-75h-252v75h39q9 0 13 5t4 21v213q0 51 -19 74.5t-61 23.5q-106 0 -106 -161v-150q0 -16 4 -21t13 -5h39v-75h-252v75h44q9 0 13 5t4 21v458q0 18 -3.5 24t-13.5 6h-47v75h83q72 0 116 10z" />
    <glyph glyph-name="i" unicode="i" horiz-adv-x="289" 
d="M144 532q-37 0 -60.5 23.5t-23.5 58.5t23.5 58.5t60.5 23.5q36 0 60 -24t24 -58t-24 -58t-60 -24zM16 0v75h45q16 0 16 26v271q0 23 -4.5 31.5t-17.5 8.5h-39v75h80q71 0 117 10v-396q0 -26 16 -26h42v-75h-255z" />
    <glyph glyph-name="j" unicode="j" horiz-adv-x="269" 
d="M140 532q-37 0 -60.5 23.5t-23.5 58.5t23.5 58.5t60.5 23.5q36 0 60 -24t24 -58t-24 -58t-60 -24zM-30 -159v72q21 -8 42 -8q34 0 47 14.5t13 52.5l1 400q0 23 -4.5 31.5t-17.5 8.5h-38v75h79q71 0 117 10v-513q0 -87 -36.5 -124t-119.5 -37q-54 0 -83 18z" />
    <glyph glyph-name="k" unicode="k" horiz-adv-x="576" 
d="M10 0v75h44q9 0 13 5t4 21v458q0 18 -3.5 24t-13.5 6h-47v75h83q72 0 116 10v-435l156 151q4 3 5 8.5t-3 10t-12 4.5h-51v74h255v-74h-35q-27 0 -47 -18l-99 -89l139 -212q11 -19 29 -19h29v-75h-249v75h35q20 0 7 21l-84 129l-75 -72v-52q0 -16 4 -21t13 -5h39v-75h-252
z" />
    <glyph glyph-name="l" unicode="l" horiz-adv-x="290" 
d="M16 0v75h45q8 0 12 5t4 21v458q0 18 -3.5 24t-12.5 6h-47v75h82q71 0 117 10v-573q0 -16 4 -21t12 -5h40v-75h-253z" />
    <glyph glyph-name="m" unicode="m" horiz-adv-x="895" 
d="M15 0v75h44q9 0 13 5t4 21v281q0 18 -3.5 24t-13.5 6h-44v75h78q72 0 116 10v-96q46 99 152 99q120 0 145 -111q40 111 160 111q161 0 161 -190v-209q0 -16 4 -21t13 -5h44v-75h-250v75h37q9 0 13 5t4 21v201q0 56 -19.5 82t-60.5 26q-93 0 -93 -142v-167q0 -16 4 -21
t13 -5h42v-75h-248v75h37q9 0 13 5t4 21v210q0 99 -80 99q-93 0 -93 -142v-167q0 -16 4 -21t13 -5h39v-75h-252z" />
    <glyph glyph-name="n" unicode="n" horiz-adv-x="601" 
d="M209 497v-97q46 100 165 100q158 0 158 -182v-217q0 -16 4 -21t13 -5h44v-75h-252v75h39q9 0 13 5t4 21v214q0 51 -19.5 74t-60.5 23q-106 0 -106 -159v-152q0 -16 4 -21t13 -5h39v-75h-252v75h44q9 0 13 5t4 21v281q0 18 -3.5 24t-13.5 6h-44v75h78q72 0 116 10z" />
    <glyph glyph-name="o" unicode="o" horiz-adv-x="557" 
d="M277 -13q-116 0 -187 70.5t-71 186.5q0 114 72.5 185t189.5 71q115 0 185.5 -70.5t70.5 -185.5t-71.5 -186t-188.5 -71zM278 67q64 0 94 41.5t30 128.5v13q0 88 -30 129t-93 41q-64 0 -94 -41t-30 -129v-13q0 -88 29.5 -129t93.5 -41z" />
    <glyph glyph-name="p" unicode="p" horiz-adv-x="610" 
d="M10 -172v75h44q9 0 13 5t4 21v453q0 18 -3.5 24t-13.5 6h-47v75h81q72 0 116 10v-109q46 112 172 112q98 0 155.5 -69.5t57.5 -186.5q0 -116 -59.5 -186.5t-159.5 -70.5q-118 0 -164 103v-161q0 -16 4 -21t13 -5h44v-75h-257zM327 74q57 0 89.5 41.5t32.5 120.5v15
q0 79 -32.5 120.5t-89.5 41.5q-56 0 -88.5 -41t-32.5 -121v-15q0 -79 33 -120.5t88 -41.5z" />
    <glyph glyph-name="q" unicode="q" horiz-adv-x="605" 
d="M342 -172v75h44q9 0 13 5t4 21v161q-50 -103 -164 -103q-100 0 -159.5 70.5t-59.5 186.5q0 115 60 185.5t158 70.5q122 0 168 -104v91h51q51 0 81 10v-568q0 -16 4 -21t13 -5h44v-75h-257zM282 74q56 0 88.5 41t32.5 121v15q0 79 -33 120.5t-88 41.5q-57 0 -89.5 -41.5
t-32.5 -120.5v-15q0 -79 32.5 -120.5t89.5 -41.5z" />
    <glyph glyph-name="r" unicode="r" horiz-adv-x="469" 
d="M213 497v-107q32 110 132 110q54 0 85.5 -32t31.5 -86q0 -47 -26 -76t-69 -29q-28 0 -48 19.5t-20 46.5q0 21 13 39t35 25q-12 10 -33 10q-49 0 -74.5 -42.5t-25.5 -120.5v-153q0 -16 4 -21t13 -5h47v-75h-260v75h44q9 0 13 5t4 21v281q0 18 -3.5 24t-13.5 6h-47v75h81
q71 0 117 10z" />
    <glyph glyph-name="s" unicode="s" horiz-adv-x="451" 
d="M22 27v131h102v-90q32 -10 88 -10q97 0 97 65q0 33 -28 47t-87 25q-38 7 -64.5 15.5t-54 24t-41.5 42.5t-14 64q0 73 57 116t159 43q48 0 100 -12t82 -27v-129h-102v84q-24 12 -76 12q-45 0 -70 -16.5t-25 -45.5q0 -22 15 -35t33.5 -18.5t53.5 -11.5q8 -1 12 -2
q39 -8 65 -16t54 -24.5t42 -43.5t14 -65q0 -74 -58.5 -118.5t-161.5 -44.5q-91 0 -192 40z" />
    <glyph glyph-name="t" unicode="t" horiz-adv-x="326" 
d="M221 -12q-83 0 -118 34.5t-35 116.5v273h-66v67l38 3q28 5 42.5 17t17.5 38l10 88h93v-138h97v-75h-100v-271q0 -39 14.5 -55t47.5 -16q22 0 46 8v-77q-41 -13 -87 -13z" />
    <glyph glyph-name="u" unicode="u" horiz-adv-x="593" 
d="M502 0q-71 0 -117 -10v89q-47 -92 -160 -92q-159 0 -159 178v221q0 16 -4 21t-12 5h-45v75h197v-319q0 -51 20 -73t60 -22q50 0 76.5 37.5t26.5 107.5v168q0 16 -4 21t-13 5h-49v75h201v-382q0 -18 3.5 -24t13.5 -6h47v-75h-82z" />
    <glyph glyph-name="v" unicode="v" horiz-adv-x="573" 
d="M209 383q15 -43 104 -245l104 243q5 12 -0.5 21.5t-17.5 9.5h-45v75h218v-75h-37q-25 0 -36 -26l-172 -392h-82l-173 392q-9 26 -27 26h-38v75h260v-75h-40q-29 0 -18 -29z" />
    <glyph glyph-name="w" unicode="w" horiz-adv-x="826" 
d="M204 -6l-141 392q-6 16 -11.5 21t-14.5 5h-32v75h244v-75h-31q-28 0 -17 -29l79 -231q72 192 84 231q5 14 0 21.5t-17 7.5h-27v75h238v-75h-30q-28 0 -17 -29q3 -10 92 -233l29.5 88.5l33 99l14.5 43.5q8 31 -17 31h-34v75h192v-75h-31q-10 0 -15 -4.5t-11 -21.5
l-139 -392h-91l-118 315l-121 -315h-91z" />
    <glyph glyph-name="x" unicode="x" horiz-adv-x="567" 
d="M8 0v75h38q3 0 6 1t5 1.5t5 3t4.5 4t6 6.5t6.5 7l130 145l-125 146q-20 23 -33 23h-31v75h269v-75h-39q-7 0 -10.5 -4.5t4.5 -17.5l67 -89l76 89q6 8 3.5 15t-10.5 7h-36v75h212v-75h-44q-3 0 -6 -1t-5 -1.5t-5 -3t-4.5 -4t-6 -6.5t-6.5 -7l-120 -134l132 -155
q21 -25 33 -25h30v-75h-269v75h39q9 0 12.5 5.5t-4.5 16.5l-77 100l-84 -100q-6 -7 -3.5 -14.5t10.5 -7.5h36v-75h-206z" />
    <glyph glyph-name="y" unicode="y" horiz-adv-x="568" 
d="M242 6v3l-174 377q-7 16 -12.5 21t-15.5 5h-33v75h258v-75h-38q-13 0 -17.5 -8.5t1.5 -20.5l107 -236l96 234q13 31 -19 31h-40v75h209v-75h-39q-12 0 -17.5 -4.5t-12.5 -21.5l-161 -386q-43 -101 -88 -143.5t-121 -42.5q-58 0 -94 27.5t-36 76.5q0 40 22.5 63.5
t60.5 23.5q46 0 63.5 -34t-8.5 -79q35 3 60.5 29.5t48.5 84.5z" />
    <glyph glyph-name="z" unicode="z" horiz-adv-x="501" 
d="M21 0v66l297 354h-126q-32 0 -44.5 -5.5t-16.5 -25.5l-14 -78h-80v176h433v-66l-297 -354h140q32 0 44.5 5.5t16.5 25.5l14 78h80v-176h-447z" />
    <glyph glyph-name="braceleft" unicode="{" horiz-adv-x="362" 
d="M225 384q0 -58 -20.5 -91.5t-71.5 -46.5q51 -14 71.5 -47t20.5 -91v-84q0 -68 21.5 -93t78.5 -27l20 -1v-75l-63 1q-100 3 -145.5 49t-45.5 140v94q0 51 -17 73.5t-58 22.5h-12v76h12q41 0 58 22.5t17 73.5v85q0 95 45.5 144.5t145.5 53.5l63 1v-75l-20 -1
q-56 -4 -78 -31t-22 -96v-77z" />
    <glyph glyph-name="bar" unicode="|" horiz-adv-x="205" 
d="M40 -172v836h125v-836h-125z" />
    <glyph glyph-name="braceright" unicode="}" horiz-adv-x="362" 
d="M136 384v77q0 69 -21.5 96t-78.5 31l-20 1v75l64 -1q99 -4 144.5 -53.5t45.5 -144.5v-85q0 -51 17 -73.5t58 -22.5h13v-76h-13q-41 0 -58 -22.5t-17 -73.5v-94q0 -94 -45.5 -140t-144.5 -49l-64 -1v75l20 1q57 2 78.5 26.5t21.5 93.5v84q0 58 20.5 91t71.5 47
q-51 13 -71.5 46.5t-20.5 91.5z" />
    <glyph glyph-name="asciitilde" unicode="~" horiz-adv-x="440" 
d="M68 177l4 33q4 46 23 67t55 21q33 0 76.5 -26t55.5 -26q20 0 24 26l4 21h62l-4 -33q-5 -47 -23.5 -68.5t-54.5 -21.5q-34 0 -77 26.5t-55 26.5q-22 0 -25 -26l-3 -20h-62z" />
    <glyph glyph-name="exclamdown" unicode="&#xa1;" horiz-adv-x="232" 
d="M117 521q-35 0 -58 22t-23 56t23 56t58 22t57.5 -22t22.5 -56t-22.5 -56t-57.5 -22zM44 0v169q0 41 7.5 92t22.5 121.5t18 84.5h44q3 -14 18 -84.5t22.5 -121.5t7.5 -92v-169h-140z" />
    <glyph glyph-name="cent" unicode="&#xa2;" horiz-adv-x="525" 
d="M264 -94v97q-117 8 -181 75t-64 183q0 111 65.5 178.5t179.5 75.5v92h54v-92q93 -5 146 -50t53 -117q0 -49 -27.5 -78.5t-70.5 -29.5q-34 0 -56.5 21t-22.5 53q0 31 19.5 52t51.5 26q-23 43 -93 47v-354q84 9 116 94l75 -35q-48 -129 -191 -140v-98h-54zM156 257
q0 -150 108 -170v349q-108 -22 -108 -163v-16z" />
    <glyph glyph-name="sterling" unicode="&#xa3;" horiz-adv-x="586" 
d="M27 251v65h85q-49 77 -49 145q0 102 70 159t197 57q109 0 171.5 -52t62.5 -145q0 -49 -24 -79t-64 -31q-35 -1 -59 19.5t-24 51.5q0 29 21.5 52.5t58.5 25.5q-34 77 -133 77q-65 0 -100 -36.5t-35 -101.5q0 -52 32 -142h170v-65h-148q14 -49 14 -89q0 -11 -1 -17
q7 -3 38 -16t42.5 -17t33 -9t39.5 -5q36 0 50 13t14 49v31h82v-67q0 -71 -30 -104t-94 -33q-38 0 -77.5 14t-61.5 27t-60 38q-46 -79 -136 -79q-48 0 -75.5 25.5t-27.5 67.5q0 43 32.5 72t82.5 29q36 0 69 -9q-7 33 -37 79h-129zM115 31q28 0 49 19.5t29 51.5q-42 23 -72 23
q-29 0 -46 -13.5t-17 -33.5q0 -47 57 -47z" />
    <glyph glyph-name="currency" unicode="&#xa4;" horiz-adv-x="662" 
d="M15 350v55h62q17 127 91.5 199.5t186.5 72.5q107 0 172 -88l23 75h78v-197h-110q-39 117 -143 117q-133 0 -151 -179h230v-55h-232v-3v-34q0 -23 1 -33h191v-55h-185q26 -145 156 -145q57 0 97.5 35.5t54.5 100.5l97 -35q-17 -90 -84 -142t-177 -52q-118 0 -193.5 61
t-98.5 177h-66v55h59q-2 16 -2 50v20h-57z" />
    <glyph glyph-name="yen" unicode="&#xa5;" horiz-adv-x="647" 
d="M65 305v55h170l-130 203q-18 26 -36 26h-41v75h278v-75h-44q-29 0 -15 -26l98 -161l97 161q13 26 -17 26h-44v75h237v-75h-39q-22 0 -39 -26l-133 -203h170v-55h-186v-80h186v-55h-186v-66q0 -17 4 -23t15 -6h57v-75h-292v75h58q11 0 15 6t4 23v66h-187v55h187v80h-187z
" />
    <glyph glyph-name="section" unicode="&#xa7;" horiz-adv-x="603" 
d="M317 611q-42 0 -68 -23t-26 -56q0 -14 4.5 -25.5t17.5 -21t22.5 -15.5t33 -13.5t35 -11t42.5 -11.5q33 -9 57.5 -17.5t54 -23.5t48 -32.5t31.5 -44t13 -58.5q0 -60 -38 -101t-111 -53q60 -40 60 -109q0 -70 -57.5 -117.5t-145.5 -46.5q-91 1 -144.5 36t-53.5 100
q0 38 21.5 59t57.5 21q27 0 45 -18.5t18 -42.5q0 -17 -10.5 -33t-28.5 -24q20 -32 93 -32q42 0 67.5 22t25.5 56q0 26 -21 44.5t-46 27.5t-73 22q-10 3 -15 4q-42 11 -72.5 23t-63.5 32t-50.5 50.5t-17.5 69.5q0 61 38 102t111 53q-61 38 -61 109q0 69 59.5 117t148.5 48
q88 0 137 -36.5t49 -101.5q0 -38 -22 -59t-58 -21q-27 0 -45 18.5t-18 42.5q0 19 12.5 36.5t33.5 23.5q-20 31 -90 31zM471 225q0 22 -11 39t-36.5 30t-47.5 21t-62 20q-52 16 -69 22q-52 4 -82 -17.5t-30 -57.5q0 -18 9 -33.5t20.5 -25.5t36 -20.5t41.5 -16t50 -15.5
q50 -15 69 -23q52 -3 82 19t30 58z" />
    <glyph glyph-name="dieresis" unicode="&#xa8;" horiz-adv-x="500" 
d="M342 535q-28 0 -45.5 17.5t-17.5 45.5t17 45t46 17q28 0 45.5 -17t17.5 -45t-17.5 -45.5t-45.5 -17.5zM157 535q-28 0 -45 17.5t-17 45.5t17 45t45 17q29 0 46.5 -17t17.5 -45t-17.5 -45.5t-46.5 -17.5z" />
    <glyph glyph-name="copyright" unicode="&#xa9;" horiz-adv-x="739" 
d="M370 -13q-157 0 -252.5 94.5t-95.5 249.5t95.5 250.5t252.5 95.5q155 0 251 -95.5t96 -250.5t-95.5 -249.5t-251.5 -94.5zM370 35q131 0 212 81.5t81 214.5t-81.5 215.5t-211.5 82.5q-131 0 -212.5 -82.5t-81.5 -215.5q0 -132 81.5 -214t212.5 -82zM370 139
q-85 0 -134 50.5t-49 141.5q0 85 49 138.5t126 53.5q65 0 97 -55l21 48h47v-138h-69q-10 45 -29.5 65t-52.5 20q-48 0 -73.5 -33t-25.5 -95v-8q0 -64 28 -96.5t76 -32.5q75 0 92 76l60 -23q-29 -112 -163 -112z" />
    <glyph glyph-name="ordfeminine" unicode="&#xaa;" horiz-adv-x="404" 
d="M177 623q-31 0 -48 -12q9 -11 9 -27q0 -20 -13 -32.5t-33 -12.5q-25 0 -40 12.5t-15 35.5q0 90 164 90q81 0 114.5 -31.5t33.5 -102.5v-141q0 -18 12 -18h27v-57h-121q-11 17 -21 57q-13 -29 -43 -47.5t-70 -18.5q-49 0 -78.5 25t-29.5 66q0 22 6.5 39.5t23 30.5t32 22
t46 17.5t51.5 13.5t61 13v13q0 31 -15 48t-53 17zM174 378q71 0 71 92v30q-72 -15 -97.5 -29.5t-25.5 -47.5q0 -21 14 -33t38 -12z" />
    <glyph glyph-name="guillemotleft" unicode="&#xab;" horiz-adv-x="407" 
d="M380 87l-180 132v52l180 132v-100l-81 -58l81 -58v-100zM190 102l-168 117v52l168 117v-93l-74 -50l74 -51v-92z" />
    <glyph glyph-name="registered" unicode="&#xae;" horiz-adv-x="739" 
d="M370 -13q-157 0 -252.5 94.5t-95.5 249.5t95.5 250.5t252.5 95.5q155 0 251 -95.5t96 -250.5t-95.5 -249.5t-251.5 -94.5zM370 35q131 0 212 81.5t81 214.5t-81.5 215.5t-211.5 82.5q-131 0 -212.5 -82.5t-81.5 -215.5q0 -132 81.5 -214t212.5 -82zM524 417
q0 -70 -83 -90q40 -9 57 -33t19 -66q2 -20 6.5 -26.5t17.5 -6.5h7v-46h-57q-59 0 -66 89q-2 36 -18.5 53t-56.5 17h-23v-100q0 -13 8 -13h30v-46h-162v46h30q8 0 8 13v251q0 13 -8 13h-30v46h184q137 0 137 -101zM327 472v-123h36q42 0 59 15t17 48q0 31 -14.5 45.5
t-51.5 14.5h-46z" />
    <glyph glyph-name="macron" unicode="&#xaf;" horiz-adv-x="500" 
d="M96 554v75h305v-75h-305z" />
    <glyph glyph-name="degree" unicode="&#xb0;" horiz-adv-x="377" 
d="M187 350q-76 0 -120 45t-44 119q0 72 45.5 117.5t122.5 45.5q75 0 119 -45.5t44 -117.5q0 -73 -45.5 -118.5t-121.5 -45.5zM187 411q71 0 71 101v3q0 100 -69 100q-71 0 -71 -100v-3q0 -101 69 -101z" />
    <glyph glyph-name="acute" unicode="&#xb4;" horiz-adv-x="500" 
d="M167 526l90 138h124v-46l-157 -92h-57z" />
    <glyph glyph-name="paragraph" unicode="&#xb6;" horiz-adv-x="626" 
d="M337 0v279h-35q-280 0 -280 187q0 198 286 198h300v-75h-45q-11 0 -15 -5.5t-4 -22.5v-561h-72v589h-63v-589h-72zM169 469q0 -66 29.5 -91.5t105.5 -25.5h33v237h-32q-77 0 -106.5 -26t-29.5 -94z" />
    <glyph glyph-name="periodcentered" unicode="&#xb7;" horiz-adv-x="222" 
d="M111 164q-37 0 -59.5 22.5t-22.5 57.5t22.5 57t59.5 22q36 0 59 -22t23 -57t-23 -57.5t-59 -22.5z" />
    <glyph glyph-name="cedilla" unicode="&#xb8;" horiz-adv-x="500" 
d="M266 -197q-63 0 -121 30l9 44q59 -23 101 -23q54 0 54 28q0 27 -47 27q-20 0 -37 -9l-4 4v99h67l1 -48q4 1 13 1q96 0 96 -73q0 -37 -35 -58.5t-97 -21.5z" />
    <glyph glyph-name="ordmasculine" unicode="&#xba;" horiz-adv-x="417" 
d="M207 318q-83 0 -135 49t-52 130q0 80 53 130t136 50t135.5 -49.5t52.5 -130.5q0 -80 -53 -129.5t-137 -49.5zM208 379q84 0 84 114v8q0 115 -84 115t-84 -115v-8q0 -114 84 -114z" />
    <glyph glyph-name="guillemotright" unicode="&#xbb;" horiz-adv-x="407" 
d="M217 102v92l74 51l-74 50v93l168 -117v-52zM27 87v100l80 58l-80 58v100l180 -132v-52z" />
    <glyph glyph-name="questiondown" unicode="&#xbf;" horiz-adv-x="502" 
d="M304 206q0 -33 23.5 -56t62.5 -24q-37 -55 -117 -55q-59 0 -89.5 28t-30.5 79q0 29 14 53.5t35 44.5t42.5 42.5t38.5 58t21 79.5l1 11h-50q-14 -33 -39.5 -59t-52 -41.5t-54.5 -34t-50 -37t-36 -50t-14 -73.5q0 -83 64 -134t176 -51q108 0 171 51.5t63 138.5q0 48 -27 76
t-69 29q-34 1 -58.5 -21.5t-24.5 -54.5zM270 521q-35 0 -58 22t-23 56t23 56t58 22t57.5 -22t22.5 -56t-22.5 -56t-57.5 -22z" />
    <glyph glyph-name="Agrave" unicode="&#xc0;" 
d="M503 103l-46 117h-233l-43 -117q-5 -17 -1 -22.5t18 -5.5h51v-75h-239v75h49q15 0 21.5 5.5t13.5 23.5l219 563h121l216 -563q12 -29 33 -29h40v-75h-283v75h46q28 0 17 28zM344 544l-95 -252h187zM348 702l-157 93v46h124l90 -139h-57z" />
    <glyph glyph-name="Aacute" unicode="&#xc1;" 
d="M503 103l-46 117h-233l-43 -117q-5 -17 -1 -22.5t18 -5.5h51v-75h-239v75h49q15 0 21.5 5.5t13.5 23.5l219 563h121l216 -563q12 -29 33 -29h40v-75h-283v75h46q28 0 17 28zM344 544l-95 -252h187zM337 703l90 138h124v-46l-157 -92h-57z" />
    <glyph glyph-name="Acircumflex" unicode="&#xc2;" 
d="M503 103l-46 117h-233l-43 -117q-5 -17 -1 -22.5t18 -5.5h51v-75h-239v75h49q15 0 21.5 5.5t13.5 23.5l219 563h121l216 -563q12 -29 33 -29h40v-75h-283v75h46q28 0 17 28zM344 544l-95 -252h187zM304 697h-65l85 136h93l84 -136h-66l-65 77z" />
    <glyph glyph-name="Atilde" unicode="&#xc3;" 
d="M503 103l-46 117h-233l-43 -117q-5 -17 -1 -22.5t18 -5.5h51v-75h-239v75h49q15 0 21.5 5.5t13.5 23.5l219 563h121l216 -563q12 -29 33 -29h40v-75h-283v75h46q28 0 17 28zM344 544l-95 -252h187zM218 707l4 33q4 46 23 67t55 21q34 0 77 -26t55 -26q20 0 24 26l4 21h62
l-4 -33q-5 -47 -23.5 -68.5t-54.5 -21.5q-34 0 -77 26.5t-55 26.5q-22 0 -25 -26l-3 -20h-62z" />
    <glyph glyph-name="Adieresis" unicode="&#xc4;" 
d="M503 103l-46 117h-233l-43 -117q-5 -17 -1 -22.5t18 -5.5h51v-75h-239v75h49q15 0 21.5 5.5t13.5 23.5l219 563h121l216 -563q12 -29 33 -29h40v-75h-283v75h46q28 0 17 28zM344 544l-95 -252h187zM462 707q-28 0 -45.5 17.5t-17.5 45.5t17 45t46 17q28 0 45.5 -17
t17.5 -45t-17.5 -45.5t-45.5 -17.5zM277 707q-28 0 -45 17.5t-17 45.5t17 45t45 17q29 0 46.5 -17t17.5 -45t-17.5 -45.5t-46.5 -17.5z" />
    <glyph glyph-name="Aring" unicode="&#xc5;" 
d="M481 721q0 -49 -39 -76l208 -541q12 -29 33 -29h40v-75h-283v75h46q28 0 17 28l-46 117h-233l-43 -117q-5 -17 -1 -22.5t18 -5.5h51v-75h-239v75h49q15 0 21.5 5.5t13.5 23.5l209 538q-44 27 -44 79q0 42 30.5 68.5t80.5 26.5t80.5 -26.5t30.5 -68.5zM344 544l-95 -252
h187zM370 674q20 0 33.5 13.5t13.5 33.5t-13.5 33.5t-33.5 13.5t-33.5 -13.5t-13.5 -33.5t13.5 -33.5t33.5 -13.5z" />
    <glyph glyph-name="AE" unicode="&#xc6;" horiz-adv-x="946" 
d="M696 228v37q0 18 -6.5 26t-22.5 8h-77v-224h184q30 0 40 5t20 26l12 60h67v-166h-529v75h50q11 0 15 5.5t4 22.5v124h-186l-67 -124q-8 -17 -5 -22.5t17 -5.5h40v-75h-237v75h39q29 0 44 29l248 454q7 15 2 23t-16 8h-63v75h631v-166h-66l-13 60q-10 19 -21 25t-39 6
h-171v-216h77q17 0 23 6.5t6 24.5v37h75v-213h-75zM302 297h151v281z" />
    <glyph glyph-name="Ccedilla" unicode="&#xc7;" horiz-adv-x="664" 
d="M355 -197q-63 0 -121 30l9 44q59 -23 101 -23q54 0 54 28q0 27 -47 27q-21 0 -37 -9l-4 4v85q-134 11 -210 101t-76 241q0 157 85 251.5t224 94.5q141 0 186 -117l28 104h80v-247h-115q-14 90 -54.5 132t-109.5 42q-179 0 -179 -242v-34q0 -118 46.5 -180t136.5 -62
q85 0 133 43.5t55 130.5l91 -10q-3 -99 -67.5 -170t-186.5 -79l1 -33q4 1 13 1q96 0 96 -73q0 -37 -35 -58.5t-97 -21.5z" />
    <glyph glyph-name="Egrave" unicode="&#xc8;" horiz-adv-x="604" 
d="M16 0v75h50q11 0 15 5.5t4 22.5v458q0 17 -4 22.5t-15 5.5h-50v75h542v-166h-87l-12 60q-4 20 -16.5 25.5t-44.5 5.5h-176v-216h112q17 0 23 6.5t6 24.5v37h75v-213h-75v37q0 18 -6.5 26t-22.5 8h-112v-224h189q33 0 45 5t16 26l12 60h86v-166h-554zM317 702l-157 93v46
h124l90 -139h-57z" />
    <glyph glyph-name="Eacute" unicode="&#xc9;" horiz-adv-x="604" 
d="M16 0v75h50q11 0 15 5.5t4 22.5v458q0 17 -4 22.5t-15 5.5h-50v75h542v-166h-87l-12 60q-4 20 -16.5 25.5t-44.5 5.5h-176v-216h112q17 0 23 6.5t6 24.5v37h75v-213h-75v37q0 18 -6.5 26t-22.5 8h-112v-224h189q33 0 45 5t16 26l12 60h86v-166h-554zM239 703l90 138h124
v-46l-157 -92h-57z" />
    <glyph glyph-name="Ecircumflex" unicode="&#xca;" horiz-adv-x="604" 
d="M16 0v75h50q11 0 15 5.5t4 22.5v458q0 17 -4 22.5t-15 5.5h-50v75h542v-166h-87l-12 60q-4 20 -16.5 25.5t-44.5 5.5h-176v-216h112q17 0 23 6.5t6 24.5v37h75v-213h-75v37q0 18 -6.5 26t-22.5 8h-112v-224h189q33 0 45 5t16 26l12 60h86v-166h-554zM244 702h-65l85 136
h93l84 -136h-66l-65 77z" />
    <glyph glyph-name="Edieresis" unicode="&#xcb;" horiz-adv-x="604" 
d="M16 0v75h50q11 0 15 5.5t4 22.5v458q0 17 -4 22.5t-15 5.5h-50v75h542v-166h-87l-12 60q-4 20 -16.5 25.5t-44.5 5.5h-176v-216h112q17 0 23 6.5t6 24.5v37h75v-213h-75v37q0 18 -6.5 26t-22.5 8h-112v-224h189q33 0 45 5t16 26l12 60h86v-166h-554zM397 712
q-29 0 -46 17t-17 46q0 28 17 45t46 17q28 0 45.5 -17t17.5 -45t-17.5 -45.5t-45.5 -17.5zM212 712q-28 0 -45 17.5t-17 45.5t17 45t45 17q29 0 46.5 -17t17.5 -45t-17.5 -45.5t-46.5 -17.5z" />
    <glyph glyph-name="Igrave" unicode="&#xcc;" horiz-adv-x="313" 
d="M19 0v75h50q11 0 15 6t4 23v457q0 17 -4 22.5t-15 5.5h-50v75h275v-75h-50q-11 0 -15 -5.5t-4 -22.5v-457q0 -17 4 -23t15 -6h50v-75h-275zM165 702l-157 93v46h124l90 -139h-57z" />
    <glyph glyph-name="Iacute" unicode="&#xcd;" horiz-adv-x="313" 
d="M19 0v75h50q11 0 15 6t4 23v457q0 17 -4 22.5t-15 5.5h-50v75h275v-75h-50q-11 0 -15 -5.5t-4 -22.5v-457q0 -17 4 -23t15 -6h50v-75h-275zM101 703l90 138h124v-46l-157 -92h-57z" />
    <glyph glyph-name="Icircumflex" unicode="&#xce;" horiz-adv-x="313" 
d="M19 0v75h50q11 0 15 6t4 23v457q0 17 -4 22.5t-15 5.5h-50v75h275v-75h-50q-11 0 -15 -5.5t-4 -22.5v-457q0 -17 4 -23t15 -6h50v-75h-275zM96 702h-65l85 136h93l84 -136h-66l-65 77z" />
    <glyph glyph-name="Idieresis" unicode="&#xcf;" horiz-adv-x="313" 
d="M19 0v75h50q11 0 15 6t4 23v457q0 17 -4 22.5t-15 5.5h-50v75h275v-75h-50q-11 0 -15 -5.5t-4 -22.5v-457q0 -17 4 -23t15 -6h50v-75h-275zM255 712q-29 0 -46 17t-17 46q0 28 17 45t46 17q28 0 45.5 -17t17.5 -45t-17.5 -45.5t-45.5 -17.5zM70 712q-28 0 -45 17.5
t-17 45.5t17 45t45 17q29 0 46.5 -17t17.5 -45t-17.5 -45.5t-46.5 -17.5z" />
    <glyph glyph-name="Eth" unicode="&#xd0;" horiz-adv-x="683" 
d="M16 297v80h69v184q0 17 -4 22.5t-15 5.5h-50v75h295q175 0 262 -85.5t87 -248.5q0 -159 -89.5 -244.5t-266.5 -85.5h-288v75h50q11 0 15 6t4 23v193h-69zM222 75h94q109 0 150.5 54t41.5 178v47q0 128 -39.5 181.5t-147.5 53.5h-99v-212h143v-80h-143v-222z" />
    <glyph glyph-name="Ntilde" unicode="&#xd1;" 
d="M19 664h212l334 -447v344q0 17 -4 22.5t-15 5.5h-54v75h229v-75h-55q-11 0 -15 -5.5t-4 -22.5v-562h-87l-385 513v-409q0 -17 4 -22.5t15 -5.5h55v-75h-230v75h55q11 0 15 5.5t4 22.5v458q0 17 -4 22.5t-15 5.5h-55v75zM224 702l4 33q4 46 23 67t55 21q34 0 77 -26
t55 -26q20 0 24 26l4 21h62l-4 -33q-5 -47 -23.5 -68.5t-54.5 -21.5q-34 0 -77 26.5t-55 26.5q-22 0 -25 -26l-3 -20h-62z" />
    <glyph glyph-name="Ograve" unicode="&#xd2;" horiz-adv-x="714" 
d="M357 -13q-155 0 -244 93.5t-89 250.5q0 155 94 250.5t245 95.5q154 0 242 -94t88 -252q0 -155 -93 -249.5t-243 -94.5zM359 73q192 0 192 235v46q0 237 -190 237q-193 0 -193 -237v-46q0 -121 48 -178t143 -57zM363 702l-157 93v46h124l90 -139h-57z" />
    <glyph glyph-name="Oacute" unicode="&#xd3;" horiz-adv-x="714" 
d="M357 -13q-155 0 -244 93.5t-89 250.5q0 155 94 250.5t245 95.5q154 0 242 -94t88 -252q0 -155 -93 -249.5t-243 -94.5zM359 73q192 0 192 235v46q0 237 -190 237q-193 0 -193 -237v-46q0 -121 48 -178t143 -57zM304 703l90 138h124v-46l-157 -92h-57z" />
    <glyph glyph-name="Ocircumflex" unicode="&#xd4;" horiz-adv-x="714" 
d="M357 -13q-155 0 -244 93.5t-89 250.5q0 155 94 250.5t245 95.5q154 0 242 -94t88 -252q0 -155 -93 -249.5t-243 -94.5zM359 73q192 0 192 235v46q0 237 -190 237q-193 0 -193 -237v-46q0 -121 48 -178t143 -57zM296 702h-65l85 136h93l84 -136h-66l-65 77z" />
    <glyph glyph-name="Otilde" unicode="&#xd5;" horiz-adv-x="714" 
d="M357 -13q-155 0 -244 93.5t-89 250.5q0 155 94 250.5t245 95.5q154 0 242 -94t88 -252q0 -155 -93 -249.5t-243 -94.5zM359 73q192 0 192 235v46q0 237 -190 237q-193 0 -193 -237v-46q0 -121 48 -178t143 -57zM206 707l4 33q4 46 23 67t55 21q34 0 77 -26t55 -26
q20 0 24 26l4 21h62l-4 -33q-5 -47 -23.5 -68.5t-54.5 -21.5q-34 0 -77 26.5t-55 26.5q-22 0 -25 -26l-3 -20h-62z" />
    <glyph glyph-name="Odieresis" unicode="&#xd6;" horiz-adv-x="714" 
d="M357 -13q-155 0 -244 93.5t-89 250.5q0 155 94 250.5t245 95.5q154 0 242 -94t88 -252q0 -155 -93 -249.5t-243 -94.5zM359 73q192 0 192 235v46q0 237 -190 237q-193 0 -193 -237v-46q0 -121 48 -178t143 -57zM455 712q-29 0 -46 17t-17 46q0 28 17 45t46 17
q28 0 45.5 -17t17.5 -45t-17.5 -45.5t-45.5 -17.5zM270 712q-28 0 -45 17.5t-17 45.5t17 45t45 17q29 0 46.5 -17t17.5 -45t-17.5 -45.5t-46.5 -17.5z" />
    <glyph glyph-name="multiply" unicode="&#xd7;" horiz-adv-x="479" 
d="M239 184l-138 -145l-68 68l145 138l-145 139l68 68l138 -146l139 145l68 -68l-145 -138l145 -139l-68 -68z" />
    <glyph glyph-name="Oslash" unicode="&#xd8;" horiz-adv-x="714" 
d="M17 0l85 94q-78 92 -78 237q0 156 92.5 251t246.5 95q122 0 206 -64l46 51h84l-85 -94q79 -93 79 -239q0 -156 -91.5 -250t-244.5 -94q-124 0 -210 64l-46 -51h-84zM359 73q192 0 192 245v26q0 79 -21 133l-311 -346q48 -58 140 -58zM168 318q0 -78 19 -129l311 345
q-48 57 -137 57q-94 0 -143.5 -62.5t-49.5 -184.5v-26z" />
    <glyph glyph-name="Ugrave" unicode="&#xd9;" horiz-adv-x="698" 
d="M347 -13q-147 0 -207.5 55t-60.5 187v332q0 17 -4 22.5t-15 5.5h-45v75h270v-75h-50q-11 0 -15 -5.5t-4 -22.5v-328q0 -90 33.5 -124.5t123.5 -34.5q81 0 118 38.5t37 119.5v329q0 17 -4 22.5t-15 5.5h-56v75h232v-75h-51q-11 0 -15 -5.5t-4 -22.5v-337q0 -237 -268 -237
zM358 702l-157 93v46h124l90 -139h-57z" />
    <glyph glyph-name="Uacute" unicode="&#xda;" horiz-adv-x="698" 
d="M347 -13q-147 0 -207.5 55t-60.5 187v332q0 17 -4 22.5t-15 5.5h-45v75h270v-75h-50q-11 0 -15 -5.5t-4 -22.5v-328q0 -90 33.5 -124.5t123.5 -34.5q81 0 118 38.5t37 119.5v329q0 17 -4 22.5t-15 5.5h-56v75h232v-75h-51q-11 0 -15 -5.5t-4 -22.5v-337q0 -237 -268 -237
zM305 703l90 138h124v-46l-157 -92h-57z" />
    <glyph glyph-name="Ucircumflex" unicode="&#xdb;" horiz-adv-x="698" 
d="M347 -13q-147 0 -207.5 55t-60.5 187v332q0 17 -4 22.5t-15 5.5h-45v75h270v-75h-50q-11 0 -15 -5.5t-4 -22.5v-328q0 -90 33.5 -124.5t123.5 -34.5q81 0 118 38.5t37 119.5v329q0 17 -4 22.5t-15 5.5h-56v75h232v-75h-51q-11 0 -15 -5.5t-4 -22.5v-337q0 -237 -268 -237
zM307 702h-65l85 136h93l84 -136h-66l-65 77z" />
    <glyph glyph-name="Udieresis" unicode="&#xdc;" horiz-adv-x="698" 
d="M347 -13q-147 0 -207.5 55t-60.5 187v332q0 17 -4 22.5t-15 5.5h-45v75h270v-75h-50q-11 0 -15 -5.5t-4 -22.5v-328q0 -90 33.5 -124.5t123.5 -34.5q81 0 118 38.5t37 119.5v329q0 17 -4 22.5t-15 5.5h-56v75h232v-75h-51q-11 0 -15 -5.5t-4 -22.5v-337q0 -237 -268 -237
zM280 707q-28 0 -45 17.5t-17 45.5t17 45t45 17q29 0 46.5 -17t17.5 -45t-17.5 -45.5t-46.5 -17.5zM465 707q-29 0 -46 17.5t-17 45.5t17 45t46 17q28 0 45.5 -17t17.5 -45t-17.5 -45.5t-45.5 -17.5z" />
    <glyph glyph-name="Yacute" unicode="&#xdd;" horiz-adv-x="675" 
d="M203 0v75h55q11 0 15 6t4 23v179l-185 280q-18 26 -36 26h-41v75h294v-75h-47q-13 0 -15.5 -10.5t4.5 -20.5l119 -187l118 192q5 7 1 16.5t-13 9.5h-65v75h260v-75h-53q-23 0 -39 -26l-170 -264v-195q0 -17 4 -23t15 -6h55v-75h-280zM281 703l90 138h124v-46l-157 -92
h-57z" />
    <glyph glyph-name="Thorn" unicode="&#xde;" horiz-adv-x="586" 
d="M222 561v-41h83q135 0 197 -43t62 -139t-61 -139.5t-199 -43.5h-82v-51q0 -17 4 -23t15 -6h55v-75h-280v75h50q11 0 15 6t4 23v457q0 17 -4 22.5t-15 5.5h-50v75h275v-75h-50q-11 0 -15 -5.5t-4 -22.5zM222 452v-231h48q84 0 120 27.5t36 89.5q0 61 -35.5 87.5
t-121.5 26.5h-47z" />
    <glyph glyph-name="germandbls" unicode="&#xdf;" horiz-adv-x="568" 
d="M12 412v75h66q1 101 55 148.5t165 47.5q98 0 150 -40.5t52 -117.5q0 -92 -89 -123q67 -19 103 -68.5t36 -124.5q0 -106 -52.5 -162.5t-146.5 -56.5q-63 0 -94 12v80q22 -10 54 -10q51 0 74.5 32.5t23.5 106.5q0 77 -30 112.5t-94 35.5h-17v69h15q99 0 99 89q0 43 -22 66
t-62 23q-87 0 -87 -105v-501h-194v75h44q17 0 17 26v311h-66z" />
    <glyph glyph-name="agrave" unicode="&#xe0;" horiz-adv-x="552" 
d="M245 424q-38 0 -64 -8q19 -22 19 -54q0 -33 -22 -53t-56 -20q-39 0 -61 21t-22 59q0 68 63.5 99.5t166.5 31.5q114 0 164.5 -38t50.5 -127v-234q0 -26 16 -26h42v-75h-162q-20 33 -30 83q-19 -41 -69 -68.5t-109 -27.5q-67 0 -107 36.5t-40 91.5q0 85 78 125t246 65v28
q0 48 -25 69.5t-79 21.5zM226 70q56 0 89 38t34 100v38q-99 -14 -146 -37.5t-47 -70.5q0 -31 19 -49.5t51 -18.5zM265 525l-157 93v46h124l90 -139h-57z" />
    <glyph glyph-name="aacute" unicode="&#xe1;" horiz-adv-x="552" 
d="M245 424q-38 0 -64 -8q19 -22 19 -54q0 -33 -22 -53t-56 -20q-39 0 -61 21t-22 59q0 68 63.5 99.5t166.5 31.5q114 0 164.5 -38t50.5 -127v-234q0 -26 16 -26h42v-75h-162q-20 33 -30 83q-19 -41 -69 -68.5t-109 -27.5q-67 0 -107 36.5t-40 91.5q0 85 78 125t246 65v28
q0 48 -25 69.5t-79 21.5zM226 70q56 0 89 38t34 100v38q-99 -14 -146 -37.5t-47 -70.5q0 -31 19 -49.5t51 -18.5zM203 526l90 138h124v-46l-157 -92h-57z" />
    <glyph glyph-name="acircumflex" unicode="&#xe2;" horiz-adv-x="552" 
d="M245 424q-38 0 -64 -8q19 -22 19 -54q0 -33 -22 -53t-56 -20q-39 0 -61 21t-22 59q0 68 63.5 99.5t166.5 31.5q114 0 164.5 -38t50.5 -127v-234q0 -26 16 -26h42v-75h-162q-20 33 -30 83q-19 -41 -69 -68.5t-109 -27.5q-67 0 -107 36.5t-40 91.5q0 85 78 125t246 65v28
q0 48 -25 69.5t-79 21.5zM226 70q56 0 89 38t34 100v38q-99 -14 -146 -37.5t-47 -70.5q0 -31 19 -49.5t51 -18.5zM197 525h-65l85 136h93l84 -136h-66l-65 77z" />
    <glyph glyph-name="atilde" unicode="&#xe3;" horiz-adv-x="552" 
d="M245 424q-38 0 -64 -8q19 -22 19 -54q0 -33 -22 -53t-56 -20q-39 0 -61 21t-22 59q0 68 63.5 99.5t166.5 31.5q114 0 164.5 -38t50.5 -127v-234q0 -26 16 -26h42v-75h-162q-20 33 -30 83q-19 -41 -69 -68.5t-109 -27.5q-67 0 -107 36.5t-40 91.5q0 85 78 125t246 65v28
q0 48 -25 69.5t-79 21.5zM226 70q56 0 89 38t34 100v38q-99 -14 -146 -37.5t-47 -70.5q0 -31 19 -49.5t51 -18.5zM104 535l4 33q4 46 23 67t55 21q33 0 76.5 -26t55.5 -26q20 0 24 26l4 21h62l-4 -33q-5 -47 -23.5 -68.5t-54.5 -21.5q-34 0 -77 26.5t-55 26.5q-22 0 -25 -26
l-3 -20h-62z" />
    <glyph glyph-name="adieresis" unicode="&#xe4;" horiz-adv-x="552" 
d="M245 424q-38 0 -64 -8q19 -22 19 -54q0 -33 -22 -53t-56 -20q-39 0 -61 21t-22 59q0 68 63.5 99.5t166.5 31.5q114 0 164.5 -38t50.5 -127v-234q0 -26 16 -26h42v-75h-162q-20 33 -30 83q-19 -41 -69 -68.5t-109 -27.5q-67 0 -107 36.5t-40 91.5q0 85 78 125t246 65v28
q0 48 -25 69.5t-79 21.5zM226 70q56 0 89 38t34 100v38q-99 -14 -146 -37.5t-47 -70.5q0 -31 19 -49.5t51 -18.5zM356 535q-28 0 -45.5 17.5t-17.5 45.5t17 45t46 17q28 0 45.5 -17t17.5 -45t-17.5 -45.5t-45.5 -17.5zM171 535q-28 0 -45 17.5t-17 45.5t17 45t45 17
q29 0 46.5 -17t17.5 -45t-17.5 -45.5t-46.5 -17.5z" />
    <glyph glyph-name="aring" unicode="&#xe5;" horiz-adv-x="552" 
d="M245 424q-38 0 -64 -8q19 -22 19 -54q0 -33 -22 -53t-56 -20q-39 0 -61 21t-22 59q0 68 63.5 99.5t166.5 31.5q114 0 164.5 -38t50.5 -127v-234q0 -26 16 -26h42v-75h-162q-20 33 -30 83q-19 -41 -69 -68.5t-109 -27.5q-67 0 -107 36.5t-40 91.5q0 85 78 125t246 65v28
q0 48 -25 69.5t-79 21.5zM266 535q-51 0 -81 26.5t-30 68.5t30.5 68.5t80.5 26.5t80.5 -26.5t30.5 -68.5t-30 -68.5t-81 -26.5zM226 70q56 0 89 38t34 100v38q-99 -14 -146 -37.5t-47 -70.5q0 -31 19 -49.5t51 -18.5zM266 583q20 0 33.5 13.5t13.5 33.5t-13.5 33.5
t-33.5 13.5t-33.5 -13.5t-13.5 -33.5t13.5 -33.5t33.5 -13.5z" />
    <glyph glyph-name="ae" unicode="&#xe6;" horiz-adv-x="841" 
d="M822 218h-354q2 -70 37.5 -110.5t101.5 -40.5q95 0 132 94l76 -34q-48 -140 -229 -140q-148 0 -208 102q-29 -50 -80.5 -76t-112.5 -26q-72 0 -116 36.5t-44 91.5q0 88 77 130t237 53v34q0 49 -21 70.5t-75 21.5q-33 0 -69 -12q18 -20 18 -48q0 -29 -21 -47.5t-53 -18.5
q-37 0 -58 19t-21 54q0 64 64.5 96.5t163.5 32.5q113 0 148 -64q62 64 170 64q115 0 176 -67.5t61 -189.5v-25zM587 426q-111 0 -120 -140h219q-1 75 -24.5 107.5t-74.5 32.5zM347 180q-3 17 -5 50q-96 -1 -141 -23.5t-45 -68.5q0 -31 19 -49.5t51 -18.5q100 0 121 110z" />
    <glyph glyph-name="ccedilla" unicode="&#xe7;" horiz-adv-x="519" 
d="M271 -197q-63 0 -121 30l9 44q59 -23 101 -23q54 0 54 28q0 27 -47 27q-21 0 -37 -9l-4 4v87q-101 15 -154 80.5t-53 173.5q0 119 71 187t197 68q104 0 164 -45t60 -121q0 -49 -27.5 -78.5t-70.5 -29.5q-34 0 -56.5 21t-22.5 53q0 30 17.5 51t47.5 27q-23 46 -104 46
q-68 0 -103.5 -42.5t-35.5 -124.5v-16q0 -173 134 -173q103 0 138 95l75 -35q-52 -137 -210 -141l1 -32q4 1 13 1q96 0 96 -73q0 -37 -35 -58.5t-97 -21.5z" />
    <glyph glyph-name="egrave" unicode="&#xe8;" horiz-adv-x="530" 
d="M511 218h-354q2 -70 37.5 -110.5t101.5 -40.5q95 0 132 94l76 -34q-22 -64 -76 -102t-143 -38q-129 0 -197.5 70.5t-68.5 186.5q0 114 70 185t183 71q115 0 177 -67.5t62 -189.5v-25zM272 423q-108 0 -117 -137h220q-1 74 -25 105.5t-78 31.5zM280 525l-157 93v46h124
l90 -139h-57z" />
    <glyph glyph-name="eacute" unicode="&#xe9;" horiz-adv-x="530" 
d="M511 218h-354q2 -70 37.5 -110.5t101.5 -40.5q95 0 132 94l76 -34q-22 -64 -76 -102t-143 -38q-129 0 -197.5 70.5t-68.5 186.5q0 114 70 185t183 71q115 0 177 -67.5t62 -189.5v-25zM272 423q-108 0 -117 -137h220q-1 74 -25 105.5t-78 31.5zM207 526l90 138h124v-46
l-157 -92h-57z" />
    <glyph glyph-name="ecircumflex" unicode="&#xea;" horiz-adv-x="530" 
d="M511 218h-354q2 -70 37.5 -110.5t101.5 -40.5q95 0 132 94l76 -34q-22 -64 -76 -102t-143 -38q-129 0 -197.5 70.5t-68.5 186.5q0 114 70 185t183 71q115 0 177 -67.5t62 -189.5v-25zM272 423q-108 0 -117 -137h220q-1 74 -25 105.5t-78 31.5zM204 525h-65l85 136h93
l84 -136h-66l-65 77z" />
    <glyph glyph-name="edieresis" unicode="&#xeb;" horiz-adv-x="530" 
d="M511 218h-354q2 -70 37.5 -110.5t101.5 -40.5q95 0 132 94l76 -34q-22 -64 -76 -102t-143 -38q-129 0 -197.5 70.5t-68.5 186.5q0 114 70 185t183 71q115 0 177 -67.5t62 -189.5v-25zM272 423q-108 0 -117 -137h220q-1 74 -25 105.5t-78 31.5zM175 535q-28 0 -45 17.5
t-17 45.5t17 45t45 17q29 0 46.5 -17t17.5 -45t-17.5 -45.5t-46.5 -17.5zM360 535q-28 0 -45.5 17.5t-17.5 45.5t17 45t46 17q28 0 45.5 -17t17.5 -45t-17.5 -45.5t-45.5 -17.5z" />
    <glyph glyph-name="igrave" unicode="&#xec;" horiz-adv-x="290" 
d="M16 0v75h45q16 0 16 26v271q0 23 -4.5 31.5t-17.5 8.5h-39v75h80q71 0 117 10v-396q0 -26 16 -26h42v-75h-255zM155 525l-157 93v46h124l90 -139h-57z" />
    <glyph glyph-name="iacute" unicode="&#xed;" horiz-adv-x="290" 
d="M16 0v75h45q16 0 16 26v271q0 23 -4.5 31.5t-17.5 8.5h-39v75h80q71 0 117 10v-396q0 -26 16 -26h42v-75h-255zM47 526l90 138h124v-46l-157 -92h-57z" />
    <glyph glyph-name="icircumflex" unicode="&#xee;" horiz-adv-x="290" 
d="M16 0v75h45q16 0 16 26v271q0 23 -4.5 31.5t-17.5 8.5h-39v75h80q71 0 117 10v-396q0 -26 16 -26h42v-75h-255zM76 525h-65l85 136h93l84 -136h-66l-65 77z" />
    <glyph glyph-name="idieresis" unicode="&#xef;" horiz-adv-x="290" 
d="M16 0v75h45q16 0 16 26v271q0 23 -4.5 31.5t-17.5 8.5h-39v75h80q71 0 117 10v-396q0 -26 16 -26h42v-75h-255zM232 535q-28 0 -45.5 17.5t-17.5 45.5t17 45t46 17q28 0 45.5 -17t17.5 -45t-17.5 -45.5t-45.5 -17.5zM47 535q-28 0 -45 17.5t-17 45.5t17 45t45 17
q29 0 46.5 -17t17.5 -45t-17.5 -45.5t-46.5 -17.5z" />
    <glyph glyph-name="eth" unicode="&#xf0;" horiz-adv-x="565" 
d="M140 540l-18 55l81 32q-48 16 -98 26l69 85q91 -15 165 -56l110 45l18 -55l-70 -28q149 -120 149 -329q0 -148 -68 -238t-201 -90q-123 0 -190.5 71.5t-67.5 185.5t63.5 185t167.5 71q101 0 149 -66q-23 106 -122 161zM278 67q64 0 94 42t30 129v13q0 85 -32 127t-88 42
q-58 0 -92.5 -42.5t-34.5 -126.5v-13q0 -88 29.5 -129.5t93.5 -41.5z" />
    <glyph glyph-name="ntilde" unicode="&#xf1;" horiz-adv-x="601" 
d="M209 497v-97q46 100 165 100q158 0 158 -182v-217q0 -16 4 -21t13 -5h44v-75h-252v75h39q9 0 13 5t4 21v214q0 51 -19.5 74t-60.5 23q-106 0 -106 -159v-152q0 -16 4 -21t13 -5h39v-75h-252v75h44q9 0 13 5t4 21v281q0 18 -3.5 24t-13.5 6h-44v75h78q72 0 116 10z
M143 535l4 33q4 46 23 67t55 21q33 0 76 -26t56 -26q20 0 24 26l4 21h62l-4 -33q-5 -47 -23.5 -68.5t-54.5 -21.5q-33 0 -76 26.5t-56 26.5q-22 0 -25 -26l-3 -20h-62z" />
    <glyph glyph-name="ograve" unicode="&#xf2;" horiz-adv-x="557" 
d="M277 -13q-116 0 -187 70.5t-71 186.5q0 114 72.5 185t189.5 71q115 0 185.5 -70.5t70.5 -185.5t-71.5 -186t-188.5 -71zM278 67q64 0 94 41.5t30 128.5v13q0 88 -30 129t-93 41q-64 0 -94 -41t-30 -129v-13q0 -88 29.5 -129t93.5 -41zM264 525l-157 93v46h124l90 -139
h-57z" />
    <glyph glyph-name="oacute" unicode="&#xf3;" horiz-adv-x="557" 
d="M277 -13q-116 0 -187 70.5t-71 186.5q0 114 72.5 185t189.5 71q115 0 185.5 -70.5t70.5 -185.5t-71.5 -186t-188.5 -71zM278 67q64 0 94 41.5t30 128.5v13q0 88 -30 129t-93 41q-64 0 -94 -41t-30 -129v-13q0 -88 29.5 -129t93.5 -41zM226 526l90 138h124v-46l-157 -92
h-57z" />
    <glyph glyph-name="ocircumflex" unicode="&#xf4;" horiz-adv-x="557" 
d="M277 -13q-116 0 -187 70.5t-71 186.5q0 114 72.5 185t189.5 71q115 0 185.5 -70.5t70.5 -185.5t-71.5 -186t-188.5 -71zM278 67q64 0 94 41.5t30 128.5v13q0 88 -30 129t-93 41q-64 0 -94 -41t-30 -129v-13q0 -88 29.5 -129t93.5 -41zM213 525h-65l85 136h93l84 -136h-66
l-65 77z" />
    <glyph glyph-name="otilde" unicode="&#xf5;" horiz-adv-x="557" 
d="M277 -13q-116 0 -187 70.5t-71 186.5q0 114 72.5 185t189.5 71q115 0 185.5 -70.5t70.5 -185.5t-71.5 -186t-188.5 -71zM278 67q64 0 94 41.5t30 128.5v13q0 88 -30 129t-93 41q-64 0 -94 -41t-30 -129v-13q0 -88 29.5 -129t93.5 -41zM127 535l4 33q4 46 23 67t55 21
q33 0 76 -26t56 -26q20 0 24 26l4 21h62l-4 -33q-5 -47 -23.5 -68.5t-54.5 -21.5q-33 0 -76.5 26.5t-55.5 26.5q-22 0 -25 -26l-3 -20h-62z" />
    <glyph glyph-name="odieresis" unicode="&#xf6;" horiz-adv-x="557" 
d="M277 -13q-116 0 -187 70.5t-71 186.5q0 114 72.5 185t189.5 71q115 0 185.5 -70.5t70.5 -185.5t-71.5 -186t-188.5 -71zM278 67q64 0 94 41.5t30 128.5v13q0 88 -30 129t-93 41q-64 0 -94 -41t-30 -129v-13q0 -88 29.5 -129t93.5 -41zM371 535q-29 0 -46 17.5t-17 45.5
t17 45t46 17q28 0 45.5 -17t17.5 -45t-17.5 -45.5t-45.5 -17.5zM186 535q-28 0 -45 17.5t-17 45.5t17 45t45 17q29 0 46.5 -17t17.5 -45t-17.5 -45.5t-46.5 -17.5z" />
    <glyph glyph-name="divide" unicode="&#xf7;" horiz-adv-x="479" 
d="M239 335q-31 0 -49.5 18t-18.5 48t18.5 48t49.5 18t49.5 -18t18.5 -48t-18.5 -48t-49.5 -18zM37 205v80h405v-80h-405zM239 23q-31 0 -49.5 18t-18.5 47q0 30 18.5 48t49.5 18t49.5 -18t18.5 -48q0 -29 -18.5 -47t-49.5 -18z" />
    <glyph glyph-name="oslash" unicode="&#xf8;" horiz-adv-x="557" 
d="M20 0l60 68q-61 69 -61 176q0 114 72.5 185t189.5 71q84 0 143 -38l29 33h84l-64 -73q64 -69 64 -178q0 -115 -71.5 -186t-188.5 -71q-87 0 -149 40l-24 -27h-84zM278 64q64 0 94 42.5t30 130.5v13q0 54 -12 92l-202 -240q29 -38 90 -38zM155 237q0 -51 9 -87l201 239
q-30 34 -86 34q-65 0 -94.5 -42.5t-29.5 -130.5v-13z" />
    <glyph glyph-name="ugrave" unicode="&#xf9;" horiz-adv-x="593" 
d="M502 0q-71 0 -117 -10v89q-47 -92 -160 -92q-159 0 -159 178v221q0 16 -4 21t-12 5h-45v75h197v-319q0 -51 20 -73t60 -22q50 0 76.5 37.5t26.5 107.5v168q0 16 -4 21t-13 5h-49v75h201v-382q0 -18 3.5 -24t13.5 -6h47v-75h-82zM287 525l-157 93v46h124l90 -139h-57z" />
    <glyph glyph-name="uacute" unicode="&#xfa;" horiz-adv-x="593" 
d="M502 0q-71 0 -117 -10v89q-47 -92 -160 -92q-159 0 -159 178v221q0 16 -4 21t-12 5h-45v75h197v-319q0 -51 20 -73t60 -22q50 0 76.5 37.5t26.5 107.5v168q0 16 -4 21t-13 5h-49v75h201v-382q0 -18 3.5 -24t13.5 -6h47v-75h-82zM229 526l90 138h124v-46l-157 -92h-57z
" />
    <glyph glyph-name="ucircumflex" unicode="&#xfb;" horiz-adv-x="593" 
d="M502 0q-71 0 -117 -10v89q-47 -92 -160 -92q-159 0 -159 178v221q0 16 -4 21t-12 5h-45v75h197v-319q0 -51 20 -73t60 -22q50 0 76.5 37.5t26.5 107.5v168q0 16 -4 21t-13 5h-49v75h201v-382q0 -18 3.5 -24t13.5 -6h47v-75h-82zM223 525h-65l85 136h93l84 -136h-66
l-65 77z" />
    <glyph glyph-name="udieresis" unicode="&#xfc;" horiz-adv-x="593" 
d="M502 0q-71 0 -117 -10v89q-47 -92 -160 -92q-159 0 -159 178v221q0 16 -4 21t-12 5h-45v75h197v-319q0 -51 20 -73t60 -22q50 0 76.5 37.5t26.5 107.5v168q0 16 -4 21t-13 5h-49v75h201v-382q0 -18 3.5 -24t13.5 -6h47v-75h-82zM194 535q-28 0 -45 17.5t-17 45.5t17 45
t45 17q29 0 46.5 -17t17.5 -45t-17.5 -45.5t-46.5 -17.5zM379 535q-29 0 -46 17.5t-17 45.5t17 45t46 17q28 0 45.5 -17t17.5 -45t-17.5 -45.5t-45.5 -17.5z" />
    <glyph glyph-name="yacute" unicode="&#xfd;" horiz-adv-x="568" 
d="M242 6q-23 -58 -48.5 -84.5t-60.5 -29.5q26 45 8.5 79t-63.5 34q-38 0 -60.5 -23.5t-22.5 -63.5q0 -49 36 -76.5t94 -27.5q76 0 121 42.5t88 143.5l161 386q7 17 12.5 21.5t17.5 4.5h39v75h-209v-75h40q32 0 19 -31l-96 -234l-107 236q-6 12 -1.5 20.5t17.5 8.5h38v75
h-258v-75h33q10 0 15.5 -5t12.5 -21l174 -377v-3zM222 526l90 138h124v-46l-157 -92h-57z" />
    <glyph glyph-name="thorn" unicode="&#xfe;" horiz-adv-x="610" 
d="M10 -172v70h44q9 0 13 5t4 21v640q0 18 -3.5 24t-13.5 6h-47v70h83q72 0 116 10v-285q44 111 170 111q98 0 155.5 -69.5t57.5 -186.5q0 -116 -59.5 -186.5t-159.5 -70.5q-116 0 -164 100v-163q0 -16 4 -21t13 -5h44v-70h-257zM327 69q56 0 88.5 43.5t32.5 123.5v15
q0 80 -32 122t-89 42q-56 0 -88.5 -42t-32.5 -122v-15q0 -79 33 -123t88 -44z" />
    <glyph glyph-name="ydieresis" unicode="&#xff;" horiz-adv-x="568" 
d="M242 6q-23 -58 -48.5 -84.5t-60.5 -29.5q26 45 8.5 79t-63.5 34q-38 0 -60.5 -23.5t-22.5 -63.5q0 -49 36 -76.5t94 -27.5q76 0 121 42.5t88 143.5l161 386q7 17 12.5 21.5t17.5 4.5h39v75h-209v-75h40q32 0 19 -31l-96 -234l-107 236q-6 12 -1.5 20.5t17.5 8.5h38v75
h-258v-75h33q10 0 15.5 -5t12.5 -21l174 -377v-3zM200 535q-28 0 -45 17.5t-17 45.5t17 45t45 17q29 0 46.5 -17t17.5 -45t-17.5 -45.5t-46.5 -17.5zM385 535q-29 0 -46 17.5t-17 45.5t17 45t46 17q28 0 45.5 -17t17.5 -45t-17.5 -45.5t-45.5 -17.5z" />
    <glyph glyph-name="Amacron" unicode="&#x100;" 
d="M503 103l-46 117h-233l-43 -117q-5 -17 -1 -22.5t18 -5.5h51v-75h-239v75h49q15 0 21.5 5.5t13.5 23.5l219 563h121l216 -563q12 -29 33 -29h40v-75h-283v75h46q28 0 17 28zM344 544l-95 -252h187zM214 731v75h305v-75h-305z" />
    <glyph glyph-name="amacron" unicode="&#x101;" horiz-adv-x="552" 
d="M245 424q-38 0 -64 -8q19 -22 19 -54q0 -33 -22 -53t-56 -20q-39 0 -61 21t-22 59q0 68 63.5 99.5t166.5 31.5q114 0 164.5 -38t50.5 -127v-234q0 -26 16 -26h42v-75h-162q-20 33 -30 83q-19 -41 -69 -68.5t-109 -27.5q-67 0 -107 36.5t-40 91.5q0 85 78 125t246 65v28
q0 48 -25 69.5t-79 21.5zM226 70q56 0 89 38t34 100v38q-99 -14 -146 -37.5t-47 -70.5q0 -31 19 -49.5t51 -18.5zM122 554v75h305v-75h-305z" />
    <glyph glyph-name="Abreve" unicode="&#x102;" 
d="M503 103l-46 117h-233l-43 -117q-5 -17 -1 -22.5t18 -5.5h51v-75h-239v75h49q15 0 21.5 5.5t13.5 23.5l219 563h121l216 -563q12 -29 33 -29h40v-75h-283v75h46q28 0 17 28zM344 544l-95 -252h187zM366 712q-67 0 -103.5 35t-36.5 100h67q0 -78 73 -78q72 0 72 78h67
q0 -65 -36 -100t-103 -35z" />
    <glyph glyph-name="abreve" unicode="&#x103;" horiz-adv-x="552" 
d="M245 424q-38 0 -64 -8q19 -22 19 -54q0 -33 -22 -53t-56 -20q-39 0 -61 21t-22 59q0 68 63.5 99.5t166.5 31.5q114 0 164.5 -38t50.5 -127v-234q0 -26 16 -26h42v-75h-162q-20 33 -30 83q-19 -41 -69 -68.5t-109 -27.5q-67 0 -107 36.5t-40 91.5q0 85 78 125t246 65v28
q0 48 -25 69.5t-79 21.5zM226 70q56 0 89 38t34 100v38q-99 -14 -146 -37.5t-47 -70.5q0 -31 19 -49.5t51 -18.5zM275 535q-67 0 -103.5 35t-36.5 100h67q0 -78 73 -78q72 0 72 78h67q0 -65 -36 -100t-103 -35z" />
    <glyph glyph-name="Aogonek" unicode="&#x104;" 
d="M723 75v-75q-43 -7 -61 -27.5t-18 -45.5q0 -19 12 -29.5t32 -10.5q17 0 35 9v-61q-31 -11 -63 -11q-49 0 -76.5 20.5t-27.5 56.5q0 67 80 99h-196v75h46q28 0 17 28l-46 117h-233l-43 -117q-5 -17 -1 -22.5t18 -5.5h51v-75h-239v75h49q15 0 21.5 5.5t13.5 23.5l219 563
h121l216 -563q12 -29 33 -29h40zM344 544l-95 -252h187z" />
    <glyph glyph-name="aogonek" unicode="&#x105;" horiz-adv-x="552" 
d="M454 0h-74q-20 33 -30 83q-19 -41 -69 -68.5t-109 -27.5q-67 0 -107 36.5t-40 91.5q0 85 78 125t246 65v28q0 48 -25 69.5t-79 21.5q-38 0 -64 -8q19 -22 19 -54q0 -33 -22 -53t-56 -20q-39 0 -61 21t-22 59q0 68 63.5 99.5t166.5 31.5q114 0 164.5 -38t50.5 -127v-234
q0 -26 16 -26h42v-75q-40 -3 -59.5 -25t-19.5 -48q0 -17 11.5 -28.5t32.5 -11.5q19 0 35 9v-61q-30 -11 -62 -11q-43 0 -74 18t-31 59q0 64 79 99zM226 70q56 0 89 38t34 100v38q-99 -14 -146 -37.5t-47 -70.5q0 -31 19 -49.5t51 -18.5z" />
    <glyph glyph-name="Cacute" unicode="&#x106;" horiz-adv-x="664" 
d="M349 -13q-151 0 -238 91t-87 253q0 157 85 251.5t224 94.5q141 0 186 -117l28 104h80v-247h-115q-14 90 -54.5 132t-109.5 42q-179 0 -179 -242v-34q0 -118 46.5 -180t136.5 -62q85 0 133 43.5t55 130.5l91 -10q-3 -105 -75 -177.5t-207 -72.5zM267 703l90 138h124v-46
l-157 -92h-57z" />
    <glyph glyph-name="cacute" unicode="&#x107;" horiz-adv-x="519" 
d="M334 300q0 30 17.5 51t47.5 27q-23 46 -104 46q-68 0 -103.5 -42.5t-35.5 -124.5v-16q0 -173 134 -173q103 0 138 95l75 -35q-52 -141 -218 -141q-128 0 -197 67.5t-69 190.5q0 119 71 187t197 68q104 0 164 -45t60 -121q0 -49 -27.5 -78.5t-70.5 -29.5q-34 0 -56.5 21
t-22.5 53zM192 526l90 138h124v-46l-157 -92h-57z" />
    <glyph glyph-name="Ccircumflex" unicode="&#x108;" horiz-adv-x="664" 
d="M349 -13q-151 0 -238 91t-87 253q0 157 85 251.5t224 94.5q141 0 186 -117l28 104h80v-247h-115q-14 90 -54.5 132t-109.5 42q-179 0 -179 -242v-34q0 -118 46.5 -180t136.5 -62q85 0 133 43.5t55 130.5l91 -10q-3 -105 -75 -177.5t-207 -72.5zM282 702h-65l85 136h93
l84 -136h-66l-65 77z" />
    <glyph glyph-name="ccircumflex" unicode="&#x109;" horiz-adv-x="519" 
d="M334 300q0 30 17.5 51t47.5 27q-23 46 -104 46q-68 0 -103.5 -42.5t-35.5 -124.5v-16q0 -173 134 -173q103 0 138 95l75 -35q-52 -141 -218 -141q-128 0 -197 67.5t-69 190.5q0 119 71 187t197 68q104 0 164 -45t60 -121q0 -49 -27.5 -78.5t-70.5 -29.5q-34 0 -56.5 21
t-22.5 53zM212 525h-65l85 136h93l84 -136h-66l-65 77z" />
    <glyph glyph-name="Cdotaccent" unicode="&#x10a;" horiz-adv-x="664" 
d="M349 -13q-151 0 -238 91t-87 253q0 157 85 251.5t224 94.5q141 0 186 -117l28 104h80v-247h-115q-14 90 -54.5 132t-109.5 42q-179 0 -179 -242v-34q0 -118 46.5 -180t136.5 -62q85 0 133 43.5t55 130.5l91 -10q-3 -105 -75 -177.5t-207 -72.5zM358 722q-28 0 -45.5 17
t-17.5 43t17.5 42.5t45.5 16.5t45.5 -16.5t17.5 -42.5t-17.5 -43t-45.5 -17z" />
    <glyph glyph-name="cdotaccent" unicode="&#x10b;" horiz-adv-x="519" 
d="M334 300q0 30 17.5 51t47.5 27q-23 46 -104 46q-68 0 -103.5 -42.5t-35.5 -124.5v-16q0 -173 134 -173q103 0 138 95l75 -35q-52 -141 -218 -141q-128 0 -197 67.5t-69 190.5q0 119 71 187t197 68q104 0 164 -45t60 -121q0 -49 -27.5 -78.5t-70.5 -29.5q-34 0 -56.5 21
t-22.5 53zM285 545q-28 0 -45.5 17t-17.5 43t17.5 42.5t45.5 16.5t45.5 -16.5t17.5 -42.5t-17.5 -43t-45.5 -17z" />
    <glyph glyph-name="Ccaron" unicode="&#x10c;" horiz-adv-x="664" 
d="M349 -13q-151 0 -238 91t-87 253q0 157 85 251.5t224 94.5q141 0 186 -117l28 104h80v-247h-115q-14 90 -54.5 132t-109.5 42q-179 0 -179 -242v-34q0 -118 46.5 -180t136.5 -62q85 0 133 43.5t55 130.5l91 -10q-3 -105 -75 -177.5t-207 -72.5zM216 838h65l68 -76l67 76
h66l-86 -136h-94z" />
    <glyph glyph-name="ccaron" unicode="&#x10d;" horiz-adv-x="519" 
d="M334 300q0 30 17.5 51t47.5 27q-23 46 -104 46q-68 0 -103.5 -42.5t-35.5 -124.5v-16q0 -173 134 -173q103 0 138 95l75 -35q-52 -141 -218 -141q-128 0 -197 67.5t-69 190.5q0 119 71 187t197 68q104 0 164 -45t60 -121q0 -49 -27.5 -78.5t-70.5 -29.5q-34 0 -56.5 21
t-22.5 53zM148 661h65l68 -76l67 76h66l-86 -136h-94z" />
    <glyph glyph-name="Dcaron" unicode="&#x10e;" horiz-adv-x="685" 
d="M16 0v75h50q11 0 15 6t4 23v457q0 17 -4 22.5t-15 5.5h-50v75h295q175 0 262 -85.5t87 -248.5q0 -159 -89.5 -244.5t-266.5 -85.5h-288zM222 75h94q109 0 150.5 54t41.5 178v47q0 128 -39.5 181.5t-147.5 53.5h-99v-514zM171 838h65l68 -76l67 76h66l-86 -136h-94z" />
    <glyph glyph-name="dcaron" unicode="&#x10f;" horiz-adv-x="830" 
d="M239 -13q-100 0 -159.5 70.5t-59.5 186.5q0 115 60 185.5t158 70.5q121 0 165 -98v157q0 18 -3.5 24t-13.5 6h-47v75h83q72 0 116 10v-573q0 -16 4 -21t13 -5h42v-75h-179q-3 19 -7 95q-45 -108 -172 -108zM282 72q56 0 88.5 42t32.5 122v15q0 79 -33 121.5t-88 42.5
q-57 0 -89.5 -42.5t-32.5 -121.5v-15q0 -79 32.5 -121.5t89.5 -42.5zM645 492q63 0 67 55q-12 -6 -31 -6q-30 0 -48.5 17t-18.5 47q0 31 22 51t57 20q42 0 71 -31t29 -80q0 -63 -37.5 -101t-100.5 -38q-23 0 -49 7v65q18 -6 39 -6z" />
    <glyph glyph-name="Emacron" unicode="&#x112;" horiz-adv-x="604" 
d="M16 0v75h50q11 0 15 5.5t4 22.5v458q0 17 -4 22.5t-15 5.5h-50v75h542v-166h-87l-12 60q-4 20 -16.5 25.5t-44.5 5.5h-176v-216h112q17 0 23 6.5t6 24.5v37h75v-213h-75v37q0 18 -6.5 26t-22.5 8h-112v-224h189q33 0 45 5t16 26l12 60h86v-166h-554zM149 731v75h305v-75
h-305z" />
    <glyph glyph-name="emacron" unicode="&#x113;" horiz-adv-x="530" 
d="M511 218h-354q2 -70 37.5 -110.5t101.5 -40.5q95 0 132 94l76 -34q-22 -64 -76 -102t-143 -38q-129 0 -197.5 70.5t-68.5 186.5q0 114 70 185t183 71q115 0 177 -67.5t62 -189.5v-25zM272 423q-108 0 -117 -137h220q-1 74 -25 105.5t-78 31.5zM123 554v75h305v-75h-305z
" />
    <glyph glyph-name="Ebreve" unicode="&#x114;" horiz-adv-x="604" 
d="M16 0v75h50q11 0 15 5.5t4 22.5v458q0 17 -4 22.5t-15 5.5h-50v75h542v-166h-87l-12 60q-4 20 -16.5 25.5t-44.5 5.5h-176v-216h112q17 0 23 6.5t6 24.5v37h75v-213h-75v37q0 18 -6.5 26t-22.5 8h-112v-224h189q33 0 45 5t16 26l12 60h86v-166h-554zM302 712
q-67 0 -103.5 35t-36.5 100h67q0 -78 73 -78q72 0 72 78h67q0 -65 -36 -100t-103 -35z" />
    <glyph glyph-name="ebreve" unicode="&#x115;" horiz-adv-x="530" 
d="M511 218h-354q2 -70 37.5 -110.5t101.5 -40.5q95 0 132 94l76 -34q-22 -64 -76 -102t-143 -38q-129 0 -197.5 70.5t-68.5 186.5q0 114 70 185t183 71q115 0 177 -67.5t62 -189.5v-25zM272 423q-108 0 -117 -137h220q-1 74 -25 105.5t-78 31.5zM276 535q-67 0 -103.5 35
t-36.5 100h67q0 -78 73 -78q72 0 72 78h67q0 -65 -36 -100t-103 -35z" />
    <glyph glyph-name="Edotaccent" unicode="&#x116;" horiz-adv-x="604" 
d="M16 0v75h50q11 0 15 5.5t4 22.5v458q0 17 -4 22.5t-15 5.5h-50v75h542v-166h-87l-12 60q-4 20 -16.5 25.5t-44.5 5.5h-176v-216h112q17 0 23 6.5t6 24.5v37h75v-213h-75v37q0 18 -6.5 26t-22.5 8h-112v-224h189q33 0 45 5t16 26l12 60h86v-166h-554zM302 722
q-28 0 -45.5 17t-17.5 43t17.5 42.5t45.5 16.5t45.5 -16.5t17.5 -42.5t-17.5 -43t-45.5 -17z" />
    <glyph glyph-name="edotaccent" unicode="&#x117;" horiz-adv-x="530" 
d="M511 218h-354q2 -70 37.5 -110.5t101.5 -40.5q95 0 132 94l76 -34q-22 -64 -76 -102t-143 -38q-129 0 -197.5 70.5t-68.5 186.5q0 114 70 185t183 71q115 0 177 -67.5t62 -189.5v-25zM272 423q-108 0 -117 -137h220q-1 74 -25 105.5t-78 31.5zM278 545q-28 0 -45.5 17
t-17.5 43t17.5 42.5t45.5 16.5t45.5 -16.5t17.5 -42.5t-17.5 -43t-45.5 -17z" />
    <glyph glyph-name="Eogonek" unicode="&#x118;" horiz-adv-x="604" 
d="M16 0v75h50q11 0 15 5.5t4 22.5v458q0 17 -4 22.5t-15 5.5h-50v75h542v-166h-87l-12 60q-4 20 -16.5 25.5t-44.5 5.5h-176v-216h112q17 0 23 6.5t6 24.5v37h75v-213h-75v37q0 18 -6.5 26t-22.5 8h-112v-224h189q33 0 45 5t16 26l12 60h86v-166q-42 -6 -62.5 -27
t-20.5 -46q0 -19 12 -29.5t32 -10.5q17 0 35 9v-61q-31 -11 -63 -11q-49 0 -76.5 20.5t-27.5 56.5q0 66 78 99h-461z" />
    <glyph glyph-name="eogonek" unicode="&#x119;" horiz-adv-x="530" 
d="M428 161l76 -34q-25 -69 -81 -105q-69 -44 -69 -95q0 -19 12 -29.5t32 -10.5q17 0 35 9v-61q-31 -11 -63 -11q-49 0 -76.5 20.5t-27.5 56.5q0 43 51 88q-18 -2 -32 -2q-129 0 -197.5 70.5t-68.5 186.5q0 114 70 185t183 71q115 0 177 -67.5t62 -189.5v-25h-354
q2 -70 37.5 -110.5t101.5 -40.5q95 0 132 94zM272 423q-108 0 -117 -137h220q-1 74 -25 105.5t-78 31.5z" />
    <glyph glyph-name="Ecaron" unicode="&#x11a;" horiz-adv-x="604" 
d="M16 0v75h50q11 0 15 5.5t4 22.5v458q0 17 -4 22.5t-15 5.5h-50v75h542v-166h-87l-12 60q-4 20 -16.5 25.5t-44.5 5.5h-176v-216h112q17 0 23 6.5t6 24.5v37h75v-213h-75v37q0 18 -6.5 26t-22.5 8h-112v-224h189q33 0 45 5t16 26l12 60h86v-166h-554zM170 838h65l68 -76
l67 76h66l-86 -136h-94z" />
    <glyph glyph-name="ecaron" unicode="&#x11b;" horiz-adv-x="530" 
d="M511 218h-354q2 -70 37.5 -110.5t101.5 -40.5q95 0 132 94l76 -34q-22 -64 -76 -102t-143 -38q-129 0 -197.5 70.5t-68.5 186.5q0 114 70 185t183 71q115 0 177 -67.5t62 -189.5v-25zM272 423q-108 0 -117 -137h220q-1 74 -25 105.5t-78 31.5zM142 661h65l68 -76l67 76
h66l-86 -136h-94z" />
    <glyph glyph-name="Gcircumflex" unicode="&#x11c;" horiz-adv-x="658" 
d="M571 0l-38 110q-48 -123 -216 -123q-140 0 -216.5 90.5t-76.5 253.5q0 157 83 251.5t222 94.5q70 0 121.5 -30.5t72.5 -86.5l28 104h80v-247h-115q-27 174 -170 174q-177 0 -177 -242v-34q0 -123 42.5 -182.5t132.5 -59.5q67 0 106.5 39.5t39.5 106.5v27h-144v75h285
v-321h-60zM266 702h-65l85 136h93l84 -136h-66l-65 77z" />
    <glyph glyph-name="gcircumflex" unicode="&#x11d;" horiz-adv-x="568" 
d="M269 -206q-140 0 -202 25t-62 76q0 71 129 95q-105 18 -105 101q0 74 90 99q-76 43 -76 135q0 78 66 126.5t168 48.5q91 0 153 -39q17 108 99 108q31 0 50.5 -18t19.5 -46q0 -27 -16.5 -45t-41.5 -18q-41 0 -53 37q-18 -16 -26 -44q44 -46 44 -109q0 -80 -63.5 -125
t-171.5 -45q-66 0 -109 14q-31 -7 -31 -32q0 -20 14 -28t50 -8q23 0 108.5 1t104.5 1q154 0 154 -138q0 -83 -75 -127.5t-218 -44.5zM369 -23h-191q-67 -19 -67 -72q0 -29 39 -42t124 -13q186 0 186 75q0 30 -19.5 41t-71.5 11zM272 219q46 0 71 26t25 74v14q0 102 -93 102
q-96 0 -96 -103v-14q0 -48 24 -73.5t69 -25.5zM198 525h-65l85 136h93l84 -136h-66l-65 77z" />
    <glyph glyph-name="Gbreve" unicode="&#x11e;" horiz-adv-x="658" 
d="M571 0l-38 110q-48 -123 -216 -123q-140 0 -216.5 90.5t-76.5 253.5q0 157 83 251.5t222 94.5q70 0 121.5 -30.5t72.5 -86.5l28 104h80v-247h-115q-27 174 -170 174q-177 0 -177 -242v-34q0 -123 42.5 -182.5t132.5 -59.5q67 0 106.5 39.5t39.5 106.5v27h-144v75h285
v-321h-60zM334 712q-67 0 -103.5 35t-36.5 100h67q0 -78 73 -78q72 0 72 78h67q0 -65 -36 -100t-103 -35z" />
    <glyph glyph-name="gbreve" unicode="&#x11f;" horiz-adv-x="568" 
d="M269 -206q-140 0 -202 25t-62 76q0 71 129 95q-105 18 -105 101q0 74 90 99q-76 43 -76 135q0 78 66 126.5t168 48.5q91 0 153 -39q17 108 99 108q31 0 50.5 -18t19.5 -46q0 -27 -16.5 -45t-41.5 -18q-41 0 -53 37q-18 -16 -26 -44q44 -46 44 -109q0 -80 -63.5 -125
t-171.5 -45q-66 0 -109 14q-31 -7 -31 -32q0 -20 14 -28t50 -8q23 0 108.5 1t104.5 1q154 0 154 -138q0 -83 -75 -127.5t-218 -44.5zM369 -23h-191q-67 -19 -67 -72q0 -29 39 -42t124 -13q186 0 186 75q0 30 -19.5 41t-71.5 11zM272 219q46 0 71 26t25 74v14q0 102 -93 102
q-96 0 -96 -103v-14q0 -48 24 -73.5t69 -25.5zM267 535q-67 0 -103.5 35t-36.5 100h67q0 -78 73 -78q72 0 72 78h67q0 -65 -36 -100t-103 -35z" />
    <glyph glyph-name="Gdotaccent" unicode="&#x120;" horiz-adv-x="658" 
d="M571 0l-38 110q-48 -123 -216 -123q-140 0 -216.5 90.5t-76.5 253.5q0 157 83 251.5t222 94.5q70 0 121.5 -30.5t72.5 -86.5l28 104h80v-247h-115q-27 174 -170 174q-177 0 -177 -242v-34q0 -123 42.5 -182.5t132.5 -59.5q67 0 106.5 39.5t39.5 106.5v27h-144v75h285
v-321h-60zM336 722q-28 0 -45.5 17t-17.5 43t17.5 42.5t45.5 16.5t45.5 -16.5t17.5 -42.5t-17.5 -43t-45.5 -17z" />
    <glyph glyph-name="gdotaccent" unicode="&#x121;" horiz-adv-x="568" 
d="M269 -206q-140 0 -202 25t-62 76q0 71 129 95q-105 18 -105 101q0 74 90 99q-76 43 -76 135q0 78 66 126.5t168 48.5q91 0 153 -39q17 108 99 108q31 0 50.5 -18t19.5 -46q0 -27 -16.5 -45t-41.5 -18q-41 0 -53 37q-18 -16 -26 -44q44 -46 44 -109q0 -80 -63.5 -125
t-171.5 -45q-66 0 -109 14q-31 -7 -31 -32q0 -20 14 -28t50 -8q23 0 108.5 1t104.5 1q154 0 154 -138q0 -83 -75 -127.5t-218 -44.5zM369 -23h-191q-67 -19 -67 -72q0 -29 39 -42t124 -13q186 0 186 75q0 30 -19.5 41t-71.5 11zM272 219q46 0 71 26t25 74v14q0 102 -93 102
q-96 0 -96 -103v-14q0 -48 24 -73.5t69 -25.5zM263 545q-28 0 -45.5 17t-17.5 43t17.5 42.5t45.5 16.5t45.5 -16.5t17.5 -42.5t-17.5 -43t-45.5 -17z" />
    <glyph glyph-name="Gcommaaccent" unicode="&#x122;" horiz-adv-x="658" 
d="M571 0l-38 110q-48 -123 -216 -123q-140 0 -216.5 90.5t-76.5 253.5q0 157 83 251.5t222 94.5q70 0 121.5 -30.5t72.5 -86.5l28 104h80v-247h-115q-27 174 -170 174q-177 0 -177 -242v-34q0 -123 42.5 -182.5t132.5 -59.5q67 0 106.5 39.5t39.5 106.5v27h-144v75h285
v-321h-60zM289 -198q52 0 55 45q-13 -5 -25 -5q-25 0 -39.5 14t-14.5 38q0 25 18 41.5t46 16.5q33 0 57 -25.5t24 -64.5q0 -51 -31 -82.5t-82 -31.5q-19 0 -40 7v52q20 -5 32 -5z" />
    <glyph glyph-name="gcommaaccent" unicode="&#x123;" horiz-adv-x="568" 
d="M269 -206q-140 0 -202 25t-62 76q0 71 129 95q-105 18 -105 101q0 74 90 99q-76 43 -76 135q0 78 66 126.5t168 48.5q91 0 153 -39q17 108 99 108q31 0 50.5 -18t19.5 -46q0 -27 -16.5 -45t-41.5 -18q-41 0 -53 37q-18 -16 -26 -44q44 -46 44 -109q0 -80 -63.5 -125
t-171.5 -45q-66 0 -109 14q-31 -7 -31 -32q0 -20 14 -28t50 -8q23 0 108.5 1t104.5 1q154 0 154 -138q0 -83 -75 -127.5t-218 -44.5zM369 -23h-191q-67 -19 -67 -72q0 -29 39 -42t124 -13q186 0 186 75q0 30 -19.5 41t-71.5 11zM272 219q46 0 71 26t25 74v14q0 102 -93 102
q-96 0 -96 -103v-14q0 -48 24 -73.5t69 -25.5zM310 663q-52 0 -55 -45q13 5 25 5q25 0 39.5 -14t14.5 -38q0 -25 -18 -41.5t-46 -16.5q-33 0 -57 25.5t-24 64.5q0 51 31 82.5t82 31.5q19 0 40 -7v-52q-20 5 -32 5z" />
    <glyph glyph-name="Hcircumflex" unicode="&#x124;" horiz-adv-x="728" 
d="M16 0v75h50q11 0 15 6t4 23v457q0 17 -4 22.5t-15 5.5h-50v75h274v-75h-49q-11 0 -15 -5.5t-4 -22.5v-186h284v186q0 17 -4 22.5t-15 5.5h-49v75h274v-75h-50q-11 0 -15 -5.5t-4 -22.5v-457q0 -17 4 -23t15 -6h50v-75h-274v75h49q11 0 15 6t4 23v196h-284v-196
q0 -17 4 -23t15 -6h49v-75h-274zM299 702h-65l85 136h93l84 -136h-66l-65 77z" />
    <glyph glyph-name="hcircumflex" unicode="&#x125;" horiz-adv-x="596" 
d="M206 674v-270q46 96 163 96q158 0 158 -180v-219q0 -16 4 -21t13 -5h44v-75h-252v75h39q9 0 13 5t4 21v213q0 51 -19 74.5t-61 23.5q-106 0 -106 -161v-150q0 -16 4 -21t13 -5h39v-75h-252v75h44q9 0 13 5t4 21v458q0 18 -3.5 24t-13.5 6h-47v75h83q72 0 116 10zM61 702
h-65l85 136h93l84 -136h-66l-65 77z" />
    <glyph glyph-name="Hbar" unicode="&#x126;" horiz-adv-x="718" 
d="M19 445v75h66v41q0 17 -4 22.5t-15 5.5h-50v75h274v-75h-49q-11 0 -15 -5.5t-4 -22.5v-41h274v41q0 17 -4 22.5t-15 5.5h-49v75h274v-75h-50q-11 0 -15 -5.5t-4 -22.5v-41h64v-75h-64v-341q0 -17 4 -23t15 -6h50v-75h-274v75h49q11 0 15 6t4 23v196h-274v-196
q0 -17 4 -23t15 -6h49v-75h-274v75h50q11 0 15 6t4 23v341h-66zM222 445v-70h274v70h-274z" />
    <glyph glyph-name="hbar" unicode="&#x127;" horiz-adv-x="596" 
d="M10 527v75h61v62h19q72 0 116 10v-72h129v-75h-129v-123q46 96 163 96q158 0 158 -180v-219q0 -16 4 -21t13 -5h44v-75h-252v75h39q9 0 13 5t4 21v213q0 51 -19 74.5t-61 23.5q-106 0 -106 -161v-150q0 -16 4 -21t13 -5h39v-75h-252v75h44q9 0 13 5t4 21v426h-61z" />
    <glyph glyph-name="Imacron" unicode="&#x12a;" horiz-adv-x="313" 
d="M19 0v75h50q11 0 15 6t4 23v457q0 17 -4 22.5t-15 5.5h-50v75h275v-75h-50q-11 0 -15 -5.5t-4 -22.5v-457q0 -17 4 -23t15 -6h50v-75h-275zM3 731v75h305v-75h-305z" />
    <glyph glyph-name="imacron" unicode="&#x12b;" horiz-adv-x="290" 
d="M16 0v75h45q16 0 16 26v271q0 23 -4.5 31.5t-17.5 8.5h-39v75h80q71 0 117 10v-396q0 -26 16 -26h42v-75h-255zM-18 554v75h305v-75h-305z" />
    <glyph glyph-name="Ibreve" unicode="&#x12c;" horiz-adv-x="313" 
d="M19 0v75h50q11 0 15 6t4 23v457q0 17 -4 22.5t-15 5.5h-50v75h275v-75h-50q-11 0 -15 -5.5t-4 -22.5v-457q0 -17 4 -23t15 -6h50v-75h-275zM156 712q-67 0 -103.5 35t-36.5 100h67q0 -78 73 -78q72 0 72 78h67q0 -65 -36 -100t-103 -35z" />
    <glyph glyph-name="ibreve" unicode="&#x12d;" horiz-adv-x="290" 
d="M16 0v75h45q16 0 16 26v271q0 23 -4.5 31.5t-17.5 8.5h-39v75h80q71 0 117 10v-396q0 -26 16 -26h42v-75h-255zM133 535q-67 0 -103.5 35t-36.5 100h67q0 -78 73 -78q72 0 72 78h67q0 -65 -36 -100t-103 -35z" />
    <glyph glyph-name="Iogonek" unicode="&#x12e;" horiz-adv-x="313" 
d="M19 0v75h50q11 0 15 6t4 23v457q0 17 -4 22.5t-15 5.5h-50v75h275v-75h-50q-11 0 -15 -5.5t-4 -22.5v-457q0 -17 4 -23t15 -6h50v-75q-42 -3 -60.5 -25.5t-18.5 -47.5q0 -19 12 -29.5t32 -10.5q17 0 35 9v-61q-31 -11 -63 -11q-49 0 -76.5 20.5t-27.5 56.5q0 63 78 99
h-186z" />
    <glyph glyph-name="iogonek" unicode="&#x12f;" horiz-adv-x="289" 
d="M16 0v75h45q16 0 16 26v271q0 23 -4.5 31.5t-17.5 8.5h-39v75h80q71 0 117 10v-396q0 -26 16 -26h42v-75q-38 0 -58.5 -24t-20.5 -49q0 -19 12 -29.5t32 -10.5q17 0 35 9v-61q-31 -11 -63 -11q-49 0 -76.5 20.5t-27.5 56.5q0 61 79 99h-167zM144 532q-37 0 -60.5 23.5
t-23.5 58.5t23.5 58.5t60.5 23.5q36 0 60 -24t24 -58t-24 -58t-60 -24z" />
    <glyph glyph-name="Idotaccent" unicode="&#x130;" horiz-adv-x="313" 
d="M19 0v75h50q11 0 15 6t4 23v457q0 17 -4 22.5t-15 5.5h-50v75h275v-75h-50q-11 0 -15 -5.5t-4 -22.5v-457q0 -17 4 -23t15 -6h50v-75h-275zM156 722q-28 0 -45.5 17t-17.5 43t17.5 42.5t45.5 16.5t45.5 -16.5t17.5 -42.5t-17.5 -43t-45.5 -17z" />
    <glyph glyph-name="dotlessi" unicode="&#x131;" horiz-adv-x="290" 
d="M16 0v75h45q16 0 16 26v271q0 23 -4.5 31.5t-17.5 8.5h-39v75h80q71 0 117 10v-396q0 -26 16 -26h42v-75h-255z" />
    <glyph glyph-name="Jcircumflex" unicode="&#x134;" horiz-adv-x="413" 
d="M135 -13q-66 0 -118 26v85q38 -24 90 -24q46 0 66.5 22.5t20.5 74.5v390q0 17 -3.5 22.5t-12.5 5.5h-54v75h274v-75h-48q-11 0 -15 -5.5t-4 -22.5v-387q0 -100 -46.5 -143.5t-149.5 -43.5zM195 702h-65l85 136h93l84 -136h-66l-65 77z" />
    <glyph glyph-name="jcircumflex" unicode="&#x135;" horiz-adv-x="269" 
d="M-5 -170v72q6 -2 21 -2q33 0 45 15.5t12 62.5v394q0 23 -4.5 31.5t-17.5 8.5h-38v75h79q71 0 117 10v-509q0 -92 -33 -128.5t-118 -36.5q-42 0 -63 7zM61 525h-65l85 136h93l84 -136h-66l-65 77z" />
    <glyph glyph-name="Kcommaaccent" unicode="&#x136;" horiz-adv-x="692" 
d="M16 0v75h50q11 0 15 6t4 23v457q0 17 -4 22.5t-15 5.5h-50v75h276v-75h-49q-11 0 -15 -5.5t-4 -22.5v-250l234 248q10 10 7.5 20.5t-14.5 9.5h-58v75h271v-75h-37q-21 2 -46 -23l-156 -158l187 -309q14 -24 36 -24h36v-75h-296v75h52q21 0 9 20l-129 217l-96 -104v-104
q0 -17 4 -23t15 -6h49v-75h-276zM305 -198q52 0 55 45q-13 -5 -25 -5q-25 0 -39.5 14t-14.5 38q0 25 18 41.5t46 16.5q33 0 57 -25.5t24 -64.5q0 -51 -31 -82.5t-82 -31.5q-19 0 -40 7v52q20 -5 32 -5z" />
    <glyph glyph-name="kcommaaccent" unicode="&#x137;" horiz-adv-x="576" 
d="M10 0v75h44q9 0 13 5t4 21v458q0 18 -3.5 24t-13.5 6h-47v75h83q72 0 116 10v-435l156 151q4 3 5 8.5t-3 10t-12 4.5h-51v74h255v-74h-35q-27 0 -47 -18l-99 -89l139 -212q11 -19 29 -19h29v-75h-249v75h35q20 0 7 21l-84 129l-75 -72v-52q0 -16 4 -21t13 -5h39v-75h-252
zM262 -198q52 0 55 45q-13 -5 -25 -5q-25 0 -39.5 14t-14.5 38q0 25 18 41.5t46 16.5q33 0 57 -25.5t24 -64.5q0 -51 -31 -82.5t-82 -31.5q-19 0 -40 7v52q20 -5 32 -5z" />
    <glyph glyph-name="Lacute" unicode="&#x139;" horiz-adv-x="546" 
d="M16 0v75h50q11 0 15 6t4 23v457q0 17 -4 22.5t-15 5.5h-50v75h280v-75h-55q-11 0 -15 -5.5t-4 -22.5v-486h130q33 0 45.5 6t16.5 25l19 104h88v-210h-505zM97 703l90 138h124v-46l-157 -92h-57z" />
    <glyph glyph-name="lacute" unicode="&#x13a;" horiz-adv-x="290" 
d="M16 0v75h45q8 0 12 5t4 21v458q0 18 -3.5 24t-12.5 6h-47v75h82q71 0 117 10v-573q0 -16 4 -21t12 -5h40v-75h-253zM80 703l90 138h124v-46l-157 -92h-57z" />
    <glyph glyph-name="Lcommaaccent" unicode="&#x13b;" horiz-adv-x="546" 
d="M16 0v75h50q11 0 15 6t4 23v457q0 17 -4 22.5t-15 5.5h-50v75h280v-75h-55q-11 0 -15 -5.5t-4 -22.5v-486h130q33 0 45.5 6t16.5 25l19 104h88v-210h-505zM237 -198q52 0 55 45q-13 -5 -25 -5q-25 0 -39.5 14t-14.5 38q0 25 18 41.5t46 16.5q33 0 57 -25.5t24 -64.5
q0 -51 -31 -82.5t-82 -31.5q-19 0 -40 7v52q20 -5 32 -5z" />
    <glyph glyph-name="lcommaaccent" unicode="&#x13c;" horiz-adv-x="290" 
d="M16 0v75h45q8 0 12 5t4 21v458q0 18 -3.5 24t-12.5 6h-47v75h82q71 0 117 10v-573q0 -16 4 -21t12 -5h40v-75h-253zM98 -198q52 0 55 45q-13 -5 -25 -5q-25 0 -39.5 14t-14.5 38q0 25 18 41.5t46 16.5q33 0 57 -25.5t24 -64.5q0 -51 -31 -82.5t-82 -31.5q-19 0 -40 7v52
q20 -5 32 -5z" />
    <glyph glyph-name="Lcaron" unicode="&#x13d;" horiz-adv-x="657" 
d="M16 0v75h50q11 0 15 6t4 23v457q0 17 -4 22.5t-15 5.5h-50v75h280v-75h-55q-11 0 -15 -5.5t-4 -22.5v-486h130q33 0 45.5 6t16.5 25l19 104h88v-210h-505zM493 492q63 0 67 55q-12 -6 -31 -6q-30 0 -48.5 17t-18.5 47q0 31 22 51t57 20q42 0 71 -31t29 -80
q0 -63 -37.5 -101t-100.5 -38q-23 0 -49 7v65q18 -6 39 -6z" />
    <glyph glyph-name="lcaron" unicode="&#x13e;" horiz-adv-x="512" 
d="M16 0v75h45q8 0 12 5t4 21v458q0 18 -3.5 24t-12.5 6h-47v75h82q71 0 117 10v-573q0 -16 4 -21t12 -5h40v-75h-253zM319 500q63 0 67 55q-12 -6 -31 -6q-30 0 -48.5 17t-18.5 47q0 31 22 51t57 20q42 0 71 -31t29 -80q0 -63 -37.5 -101t-100.5 -38q-23 0 -49 7v65
q18 -6 39 -6z" />
    <glyph glyph-name="Ldot" unicode="&#x13f;" horiz-adv-x="546" 
d="M16 0v75h50q11 0 15 6t4 23v457q0 17 -4 22.5t-15 5.5h-50v75h280v-75h-55q-11 0 -15 -5.5t-4 -22.5v-486h130q33 0 45.5 6t16.5 25l19 104h88v-210h-505zM543 253q-37 0 -59.5 22.5t-22.5 57.5t22.5 57t59.5 22q36 0 59 -22t23 -57t-23 -57.5t-59 -22.5z" />
    <glyph glyph-name="ldot" unicode="&#x140;" horiz-adv-x="483" 
d="M16 0v75h45q8 0 12 5t4 21v458q0 18 -3.5 24t-12.5 6h-47v75h82q71 0 117 10v-573q0 -16 4 -21t12 -5h40v-75h-253zM386 164q-37 0 -59.5 22.5t-22.5 57.5t22.5 57t59.5 22q36 0 59 -22t23 -57t-23 -57.5t-59 -22.5z" />
    <glyph glyph-name="Lslash" unicode="&#x141;" horiz-adv-x="546" 
d="M10 174v72l75 30v285q0 17 -4 22.5t-15 5.5h-50v75h280v-75h-55q-11 0 -15 -5.5t-4 -22.5v-231l131 53v-71l-131 -53v-184h130q33 0 45.5 6t16.5 25l19 104h88v-210h-505v75h50q11 0 15 6t4 23v100z" />
    <glyph glyph-name="lslash" unicode="&#x142;" horiz-adv-x="290" 
d="M15 182v72l62 24v286q0 18 -3.5 24t-12.5 6h-47v70h82q71 0 117 10v-344l60 23v-71l-60 -24v-162q0 -16 4 -21t12 -5h40v-70h-253v70h45q8 0 12 5t4 21v110z" />
    <glyph glyph-name="Nacute" unicode="&#x143;" 
d="M19 664h212l334 -447v344q0 17 -4 22.5t-15 5.5h-54v75h229v-75h-55q-11 0 -15 -5.5t-4 -22.5v-562h-87l-385 513v-409q0 -17 4 -22.5t15 -5.5h55v-75h-230v75h55q11 0 15 5.5t4 22.5v458q0 17 -4 22.5t-15 5.5h-55v75zM321 703l90 138h124v-46l-157 -92h-57z" />
    <glyph glyph-name="nacute" unicode="&#x144;" horiz-adv-x="601" 
d="M209 497v-97q46 100 165 100q158 0 158 -182v-217q0 -16 4 -21t13 -5h44v-75h-252v75h39q9 0 13 5t4 21v214q0 51 -19.5 74t-60.5 23q-106 0 -106 -159v-152q0 -16 4 -21t13 -5h39v-75h-252v75h44q9 0 13 5t4 21v281q0 18 -3.5 24t-13.5 6h-44v75h78q72 0 116 10z
M240 526l90 138h124v-46l-157 -92h-57z" />
    <glyph glyph-name="Ncommaaccent" unicode="&#x145;" 
d="M19 664h212l334 -447v344q0 17 -4 22.5t-15 5.5h-54v75h229v-75h-55q-11 0 -15 -5.5t-4 -22.5v-562h-87l-385 513v-409q0 -17 4 -22.5t15 -5.5h55v-75h-230v75h55q11 0 15 5.5t4 22.5v458q0 17 -4 22.5t-15 5.5h-55v75zM333 -198q52 0 55 45q-13 -5 -25 -5
q-25 0 -39.5 14t-14.5 38q0 25 18 41.5t46 16.5q33 0 57 -25.5t24 -64.5q0 -51 -31 -82.5t-82 -31.5q-19 0 -40 7v52q20 -5 32 -5z" />
    <glyph glyph-name="ncommaaccent" unicode="&#x146;" horiz-adv-x="601" 
d="M209 497v-97q46 100 165 100q158 0 158 -182v-217q0 -16 4 -21t13 -5h44v-75h-252v75h39q9 0 13 5t4 21v214q0 51 -19.5 74t-60.5 23q-106 0 -106 -159v-152q0 -16 4 -21t13 -5h39v-75h-252v75h44q9 0 13 5t4 21v281q0 18 -3.5 24t-13.5 6h-44v75h78q72 0 116 10z
M257 -198q52 0 55 45q-13 -5 -25 -5q-25 0 -39.5 14t-14.5 38q0 25 18 41.5t46 16.5q33 0 57 -25.5t24 -64.5q0 -51 -31 -82.5t-82 -31.5q-19 0 -40 7v52q20 -5 32 -5z" />
    <glyph glyph-name="Ncaron" unicode="&#x147;" 
d="M19 664h212l334 -447v344q0 17 -4 22.5t-15 5.5h-54v75h229v-75h-55q-11 0 -15 -5.5t-4 -22.5v-562h-87l-385 513v-409q0 -17 4 -22.5t15 -5.5h55v-75h-230v75h55q11 0 15 5.5t4 22.5v458q0 17 -4 22.5t-15 5.5h-55v75zM248 838h65l68 -76l67 76h66l-86 -136h-94z" />
    <glyph glyph-name="ncaron" unicode="&#x148;" horiz-adv-x="601" 
d="M209 497v-97q46 100 165 100q158 0 158 -182v-217q0 -16 4 -21t13 -5h44v-75h-252v75h39q9 0 13 5t4 21v214q0 51 -19.5 74t-60.5 23q-106 0 -106 -159v-152q0 -16 4 -21t13 -5h39v-75h-252v75h44q9 0 13 5t4 21v281q0 18 -3.5 24t-13.5 6h-44v75h78q72 0 116 10z
M178 661h65l68 -76l67 76h66l-86 -136h-94z" />
    <glyph glyph-name="Omacron" unicode="&#x14c;" horiz-adv-x="714" 
d="M357 -13q-155 0 -244 93.5t-89 250.5q0 155 94 250.5t245 95.5q154 0 242 -94t88 -252q0 -155 -93 -249.5t-243 -94.5zM359 73q192 0 192 235v46q0 237 -190 237q-193 0 -193 -237v-46q0 -121 48 -178t143 -57zM207 731v75h305v-75h-305z" />
    <glyph glyph-name="omacron" unicode="&#x14d;" horiz-adv-x="557" 
d="M277 -13q-116 0 -187 70.5t-71 186.5q0 114 72.5 185t189.5 71q115 0 185.5 -70.5t70.5 -185.5t-71.5 -186t-188.5 -71zM278 67q64 0 94 41.5t30 128.5v13q0 88 -30 129t-93 41q-64 0 -94 -41t-30 -129v-13q0 -88 29.5 -129t93.5 -41zM127 554v75h305v-75h-305z" />
    <glyph glyph-name="Obreve" unicode="&#x14e;" horiz-adv-x="714" 
d="M357 -13q-155 0 -244 93.5t-89 250.5q0 155 94 250.5t245 95.5q154 0 242 -94t88 -252q0 -155 -93 -249.5t-243 -94.5zM359 73q192 0 192 235v46q0 237 -190 237q-193 0 -193 -237v-46q0 -121 48 -178t143 -57zM361 712q-67 0 -103.5 35t-36.5 100h67q0 -78 73 -78
q72 0 72 78h67q0 -65 -36 -100t-103 -35z" />
    <glyph glyph-name="obreve" unicode="&#x14f;" horiz-adv-x="557" 
d="M277 -13q-116 0 -187 70.5t-71 186.5q0 114 72.5 185t189.5 71q115 0 185.5 -70.5t70.5 -185.5t-71.5 -186t-188.5 -71zM278 67q64 0 94 41.5t30 128.5v13q0 88 -30 129t-93 41q-64 0 -94 -41t-30 -129v-13q0 -88 29.5 -129t93.5 -41zM278 535q-67 0 -103.5 35t-36.5 100
h67q0 -78 73 -78q72 0 72 78h67q0 -65 -36 -100t-103 -35z" />
    <glyph glyph-name="Ohungarumlaut" unicode="&#x150;" horiz-adv-x="714" 
d="M357 -13q-155 0 -244 93.5t-89 250.5q0 155 94 250.5t245 95.5q154 0 242 -94t88 -252q0 -155 -93 -249.5t-243 -94.5zM359 73q192 0 192 235v46q0 237 -190 237q-193 0 -193 -237v-46q0 -121 48 -178t143 -57zM381 702l103 159h97v-47l-143 -112h-57zM212 702l104 159
h108l-35 -60l-120 -99h-57z" />
    <glyph glyph-name="ohungarumlaut" unicode="&#x151;" horiz-adv-x="557" 
d="M277 -13q-116 0 -187 70.5t-71 186.5q0 114 72.5 185t189.5 71q115 0 185.5 -70.5t70.5 -185.5t-71.5 -186t-188.5 -71zM278 67q64 0 94 41.5t30 128.5v13q0 88 -30 129t-93 41q-64 0 -94 -41t-30 -129v-13q0 -88 29.5 -129t93.5 -41zM310 525l103 159h97v-47l-143 -112
h-57zM141 525l104 159h108l-35 -60l-120 -99h-57z" />
    <glyph glyph-name="OE" unicode="&#x152;" horiz-adv-x="956" 
d="M371 0q-171 0 -260 87t-89 248q0 155 92.5 242t266.5 87h529v-166h-66l-12 60q-11 19 -22 25t-39 6h-176v-216h81q17 0 23 6.5t6 24.5l1 37h75v-213h-75l-1 37q0 18 -6.5 26t-22.5 8h-81v-224h189q30 0 40 5t20 26l12 60h67v-166h-552zM450 75v514h-74q-110 0 -156 -56
t-46 -176v-47q0 -123 45 -179t152 -56h79z" />
    <glyph glyph-name="oe" unicode="&#x153;" horiz-adv-x="916" 
d="M274 -13q-117 0 -186 70t-69 187q0 116 70.5 186t188.5 70q133 0 195 -95q59 95 193 95q112 0 171.5 -67.5t59.5 -189.5v-25h-354q2 -70 37.5 -110.5t101.5 -40.5q95 0 132 94l76 -34q-48 -140 -224 -140q-136 0 -195 95q-62 -95 -197 -95zM278 64q64 0 94 42.5t30 130.5
v13q0 88 -30 130.5t-93 42.5q-65 0 -94.5 -42.5t-29.5 -130.5v-13q0 -89 29.5 -131t93.5 -42zM663 426q-112 0 -121 -140h219q-1 75 -24.5 107.5t-73.5 32.5z" />
    <glyph glyph-name="Racute" unicode="&#x154;" horiz-adv-x="637" 
d="M577 483q0 -69 -36 -109.5t-114 -53.5q63 -19 93.5 -63.5t36.5 -116.5q3 -38 14 -51.5t38 -13.5h21v-75h-109q-108 0 -120 158q-4 69 -26 101t-80 32h-75v-187q0 -17 4 -23t15 -6h50v-75h-273v75h50q11 0 15 6t4 23v457q0 16 -4 22t-15 6h-50v75h330q119 0 175 -43.5
t56 -137.5zM220 589v-233h73q71 0 103 27.5t32 92.5q0 62 -28 87.5t-92 25.5h-88zM236 703l90 138h124v-46l-157 -92h-57z" />
    <glyph glyph-name="racute" unicode="&#x155;" horiz-adv-x="469" 
d="M213 497v-107q32 110 132 110q54 0 85.5 -32t31.5 -86q0 -47 -26 -76t-69 -29q-28 0 -48 19.5t-20 46.5q0 21 13 39t35 25q-12 10 -33 10q-49 0 -74.5 -42.5t-25.5 -120.5v-153q0 -16 4 -21t13 -5h47v-75h-260v75h44q9 0 13 5t4 21v281q0 18 -3.5 24t-13.5 6h-47v75h81
q71 0 117 10zM104 526l90 138h124v-46l-157 -92h-57z" />
    <glyph glyph-name="Rcommaaccent" unicode="&#x156;" horiz-adv-x="637" 
d="M577 483q0 -69 -36 -109.5t-114 -53.5q63 -19 93.5 -63.5t36.5 -116.5q3 -38 14 -51.5t38 -13.5h21v-75h-109q-108 0 -120 158q-4 69 -26 101t-80 32h-75v-187q0 -17 4 -23t15 -6h50v-75h-273v75h50q11 0 15 6t4 23v457q0 16 -4 22t-15 6h-50v75h330q119 0 175 -43.5
t56 -137.5zM220 589v-233h73q71 0 103 27.5t32 92.5q0 62 -28 87.5t-92 25.5h-88zM311 -198q52 0 55 45q-13 -5 -25 -5q-25 0 -39.5 14t-14.5 38q0 25 18 41.5t46 16.5q33 0 57 -25.5t24 -64.5q0 -51 -31 -82.5t-82 -31.5q-19 0 -40 7v52q20 -5 32 -5z" />
    <glyph glyph-name="rcommaaccent" unicode="&#x157;" horiz-adv-x="469" 
d="M213 497v-107q32 110 132 110q54 0 85.5 -32t31.5 -86q0 -47 -26 -76t-69 -29q-28 0 -48 19.5t-20 46.5q0 21 13 39t35 25q-12 10 -33 10q-49 0 -74.5 -42.5t-25.5 -120.5v-153q0 -16 4 -21t13 -5h47v-75h-260v75h44q9 0 13 5t4 21v281q0 18 -3.5 24t-13.5 6h-47v75h81
q71 0 117 10zM97 -198q52 0 55 45q-13 -5 -25 -5q-25 0 -39.5 14t-14.5 38q0 25 18 41.5t46 16.5q33 0 57 -25.5t24 -64.5q0 -51 -31 -82.5t-82 -31.5q-19 0 -40 7v52q20 -5 32 -5z" />
    <glyph glyph-name="Rcaron" unicode="&#x158;" horiz-adv-x="637" 
d="M577 483q0 -69 -36 -109.5t-114 -53.5q63 -19 93.5 -63.5t36.5 -116.5q3 -38 14 -51.5t38 -13.5h21v-75h-109q-108 0 -120 158q-4 69 -26 101t-80 32h-75v-187q0 -17 4 -23t15 -6h50v-75h-273v75h50q11 0 15 6t4 23v457q0 16 -4 22t-15 6h-50v75h330q119 0 175 -43.5
t56 -137.5zM220 589v-233h73q71 0 103 27.5t32 92.5q0 62 -28 87.5t-92 25.5h-88zM167 838h65l68 -76l67 76h66l-86 -136h-94z" />
    <glyph glyph-name="rcaron" unicode="&#x159;" horiz-adv-x="469" 
d="M213 497v-107q32 110 132 110q54 0 85.5 -32t31.5 -86q0 -47 -26 -76t-69 -29q-28 0 -48 19.5t-20 46.5q0 21 13 39t35 25q-12 10 -33 10q-49 0 -74.5 -42.5t-25.5 -120.5v-153q0 -16 4 -21t13 -5h47v-75h-260v75h44q9 0 13 5t4 21v281q0 18 -3.5 24t-13.5 6h-47v75h81
q71 0 117 10zM78 661h65l68 -76l67 76h66l-86 -136h-94z" />
    <glyph glyph-name="Sacute" unicode="&#x15a;" horiz-adv-x="568" 
d="M273 -13q-135 0 -239 57v155h110v-112q54 -19 135 -19q53 0 86 23.5t33 69.5q0 49 -33.5 68.5t-127.5 41.5q-102 24 -152.5 67t-50.5 125q0 101 70 157.5t195 56.5q107 0 211 -43v-165h-108v115q-50 12 -102 12q-65 0 -100 -25t-35 -72q0 -45 31 -64.5t121 -40.5
q51 -12 84 -24t66.5 -33t50 -54.5t16.5 -79.5q0 -98 -69.5 -157t-191.5 -59zM194 703l90 138h124v-46l-157 -92h-57z" />
    <glyph glyph-name="sacute" unicode="&#x15b;" horiz-adv-x="451" 
d="M22 27v131h102v-90q32 -10 88 -10q97 0 97 65q0 33 -28 47t-87 25q-38 7 -64.5 15.5t-54 24t-41.5 42.5t-14 64q0 73 57 116t159 43q48 0 100 -12t82 -27v-129h-102v84q-24 12 -76 12q-45 0 -70 -16.5t-25 -45.5q0 -22 15 -35t33.5 -18.5t53.5 -11.5q8 -1 12 -2
q39 -8 65 -16t54 -24.5t42 -43.5t14 -65q0 -74 -58.5 -118.5t-161.5 -44.5q-91 0 -192 40zM138 526l90 138h124v-46l-157 -92h-57z" />
    <glyph glyph-name="Scircumflex" unicode="&#x15c;" horiz-adv-x="568" 
d="M273 -13q-135 0 -239 57v155h110v-112q54 -19 135 -19q53 0 86 23.5t33 69.5q0 49 -33.5 68.5t-127.5 41.5q-102 24 -152.5 67t-50.5 125q0 101 70 157.5t195 56.5q107 0 211 -43v-165h-108v115q-50 12 -102 12q-65 0 -100 -25t-35 -72q0 -45 31 -64.5t121 -40.5
q51 -12 84 -24t66.5 -33t50 -54.5t16.5 -79.5q0 -98 -69.5 -157t-191.5 -59zM234 702h-65l85 136h93l84 -136h-66l-65 77z" />
    <glyph glyph-name="scircumflex" unicode="&#x15d;" horiz-adv-x="451" 
d="M22 27v131h102v-90q32 -10 88 -10q97 0 97 65q0 33 -28 47t-87 25q-38 7 -64.5 15.5t-54 24t-41.5 42.5t-14 64q0 73 57 116t159 43q48 0 100 -12t82 -27v-129h-102v84q-24 12 -76 12q-45 0 -70 -16.5t-25 -45.5q0 -22 15 -35t33.5 -18.5t53.5 -11.5q8 -1 12 -2
q39 -8 65 -16t54 -24.5t42 -43.5t14 -65q0 -74 -58.5 -118.5t-161.5 -44.5q-91 0 -192 40zM165 525h-65l85 136h93l84 -136h-66l-65 77z" />
    <glyph glyph-name="Scedilla" unicode="&#x15e;" horiz-adv-x="568" 
d="M275 -197q-63 0 -121 30l9 44q59 -23 101 -23q54 0 54 28q0 27 -47 27q-21 0 -37 -9l-4 4v85q-112 8 -196 55v155h110v-112q54 -19 135 -19q53 0 86 23.5t33 69.5q0 49 -33.5 68.5t-127.5 41.5q-102 24 -152.5 67t-50.5 125q0 101 70 157.5t195 56.5q107 0 211 -43v-165
h-108v115q-50 12 -102 12q-65 0 -100 -25t-35 -72q0 -45 31 -64.5t121 -40.5q51 -12 84 -24t66.5 -33t50 -54.5t16.5 -79.5q0 -93 -63 -151t-174 -64l1 -33q4 1 13 1q96 0 96 -73q0 -37 -35 -58.5t-97 -21.5z" />
    <glyph glyph-name="scedilla" unicode="&#x15f;" horiz-adv-x="451" 
d="M207 -197q-63 0 -121 30l9 44q59 -23 101 -23q54 0 54 28q0 27 -47 27q-21 0 -37 -9l-4 4v87q-73 8 -140 36v131h102v-90q32 -10 88 -10q97 0 97 65q0 33 -28 47t-87 25q-38 7 -64.5 15.5t-54 24t-41.5 42.5t-14 64q0 73 57 116t159 43q48 0 100 -12t82 -27v-129h-102v84
q-24 12 -76 12q-45 0 -70 -16.5t-25 -45.5q0 -22 15 -35t33.5 -18.5t53.5 -11.5q8 -1 12 -2q39 -8 65 -16t54 -24.5t42 -43.5t14 -65q0 -72 -54 -115.5t-151 -47.5l1 -32q4 1 13 1q96 0 96 -73q0 -37 -35 -58.5t-97 -21.5z" />
    <glyph glyph-name="Scaron" unicode="&#x160;" horiz-adv-x="568" 
d="M273 -13q-135 0 -239 57v155h110v-112q54 -19 135 -19q53 0 86 23.5t33 69.5q0 49 -33.5 68.5t-127.5 41.5q-102 24 -152.5 67t-50.5 125q0 101 70 157.5t195 56.5q107 0 211 -43v-165h-108v115q-50 12 -102 12q-65 0 -100 -25t-35 -72q0 -45 31 -64.5t121 -40.5
q51 -12 84 -24t66.5 -33t50 -54.5t16.5 -79.5q0 -98 -69.5 -157t-191.5 -59zM161 838h65l68 -76l67 76h66l-86 -136h-94z" />
    <glyph glyph-name="scaron" unicode="&#x161;" horiz-adv-x="451" 
d="M22 27v131h102v-90q32 -10 88 -10q97 0 97 65q0 33 -28 47t-87 25q-38 7 -64.5 15.5t-54 24t-41.5 42.5t-14 64q0 73 57 116t159 43q48 0 100 -12t82 -27v-129h-102v84q-24 12 -76 12q-45 0 -70 -16.5t-25 -45.5q0 -22 15 -35t33.5 -18.5t53.5 -11.5q8 -1 12 -2
q39 -8 65 -16t54 -24.5t42 -43.5t14 -65q0 -74 -58.5 -118.5t-161.5 -44.5q-91 0 -192 40zM88 661h65l68 -76l67 76h66l-86 -136h-94z" />
    <glyph glyph-name="Tcommaaccent" unicode="&#x162;" horiz-adv-x="647" 
d="M181 0v75h55q11 0 15 6t4 23v489h-75q-33 0 -47 -6.5t-15 -27.5l-5 -59h-87v164h595v-164h-87l-5 59q-1 21 -15 27.5t-48 6.5h-79v-489q0 -17 4 -23t15 -6h55v-75h-280zM276 -198q52 0 55 45q-13 -5 -25 -5q-25 0 -39.5 14t-14.5 38q0 25 18 41.5t46 16.5q33 0 57 -25.5
t24 -64.5q0 -51 -31 -82.5t-82 -31.5q-19 0 -40 7v52q20 -5 32 -5z" />
    <glyph glyph-name="tcommaaccent" unicode="&#x163;" horiz-adv-x="326" 
d="M221 -12q-83 0 -118 34.5t-35 116.5v273h-66v67l38 3q28 5 42.5 17t17.5 38l10 88h93v-138h97v-75h-100v-271q0 -39 14.5 -55t47.5 -16q22 0 46 8v-77q-41 -13 -87 -13zM127 -198q52 0 55 45q-13 -5 -25 -5q-25 0 -39.5 14t-14.5 38q0 25 18 41.5t46 16.5q33 0 57 -25.5
t24 -64.5q0 -51 -31 -82.5t-82 -31.5q-19 0 -40 7v52q20 -5 32 -5z" />
    <glyph glyph-name="Tcaron" unicode="&#x164;" horiz-adv-x="647" 
d="M181 0v75h55q11 0 15 6t4 23v489h-75q-33 0 -47 -6.5t-15 -27.5l-5 -59h-87v164h595v-164h-87l-5 59q-1 21 -15 27.5t-48 6.5h-79v-489q0 -17 4 -23t15 -6h55v-75h-280zM191 838h65l68 -76l67 76h66l-86 -136h-94z" />
    <glyph glyph-name="tcaron" unicode="&#x165;" horiz-adv-x="439" 
d="M221 -12q-83 0 -118 34.5t-35 116.5v273h-66v67l38 3q28 5 42.5 17t17.5 38l10 88h93v-138h97v-75h-100v-271q0 -39 14.5 -55t47.5 -16q22 0 46 8v-77q-41 -13 -87 -13zM288 567q52 0 55 45q-10 -5 -25 -5q-25 0 -39.5 14t-14.5 38q0 25 18 41.5t46 16.5q33 0 57 -25.5
t24 -64.5q0 -51 -31 -82.5t-82 -31.5q-19 0 -40 7v52q20 -5 32 -5z" />
    <glyph glyph-name="Umacron" unicode="&#x16a;" horiz-adv-x="698" 
d="M347 -13q-147 0 -207.5 55t-60.5 187v332q0 17 -4 22.5t-15 5.5h-45v75h270v-75h-50q-11 0 -15 -5.5t-4 -22.5v-328q0 -90 33.5 -124.5t123.5 -34.5q81 0 118 38.5t37 119.5v329q0 17 -4 22.5t-15 5.5h-56v75h232v-75h-51q-11 0 -15 -5.5t-4 -22.5v-337q0 -237 -268 -237
zM212 731v75h305v-75h-305z" />
    <glyph glyph-name="umacron" unicode="&#x16b;" horiz-adv-x="593" 
d="M502 0q-71 0 -117 -10v89q-47 -92 -160 -92q-159 0 -159 178v221q0 16 -4 21t-12 5h-45v75h197v-319q0 -51 20 -73t60 -22q50 0 76.5 37.5t26.5 107.5v168q0 16 -4 21t-13 5h-49v75h201v-382q0 -18 3.5 -24t13.5 -6h47v-75h-82zM120 554v75h305v-75h-305z" />
    <glyph glyph-name="Ubreve" unicode="&#x16c;" horiz-adv-x="698" 
d="M347 -13q-147 0 -207.5 55t-60.5 187v332q0 17 -4 22.5t-15 5.5h-45v75h270v-75h-50q-11 0 -15 -5.5t-4 -22.5v-328q0 -90 33.5 -124.5t123.5 -34.5q81 0 118 38.5t37 119.5v329q0 17 -4 22.5t-15 5.5h-56v75h232v-75h-51q-11 0 -15 -5.5t-4 -22.5v-337q0 -237 -268 -237
zM364 712q-67 0 -103.5 35t-36.5 100h67q0 -78 73 -78q72 0 72 78h67q0 -65 -36 -100t-103 -35z" />
    <glyph glyph-name="ubreve" unicode="&#x16d;" horiz-adv-x="593" 
d="M502 0q-71 0 -117 -10v89q-47 -92 -160 -92q-159 0 -159 178v221q0 16 -4 21t-12 5h-45v75h197v-319q0 -51 20 -73t60 -22q50 0 76.5 37.5t26.5 107.5v168q0 16 -4 21t-13 5h-49v75h201v-382q0 -18 3.5 -24t13.5 -6h47v-75h-82zM268 535q-67 0 -103.5 35t-36.5 100h67
q0 -78 73 -78q72 0 72 78h67q0 -65 -36 -100t-103 -35z" />
    <glyph glyph-name="Uring" unicode="&#x16e;" horiz-adv-x="698" 
d="M347 -13q-147 0 -207.5 55t-60.5 187v332q0 17 -4 22.5t-15 5.5h-45v75h270v-75h-50q-11 0 -15 -5.5t-4 -22.5v-328q0 -90 33.5 -124.5t123.5 -34.5q81 0 118 38.5t37 119.5v329q0 17 -4 22.5t-15 5.5h-56v75h232v-75h-51q-11 0 -15 -5.5t-4 -22.5v-337q0 -237 -268 -237
zM366 712q-51 0 -81 26.5t-30 68.5t30.5 68.5t80.5 26.5t80.5 -26.5t30.5 -68.5t-30 -68.5t-81 -26.5zM366 754q25 0 39 14t14 39t-14 39t-39 14t-39 -14t-14 -39t14 -39t39 -14z" />
    <glyph glyph-name="uring" unicode="&#x16f;" horiz-adv-x="593" 
d="M502 0q-71 0 -117 -10v89q-47 -92 -160 -92q-159 0 -159 178v221q0 16 -4 21t-12 5h-45v75h197v-319q0 -51 20 -73t60 -22q50 0 76.5 37.5t26.5 107.5v168q0 16 -4 21t-13 5h-49v75h201v-382q0 -18 3.5 -24t13.5 -6h47v-75h-82zM264 535q-51 0 -81 26.5t-30 68.5
t30.5 68.5t80.5 26.5t80.5 -26.5t30.5 -68.5t-30 -68.5t-81 -26.5zM264 577q25 0 39 14t14 39t-14 39t-39 14t-39 -14t-14 -39t14 -39t39 -14z" />
    <glyph glyph-name="Uhungarumlaut" unicode="&#x170;" horiz-adv-x="698" 
d="M347 -13q-147 0 -207.5 55t-60.5 187v332q0 17 -4 22.5t-15 5.5h-45v75h270v-75h-50q-11 0 -15 -5.5t-4 -22.5v-328q0 -90 33.5 -124.5t123.5 -34.5q81 0 118 38.5t37 119.5v329q0 17 -4 22.5t-15 5.5h-56v75h232v-75h-51q-11 0 -15 -5.5t-4 -22.5v-337q0 -237 -268 -237
zM393 702l103 159h97v-47l-143 -112h-57zM224 702l104 159h108l-35 -60l-120 -99h-57z" />
    <glyph glyph-name="uhungarumlaut" unicode="&#x171;" horiz-adv-x="593" 
d="M502 0q-71 0 -117 -10v89q-47 -92 -160 -92q-159 0 -159 178v221q0 16 -4 21t-12 5h-45v75h197v-319q0 -51 20 -73t60 -22q50 0 76.5 37.5t26.5 107.5v168q0 16 -4 21t-13 5h-49v75h201v-382q0 -18 3.5 -24t13.5 -6h47v-75h-82zM291 525l103 159h97v-47l-143 -112h-57z
M122 525l104 159h108l-35 -60l-120 -99h-57z" />
    <glyph glyph-name="Uogonek" unicode="&#x172;" horiz-adv-x="698" 
d="M347 -13q-147 0 -207.5 55t-60.5 187v332q0 17 -4 22.5t-15 5.5h-45v75h270v-75h-50q-11 0 -15 -5.5t-4 -22.5v-328q0 -90 33.5 -124.5t123.5 -34.5q81 0 118 38.5t37 119.5v329q0 17 -4 22.5t-15 5.5h-56v75h232v-75h-51q-11 0 -15 -5.5t-4 -22.5v-337q0 -147 -108 -205
q-73 -39 -73 -92q0 -19 12 -29.5t32 -10.5q17 0 35 9v-61q-31 -11 -63 -11q-49 0 -76.5 20.5t-27.5 56.5q0 50 39 87q-6 -1 -38 -1z" />
    <glyph glyph-name="uogonek" unicode="&#x173;" horiz-adv-x="593" 
d="M520 105q0 -18 3.5 -24t13.5 -6h47v-75q-37 0 -58 -24t-21 -49q0 -19 12 -29.5t32 -10.5q17 0 35 9v-61q-31 -11 -63 -11q-49 0 -76.5 20.5t-27.5 56.5q0 62 79 99q-78 -2 -111 -10v89q-47 -92 -160 -92q-159 0 -159 178v221q0 16 -4 21t-12 5h-45v75h197v-319
q0 -51 20 -73t60 -22q50 0 76.5 37.5t26.5 107.5v168q0 16 -4 21t-13 5h-49v75h201v-382z" />
    <glyph glyph-name="Wcircumflex" unicode="&#x174;" horiz-adv-x="1047" 
d="M266 -1l-176 561q-6 17 -12.5 23t-18.5 6h-45v75h279v-75h-48q-13 0 -17 -5.5t1 -22.5l114 -360l127 364q8 24 -14 24h-57v75h290v-75h-56q-21 0 -13 -24l131 -366l111 362q4 17 0.5 22.5t-16.5 5.5h-58v75h245v-75h-50q-15 0 -22.5 -5.5t-12.5 -23.5l-179 -561h-87
l-164 467l-165 -467h-87zM475 702h-65l85 136h93l84 -136h-66l-65 77z" />
    <glyph glyph-name="wcircumflex" unicode="&#x175;" horiz-adv-x="826" 
d="M204 -6l-141 392q-6 16 -11.5 21t-14.5 5h-32v75h244v-75h-31q-28 0 -17 -29l79 -231q72 192 84 231q5 14 0 21.5t-17 7.5h-27v75h238v-75h-30q-28 0 -17 -29q3 -10 92 -233l29.5 88.5l33 99l14.5 43.5q8 31 -17 31h-34v75h192v-75h-31q-10 0 -15 -4.5t-11 -21.5
l-139 -392h-91l-118 315l-121 -315h-91zM369 525h-65l85 136h93l84 -136h-66l-65 77z" />
    <glyph glyph-name="Ycircumflex" unicode="&#x176;" horiz-adv-x="675" 
d="M203 0v75h55q11 0 15 6t4 23v179l-185 280q-18 26 -36 26h-41v75h294v-75h-47q-13 0 -15.5 -10.5t4.5 -20.5l119 -187l118 192q5 7 1 16.5t-13 9.5h-65v75h260v-75h-53q-23 0 -39 -26l-170 -264v-195q0 -17 4 -23t15 -6h55v-75h-280zM290 702h-65l85 136h93l84 -136h-66
l-65 77z" />
    <glyph glyph-name="ycircumflex" unicode="&#x177;" horiz-adv-x="568" 
d="M242 6v3l-174 377q-7 16 -12.5 21t-15.5 5h-33v75h258v-75h-38q-13 0 -17.5 -8.5t1.5 -20.5l107 -236l96 234q13 31 -19 31h-40v75h209v-75h-39q-12 0 -17.5 -4.5t-12.5 -21.5l-161 -386q-43 -101 -88 -143.5t-121 -42.5q-58 0 -94 27.5t-36 76.5q0 40 22.5 63.5
t60.5 23.5q46 0 63.5 -34t-8.5 -79q35 3 60.5 29.5t48.5 84.5zM242 525h-65l85 136h93l84 -136h-66l-65 77z" />
    <glyph glyph-name="Ydieresis" unicode="&#x178;" horiz-adv-x="675" 
d="M203 0v75h55q11 0 15 6t4 23v179l-185 280q-18 26 -36 26h-41v75h294v-75h-47q-13 0 -15.5 -10.5t4.5 -20.5l119 -187l118 192q5 7 1 16.5t-13 9.5h-65v75h260v-75h-53q-23 0 -39 -26l-170 -264v-195q0 -17 4 -23t15 -6h55v-75h-280zM259 707q-28 0 -45 17.5t-17 45.5
t17 45t45 17q29 0 46.5 -17t17.5 -45t-17.5 -45.5t-46.5 -17.5zM444 707q-28 0 -45.5 17.5t-17.5 45.5t17 45t46 17q28 0 45.5 -17t17.5 -45t-17.5 -45.5t-45.5 -17.5z" />
    <glyph glyph-name="Zacute" unicode="&#x179;" horiz-adv-x="607" 
d="M24 0v70l397 520h-215q-32 0 -45 -6.5t-17 -25.5l-19 -104h-78v210h534v-70l-398 -519h232q32 0 45.5 6.5t16.5 24.5l19 104h78v-210h-550zM224 703l90 138h124v-46l-157 -92h-57z" />
    <glyph glyph-name="zacute" unicode="&#x17a;" horiz-adv-x="501" 
d="M21 0v66l297 354h-126q-32 0 -44.5 -5.5t-16.5 -25.5l-14 -78h-80v176h433v-66l-297 -354h140q32 0 44.5 5.5t16.5 25.5l14 78h80v-176h-447zM178 526l90 138h124v-46l-157 -92h-57z" />
    <glyph glyph-name="Zdotaccent" unicode="&#x17b;" horiz-adv-x="607" 
d="M24 0v70l397 520h-215q-32 0 -45 -6.5t-17 -25.5l-19 -104h-78v210h534v-70l-398 -519h232q32 0 45.5 6.5t16.5 24.5l19 104h78v-210h-550zM314 722q-28 0 -45.5 17t-17.5 43t17.5 42.5t45.5 16.5t45.5 -16.5t17.5 -42.5t-17.5 -43t-45.5 -17z" />
    <glyph glyph-name="zdotaccent" unicode="&#x17c;" horiz-adv-x="501" 
d="M21 0v66l297 354h-126q-32 0 -44.5 -5.5t-16.5 -25.5l-14 -78h-80v176h433v-66l-297 -354h140q32 0 44.5 5.5t16.5 25.5l14 78h80v-176h-447zM264 545q-28 0 -45.5 17t-17.5 43t17.5 42.5t45.5 16.5t45.5 -16.5t17.5 -42.5t-17.5 -43t-45.5 -17z" />
    <glyph glyph-name="Zcaron" unicode="&#x17d;" horiz-adv-x="607" 
d="M24 0v70l397 520h-215q-32 0 -45 -6.5t-17 -25.5l-19 -104h-78v210h534v-70l-398 -519h232q32 0 45.5 6.5t16.5 24.5l19 104h78v-210h-550zM173 838h65l68 -76l67 76h66l-86 -136h-94z" />
    <glyph glyph-name="zcaron" unicode="&#x17e;" horiz-adv-x="501" 
d="M21 0v66l297 354h-126q-32 0 -44.5 -5.5t-16.5 -25.5l-14 -78h-80v176h433v-66l-297 -354h140q32 0 44.5 5.5t16.5 25.5l14 78h80v-176h-447zM110 661h65l68 -76l67 76h66l-86 -136h-94z" />
    <glyph glyph-name="florin" unicode="&#x192;" horiz-adv-x="526" 
d="M100 363v75h121l28 103q19 72 60 106.5t112 31.5q64 -3 104 -28l-18 -66q-11 9 -37 13q-43 2 -65.5 -15t-34.5 -72l-17 -73h114v-75h-134l-59 -221q-23 -82 -64.5 -120t-121.5 -34q-53 4 -88 25l18 65q9 -8 36 -12q41 0 59 17t33 72l55 208h-101z" />
    <glyph glyph-name="Aringacute" unicode="&#x1fa;" 
d="M481 721q0 -49 -39 -76l208 -541q12 -29 33 -29h40v-75h-283v75h46q28 0 17 28l-46 117h-233l-43 -117q-5 -17 -1 -22.5t18 -5.5h51v-75h-239v75h49q15 0 21.5 5.5t13.5 23.5l209 538q-44 27 -44 79q0 42 30.5 68.5t80.5 26.5t80.5 -26.5t30.5 -68.5zM344 544l-95 -252
h187zM370 674q20 0 33.5 13.5t13.5 33.5t-13.5 33.5t-33.5 13.5t-33.5 -13.5t-13.5 -33.5t13.5 -33.5t33.5 -13.5zM272 829l90 138h124v-46l-157 -92h-57z" />
    <glyph glyph-name="aringacute" unicode="&#x1fb;" horiz-adv-x="552" 
d="M245 424q-38 0 -64 -8q19 -22 19 -54q0 -33 -22 -53t-56 -20q-39 0 -61 21t-22 59q0 68 63.5 99.5t166.5 31.5q114 0 164.5 -38t50.5 -127v-234q0 -26 16 -26h42v-75h-162q-20 33 -30 83q-19 -41 -69 -68.5t-109 -27.5q-67 0 -107 36.5t-40 91.5q0 85 78 125t246 65v28
q0 48 -25 69.5t-79 21.5zM266 535q-51 0 -81 26.5t-30 68.5t30.5 68.5t80.5 26.5t80.5 -26.5t30.5 -68.5t-30 -68.5t-81 -26.5zM226 70q56 0 89 38t34 100v38q-99 -14 -146 -37.5t-47 -70.5q0 -31 19 -49.5t51 -18.5zM266 583q20 0 33.5 13.5t13.5 33.5t-13.5 33.5
t-33.5 13.5t-33.5 -13.5t-13.5 -33.5t13.5 -33.5t33.5 -13.5zM161 734l90 138h124v-46l-157 -92h-57z" />
    <glyph glyph-name="AEacute" unicode="&#x1fc;" horiz-adv-x="946" 
d="M696 228v37q0 18 -6.5 26t-22.5 8h-77v-224h184q30 0 40 5t20 26l12 60h67v-166h-529v75h50q11 0 15 5.5t4 22.5v124h-186l-67 -124q-8 -17 -5 -22.5t17 -5.5h40v-75h-237v75h39q29 0 44 29l248 454q7 15 2 23t-16 8h-63v75h631v-166h-66l-13 60q-10 19 -21 25t-39 6
h-171v-216h77q17 0 23 6.5t6 24.5v37h75v-213h-75zM302 297h151v281zM506 703l90 138h124v-46l-157 -92h-57z" />
    <glyph glyph-name="aeacute" unicode="&#x1fd;" horiz-adv-x="841" 
d="M822 218h-354q2 -70 37.5 -110.5t101.5 -40.5q95 0 132 94l76 -34q-48 -140 -229 -140q-148 0 -208 102q-29 -50 -80.5 -76t-112.5 -26q-72 0 -116 36.5t-44 91.5q0 88 77 130t237 53v34q0 49 -21 70.5t-75 21.5q-33 0 -69 -12q18 -20 18 -48q0 -29 -21 -47.5t-53 -18.5
q-37 0 -58 19t-21 54q0 64 64.5 96.5t163.5 32.5q113 0 148 -64q62 64 170 64q115 0 176 -67.5t61 -189.5v-25zM587 426q-111 0 -120 -140h219q-1 75 -24.5 107.5t-74.5 32.5zM347 180q-3 17 -5 50q-96 -1 -141 -23.5t-45 -68.5q0 -31 19 -49.5t51 -18.5q100 0 121 110z
M378 526l90 138h124v-46l-157 -92h-57z" />
    <glyph glyph-name="Oslashacute" unicode="&#x1fe;" horiz-adv-x="714" 
d="M17 0l85 94q-78 92 -78 237q0 156 92.5 251t246.5 95q122 0 206 -64l46 51h84l-85 -94q79 -93 79 -239q0 -156 -91.5 -250t-244.5 -94q-124 0 -210 64l-46 -51h-84zM359 73q192 0 192 245v26q0 79 -21 133l-311 -346q48 -58 140 -58zM168 318q0 -78 19 -129l311 345
q-48 57 -137 57q-94 0 -143.5 -62.5t-49.5 -184.5v-26zM299 703l90 138h124v-46l-157 -92h-57z" />
    <glyph glyph-name="oslashacute" unicode="&#x1ff;" horiz-adv-x="557" 
d="M20 0l60 68q-61 69 -61 176q0 114 72.5 185t189.5 71q84 0 143 -38l29 33h84l-64 -73q64 -69 64 -178q0 -115 -71.5 -186t-188.5 -71q-87 0 -149 40l-24 -27h-84zM278 64q64 0 94 42.5t30 130.5v13q0 54 -12 92l-202 -240q29 -38 90 -38zM155 237q0 -51 9 -87l201 239
q-30 34 -86 34q-65 0 -94.5 -42.5t-29.5 -130.5v-13zM220 526l90 138h124v-46l-157 -92h-57z" />
    <glyph glyph-name="Scommaaccent" unicode="&#x218;" horiz-adv-x="568" 
d="M273 -13q-135 0 -239 57v155h110v-112q54 -19 135 -19q53 0 86 23.5t33 69.5q0 49 -33.5 68.5t-127.5 41.5q-102 24 -152.5 67t-50.5 125q0 101 70 157.5t195 56.5q107 0 211 -43v-165h-108v115q-50 12 -102 12q-65 0 -100 -25t-35 -72q0 -45 31 -64.5t121 -40.5
q51 -12 84 -24t66.5 -33t50 -54.5t16.5 -79.5q0 -98 -69.5 -157t-191.5 -59zM235 -198q52 0 55 45q-13 -5 -25 -5q-25 0 -39.5 14t-14.5 38q0 25 18 41.5t46 16.5q33 0 57 -25.5t24 -64.5q0 -51 -31 -82.5t-82 -31.5q-19 0 -40 7v52q20 -5 32 -5z" />
    <glyph glyph-name="scommaaccent" unicode="&#x219;" horiz-adv-x="451" 
d="M22 27v131h102v-90q32 -10 88 -10q97 0 97 65q0 33 -28 47t-87 25q-38 7 -64.5 15.5t-54 24t-41.5 42.5t-14 64q0 73 57 116t159 43q48 0 100 -12t82 -27v-129h-102v84q-24 12 -76 12q-45 0 -70 -16.5t-25 -45.5q0 -22 15 -35t33.5 -18.5t53.5 -11.5q8 -1 12 -2
q39 -8 65 -16t54 -24.5t42 -43.5t14 -65q0 -74 -58.5 -118.5t-161.5 -44.5q-91 0 -192 40zM170 -198q52 0 55 45q-13 -5 -25 -5q-25 0 -39.5 14t-14.5 38q0 25 18 41.5t46 16.5q33 0 57 -25.5t24 -64.5q0 -51 -31 -82.5t-82 -31.5q-19 0 -40 7v52q20 -5 32 -5z" />
    <glyph glyph-name="dotlessj" unicode="&#x237;" horiz-adv-x="269" 
d="M-5 -170v72q6 -2 21 -2q33 0 45 15.5t12 62.5v394q0 23 -4.5 31.5t-17.5 8.5h-38v75h79q71 0 117 10v-509q0 -92 -33 -128.5t-118 -36.5q-42 0 -63 7z" />
    <glyph glyph-name="circumflex" unicode="&#x2c6;" horiz-adv-x="500" 
d="M184 525h-65l85 136h93l84 -136h-66l-65 77z" />
    <glyph glyph-name="caron" unicode="&#x2c7;" horiz-adv-x="500" 
d="M117 661h65l68 -76l67 76h66l-86 -136h-94z" />
    <glyph glyph-name="breve" unicode="&#x2d8;" horiz-adv-x="500" 
d="M250 535q-67 0 -103.5 35t-36.5 100h67q0 -78 73 -78q72 0 72 78h67q0 -65 -36 -100t-103 -35z" />
    <glyph glyph-name="dotaccent" unicode="&#x2d9;" horiz-adv-x="500" 
d="M250 545q-28 0 -45.5 17t-17.5 43t17.5 42.5t45.5 16.5t45.5 -16.5t17.5 -42.5t-17.5 -43t-45.5 -17z" />
    <glyph glyph-name="ring" unicode="&#x2da;" horiz-adv-x="500" 
d="M250 535q-51 0 -81 26.5t-30 68.5t30.5 68.5t80.5 26.5t80.5 -26.5t30.5 -68.5t-30 -68.5t-81 -26.5zM250 577q25 0 39 14t14 39t-14 39t-39 14t-39 -14t-14 -39t14 -39t39 -14z" />
    <glyph glyph-name="ogonek" unicode="&#x2db;" horiz-adv-x="500" 
d="M247 -176q-49 0 -76.5 20.5t-27.5 56.5q0 45 38.5 78t116.5 60l8 -28q-75 -33 -75 -84q0 -19 12 -29.5t32 -10.5q17 0 35 9v-61q-31 -11 -63 -11z" />
    <glyph glyph-name="tilde" unicode="&#x2dc;" horiz-adv-x="500" 
d="M98 535l4 33q4 46 23 67t55 21q33 0 76.5 -26t55.5 -26q20 0 24 26l4 21h62l-4 -33q-5 -47 -23.5 -68.5t-54.5 -21.5q-34 0 -77 26.5t-55 26.5q-22 0 -25 -26l-3 -20h-62z" />
    <glyph glyph-name="hungarumlaut" unicode="&#x2dd;" horiz-adv-x="500" 
d="M264 525l103 159h97v-47l-143 -112h-57zM95 525l104 159h108l-35 -60l-120 -99h-57z" />
    <glyph glyph-name="pi" unicode="&#x3c0;" horiz-adv-x="739" 
d="M370 -13q-157 0 -252.5 94.5t-95.5 249.5t95.5 250.5t252.5 95.5q155 0 251 -95.5t96 -250.5t-95.5 -249.5t-251.5 -94.5zM370 35q131 0 212 81.5t81 214.5t-81.5 215.5t-211.5 82.5q-131 0 -212.5 -82.5t-81.5 -215.5q0 -132 81.5 -214t212.5 -82zM223 144v46h30
q8 0 8 13v252q0 13 -8 13h-30v46h175q147 0 147 -110q0 -58 -35.5 -85.5t-111.5 -27.5h-50v-88q0 -13 8 -13h33v-46h-166zM348 467v-130h41q42 0 59 16t17 50q0 33 -17.5 48.5t-59.5 15.5h-40z" />
    <glyph glyph-name="Wgrave" unicode="&#x1e80;" horiz-adv-x="1047" 
d="M266 -1l-176 561q-6 17 -12.5 23t-18.5 6h-45v75h279v-75h-48q-13 0 -17 -5.5t1 -22.5l114 -360l127 364q8 24 -14 24h-57v75h290v-75h-56q-21 0 -13 -24l131 -366l111 362q4 17 0.5 22.5t-16.5 5.5h-58v75h245v-75h-50q-15 0 -22.5 -5.5t-12.5 -23.5l-179 -561h-87
l-164 467l-165 -467h-87zM567 702l-157 93v46h124l90 -139h-57z" />
    <glyph glyph-name="wgrave" unicode="&#x1e81;" horiz-adv-x="826" 
d="M204 -6l-141 392q-6 16 -11.5 21t-14.5 5h-32v75h244v-75h-31q-28 0 -17 -29l79 -231q72 192 84 231q5 14 0 21.5t-17 7.5h-27v75h238v-75h-30q-28 0 -17 -29q3 -10 92 -233l29.5 88.5l33 99l14.5 43.5q8 31 -17 31h-34v75h192v-75h-31q-10 0 -15 -4.5t-11 -21.5
l-139 -392h-91l-118 315l-121 -315h-91zM469 525l-157 93v46h124l90 -139h-57z" />
    <glyph glyph-name="Wacute" unicode="&#x1e82;" horiz-adv-x="1047" 
d="M266 -1l-176 561q-6 17 -12.5 23t-18.5 6h-45v75h279v-75h-48q-13 0 -17 -5.5t1 -22.5l114 -360l127 364q8 24 -14 24h-57v75h290v-75h-56q-21 0 -13 -24l131 -366l111 362q4 17 0.5 22.5t-16.5 5.5h-58v75h245v-75h-50q-15 0 -22.5 -5.5t-12.5 -23.5l-179 -561h-87
l-164 467l-165 -467h-87zM462 703l90 138h124v-46l-157 -92h-57z" />
    <glyph glyph-name="wacute" unicode="&#x1e83;" horiz-adv-x="826" 
d="M204 -6l-141 392q-6 16 -11.5 21t-14.5 5h-32v75h244v-75h-31q-28 0 -17 -29l79 -231q72 192 84 231q5 14 0 21.5t-17 7.5h-27v75h238v-75h-30q-28 0 -17 -29q3 -10 92 -233l29.5 88.5l33 99l14.5 43.5q8 31 -17 31h-34v75h192v-75h-31q-10 0 -15 -4.5t-11 -21.5
l-139 -392h-91l-118 315l-121 -315h-91zM351 526l90 138h124v-46l-157 -92h-57z" />
    <glyph glyph-name="Wdieresis" unicode="&#x1e84;" horiz-adv-x="1047" 
d="M266 -1l-176 561q-6 17 -12.5 23t-18.5 6h-45v75h279v-75h-48q-13 0 -17 -5.5t1 -22.5l114 -360l127 364q8 24 -14 24h-57v75h290v-75h-56q-21 0 -13 -24l131 -366l111 362q4 17 0.5 22.5t-16.5 5.5h-58v75h245v-75h-50q-15 0 -22.5 -5.5t-12.5 -23.5l-179 -561h-87
l-164 467l-165 -467h-87zM637 712q-29 0 -46 17t-17 46q0 28 17 45t46 17q28 0 45.5 -17t17.5 -45t-17.5 -45.5t-45.5 -17.5zM452 712q-28 0 -45 17.5t-17 45.5t17 45t45 17q29 0 46.5 -17t17.5 -45t-17.5 -45.5t-46.5 -17.5z" />
    <glyph glyph-name="wdieresis" unicode="&#x1e85;" horiz-adv-x="826" 
d="M204 -6l-141 392q-6 16 -11.5 21t-14.5 5h-32v75h244v-75h-31q-28 0 -17 -29l79 -231q72 192 84 231q5 14 0 21.5t-17 7.5h-27v75h238v-75h-30q-28 0 -17 -29q3 -10 92 -233l29.5 88.5l33 99l14.5 43.5q8 31 -17 31h-34v75h192v-75h-31q-10 0 -15 -4.5t-11 -21.5
l-139 -392h-91l-118 315l-121 -315h-91zM530 535q-28 0 -45.5 17.5t-17.5 45.5t17 45t46 17q28 0 45.5 -17t17.5 -45t-17.5 -45.5t-45.5 -17.5zM345 535q-28 0 -45 17.5t-17 45.5t17 45t45 17q29 0 46.5 -17t17.5 -45t-17.5 -45.5t-46.5 -17.5z" />
    <glyph glyph-name="thinspace" unicode="&#x2009;" horiz-adv-x="59" 
 />
    <glyph glyph-name="endash" unicode="&#x2013;" horiz-adv-x="384" 
d="M20 205v80h344v-80h-344z" />
    <glyph glyph-name="emdash" unicode="&#x2014;" horiz-adv-x="474" 
d="M20 205v80h434v-80h-434z" />
    <glyph glyph-name="quoteleft" unicode="&#x2018;" horiz-adv-x="222" 
d="M166 607q-62 0 -67 -55q15 6 31 6q30 0 48.5 -17.5t18.5 -47.5q0 -31 -22 -50.5t-57 -19.5q-42 0 -71.5 30.5t-29.5 79.5q0 63 38 101.5t101 38.5q23 0 49 -7v-65q-20 6 -39 6z" />
    <glyph glyph-name="quoteright" unicode="&#x2019;" horiz-adv-x="222" 
d="M56 492q63 0 67 55q-12 -6 -31 -6q-30 0 -48.5 17t-18.5 47q0 31 22 51t57 20q42 0 71 -31t29 -80q0 -63 -37.5 -101t-100.5 -38q-23 0 -49 7v65q18 -6 39 -6z" />
    <glyph glyph-name="quotesinglbase" unicode="&#x201a;" horiz-adv-x="222" 
d="M56 -39q63 0 67 56q-12 -6 -31 -6q-30 0 -48.5 17t-18.5 47q0 31 22 51t57 20q42 0 71 -31t29 -80q0 -63 -37.5 -101.5t-100.5 -38.5q-23 0 -49 7v65q18 -6 39 -6z" />
    <glyph glyph-name="quotedblleft" unicode="&#x201c;" horiz-adv-x="425" 
d="M166 605q-64 0 -67 -55q15 6 31 6q30 0 48.5 -17t18.5 -47q0 -31 -22 -51t-57 -20q-42 0 -71.5 31t-29.5 80q0 62 38 100.5t101 38.5q30 0 49 -7v-65q-20 6 -39 6zM369 605q-64 0 -67 -55q15 6 31 6q30 0 48.5 -17t18.5 -47q0 -31 -22 -51t-57 -20q-42 0 -71 31t-29 80
q0 63 37.5 101t100.5 38q30 0 49 -7v-65q-20 6 -39 6z" />
    <glyph glyph-name="quotedblright" unicode="&#x201d;" horiz-adv-x="425" 
d="M259 492q63 0 67 55q-12 -6 -31 -6q-30 0 -48.5 17t-18.5 47q0 31 22 51t57 20q42 0 71 -31t29 -80q0 -63 -37.5 -101t-100.5 -38q-23 0 -49 7v65q20 -6 39 -6zM56 492q63 0 67 55q-12 -6 -31 -6q-30 0 -48.5 17t-18.5 47q0 31 22 51t57 20q42 0 71 -31t29 -80
q0 -63 -37.5 -101t-100.5 -38q-23 0 -49 7v65q18 -6 39 -6z" />
    <glyph glyph-name="quotedblbase" unicode="&#x201e;" horiz-adv-x="425" 
d="M259 -39q63 0 67 56q-12 -6 -31 -6q-30 0 -48.5 17t-18.5 47q0 31 22 51t57 20q42 0 71 -31t29 -80q0 -63 -37.5 -101.5t-100.5 -38.5q-23 0 -49 7v65q20 -6 39 -6zM56 -39q63 0 67 56q-12 -6 -31 -6q-30 0 -48.5 17t-18.5 47q0 31 22 51t57 20q42 0 71 -31t29 -80
q0 -63 -37.5 -101.5t-100.5 -38.5q-23 0 -49 7v65q18 -6 39 -6z" />
    <glyph glyph-name="dagger" unicode="&#x2020;" horiz-adv-x="478" 
d="M208 -100q-7 17 -18 159.5t-11 181.5q0 48 30 168q-112 -28 -153 -28h-32v116h32q40 0 152 -28q-29 116 -29 153v42h121v-42q0 -47 -29 -153q112 28 151 28h32v-116h-32q-41 0 -151 28q29 -127 29 -168q0 -37 -11.5 -180.5t-17.5 -160.5h-63z" />
    <glyph glyph-name="daggerdbl" unicode="&#x2021;" horiz-adv-x="478" 
d="M179 -106v47q0 47 29 153q-110 -28 -152 -28h-32v116h32q43 0 149 -27q-26 89 -26 122q0 39 27 132q-110 -28 -150 -28h-32v116h32q36 0 152 -29q-29 116 -29 154v42h121v-42q0 -47 -29 -153q110 28 151 28h32v-116h-32q-39 0 -149 28q27 -93 27 -132q0 -33 -26 -122
q106 27 148 27h32v-116h-32q-40 0 -150 28q28 -110 28 -153v-47h-121z" />
    <glyph glyph-name="bullet" unicode="&#x2022;" horiz-adv-x="328" 
d="M163 113q-61 0 -98.5 36.5t-37.5 96.5q0 59 38.5 96t100.5 37q61 0 98 -36.5t37 -96.5t-37.5 -96.5t-100.5 -36.5z" />
    <glyph glyph-name="ellipsis" unicode="&#x2026;" horiz-adv-x="665" 
d="M554 -13q-34 0 -55 21t-21 53q0 33 21 53.5t55 20.5t55 -20.5t21 -53.5q0 -32 -21 -53t-55 -21zM332 -13q-34 0 -55 21t-21 53q0 33 21 53.5t55 20.5t55.5 -20.5t21.5 -53.5q0 -32 -21.5 -53t-55.5 -21zM111 -13q-34 0 -55.5 21t-21.5 53q0 33 21.5 53.5t55.5 20.5
t55 -20.5t21 -53.5q0 -32 -21 -53t-55 -21z" />
    <glyph glyph-name="perthousand" unicode="&#x2030;" horiz-adv-x="1090" 
d="M186 350q-76 0 -122.5 45.5t-46.5 118.5q0 72 47.5 117.5t125.5 45.5q75 0 121.5 -45.5t46.5 -117.5t-47.5 -118t-124.5 -46zM186 412q36 0 53 20t17 70v23q0 50 -16.5 70t-51.5 20q-36 0 -53 -20t-17 -70v-23q0 -50 16.5 -70t51.5 -20zM536 -13q-76 0 -122.5 45.5
t-46.5 118.5q0 72 48 117.5t125 45.5q75 0 121.5 -45.5t46.5 -117.5t-47.5 -118t-124.5 -46zM537 49q35 0 52.5 20.5t17.5 69.5v23q0 50 -16.5 70t-51.5 20q-36 0 -53.5 -20t-17.5 -70v-23q0 -50 17 -70t52 -20zM901 -13q-76 0 -122.5 45.5t-46.5 118.5q0 72 48 117.5
t125 45.5q75 0 121.5 -45.5t46.5 -117.5t-47.5 -118t-124.5 -46zM902 49q35 0 52.5 20.5t17.5 69.5v23q0 50 -16.5 70t-51.5 20q-36 0 -53.5 -20t-17.5 -70v-23q0 -50 17 -70t52 -20zM70 0l259 350l229 314h94l-233 -315l-254 -349h-95z" />
    <glyph glyph-name="guilsinglleft" unicode="&#x2039;" horiz-adv-x="229" 
d="M202 87l-180 132v52l180 132v-100l-81 -58l81 -58v-100z" />
    <glyph glyph-name="guilsinglright" unicode="&#x203a;" horiz-adv-x="229" 
d="M27 87v100l80 58l-80 58v100l180 -132v-52z" />
    <glyph glyph-name="fraction" unicode="&#x2044;" horiz-adv-x="572" 
d="M0 0l478 664h94l-477 -664h-95z" />
    <glyph glyph-name="zero.sups" unicode="&#x2070;" horiz-adv-x="367" 
d="M183 291q-82 0 -125.5 49.5t-43.5 141.5q0 90 45.5 139.5t127.5 49.5q80 0 123 -49t43 -140q0 -92 -44 -141.5t-126 -49.5zM184 346q35 0 50.5 26t15.5 83v53q0 58 -15.5 83.5t-49.5 25.5q-35 0 -50.5 -25.5t-15.5 -83.5v-53q0 -58 15.5 -83.5t49.5 -25.5z" />
    <glyph glyph-name="four.sups" unicode="&#x2074;" horiz-adv-x="344" 
d="M8 398v51l155 215h128l-220 -214h111v55q23 0 47 13.5t36 26.5l12 13v-108h55v-52h-55v-33q0 -18 12 -18h24v-48h-168v48h22q12 0 12 18v33h-171z" />
    <glyph glyph-name="five.sups" unicode="&#x2075;" horiz-adv-x="318" 
d="M119 402q0 -35 -40 -43q24 -15 63 -15q67 0 67 74v8q0 69 -60 69q-52 0 -58 -39h-67l22 208h258q-10 -41 -34.5 -55.5t-76.5 -14.5h-91l-8 -76q25 31 85 31t94 -32.5t34 -89.5q0 -65 -40 -100.5t-113 -35.5q-70 0 -107 23.5t-37 67.5q0 28 16 44.5t43 16.5q23 0 36.5 -11
t13.5 -30z" />
    <glyph glyph-name="six.sups" unicode="&#x2076;" horiz-adv-x="343" 
d="M216 579q0 19 18 32q-12 4 -33 4q-50 0 -69.5 -27.5t-19.5 -92.5q0 -14 1 -20q21 53 95 53q59 0 92 -30t33 -82q0 -58 -40.5 -91.5t-111.5 -33.5q-81 0 -124.5 49.5t-43.5 140.5t47 140.5t135 49.5q129 0 129 -81q0 -57 -59 -57q-21 0 -35 13.5t-14 32.5zM176 345
q28 0 44 16t16 45v9q0 28 -16 44t-42 16q-28 0 -44 -16t-16 -45v-9q0 -28 15 -44t43 -16z" />
    <glyph glyph-name="seven.sups" unicode="&#x2077;" horiz-adv-x="316" 
d="M60 299l4 19q18 94 57.5 146t109.5 98q-22 -5 -41 -5q-64 0 -118 45v-73h-60v135h67q40 0 70 -12t54 -30t34 -22l-6 64h78l-1 -30q-3 -53 -26 -93t-79 -109t-97 -133h-46z" />
    <glyph glyph-name="eight.sups" unicode="&#x2078;" horiz-adv-x="332" 
d="M164 291q-152 0 -152 99q0 57 71 78q-66 25 -66 92q0 51 39.5 81t110.5 30q144 0 144 -94q0 -53 -66 -74q77 -28 77 -97q0 -53 -41.5 -84t-116.5 -31zM227 393q0 45 -83 62q-45 -20 -45 -61q0 -24 17.5 -38t47.5 -14q29 0 46 14t17 37zM109 574q0 -24 18.5 -37.5
t54.5 -21.5q45 19 45 59q0 48 -58 48q-60 0 -60 -48z" />
    <glyph glyph-name="nine.sups" unicode="&#x2079;" horiz-adv-x="346" 
d="M130 379q0 -17 -14 -29q15 -4 39 -4q42 0 60.5 25.5t18.5 84.5v26q-21 -52 -92 -52q-62 0 -95.5 30t-33.5 84q0 59 41 93t114 34q81 0 122.5 -49t41.5 -140t-45.5 -141t-131.5 -50q-133 0 -133 79q0 27 15.5 42t43.5 15q22 0 35.5 -14t13.5 -34zM169 482q28 0 44 17
t16 45v12q0 28 -16 45t-43 17q-28 0 -44 -16.5t-16 -45.5v-12q0 -28 16 -45t43 -17z" />
    <glyph glyph-name="plus.sups" unicode="&#x207a;" horiz-adv-x="367" 
d="M28 447v69h119v120h73v-120h119v-69h-119v-120h-73v120h-119z" />
    <glyph glyph-name="minus.sups" unicode="&#x207b;" horiz-adv-x="367" 
d="M28 445v73h311v-73h-311z" />
    <glyph glyph-name="zero.sinf" unicode="&#x2080;" horiz-adv-x="367" 
d="M183 -8q-82 0 -125.5 49.5t-43.5 141.5q0 90 45.5 139.5t127.5 49.5q80 0 123 -49t43 -140q0 -92 -44 -141.5t-126 -49.5zM184 47q35 0 50.5 26t15.5 83v53q0 58 -15.5 83.5t-49.5 25.5q-35 0 -50.5 -25.5t-15.5 -83.5v-53q0 -58 15.5 -83.5t49.5 -25.5z" />
    <glyph glyph-name="one.sinf" unicode="&#x2081;" horiz-adv-x="301" 
d="M53 234h-22v63h23q35 0 52.5 15.5t27.5 53.5h76v-297q0 -16 11 -16h58v-53h-241v53h63q6 0 8.5 3t2.5 13v180q-26 -15 -59 -15z" />
    <glyph glyph-name="two.sinf" unicode="&#x2082;" horiz-adv-x="333" 
d="M154 318q-41 0 -59 -23q33 -8 33 -43q0 -21 -15.5 -35t-39.5 -13q-58 0 -58 66q0 44 41 73t110 29q74 0 114.5 -31t40.5 -85q0 -37 -19.5 -62t-49 -38t-60.5 -23.5t-58.5 -26t-38.5 -38.5h131q26 0 27 20l5 32h56v-120h-302v22q1 44 22.5 76.5t52 51t60 33t50.5 33.5
t21 43q0 28 -17.5 43.5t-46.5 15.5z" />
    <glyph glyph-name="three.sinf" unicode="&#x2083;" horiz-adv-x="326" 
d="M119 98q0 -29 -28 -41q20 -13 57 -13q63 0 63 58v4q0 53 -65 53q-8 0 -18 -1t-11 -1v60q13 -3 32 -3q26 0 43 13t17 35v4q0 54 -60 54q-36 0 -56 -14q28 -12 28 -38q0 -18 -15 -31.5t-35 -13.5q-25 0 -41 16t-16 43q0 43 40.5 66.5t102.5 23.5q152 0 152 -97
q0 -29 -20 -49.5t-57 -27.5q83 -20 83 -96q0 -52 -43.5 -81t-120.5 -29q-142 0 -142 89q0 28 16.5 45t43.5 17q21 0 35.5 -13t14.5 -32z" />
    <glyph glyph-name="four.sinf" unicode="&#x2084;" horiz-adv-x="344" 
d="M8 99v51l155 215h128l-220 -214h111v55q23 0 47 13t36 27l12 13v-108h55v-52h-55v-33q0 -18 12 -18h24v-48h-168v48h22q12 0 12 18v33h-171z" />
    <glyph glyph-name="five.sinf" unicode="&#x2085;" horiz-adv-x="318" 
d="M119 103q0 -35 -40 -43q24 -15 63 -15q67 0 67 74v8q0 69 -60 69q-52 0 -58 -39h-67l22 208h258q-10 -41 -34.5 -55.5t-76.5 -14.5h-91l-8 -76q25 31 85 31t94 -32.5t34 -89.5q0 -65 -40 -100.5t-113 -35.5q-70 0 -107 23.5t-37 67.5q0 28 16 44.5t43 16.5q23 0 36.5 -11
t13.5 -30z" />
    <glyph glyph-name="six.sinf" unicode="&#x2086;" horiz-adv-x="343" 
d="M216 280q0 19 18 32q-12 4 -33 4q-50 0 -69.5 -27.5t-19.5 -92.5q0 -14 1 -20q21 53 95 53q59 0 92 -30t33 -82q0 -58 -40.5 -91.5t-111.5 -33.5q-81 0 -124.5 49.5t-43.5 140.5t47 140.5t135 49.5q129 0 129 -81q0 -57 -59 -57q-21 0 -35 13.5t-14 32.5zM176 46
q28 0 44 16t16 45v9q0 28 -16 44t-42 16q-28 0 -44 -16t-16 -45v-9q0 -28 15 -44t43 -16z" />
    <glyph glyph-name="seven.sinf" unicode="&#x2087;" horiz-adv-x="316" 
d="M60 0l4 19q18 94 57.5 146t109.5 98q-22 -5 -41 -5q-64 0 -118 45v-73h-60v135h67q40 0 70 -12t54 -30t34 -22l-6 64h78l-1 -30q-3 -53 -26 -93t-79 -109t-97 -133h-46z" />
    <glyph glyph-name="eight.sinf" unicode="&#x2088;" horiz-adv-x="332" 
d="M164 -8q-152 0 -152 99q0 57 71 78q-66 25 -66 92q0 51 39.5 81t110.5 30q144 0 144 -94q0 -53 -66 -74q77 -28 77 -97q0 -53 -41.5 -84t-116.5 -31zM227 94q0 45 -83 62q-45 -20 -45 -61q0 -24 17.5 -38t47.5 -14q29 0 46 14t17 37zM109 275q0 -24 18.5 -37.5
t54.5 -21.5q45 19 45 59q0 48 -58 48q-60 0 -60 -48z" />
    <glyph glyph-name="nine.sinf" unicode="&#x2089;" horiz-adv-x="346" 
d="M130 80q0 -17 -14 -29q15 -4 39 -4q42 0 60.5 25.5t18.5 84.5v26q-21 -52 -92 -52q-62 0 -95.5 30t-33.5 84q0 59 41 93t114 34q81 0 122.5 -49t41.5 -140t-45.5 -141t-131.5 -50q-133 0 -133 79q0 27 15.5 42t43.5 15q22 0 35.5 -14t13.5 -34zM169 183q28 0 44 17t16 45
v12q0 28 -16 45t-43 17q-28 0 -44 -16.5t-16 -45.5v-12q0 -28 16 -45t43 -17z" />
    <glyph glyph-name="Euro" unicode="&#x20ac;" horiz-adv-x="662" 
d="M15 350v55h62q17 127 91.5 199.5t186.5 72.5q107 0 172 -88l23 75h78v-197h-110q-39 117 -143 117q-133 0 -151 -179h230v-55h-232v-3v-34q0 -23 1 -33h191v-55h-185q26 -145 156 -145q57 0 97.5 35.5t54.5 100.5l97 -35q-17 -90 -84 -142t-177 -52q-118 0 -193.5 61
t-98.5 177h-66v55h59q-2 16 -2 50v20h-57z" />
    <glyph glyph-name="trademark" unicode="&#x2122;" horiz-adv-x="796" 
d="M335 312v46h30q9 0 9 13v235q0 13 -8 13h-31v45h161l66 -211l70 211h155v-45h-27q-8 0 -8 -13v-235q0 -13 8 -13h27v-46h-155v46h29q8 0 8 13v232l-98 -291h-51l-92 291v-232q0 -13 8 -13h29v-46h-130zM83 312v46h31q8 0 8 13v250h-24q-28 0 -31 -16l-4 -44h-49v103h302
v-103h-49l-4 44q-3 16 -32 16h-26v-250q0 -13 7 -13h31v-46h-160z" />
    <glyph glyph-name="minus" unicode="&#x2212;" horiz-adv-x="479" 
d="M37 197v96h405v-96h-405z" />
    <glyph glyph-name="G.alt" horiz-adv-x="718" 
d="M575 0l-42 113q-47 -126 -211 -126q-141 0 -219.5 90.5t-78.5 253.5q0 157 85 251.5t224 94.5q70 0 121.5 -30.5t72.5 -86.5l28 104h80v-247h-115q-27 174 -174 174q-177 0 -177 -242v-34q0 -125 42.5 -183.5t132.5 -58.5q67 0 106.5 40t39.5 106v27h-108v75h317v-75h-64
v-246h-60z" />
    <glyph glyph-name="a.alt" horiz-adv-x="612" 
d="M239 -13q-100 0 -159.5 70.5t-59.5 186.5q0 115 62 185.5t160 70.5q121 0 164 -99v86h51q51 0 81 10v-396q0 -26 17 -26h44v-75h-181l-8 92q-45 -105 -171 -105zM282 74q56 0 88.5 41t32.5 121v15q0 79 -33 120.5t-88 41.5q-57 0 -89.5 -41.5t-32.5 -120.5v-15
q0 -79 32.5 -120.5t89.5 -41.5z" />
    <glyph glyph-name="f.alt" horiz-adv-x="316" 
d="M12 412v75h66v36q0 177 174 177q54 0 90 -26.5t36 -69.5q0 -38 -21.5 -60t-55.5 -22q-51 0 -65 42.5t29 76.5q-51 -2 -65.5 -48.5t6.5 -110.5l92 5v-75h-87v-311q0 -16 4 -21t13 -5h52v-75h-263v75h44q9 0 13 5t4 21v311h-66z" />
    <glyph glyph-name="fi.alt" horiz-adv-x="586" 
d="M12 412v75h66v6q0 106 55.5 158t180.5 52q73 0 109.5 -24.5t36.5 -67.5q0 -34 -21.5 -56.5t-53.5 -22.5q-44 0 -63 31.5t-4 71.5q-65 6 -86 -29t-21 -119h181q71 0 117 10v-396q0 -26 16 -26h42v-75h-254v75h44q17 0 17 26v271q0 23 -4.5 31.5t-17.5 8.5h-141v-311
q0 -16 4 -21t13 -5h52v-75h-263v75h44q9 0 13 5t4 21v311h-66z" />
    <glyph glyph-name="J.alt" horiz-adv-x="580" 
d="M264 -13q-120 0 -178 49t-58 158v71h139v-97q0 -51 23 -73t71 -22q53 0 76 28.5t23 93.5v366q0 17 -4 22.5t-15 5.5h-50v75h275v-75h-50q-11 0 -15 -5.5t-4 -22.5v-343q0 -121 -57.5 -176t-175.5 -55z" />
    <glyph glyph-name="a.alt2" horiz-adv-x="586" 
d="M245 424q-38 0 -64 -8q19 -22 19 -54q0 -33 -22 -53t-56 -20q-39 0 -61 21t-22 59q0 68 63.5 99.5t166.5 31.5q114 0 164.5 -38t50.5 -127v-220q0 -26 5.5 -35.5t20.5 -9.5q11 0 15.5 5.5t4.5 19.5v28h53v-34q0 -101 -117 -101q-102 0 -116 105q-19 -47 -67 -76.5
t-108 -29.5q-69 0 -110 36.5t-41 95.5q0 37 15.5 65t40 46.5t69 33t88.5 23t112 18.5v28q0 50 -24.5 70.5t-79.5 20.5zM226 70q57 0 90 37t33 102v36q-100 -14 -146.5 -37t-46.5 -70q0 -31 19 -49.5t51 -18.5z" />
    <glyph glyph-name="four.alt" horiz-adv-x="584" 
d="M258 0v75h50q11 0 15 6t4 23v81h-316v77l305 407h145v-404h102v-80h-102v-81q0 -17 4 -23t15 -6h53v-75h-275zM329 549l-216 -284h216v284z" />
    <glyph glyph-name="seven.alt" horiz-adv-x="539" 
d="M109 0l298 556h-260q-24 0 -32.5 -6t-8.5 -25l-1 -63h-85v202h509v-60l-279 -604h-141z" />
    <glyph glyph-name="Q.alt" horiz-adv-x="729" 
d="M356 -12q-153 0 -242.5 93t-89.5 250q0 155 95 250.5t246 95.5q154 0 241 -94t87 -252q0 -134 -74 -225q25 -31 54 -31h45v-75h-102q-39 0 -77 36q-81 -48 -183 -48zM168 354v-36q0 -151 64 -209q-13 24 -13 52q0 60 42 95.5t112 35.5q98 0 166 -87q12 44 12 103v46
q0 237 -189 237q-194 0 -194 -237zM348 217q-35 0 -57 -19t-22 -52t27.5 -53t77.5 -20q69 0 112 37q-40 57 -68.5 82t-69.5 25z" />
    <glyph glyph-name="R.alt" horiz-adv-x="683" 
d="M601 483q0 -138 -168 -169q53 -21 77 -62.5t28 -108.5q4 -64 38 -64q27 0 27 29v63h80v-45q0 -72 -35.5 -105.5t-107.5 -33.5q-77 0 -115.5 45.5t-45.5 120.5q-3 39 -6.5 58.5t-14 41t-30.5 30t-52 8.5h-54v-187q0 -17 4 -23t15 -6h48v-75h-273v75h50q11 0 15 6t4 23v457
q0 16 -4 22t-15 6h-50v75h356q119 0 174 -43.5t55 -137.5zM222 589v-233h104q70 0 98 26t28 92q0 63 -25.5 89t-88.5 26h-116z" />
    <glyph glyph-name="two.alt" horiz-adv-x="579" 
d="M265 597q-83 0 -130 -49q38 -4 59.5 -26t21.5 -55q0 -37 -24 -60t-64 -23q-42 0 -69.5 30t-27.5 78q0 81 71 133t176 52q126 0 198.5 -56.5t72.5 -153.5q0 -67 -34 -111t-86 -65.5t-106.5 -37t-105 -38t-71.5 -55.5q25 7 45 7q45 0 122 -29t113 -29q53 0 53 49v50h73v-86
q0 -135 -131 -135q-42 0 -81.5 18.5t-65 41.5t-58 41.5t-63.5 18.5q-9 0 -21 -2l22 -105h-128l6 52q8 60 32.5 105.5t57.5 72.5t71.5 48.5t75.5 38.5t67 36t48.5 47.5t18.5 67.5q0 59 -37 94t-101 35z" />
    <glyph glyph-name="y.alt" horiz-adv-x="565" 
d="M96 -172v75h57q15 0 24 9.5t25 39.5l42 96l-176 338q-9 17 -13.5 21.5t-13.5 4.5h-34v75h248v-75h-31q-13 0 -18.5 -9t0.5 -20l103 -216l91 214q14 31 -16 31h-34v75h209v-75h-29q-12 0 -17 -4.5t-13 -21.5l-207 -454q-14 -29 16 -29h44v-75h-257z" />
    <glyph glyph-name="arrow_east.orn" horiz-adv-x="1360" 
d="M30 326v4q65 40 227.5 167.5t201.5 181.5l24 -11l-173 -312h345l196 310h98l-194 -311h65l200 311h98l-200 -311h68l203 311h97l-201 -311l156 34v-114l-158 33l203 -309h-97l-203 310h-69l201 -310h-98l-200 310h-66l195 -310h-98l-196 308h-345l184 -310l-26 -12
q-38 54 -202 175.5t-236 165.5z" />
    <glyph glyph-name="arrow_west.orn" horiz-adv-x="1360" 
d="M1330 326q-25 -15 -134 -100.5t-206 -163.5l-97 -77l-25 12l183 310h-345l-197 -308h-98l196 310h-66l-200 -310h-97l200 310h-69l-202 -310h-99l204 310l-159 -34v114l158 -34l-203 311h99l202 -311h67l-198 311h97l200 -311h65l-195 311h98l197 -310h345l-173 312
l25 11q371 -314 427 -349v-4z" />
    <glyph glyph-name="fl.alt" horiz-adv-x="586" 
d="M313 0v75h44q9 0 13 5t4 21v448q-22 -19 -53 -19q-48 0 -64 39t20 73q-54 -1 -72.5 -46.5t1.5 -113.5l90 5v-75h-85v-311q0 -16 4 -21t13 -5h52v-75h-263v75h44q9 0 13 5t4 21v311h-66v75h66v36q0 90 48 133.5t136 43.5q74 0 112 -36h26q63 0 109 10v-573q0 -16 4 -21
t12 -5h43v-75h-255z" />
    <glyph glyph-name="t.alt" horiz-adv-x="331" 
d="M226 -12q-82 0 -117.5 35.5t-35.5 117.5v271h-66v75h66v113h135v-113h97v-75h-100v-273q0 -38 14.5 -53.5t47.5 -15.5q22 0 46 8v-77q-43 -13 -87 -13z" />
    <glyph glyph-name="J.alt2" horiz-adv-x="566" 
d="M204 209q0 -34 -25.5 -54.5t-61.5 -12.5q10 -79 114 -79q57 0 86 28t29 90v380q0 17 -4 22.5t-15 5.5h-61v75h286v-75h-50q-11 0 -15 -5.5t-4 -22.5v-346q0 -117 -59 -172.5t-180 -55.5q-100 0 -160.5 45t-60.5 132q0 53 28.5 85.5t74.5 32.5q35 0 56.5 -20.5t21.5 -52.5
z" />
    <glyph glyph-name="g.alt2" horiz-adv-x="611" 
d="M540 72q0 -130 -71 -189t-210 -59q-100 0 -196 43l39 85q74 -38 155 -38q76 0 113.5 31.5t37.5 108.5v56q-50 -93 -166 -93q-101 0 -161.5 64.5t-60.5 175.5q0 110 61.5 176.5t160.5 66.5q127 0 170 -104l5 91h184v-75h-45q-16 0 -16 -26v-314zM286 96q55 0 86.5 42
t31.5 115v6q0 72 -31.5 113t-86.5 41q-59 0 -92.5 -39.5t-33.5 -113.5v-10q0 -75 33.5 -114.5t92.5 -39.5z" />
    <glyph glyph-name="c.alt" horiz-adv-x="532" 
d="M258 500q112 0 150 -91l32 83h65v-208h-109q-12 67 -37.5 99.5t-78.5 32.5q-58 0 -92.5 -43.5t-34.5 -120.5v-16q0 -74 38 -118.5t105 -44.5q53 0 86 24t51 76l79 -36q-49 -150 -225 -150q-129 0 -198.5 67.5t-69.5 190.5q0 117 67.5 186t171.5 69z" />
    <glyph glyph-name="g.alt" horiz-adv-x="584" 
d="M540 72q0 -130 -71 -189t-210 -59q-100 0 -196 43l39 85q74 -38 155 -38q76 0 113.5 31.5t37.5 108.5v56q-50 -93 -166 -93q-101 0 -161.5 64.5t-60.5 175.5q0 110 61.5 176.5t160.5 66.5q121 0 166 -95v82h50q50 0 82 10v-425zM286 96q55 0 86.5 42t31.5 115v6
q0 72 -31.5 113t-86.5 41q-59 0 -92.5 -39.5t-33.5 -113.5v-10q0 -75 33.5 -114.5t92.5 -39.5z" />
    <glyph glyph-name="r.alt" horiz-adv-x="402" 
d="M208 497v-135q13 71 60 104.5t112 33.5v-127q-22 8 -48 8q-121 0 -121 -153v-127q0 -16 4 -21t13 -5h50v-75h-263v75h44q9 0 13 5t4 21v281q0 18 -3.5 24t-13.5 6h-44v75h78q71 0 115 10z" />
    <glyph glyph-name="dbar" horiz-adv-x="608" 
d="M596 529h-58v-428q0 -16 4 -21t13 -5h42v-75h-179q-3 19 -7 95q-45 -108 -172 -108q-100 0 -159.5 70.5t-59.5 186.5q0 115 60 185.5t158 70.5q121 0 165 -98v127h-132v75h132v60h19q72 0 116 10v-70h58v-75zM282 72q56 0 88.5 42t32.5 122v15q0 79 -33 121.5t-88 42.5
q-57 0 -89.5 -42.5t-32.5 -121.5v-15q0 -79 32.5 -121.5t89.5 -42.5z" />
    <glyph glyph-name="commaaccent" horiz-adv-x="509" 
d="M207 -198q52 0 55 45q-13 -5 -25 -5q-25 0 -39.5 14t-14.5 38q0 25 18 41.5t46 16.5q33 0 57 -25.5t24 -64.5q0 -51 -31 -82.5t-82 -31.5q-19 0 -40 7v52q20 -5 32 -5z" />
    <glyph glyph-name="dot" horiz-adv-x="222" 
d="M111 164q-37 0 -59.5 22.5t-22.5 57.5t22.5 57t59.5 22q36 0 59 -22t23 -57t-23 -57.5t-59 -22.5z" />
    <glyph glyph-name="Racute.alt" horiz-adv-x="679" 
d="M601 483q0 -138 -168 -169q53 -21 77 -62.5t28 -108.5q4 -64 38 -64q27 0 27 29v63h80v-45q0 -72 -35.5 -105.5t-107.5 -33.5q-77 0 -115.5 45.5t-45.5 120.5q-3 39 -6.5 58.5t-14 41t-30.5 30t-52 8.5h-54v-187q0 -17 4 -23t15 -6h48v-75h-273v75h50q11 0 15 6t4 23v457
q0 16 -4 22t-15 6h-50v75h356q119 0 174 -43.5t55 -137.5zM222 589v-233h104q70 0 98 26t28 92q0 63 -25.5 89t-88.5 26h-116zM230 703l90 138h124v-46l-157 -92h-57z" />
    <glyph glyph-name="Rcaron.alt" horiz-adv-x="679" 
d="M601 483q0 -138 -168 -169q53 -21 77 -62.5t28 -108.5q4 -64 38 -64q27 0 27 29v63h80v-45q0 -72 -35.5 -105.5t-107.5 -33.5q-77 0 -115.5 45.5t-45.5 120.5q-3 39 -6.5 58.5t-14 41t-30.5 30t-52 8.5h-54v-187q0 -17 4 -23t15 -6h48v-75h-273v75h50q11 0 15 6t4 23v457
q0 16 -4 22t-15 6h-50v75h356q119 0 174 -43.5t55 -137.5zM222 589v-233h104q70 0 98 26t28 92q0 63 -25.5 89t-88.5 26h-116zM166 838h65l68 -76l67 76h66l-86 -136h-94z" />
    <glyph glyph-name="Rcommaaccent.alt" horiz-adv-x="679" 
d="M601 483q0 -138 -168 -169q53 -21 77 -62.5t28 -108.5q4 -64 38 -64q27 0 27 29v63h80v-45q0 -72 -35.5 -105.5t-107.5 -33.5q-77 0 -115.5 45.5t-45.5 120.5q-3 39 -6.5 58.5t-14 41t-30.5 30t-52 8.5h-54v-187q0 -17 4 -23t15 -6h48v-75h-273v75h50q11 0 15 6t4 23v457
q0 16 -4 22t-15 6h-50v75h356q119 0 174 -43.5t55 -137.5zM222 589v-233h104q70 0 98 26t28 92q0 63 -25.5 89t-88.5 26h-116zM314 -198q52 0 55 45q-13 -5 -25 -5q-25 0 -39.5 14t-14.5 38q0 25 18 41.5t46 16.5q33 0 57 -25.5t24 -64.5q0 -51 -31 -82.5t-82 -31.5
q-19 0 -40 7v52q20 -5 32 -5z" />
    <glyph glyph-name="aacute.alt2" horiz-adv-x="586" 
d="M245 424q-38 0 -64 -8q19 -22 19 -54q0 -33 -22 -53t-56 -20q-39 0 -61 21t-22 59q0 68 63.5 99.5t166.5 31.5q114 0 164.5 -38t50.5 -127v-220q0 -26 5.5 -35.5t20.5 -9.5q11 0 15.5 5.5t4.5 19.5v28h53v-34q0 -101 -117 -101q-102 0 -116 105q-19 -47 -67 -76.5
t-108 -29.5q-69 0 -110 36.5t-41 95.5q0 37 15.5 65t40 46.5t69 33t88.5 23t112 18.5v28q0 50 -24.5 70.5t-79.5 20.5zM226 70q57 0 90 37t33 102v36q-100 -14 -146.5 -37t-46.5 -70q0 -31 19 -49.5t51 -18.5zM206 526l90 138h124v-46l-157 -92h-57z" />
    <glyph glyph-name="abreve.alt2" horiz-adv-x="586" 
d="M245 424q-38 0 -64 -8q19 -22 19 -54q0 -33 -22 -53t-56 -20q-39 0 -61 21t-22 59q0 68 63.5 99.5t166.5 31.5q114 0 164.5 -38t50.5 -127v-220q0 -26 5.5 -35.5t20.5 -9.5q11 0 15.5 5.5t4.5 19.5v28h53v-34q0 -101 -117 -101q-102 0 -116 105q-19 -47 -67 -76.5
t-108 -29.5q-69 0 -110 36.5t-41 95.5q0 37 15.5 65t40 46.5t69 33t88.5 23t112 18.5v28q0 50 -24.5 70.5t-79.5 20.5zM226 70q57 0 90 37t33 102v36q-100 -14 -146.5 -37t-46.5 -70q0 -31 19 -49.5t51 -18.5zM269 535q-67 0 -103.5 35t-36.5 100h67q0 -78 73 -78
q72 0 72 78h67q0 -65 -36 -100t-103 -35z" />
    <glyph glyph-name="acircumflex.alt2" horiz-adv-x="586" 
d="M245 424q-38 0 -64 -8q19 -22 19 -54q0 -33 -22 -53t-56 -20q-39 0 -61 21t-22 59q0 68 63.5 99.5t166.5 31.5q114 0 164.5 -38t50.5 -127v-220q0 -26 5.5 -35.5t20.5 -9.5q11 0 15.5 5.5t4.5 19.5v28h53v-34q0 -101 -117 -101q-102 0 -116 105q-19 -47 -67 -76.5
t-108 -29.5q-69 0 -110 36.5t-41 95.5q0 37 15.5 65t40 46.5t69 33t88.5 23t112 18.5v28q0 50 -24.5 70.5t-79.5 20.5zM226 70q57 0 90 37t33 102v36q-100 -14 -146.5 -37t-46.5 -70q0 -31 19 -49.5t51 -18.5zM214 525h-65l85 136h93l84 -136h-66l-65 77z" />
    <glyph glyph-name="adieresis.alt2" horiz-adv-x="586" 
d="M245 424q-38 0 -64 -8q19 -22 19 -54q0 -33 -22 -53t-56 -20q-39 0 -61 21t-22 59q0 68 63.5 99.5t166.5 31.5q114 0 164.5 -38t50.5 -127v-220q0 -26 5.5 -35.5t20.5 -9.5q11 0 15.5 5.5t4.5 19.5v28h53v-34q0 -101 -117 -101q-102 0 -116 105q-19 -47 -67 -76.5
t-108 -29.5q-69 0 -110 36.5t-41 95.5q0 37 15.5 65t40 46.5t69 33t88.5 23t112 18.5v28q0 50 -24.5 70.5t-79.5 20.5zM226 70q57 0 90 37t33 102v36q-100 -14 -146.5 -37t-46.5 -70q0 -31 19 -49.5t51 -18.5zM188 535q-28 0 -45 17.5t-17 45.5t17 45t45 17q29 0 46.5 -17
t17.5 -45t-17.5 -45.5t-46.5 -17.5zM373 535q-29 0 -46 17.5t-17 45.5t17 45t46 17q28 0 45.5 -17t17.5 -45t-17.5 -45.5t-45.5 -17.5z" />
    <glyph glyph-name="agrave.alt2" horiz-adv-x="586" 
d="M245 424q-38 0 -64 -8q19 -22 19 -54q0 -33 -22 -53t-56 -20q-39 0 -61 21t-22 59q0 68 63.5 99.5t166.5 31.5q114 0 164.5 -38t50.5 -127v-220q0 -26 5.5 -35.5t20.5 -9.5q11 0 15.5 5.5t4.5 19.5v28h53v-34q0 -101 -117 -101q-102 0 -116 105q-19 -47 -67 -76.5
t-108 -29.5q-69 0 -110 36.5t-41 95.5q0 37 15.5 65t40 46.5t69 33t88.5 23t112 18.5v28q0 50 -24.5 70.5t-79.5 20.5zM226 70q57 0 90 37t33 102v36q-100 -14 -146.5 -37t-46.5 -70q0 -31 19 -49.5t51 -18.5zM311 525l-157 93v46h124l90 -139h-57z" />
    <glyph glyph-name="amacron.alt2" horiz-adv-x="586" 
d="M245 424q-38 0 -64 -8q19 -22 19 -54q0 -33 -22 -53t-56 -20q-39 0 -61 21t-22 59q0 68 63.5 99.5t166.5 31.5q114 0 164.5 -38t50.5 -127v-220q0 -26 5.5 -35.5t20.5 -9.5q11 0 15.5 5.5t4.5 19.5v28h53v-34q0 -101 -117 -101q-102 0 -116 105q-19 -47 -67 -76.5
t-108 -29.5q-69 0 -110 36.5t-41 95.5q0 37 15.5 65t40 46.5t69 33t88.5 23t112 18.5v28q0 50 -24.5 70.5t-79.5 20.5zM226 70q57 0 90 37t33 102v36q-100 -14 -146.5 -37t-46.5 -70q0 -31 19 -49.5t51 -18.5zM120 554v75h305v-75h-305z" />
    <glyph glyph-name="aogonek.alt2" horiz-adv-x="586" 
d="M175 -13q-69 0 -110 36.5t-41 95.5q0 37 15.5 65t40 46.5t69 33t88.5 23t112 18.5v28q0 50 -24.5 70.5t-79.5 20.5q-38 0 -64 -8q19 -22 19 -54q0 -33 -22 -53t-56 -20q-39 0 -61 21t-22 59q0 68 63.5 99.5t166.5 31.5q114 0 164.5 -38t50.5 -127v-220q0 -26 5.5 -35.5
t20.5 -9.5q11 0 15.5 5.5t4.5 19.5v28h53v-34q0 -61 -43 -86q-18 -10 -29 -34t-11 -43q0 -23 15 -31t29 -8q20 0 35 9v-61q-22 -11 -61 -11q-47 -1 -76.5 18t-29.5 58q0 54 47 88q-45 2 -73.5 28t-35.5 77q-19 -47 -67 -76.5t-108 -29.5zM226 70q57 0 90 37t33 102v36
q-100 -14 -146.5 -37t-46.5 -70q0 -31 19 -49.5t51 -18.5z" />
    <glyph glyph-name="aring.alt2" horiz-adv-x="586" 
d="M245 424q-38 0 -64 -8q19 -22 19 -54q0 -33 -22 -53t-56 -20q-39 0 -61 21t-22 59q0 68 63.5 99.5t166.5 31.5q114 0 164.5 -38t50.5 -127v-220q0 -26 5.5 -35.5t20.5 -9.5q11 0 15.5 5.5t4.5 19.5v28h53v-34q0 -101 -117 -101q-102 0 -116 105q-19 -47 -67 -76.5
t-108 -29.5q-69 0 -110 36.5t-41 95.5q0 37 15.5 65t40 46.5t69 33t88.5 23t112 18.5v28q0 50 -24.5 70.5t-79.5 20.5zM276 535h-5h-10l-19 3l-8 2l-16 6q-30 13 -44 42l-4 10q-5 15 -5 28v4q0 61 57 85q9 4 16 5q2 1 4 1q2 1 5 1q8 2 14 2q3 1 10 1h5h5q7 0 10 -1
q4 0 14 -2q3 0 4 -1q4 0 7.5 -1t7.5 -2.5t6 -2.5l7 -4q4 -1 7 -4q2 -1 4 -2.5t3 -1.5l9 -8l2 -2q15 -15 21 -36q0 -2 1 -5t1.5 -5.5t0.5 -4.5q1 -3 1 -8v-4q0 -14 -3 -24q-3 -12 -7 -18l-3 -7q-2 -2 -4 -6l-10 -11q-4 -4 -12 -10q-10 -7 -30 -14l-13 -3q-1 0 -5 -0.5
t-5 -0.5t-2 -0.5t-2 -0.5h-15zM226 70q57 0 90 37t33 102v36q-100 -14 -146.5 -37t-46.5 -70q0 -31 19 -49.5t51 -18.5zM276 577q8 0 12 1q8 2 14 4l5 3q6 4 8 6l2 3l3 3l3 5q2 4 2 6q3 6 3 12q1 3 1 10v5q0 1 -0.5 3.5t-0.5 3.5l-3 10l-1 2v2l-9 13l-3 2l-3 3q-1 0 -2 1
q-1 0 -3 2q-10 4 -16 5h-3q-3 1 -9 1h-5q-1 0 -2.5 -0.5t-2.5 -0.5q-10 -2 -16 -4l-2 -1q-6 -3 -11 -8t-8 -11l-3 -6q-2 -8 -2 -10v-1q-1 -1 -1 -2v-4v-5q0 -17 5 -26l3 -6q4 -5 6 -7t7 -6l6 -3q5 -3 16 -5h10z" />
    <glyph glyph-name="aringacute.alt2" horiz-adv-x="586" 
d="M245 424q-38 0 -64 -8q19 -22 19 -54q0 -33 -22 -53t-56 -20q-39 0 -61 21t-22 59q0 68 63.5 99.5t166.5 31.5q114 0 164.5 -38t50.5 -127v-220q0 -26 5.5 -35.5t20.5 -9.5q11 0 15.5 5.5t4.5 19.5v28h53v-34q0 -101 -117 -101q-102 0 -116 105q-19 -47 -67 -76.5
t-108 -29.5q-69 0 -110 36.5t-41 95.5q0 37 15.5 65t40 46.5t69 33t88.5 23t112 18.5v28q0 50 -24.5 70.5t-79.5 20.5zM276 535q-51 0 -81 26.5t-30 68.5t30.5 68.5t80.5 26.5t80.5 -26.5t30.5 -68.5t-30 -68.5t-81 -26.5zM226 70q57 0 90 37t33 102v36q-100 -14 -146.5 -37
t-46.5 -70q0 -31 19 -49.5t51 -18.5zM190 740l90 138h124v-46l-157 -92h-57zM276 577q25 0 39 14t14 39t-14 39t-39 14t-39 -14t-14 -39t14 -39t39 -14z" />
    <glyph glyph-name="atilde.alt2" horiz-adv-x="586" 
d="M245 424q-38 0 -64 -8q19 -22 19 -54q0 -33 -22 -53t-56 -20q-39 0 -61 21t-22 59q0 68 63.5 99.5t166.5 31.5q114 0 164.5 -38t50.5 -127v-220q0 -26 5.5 -35.5t20.5 -9.5q11 0 15.5 5.5t4.5 19.5v28h53v-34q0 -101 -117 -101q-102 0 -116 105q-19 -47 -67 -76.5
t-108 -29.5q-69 0 -110 36.5t-41 95.5q0 37 15.5 65t40 46.5t69 33t88.5 23t112 18.5v28q0 50 -24.5 70.5t-79.5 20.5zM121 535l4 33q4 46 23 67t55 21q33 0 76 -26t56 -26q20 0 24 26l4 21h62l-4 -33q-5 -47 -23.5 -68.5t-54.5 -21.5q-33 0 -76 26.5t-56 26.5
q-22 0 -25 -26l-3 -20h-62zM226 70q57 0 90 37t33 102v36q-100 -14 -146.5 -37t-46.5 -70q0 -31 19 -49.5t51 -18.5z" />
    <glyph glyph-name="Gbreve.alt" horiz-adv-x="713" 
d="M575 0l-42 113q-47 -126 -211 -126q-141 0 -219.5 90.5t-78.5 253.5q0 157 85 251.5t224 94.5q70 0 121.5 -30.5t72.5 -86.5l28 104h80v-247h-115q-27 174 -174 174q-177 0 -177 -242v-34q0 -125 42.5 -183.5t132.5 -58.5q67 0 106.5 40t39.5 106v27h-108v75h317v-75h-64
v-246h-60zM344 712q-67 0 -103.5 35t-36.5 100h67q0 -78 73 -78q72 0 72 78h67q0 -65 -36 -100t-103 -35z" />
    <glyph glyph-name="Gcircumflex.alt" horiz-adv-x="713" 
d="M575 0l-42 113q-47 -126 -211 -126q-141 0 -219.5 90.5t-78.5 253.5q0 157 85 251.5t224 94.5q70 0 121.5 -30.5t72.5 -86.5l28 104h80v-247h-115q-27 174 -174 174q-177 0 -177 -242v-34q0 -125 42.5 -183.5t132.5 -58.5q67 0 106.5 40t39.5 106v27h-108v75h317v-75h-64
v-246h-60zM281 702h-65l85 136h93l84 -136h-66l-65 77z" />
    <glyph glyph-name="Gcommaaccent.alt" horiz-adv-x="713" 
d="M575 0l-42 113q-47 -126 -211 -126q-141 0 -219.5 90.5t-78.5 253.5q0 157 85 251.5t224 94.5q70 0 121.5 -30.5t72.5 -86.5l28 104h80v-247h-115q-27 174 -174 174q-177 0 -177 -242v-34q0 -125 42.5 -183.5t132.5 -58.5q67 0 106.5 40t39.5 106v27h-108v75h317v-75h-64
v-246h-60zM297 -198q52 0 55 45q-13 -5 -25 -5q-25 0 -39.5 14t-14.5 38q0 25 18 41.5t46 16.5q33 0 57 -25.5t24 -64.5q0 -51 -31 -82.5t-82 -31.5q-19 0 -40 7v52q20 -5 32 -5z" />
    <glyph glyph-name="Gdotaccent.alt" horiz-adv-x="713" 
d="M575 0l-42 113q-47 -126 -211 -126q-141 0 -219.5 90.5t-78.5 253.5q0 157 85 251.5t224 94.5q70 0 121.5 -30.5t72.5 -86.5l28 104h80v-247h-115q-27 174 -174 174q-177 0 -177 -242v-34q0 -125 42.5 -183.5t132.5 -58.5q67 0 106.5 40t39.5 106v27h-108v75h317v-75h-64
v-246h-60zM347 722q-28 0 -45.5 17t-17.5 43t17.5 42.5t45.5 16.5t45.5 -16.5t17.5 -42.5t-17.5 -43t-45.5 -17z" />
    <glyph glyph-name="cacute.alt" horiz-adv-x="532" 
d="M258 500q112 0 150 -91l32 83h65v-208h-109q-12 67 -37.5 99.5t-78.5 32.5q-58 0 -92.5 -43.5t-34.5 -120.5v-16q0 -74 38 -118.5t105 -44.5q53 0 86 24t51 76l79 -36q-49 -150 -225 -150q-129 0 -198.5 67.5t-69.5 190.5q0 117 67.5 186t171.5 69zM185 526l90 138h124
v-46l-157 -92h-57z" />
    <glyph glyph-name="ccaron.alt" horiz-adv-x="532" 
d="M258 500q112 0 150 -91l32 83h65v-208h-109q-12 67 -37.5 99.5t-78.5 32.5q-58 0 -92.5 -43.5t-34.5 -120.5v-16q0 -74 38 -118.5t105 -44.5q53 0 86 24t51 76l79 -36q-49 -150 -225 -150q-129 0 -198.5 67.5t-69.5 190.5q0 117 67.5 186t171.5 69zM136 661h65l68 -76
l67 76h66l-86 -136h-94z" />
    <glyph glyph-name="ccedilla.alt" horiz-adv-x="532" 
d="M282 -197q-63 0 -121 30l9 44q59 -23 101 -23q54 0 54 28q0 27 -47 27q-20 0 -37 -9l-4 4v86q-106 13 -162 79t-56 176q0 117 67.5 186t171.5 69q112 0 150 -91l32 83h65v-208h-109q-12 67 -37.5 99.5t-78.5 32.5q-58 0 -92.5 -43.5t-34.5 -120.5v-16q0 -74 38 -118.5
t105 -44.5q53 0 86 24t51 76l79 -36q-47 -142 -208 -149l1 -33q4 1 13 1q96 0 96 -73q0 -37 -35 -58.5t-97 -21.5z" />
    <glyph glyph-name="ccircumflex.alt" horiz-adv-x="532" 
d="M258 500q112 0 150 -91l32 83h65v-208h-109q-12 67 -37.5 99.5t-78.5 32.5q-58 0 -92.5 -43.5t-34.5 -120.5v-16q0 -74 38 -118.5t105 -44.5q53 0 86 24t51 76l79 -36q-49 -150 -225 -150q-129 0 -198.5 67.5t-69.5 190.5q0 117 67.5 186t171.5 69zM209 525h-65l85 136
h93l84 -136h-66l-65 77z" />
    <glyph glyph-name="cdotaccent.alt" horiz-adv-x="532" 
d="M258 500q112 0 150 -91l32 83h65v-208h-109q-12 67 -37.5 99.5t-78.5 32.5q-58 0 -92.5 -43.5t-34.5 -120.5v-16q0 -74 38 -118.5t105 -44.5q53 0 86 24t51 76l79 -36q-49 -150 -225 -150q-129 0 -198.5 67.5t-69.5 190.5q0 117 67.5 186t171.5 69zM278 545
q-28 0 -45.5 17t-17.5 43t17.5 42.5t45.5 16.5t45.5 -16.5t17.5 -42.5t-17.5 -43t-45.5 -17z" />
    <glyph glyph-name="Jcircumflex.alt" horiz-adv-x="580" 
d="M264 -13q-120 0 -178 49t-58 158v71h139v-97q0 -51 23 -73t71 -22q53 0 76 28.5t23 93.5v366q0 17 -4 22.5t-15 5.5h-50v75h275v-75h-50q-11 0 -15 -5.5t-4 -22.5v-343q0 -121 -57.5 -176t-175.5 -55zM362 702h-65l85 136h93l84 -136h-66l-65 77z" />
    <glyph glyph-name="racute.alt" horiz-adv-x="402" 
d="M208 497v-135q13 71 60 104.5t112 33.5v-127q-22 8 -48 8q-121 0 -121 -153v-127q0 -16 4 -21t13 -5h50v-75h-263v75h44q9 0 13 5t4 21v281q0 18 -3.5 24t-13.5 6h-44v75h78q71 0 115 10zM102 526l90 138h124v-46l-157 -92h-57z" />
    <glyph glyph-name="rcaron.alt" horiz-adv-x="402" 
d="M208 497v-135q13 71 60 104.5t112 33.5v-127q-22 8 -48 8q-121 0 -121 -153v-127q0 -16 4 -21t13 -5h50v-75h-263v75h44q9 0 13 5t4 21v281q0 18 -3.5 24t-13.5 6h-44v75h78q71 0 115 10zM81 661h65l68 -76l67 76h66l-86 -136h-94z" />
    <glyph glyph-name="rcommaaccent.alt" horiz-adv-x="402" 
d="M208 497v-135q13 71 60 104.5t112 33.5v-127q-22 8 -48 8q-121 0 -121 -153v-127q0 -16 4 -21t13 -5h50v-75h-263v75h44q9 0 13 5t4 21v281q0 18 -3.5 24t-13.5 6h-44v75h78q71 0 115 10zM107 -198q52 0 55 45q-13 -5 -25 -5q-25 0 -39.5 14t-14.5 38q0 25 18 41.5
t46 16.5q33 0 57 -25.5t24 -64.5q0 -51 -31 -82.5t-82 -31.5q-19 0 -40 7v52q20 -5 32 -5z" />
    <glyph glyph-name="Jcircumflex.alt2" horiz-adv-x="566" 
d="M204 209q0 -34 -25.5 -54.5t-61.5 -12.5q10 -79 109 -79q56 0 82.5 27.5t26.5 90.5v380q0 17 -4 22.5t-15 5.5h-61v75h297v-75h-50q-11 0 -15 -5.5t-4 -22.5v-346q0 -117 -59 -172.5t-180 -55.5q-100 0 -160.5 45t-60.5 132q0 53 28.5 85.5t74.5 32.5q35 0 56.5 -20.5
t21.5 -52.5zM337 702h-65l85 136h93l84 -136h-66l-65 77z" />
    <glyph glyph-name="gbreve.alt2" horiz-adv-x="611" 
d="M540 72q0 -130 -71 -189t-210 -59q-100 0 -196 43l39 85q74 -38 155 -38q76 0 113.5 31.5t37.5 108.5v56q-50 -93 -166 -93q-101 0 -161.5 64.5t-60.5 175.5q0 110 61.5 176.5t160.5 66.5q127 0 170 -104l5 91h184v-75h-45q-16 0 -16 -26v-314zM286 96q55 0 86.5 42
t31.5 115v6q0 72 -31.5 113t-86.5 41q-59 0 -92.5 -39.5t-33.5 -113.5v-10q0 -75 33.5 -114.5t92.5 -39.5zM323 535q-67 0 -103.5 35t-36.5 100h67q0 -78 73 -78q72 0 72 78h67q0 -65 -36 -100t-103 -35z" />
    <glyph glyph-name="gcircumflex.alt2" horiz-adv-x="611" 
d="M540 72q0 -130 -71 -189t-210 -59q-100 0 -196 43l39 85q74 -38 155 -38q76 0 113.5 31.5t37.5 108.5v56q-50 -93 -166 -93q-101 0 -161.5 64.5t-60.5 175.5q0 110 61.5 176.5t160.5 66.5q127 0 170 -104l5 91h184v-75h-45q-16 0 -16 -26v-314zM286 96q55 0 86.5 42
t31.5 115v6q0 72 -31.5 113t-86.5 41q-59 0 -92.5 -39.5t-33.5 -113.5v-10q0 -75 33.5 -114.5t92.5 -39.5zM260 526h-65l85 136h93l84 -136h-66l-65 77z" />
    <glyph glyph-name="gcommaaccent.alt2" horiz-adv-x="611" 
d="M540 72q0 -130 -71 -189t-210 -59q-100 0 -196 43l39 85q74 -38 155 -38q76 0 113.5 31.5t37.5 108.5v56q-50 -93 -166 -93q-101 0 -161.5 64.5t-60.5 175.5q0 110 61.5 176.5t160.5 66.5q127 0 170 -104l5 91h184v-75h-45q-16 0 -16 -26v-314zM286 96q55 0 86.5 42
t31.5 115v6q0 72 -31.5 113t-86.5 41q-59 0 -92.5 -39.5t-33.5 -113.5v-10q0 -75 33.5 -114.5t92.5 -39.5zM361 670q-52 0 -55 -45q13 5 25 5q25 0 39.5 -14t14.5 -38q0 -25 -18 -41.5t-46 -16.5q-33 0 -57 25.5t-24 64.5q0 51 31 82.5t82 31.5q19 0 40 -7v-52q-20 5 -32 5z
" />
    <glyph glyph-name="gdotaccent.alt2" horiz-adv-x="611" 
d="M540 72q0 -130 -71 -189t-210 -59q-100 0 -196 43l39 85q74 -38 155 -38q76 0 113.5 31.5t37.5 108.5v56q-50 -93 -166 -93q-101 0 -161.5 64.5t-60.5 175.5q0 110 61.5 176.5t160.5 66.5q127 0 170 -104l5 91h184v-75h-45q-16 0 -16 -26v-314zM286 96q55 0 86.5 42
t31.5 115v6q0 72 -31.5 113t-86.5 41q-59 0 -92.5 -39.5t-33.5 -113.5v-10q0 -75 33.5 -114.5t92.5 -39.5zM321 545q-28 0 -45.5 17t-17.5 43t17.5 42.5t45.5 16.5t45.5 -16.5t17.5 -42.5t-17.5 -43t-45.5 -17z" />
    <glyph glyph-name="tcaron.alt" horiz-adv-x="331" 
d="M226 -12q-82 0 -117.5 35.5t-35.5 117.5v271h-66v75h66v113h135v-27h6q52 0 55 45q-10 -5 -25 -5q-25 0 -39.5 14t-14.5 38q0 25 18 41.5t46 16.5q33 0 57 -25.5t24 -64.5q0 -51 -31 -82.5t-82 -31.5q-10 0 -14 1v-33h97v-75h-100v-273q0 -38 14.5 -53.5t47.5 -15.5
q22 0 46 8v-77q-43 -13 -87 -13z" />
    <glyph glyph-name="tcommaaccent.alt" horiz-adv-x="331" 
d="M226 -12q-82 0 -117.5 35.5t-35.5 117.5v271h-66v75h66v113h135v-113h97v-75h-100v-273q0 -38 14.5 -53.5t47.5 -15.5q22 0 46 8v-77q-43 -13 -87 -13zM127 -198q52 0 55 45q-13 -5 -25 -5q-25 0 -39.5 14t-14.5 38q0 25 18 41.5t46 16.5q33 0 57 -25.5t24 -64.5
q0 -51 -31 -82.5t-82 -31.5q-19 0 -40 7v52q20 -5 32 -5z" />
    <glyph glyph-name="gbreve.alt" horiz-adv-x="584" 
d="M540 72q0 -130 -71 -189t-210 -59q-100 0 -196 43l39 85q74 -38 155 -38q76 0 113.5 31.5t37.5 108.5v56q-50 -93 -166 -93q-101 0 -161.5 64.5t-60.5 175.5q0 110 61.5 176.5t160.5 66.5q121 0 166 -95v82h50q50 0 82 10v-425zM286 96q55 0 86.5 42t31.5 115v6
q0 72 -31.5 113t-86.5 41q-59 0 -92.5 -39.5t-33.5 -113.5v-10q0 -75 33.5 -114.5t92.5 -39.5zM295 535q-67 0 -103.5 35t-36.5 100h67q0 -78 73 -78q72 0 72 78h67q0 -65 -36 -100t-103 -35z" />
    <glyph glyph-name="gcircumflex.alt" horiz-adv-x="584" 
d="M540 72q0 -130 -71 -189t-210 -59q-100 0 -196 43l39 85q74 -38 155 -38q76 0 113.5 31.5t37.5 108.5v56q-50 -93 -166 -93q-101 0 -161.5 64.5t-60.5 175.5q0 110 61.5 176.5t160.5 66.5q121 0 166 -95v82h50q50 0 82 10v-425zM286 96q55 0 86.5 42t31.5 115v6
q0 72 -31.5 113t-86.5 41q-59 0 -92.5 -39.5t-33.5 -113.5v-10q0 -75 33.5 -114.5t92.5 -39.5zM229 525h-65l85 136h93l84 -136h-66l-65 77z" />
    <glyph glyph-name="gcommaaccent.alt" horiz-adv-x="584" 
d="M540 72q0 -130 -71 -189t-210 -59q-100 0 -196 43l39 85q74 -38 155 -38q76 0 113.5 31.5t37.5 108.5v56q-50 -93 -166 -93q-101 0 -161.5 64.5t-60.5 175.5q0 110 61.5 176.5t160.5 66.5q121 0 166 -95v82h50q50 0 82 10v-425zM286 96q55 0 86.5 42t31.5 115v6
q0 72 -31.5 113t-86.5 41q-59 0 -92.5 -39.5t-33.5 -113.5v-10q0 -75 33.5 -114.5t92.5 -39.5zM343 682q-52 0 -55 -45q13 5 25 5q25 0 39.5 -14t14.5 -38q0 -25 -18 -41.5t-46 -16.5q-33 0 -57 25.5t-24 64.5q0 51 31 82.5t82 31.5q19 0 40 -7v-52q-20 5 -32 5z" />
    <glyph glyph-name="gdotaccent.alt" horiz-adv-x="584" 
d="M540 72q0 -130 -71 -189t-210 -59q-100 0 -196 43l39 85q74 -38 155 -38q76 0 113.5 31.5t37.5 108.5v56q-50 -93 -166 -93q-101 0 -161.5 64.5t-60.5 175.5q0 110 61.5 176.5t160.5 66.5q121 0 166 -95v82h50q50 0 82 10v-425zM286 96q55 0 86.5 42t31.5 115v6
q0 72 -31.5 113t-86.5 41q-59 0 -92.5 -39.5t-33.5 -113.5v-10q0 -75 33.5 -114.5t92.5 -39.5zM295 545q-28 0 -45.5 17t-17.5 43t17.5 42.5t45.5 16.5t45.5 -16.5t17.5 -42.5t-17.5 -43t-45.5 -17z" />
    <glyph glyph-name="aacute.alt" horiz-adv-x="612" 
d="M239 -13q-100 0 -159.5 70.5t-59.5 186.5q0 115 62 185.5t160 70.5q121 0 164 -99v86h51q51 0 81 10v-396q0 -26 17 -26h44v-75h-181l-8 92q-45 -105 -171 -105zM282 74q56 0 88.5 41t32.5 121v15q0 79 -33 120.5t-88 41.5q-57 0 -89.5 -41.5t-32.5 -120.5v-15
q0 -79 32.5 -120.5t89.5 -41.5zM225 526l90 138h124v-46l-157 -92h-57z" />
    <glyph glyph-name="abreve.alt" horiz-adv-x="612" 
d="M239 -13q-100 0 -159.5 70.5t-59.5 186.5q0 115 62 185.5t160 70.5q121 0 164 -99v86h51q51 0 81 10v-396q0 -26 17 -26h44v-75h-181l-8 92q-45 -105 -171 -105zM282 74q56 0 88.5 41t32.5 121v15q0 79 -33 120.5t-88 41.5q-57 0 -89.5 -41.5t-32.5 -120.5v-15
q0 -79 32.5 -120.5t89.5 -41.5zM299 535q-67 0 -103.5 35t-36.5 100h67q0 -78 73 -78q72 0 72 78h67q0 -65 -36 -100t-103 -35z" />
    <glyph glyph-name="acircumflex.alt" horiz-adv-x="612" 
d="M239 -13q-100 0 -159.5 70.5t-59.5 186.5q0 115 62 185.5t160 70.5q121 0 164 -99v86h51q51 0 81 10v-396q0 -26 17 -26h44v-75h-181l-8 92q-45 -105 -171 -105zM282 74q56 0 88.5 41t32.5 121v15q0 79 -33 120.5t-88 41.5q-57 0 -89.5 -41.5t-32.5 -120.5v-15
q0 -79 32.5 -120.5t89.5 -41.5zM226 525h-65l85 136h93l84 -136h-66l-65 77z" />
    <glyph glyph-name="adieresis.alt" horiz-adv-x="612" 
d="M239 -13q-100 0 -159.5 70.5t-59.5 186.5q0 115 62 185.5t160 70.5q121 0 164 -99v86h51q51 0 81 10v-396q0 -26 17 -26h44v-75h-181l-8 92q-45 -105 -171 -105zM282 74q56 0 88.5 41t32.5 121v15q0 79 -33 120.5t-88 41.5q-57 0 -89.5 -41.5t-32.5 -120.5v-15
q0 -79 32.5 -120.5t89.5 -41.5zM387 535q-29 0 -46 17.5t-17 45.5t17 45t46 17q28 0 45.5 -17t17.5 -45t-17.5 -45.5t-45.5 -17.5zM202 535q-28 0 -45 17.5t-17 45.5t17 45t45 17q29 0 46.5 -17t17.5 -45t-17.5 -45.5t-46.5 -17.5z" />
    <glyph glyph-name="agrave.alt" horiz-adv-x="612" 
d="M239 -13q-100 0 -159.5 70.5t-59.5 186.5q0 115 62 185.5t160 70.5q121 0 164 -99v86h51q51 0 81 10v-396q0 -26 17 -26h44v-75h-181l-8 92q-45 -105 -171 -105zM282 74q56 0 88.5 41t32.5 121v15q0 79 -33 120.5t-88 41.5q-57 0 -89.5 -41.5t-32.5 -120.5v-15
q0 -79 32.5 -120.5t89.5 -41.5zM335 525l-157 93v46h124l90 -139h-57z" />
    <glyph glyph-name="amacron.alt" horiz-adv-x="612" 
d="M239 -13q-100 0 -159.5 70.5t-59.5 186.5q0 115 62 185.5t160 70.5q121 0 164 -99v86h51q51 0 81 10v-396q0 -26 17 -26h44v-75h-181l-8 92q-45 -105 -171 -105zM282 74q56 0 88.5 41t32.5 121v15q0 79 -33 120.5t-88 41.5q-57 0 -89.5 -41.5t-32.5 -120.5v-15
q0 -79 32.5 -120.5t89.5 -41.5zM146 554v75h305v-75h-305z" />
    <glyph glyph-name="aogonek.alt" horiz-adv-x="612" 
d="M418 0l-8 92q-45 -105 -171 -105q-100 0 -159.5 70.5t-59.5 186.5q0 115 62 185.5t160 70.5q121 0 164 -99v86h51q51 0 81 10v-396q0 -26 17 -26h44v-75q-41 -10 -60 -30t-19 -43q0 -19 12 -29.5t32 -10.5q17 0 35 9v-61q-31 -11 -63 -11q-49 0 -76.5 20.5t-27.5 56.5
q0 60 78 99h-92zM282 74q56 0 88.5 41t32.5 121v15q0 79 -33 120.5t-88 41.5q-57 0 -89.5 -41.5t-32.5 -120.5v-15q0 -79 32.5 -120.5t89.5 -41.5z" />
    <glyph glyph-name="aring.alt" horiz-adv-x="612" 
d="M239 -13q-100 0 -159.5 70.5t-59.5 186.5q0 115 62 185.5t160 70.5q121 0 164 -99v86h51q51 0 81 10v-396q0 -26 17 -26h44v-75h-181l-8 92q-45 -105 -171 -105zM282 74q56 0 88.5 41t32.5 121v15q0 79 -33 120.5t-88 41.5q-57 0 -89.5 -41.5t-32.5 -120.5v-15
q0 -79 32.5 -120.5t89.5 -41.5zM304 535q-51 0 -81 26.5t-30 68.5t30.5 68.5t80.5 26.5t80.5 -26.5t30.5 -68.5t-30 -68.5t-81 -26.5zM304 577q25 0 39 14t14 39t-14 39t-39 14t-39 -14t-14 -39t14 -39t39 -14z" />
    <glyph glyph-name="aringacute.alt" horiz-adv-x="612" 
d="M216 745l90 138h124v-46l-157 -92h-57zM239 -13q-100 0 -159.5 70.5t-59.5 186.5q0 115 62 185.5t160 70.5q121 0 164 -99v86h51q51 0 81 10v-396q0 -26 17 -26h44v-75h-181l-8 92q-45 -105 -171 -105zM282 74q56 0 88.5 41t32.5 121v15q0 79 -33 120.5t-88 41.5
q-57 0 -89.5 -41.5t-32.5 -120.5v-15q0 -79 32.5 -120.5t89.5 -41.5zM305 535q-51 0 -81 26.5t-30 68.5t30.5 68.5t80.5 26.5t80.5 -26.5t30.5 -68.5t-30 -68.5t-81 -26.5zM305 577q25 0 39 14t14 39t-14 39t-39 14t-39 -14t-14 -39t14 -39t39 -14z" />
    <glyph glyph-name="atilde.alt" horiz-adv-x="612" 
d="M239 -13q-100 0 -159.5 70.5t-59.5 186.5q0 115 62 185.5t160 70.5q121 0 164 -99v86h51q51 0 81 10v-396q0 -26 17 -26h44v-75h-181l-8 92q-45 -105 -171 -105zM282 74q56 0 88.5 41t32.5 121v15q0 79 -33 120.5t-88 41.5q-57 0 -89.5 -41.5t-32.5 -120.5v-15
q0 -79 32.5 -120.5t89.5 -41.5zM133 535l4 33q4 46 23 67t55 21q33 0 76 -26t56 -26q20 0 24 26l4 21h62l-4 -33q-5 -47 -23.5 -68.5t-54.5 -21.5q-33 0 -76 26.5t-56 26.5q-22 0 -25 -26l-3 -20h-62z" />
    <glyph glyph-name="yacute.alt" horiz-adv-x="565" 
d="M96 -172v75h57q15 0 24 9.5t25 39.5l42 96l-176 338q-9 17 -13.5 21.5t-13.5 4.5h-34v75h248v-75h-31q-13 0 -18.5 -9t0.5 -20l103 -216l91 214q14 31 -16 31h-34v75h209v-75h-29q-12 0 -17 -4.5t-13 -21.5l-207 -454q-14 -29 16 -29h44v-75h-257zM242 526l90 138h124
v-46l-157 -92h-57z" />
    <glyph glyph-name="ycircumflex.alt" horiz-adv-x="565" 
d="M96 -172v75h57q15 0 24 9.5t25 39.5l42 96l-176 338q-9 17 -13.5 21.5t-13.5 4.5h-34v75h248v-75h-31q-13 0 -18.5 -9t0.5 -20l103 -216l91 214q14 31 -16 31h-34v75h209v-75h-29q-12 0 -17 -4.5t-13 -21.5l-207 -454q-14 -29 16 -29h44v-75h-257zM239 525h-65l85 136h93
l84 -136h-66l-65 77z" />
    <glyph glyph-name="ydieresis.alt" horiz-adv-x="565" 
d="M96 -172v75h57q15 0 24 9.5t25 39.5l42 96l-176 338q-9 17 -13.5 21.5t-13.5 4.5h-34v75h248v-75h-31q-13 0 -18.5 -9t0.5 -20l103 -216l91 214q14 31 -16 31h-34v75h209v-75h-29q-12 0 -17 -4.5t-13 -21.5l-207 -454q-14 -29 16 -29h44v-75h-257zM213 535
q-28 0 -45 17.5t-17 45.5t17 45t45 17q29 0 46.5 -17t17.5 -45t-17.5 -45.5t-46.5 -17.5zM398 535q-28 0 -45.5 17.5t-17.5 45.5t17 45t46 17q28 0 45.5 -17t17.5 -45t-17.5 -45.5t-45.5 -17.5z" />
    <glyph glyph-name="f_f.alt" horiz-adv-x="613" 
d="M12 412v75h66q-6 104 40 153t134 49q54 0 90 -26.5t36 -69.5q0 -38 -21.5 -60t-55.5 -22q-51 0 -65 43t31 77q-101 4 -65 -144h171v36q0 177 174 177q54 0 90 -26.5t36 -69.5q0 -38 -21.5 -60t-55.5 -22q-51 0 -65 42.5t29 76.5q-50 -2 -64.5 -47.5t3.5 -106.5h94v-75
h-87v-311q0 -16 4 -21t13 -5h52v-75h-263v75h44q9 0 13 5t4 21v311h-162v-311q0 -16 4 -21t13 -5h47v-75h-258v75h44q9 0 13 5t4 21v311h-66z" />
    <glyph glyph-name="f_f_l.alt" horiz-adv-x="878" 
d="M12 412v75h66q-13 201 164 201q56 0 89.5 -22t33.5 -67q0 -33 -19 -51.5t-50 -18.5q-40 0 -55.5 29t9.5 73q-82 -10 -48 -144h169v6q-14 211 164 211q73 0 105 -40h53q63 0 109 10v-573q0 -16 4 -21t12 -5h43v-75h-255v75h44q9 0 13 5t4 21v458q0 26 -12 29
q-11 -49 -66 -49q-39 0 -55 31.5t9 75.5q-85 -11 -46 -159h92v-75h-85v-311q0 -16 4 -21t13 -5h51v-75h-260v75h42q9 0 13 5t4 21v311h-160v-311q0 -16 4 -21t13 -5h47v-75h-258v75h44q9 0 13 5t4 21v311h-66z" />
    <glyph glyph-name="a.alt3" horiz-adv-x="614" 
d="M239 -13q-100 0 -159.5 70.5t-59.5 186.5q0 115 62 185.5t160 70.5q130 0 169 -113l6 100h182v-75h-45q-16 0 -16 -26v-285q0 -26 17 -26h44v-75h-181q0 2 -3.5 34.5t-5.5 54.5q-47 -102 -170 -102zM282 74q56 0 88.5 41t32.5 121v15q0 79 -33 120.5t-88 41.5
q-57 0 -89.5 -41.5t-32.5 -120.5v-15q0 -79 32.5 -120.5t89.5 -41.5z" />
    <glyph glyph-name="f_f_i.alt" horiz-adv-x="878" 
d="M12 412v75h66q-13 201 164 201q56 0 89.5 -22t33.5 -67q0 -33 -19 -51.5t-50 -18.5q-40 0 -55.5 29t9.5 73q-82 -10 -48 -144h169v6q0 106 55.5 158t180.5 52q73 0 109.5 -24.5t36.5 -67.5q0 -33 -21.5 -51.5t-58.5 -18.5q-42 0 -59.5 28t-2.5 66q-65 6 -86 -29t-21 -119
h181q71 0 117 10v-396q0 -26 16 -26h42v-75h-254v75h44q17 0 17 26v271q0 23 -4.5 31.5t-17.5 8.5h-141v-311q0 -16 4 -21t13 -5h52v-75h-263v75h44q9 0 13 5t4 21v311h-160v-311q0 -16 4 -21t13 -5h47v-75h-258v75h44q9 0 13 5t4 21v311h-66z" />
    <glyph glyph-name="aacute.alt3" horiz-adv-x="614" 
d="M239 -13q-100 0 -159.5 70.5t-59.5 186.5q0 115 62 185.5t160 70.5q130 0 169 -113l6 100h182v-75h-45q-16 0 -16 -26v-285q0 -26 17 -26h44v-75h-181q0 2 -3.5 34.5t-5.5 54.5q-47 -102 -170 -102zM282 74q56 0 88.5 41t32.5 121v15q0 79 -33 120.5t-88 41.5
q-57 0 -89.5 -41.5t-32.5 -120.5v-15q0 -79 32.5 -120.5t89.5 -41.5zM226 526l90 138h124v-46l-157 -92h-57z" />
    <glyph glyph-name="abreve.alt3" horiz-adv-x="614" 
d="M239 -13q-100 0 -159.5 70.5t-59.5 186.5q0 115 62 185.5t160 70.5q130 0 169 -113l6 100h182v-75h-45q-16 0 -16 -26v-285q0 -26 17 -26h44v-75h-181q0 2 -3.5 34.5t-5.5 54.5q-47 -102 -170 -102zM282 74q56 0 88.5 41t32.5 121v15q0 79 -33 120.5t-88 41.5
q-57 0 -89.5 -41.5t-32.5 -120.5v-15q0 -79 32.5 -120.5t89.5 -41.5zM300 535q-67 0 -103.5 35t-36.5 100h67q0 -78 73 -78q72 0 72 78h67q0 -65 -36 -100t-103 -35z" />
    <glyph glyph-name="acircumflex.alt3" horiz-adv-x="614" 
d="M239 -13q-100 0 -159.5 70.5t-59.5 186.5q0 115 62 185.5t160 70.5q130 0 169 -113l6 100h182v-75h-45q-16 0 -16 -26v-285q0 -26 17 -26h44v-75h-181q0 2 -3.5 34.5t-5.5 54.5q-47 -102 -170 -102zM282 74q56 0 88.5 41t32.5 121v15q0 79 -33 120.5t-88 41.5
q-57 0 -89.5 -41.5t-32.5 -120.5v-15q0 -79 32.5 -120.5t89.5 -41.5zM227 525h-65l85 136h93l84 -136h-66l-65 77z" />
    <glyph glyph-name="adieresis.alt3" horiz-adv-x="614" 
d="M239 -13q-100 0 -159.5 70.5t-59.5 186.5q0 115 62 185.5t160 70.5q130 0 169 -113l6 100h182v-75h-45q-16 0 -16 -26v-285q0 -26 17 -26h44v-75h-181q0 2 -3.5 34.5t-5.5 54.5q-47 -102 -170 -102zM282 74q56 0 88.5 41t32.5 121v15q0 79 -33 120.5t-88 41.5
q-57 0 -89.5 -41.5t-32.5 -120.5v-15q0 -79 32.5 -120.5t89.5 -41.5zM203 535q-28 0 -45 17.5t-17 45.5t17 45t45 17q29 0 46.5 -17t17.5 -45t-17.5 -45.5t-46.5 -17.5zM388 535q-28 0 -45.5 17.5t-17.5 45.5t17 45t46 17q28 0 45.5 -17t17.5 -45t-17.5 -45.5t-45.5 -17.5z
" />
    <glyph glyph-name="agrave.alt3" horiz-adv-x="614" 
d="M239 -13q-100 0 -159.5 70.5t-59.5 186.5q0 115 62 185.5t160 70.5q130 0 169 -113l6 100h182v-75h-45q-16 0 -16 -26v-285q0 -26 17 -26h44v-75h-181q0 2 -3.5 34.5t-5.5 54.5q-47 -102 -170 -102zM282 74q56 0 88.5 41t32.5 121v15q0 79 -33 120.5t-88 41.5
q-57 0 -89.5 -41.5t-32.5 -120.5v-15q0 -79 32.5 -120.5t89.5 -41.5zM336 525l-157 93v46h124l90 -139h-57z" />
    <glyph glyph-name="amacron.alt3" horiz-adv-x="614" 
d="M239 -13q-100 0 -159.5 70.5t-59.5 186.5q0 115 62 185.5t160 70.5q130 0 169 -113l6 100h182v-75h-45q-16 0 -16 -26v-285q0 -26 17 -26h44v-75h-181q0 2 -3.5 34.5t-5.5 54.5q-47 -102 -170 -102zM282 74q56 0 88.5 41t32.5 121v15q0 79 -33 120.5t-88 41.5
q-57 0 -89.5 -41.5t-32.5 -120.5v-15q0 -79 32.5 -120.5t89.5 -41.5zM147 554v75h305v-75h-305z" />
    <glyph glyph-name="aogonek.alt3" horiz-adv-x="614" 
d="M239 -13q-100 0 -159.5 70.5t-59.5 186.5q0 115 62 185.5t160 70.5q130 0 169 -113l6 100h182v-75h-45q-16 0 -16 -26v-285q0 -26 17 -26h44v-75q-39 0 -59 -23.5t-20 -49.5q0 -19 12 -29.5t32 -10.5q17 0 35 9v-61q-31 -11 -63 -11q-49 0 -76.5 20.5t-27.5 56.5
q0 60 78 99h-92q0 2 -3.5 34.5t-5.5 54.5q-47 -102 -170 -102zM282 74q56 0 88.5 41t32.5 121v15q0 79 -33 120.5t-88 41.5q-57 0 -89.5 -41.5t-32.5 -120.5v-15q0 -79 32.5 -120.5t89.5 -41.5z" />
    <glyph glyph-name="aring.alt3" horiz-adv-x="614" 
d="M239 -13q-100 0 -159.5 70.5t-59.5 186.5q0 115 62 185.5t160 70.5q130 0 169 -113l6 100h182v-75h-45q-16 0 -16 -26v-285q0 -26 17 -26h44v-75h-181q0 2 -3.5 34.5t-5.5 54.5q-47 -102 -170 -102zM282 74q56 0 88.5 41t32.5 121v15q0 79 -33 120.5t-88 41.5
q-57 0 -89.5 -41.5t-32.5 -120.5v-15q0 -79 32.5 -120.5t89.5 -41.5zM334 535q-51 0 -81 26.5t-30 68.5t30.5 68.5t80.5 26.5t80.5 -26.5t30.5 -68.5t-30 -68.5t-81 -26.5zM334 583q20 0 33.5 13.5t13.5 33.5t-13.5 33.5t-33.5 13.5t-33.5 -13.5t-13.5 -33.5t13.5 -33.5
t33.5 -13.5z" />
    <glyph glyph-name="aringacute.alt3" horiz-adv-x="614" 
d="M239 -13q-100 0 -159.5 70.5t-59.5 186.5q0 115 62 185.5t160 70.5q130 0 169 -113l6 100h182v-75h-45q-16 0 -16 -26v-285q0 -26 17 -26h44v-75h-181q0 2 -3.5 34.5t-5.5 54.5q-47 -102 -170 -102zM282 74q56 0 88.5 41t32.5 121v15q0 79 -33 120.5t-88 41.5
q-57 0 -89.5 -41.5t-32.5 -120.5v-15q0 -79 32.5 -120.5t89.5 -41.5zM334 535q-51 0 -81 26.5t-30 68.5t30.5 68.5t80.5 26.5t80.5 -26.5t30.5 -68.5t-30 -68.5t-81 -26.5zM249 765l90 138h124v-46l-157 -92h-57zM334 583q20 0 33.5 13.5t13.5 33.5t-13.5 33.5t-33.5 13.5
t-33.5 -13.5t-13.5 -33.5t13.5 -33.5t33.5 -13.5z" />
    <glyph glyph-name="atilde.alt3" horiz-adv-x="614" 
d="M239 -13q-100 0 -159.5 70.5t-59.5 186.5q0 115 62 185.5t160 70.5q130 0 169 -113l6 100h182v-75h-45q-16 0 -16 -26v-285q0 -26 17 -26h44v-75h-181q0 2 -3.5 34.5t-5.5 54.5q-47 -102 -170 -102zM282 74q56 0 88.5 41t32.5 121v15q0 79 -33 120.5t-88 41.5
q-57 0 -89.5 -41.5t-32.5 -120.5v-15q0 -79 32.5 -120.5t89.5 -41.5zM134 535l4 33q4 46 23 67t55 21q34 0 77 -26t55 -26q20 0 24 26l4 21h62l-4 -33q-5 -47 -23.5 -68.5t-54.5 -21.5q-34 0 -77 26.5t-55 26.5q-22 0 -25 -26l-3 -20h-62z" />
    <glyph glyph-name="solidus" horiz-adv-x="637" 
d="M0 0l281 343l262 321h94l-264 -321l-278 -343h-95z" />
    <glyph glyph-name="one.sups" horiz-adv-x="301" 
d="M53 533h-22v63h23q35 0 52.5 15.5t27.5 53.5h76v-297q0 -16 11 -16h58v-53h-241v53h63q6 0 8.5 3t2.5 13v180q-26 -15 -59 -15z" />
    <glyph glyph-name="two.sups" horiz-adv-x="333" 
d="M154 617q-41 0 -59 -23q33 -8 33 -43q0 -21 -15.5 -35t-39.5 -13q-58 0 -58 66q0 44 41 73t110 29q74 0 114.5 -31t40.5 -85q0 -37 -19.5 -62t-49 -38t-60.5 -23.5t-58.5 -26t-38.5 -38.5h131q26 0 27 20l5 32h56v-120h-302v22q1 44 22.5 76.5t52 51t60 33t50.5 33.5
t21 43q0 28 -17.5 43.5t-46.5 15.5z" />
    <glyph glyph-name="three.sups" horiz-adv-x="326" 
d="M119 397q0 -29 -28 -41q20 -13 57 -13q63 0 63 58v4q0 53 -65 53q-8 0 -18 -1t-11 -1v60q13 -3 32 -3q26 0 43 13t17 35v4q0 54 -60 54q-36 0 -56 -14q28 -12 28 -38q0 -18 -15 -31.5t-35 -13.5q-25 0 -41 16t-16 43q0 43 40.5 66.5t102.5 23.5q152 0 152 -97
q0 -29 -20 -49.5t-57 -27.5q83 -20 83 -96q0 -52 -43.5 -81t-120.5 -29q-142 0 -142 89q0 28 16.5 45t43.5 17q21 0 35.5 -13t14.5 -32z" />
    <glyph glyph-name="ampersand.alt" horiz-adv-x="767" 
d="M261 -13q-115 0 -174.5 55.5t-59.5 145.5q0 78 49 128t130 73q-43 67 -43 125q0 73 53.5 120t147.5 47q78 0 124.5 -41.5t46.5 -107.5q0 -123 -167 -160l20 -25l120 -145q33 46 63 120h-75v75h246v-75h-73q-61 -110 -116 -175l59 -71h107v-76h-217l-47 60
q-98 -73 -194 -73zM282 72q65 0 130 43l-128 164l-45 61q-93 -47 -93 -138q0 -59 37 -94.5t99 -35.5zM288 529q0 -48 42 -107q57 14 85.5 39.5t28.5 69.5q0 36 -20 58t-56 22q-38 0 -59 -22.5t-21 -59.5z" />
    <glyph glyph-name="q.alt" horiz-adv-x="614" 
d="M342 -172v75h44q9 0 13 5t4 21v161q-50 -103 -164 -103q-100 0 -159.5 70.5t-59.5 186.5q0 115 60 185.5t158 70.5q122 0 168 -104v91h193v-75h-45q-16 0 -16 -26v-457q0 -16 4 -21t13 -5h44v-75h-257zM282 74q56 0 88.5 41t32.5 121v15q0 79 -33 120.5t-88 41.5
q-57 0 -89.5 -41.5t-32.5 -120.5v-15q0 -79 32.5 -120.5t89.5 -41.5z" />
    <glyph glyph-name="parenleft.lnum" horiz-adv-x="377" 
d="M350 -95q-107 8 -181 66t-108 146.5t-34 202.5v10q0 173 82 286t241 125h15v-74l-8 -1q-87 -13 -137.5 -95t-50.5 -231v-29q0 -151 51 -234.5t137 -96.5l8 -1v-74h-15z" />
    <glyph glyph-name="parenright.lnum" horiz-adv-x="377" 
d="M12 -95v74l8 1q87 12 137.5 96t50.5 235v29q0 150 -50.5 232t-137.5 94l-8 1v74h15q108 -8 181.5 -65.5t107 -145t33.5 -200.5v-10q0 -175 -81.5 -289t-240.5 -126h-15z" />
    <glyph glyph-name="bracketleft.lnum" horiz-adv-x="329" 
d="M47 -95v836h265v-75h-109q-16 0 -21.5 -8t-5.5 -32v-606q0 -24 5.5 -32t21.5 -8h109v-75h-265z" />
    <glyph glyph-name="bracketright.lnum" horiz-adv-x="329" 
d="M17 -95v75h109q16 0 21.5 8t5.5 32v606q0 24 -5.5 32t-21.5 8h-109v75h265v-836h-265z" />
    <glyph glyph-name="braceleft.lnum" horiz-adv-x="362" 
d="M225 461q0 -58 -20.5 -91.5t-71.5 -46.5q51 -14 71.5 -47t20.5 -91v-84q0 -68 21.5 -93t78.5 -27l20 -1v-75l-63 1q-100 3 -145.5 49t-45.5 140v94q0 51 -17 73.5t-58 22.5h-12v76h12q41 0 58 22.5t17 73.5v85q0 95 45.5 144.5t145.5 53.5l63 1v-75l-20 -1
q-56 -4 -78 -31t-22 -96v-77z" />
    <glyph glyph-name="braceright.lnum" horiz-adv-x="362" 
d="M136 461v77q0 69 -21.5 96t-78.5 31l-20 1v75l64 -1q99 -4 144.5 -53.5t45.5 -144.5v-85q0 -51 17 -73.5t58 -22.5h13v-76h-13q-41 0 -58 -22.5t-17 -73.5v-94q0 -94 -45.5 -140t-144.5 -49l-64 -1v75l20 1q57 2 78.5 26.5t21.5 93.5v84q0 58 20.5 91t71.5 47
q-51 13 -71.5 46.5t-20.5 91.5z" />
    <glyph glyph-name="endash.lnum" horiz-adv-x="384" 
d="M20 283v80h344v-80h-344z" />
    <glyph glyph-name="quotedbl.lnum" horiz-adv-x="376" 
d="M263 388q-45 161 -45 209v67h121v-67q0 -37 -44 -209h-32zM82 388q-1 4 -11 42t-16 61.5t-12 55.5t-6 50v67h121v-67q0 -37 -44 -209h-32z" />
    <glyph glyph-name="degree.lnum" horiz-adv-x="377" 
d="M187 350q-76 0 -120 45t-44 119q0 72 45.5 117.5t122.5 45.5q75 0 119 -45.5t44 -117.5q0 -73 -45.5 -118.5t-121.5 -45.5zM187 411q71 0 71 101v3q0 100 -69 100q-71 0 -71 -100v-3q0 -101 69 -101z" />
    <glyph glyph-name="asterisk.lnum" horiz-adv-x="368" 
d="M212 450l11 -121h-76l12 122l-102 -71l-37 65l110 52l-109 50l38 66l100 -70l-12 121h76l-11 -121l97 70l38 -66l-110 -50l111 -52l-37 -65z" />
    <glyph glyph-name="divide.lnum" horiz-adv-x="479" 
d="M239 413q-31 0 -49.5 18t-18.5 48t18.5 48t49.5 18t49.5 -18t18.5 -48t-18.5 -48t-49.5 -18zM37 283v80h405v-80h-405zM239 101q-31 0 -49.5 18t-18.5 47q0 30 18.5 48t49.5 18t49.5 -18t18.5 -48q0 -29 -18.5 -47t-49.5 -18z" />
    <glyph glyph-name="multiply.lnum" horiz-adv-x="479" 
d="M239 262l-138 -145l-68 68l145 138l-145 139l68 68l138 -146l139 145l68 -68l-145 -138l145 -139l-68 -68z" />
    <glyph glyph-name="plus.lnum" horiz-adv-x="479" 
d="M37 278v90h155v157h95v-157h155v-90h-155v-157h-95v157h-155z" />
    <glyph glyph-name="minus.lnum" horiz-adv-x="479" 
d="M37 275v96h405v-96h-405z" />
    <glyph glyph-name="greater.lnum" horiz-adv-x="478" 
d="M48 105v99l245 119l-245 119v99l388 -191v-54z" />
    <glyph glyph-name="less.lnum" horiz-adv-x="478" 
d="M433 105l-389 191v54l389 191v-99l-246 -119l246 -119v-99z" />
    <glyph glyph-name="bullet.lnum" horiz-adv-x="328" 
d="M163 190q-61 0 -98.5 36.5t-37.5 96.5q0 59 38.5 96t100.5 37q61 0 98 -36.5t37 -96.5t-37.5 -96.5t-100.5 -36.5z" />
    <glyph glyph-name="asciitilde.lnum" horiz-adv-x="440" 
d="M68 265l4 33q4 46 23 67t55 21q33 0 76.5 -26t55.5 -26q20 0 24 26l4 21h62l-4 -33q-5 -47 -23.5 -68.5t-54.5 -21.5q-34 0 -77 26.5t-55 26.5q-22 0 -25 -26l-3 -20h-62z" />
    <glyph glyph-name="equal.lnum" horiz-adv-x="479" 
d="M30 373v85h419v-85h-419zM30 188v85h419v-85h-419z" />
    <glyph glyph-name="period.lnum" horiz-adv-x="222" 
d="M111 -13q-37 0 -59.5 22.5t-22.5 57.5t22.5 57t59.5 22q36 0 59 -22t23 -57t-23 -57.5t-59 -22.5z" />
    <glyph glyph-name="comma.lnum" horiz-adv-x="222" 
d="M56 -38q63 0 67 55q-12 -6 -31 -6q-30 0 -48.5 17t-18.5 47q0 31 22 51t57 20q42 0 71 -31t29 -80q0 -63 -37.5 -101t-100.5 -38q-23 0 -49 7v65q18 -6 39 -6z" />
    <glyph glyph-name="colon.lnum" horiz-adv-x="222" 
d="M111 395q-37 0 -59.5 22t-22.5 57t22.5 57t59.5 22q36 0 59 -22t23 -57t-23 -57t-59 -22zM111 89q-37 0 -59.5 22.5t-22.5 57.5t22.5 57t59.5 22q36 0 59 -22t23 -57t-23 -57.5t-59 -22.5z" />
    <glyph glyph-name="semicolon.lnum" horiz-adv-x="222" 
d="M56 -38q63 0 67 55q-12 -6 -31 -6q-30 0 -48.5 17t-18.5 47q0 31 22 51t57 20q42 0 71 -31t29 -80q0 -63 -37.5 -101t-100.5 -38q-23 0 -49 7v65q18 -6 39 -6zM111 293q-37 0 -59.5 22t-22.5 57t22.5 57t59.5 22q36 0 59 -22t23 -57t-23 -57t-59 -22z" />
    <glyph glyph-name="periodcentered.lnum" horiz-adv-x="222" 
d="M111 244q-37 0 -59.5 22.5t-22.5 57.5t22.5 57t59.5 22q36 0 59 -22t23 -57t-23 -57.5t-59 -22.5z" />
    <glyph glyph-name="bar.lnum" horiz-adv-x="205" 
d="M40 -95v836h125v-836h-125z" />
    <glyph glyph-name="quotesingle.lnum" horiz-adv-x="196" 
d="M82 388q-1 4 -11 42t-16 61.5t-12 55.5t-6 50v67h121v-67q0 -37 -44 -209h-32z" />
    <glyph glyph-name="hyphen.lnum" horiz-adv-x="289" 
d="M20 276v95h254v-95h-254z" />
    <glyph glyph-name="guillemotleft.lnum" horiz-adv-x="407" 
d="M380 165l-180 132v52l180 132v-100l-81 -58l81 -58v-100zM190 180l-168 117v52l168 117v-93l-74 -50l74 -51v-92z" />
    <glyph glyph-name="guillemotright.lnum" horiz-adv-x="407" 
d="M217 180v92l74 51l-74 50v93l168 -117v-52zM27 165v100l80 58l-80 58v100l180 -132v-52z" />
    <glyph glyph-name="guilsinglleft.lnum" horiz-adv-x="229" 
d="M202 165l-180 132v52l180 132v-100l-81 -58l81 -58v-100z" />
    <glyph glyph-name="guilsinglright.lnum" horiz-adv-x="229" 
d="M27 165v100l80 58l-80 58v100l180 -132v-52z" />
    <glyph glyph-name="plus.sinf" horiz-adv-x="367" 
d="M28 148v69h119v120h73v-120h119v-69h-119v-120h-73v120h-119z" />
    <glyph glyph-name="minus.sinf" horiz-adv-x="367" 
d="M28 146v73h311v-73h-311z" />
    <glyph glyph-name="R.alt2" horiz-adv-x="637" 
d="M601 478q0 -148 -159 -177l120 -226h63v-75h-185l-141 276h-77v-172q0 -17 4 -23t15 -6h49v-75h-274v75h50q11 0 15 6t4 23v457q0 16 -4 22t-15 6h-50v75h354q118 0 174.5 -46t56.5 -140zM222 589v-238h95q71 0 103 27.5t32 92.5q0 63 -28.5 90.5t-91.5 27.5h-110z" />
    <glyph glyph-name="Racute.alt2" horiz-adv-x="637" 
d="M601 478q0 -148 -159 -177l120 -226h63v-75h-185l-141 276h-77v-172q0 -17 4 -23t15 -6h49v-75h-274v75h50q11 0 15 6t4 23v457q0 16 -4 22t-15 6h-50v75h354q118 0 174.5 -46t56.5 -140zM222 589v-238h95q71 0 103 27.5t32 92.5q0 63 -28.5 90.5t-91.5 27.5h-110z
M236 703l90 138h124v-46l-157 -92h-57z" />
    <glyph glyph-name="Rcaron.alt2" horiz-adv-x="637" 
d="M601 478q0 -148 -159 -177l120 -226h63v-75h-185l-141 276h-77v-172q0 -17 4 -23t15 -6h49v-75h-274v75h50q11 0 15 6t4 23v457q0 16 -4 22t-15 6h-50v75h354q118 0 174.5 -46t56.5 -140zM222 589v-238h95q71 0 103 27.5t32 92.5q0 63 -28.5 90.5t-91.5 27.5h-110z
M167 838h65l68 -76l67 76h66l-86 -136h-94z" />
    <glyph glyph-name="Rcommaaccent.alt2" horiz-adv-x="637" 
d="M601 478q0 -148 -159 -177l120 -226h63v-75h-185l-141 276h-77v-172q0 -17 4 -23t15 -6h49v-75h-274v75h50q11 0 15 6t4 23v457q0 16 -4 22t-15 6h-50v75h354q118 0 174.5 -46t56.5 -140zM222 589v-238h95q71 0 103 27.5t32 92.5q0 63 -28.5 90.5t-91.5 27.5h-110z
M311 -198q52 0 55 45q-13 -5 -25 -5q-25 0 -39.5 14t-14.5 38q0 25 18 41.5t46 16.5q33 0 57 -25.5t24 -64.5q0 -51 -31 -82.5t-82 -31.5q-19 0 -40 7v52q20 -5 32 -5z" />
    <glyph glyph-name="emdash.lnum" horiz-adv-x="474" 
d="M20 283v80h434v-80h-434z" />
    </font>
</defs>
</svg>
